<?xml version="1.0" encoding="utf-8" standalone="no"?>
<!DOCTYPE svg PUBLIC "-//W3C//DTD SVG 1.1//EN"
  "http://www.w3.org/Graphics/SVG/1.1/DTD/svg11.dtd">
<svg xmlns:xlink="http://www.w3.org/1999/xlink" width="864pt" height="648pt" viewBox="0 0 864 648" xmlns="http://www.w3.org/2000/svg" version="1.1">
 <metadata>
  <rdf:RDF xmlns:dc="http://purl.org/dc/elements/1.1/" xmlns:cc="http://creativecommons.org/ns#" xmlns:rdf="http://www.w3.org/1999/02/22-rdf-syntax-ns#">
   <cc:Work>
    <dc:type rdf:resource="http://purl.org/dc/dcmitype/StillImage"/>
    <dc:date>2025-07-19T00:36:21.034103</dc:date>
    <dc:format>image/svg+xml</dc:format>
    <dc:creator>
     <cc:Agent>
      <dc:title>Matplotlib v3.10.3, https://matplotlib.org/</dc:title>
     </cc:Agent>
    </dc:creator>
   </cc:Work>
  </rdf:RDF>
 </metadata>
 <defs>
  <style type="text/css">*{stroke-linejoin: round; stroke-linecap: butt}</style>
 </defs>
 <g id="figure_1">
  <g id="patch_1">
   <path d="M 0 648 
L 864 648 
L 864 0 
L 0 0 
z
" style="fill: #ffffff; stroke: #000000; stroke-width: 3; stroke-linejoin: miter"/>
  </g>
  <g id="axes_1">
   <g id="patch_2">
    <path d="M 105.003582 568.32 
L 844 568.32 
L 844 54.6992 
L 105.003582 54.6992 
L 105.003582 568.32 
z
" style="fill: none"/>
   </g>
   <g id="matplotlib.axis_1">
    <g id="xtick_1">
     <g id="line2d_1">
      <path d="M 224.216336 568.32 
L 224.216336 54.6992 
" clip-path="url(#p1bad78f8aa)" style="fill: none; stroke-dasharray: 3.7,1.6; stroke-dashoffset: 0; stroke: #343837"/>
     </g>
     <g id="line2d_2">
      <defs>
       <path id="mb71e5e0763" d="M 0 0 
L 0 3.5 
" style="stroke: #000000; stroke-width: 0.8"/>
      </defs>
      <g>
       <use xlink:href="#mb71e5e0763" x="224.216336" y="568.32" style="stroke: #000000; stroke-width: 0.8"/>
      </g>
     </g>
     <g id="text_1">
      <!-- $\mathdefault{10^{-9}}$ -->
      <g transform="translate(203.866336 589.778125) scale(0.22 -0.22)">
       <defs>
        <path id="Aptos-31" d="M 1681 0 
L 1681 3425 
Q 1597 3309 1442 3201 
Q 1288 3094 1075 3009 
Q 863 2925 600 2888 
L 600 3381 
Q 859 3425 1082 3540 
Q 1306 3656 1476 3806 
Q 1647 3956 1744 4094 
L 2228 4094 
L 2228 0 
L 1681 0 
z
" transform="scale(0.015625)"/>
        <path id="Aptos-30" d="M 1709 -56 
Q 1316 -56 1045 105 
Q 775 266 611 552 
Q 447 838 373 1216 
Q 300 1594 300 2031 
Q 300 2475 373 2856 
Q 447 3238 611 3525 
Q 775 3813 1045 3973 
Q 1316 4134 1709 4134 
Q 2103 4134 2373 3975 
Q 2644 3816 2806 3527 
Q 2969 3238 3042 2858 
Q 3116 2478 3116 2038 
Q 3116 1597 3042 1217 
Q 2969 838 2806 552 
Q 2644 266 2373 105 
Q 2103 -56 1709 -56 
z
M 1709 400 
Q 1969 400 2134 540 
Q 2300 681 2392 917 
Q 2484 1153 2520 1445 
Q 2556 1738 2556 2038 
Q 2556 2341 2520 2633 
Q 2484 2925 2392 3161 
Q 2300 3397 2134 3537 
Q 1969 3678 1709 3678 
Q 1450 3678 1283 3537 
Q 1116 3397 1022 3161 
Q 928 2925 892 2633 
Q 856 2341 856 2038 
Q 856 1738 892 1445 
Q 928 1153 1022 917 
Q 1116 681 1283 540 
Q 1450 400 1709 400 
z
" transform="scale(0.015625)"/>
        <path id="Aptos-2212" d="M 353 1866 
L 353 2319 
L 3059 2319 
L 3059 1866 
L 353 1866 
z
" transform="scale(0.015625)"/>
        <path id="Aptos-39" d="M 1594 -56 
Q 1244 -56 970 64 
Q 697 184 523 415 
Q 350 647 303 978 
L 831 978 
Q 881 713 1075 552 
Q 1269 391 1594 391 
Q 2066 391 2337 778 
Q 2609 1166 2609 2019 
L 2609 2197 
Q 2609 2753 2481 3079 
Q 2353 3406 2142 3547 
Q 1931 3688 1681 3688 
Q 1250 3688 1042 3433 
Q 834 3178 834 2800 
Q 834 2422 1034 2203 
Q 1234 1984 1594 1984 
Q 1878 1984 2087 2071 
Q 2297 2159 2453 2300 
Q 2609 2441 2725 2594 
L 2778 2209 
Q 2653 2038 2476 1884 
Q 2300 1731 2064 1634 
Q 1828 1538 1528 1538 
Q 1166 1538 886 1683 
Q 606 1828 448 2108 
Q 291 2388 291 2784 
Q 291 3175 458 3479 
Q 625 3784 936 3959 
Q 1247 4134 1675 4134 
Q 2100 4134 2433 3926 
Q 2766 3719 2958 3262 
Q 3150 2806 3150 2066 
Q 3150 1338 2956 869 
Q 2763 400 2413 172 
Q 2063 -56 1594 -56 
z
" transform="scale(0.015625)"/>
       </defs>
       <use xlink:href="#Aptos-31" transform="translate(0 0.490625)"/>
       <use xlink:href="#Aptos-30" transform="translate(53.417969 0.490625)"/>
       <use xlink:href="#Aptos-2212" transform="translate(107.668281 33.784375) scale(0.7)"/>
       <use xlink:href="#Aptos-39" transform="translate(145.060859 33.784375) scale(0.7)"/>
      </g>
     </g>
    </g>
    <g id="xtick_2">
     <g id="line2d_3">
      <path d="M 343.429115 568.32 
L 343.429115 54.6992 
" clip-path="url(#p1bad78f8aa)" style="fill: none; stroke-dasharray: 3.7,1.6; stroke-dashoffset: 0; stroke: #343837"/>
     </g>
     <g id="line2d_4">
      <g>
       <use xlink:href="#mb71e5e0763" x="343.429115" y="568.32" style="stroke: #000000; stroke-width: 0.8"/>
      </g>
     </g>
     <g id="text_2">
      <!-- $\mathdefault{10^{-7}}$ -->
      <g transform="translate(323.079115 589.778125) scale(0.22 -0.22)">
       <defs>
        <path id="Aptos-37" d="M 806 0 
L 2584 3600 
L 297 3600 
L 297 4078 
L 3116 4078 
L 3116 3622 
L 1375 0 
L 806 0 
z
" transform="scale(0.015625)"/>
       </defs>
       <use xlink:href="#Aptos-31" transform="translate(0 0.103125)"/>
       <use xlink:href="#Aptos-30" transform="translate(53.417969 0.103125)"/>
       <use xlink:href="#Aptos-2212" transform="translate(107.668281 33.396875) scale(0.7)"/>
       <use xlink:href="#Aptos-37" transform="translate(145.060859 33.396875) scale(0.7)"/>
      </g>
     </g>
    </g>
    <g id="xtick_3">
     <g id="line2d_5">
      <path d="M 462.641895 568.32 
L 462.641895 54.6992 
" clip-path="url(#p1bad78f8aa)" style="fill: none; stroke-dasharray: 3.7,1.6; stroke-dashoffset: 0; stroke: #343837"/>
     </g>
     <g id="line2d_6">
      <g>
       <use xlink:href="#mb71e5e0763" x="462.641895" y="568.32" style="stroke: #000000; stroke-width: 0.8"/>
      </g>
     </g>
     <g id="text_3">
      <!-- $\mathdefault{10^{-5}}$ -->
      <g transform="translate(442.291895 589.778125) scale(0.22 -0.22)">
       <defs>
        <path id="Aptos-35" d="M 1709 -56 
Q 1313 -56 992 83 
Q 672 222 484 483 
Q 297 744 297 1113 
L 831 1113 
Q 831 778 1076 584 
Q 1322 391 1709 391 
Q 2119 391 2347 625 
Q 2575 859 2575 1319 
Q 2575 1772 2345 1989 
Q 2116 2206 1725 2206 
Q 1434 2206 1245 2123 
Q 1056 2041 931 1894 
L 459 1894 
L 638 4078 
L 2838 4078 
L 2838 3613 
L 1056 3613 
L 947 2322 
Q 1063 2453 1267 2550 
Q 1472 2647 1797 2647 
Q 2159 2647 2459 2506 
Q 2759 2366 2939 2072 
Q 3119 1778 3119 1319 
Q 3119 872 2937 565 
Q 2756 259 2439 101 
Q 2122 -56 1709 -56 
z
" transform="scale(0.015625)"/>
       </defs>
       <use xlink:href="#Aptos-31" transform="translate(0 0.103125)"/>
       <use xlink:href="#Aptos-30" transform="translate(53.417969 0.103125)"/>
       <use xlink:href="#Aptos-2212" transform="translate(107.668281 33.396875) scale(0.7)"/>
       <use xlink:href="#Aptos-35" transform="translate(145.060859 33.396875) scale(0.7)"/>
      </g>
     </g>
    </g>
    <g id="xtick_4">
     <g id="line2d_7">
      <path d="M 581.854675 568.32 
L 581.854675 54.6992 
" clip-path="url(#p1bad78f8aa)" style="fill: none; stroke-dasharray: 3.7,1.6; stroke-dashoffset: 0; stroke: #343837"/>
     </g>
     <g id="line2d_8">
      <g>
       <use xlink:href="#mb71e5e0763" x="581.854675" y="568.32" style="stroke: #000000; stroke-width: 0.8"/>
      </g>
     </g>
     <g id="text_4">
      <!-- $\mathdefault{10^{-3}}$ -->
      <g transform="translate(561.504675 589.778125) scale(0.22 -0.22)">
       <defs>
        <path id="Aptos-33" d="M 1738 -56 
Q 1088 -56 697 275 
Q 306 606 306 1225 
L 828 1225 
Q 828 844 1067 617 
Q 1306 391 1731 391 
Q 2125 391 2351 581 
Q 2578 772 2578 1172 
Q 2578 1556 2328 1737 
Q 2078 1919 1644 1919 
L 1403 1919 
L 1403 2363 
L 1656 2363 
Q 2047 2363 2253 2556 
Q 2459 2750 2459 3072 
Q 2459 3378 2256 3529 
Q 2053 3681 1722 3681 
Q 1347 3681 1140 3481 
Q 934 3281 934 2956 
L 413 2956 
Q 413 3319 578 3583 
Q 744 3847 1036 3990 
Q 1328 4134 1716 4134 
Q 2066 4134 2353 4017 
Q 2641 3900 2811 3670 
Q 2981 3441 2981 3097 
Q 2981 2731 2778 2495 
Q 2575 2259 2244 2166 
Q 2622 2097 2870 1840 
Q 3119 1584 3119 1150 
Q 3119 763 2945 494 
Q 2772 225 2461 84 
Q 2150 -56 1738 -56 
z
" transform="scale(0.015625)"/>
       </defs>
       <use xlink:href="#Aptos-31" transform="translate(0 0.490625)"/>
       <use xlink:href="#Aptos-30" transform="translate(53.417969 0.490625)"/>
       <use xlink:href="#Aptos-2212" transform="translate(107.668281 33.784375) scale(0.7)"/>
       <use xlink:href="#Aptos-33" transform="translate(145.060859 33.784375) scale(0.7)"/>
      </g>
     </g>
    </g>
    <g id="xtick_5">
     <g id="line2d_9">
      <path d="M 701.067454 568.32 
L 701.067454 54.6992 
" clip-path="url(#p1bad78f8aa)" style="fill: none; stroke-dasharray: 3.7,1.6; stroke-dashoffset: 0; stroke: #343837"/>
     </g>
     <g id="line2d_10">
      <g>
       <use xlink:href="#mb71e5e0763" x="701.067454" y="568.32" style="stroke: #000000; stroke-width: 0.8"/>
      </g>
     </g>
     <g id="text_5">
      <!-- $\mathdefault{10^{-1}}$ -->
      <g transform="translate(680.717454 589.778125) scale(0.22 -0.22)">
       <use xlink:href="#Aptos-31" transform="translate(0 0.928125)"/>
       <use xlink:href="#Aptos-30" transform="translate(53.417969 0.928125)"/>
       <use xlink:href="#Aptos-2212" transform="translate(107.668281 34.221875) scale(0.7)"/>
       <use xlink:href="#Aptos-31" transform="translate(145.060859 34.221875) scale(0.7)"/>
      </g>
     </g>
    </g>
    <g id="xtick_6">
     <g id="line2d_11">
      <path d="M 820.280234 568.32 
L 820.280234 54.6992 
" clip-path="url(#p1bad78f8aa)" style="fill: none; stroke-dasharray: 3.7,1.6; stroke-dashoffset: 0; stroke: #343837"/>
     </g>
     <g id="line2d_12">
      <g>
       <use xlink:href="#mb71e5e0763" x="820.280234" y="568.32" style="stroke: #000000; stroke-width: 0.8"/>
      </g>
     </g>
     <g id="text_6">
      <!-- $\mathdefault{10^{1}}$ -->
      <g transform="translate(804.000234 589.778125) scale(0.22 -0.22)">
       <use xlink:href="#Aptos-31" transform="translate(0 0.928125)"/>
       <use xlink:href="#Aptos-30" transform="translate(53.417969 0.928125)"/>
       <use xlink:href="#Aptos-31" transform="translate(107.668281 34.221875) scale(0.7)"/>
      </g>
     </g>
    </g>
    <g id="text_7">
     <!-- Neutron energy (MeV) -->
     <g transform="translate(362.626166 621.490937) scale(0.24 -0.24)">
      <defs>
       <path id="Aptos-4e" d="M 550 0 
L 550 4206 
L 1125 4206 
L 3431 859 
L 3431 4206 
L 3966 4206 
L 3966 0 
L 3391 0 
L 1081 3353 
L 1081 0 
L 550 0 
z
" transform="scale(0.015625)"/>
       <path id="Aptos-65" d="M 1769 -56 
Q 1272 -56 955 151 
Q 638 359 484 717 
Q 331 1075 331 1522 
Q 331 1988 479 2342 
Q 628 2697 933 2897 
Q 1238 3097 1706 3097 
Q 2328 3097 2681 2722 
Q 3034 2347 3034 1644 
Q 3034 1597 3031 1533 
Q 3028 1469 3022 1441 
L 853 1441 
Q 856 1144 948 895 
Q 1041 647 1241 497 
Q 1441 347 1769 347 
Q 2119 347 2316 511 
Q 2513 675 2522 984 
L 3038 984 
Q 3028 663 2872 430 
Q 2716 197 2434 70 
Q 2153 -56 1769 -56 
z
M 856 1822 
L 2519 1822 
Q 2509 2247 2296 2472 
Q 2084 2697 1706 2697 
Q 1325 2697 1108 2473 
Q 891 2250 856 1822 
z
" transform="scale(0.015625)"/>
       <path id="Aptos-75" d="M 1469 -47 
Q 941 -47 706 247 
Q 472 541 472 1056 
L 472 3044 
L 997 3044 
L 997 1128 
Q 997 922 1044 759 
Q 1091 597 1222 506 
Q 1353 416 1600 416 
Q 1944 416 2175 558 
Q 2406 700 2547 888 
L 2547 3044 
L 3072 3044 
L 3072 0 
L 2569 0 
L 2553 469 
Q 2406 288 2139 120 
Q 1872 -47 1469 -47 
z
" transform="scale(0.015625)"/>
       <path id="Aptos-74" d="M 1519 0 
Q 1150 0 953 117 
Q 756 234 682 454 
Q 609 675 609 984 
L 609 2622 
L 100 2622 
L 100 3044 
L 609 3044 
L 609 3741 
L 1128 3741 
L 1128 3044 
L 1878 3044 
L 1878 2622 
L 1128 2622 
L 1128 1009 
Q 1128 725 1201 573 
Q 1275 422 1553 422 
L 1884 422 
L 1884 0 
L 1519 0 
z
" transform="scale(0.015625)"/>
       <path id="Aptos-72" d="M 503 0 
L 503 3044 
L 994 3044 
L 1013 2525 
Q 1141 2763 1369 2922 
Q 1597 3081 1963 3081 
L 2025 3081 
L 2025 2603 
L 1953 2603 
Q 1725 2603 1553 2543 
Q 1381 2484 1253 2379 
Q 1125 2275 1025 2138 
L 1025 0 
L 503 0 
z
" transform="scale(0.015625)"/>
       <path id="Aptos-6f" d="M 1750 -50 
Q 1303 -50 984 139 
Q 666 328 498 679 
Q 331 1031 331 1516 
Q 331 2013 498 2367 
Q 666 2722 984 2912 
Q 1303 3103 1750 3103 
Q 2206 3103 2529 2912 
Q 2853 2722 3026 2367 
Q 3200 2013 3200 1516 
Q 3200 1031 3026 679 
Q 2853 328 2529 139 
Q 2206 -50 1750 -50 
z
M 1750 366 
Q 2088 366 2288 514 
Q 2488 663 2575 923 
Q 2663 1184 2663 1516 
Q 2663 1853 2575 2118 
Q 2488 2384 2288 2536 
Q 2088 2688 1750 2688 
Q 1422 2688 1230 2536 
Q 1038 2384 953 2118 
Q 869 1853 869 1516 
Q 869 1184 953 923 
Q 1038 663 1230 514 
Q 1422 366 1750 366 
z
" transform="scale(0.015625)"/>
       <path id="Aptos-6e" d="M 503 0 
L 503 3044 
L 1003 3044 
L 1022 2575 
Q 1163 2759 1425 2923 
Q 1688 3088 2097 3088 
Q 2597 3088 2825 2792 
Q 3053 2497 3053 1963 
L 3053 0 
L 2531 0 
L 2531 1888 
Q 2531 2109 2484 2281 
Q 2438 2453 2317 2551 
Q 2197 2650 1969 2650 
Q 1628 2650 1397 2495 
Q 1166 2341 1025 2156 
L 1025 0 
L 503 0 
z
" transform="scale(0.015625)"/>
       <path id="Aptos-20" transform="scale(0.015625)"/>
       <path id="Aptos-67" d="M 1563 -1178 
Q 1069 -1178 773 -1065 
Q 478 -953 347 -765 
Q 216 -578 216 -359 
Q 216 -94 442 112 
Q 669 319 1141 403 
L 1241 575 
L 1625 575 
Q 2375 575 2697 376 
Q 3019 178 3019 -238 
Q 3019 -650 2651 -914 
Q 2284 -1178 1563 -1178 
z
M 1550 -800 
Q 2081 -800 2298 -650 
Q 2516 -500 2516 -278 
Q 2516 -147 2442 -51 
Q 2369 44 2170 97 
Q 1972 150 1606 150 
L 1144 150 
Q 931 97 815 -31 
Q 700 -159 700 -328 
Q 700 -516 897 -658 
Q 1094 -800 1550 -800 
z
M 1134 178 
Q 838 209 667 301 
Q 497 394 425 508 
Q 353 622 353 728 
Q 353 881 476 1017 
Q 600 1153 881 1241 
L 1141 1078 
Q 975 1031 878 957 
Q 781 884 781 794 
Q 781 731 839 682 
Q 897 634 1036 604 
Q 1175 575 1422 575 
L 1134 178 
z
M 1525 984 
Q 1150 984 889 1129 
Q 628 1275 493 1511 
Q 359 1747 359 2022 
Q 359 2313 495 2550 
Q 631 2788 895 2928 
Q 1159 3069 1541 3069 
Q 1931 3069 2190 2928 
Q 2450 2788 2578 2550 
Q 2706 2313 2706 2022 
Q 2706 1741 2576 1505 
Q 2447 1269 2184 1126 
Q 1922 984 1525 984 
z
M 1522 1341 
Q 1822 1341 2017 1512 
Q 2213 1684 2213 2022 
Q 2213 2375 2028 2545 
Q 1844 2716 1541 2716 
Q 1244 2716 1048 2541 
Q 853 2366 853 2025 
Q 853 1681 1054 1511 
Q 1256 1341 1522 1341 
z
M 2319 2734 
L 2106 2931 
Q 2241 3225 2458 3331 
Q 2675 3438 3019 3447 
L 3019 3006 
Q 2800 3006 2617 2961 
Q 2434 2916 2319 2734 
z
" transform="scale(0.015625)"/>
       <path id="Aptos-79" d="M 328 -1119 
L 328 -688 
L 584 -688 
Q 763 -688 886 -592 
Q 1009 -497 1097 -275 
L 1216 0 
L 0 3044 
L 553 3044 
L 1494 553 
L 2363 3044 
L 2894 3044 
L 1750 0 
L 1606 -369 
Q 1500 -641 1379 -806 
Q 1259 -972 1084 -1045 
Q 909 -1119 638 -1119 
L 328 -1119 
z
" transform="scale(0.015625)"/>
       <path id="Aptos-28" d="M 1216 -1116 
Q 963 -678 783 -267 
Q 603 144 508 581 
Q 413 1019 413 1528 
Q 413 2028 506 2486 
Q 600 2944 779 3378 
Q 959 3813 1216 4231 
L 1644 4231 
Q 1275 3600 1097 2886 
Q 919 2172 919 1428 
Q 919 766 1120 103 
Q 1322 -559 1644 -1116 
L 1216 -1116 
z
" transform="scale(0.015625)"/>
       <path id="Aptos-4d" d="M 550 0 
L 550 4206 
L 1166 4206 
L 2663 1728 
L 2434 1728 
L 3903 4206 
L 4503 4206 
L 4503 0 
L 3950 0 
L 3950 3738 
L 4144 3738 
L 2716 1322 
L 2347 1322 
L 897 3738 
L 1091 3738 
L 1091 0 
L 550 0 
z
" transform="scale(0.015625)"/>
       <path id="Aptos-56" d="M 1538 0 
L 25 4206 
L 622 4206 
L 1872 594 
L 3128 4206 
L 3722 4206 
L 2194 0 
L 1538 0 
z
" transform="scale(0.015625)"/>
       <path id="Aptos-29" d="M 231 -1116 
Q 603 -481 781 233 
Q 959 947 959 1694 
Q 959 2356 756 3015 
Q 553 3675 231 4231 
L 656 4231 
Q 913 3800 1094 3389 
Q 1275 2978 1370 2540 
Q 1466 2103 1466 1594 
Q 1466 1094 1370 634 
Q 1275 175 1095 -259 
Q 916 -694 656 -1116 
L 231 -1116 
z
" transform="scale(0.015625)"/>
      </defs>
      <use xlink:href="#Aptos-4e"/>
      <use xlink:href="#Aptos-65" transform="translate(70.605469 0)"/>
      <use xlink:href="#Aptos-75" transform="translate(123.291016 0)"/>
      <use xlink:href="#Aptos-74" transform="translate(179.150391 0)"/>
      <use xlink:href="#Aptos-72" transform="translate(211.474609 0)"/>
      <use xlink:href="#Aptos-6f" transform="translate(244.921875 0)"/>
      <use xlink:href="#Aptos-6e" transform="translate(300.097656 0)"/>
      <use xlink:href="#Aptos-20" transform="translate(355.224609 0)"/>
      <use xlink:href="#Aptos-65" transform="translate(375.537109 0)"/>
      <use xlink:href="#Aptos-6e" transform="translate(428.222656 0)"/>
      <use xlink:href="#Aptos-65" transform="translate(483.349609 0)"/>
      <use xlink:href="#Aptos-72" transform="translate(536.035156 0)"/>
      <use xlink:href="#Aptos-67" transform="translate(569.482422 0)"/>
      <use xlink:href="#Aptos-79" transform="translate(617.919922 0)"/>
      <use xlink:href="#Aptos-20" transform="translate(663.134766 0)"/>
      <use xlink:href="#Aptos-28" transform="translate(683.447266 0)"/>
      <use xlink:href="#Aptos-4d" transform="translate(712.744141 0)"/>
      <use xlink:href="#Aptos-65" transform="translate(791.748047 0)"/>
      <use xlink:href="#Aptos-56" transform="translate(844.433594 0)"/>
      <use xlink:href="#Aptos-29" transform="translate(902.978516 0)"/>
     </g>
    </g>
   </g>
   <g id="matplotlib.axis_2">
    <g id="ytick_1">
     <g id="line2d_13">
      <path d="M 105.003582 568.32 
L 844 568.32 
" clip-path="url(#p1bad78f8aa)" style="fill: none; stroke-dasharray: 3.7,1.6; stroke-dashoffset: 0; stroke: #343837"/>
     </g>
     <g id="line2d_14">
      <defs>
       <path id="m89c1e80792" d="M 0 0 
L -3.5 0 
" style="stroke: #000000; stroke-width: 0.8"/>
      </defs>
      <g>
       <use xlink:href="#m89c1e80792" x="105.003582" y="568.32" style="stroke: #000000; stroke-width: 0.8"/>
      </g>
     </g>
     <g id="text_8">
      <!-- $\mathdefault{10^{-4}}$ -->
      <g transform="translate(57.303582 575.549062) scale(0.22 -0.22)">
       <defs>
        <path id="Aptos-34" d="M 2144 0 
L 2144 825 
L 175 825 
L 175 1297 
L 2134 4103 
L 2666 4103 
L 2666 1284 
L 3225 1284 
L 3225 825 
L 2666 825 
L 2666 0 
L 2144 0 
z
M 684 1284 
L 2150 1284 
L 2150 3391 
L 684 1284 
z
" transform="scale(0.015625)"/>
       </defs>
       <use xlink:href="#Aptos-31" transform="translate(0 0.829688)"/>
       <use xlink:href="#Aptos-30" transform="translate(53.417969 0.829688)"/>
       <use xlink:href="#Aptos-2212" transform="translate(107.668281 34.123438) scale(0.7)"/>
       <use xlink:href="#Aptos-34" transform="translate(145.060859 34.123438) scale(0.7)"/>
      </g>
     </g>
    </g>
    <g id="ytick_2">
     <g id="line2d_15">
      <path d="M 105.003582 494.9456 
L 844 494.9456 
" clip-path="url(#p1bad78f8aa)" style="fill: none; stroke-dasharray: 3.7,1.6; stroke-dashoffset: 0; stroke: #343837"/>
     </g>
     <g id="line2d_16">
      <g>
       <use xlink:href="#m89c1e80792" x="105.003582" y="494.9456" style="stroke: #000000; stroke-width: 0.8"/>
      </g>
     </g>
     <g id="text_9">
      <!-- $\mathdefault{10^{-2}}$ -->
      <g transform="translate(57.303582 502.174663) scale(0.22 -0.22)">
       <defs>
        <path id="Aptos-32" d="M 291 0 
L 291 413 
L 1738 1734 
Q 2113 2075 2281 2353 
Q 2450 2631 2450 2938 
Q 2450 3256 2279 3461 
Q 2109 3666 1722 3666 
Q 1284 3666 1095 3439 
Q 906 3213 906 2869 
L 384 2869 
Q 384 3250 532 3534 
Q 681 3819 979 3975 
Q 1278 4131 1722 4131 
Q 2128 4131 2412 3986 
Q 2697 3841 2845 3578 
Q 2994 3316 2994 2959 
Q 2994 2641 2870 2378 
Q 2747 2116 2537 1884 
Q 2328 1653 2075 1425 
L 1003 463 
L 3113 463 
L 3113 0 
L 291 0 
z
" transform="scale(0.015625)"/>
       </defs>
       <use xlink:href="#Aptos-31" transform="translate(0 0.523438)"/>
       <use xlink:href="#Aptos-30" transform="translate(53.417969 0.523438)"/>
       <use xlink:href="#Aptos-2212" transform="translate(107.668281 33.817187) scale(0.7)"/>
       <use xlink:href="#Aptos-32" transform="translate(145.060859 33.817187) scale(0.7)"/>
      </g>
     </g>
    </g>
    <g id="ytick_3">
     <g id="line2d_17">
      <path d="M 105.003582 421.5712 
L 844 421.5712 
" clip-path="url(#p1bad78f8aa)" style="fill: none; stroke-dasharray: 3.7,1.6; stroke-dashoffset: 0; stroke: #343837"/>
     </g>
     <g id="line2d_18">
      <g>
       <use xlink:href="#m89c1e80792" x="105.003582" y="421.5712" style="stroke: #000000; stroke-width: 0.8"/>
      </g>
     </g>
     <g id="text_10">
      <!-- $\mathdefault{10^{0}}$ -->
      <g transform="translate(65.443582 428.800263) scale(0.22 -0.22)">
       <use xlink:href="#Aptos-31" transform="translate(0 0.490625)"/>
       <use xlink:href="#Aptos-30" transform="translate(53.417969 0.490625)"/>
       <use xlink:href="#Aptos-30" transform="translate(107.668281 33.784375) scale(0.7)"/>
      </g>
     </g>
    </g>
    <g id="ytick_4">
     <g id="line2d_19">
      <path d="M 105.003582 348.1968 
L 844 348.1968 
" clip-path="url(#p1bad78f8aa)" style="fill: none; stroke-dasharray: 3.7,1.6; stroke-dashoffset: 0; stroke: #343837"/>
     </g>
     <g id="line2d_20">
      <g>
       <use xlink:href="#m89c1e80792" x="105.003582" y="348.1968" style="stroke: #000000; stroke-width: 0.8"/>
      </g>
     </g>
     <g id="text_11">
      <!-- $\mathdefault{10^{2}}$ -->
      <g transform="translate(65.443582 355.425863) scale(0.22 -0.22)">
       <use xlink:href="#Aptos-31" transform="translate(0 0.523438)"/>
       <use xlink:href="#Aptos-30" transform="translate(53.417969 0.523438)"/>
       <use xlink:href="#Aptos-32" transform="translate(107.668281 33.817187) scale(0.7)"/>
      </g>
     </g>
    </g>
    <g id="ytick_5">
     <g id="line2d_21">
      <path d="M 105.003582 274.8224 
L 844 274.8224 
" clip-path="url(#p1bad78f8aa)" style="fill: none; stroke-dasharray: 3.7,1.6; stroke-dashoffset: 0; stroke: #343837"/>
     </g>
     <g id="line2d_22">
      <g>
       <use xlink:href="#m89c1e80792" x="105.003582" y="274.8224" style="stroke: #000000; stroke-width: 0.8"/>
      </g>
     </g>
     <g id="text_12">
      <!-- $\mathdefault{10^{4}}$ -->
      <g transform="translate(65.443582 282.051463) scale(0.22 -0.22)">
       <use xlink:href="#Aptos-31" transform="translate(0 0.829688)"/>
       <use xlink:href="#Aptos-30" transform="translate(53.417969 0.829688)"/>
       <use xlink:href="#Aptos-34" transform="translate(107.668281 34.123438) scale(0.7)"/>
      </g>
     </g>
    </g>
    <g id="ytick_6">
     <g id="line2d_23">
      <path d="M 105.003582 201.448 
L 844 201.448 
" clip-path="url(#p1bad78f8aa)" style="fill: none; stroke-dasharray: 3.7,1.6; stroke-dashoffset: 0; stroke: #343837"/>
     </g>
     <g id="line2d_24">
      <g>
       <use xlink:href="#m89c1e80792" x="105.003582" y="201.448" style="stroke: #000000; stroke-width: 0.8"/>
      </g>
     </g>
     <g id="text_13">
      <!-- $\mathdefault{10^{6}}$ -->
      <g transform="translate(65.443582 208.677063) scale(0.22 -0.22)">
       <defs>
        <path id="Aptos-36" d="M 1806 -56 
Q 1372 -56 1031 151 
Q 691 359 495 815 
Q 300 1272 300 2013 
Q 300 2738 487 3206 
Q 675 3675 1015 3903 
Q 1356 4131 1806 4131 
Q 2303 4131 2645 3875 
Q 2988 3619 3081 3097 
L 2556 3097 
Q 2491 3388 2300 3534 
Q 2109 3681 1806 3681 
Q 1356 3681 1095 3279 
Q 834 2878 834 2013 
L 834 1850 
Q 834 1313 970 992 
Q 1106 672 1328 531 
Q 1550 391 1809 391 
Q 2219 391 2416 644 
Q 2613 897 2613 1272 
Q 2613 1650 2419 1869 
Q 2225 2088 1875 2088 
Q 1469 2088 1162 1897 
Q 856 1706 700 1456 
L 641 1856 
Q 775 2047 967 2201 
Q 1159 2356 1404 2447 
Q 1650 2538 1947 2538 
Q 2294 2538 2566 2395 
Q 2838 2253 2997 1975 
Q 3156 1697 3156 1291 
Q 3156 897 2998 592 
Q 2841 288 2539 116 
Q 2238 -56 1806 -56 
z
" transform="scale(0.015625)"/>
       </defs>
       <use xlink:href="#Aptos-31" transform="translate(0 0.523438)"/>
       <use xlink:href="#Aptos-30" transform="translate(53.417969 0.523438)"/>
       <use xlink:href="#Aptos-36" transform="translate(107.668281 33.817187) scale(0.7)"/>
      </g>
     </g>
    </g>
    <g id="ytick_7">
     <g id="line2d_25">
      <path d="M 105.003582 128.0736 
L 844 128.0736 
" clip-path="url(#p1bad78f8aa)" style="fill: none; stroke-dasharray: 3.7,1.6; stroke-dashoffset: 0; stroke: #343837"/>
     </g>
     <g id="line2d_26">
      <g>
       <use xlink:href="#m89c1e80792" x="105.003582" y="128.0736" style="stroke: #000000; stroke-width: 0.8"/>
      </g>
     </g>
     <g id="text_14">
      <!-- $\mathdefault{10^{8}}$ -->
      <g transform="translate(65.443582 135.302663) scale(0.22 -0.22)">
       <defs>
        <path id="Aptos-38" d="M 1709 -56 
Q 1431 -56 1179 16 
Q 928 88 733 234 
Q 538 381 425 606 
Q 313 831 313 1141 
Q 313 1531 542 1797 
Q 772 2063 1122 2150 
Q 825 2250 651 2490 
Q 478 2731 478 3081 
Q 478 3447 658 3681 
Q 838 3916 1119 4025 
Q 1400 4134 1706 4134 
Q 2013 4134 2294 4023 
Q 2575 3913 2756 3680 
Q 2938 3447 2938 3081 
Q 2938 2725 2742 2481 
Q 2547 2238 2278 2150 
Q 2634 2063 2868 1800 
Q 3103 1538 3103 1141 
Q 3103 831 2990 606 
Q 2878 381 2684 234 
Q 2491 88 2241 16 
Q 1991 -56 1709 -56 
z
M 1709 388 
Q 1944 388 2139 470 
Q 2334 553 2451 725 
Q 2569 897 2569 1163 
Q 2569 1416 2450 1587 
Q 2331 1759 2134 1846 
Q 1938 1934 1709 1928 
Q 1494 1934 1298 1850 
Q 1103 1766 978 1594 
Q 853 1422 853 1163 
Q 853 775 1106 581 
Q 1359 388 1709 388 
z
M 1709 2363 
Q 1897 2356 2059 2434 
Q 2222 2513 2323 2667 
Q 2425 2822 2425 3050 
Q 2425 3388 2215 3544 
Q 2006 3700 1709 3700 
Q 1528 3700 1364 3631 
Q 1200 3563 1097 3419 
Q 994 3275 994 3050 
Q 994 2825 1097 2670 
Q 1200 2516 1365 2436 
Q 1531 2356 1709 2363 
z
" transform="scale(0.015625)"/>
       </defs>
       <use xlink:href="#Aptos-31" transform="translate(0 0.490625)"/>
       <use xlink:href="#Aptos-30" transform="translate(53.417969 0.490625)"/>
       <use xlink:href="#Aptos-38" transform="translate(107.668281 33.784375) scale(0.7)"/>
      </g>
     </g>
    </g>
    <g id="ytick_8">
     <g id="line2d_27">
      <path d="M 105.003582 54.6992 
L 844 54.6992 
" clip-path="url(#p1bad78f8aa)" style="fill: none; stroke-dasharray: 3.7,1.6; stroke-dashoffset: 0; stroke: #343837"/>
     </g>
     <g id="line2d_28">
      <g>
       <use xlink:href="#m89c1e80792" x="105.003582" y="54.6992" style="stroke: #000000; stroke-width: 0.8"/>
      </g>
     </g>
     <g id="text_15">
      <!-- $\mathdefault{10^{10}}$ -->
      <g transform="translate(57.303582 61.928263) scale(0.22 -0.22)">
       <use xlink:href="#Aptos-31" transform="translate(0 0.490625)"/>
       <use xlink:href="#Aptos-30" transform="translate(53.417969 0.490625)"/>
       <use xlink:href="#Aptos-31" transform="translate(107.668281 33.784375) scale(0.7)"/>
       <use xlink:href="#Aptos-30" transform="translate(145.060859 33.784375) scale(0.7)"/>
      </g>
     </g>
    </g>
    <g id="text_16">
     <!-- Neutron spectrum $\left(\mathrm{MeV^{-1}\;cm^{-2}\;s^{-1}}\right)$ -->
     <g transform="translate(44.983582 515.5096) rotate(-90) scale(0.24 -0.24)">
      <defs>
       <path id="Aptos-73" d="M 1581 -56 
Q 1325 -56 1095 0 
Q 866 56 691 178 
Q 516 300 417 498 
Q 319 697 319 978 
L 822 978 
Q 822 622 1042 476 
Q 1263 331 1594 331 
Q 1891 331 2083 445 
Q 2275 559 2275 822 
Q 2275 1047 2101 1156 
Q 1928 1266 1491 1369 
Q 1134 1453 890 1564 
Q 647 1675 525 1845 
Q 403 2016 403 2275 
Q 403 2478 489 2633 
Q 575 2788 729 2891 
Q 884 2994 1093 3045 
Q 1303 3097 1547 3097 
Q 1788 3097 1998 3040 
Q 2209 2984 2370 2865 
Q 2531 2747 2625 2559 
Q 2719 2372 2719 2109 
L 2213 2109 
Q 2213 2434 2019 2568 
Q 1825 2703 1547 2703 
Q 1266 2703 1091 2603 
Q 916 2503 916 2291 
Q 916 2169 994 2084 
Q 1072 2000 1256 1933 
Q 1441 1866 1753 1791 
Q 2094 1709 2325 1596 
Q 2556 1484 2673 1307 
Q 2791 1131 2791 856 
Q 2791 619 2698 445 
Q 2606 272 2442 161 
Q 2278 50 2058 -3 
Q 1838 -56 1581 -56 
z
" transform="scale(0.015625)"/>
       <path id="Aptos-70" d="M 503 -1119 
L 503 3044 
L 1009 3044 
L 1025 2547 
Q 1188 2791 1445 2944 
Q 1703 3097 2044 3097 
Q 2419 3097 2691 2920 
Q 2963 2744 3111 2394 
Q 3259 2044 3259 1522 
Q 3259 1006 3101 654 
Q 2944 303 2656 123 
Q 2369 -56 1981 -56 
Q 1656 -56 1412 73 
Q 1169 203 1022 428 
L 1022 -1119 
L 503 -1119 
z
M 1884 372 
Q 2300 372 2511 670 
Q 2722 969 2722 1522 
Q 2722 2081 2525 2378 
Q 2328 2675 1947 2675 
Q 1613 2675 1383 2497 
Q 1153 2319 1025 2081 
L 1025 906 
Q 1150 669 1362 520 
Q 1575 372 1884 372 
z
" transform="scale(0.015625)"/>
       <path id="Aptos-63" d="M 1741 -53 
Q 1328 -53 1009 120 
Q 691 294 511 642 
Q 331 991 331 1516 
Q 331 2041 507 2392 
Q 684 2744 1001 2920 
Q 1319 3097 1741 3097 
Q 2094 3097 2376 2981 
Q 2659 2866 2828 2633 
Q 2997 2400 3006 2044 
L 2491 2044 
Q 2472 2338 2278 2506 
Q 2084 2675 1750 2675 
Q 1306 2675 1087 2370 
Q 869 2066 869 1516 
Q 869 1150 966 895 
Q 1063 641 1259 505 
Q 1456 369 1750 369 
Q 2084 369 2293 542 
Q 2503 716 2513 1050 
L 3028 1050 
Q 3019 681 2848 436 
Q 2678 191 2389 69 
Q 2100 -53 1741 -53 
z
" transform="scale(0.015625)"/>
       <path id="Aptos-6d" d="M 503 0 
L 503 3044 
L 1003 3044 
L 1022 2575 
Q 1156 2759 1415 2923 
Q 1675 3088 2063 3088 
Q 2569 3088 2791 2791 
Q 3013 2494 3013 1963 
L 3013 0 
L 2488 0 
L 2488 1888 
Q 2488 2109 2442 2281 
Q 2397 2453 2275 2551 
Q 2153 2650 1925 2650 
Q 1603 2650 1381 2495 
Q 1159 2341 1025 2156 
L 1025 0 
L 503 0 
z
M 4466 0 
L 4466 1888 
Q 4466 2109 4420 2281 
Q 4375 2453 4253 2551 
Q 4131 2650 3906 2650 
Q 3581 2650 3359 2498 
Q 3138 2347 2994 2163 
L 2916 2544 
Q 3097 2744 3373 2916 
Q 3650 3088 4038 3088 
Q 4544 3088 4766 2791 
Q 4988 2494 4988 1963 
L 4988 0 
L 4466 0 
z
" transform="scale(0.015625)"/>
       <path id="DejaVuSerif-28" d="M 2041 -997 
Q 1281 -656 893 83 
Q 506 822 506 1931 
Q 506 3044 893 3783 
Q 1281 4522 2041 4863 
L 2041 4556 
Q 1559 4225 1350 3623 
Q 1141 3022 1141 1931 
Q 1141 844 1350 242 
Q 1559 -359 2041 -691 
L 2041 -997 
z
" transform="scale(0.015625)"/>
       <path id="DejaVuSerif-4d" d="M 353 0 
L 353 331 
L 947 331 
L 947 4331 
L 319 4331 
L 319 4666 
L 1678 4666 
L 3316 1344 
L 4953 4666 
L 6228 4666 
L 6228 4331 
L 5606 4331 
L 5606 331 
L 6203 331 
L 6203 0 
L 4378 0 
L 4378 331 
L 4972 331 
L 4972 3938 
L 3372 684 
L 2931 684 
L 1331 3938 
L 1331 331 
L 1925 331 
L 1925 0 
L 353 0 
z
" transform="scale(0.015625)"/>
       <path id="DejaVuSerif-65" d="M 3469 1600 
L 991 1600 
L 991 1575 
Q 991 903 1244 561 
Q 1497 219 1991 219 
Q 2369 219 2611 417 
Q 2853 616 2950 1006 
L 3413 1006 
Q 3275 459 2904 184 
Q 2534 -91 1931 -91 
Q 1203 -91 761 389 
Q 319 869 319 1663 
Q 319 2450 753 2931 
Q 1188 3413 1894 3413 
Q 2647 3413 3050 2948 
Q 3453 2484 3469 1600 
z
M 2791 1931 
Q 2772 2513 2545 2808 
Q 2319 3103 1894 3103 
Q 1497 3103 1269 2806 
Q 1041 2509 991 1931 
L 2791 1931 
z
" transform="scale(0.015625)"/>
       <path id="DejaVuSerif-56" d="M 1119 4331 
L 2497 750 
L 3872 4331 
L 3347 4331 
L 3347 4666 
L 4716 4666 
L 4716 4331 
L 4263 4331 
L 2597 0 
L 2059 0 
L 403 4331 
L -63 4331 
L -63 4666 
L 1638 4666 
L 1638 4331 
L 1119 4331 
z
" transform="scale(0.015625)"/>
       <path id="DejaVuSerif-2212" d="M 678 2259 
L 4684 2259 
L 4684 1753 
L 678 1753 
L 678 2259 
z
" transform="scale(0.015625)"/>
       <path id="DejaVuSerif-31" d="M 909 0 
L 909 331 
L 1722 331 
L 1722 4213 
L 781 3603 
L 781 4013 
L 1919 4750 
L 2350 4750 
L 2350 331 
L 3163 331 
L 3163 0 
L 909 0 
z
" transform="scale(0.015625)"/>
       <path id="DejaVuSerif-63" d="M 3291 997 
Q 3169 466 2822 187 
Q 2475 -91 1925 -91 
Q 1200 -91 759 389 
Q 319 869 319 1663 
Q 319 2459 759 2936 
Q 1200 3413 1925 3413 
Q 2241 3413 2553 3339 
Q 2866 3266 3181 3116 
L 3181 2266 
L 2847 2266 
Q 2781 2703 2561 2903 
Q 2341 3103 1931 3103 
Q 1466 3103 1228 2742 
Q 991 2381 991 1663 
Q 991 944 1227 581 
Q 1463 219 1931 219 
Q 2303 219 2525 412 
Q 2747 606 2828 997 
L 3291 997 
z
" transform="scale(0.015625)"/>
       <path id="DejaVuSerif-6d" d="M 3316 2675 
Q 3481 3041 3739 3227 
Q 3997 3413 4341 3413 
Q 4863 3413 5119 3089 
Q 5375 2766 5375 2113 
L 5375 331 
L 5894 331 
L 5894 0 
L 4300 0 
L 4300 331 
L 4800 331 
L 4800 2047 
Q 4800 2556 4650 2772 
Q 4500 2988 4153 2988 
Q 3769 2988 3567 2697 
Q 3366 2406 3366 1850 
L 3366 331 
L 3866 331 
L 3866 0 
L 2291 0 
L 2291 331 
L 2791 331 
L 2791 2069 
Q 2791 2566 2641 2777 
Q 2491 2988 2144 2988 
Q 1759 2988 1557 2697 
Q 1356 2406 1356 1850 
L 1356 331 
L 1856 331 
L 1856 0 
L 263 0 
L 263 331 
L 781 331 
L 781 2994 
L 231 2994 
L 231 3322 
L 1356 3322 
L 1356 2731 
Q 1516 3063 1762 3238 
Q 2009 3413 2322 3413 
Q 2709 3413 2968 3220 
Q 3228 3028 3316 2675 
z
" transform="scale(0.015625)"/>
       <path id="DejaVuSerif-32" d="M 819 3553 
L 469 3553 
L 469 4384 
Q 803 4563 1142 4656 
Q 1481 4750 1806 4750 
Q 2534 4750 2956 4397 
Q 3378 4044 3378 3438 
Q 3378 2753 2422 1800 
Q 2347 1728 2309 1691 
L 1131 513 
L 3078 513 
L 3078 1088 
L 3444 1088 
L 3444 0 
L 434 0 
L 434 341 
L 1850 1753 
Q 2319 2222 2519 2614 
Q 2719 3006 2719 3438 
Q 2719 3909 2473 4175 
Q 2228 4441 1797 4441 
Q 1350 4441 1106 4219 
Q 863 3997 819 3553 
z
" transform="scale(0.015625)"/>
       <path id="DejaVuSerif-73" d="M 359 184 
L 359 959 
L 691 959 
Q 703 588 923 403 
Q 1144 219 1575 219 
Q 1963 219 2166 364 
Q 2369 509 2369 788 
Q 2369 1006 2220 1140 
Q 2072 1275 1594 1428 
L 1178 1569 
Q 750 1706 558 1912 
Q 366 2119 366 2438 
Q 366 2894 700 3153 
Q 1034 3413 1625 3413 
Q 1888 3413 2178 3344 
Q 2469 3275 2778 3144 
L 2778 2419 
L 2447 2419 
Q 2434 2741 2221 2922 
Q 2009 3103 1644 3103 
Q 1281 3103 1095 2975 
Q 909 2847 909 2591 
Q 909 2381 1050 2254 
Q 1191 2128 1613 1997 
L 2069 1856 
Q 2541 1709 2748 1489 
Q 2956 1269 2956 922 
Q 2956 450 2595 179 
Q 2234 -91 1600 -91 
Q 1278 -91 972 -22 
Q 666 47 359 184 
z
" transform="scale(0.015625)"/>
       <path id="DejaVuSerif-29" d="M 453 -997 
L 453 -691 
Q 934 -359 1145 242 
Q 1356 844 1356 1931 
Q 1356 3022 1145 3623 
Q 934 4225 453 4556 
L 453 4863 
Q 1216 4522 1603 3783 
Q 1991 3044 1991 1931 
Q 1991 822 1603 83 
Q 1216 -656 453 -997 
z
" transform="scale(0.015625)"/>
      </defs>
      <use xlink:href="#Aptos-4e" transform="translate(0 0.7125)"/>
      <use xlink:href="#Aptos-65" transform="translate(70.605469 0.7125)"/>
      <use xlink:href="#Aptos-75" transform="translate(123.291016 0.7125)"/>
      <use xlink:href="#Aptos-74" transform="translate(179.150391 0.7125)"/>
      <use xlink:href="#Aptos-72" transform="translate(211.474609 0.7125)"/>
      <use xlink:href="#Aptos-6f" transform="translate(244.921875 0.7125)"/>
      <use xlink:href="#Aptos-6e" transform="translate(300.097656 0.7125)"/>
      <use xlink:href="#Aptos-20" transform="translate(355.224609 0.7125)"/>
      <use xlink:href="#Aptos-73" transform="translate(375.537109 0.7125)"/>
      <use xlink:href="#Aptos-70" transform="translate(424.121094 0.7125)"/>
      <use xlink:href="#Aptos-65" transform="translate(480.224609 0.7125)"/>
      <use xlink:href="#Aptos-63" transform="translate(532.910156 0.7125)"/>
      <use xlink:href="#Aptos-74" transform="translate(585.400391 0.7125)"/>
      <use xlink:href="#Aptos-72" transform="translate(617.724609 0.7125)"/>
      <use xlink:href="#Aptos-75" transform="translate(651.171875 0.7125)"/>
      <use xlink:href="#Aptos-6d" transform="translate(707.03125 0.7125)"/>
      <use xlink:href="#Aptos-20" transform="translate(792.333984 0.7125)"/>
      <use xlink:href="#DejaVuSerif-28" transform="translate(812.646484 0.7125)"/>
      <use xlink:href="#DejaVuSerif-4d" transform="translate(851.660156 0.7125)"/>
      <use xlink:href="#DejaVuSerif-65" transform="translate(954.052734 0.7125)"/>
      <use xlink:href="#DejaVuSerif-56" transform="translate(1013.232422 0.7125)"/>
      <use xlink:href="#DejaVuSerif-2212" transform="translate(1086.357578 37.046875) scale(0.7)"/>
      <use xlink:href="#DejaVuSerif-31" transform="translate(1145.009922 37.046875) scale(0.7)"/>
      <use xlink:href="#DejaVuSerif-63" transform="translate(1218.481639 0.7125)"/>
      <use xlink:href="#DejaVuSerif-6d" transform="translate(1274.487498 0.7125)"/>
      <use xlink:href="#DejaVuSerif-2212" transform="translate(1370.220076 37.046875) scale(0.7)"/>
      <use xlink:href="#DejaVuSerif-32" transform="translate(1428.87242 37.046875) scale(0.7)"/>
      <use xlink:href="#DejaVuSerif-73" transform="translate(1502.344137 0.7125)"/>
      <use xlink:href="#DejaVuSerif-2212" transform="translate(1554.570855 37.046875) scale(0.7)"/>
      <use xlink:href="#DejaVuSerif-31" transform="translate(1613.223199 37.046875) scale(0.7)"/>
      <use xlink:href="#DejaVuSerif-29" transform="translate(1660.354645 0.7125)"/>
     </g>
    </g>
   </g>
   <g id="line2d_29">
    <path d="M 105.003556 179.019463 
L 146.666635 148.932469 
L 167.077214 135.591534 
L 185.602274 124.872596 
L 200.496569 115.1298 
L 221.488897 103.233725 
L 234.7125 94.99798 
L 260.102958 80.648702 
L 270.382496 75.260465 
L 279.462918 70.917084 
L 289.599182 66.703674 
L 298.309346 63.812664 
L 304.815054 62.333715 
L 310.009761 61.603185 
L 314.334245 61.534623 
L 318.719926 61.840387 
L 323.327327 62.840832 
L 327.478074 64.363242 
L 331.26226 66.426388 
L 334.925221 69.03944 
L 337.162675 70.943471 
L 339.972425 73.858169 
L 342.77372 77.296337 
L 345.301261 80.77452 
L 349.101817 87.10826 
L 351.578535 91.941534 
L 353.92528 96.880723 
L 357.165344 104.738122 
L 361.948422 117.779426 
L 365.43674 128.362254 
L 368.559403 137.286645 
L 370.990991 143.682665 
L 372.486747 146.793029 
L 373.315856 148.903758 
L 374.725141 151.019998 
L 377.332527 154.284139 
L 380.362129 156.957877 
L 382.87738 159.426955 
L 384.700951 161.01698 
L 386.10749 161.844215 
L 389.045643 163.909687 
L 392.474543 166.090557 
L 395.328188 168.543355 
L 396.769065 169.211511 
L 398.980251 171.269054 
L 399.872985 171.760618 
L 400.877028 172.64533 
L 401.433754 172.658141 
L 402.005709 172.783154 
L 402.486095 174.237613 
L 402.80147 174.148119 
L 403.241775 174.822076 
L 403.737778 175.078744 
L 404.050801 174.288136 
L 405.123474 176.006159 
L 405.58501 177.05566 
L 405.914841 175.429943 
L 406.37398 176.094024 
L 406.877613 177.604837 
L 407.809088 177.402234 
L 409.171862 177.492234 
L 410.197956 177.938186 
L 410.876039 179.051559 
L 412.831986 180.518804 
L 413.315043 180.438001 
L 414.29685 181.003599 
L 415.683242 182.069357 
L 416.961381 182.809788 
L 419.445821 185.004755 
L 420.653193 185.157622 
L 421.743997 186.39112 
L 422.426082 186.083301 
L 423.970244 187.208633 
L 427.520453 190.805383 
L 428.361166 190.640546 
L 429.165528 192.030168 
L 431.766287 193.129647 
L 434.257241 195.104474 
L 436.836706 196.444074 
L 439.337177 198.032351 
L 442.463459 200.216419 
L 445.688727 202.211916 
L 448.33119 204.01951 
L 452.817942 206.652812 
L 456.604125 209.692531 
L 459.192748 210.566123 
L 461.443733 212.292557 
L 464.065405 213.793402 
L 468.350958 216.433934 
L 472.823793 219.435648 
L 477.410252 222.12225 
L 485.079041 227.577977 
L 487.668035 228.884662 
L 490.256828 230.56999 
L 492.845328 232.467392 
L 495.433916 233.533495 
L 497.684927 235.534978 
L 502.639528 238.427752 
L 504.260929 239.928498 
L 506.098255 240.558805 
L 525.685667 252.739365 
L 531.449312 255.948898 
L 536.927965 259.50815 
L 546.395263 265.873648 
L 553.775866 270.286597 
L 558.95344 273.696607 
L 567.104713 278.563739 
L 573.094423 283.396625 
L 577.074217 285.144686 
L 580.860411 287.708349 
L 589.313792 292.392714 
L 591.837541 294.258309 
L 596.650087 296.455239 
L 601.570003 298.468324 
L 608.523401 306.922202 
L 613.841501 309.123988 
L 619.405212 311.702664 
L 624.867654 314.569516 
L 630.302933 318.089734 
L 636.613731 321.935966 
L 653.343224 331.280711 
L 660.297417 335.312472 
L 666.286573 338.084304 
L 668.425616 339.91638 
L 672.470368 341.931194 
L 676.641464 344.744033 
L 682.076562 346.414986 
L 688.387125 351.096729 
L 693.564332 351.981154 
L 700.197039 355.335484 
L 705.116275 357.420297 
L 712.070321 358.779241 
L 720.90698 365.534677 
L 725.826402 365.905955 
L 728.414653 366.856474 
L 733.849627 370.812239 
L 738.769269 379.542442 
L 741.35799 372.559866 
L 743.946665 371.238866 
L 746.535346 372.344264 
L 751.970539 372.898092 
L 756.890107 378.861789 
L 759.478935 386.532705 
L 762.067199 385.919085 
L 764.656164 380.731511 
L 767.245623 383.327677 
L 771.225175 382.800613 
L 776.402342 384.669656 
L 780.188356 381.86471 
L 782.776984 374.692365 
L 786.756653 393.512119 
L 791.933912 406.282522 
L 797.111449 407.527235 
L 802.288729 409.466782 
L 806.074828 415.807993 
L 808.663538 409.985807 
L 812.643421 429.177762 
L 817.820769 443.421827 
L 822.294067 458.440729 
L 826.526643 476.126962 
L 829.681871 484.63094 
L 832.648543 483.213598 
L 836.185779 497.956456 
L 838.223545 568.32 
L 838.223545 568.32 
" clip-path="url(#p1bad78f8aa)" style="fill: none; stroke: #419c03; stroke-width: 5; stroke-linecap: square"/>
   </g>
   <g id="patch_3">
    <path d="M 105.003582 568.32 
L 105.003582 54.6992 
" style="fill: none; stroke: #000000; stroke-width: 0.8; stroke-linejoin: miter; stroke-linecap: square"/>
   </g>
   <g id="patch_4">
    <path d="M 844 568.32 
L 844 54.6992 
" style="fill: none; stroke: #000000; stroke-width: 0.8; stroke-linejoin: miter; stroke-linecap: square"/>
   </g>
   <g id="patch_5">
    <path d="M 105.003582 568.32 
L 844 568.32 
" style="fill: none; stroke: #000000; stroke-width: 0.8; stroke-linejoin: miter; stroke-linecap: square"/>
   </g>
   <g id="patch_6">
    <path d="M 105.003582 54.6992 
L 844 54.6992 
" style="fill: none; stroke: #000000; stroke-width: 0.8; stroke-linejoin: miter; stroke-linecap: square"/>
   </g>
   <g id="text_17">
    <!-- Neutron spectrum -->
    <g transform="translate(363.573666 38.426784) scale(0.28 -0.28)">
     <use xlink:href="#Aptos-4e"/>
     <use xlink:href="#Aptos-65" transform="translate(70.605469 0)"/>
     <use xlink:href="#Aptos-75" transform="translate(123.291016 0)"/>
     <use xlink:href="#Aptos-74" transform="translate(179.150391 0)"/>
     <use xlink:href="#Aptos-72" transform="translate(211.474609 0)"/>
     <use xlink:href="#Aptos-6f" transform="translate(244.921875 0)"/>
     <use xlink:href="#Aptos-6e" transform="translate(300.097656 0)"/>
     <use xlink:href="#Aptos-20" transform="translate(355.224609 0)"/>
     <use xlink:href="#Aptos-73" transform="translate(375.537109 0)"/>
     <use xlink:href="#Aptos-70" transform="translate(424.121094 0)"/>
     <use xlink:href="#Aptos-65" transform="translate(480.224609 0)"/>
     <use xlink:href="#Aptos-63" transform="translate(532.910156 0)"/>
     <use xlink:href="#Aptos-74" transform="translate(585.400391 0)"/>
     <use xlink:href="#Aptos-72" transform="translate(617.724609 0)"/>
     <use xlink:href="#Aptos-75" transform="translate(651.171875 0)"/>
     <use xlink:href="#Aptos-6d" transform="translate(707.03125 0)"/>
    </g>
   </g>
   <g id="legend_1">
    <g id="patch_7">
     <path d="M 699.02 104.6392 
L 828.6 104.6392 
Q 833 104.6392 833 100.2392 
L 833 70.0992 
Q 833 65.6992 828.6 65.6992 
L 699.02 65.6992 
Q 694.62 65.6992 694.62 70.0992 
L 694.62 100.2392 
Q 694.62 104.6392 699.02 104.6392 
z
" style="fill: #ffffff; opacity: 0.95; stroke: #cccccc; stroke-linejoin: miter"/>
    </g>
    <g id="line2d_30">
     <path d="M 703.42 83.5192 
L 725.42 83.5192 
L 747.42 83.5192 
" style="fill: none; stroke: #419c03; stroke-width: 5; stroke-linecap: square"/>
    </g>
    <g id="text_18">
     <!-- $\varphi_{n}\left(E\right)$ -->
     <g transform="translate(765.02 91.2192) scale(0.22 -0.22)">
      <defs>
       <path id="DejaVuSerif-Italic-3c6" d="M 2075 -1331 
L 1500 -1331 
L 1756 -9 
Q 1138 3 969 91 
Q 772 194 588 409 
Q 425 609 347 947 
Q 306 1134 397 1594 
Q 534 2309 822 2716 
Q 1075 3075 1653 3322 
L 2003 3322 
L 1969 3138 
Q 1634 2991 1363 2672 
Q 1213 2497 1047 1644 
Q 934 1063 1038 716 
Q 1138 388 1822 328 
L 2078 1644 
Q 2216 2347 2428 2716 
Q 2781 3325 3503 3338 
Q 4125 3347 4328 2716 
Q 4456 2319 4316 1594 
Q 4225 1134 4113 947 
Q 3903 609 3663 409 
Q 3375 175 3156 91 
Q 2956 9 2331 -9 
L 2075 -1331 
z
M 2397 331 
Q 3116 403 3331 716 
Q 3569 1053 3684 1644 
Q 3819 2334 3769 2672 
Q 3716 3025 3444 3025 
Q 3206 3025 2969 2672 
Q 2809 2438 2653 1644 
Q 2481 763 2397 331 
z
" transform="scale(0.015625)"/>
       <path id="DejaVuSerif-Italic-6e" d="M 450 0 
L 1031 2988 
L 481 2988 
L 544 3322 
L 1669 3322 
L 1556 2731 
Q 1781 3069 2068 3241 
Q 2356 3413 2694 3413 
Q 3244 3413 3444 3097 
Q 3563 2906 3563 2588 
Q 3563 2378 3509 2113 
L 3163 331 
L 3675 331 
L 3613 0 
L 2522 0 
L 2897 1931 
Q 2959 2253 2959 2469 
Q 2959 2659 2909 2769 
Q 2803 2994 2425 2994 
Q 2025 2994 1759 2701 
Q 1494 2409 1384 1850 
L 1025 0 
L 450 0 
z
" transform="scale(0.015625)"/>
       <path id="DejaVuSerif-Italic-45" d="M -97 0 
L -34 331 
L 559 331 
L 1338 4331 
L 744 4331 
L 809 4666 
L 4566 4666 
L 4366 3628 
L 3981 3628 
L 4106 4281 
L 1963 4281 
L 1659 2719 
L 3188 2719 
L 3300 3303 
L 3684 3303 
L 3384 1753 
L 3000 1753 
L 3113 2338 
L 1584 2338 
L 1206 384 
L 3400 384 
L 3525 1038 
L 3909 1038 
L 3709 0 
L -97 0 
z
" transform="scale(0.015625)"/>
      </defs>
      <use xlink:href="#DejaVuSerif-Italic-3c6" transform="translate(0 0.015625)"/>
      <use xlink:href="#DejaVuSerif-Italic-6e" transform="translate(70.019531 -15.55625) scale(0.7)"/>
      <use xlink:href="#DejaVuSerif-28" transform="translate(117.697852 0.015625)"/>
      <use xlink:href="#DejaVuSerif-Italic-45" transform="translate(156.711523 0.015625)"/>
      <use xlink:href="#DejaVuSerif-29" transform="translate(229.70957 0.015625)"/>
     </g>
    </g>
   </g>
  </g>
 </g>
 <defs>
  <clipPath id="p1bad78f8aa">
   <rect x="105.003582" y="54.6992" width="738.996418" height="513.6208"/>
  </clipPath>
 </defs>
</svg>
