<?xml version="1.0" encoding="utf-8" standalone="no"?>
<!DOCTYPE svg PUBLIC "-//W3C//DTD SVG 1.1//EN"
  "http://www.w3.org/Graphics/SVG/1.1/DTD/svg11.dtd">
<svg xmlns:xlink="http://www.w3.org/1999/xlink" width="864pt" height="648pt" viewBox="0 0 864 648" xmlns="http://www.w3.org/2000/svg" version="1.1">
 <metadata>
  <rdf:RDF xmlns:dc="http://purl.org/dc/elements/1.1/" xmlns:cc="http://creativecommons.org/ns#" xmlns:rdf="http://www.w3.org/1999/02/22-rdf-syntax-ns#">
   <cc:Work>
    <dc:type rdf:resource="http://purl.org/dc/dcmitype/StillImage"/>
    <dc:date>2025-10-21T14:39:21.913870</dc:date>
    <dc:format>image/svg+xml</dc:format>
    <dc:creator>
     <cc:Agent>
      <dc:title>Matplotlib v3.10.7, https://matplotlib.org/</dc:title>
     </cc:Agent>
    </dc:creator>
   </cc:Work>
  </rdf:RDF>
 </metadata>
 <defs>
  <style type="text/css">*{stroke-linejoin: round; stroke-linecap: butt}</style>
 </defs>
 <g id="figure_1">
  <g id="patch_1">
   <path d="M 0 648 
L 864 648 
L 864 0 
L 0 0 
z
" style="fill: #ffffff; stroke: #000000; stroke-width: 3; stroke-linejoin: miter"/>
  </g>
  <g id="axes_1">
   <g id="patch_2">
    <path d="M 117.077497 560.571 
L 844 560.571 
L 844 62.234 
L 117.077497 62.234 
L 117.077497 560.571 
z
" style="fill: none"/>
   </g>
   <g id="matplotlib.axis_1">
    <g id="xtick_1">
     <g id="line2d_1">
      <path d="M 232.7003 560.571 
L 232.7003 62.234 
" clip-path="url(#p6615294756)" style="fill: none; stroke-dasharray: 4.625,2; stroke-dashoffset: 0; stroke: #343837; stroke-opacity: 0.8; stroke-width: 1.25"/>
     </g>
     <g id="line2d_2">
      <defs>
       <path id="md85701bae9" d="M 0 0 
L 0 3.5 
" style="stroke: #000000; stroke-width: 0.8"/>
      </defs>
      <g>
       <use xlink:href="#md85701bae9" x="232.7003" y="560.571" style="stroke: #000000; stroke-width: 0.8"/>
      </g>
     </g>
     <g id="text_1">
      <!-- $\mathdefault{10^{-9}}$ -->
      <g transform="translate(206.9603 584.287562) scale(0.22 -0.22)">
       <defs>
        <path id="DejaVuSerif-31" d="M 909 0 
L 909 331 
L 1722 331 
L 1722 4213 
L 781 3603 
L 781 4013 
L 1919 4750 
L 2350 4750 
L 2350 331 
L 3163 331 
L 3163 0 
L 909 0 
z
" transform="scale(0.015625)"/>
        <path id="DejaVuSerif-30" d="M 2034 219 
Q 2513 219 2750 744 
Q 2988 1269 2988 2328 
Q 2988 3391 2750 3916 
Q 2513 4441 2034 4441 
Q 1556 4441 1318 3916 
Q 1081 3391 1081 2328 
Q 1081 1269 1318 744 
Q 1556 219 2034 219 
z
M 2034 -91 
Q 1275 -91 848 546 
Q 422 1184 422 2328 
Q 422 3475 848 4112 
Q 1275 4750 2034 4750 
Q 2797 4750 3222 4112 
Q 3647 3475 3647 2328 
Q 3647 1184 3222 546 
Q 2797 -91 2034 -91 
z
" transform="scale(0.015625)"/>
        <path id="DejaVuSerif-2212" d="M 678 2259 
L 4684 2259 
L 4684 1753 
L 678 1753 
L 678 2259 
z
" transform="scale(0.015625)"/>
        <path id="DejaVuSerif-39" d="M 2994 2091 
Q 2784 1856 2512 1740 
Q 2241 1625 1900 1625 
Q 1206 1625 804 2044 
Q 403 2463 403 3188 
Q 403 3897 839 4323 
Q 1275 4750 2003 4750 
Q 2794 4750 3217 4161 
Q 3641 3572 3641 2478 
Q 3641 1253 3137 581 
Q 2634 -91 1722 -91 
Q 1475 -91 1203 -44 
Q 931 3 647 97 
L 647 872 
L 997 872 
Q 1038 556 1241 387 
Q 1444 219 1784 219 
Q 2391 219 2687 676 
Q 2984 1134 2994 2091 
z
M 1978 4441 
Q 1534 4441 1298 4117 
Q 1063 3794 1063 3188 
Q 1063 2581 1298 2256 
Q 1534 1931 1978 1931 
Q 2422 1931 2658 2245 
Q 2894 2559 2894 3150 
Q 2894 3772 2656 4106 
Q 2419 4441 1978 4441 
z
" transform="scale(0.015625)"/>
       </defs>
       <use xlink:href="#DejaVuSerif-31" transform="translate(0 0.7125)"/>
       <use xlink:href="#DejaVuSerif-30" transform="translate(63.623047 0.7125)"/>
       <use xlink:href="#DejaVuSerif-2212" transform="translate(128.154453 37.046875) scale(0.7)"/>
       <use xlink:href="#DejaVuSerif-39" transform="translate(186.806797 37.046875) scale(0.7)"/>
      </g>
     </g>
    </g>
    <g id="xtick_2">
     <g id="line2d_3">
      <path d="M 348.323128 560.571 
L 348.323128 62.234 
" clip-path="url(#p6615294756)" style="fill: none; stroke-dasharray: 4.625,2; stroke-dashoffset: 0; stroke: #343837; stroke-opacity: 0.8; stroke-width: 1.25"/>
     </g>
     <g id="line2d_4">
      <g>
       <use xlink:href="#md85701bae9" x="348.323128" y="560.571" style="stroke: #000000; stroke-width: 0.8"/>
      </g>
     </g>
     <g id="text_2">
      <!-- $\mathdefault{10^{-7}}$ -->
      <g transform="translate(322.583128 584.287562) scale(0.22 -0.22)">
       <defs>
        <path id="DejaVuSerif-37" d="M 3609 4347 
L 1784 0 
L 1319 0 
L 3059 4153 
L 903 4153 
L 903 3578 
L 538 3578 
L 538 4666 
L 3609 4666 
L 3609 4347 
z
" transform="scale(0.015625)"/>
       </defs>
       <use xlink:href="#DejaVuSerif-31" transform="translate(0 0.63125)"/>
       <use xlink:href="#DejaVuSerif-30" transform="translate(63.623047 0.63125)"/>
       <use xlink:href="#DejaVuSerif-2212" transform="translate(128.154453 36.965625) scale(0.7)"/>
       <use xlink:href="#DejaVuSerif-37" transform="translate(186.806797 36.965625) scale(0.7)"/>
      </g>
     </g>
    </g>
    <g id="xtick_3">
     <g id="line2d_5">
      <path d="M 463.945957 560.571 
L 463.945957 62.234 
" clip-path="url(#p6615294756)" style="fill: none; stroke-dasharray: 4.625,2; stroke-dashoffset: 0; stroke: #343837; stroke-opacity: 0.8; stroke-width: 1.25"/>
     </g>
     <g id="line2d_6">
      <g>
       <use xlink:href="#md85701bae9" x="463.945957" y="560.571" style="stroke: #000000; stroke-width: 0.8"/>
      </g>
     </g>
     <g id="text_3">
      <!-- $\mathdefault{10^{-5}}$ -->
      <g transform="translate(438.205957 584.287562) scale(0.22 -0.22)">
       <defs>
        <path id="DejaVuSerif-35" d="M 3219 4666 
L 3219 4153 
L 1081 4153 
L 1081 2816 
Q 1244 2928 1461 2984 
Q 1678 3041 1947 3041 
Q 2703 3041 3140 2622 
Q 3578 2203 3578 1478 
Q 3578 738 3136 323 
Q 2694 -91 1894 -91 
Q 1572 -91 1234 -12 
Q 897 66 544 225 
L 544 1131 
L 897 1131 
Q 925 688 1179 453 
Q 1434 219 1894 219 
Q 2388 219 2653 544 
Q 2919 869 2919 1478 
Q 2919 2084 2655 2407 
Q 2391 2731 1894 2731 
Q 1613 2731 1398 2631 
Q 1184 2531 1019 2322 
L 750 2322 
L 750 4666 
L 3219 4666 
z
" transform="scale(0.015625)"/>
       </defs>
       <use xlink:href="#DejaVuSerif-31" transform="translate(0 0.63125)"/>
       <use xlink:href="#DejaVuSerif-30" transform="translate(63.623047 0.63125)"/>
       <use xlink:href="#DejaVuSerif-2212" transform="translate(128.154453 36.965625) scale(0.7)"/>
       <use xlink:href="#DejaVuSerif-35" transform="translate(186.806797 36.965625) scale(0.7)"/>
      </g>
     </g>
    </g>
    <g id="xtick_4">
     <g id="line2d_7">
      <path d="M 579.568785 560.571 
L 579.568785 62.234 
" clip-path="url(#p6615294756)" style="fill: none; stroke-dasharray: 4.625,2; stroke-dashoffset: 0; stroke: #343837; stroke-opacity: 0.8; stroke-width: 1.25"/>
     </g>
     <g id="line2d_8">
      <g>
       <use xlink:href="#md85701bae9" x="579.568785" y="560.571" style="stroke: #000000; stroke-width: 0.8"/>
      </g>
     </g>
     <g id="text_4">
      <!-- $\mathdefault{10^{-3}}$ -->
      <g transform="translate(553.828785 584.287562) scale(0.22 -0.22)">
       <defs>
        <path id="DejaVuSerif-33" d="M 622 4469 
Q 988 4606 1323 4678 
Q 1659 4750 1953 4750 
Q 2638 4750 3022 4454 
Q 3406 4159 3406 3634 
Q 3406 3213 3140 2930 
Q 2875 2647 2388 2547 
Q 2963 2466 3280 2130 
Q 3597 1794 3597 1259 
Q 3597 606 3158 257 
Q 2719 -91 1894 -91 
Q 1528 -91 1179 -12 
Q 831 66 488 225 
L 488 1131 
L 838 1131 
Q 869 681 1141 450 
Q 1413 219 1906 219 
Q 2384 219 2661 495 
Q 2938 772 2938 1253 
Q 2938 1803 2653 2086 
Q 2369 2369 1819 2369 
L 1522 2369 
L 1522 2688 
L 1678 2688 
Q 2225 2688 2498 2914 
Q 2772 3141 2772 3597 
Q 2772 4006 2547 4223 
Q 2322 4441 1900 4441 
Q 1478 4441 1245 4241 
Q 1013 4041 972 3647 
L 622 3647 
L 622 4469 
z
" transform="scale(0.015625)"/>
       </defs>
       <use xlink:href="#DejaVuSerif-31" transform="translate(0 0.7125)"/>
       <use xlink:href="#DejaVuSerif-30" transform="translate(63.623047 0.7125)"/>
       <use xlink:href="#DejaVuSerif-2212" transform="translate(128.154453 37.046875) scale(0.7)"/>
       <use xlink:href="#DejaVuSerif-33" transform="translate(186.806797 37.046875) scale(0.7)"/>
      </g>
     </g>
    </g>
    <g id="xtick_5">
     <g id="line2d_9">
      <path d="M 695.191613 560.571 
L 695.191613 62.234 
" clip-path="url(#p6615294756)" style="fill: none; stroke-dasharray: 4.625,2; stroke-dashoffset: 0; stroke: #343837; stroke-opacity: 0.8; stroke-width: 1.25"/>
     </g>
     <g id="line2d_10">
      <g>
       <use xlink:href="#md85701bae9" x="695.191613" y="560.571" style="stroke: #000000; stroke-width: 0.8"/>
      </g>
     </g>
     <g id="text_5">
      <!-- $\mathdefault{10^{-1}}$ -->
      <g transform="translate(669.451613 584.287562) scale(0.22 -0.22)">
       <use xlink:href="#DejaVuSerif-31" transform="translate(0 0.7125)"/>
       <use xlink:href="#DejaVuSerif-30" transform="translate(63.623047 0.7125)"/>
       <use xlink:href="#DejaVuSerif-2212" transform="translate(128.154453 37.046875) scale(0.7)"/>
       <use xlink:href="#DejaVuSerif-31" transform="translate(186.806797 37.046875) scale(0.7)"/>
      </g>
     </g>
    </g>
    <g id="xtick_6">
     <g id="line2d_11">
      <path d="M 810.814441 560.571 
L 810.814441 62.234 
" clip-path="url(#p6615294756)" style="fill: none; stroke-dasharray: 4.625,2; stroke-dashoffset: 0; stroke: #343837; stroke-opacity: 0.8; stroke-width: 1.25"/>
     </g>
     <g id="line2d_12">
      <g>
       <use xlink:href="#md85701bae9" x="810.814441" y="560.571" style="stroke: #000000; stroke-width: 0.8"/>
      </g>
     </g>
     <g id="text_6">
      <!-- $\mathdefault{10^{1}}$ -->
      <g transform="translate(791.454441 584.287562) scale(0.22 -0.22)">
       <use xlink:href="#DejaVuSerif-31" transform="translate(0 0.7125)"/>
       <use xlink:href="#DejaVuSerif-30" transform="translate(63.623047 0.7125)"/>
       <use xlink:href="#DejaVuSerif-31" transform="translate(128.154453 37.046875) scale(0.7)"/>
      </g>
     </g>
    </g>
    <g id="text_7">
     <!-- Neutron energy (MeV) -->
     <g transform="translate(331.016405 620.618812) scale(0.26 -0.26)">
      <defs>
       <path id="DejaVuSerif-4e" d="M 313 0 
L 313 331 
L 941 331 
L 941 4331 
L 313 4331 
L 313 4666 
L 1509 4666 
L 4306 984 
L 4306 4331 
L 3681 4331 
L 3681 4666 
L 5319 4666 
L 5319 4331 
L 4691 4331 
L 4691 -91 
L 4313 -91 
L 1325 3841 
L 1325 331 
L 1953 331 
L 1953 0 
L 313 0 
z
" transform="scale(0.015625)"/>
       <path id="DejaVuSerif-65" d="M 3469 1600 
L 991 1600 
L 991 1575 
Q 991 903 1244 561 
Q 1497 219 1991 219 
Q 2369 219 2611 417 
Q 2853 616 2950 1006 
L 3413 1006 
Q 3275 459 2904 184 
Q 2534 -91 1931 -91 
Q 1203 -91 761 389 
Q 319 869 319 1663 
Q 319 2450 753 2931 
Q 1188 3413 1894 3413 
Q 2647 3413 3050 2948 
Q 3453 2484 3469 1600 
z
M 2791 1931 
Q 2772 2513 2545 2808 
Q 2319 3103 1894 3103 
Q 1497 3103 1269 2806 
Q 1041 2509 991 1931 
L 2791 1931 
z
" transform="scale(0.015625)"/>
       <path id="DejaVuSerif-75" d="M 2266 3322 
L 3341 3322 
L 3341 331 
L 3884 331 
L 3884 0 
L 2766 0 
L 2766 588 
Q 2606 256 2353 82 
Q 2100 -91 1766 -91 
Q 1213 -91 952 223 
Q 691 538 691 1209 
L 691 2988 
L 172 2988 
L 172 3322 
L 1269 3322 
L 1269 1388 
Q 1269 781 1417 556 
Q 1566 331 1947 331 
Q 2347 331 2556 625 
Q 2766 919 2766 1478 
L 2766 2988 
L 2266 2988 
L 2266 3322 
z
" transform="scale(0.015625)"/>
       <path id="DejaVuSerif-74" d="M 691 2988 
L 184 2988 
L 184 3322 
L 691 3322 
L 691 4353 
L 1269 4353 
L 1269 3322 
L 2350 3322 
L 2350 2988 
L 1269 2988 
L 1269 878 
Q 1269 456 1350 337 
Q 1431 219 1650 219 
Q 1875 219 1978 351 
Q 2081 484 2088 781 
L 2522 781 
Q 2497 328 2275 118 
Q 2053 -91 1600 -91 
Q 1103 -91 897 129 
Q 691 350 691 878 
L 691 2988 
z
" transform="scale(0.015625)"/>
       <path id="DejaVuSerif-72" d="M 3059 3328 
L 3059 2497 
L 2728 2497 
Q 2713 2744 2591 2866 
Q 2469 2988 2234 2988 
Q 1809 2988 1582 2694 
Q 1356 2400 1356 1850 
L 1356 331 
L 2022 331 
L 2022 0 
L 263 0 
L 263 331 
L 781 331 
L 781 2994 
L 231 2994 
L 231 3322 
L 1356 3322 
L 1356 2731 
Q 1525 3078 1790 3245 
Q 2056 3413 2438 3413 
Q 2578 3413 2733 3391 
Q 2888 3369 3059 3328 
z
" transform="scale(0.015625)"/>
       <path id="DejaVuSerif-6f" d="M 1925 219 
Q 2388 219 2623 584 
Q 2859 950 2859 1663 
Q 2859 2375 2623 2739 
Q 2388 3103 1925 3103 
Q 1463 3103 1227 2739 
Q 991 2375 991 1663 
Q 991 950 1228 584 
Q 1466 219 1925 219 
z
M 1925 -91 
Q 1200 -91 759 389 
Q 319 869 319 1663 
Q 319 2456 758 2934 
Q 1197 3413 1925 3413 
Q 2653 3413 3092 2934 
Q 3531 2456 3531 1663 
Q 3531 869 3092 389 
Q 2653 -91 1925 -91 
z
" transform="scale(0.015625)"/>
       <path id="DejaVuSerif-6e" d="M 263 0 
L 263 331 
L 781 331 
L 781 2988 
L 231 2988 
L 231 3322 
L 1356 3322 
L 1356 2731 
Q 1516 3069 1770 3241 
Q 2025 3413 2363 3413 
Q 2913 3413 3172 3097 
Q 3431 2781 3431 2113 
L 3431 331 
L 3944 331 
L 3944 0 
L 2356 0 
L 2356 331 
L 2853 331 
L 2853 1931 
Q 2853 2541 2703 2767 
Q 2553 2994 2175 2994 
Q 1775 2994 1565 2701 
Q 1356 2409 1356 1850 
L 1356 331 
L 1856 331 
L 1856 0 
L 263 0 
z
" transform="scale(0.015625)"/>
       <path id="DejaVuSerif-20" transform="scale(0.015625)"/>
       <path id="DejaVuSerif-67" d="M 3359 2988 
L 3359 72 
Q 3359 -644 2965 -1033 
Q 2572 -1422 1844 -1422 
Q 1516 -1422 1216 -1362 
Q 916 -1303 641 -1184 
L 641 -488 
L 941 -488 
Q 997 -813 1206 -963 
Q 1416 -1113 1806 -1113 
Q 2313 -1113 2548 -827 
Q 2784 -541 2784 72 
L 2784 519 
Q 2616 206 2355 57 
Q 2094 -91 1709 -91 
Q 1097 -91 708 395 
Q 319 881 319 1663 
Q 319 2444 706 2928 
Q 1094 3413 1709 3413 
Q 2094 3413 2355 3264 
Q 2616 3116 2784 2803 
L 2784 3322 
L 3909 3322 
L 3909 2988 
L 3359 2988 
z
M 2784 1825 
Q 2784 2422 2554 2737 
Q 2325 3053 1888 3053 
Q 1444 3053 1217 2703 
Q 991 2353 991 1663 
Q 991 975 1217 622 
Q 1444 269 1888 269 
Q 2325 269 2554 583 
Q 2784 897 2784 1497 
L 2784 1825 
z
" transform="scale(0.015625)"/>
       <path id="DejaVuSerif-79" d="M 1381 -609 
L 1600 -56 
L 359 2988 
L -19 2988 
L -19 3322 
L 1509 3322 
L 1509 2988 
L 978 2988 
L 1913 703 
L 2847 2988 
L 2350 2988 
L 2350 3322 
L 3597 3322 
L 3597 2988 
L 3225 2988 
L 1703 -750 
Q 1547 -1138 1356 -1280 
Q 1166 -1422 819 -1422 
Q 672 -1422 517 -1397 
Q 363 -1372 206 -1325 
L 206 -691 
L 500 -691 
Q 519 -903 608 -995 
Q 697 -1088 884 -1088 
Q 1056 -1088 1161 -992 
Q 1266 -897 1381 -609 
z
" transform="scale(0.015625)"/>
       <path id="DejaVuSerif-28" d="M 2041 -997 
Q 1281 -656 893 83 
Q 506 822 506 1931 
Q 506 3044 893 3783 
Q 1281 4522 2041 4863 
L 2041 4556 
Q 1559 4225 1350 3623 
Q 1141 3022 1141 1931 
Q 1141 844 1350 242 
Q 1559 -359 2041 -691 
L 2041 -997 
z
" transform="scale(0.015625)"/>
       <path id="DejaVuSerif-4d" d="M 353 0 
L 353 331 
L 947 331 
L 947 4331 
L 319 4331 
L 319 4666 
L 1678 4666 
L 3316 1344 
L 4953 4666 
L 6228 4666 
L 6228 4331 
L 5606 4331 
L 5606 331 
L 6203 331 
L 6203 0 
L 4378 0 
L 4378 331 
L 4972 331 
L 4972 3938 
L 3372 684 
L 2931 684 
L 1331 3938 
L 1331 331 
L 1925 331 
L 1925 0 
L 353 0 
z
" transform="scale(0.015625)"/>
       <path id="DejaVuSerif-56" d="M 1119 4331 
L 2497 750 
L 3872 4331 
L 3347 4331 
L 3347 4666 
L 4716 4666 
L 4716 4331 
L 4263 4331 
L 2597 0 
L 2059 0 
L 403 4331 
L -63 4331 
L -63 4666 
L 1638 4666 
L 1638 4331 
L 1119 4331 
z
" transform="scale(0.015625)"/>
       <path id="DejaVuSerif-29" d="M 453 -997 
L 453 -691 
Q 934 -359 1145 242 
Q 1356 844 1356 1931 
Q 1356 3022 1145 3623 
Q 934 4225 453 4556 
L 453 4863 
Q 1216 4522 1603 3783 
Q 1991 3044 1991 1931 
Q 1991 822 1603 83 
Q 1216 -656 453 -997 
z
" transform="scale(0.015625)"/>
      </defs>
      <use xlink:href="#DejaVuSerif-4e"/>
      <use xlink:href="#DejaVuSerif-65" transform="translate(87.5 0)"/>
      <use xlink:href="#DejaVuSerif-75" transform="translate(146.679688 0)"/>
      <use xlink:href="#DejaVuSerif-74" transform="translate(211.083984 0)"/>
      <use xlink:href="#DejaVuSerif-72" transform="translate(251.269531 0)"/>
      <use xlink:href="#DejaVuSerif-6f" transform="translate(299.072266 0)"/>
      <use xlink:href="#DejaVuSerif-6e" transform="translate(359.277344 0)"/>
      <use xlink:href="#DejaVuSerif-20" transform="translate(423.681641 0)"/>
      <use xlink:href="#DejaVuSerif-65" transform="translate(455.46875 0)"/>
      <use xlink:href="#DejaVuSerif-6e" transform="translate(514.648438 0)"/>
      <use xlink:href="#DejaVuSerif-65" transform="translate(579.052734 0)"/>
      <use xlink:href="#DejaVuSerif-72" transform="translate(638.232422 0)"/>
      <use xlink:href="#DejaVuSerif-67" transform="translate(686.035156 0)"/>
      <use xlink:href="#DejaVuSerif-79" transform="translate(750.048828 0)"/>
      <use xlink:href="#DejaVuSerif-20" transform="translate(806.542969 0)"/>
      <use xlink:href="#DejaVuSerif-28" transform="translate(838.330078 0)"/>
      <use xlink:href="#DejaVuSerif-4d" transform="translate(877.34375 0)"/>
      <use xlink:href="#DejaVuSerif-65" transform="translate(979.736328 0)"/>
      <use xlink:href="#DejaVuSerif-56" transform="translate(1038.916016 0)"/>
      <use xlink:href="#DejaVuSerif-29" transform="translate(1111.132812 0)"/>
     </g>
    </g>
   </g>
   <g id="matplotlib.axis_2">
    <g id="ytick_1">
     <g id="line2d_13">
      <path d="M 117.077497 560.571 
L 844 560.571 
" clip-path="url(#p6615294756)" style="fill: none; stroke-dasharray: 4.625,2; stroke-dashoffset: 0; stroke: #343837; stroke-opacity: 0.8; stroke-width: 1.25"/>
     </g>
     <g id="line2d_14">
      <defs>
       <path id="m2f0cac4305" d="M 0 0 
L -3.5 0 
" style="stroke: #000000; stroke-width: 0.8"/>
      </defs>
      <g>
       <use xlink:href="#m2f0cac4305" x="117.077497" y="560.571" style="stroke: #000000; stroke-width: 0.8"/>
      </g>
     </g>
     <g id="text_8">
      <!-- $\mathdefault{10^{-4}}$ -->
      <g transform="translate(58.597497 568.929281) scale(0.22 -0.22)">
       <defs>
        <path id="DejaVuSerif-34" d="M 2234 1581 
L 2234 4063 
L 641 1581 
L 2234 1581 
z
M 3609 0 
L 1484 0 
L 1484 331 
L 2234 331 
L 2234 1247 
L 197 1247 
L 197 1588 
L 2241 4750 
L 2859 4750 
L 2859 1581 
L 3750 1581 
L 3750 1247 
L 2859 1247 
L 2859 331 
L 3609 331 
L 3609 0 
z
" transform="scale(0.015625)"/>
       </defs>
       <use xlink:href="#DejaVuSerif-31" transform="translate(0 0.7125)"/>
       <use xlink:href="#DejaVuSerif-30" transform="translate(63.623047 0.7125)"/>
       <use xlink:href="#DejaVuSerif-2212" transform="translate(128.154453 37.046875) scale(0.7)"/>
       <use xlink:href="#DejaVuSerif-34" transform="translate(186.806797 37.046875) scale(0.7)"/>
      </g>
     </g>
    </g>
    <g id="ytick_2">
     <g id="line2d_15">
      <path d="M 117.077497 489.38 
L 844 489.38 
" clip-path="url(#p6615294756)" style="fill: none; stroke-dasharray: 4.625,2; stroke-dashoffset: 0; stroke: #343837; stroke-opacity: 0.8; stroke-width: 1.25"/>
     </g>
     <g id="line2d_16">
      <g>
       <use xlink:href="#m2f0cac4305" x="117.077497" y="489.38" style="stroke: #000000; stroke-width: 0.8"/>
      </g>
     </g>
     <g id="text_9">
      <!-- $\mathdefault{10^{-2}}$ -->
      <g transform="translate(58.597497 497.738281) scale(0.22 -0.22)">
       <defs>
        <path id="DejaVuSerif-32" d="M 819 3553 
L 469 3553 
L 469 4384 
Q 803 4563 1142 4656 
Q 1481 4750 1806 4750 
Q 2534 4750 2956 4397 
Q 3378 4044 3378 3438 
Q 3378 2753 2422 1800 
Q 2347 1728 2309 1691 
L 1131 513 
L 3078 513 
L 3078 1088 
L 3444 1088 
L 3444 0 
L 434 0 
L 434 341 
L 1850 1753 
Q 2319 2222 2519 2614 
Q 2719 3006 2719 3438 
Q 2719 3909 2473 4175 
Q 2228 4441 1797 4441 
Q 1350 4441 1106 4219 
Q 863 3997 819 3553 
z
" transform="scale(0.015625)"/>
       </defs>
       <use xlink:href="#DejaVuSerif-31" transform="translate(0 0.7125)"/>
       <use xlink:href="#DejaVuSerif-30" transform="translate(63.623047 0.7125)"/>
       <use xlink:href="#DejaVuSerif-2212" transform="translate(128.154453 37.046875) scale(0.7)"/>
       <use xlink:href="#DejaVuSerif-32" transform="translate(186.806797 37.046875) scale(0.7)"/>
      </g>
     </g>
    </g>
    <g id="ytick_3">
     <g id="line2d_17">
      <path d="M 117.077497 418.189 
L 844 418.189 
" clip-path="url(#p6615294756)" style="fill: none; stroke-dasharray: 4.625,2; stroke-dashoffset: 0; stroke: #343837; stroke-opacity: 0.8; stroke-width: 1.25"/>
     </g>
     <g id="line2d_18">
      <g>
       <use xlink:href="#m2f0cac4305" x="117.077497" y="418.189" style="stroke: #000000; stroke-width: 0.8"/>
      </g>
     </g>
     <g id="text_10">
      <!-- $\mathdefault{10^{0}}$ -->
      <g transform="translate(71.357497 426.547281) scale(0.22 -0.22)">
       <use xlink:href="#DejaVuSerif-31" transform="translate(0 0.7125)"/>
       <use xlink:href="#DejaVuSerif-30" transform="translate(63.623047 0.7125)"/>
       <use xlink:href="#DejaVuSerif-30" transform="translate(128.154453 37.046875) scale(0.7)"/>
      </g>
     </g>
    </g>
    <g id="ytick_4">
     <g id="line2d_19">
      <path d="M 117.077497 346.998 
L 844 346.998 
" clip-path="url(#p6615294756)" style="fill: none; stroke-dasharray: 4.625,2; stroke-dashoffset: 0; stroke: #343837; stroke-opacity: 0.8; stroke-width: 1.25"/>
     </g>
     <g id="line2d_20">
      <g>
       <use xlink:href="#m2f0cac4305" x="117.077497" y="346.998" style="stroke: #000000; stroke-width: 0.8"/>
      </g>
     </g>
     <g id="text_11">
      <!-- $\mathdefault{10^{2}}$ -->
      <g transform="translate(71.357497 355.356281) scale(0.22 -0.22)">
       <use xlink:href="#DejaVuSerif-31" transform="translate(0 0.7125)"/>
       <use xlink:href="#DejaVuSerif-30" transform="translate(63.623047 0.7125)"/>
       <use xlink:href="#DejaVuSerif-32" transform="translate(128.154453 37.046875) scale(0.7)"/>
      </g>
     </g>
    </g>
    <g id="ytick_5">
     <g id="line2d_21">
      <path d="M 117.077497 275.807 
L 844 275.807 
" clip-path="url(#p6615294756)" style="fill: none; stroke-dasharray: 4.625,2; stroke-dashoffset: 0; stroke: #343837; stroke-opacity: 0.8; stroke-width: 1.25"/>
     </g>
     <g id="line2d_22">
      <g>
       <use xlink:href="#m2f0cac4305" x="117.077497" y="275.807" style="stroke: #000000; stroke-width: 0.8"/>
      </g>
     </g>
     <g id="text_12">
      <!-- $\mathdefault{10^{4}}$ -->
      <g transform="translate(71.357497 284.165281) scale(0.22 -0.22)">
       <use xlink:href="#DejaVuSerif-31" transform="translate(0 0.7125)"/>
       <use xlink:href="#DejaVuSerif-30" transform="translate(63.623047 0.7125)"/>
       <use xlink:href="#DejaVuSerif-34" transform="translate(128.154453 37.046875) scale(0.7)"/>
      </g>
     </g>
    </g>
    <g id="ytick_6">
     <g id="line2d_23">
      <path d="M 117.077497 204.616 
L 844 204.616 
" clip-path="url(#p6615294756)" style="fill: none; stroke-dasharray: 4.625,2; stroke-dashoffset: 0; stroke: #343837; stroke-opacity: 0.8; stroke-width: 1.25"/>
     </g>
     <g id="line2d_24">
      <g>
       <use xlink:href="#m2f0cac4305" x="117.077497" y="204.616" style="stroke: #000000; stroke-width: 0.8"/>
      </g>
     </g>
     <g id="text_13">
      <!-- $\mathdefault{10^{6}}$ -->
      <g transform="translate(71.357497 212.974281) scale(0.22 -0.22)">
       <defs>
        <path id="DejaVuSerif-36" d="M 2094 219 
Q 2534 219 2771 542 
Q 3009 866 3009 1472 
Q 3009 2078 2771 2401 
Q 2534 2725 2094 2725 
Q 1647 2725 1412 2412 
Q 1178 2100 1178 1509 
Q 1178 888 1415 553 
Q 1653 219 2094 219 
z
M 1075 2569 
Q 1288 2803 1556 2918 
Q 1825 3034 2163 3034 
Q 2859 3034 3264 2615 
Q 3669 2197 3669 1472 
Q 3669 763 3233 336 
Q 2797 -91 2069 -91 
Q 1278 -91 853 498 
Q 428 1088 428 2181 
Q 428 3406 931 4078 
Q 1434 4750 2350 4750 
Q 2597 4750 2869 4703 
Q 3141 4656 3425 4563 
L 3425 3794 
L 3072 3794 
Q 3034 4109 2831 4275 
Q 2628 4441 2284 4441 
Q 1678 4441 1381 3981 
Q 1084 3522 1075 2569 
z
" transform="scale(0.015625)"/>
       </defs>
       <use xlink:href="#DejaVuSerif-31" transform="translate(0 0.7125)"/>
       <use xlink:href="#DejaVuSerif-30" transform="translate(63.623047 0.7125)"/>
       <use xlink:href="#DejaVuSerif-36" transform="translate(128.154453 37.046875) scale(0.7)"/>
      </g>
     </g>
    </g>
    <g id="ytick_7">
     <g id="line2d_25">
      <path d="M 117.077497 133.425 
L 844 133.425 
" clip-path="url(#p6615294756)" style="fill: none; stroke-dasharray: 4.625,2; stroke-dashoffset: 0; stroke: #343837; stroke-opacity: 0.8; stroke-width: 1.25"/>
     </g>
     <g id="line2d_26">
      <g>
       <use xlink:href="#m2f0cac4305" x="117.077497" y="133.425" style="stroke: #000000; stroke-width: 0.8"/>
      </g>
     </g>
     <g id="text_14">
      <!-- $\mathdefault{10^{8}}$ -->
      <g transform="translate(71.357497 141.783281) scale(0.22 -0.22)">
       <defs>
        <path id="DejaVuSerif-38" d="M 2981 1275 
Q 2981 1775 2732 2051 
Q 2484 2328 2034 2328 
Q 1584 2328 1336 2051 
Q 1088 1775 1088 1275 
Q 1088 772 1336 495 
Q 1584 219 2034 219 
Q 2484 219 2732 495 
Q 2981 772 2981 1275 
z
M 2853 3541 
Q 2853 3966 2637 4203 
Q 2422 4441 2034 4441 
Q 1650 4441 1433 4203 
Q 1216 3966 1216 3541 
Q 1216 3113 1433 2875 
Q 1650 2638 2034 2638 
Q 2422 2638 2637 2875 
Q 2853 3113 2853 3541 
z
M 2516 2484 
Q 3047 2413 3344 2092 
Q 3641 1772 3641 1275 
Q 3641 619 3225 264 
Q 2809 -91 2034 -91 
Q 1263 -91 845 264 
Q 428 619 428 1275 
Q 428 1772 725 2092 
Q 1022 2413 1556 2484 
Q 1084 2569 832 2842 
Q 581 3116 581 3541 
Q 581 4103 968 4426 
Q 1356 4750 2034 4750 
Q 2713 4750 3100 4426 
Q 3488 4103 3488 3541 
Q 3488 3116 3236 2842 
Q 2984 2569 2516 2484 
z
" transform="scale(0.015625)"/>
       </defs>
       <use xlink:href="#DejaVuSerif-31" transform="translate(0 0.7125)"/>
       <use xlink:href="#DejaVuSerif-30" transform="translate(63.623047 0.7125)"/>
       <use xlink:href="#DejaVuSerif-38" transform="translate(128.154453 37.046875) scale(0.7)"/>
      </g>
     </g>
    </g>
    <g id="ytick_8">
     <g id="line2d_27">
      <path d="M 117.077497 62.234 
L 844 62.234 
" clip-path="url(#p6615294756)" style="fill: none; stroke-dasharray: 4.625,2; stroke-dashoffset: 0; stroke: #343837; stroke-opacity: 0.8; stroke-width: 1.25"/>
     </g>
     <g id="line2d_28">
      <g>
       <use xlink:href="#m2f0cac4305" x="117.077497" y="62.234" style="stroke: #000000; stroke-width: 0.8"/>
      </g>
     </g>
     <g id="text_15">
      <!-- $\mathdefault{10^{10}}$ -->
      <g transform="translate(61.677497 70.592281) scale(0.22 -0.22)">
       <use xlink:href="#DejaVuSerif-31" transform="translate(0 0.7125)"/>
       <use xlink:href="#DejaVuSerif-30" transform="translate(63.623047 0.7125)"/>
       <use xlink:href="#DejaVuSerif-31" transform="translate(128.154453 37.046875) scale(0.7)"/>
       <use xlink:href="#DejaVuSerif-30" transform="translate(172.690586 37.046875) scale(0.7)"/>
      </g>
     </g>
    </g>
    <g id="text_16">
     <!-- Neutron spectrum $\left(\mathrm{MeV^{-1}\;cm^{-2}\;s^{-1}}\right)$ -->
     <g transform="translate(45.137497 552.1625) rotate(-90) scale(0.26 -0.26)">
      <defs>
       <path id="DejaVuSerif-73" d="M 359 184 
L 359 959 
L 691 959 
Q 703 588 923 403 
Q 1144 219 1575 219 
Q 1963 219 2166 364 
Q 2369 509 2369 788 
Q 2369 1006 2220 1140 
Q 2072 1275 1594 1428 
L 1178 1569 
Q 750 1706 558 1912 
Q 366 2119 366 2438 
Q 366 2894 700 3153 
Q 1034 3413 1625 3413 
Q 1888 3413 2178 3344 
Q 2469 3275 2778 3144 
L 2778 2419 
L 2447 2419 
Q 2434 2741 2221 2922 
Q 2009 3103 1644 3103 
Q 1281 3103 1095 2975 
Q 909 2847 909 2591 
Q 909 2381 1050 2254 
Q 1191 2128 1613 1997 
L 2069 1856 
Q 2541 1709 2748 1489 
Q 2956 1269 2956 922 
Q 2956 450 2595 179 
Q 2234 -91 1600 -91 
Q 1278 -91 972 -22 
Q 666 47 359 184 
z
" transform="scale(0.015625)"/>
       <path id="DejaVuSerif-70" d="M 1313 1825 
L 1313 1497 
Q 1313 897 1542 583 
Q 1772 269 2209 269 
Q 2650 269 2876 622 
Q 3103 975 3103 1663 
Q 3103 2353 2876 2703 
Q 2650 3053 2209 3053 
Q 1772 3053 1542 2737 
Q 1313 2422 1313 1825 
z
M 738 2988 
L 184 2988 
L 184 3322 
L 1313 3322 
L 1313 2803 
Q 1481 3116 1742 3264 
Q 2003 3413 2388 3413 
Q 3000 3413 3387 2928 
Q 3775 2444 3775 1663 
Q 3775 881 3387 395 
Q 3000 -91 2388 -91 
Q 2003 -91 1742 57 
Q 1481 206 1313 519 
L 1313 -997 
L 1856 -997 
L 1856 -1331 
L 184 -1331 
L 184 -997 
L 738 -997 
L 738 2988 
z
" transform="scale(0.015625)"/>
       <path id="DejaVuSerif-63" d="M 3291 997 
Q 3169 466 2822 187 
Q 2475 -91 1925 -91 
Q 1200 -91 759 389 
Q 319 869 319 1663 
Q 319 2459 759 2936 
Q 1200 3413 1925 3413 
Q 2241 3413 2553 3339 
Q 2866 3266 3181 3116 
L 3181 2266 
L 2847 2266 
Q 2781 2703 2561 2903 
Q 2341 3103 1931 3103 
Q 1466 3103 1228 2742 
Q 991 2381 991 1663 
Q 991 944 1227 581 
Q 1463 219 1931 219 
Q 2303 219 2525 412 
Q 2747 606 2828 997 
L 3291 997 
z
" transform="scale(0.015625)"/>
       <path id="DejaVuSerif-6d" d="M 3316 2675 
Q 3481 3041 3739 3227 
Q 3997 3413 4341 3413 
Q 4863 3413 5119 3089 
Q 5375 2766 5375 2113 
L 5375 331 
L 5894 331 
L 5894 0 
L 4300 0 
L 4300 331 
L 4800 331 
L 4800 2047 
Q 4800 2556 4650 2772 
Q 4500 2988 4153 2988 
Q 3769 2988 3567 2697 
Q 3366 2406 3366 1850 
L 3366 331 
L 3866 331 
L 3866 0 
L 2291 0 
L 2291 331 
L 2791 331 
L 2791 2069 
Q 2791 2566 2641 2777 
Q 2491 2988 2144 2988 
Q 1759 2988 1557 2697 
Q 1356 2406 1356 1850 
L 1356 331 
L 1856 331 
L 1856 0 
L 263 0 
L 263 331 
L 781 331 
L 781 2994 
L 231 2994 
L 231 3322 
L 1356 3322 
L 1356 2731 
Q 1516 3063 1762 3238 
Q 2009 3413 2322 3413 
Q 2709 3413 2968 3220 
Q 3228 3028 3316 2675 
z
" transform="scale(0.015625)"/>
      </defs>
      <use xlink:href="#DejaVuSerif-4e" transform="translate(0 0.7125)"/>
      <use xlink:href="#DejaVuSerif-65" transform="translate(87.5 0.7125)"/>
      <use xlink:href="#DejaVuSerif-75" transform="translate(146.679688 0.7125)"/>
      <use xlink:href="#DejaVuSerif-74" transform="translate(211.083984 0.7125)"/>
      <use xlink:href="#DejaVuSerif-72" transform="translate(251.269531 0.7125)"/>
      <use xlink:href="#DejaVuSerif-6f" transform="translate(299.072266 0.7125)"/>
      <use xlink:href="#DejaVuSerif-6e" transform="translate(359.277344 0.7125)"/>
      <use xlink:href="#DejaVuSerif-20" transform="translate(423.681641 0.7125)"/>
      <use xlink:href="#DejaVuSerif-73" transform="translate(455.46875 0.7125)"/>
      <use xlink:href="#DejaVuSerif-70" transform="translate(506.787109 0.7125)"/>
      <use xlink:href="#DejaVuSerif-65" transform="translate(570.800781 0.7125)"/>
      <use xlink:href="#DejaVuSerif-63" transform="translate(629.980469 0.7125)"/>
      <use xlink:href="#DejaVuSerif-74" transform="translate(685.986328 0.7125)"/>
      <use xlink:href="#DejaVuSerif-72" transform="translate(726.171875 0.7125)"/>
      <use xlink:href="#DejaVuSerif-75" transform="translate(773.974609 0.7125)"/>
      <use xlink:href="#DejaVuSerif-6d" transform="translate(838.378906 0.7125)"/>
      <use xlink:href="#DejaVuSerif-20" transform="translate(933.203125 0.7125)"/>
      <use xlink:href="#DejaVuSerif-28" transform="translate(964.990234 0.7125)"/>
      <use xlink:href="#DejaVuSerif-4d" transform="translate(1004.003906 0.7125)"/>
      <use xlink:href="#DejaVuSerif-65" transform="translate(1106.396484 0.7125)"/>
      <use xlink:href="#DejaVuSerif-56" transform="translate(1165.576172 0.7125)"/>
      <use xlink:href="#DejaVuSerif-2212" transform="translate(1238.701328 37.046875) scale(0.7)"/>
      <use xlink:href="#DejaVuSerif-31" transform="translate(1297.353672 37.046875) scale(0.7)"/>
      <use xlink:href="#DejaVuSerif-63" transform="translate(1370.825389 0.7125)"/>
      <use xlink:href="#DejaVuSerif-6d" transform="translate(1426.831248 0.7125)"/>
      <use xlink:href="#DejaVuSerif-2212" transform="translate(1522.563826 37.046875) scale(0.7)"/>
      <use xlink:href="#DejaVuSerif-32" transform="translate(1581.21617 37.046875) scale(0.7)"/>
      <use xlink:href="#DejaVuSerif-73" transform="translate(1654.687887 0.7125)"/>
      <use xlink:href="#DejaVuSerif-2212" transform="translate(1706.914605 37.046875) scale(0.7)"/>
      <use xlink:href="#DejaVuSerif-31" transform="translate(1765.566949 37.046875) scale(0.7)"/>
      <use xlink:href="#DejaVuSerif-29" transform="translate(1812.698395 0.7125)"/>
     </g>
    </g>
   </g>
   <g id="line2d_29">
    <path d="M 117.077472 182.854868 
L 157.485916 153.663172 
L 177.281856 140.719223 
L 195.249055 130.319249 
L 209.694825 120.866368 
L 230.054995 109.324285 
L 242.880385 101.333611 
L 267.50624 87.411324 
L 277.476221 82.183424 
L 286.283197 77.969289 
L 296.114219 73.881258 
L 304.562087 71.076275 
L 310.871884 69.641335 
L 315.910159 68.932544 
L 320.104415 68.866021 
L 324.358027 69.162687 
L 328.826682 70.133362 
L 332.852433 71.610469 
L 336.522663 73.612223 
L 340.075318 76.147518 
L 342.245395 77.99489 
L 344.970532 80.822856 
L 347.68747 84.158715 
L 350.138896 87.533398 
L 353.825003 93.678665 
L 356.227138 98.368115 
L 358.503213 103.160328 
L 361.645706 110.783915 
L 366.284748 123.43715 
L 369.668019 133.705065 
L 372.696648 142.363893 
L 375.05501 148.569586 
L 376.505724 151.587396 
L 377.309866 153.635316 
L 378.676711 155.688583 
L 381.205579 158.855593 
L 384.143948 161.449768 
L 386.583456 163.845374 
L 388.352112 165.388085 
L 389.716294 166.190704 
L 392.565968 168.194713 
L 395.891611 170.310688 
L 398.659322 172.690497 
L 400.056809 173.338771 
L 402.201407 175.335088 
L 403.067258 175.812025 
L 404.041066 176.670411 
L 405.135757 176.804133 
L 405.601677 178.215312 
L 405.907555 178.128481 
L 406.334601 178.782383 
L 406.815667 179.031413 
L 407.119264 178.264331 
L 408.159635 179.931231 
L 408.607272 180.949502 
L 408.92717 179.372161 
L 409.372483 180.016481 
L 409.86095 181.482337 
L 410.764375 181.285763 
L 412.08611 181.373085 
L 413.081305 181.805767 
L 413.738967 182.886009 
L 415.636013 184.309594 
L 416.104524 184.231195 
L 417.056765 184.779962 
L 418.401408 185.814007 
L 419.641057 186.532405 
L 422.050681 188.662056 
L 423.221695 188.810374 
L 424.27965 190.007167 
L 424.941195 189.708508 
L 426.438856 190.800354 
L 429.882155 194.290075 
L 430.697551 194.130143 
L 431.47769 195.478415 
L 434.000131 196.545176 
L 436.416073 198.461239 
L 438.91786 199.760976 
L 441.343032 201.30199 
L 444.37517 203.421067 
L 447.503314 205.357184 
L 450.066202 207.110989 
L 454.41784 209.665933 
L 458.090007 212.615199 
L 460.600676 213.462795 
L 462.783876 215.137856 
L 465.326599 216.59404 
L 469.483098 219.155998 
L 473.821239 222.06839 
L 478.269582 224.675047 
L 485.707435 229.968428 
L 488.218464 231.23623 
L 490.729299 232.871407 
L 493.239849 234.712349 
L 495.750485 235.746728 
L 497.933709 237.688652 
L 502.739109 240.495346 
L 504.311682 241.951435 
L 506.09368 242.562986 
L 525.09124 254.38109 
L 530.68132 257.495117 
L 535.994989 260.948456 
L 545.177191 267.124535 
L 552.335536 271.406169 
L 557.357194 274.714707 
L 565.263001 279.437008 
L 571.072337 284.126082 
L 574.932285 285.822126 
L 578.604462 288.309502 
L 586.803279 292.854475 
L 589.251029 294.664555 
L 593.918651 296.796111 
L 598.690409 298.749293 
L 605.434414 306.951609 
L 610.592366 309.087876 
L 615.988533 311.589819 
L 621.286479 314.371362 
L 626.558081 317.786829 
L 632.678838 321.518609 
L 648.904541 330.585282 
L 655.649317 334.497071 
L 661.458117 337.186421 
L 663.532745 338.963981 
L 667.455694 340.918839 
L 671.501183 343.647976 
L 676.772609 345.269207 
L 682.893137 349.811636 
L 687.914438 350.669743 
L 694.347409 353.924258 
L 699.118508 355.947034 
L 705.863142 357.265539 
L 714.433695 363.819954 
L 719.204974 364.180184 
L 721.715284 365.102419 
L 726.98659 368.940472 
L 731.758082 377.410891 
L 734.268847 370.636094 
L 736.779568 369.354404 
L 739.290293 370.426908 
L 744.561811 370.964256 
L 749.333233 376.750491 
L 751.844102 384.193145 
L 754.354423 383.597784 
L 756.865424 378.564577 
L 759.376904 381.083489 
L 763.236617 380.572108 
L 768.25788 382.385534 
L 771.929882 379.664055 
L 774.440558 372.705137 
L 778.300383 390.964873 
L 783.321736 403.355267 
L 788.343357 404.562941 
L 793.364729 406.444772 
L 797.036815 412.597288 
L 799.547568 406.948353 
L 803.407602 425.569214 
L 808.42904 439.389418 
L 812.76763 453.961404 
L 816.872747 471.121348 
L 819.93296 479.372273 
L 822.810294 477.997107 
L 826.24101 492.301262 
L 828.217411 560.571 
L 828.217411 560.571 
" clip-path="url(#p6615294756)" style="fill: none; stroke: #419c03; stroke-width: 5; stroke-linecap: square"/>
   </g>
   <g id="patch_3">
    <path d="M 117.077497 560.571 
L 117.077497 62.234 
" style="fill: none; stroke: #000000; stroke-width: 0.8; stroke-linejoin: miter; stroke-linecap: square"/>
   </g>
   <g id="patch_4">
    <path d="M 844 560.571 
L 844 62.234 
" style="fill: none; stroke: #000000; stroke-width: 0.8; stroke-linejoin: miter; stroke-linecap: square"/>
   </g>
   <g id="patch_5">
    <path d="M 117.077497 560.571 
L 844 560.571 
" style="fill: none; stroke: #000000; stroke-width: 0.8; stroke-linejoin: miter; stroke-linecap: square"/>
   </g>
   <g id="patch_6">
    <path d="M 117.077497 62.234 
L 844 62.234 
" style="fill: none; stroke: #000000; stroke-width: 0.8; stroke-linejoin: miter; stroke-linecap: square"/>
   </g>
   <g id="text_17">
    <!-- Neutron spectrum -->
    <g transform="translate(340.55828 43.775575) scale(0.3 -0.3)">
     <use xlink:href="#DejaVuSerif-4e"/>
     <use xlink:href="#DejaVuSerif-65" transform="translate(87.5 0)"/>
     <use xlink:href="#DejaVuSerif-75" transform="translate(146.679688 0)"/>
     <use xlink:href="#DejaVuSerif-74" transform="translate(211.083984 0)"/>
     <use xlink:href="#DejaVuSerif-72" transform="translate(251.269531 0)"/>
     <use xlink:href="#DejaVuSerif-6f" transform="translate(299.072266 0)"/>
     <use xlink:href="#DejaVuSerif-6e" transform="translate(359.277344 0)"/>
     <use xlink:href="#DejaVuSerif-20" transform="translate(423.681641 0)"/>
     <use xlink:href="#DejaVuSerif-73" transform="translate(455.46875 0)"/>
     <use xlink:href="#DejaVuSerif-70" transform="translate(506.787109 0)"/>
     <use xlink:href="#DejaVuSerif-65" transform="translate(570.800781 0)"/>
     <use xlink:href="#DejaVuSerif-63" transform="translate(629.980469 0)"/>
     <use xlink:href="#DejaVuSerif-74" transform="translate(685.986328 0)"/>
     <use xlink:href="#DejaVuSerif-72" transform="translate(726.171875 0)"/>
     <use xlink:href="#DejaVuSerif-75" transform="translate(773.974609 0)"/>
     <use xlink:href="#DejaVuSerif-6d" transform="translate(838.378906 0)"/>
    </g>
   </g>
   <g id="legend_1">
    <g id="patch_7">
     <path d="M 712.2 107.634 
L 830 107.634 
Q 834 107.634 834 103.634 
L 834 76.234 
Q 834 72.234 830 72.234 
L 712.2 72.234 
Q 708.2 72.234 708.2 76.234 
L 708.2 103.634 
Q 708.2 107.634 712.2 107.634 
z
" style="fill: #ffffff; opacity: 0.95; stroke: #cccccc; stroke-linejoin: miter"/>
    </g>
    <g id="line2d_30">
     <path d="M 716.2 88.434 
L 736.2 88.434 
L 756.2 88.434 
" style="fill: none; stroke: #419c03; stroke-width: 5; stroke-linecap: square"/>
    </g>
    <g id="text_18">
     <!-- $\varphi_{n}(E)$ -->
     <g transform="translate(772.2 95.434) scale(0.2 -0.2)">
      <defs>
       <path id="DejaVuSerif-Italic-3c6" d="M 2075 -1331 
L 1500 -1331 
L 1756 -9 
Q 1138 3 969 91 
Q 772 194 588 409 
Q 425 609 347 947 
Q 306 1134 397 1594 
Q 534 2309 822 2716 
Q 1075 3075 1653 3322 
L 2003 3322 
L 1969 3138 
Q 1634 2991 1363 2672 
Q 1213 2497 1047 1644 
Q 934 1063 1038 716 
Q 1138 388 1822 328 
L 2078 1644 
Q 2216 2347 2428 2716 
Q 2781 3325 3503 3338 
Q 4125 3347 4328 2716 
Q 4456 2319 4316 1594 
Q 4225 1134 4113 947 
Q 3903 609 3663 409 
Q 3375 175 3156 91 
Q 2956 9 2331 -9 
L 2075 -1331 
z
M 2397 331 
Q 3116 403 3331 716 
Q 3569 1053 3684 1644 
Q 3819 2334 3769 2672 
Q 3716 3025 3444 3025 
Q 3206 3025 2969 2672 
Q 2809 2438 2653 1644 
Q 2481 763 2397 331 
z
" transform="scale(0.015625)"/>
       <path id="DejaVuSerif-Italic-6e" d="M 450 0 
L 1031 2988 
L 481 2988 
L 544 3322 
L 1669 3322 
L 1556 2731 
Q 1781 3069 2068 3241 
Q 2356 3413 2694 3413 
Q 3244 3413 3444 3097 
Q 3563 2906 3563 2588 
Q 3563 2378 3509 2113 
L 3163 331 
L 3675 331 
L 3613 0 
L 2522 0 
L 2897 1931 
Q 2959 2253 2959 2469 
Q 2959 2659 2909 2769 
Q 2803 2994 2425 2994 
Q 2025 2994 1759 2701 
Q 1494 2409 1384 1850 
L 1025 0 
L 450 0 
z
" transform="scale(0.015625)"/>
       <path id="DejaVuSerif-Italic-45" d="M -97 0 
L -34 331 
L 559 331 
L 1338 4331 
L 744 4331 
L 809 4666 
L 4566 4666 
L 4366 3628 
L 3981 3628 
L 4106 4281 
L 1963 4281 
L 1659 2719 
L 3188 2719 
L 3300 3303 
L 3684 3303 
L 3384 1753 
L 3000 1753 
L 3113 2338 
L 1584 2338 
L 1206 384 
L 3400 384 
L 3525 1038 
L 3909 1038 
L 3709 0 
L -97 0 
z
" transform="scale(0.015625)"/>
      </defs>
      <use xlink:href="#DejaVuSerif-Italic-3c6" transform="translate(0 0.015625)"/>
      <use xlink:href="#DejaVuSerif-Italic-6e" transform="translate(70.019531 -15.55625) scale(0.7)"/>
      <use xlink:href="#DejaVuSerif-28" transform="translate(117.697852 0.015625)"/>
      <use xlink:href="#DejaVuSerif-Italic-45" transform="translate(156.711523 0.015625)"/>
      <use xlink:href="#DejaVuSerif-29" transform="translate(229.70957 0.015625)"/>
     </g>
    </g>
   </g>
  </g>
 </g>
 <defs>
  <clipPath id="p6615294756">
   <rect x="117.077497" y="62.234" width="726.922503" height="498.337"/>
  </clipPath>
 </defs>
</svg>
