<?xml version="1.0" encoding="utf-8" standalone="no"?>
<!DOCTYPE svg PUBLIC "-//W3C//DTD SVG 1.1//EN"
  "http://www.w3.org/Graphics/SVG/1.1/DTD/svg11.dtd">
<svg xmlns:xlink="http://www.w3.org/1999/xlink" width="864pt" height="648pt" viewBox="0 0 864 648" xmlns="http://www.w3.org/2000/svg" version="1.1">
 <metadata>
  <rdf:RDF xmlns:dc="http://purl.org/dc/elements/1.1/" xmlns:cc="http://creativecommons.org/ns#" xmlns:rdf="http://www.w3.org/1999/02/22-rdf-syntax-ns#">
   <cc:Work>
    <dc:type rdf:resource="http://purl.org/dc/dcmitype/StillImage"/>
    <dc:date>2025-10-21T14:54:16.240611</dc:date>
    <dc:format>image/svg+xml</dc:format>
    <dc:creator>
     <cc:Agent>
      <dc:title>Matplotlib v3.10.7, https://matplotlib.org/</dc:title>
     </cc:Agent>
    </dc:creator>
   </cc:Work>
  </rdf:RDF>
 </metadata>
 <defs>
  <style type="text/css">*{stroke-linejoin: round; stroke-linecap: butt}</style>
 </defs>
 <g id="figure_1">
  <g id="patch_1">
   <path d="M 0 648 
L 864 648 
L 864 0 
L 0 0 
z
" style="fill: #ffffff; stroke: #000000; stroke-width: 3; stroke-linejoin: miter"/>
  </g>
  <g id="axes_1">
   <g id="patch_2">
    <path d="M 71.99 566.88 
L 844 566.88 
L 844 57.914 
L 71.99 57.914 
L 71.99 566.88 
z
" style="fill: none"/>
   </g>
   <g id="matplotlib.axis_1">
    <g id="xtick_1">
     <g id="line2d_1">
      <path d="M 71.99 566.88 
L 71.99 57.914 
" clip-path="url(#p7a5eb60efd)" style="fill: none; stroke-dasharray: 3.7,1.6; stroke-dashoffset: 0; stroke: #343837; stroke-opacity: 0.8"/>
     </g>
     <g id="line2d_2">
      <defs>
       <path id="mef4ed1a8a7" d="M 0 0 
L 0 3.5 
" style="stroke: #000000; stroke-width: 0.8"/>
      </defs>
      <g>
       <use xlink:href="#mef4ed1a8a7" x="71.99" y="566.88" style="stroke: #000000; stroke-width: 0.8"/>
      </g>
     </g>
     <g id="text_1">
      <!-- $\mathdefault{10^{-11}}$ -->
      <g transform="translate(47.46 588.338125) scale(0.22 -0.22)">
       <defs>
        <path id="Aptos-31" d="M 1681 0 
L 1681 3425 
Q 1597 3309 1442 3201 
Q 1288 3094 1075 3009 
Q 863 2925 600 2888 
L 600 3381 
Q 859 3425 1082 3540 
Q 1306 3656 1476 3806 
Q 1647 3956 1744 4094 
L 2228 4094 
L 2228 0 
L 1681 0 
z
" transform="scale(0.015625)"/>
        <path id="Aptos-30" d="M 1709 -56 
Q 1316 -56 1045 105 
Q 775 266 611 552 
Q 447 838 373 1216 
Q 300 1594 300 2031 
Q 300 2475 373 2856 
Q 447 3238 611 3525 
Q 775 3813 1045 3973 
Q 1316 4134 1709 4134 
Q 2103 4134 2373 3975 
Q 2644 3816 2806 3527 
Q 2969 3238 3042 2858 
Q 3116 2478 3116 2038 
Q 3116 1597 3042 1217 
Q 2969 838 2806 552 
Q 2644 266 2373 105 
Q 2103 -56 1709 -56 
z
M 1709 400 
Q 1969 400 2134 540 
Q 2300 681 2392 917 
Q 2484 1153 2520 1445 
Q 2556 1738 2556 2038 
Q 2556 2341 2520 2633 
Q 2484 2925 2392 3161 
Q 2300 3397 2134 3537 
Q 1969 3678 1709 3678 
Q 1450 3678 1283 3537 
Q 1116 3397 1022 3161 
Q 928 2925 892 2633 
Q 856 2341 856 2038 
Q 856 1738 892 1445 
Q 928 1153 1022 917 
Q 1116 681 1283 540 
Q 1450 400 1709 400 
z
" transform="scale(0.015625)"/>
        <path id="Aptos-2212" d="M 353 1866 
L 353 2319 
L 3059 2319 
L 3059 1866 
L 353 1866 
z
" transform="scale(0.015625)"/>
       </defs>
       <use xlink:href="#Aptos-31" transform="translate(0 0.928125)"/>
       <use xlink:href="#Aptos-30" transform="translate(53.417969 0.928125)"/>
       <use xlink:href="#Aptos-2212" transform="translate(107.668281 34.221875) scale(0.7)"/>
       <use xlink:href="#Aptos-31" transform="translate(145.060859 34.221875) scale(0.7)"/>
       <use xlink:href="#Aptos-31" transform="translate(182.453438 34.221875) scale(0.7)"/>
      </g>
     </g>
    </g>
    <g id="xtick_2">
     <g id="line2d_3">
      <path d="M 195.077661 566.88 
L 195.077661 57.914 
" clip-path="url(#p7a5eb60efd)" style="fill: none; stroke-dasharray: 3.7,1.6; stroke-dashoffset: 0; stroke: #343837; stroke-opacity: 0.8"/>
     </g>
     <g id="line2d_4">
      <g>
       <use xlink:href="#mef4ed1a8a7" x="195.077661" y="566.88" style="stroke: #000000; stroke-width: 0.8"/>
      </g>
     </g>
     <g id="text_2">
      <!-- $\mathdefault{10^{-9}}$ -->
      <g transform="translate(174.727661 588.338125) scale(0.22 -0.22)">
       <defs>
        <path id="Aptos-39" d="M 1594 -56 
Q 1244 -56 970 64 
Q 697 184 523 415 
Q 350 647 303 978 
L 831 978 
Q 881 713 1075 552 
Q 1269 391 1594 391 
Q 2066 391 2337 778 
Q 2609 1166 2609 2019 
L 2609 2197 
Q 2609 2753 2481 3079 
Q 2353 3406 2142 3547 
Q 1931 3688 1681 3688 
Q 1250 3688 1042 3433 
Q 834 3178 834 2800 
Q 834 2422 1034 2203 
Q 1234 1984 1594 1984 
Q 1878 1984 2087 2071 
Q 2297 2159 2453 2300 
Q 2609 2441 2725 2594 
L 2778 2209 
Q 2653 2038 2476 1884 
Q 2300 1731 2064 1634 
Q 1828 1538 1528 1538 
Q 1166 1538 886 1683 
Q 606 1828 448 2108 
Q 291 2388 291 2784 
Q 291 3175 458 3479 
Q 625 3784 936 3959 
Q 1247 4134 1675 4134 
Q 2100 4134 2433 3926 
Q 2766 3719 2958 3262 
Q 3150 2806 3150 2066 
Q 3150 1338 2956 869 
Q 2763 400 2413 172 
Q 2063 -56 1594 -56 
z
" transform="scale(0.015625)"/>
       </defs>
       <use xlink:href="#Aptos-31" transform="translate(0 0.490625)"/>
       <use xlink:href="#Aptos-30" transform="translate(53.417969 0.490625)"/>
       <use xlink:href="#Aptos-2212" transform="translate(107.668281 33.784375) scale(0.7)"/>
       <use xlink:href="#Aptos-39" transform="translate(145.060859 33.784375) scale(0.7)"/>
      </g>
     </g>
    </g>
    <g id="xtick_3">
     <g id="line2d_5">
      <path d="M 318.165323 566.88 
L 318.165323 57.914 
" clip-path="url(#p7a5eb60efd)" style="fill: none; stroke-dasharray: 3.7,1.6; stroke-dashoffset: 0; stroke: #343837; stroke-opacity: 0.8"/>
     </g>
     <g id="line2d_6">
      <g>
       <use xlink:href="#mef4ed1a8a7" x="318.165323" y="566.88" style="stroke: #000000; stroke-width: 0.8"/>
      </g>
     </g>
     <g id="text_3">
      <!-- $\mathdefault{10^{-7}}$ -->
      <g transform="translate(297.815323 588.338125) scale(0.22 -0.22)">
       <defs>
        <path id="Aptos-37" d="M 806 0 
L 2584 3600 
L 297 3600 
L 297 4078 
L 3116 4078 
L 3116 3622 
L 1375 0 
L 806 0 
z
" transform="scale(0.015625)"/>
       </defs>
       <use xlink:href="#Aptos-31" transform="translate(0 0.103125)"/>
       <use xlink:href="#Aptos-30" transform="translate(53.417969 0.103125)"/>
       <use xlink:href="#Aptos-2212" transform="translate(107.668281 33.396875) scale(0.7)"/>
       <use xlink:href="#Aptos-37" transform="translate(145.060859 33.396875) scale(0.7)"/>
      </g>
     </g>
    </g>
    <g id="xtick_4">
     <g id="line2d_7">
      <path d="M 441.252984 566.88 
L 441.252984 57.914 
" clip-path="url(#p7a5eb60efd)" style="fill: none; stroke-dasharray: 3.7,1.6; stroke-dashoffset: 0; stroke: #343837; stroke-opacity: 0.8"/>
     </g>
     <g id="line2d_8">
      <g>
       <use xlink:href="#mef4ed1a8a7" x="441.252984" y="566.88" style="stroke: #000000; stroke-width: 0.8"/>
      </g>
     </g>
     <g id="text_4">
      <!-- $\mathdefault{10^{-5}}$ -->
      <g transform="translate(420.902984 588.338125) scale(0.22 -0.22)">
       <defs>
        <path id="Aptos-35" d="M 1709 -56 
Q 1313 -56 992 83 
Q 672 222 484 483 
Q 297 744 297 1113 
L 831 1113 
Q 831 778 1076 584 
Q 1322 391 1709 391 
Q 2119 391 2347 625 
Q 2575 859 2575 1319 
Q 2575 1772 2345 1989 
Q 2116 2206 1725 2206 
Q 1434 2206 1245 2123 
Q 1056 2041 931 1894 
L 459 1894 
L 638 4078 
L 2838 4078 
L 2838 3613 
L 1056 3613 
L 947 2322 
Q 1063 2453 1267 2550 
Q 1472 2647 1797 2647 
Q 2159 2647 2459 2506 
Q 2759 2366 2939 2072 
Q 3119 1778 3119 1319 
Q 3119 872 2937 565 
Q 2756 259 2439 101 
Q 2122 -56 1709 -56 
z
" transform="scale(0.015625)"/>
       </defs>
       <use xlink:href="#Aptos-31" transform="translate(0 0.103125)"/>
       <use xlink:href="#Aptos-30" transform="translate(53.417969 0.103125)"/>
       <use xlink:href="#Aptos-2212" transform="translate(107.668281 33.396875) scale(0.7)"/>
       <use xlink:href="#Aptos-35" transform="translate(145.060859 33.396875) scale(0.7)"/>
      </g>
     </g>
    </g>
    <g id="xtick_5">
     <g id="line2d_9">
      <path d="M 564.340646 566.88 
L 564.340646 57.914 
" clip-path="url(#p7a5eb60efd)" style="fill: none; stroke-dasharray: 3.7,1.6; stroke-dashoffset: 0; stroke: #343837; stroke-opacity: 0.8"/>
     </g>
     <g id="line2d_10">
      <g>
       <use xlink:href="#mef4ed1a8a7" x="564.340646" y="566.88" style="stroke: #000000; stroke-width: 0.8"/>
      </g>
     </g>
     <g id="text_5">
      <!-- $\mathdefault{10^{-3}}$ -->
      <g transform="translate(543.990646 588.338125) scale(0.22 -0.22)">
       <defs>
        <path id="Aptos-33" d="M 1738 -56 
Q 1088 -56 697 275 
Q 306 606 306 1225 
L 828 1225 
Q 828 844 1067 617 
Q 1306 391 1731 391 
Q 2125 391 2351 581 
Q 2578 772 2578 1172 
Q 2578 1556 2328 1737 
Q 2078 1919 1644 1919 
L 1403 1919 
L 1403 2363 
L 1656 2363 
Q 2047 2363 2253 2556 
Q 2459 2750 2459 3072 
Q 2459 3378 2256 3529 
Q 2053 3681 1722 3681 
Q 1347 3681 1140 3481 
Q 934 3281 934 2956 
L 413 2956 
Q 413 3319 578 3583 
Q 744 3847 1036 3990 
Q 1328 4134 1716 4134 
Q 2066 4134 2353 4017 
Q 2641 3900 2811 3670 
Q 2981 3441 2981 3097 
Q 2981 2731 2778 2495 
Q 2575 2259 2244 2166 
Q 2622 2097 2870 1840 
Q 3119 1584 3119 1150 
Q 3119 763 2945 494 
Q 2772 225 2461 84 
Q 2150 -56 1738 -56 
z
" transform="scale(0.015625)"/>
       </defs>
       <use xlink:href="#Aptos-31" transform="translate(0 0.490625)"/>
       <use xlink:href="#Aptos-30" transform="translate(53.417969 0.490625)"/>
       <use xlink:href="#Aptos-2212" transform="translate(107.668281 33.784375) scale(0.7)"/>
       <use xlink:href="#Aptos-33" transform="translate(145.060859 33.784375) scale(0.7)"/>
      </g>
     </g>
    </g>
    <g id="xtick_6">
     <g id="line2d_11">
      <path d="M 687.428307 566.88 
L 687.428307 57.914 
" clip-path="url(#p7a5eb60efd)" style="fill: none; stroke-dasharray: 3.7,1.6; stroke-dashoffset: 0; stroke: #343837; stroke-opacity: 0.8"/>
     </g>
     <g id="line2d_12">
      <g>
       <use xlink:href="#mef4ed1a8a7" x="687.428307" y="566.88" style="stroke: #000000; stroke-width: 0.8"/>
      </g>
     </g>
     <g id="text_6">
      <!-- $\mathdefault{10^{-1}}$ -->
      <g transform="translate(667.078307 588.338125) scale(0.22 -0.22)">
       <use xlink:href="#Aptos-31" transform="translate(0 0.928125)"/>
       <use xlink:href="#Aptos-30" transform="translate(53.417969 0.928125)"/>
       <use xlink:href="#Aptos-2212" transform="translate(107.668281 34.221875) scale(0.7)"/>
       <use xlink:href="#Aptos-31" transform="translate(145.060859 34.221875) scale(0.7)"/>
      </g>
     </g>
    </g>
    <g id="xtick_7">
     <g id="line2d_13">
      <path d="M 810.515968 566.88 
L 810.515968 57.914 
" clip-path="url(#p7a5eb60efd)" style="fill: none; stroke-dasharray: 3.7,1.6; stroke-dashoffset: 0; stroke: #343837; stroke-opacity: 0.8"/>
     </g>
     <g id="line2d_14">
      <g>
       <use xlink:href="#mef4ed1a8a7" x="810.515968" y="566.88" style="stroke: #000000; stroke-width: 0.8"/>
      </g>
     </g>
     <g id="text_7">
      <!-- $\mathdefault{10^{1}}$ -->
      <g transform="translate(794.235968 588.338125) scale(0.22 -0.22)">
       <use xlink:href="#Aptos-31" transform="translate(0 0.928125)"/>
       <use xlink:href="#Aptos-30" transform="translate(53.417969 0.928125)"/>
       <use xlink:href="#Aptos-31" transform="translate(107.668281 34.221875) scale(0.7)"/>
      </g>
     </g>
    </g>
    <g id="text_8">
     <!-- Energy of incident neutron (MeV) -->
     <g transform="translate(276.356562 621.373125) scale(0.26 -0.26)">
      <defs>
       <path id="Aptos-45" d="M 550 0 
L 550 4206 
L 3234 4206 
L 3234 3738 
L 1113 3738 
L 1113 2397 
L 3066 2397 
L 3066 1934 
L 1113 1934 
L 1113 469 
L 3234 469 
L 3234 0 
L 550 0 
z
" transform="scale(0.015625)"/>
       <path id="Aptos-6e" d="M 503 0 
L 503 3044 
L 1003 3044 
L 1022 2575 
Q 1163 2759 1425 2923 
Q 1688 3088 2097 3088 
Q 2597 3088 2825 2792 
Q 3053 2497 3053 1963 
L 3053 0 
L 2531 0 
L 2531 1888 
Q 2531 2109 2484 2281 
Q 2438 2453 2317 2551 
Q 2197 2650 1969 2650 
Q 1628 2650 1397 2495 
Q 1166 2341 1025 2156 
L 1025 0 
L 503 0 
z
" transform="scale(0.015625)"/>
       <path id="Aptos-65" d="M 1769 -56 
Q 1272 -56 955 151 
Q 638 359 484 717 
Q 331 1075 331 1522 
Q 331 1988 479 2342 
Q 628 2697 933 2897 
Q 1238 3097 1706 3097 
Q 2328 3097 2681 2722 
Q 3034 2347 3034 1644 
Q 3034 1597 3031 1533 
Q 3028 1469 3022 1441 
L 853 1441 
Q 856 1144 948 895 
Q 1041 647 1241 497 
Q 1441 347 1769 347 
Q 2119 347 2316 511 
Q 2513 675 2522 984 
L 3038 984 
Q 3028 663 2872 430 
Q 2716 197 2434 70 
Q 2153 -56 1769 -56 
z
M 856 1822 
L 2519 1822 
Q 2509 2247 2296 2472 
Q 2084 2697 1706 2697 
Q 1325 2697 1108 2473 
Q 891 2250 856 1822 
z
" transform="scale(0.015625)"/>
       <path id="Aptos-72" d="M 503 0 
L 503 3044 
L 994 3044 
L 1013 2525 
Q 1141 2763 1369 2922 
Q 1597 3081 1963 3081 
L 2025 3081 
L 2025 2603 
L 1953 2603 
Q 1725 2603 1553 2543 
Q 1381 2484 1253 2379 
Q 1125 2275 1025 2138 
L 1025 0 
L 503 0 
z
" transform="scale(0.015625)"/>
       <path id="Aptos-67" d="M 1563 -1178 
Q 1069 -1178 773 -1065 
Q 478 -953 347 -765 
Q 216 -578 216 -359 
Q 216 -94 442 112 
Q 669 319 1141 403 
L 1241 575 
L 1625 575 
Q 2375 575 2697 376 
Q 3019 178 3019 -238 
Q 3019 -650 2651 -914 
Q 2284 -1178 1563 -1178 
z
M 1550 -800 
Q 2081 -800 2298 -650 
Q 2516 -500 2516 -278 
Q 2516 -147 2442 -51 
Q 2369 44 2170 97 
Q 1972 150 1606 150 
L 1144 150 
Q 931 97 815 -31 
Q 700 -159 700 -328 
Q 700 -516 897 -658 
Q 1094 -800 1550 -800 
z
M 1134 178 
Q 838 209 667 301 
Q 497 394 425 508 
Q 353 622 353 728 
Q 353 881 476 1017 
Q 600 1153 881 1241 
L 1141 1078 
Q 975 1031 878 957 
Q 781 884 781 794 
Q 781 731 839 682 
Q 897 634 1036 604 
Q 1175 575 1422 575 
L 1134 178 
z
M 1525 984 
Q 1150 984 889 1129 
Q 628 1275 493 1511 
Q 359 1747 359 2022 
Q 359 2313 495 2550 
Q 631 2788 895 2928 
Q 1159 3069 1541 3069 
Q 1931 3069 2190 2928 
Q 2450 2788 2578 2550 
Q 2706 2313 2706 2022 
Q 2706 1741 2576 1505 
Q 2447 1269 2184 1126 
Q 1922 984 1525 984 
z
M 1522 1341 
Q 1822 1341 2017 1512 
Q 2213 1684 2213 2022 
Q 2213 2375 2028 2545 
Q 1844 2716 1541 2716 
Q 1244 2716 1048 2541 
Q 853 2366 853 2025 
Q 853 1681 1054 1511 
Q 1256 1341 1522 1341 
z
M 2319 2734 
L 2106 2931 
Q 2241 3225 2458 3331 
Q 2675 3438 3019 3447 
L 3019 3006 
Q 2800 3006 2617 2961 
Q 2434 2916 2319 2734 
z
" transform="scale(0.015625)"/>
       <path id="Aptos-79" d="M 328 -1119 
L 328 -688 
L 584 -688 
Q 763 -688 886 -592 
Q 1009 -497 1097 -275 
L 1216 0 
L 0 3044 
L 553 3044 
L 1494 553 
L 2363 3044 
L 2894 3044 
L 1750 0 
L 1606 -369 
Q 1500 -641 1379 -806 
Q 1259 -972 1084 -1045 
Q 909 -1119 638 -1119 
L 328 -1119 
z
" transform="scale(0.015625)"/>
       <path id="Aptos-20" transform="scale(0.015625)"/>
       <path id="Aptos-6f" d="M 1750 -50 
Q 1303 -50 984 139 
Q 666 328 498 679 
Q 331 1031 331 1516 
Q 331 2013 498 2367 
Q 666 2722 984 2912 
Q 1303 3103 1750 3103 
Q 2206 3103 2529 2912 
Q 2853 2722 3026 2367 
Q 3200 2013 3200 1516 
Q 3200 1031 3026 679 
Q 2853 328 2529 139 
Q 2206 -50 1750 -50 
z
M 1750 366 
Q 2088 366 2288 514 
Q 2488 663 2575 923 
Q 2663 1184 2663 1516 
Q 2663 1853 2575 2118 
Q 2488 2384 2288 2536 
Q 2088 2688 1750 2688 
Q 1422 2688 1230 2536 
Q 1038 2384 953 2118 
Q 869 1853 869 1516 
Q 869 1184 953 923 
Q 1038 663 1230 514 
Q 1422 366 1750 366 
z
" transform="scale(0.015625)"/>
       <path id="Aptos-66" d="M 609 0 
L 609 2622 
L 100 2622 
L 100 3044 
L 609 3044 
L 609 3219 
Q 609 3450 648 3634 
Q 688 3819 786 3945 
Q 884 4072 1061 4139 
Q 1238 4206 1519 4206 
L 1834 4206 
L 1834 3797 
L 1553 3797 
Q 1275 3797 1201 3647 
Q 1128 3497 1128 3213 
L 1128 3044 
L 1838 3044 
L 1838 2622 
L 1128 2622 
L 1128 0 
L 609 0 
z
" transform="scale(0.015625)"/>
       <path id="Aptos-69" d="M 503 0 
L 503 3044 
L 1025 3044 
L 1025 0 
L 503 0 
z
M 763 3616 
Q 616 3616 527 3702 
Q 438 3788 438 3919 
Q 438 4050 527 4136 
Q 616 4222 763 4222 
Q 909 4222 1000 4136 
Q 1091 4050 1091 3919 
Q 1091 3788 1000 3702 
Q 909 3616 763 3616 
z
" transform="scale(0.015625)"/>
       <path id="Aptos-63" d="M 1741 -53 
Q 1328 -53 1009 120 
Q 691 294 511 642 
Q 331 991 331 1516 
Q 331 2041 507 2392 
Q 684 2744 1001 2920 
Q 1319 3097 1741 3097 
Q 2094 3097 2376 2981 
Q 2659 2866 2828 2633 
Q 2997 2400 3006 2044 
L 2491 2044 
Q 2472 2338 2278 2506 
Q 2084 2675 1750 2675 
Q 1306 2675 1087 2370 
Q 869 2066 869 1516 
Q 869 1150 966 895 
Q 1063 641 1259 505 
Q 1456 369 1750 369 
Q 2084 369 2293 542 
Q 2503 716 2513 1050 
L 3028 1050 
Q 3019 681 2848 436 
Q 2678 191 2389 69 
Q 2100 -53 1741 -53 
z
" transform="scale(0.015625)"/>
       <path id="Aptos-64" d="M 1544 -56 
Q 1172 -56 900 122 
Q 628 300 479 654 
Q 331 1009 331 1531 
Q 331 2050 489 2397 
Q 647 2744 934 2920 
Q 1222 3097 1613 3097 
Q 1938 3097 2178 2955 
Q 2419 2813 2566 2569 
L 2566 4206 
L 3088 4206 
L 3088 0 
L 2594 0 
L 2566 444 
Q 2403 222 2147 83 
Q 1891 -56 1544 -56 
z
M 1650 372 
Q 1984 372 2206 530 
Q 2428 688 2566 909 
L 2566 2081 
Q 2438 2338 2230 2505 
Q 2022 2672 1706 2672 
Q 1291 2672 1080 2375 
Q 869 2078 869 1531 
Q 869 966 1067 669 
Q 1266 372 1650 372 
z
" transform="scale(0.015625)"/>
       <path id="Aptos-74" d="M 1519 0 
Q 1150 0 953 117 
Q 756 234 682 454 
Q 609 675 609 984 
L 609 2622 
L 100 2622 
L 100 3044 
L 609 3044 
L 609 3741 
L 1128 3741 
L 1128 3044 
L 1878 3044 
L 1878 2622 
L 1128 2622 
L 1128 1009 
Q 1128 725 1201 573 
Q 1275 422 1553 422 
L 1884 422 
L 1884 0 
L 1519 0 
z
" transform="scale(0.015625)"/>
       <path id="Aptos-75" d="M 1469 -47 
Q 941 -47 706 247 
Q 472 541 472 1056 
L 472 3044 
L 997 3044 
L 997 1128 
Q 997 922 1044 759 
Q 1091 597 1222 506 
Q 1353 416 1600 416 
Q 1944 416 2175 558 
Q 2406 700 2547 888 
L 2547 3044 
L 3072 3044 
L 3072 0 
L 2569 0 
L 2553 469 
Q 2406 288 2139 120 
Q 1872 -47 1469 -47 
z
" transform="scale(0.015625)"/>
       <path id="Aptos-28" d="M 1216 -1116 
Q 963 -678 783 -267 
Q 603 144 508 581 
Q 413 1019 413 1528 
Q 413 2028 506 2486 
Q 600 2944 779 3378 
Q 959 3813 1216 4231 
L 1644 4231 
Q 1275 3600 1097 2886 
Q 919 2172 919 1428 
Q 919 766 1120 103 
Q 1322 -559 1644 -1116 
L 1216 -1116 
z
" transform="scale(0.015625)"/>
       <path id="Aptos-4d" d="M 550 0 
L 550 4206 
L 1166 4206 
L 2663 1728 
L 2434 1728 
L 3903 4206 
L 4503 4206 
L 4503 0 
L 3950 0 
L 3950 3738 
L 4144 3738 
L 2716 1322 
L 2347 1322 
L 897 3738 
L 1091 3738 
L 1091 0 
L 550 0 
z
" transform="scale(0.015625)"/>
       <path id="Aptos-56" d="M 1538 0 
L 25 4206 
L 622 4206 
L 1872 594 
L 3128 4206 
L 3722 4206 
L 2194 0 
L 1538 0 
z
" transform="scale(0.015625)"/>
       <path id="Aptos-29" d="M 231 -1116 
Q 603 -481 781 233 
Q 959 947 959 1694 
Q 959 2356 756 3015 
Q 553 3675 231 4231 
L 656 4231 
Q 913 3800 1094 3389 
Q 1275 2978 1370 2540 
Q 1466 2103 1466 1594 
Q 1466 1094 1370 634 
Q 1275 175 1095 -259 
Q 916 -694 656 -1116 
L 231 -1116 
z
" transform="scale(0.015625)"/>
      </defs>
      <use xlink:href="#Aptos-45"/>
      <use xlink:href="#Aptos-6e" transform="translate(55.615234 0)"/>
      <use xlink:href="#Aptos-65" transform="translate(110.742188 0)"/>
      <use xlink:href="#Aptos-72" transform="translate(163.427734 0)"/>
      <use xlink:href="#Aptos-67" transform="translate(196.875 0)"/>
      <use xlink:href="#Aptos-79" transform="translate(245.3125 0)"/>
      <use xlink:href="#Aptos-20" transform="translate(290.527344 0)"/>
      <use xlink:href="#Aptos-6f" transform="translate(310.839844 0)"/>
      <use xlink:href="#Aptos-66" transform="translate(366.015625 0)"/>
      <use xlink:href="#Aptos-20" transform="translate(396.142578 0)"/>
      <use xlink:href="#Aptos-69" transform="translate(416.455078 0)"/>
      <use xlink:href="#Aptos-6e" transform="translate(440.332031 0)"/>
      <use xlink:href="#Aptos-63" transform="translate(495.458984 0)"/>
      <use xlink:href="#Aptos-69" transform="translate(547.949219 0)"/>
      <use xlink:href="#Aptos-64" transform="translate(571.826172 0)"/>
      <use xlink:href="#Aptos-65" transform="translate(627.880859 0)"/>
      <use xlink:href="#Aptos-6e" transform="translate(680.566406 0)"/>
      <use xlink:href="#Aptos-74" transform="translate(735.693359 0)"/>
      <use xlink:href="#Aptos-20" transform="translate(768.017578 0)"/>
      <use xlink:href="#Aptos-6e" transform="translate(788.330078 0)"/>
      <use xlink:href="#Aptos-65" transform="translate(843.457031 0)"/>
      <use xlink:href="#Aptos-75" transform="translate(896.142578 0)"/>
      <use xlink:href="#Aptos-74" transform="translate(952.001953 0)"/>
      <use xlink:href="#Aptos-72" transform="translate(984.326172 0)"/>
      <use xlink:href="#Aptos-6f" transform="translate(1017.773438 0)"/>
      <use xlink:href="#Aptos-6e" transform="translate(1072.949219 0)"/>
      <use xlink:href="#Aptos-20" transform="translate(1128.076172 0)"/>
      <use xlink:href="#Aptos-28" transform="translate(1148.388672 0)"/>
      <use xlink:href="#Aptos-4d" transform="translate(1177.685547 0)"/>
      <use xlink:href="#Aptos-65" transform="translate(1256.689453 0)"/>
      <use xlink:href="#Aptos-56" transform="translate(1309.375 0)"/>
      <use xlink:href="#Aptos-29" transform="translate(1367.919922 0)"/>
     </g>
    </g>
   </g>
   <g id="matplotlib.axis_2">
    <g id="ytick_1">
     <g id="line2d_15">
      <path d="M 71.99 566.88 
L 844 566.88 
" clip-path="url(#p7a5eb60efd)" style="fill: none; stroke-dasharray: 3.7,1.6; stroke-dashoffset: 0; stroke: #343837; stroke-opacity: 0.8"/>
     </g>
     <g id="line2d_16">
      <defs>
       <path id="mee8b562e90" d="M 0 0 
L -3.5 0 
" style="stroke: #000000; stroke-width: 0.8"/>
      </defs>
      <g>
       <use xlink:href="#mee8b562e90" x="71.99" y="566.88" style="stroke: #000000; stroke-width: 0.8"/>
      </g>
     </g>
     <g id="text_9">
      <!-- 0 -->
      <g transform="translate(53.237188 574.109063) scale(0.22 -0.22)">
       <use xlink:href="#Aptos-30"/>
      </g>
     </g>
    </g>
    <g id="ytick_2">
     <g id="line2d_17">
      <path d="M 71.99 494.170571 
L 844 494.170571 
" clip-path="url(#p7a5eb60efd)" style="fill: none; stroke-dasharray: 3.7,1.6; stroke-dashoffset: 0; stroke: #343837; stroke-opacity: 0.8"/>
     </g>
     <g id="line2d_18">
      <g>
       <use xlink:href="#mee8b562e90" x="71.99" y="494.170571" style="stroke: #000000; stroke-width: 0.8"/>
      </g>
     </g>
     <g id="text_10">
      <!-- 1 -->
      <g transform="translate(53.237188 501.399634) scale(0.22 -0.22)">
       <use xlink:href="#Aptos-31"/>
      </g>
     </g>
    </g>
    <g id="ytick_3">
     <g id="line2d_19">
      <path d="M 71.99 421.461143 
L 844 421.461143 
" clip-path="url(#p7a5eb60efd)" style="fill: none; stroke-dasharray: 3.7,1.6; stroke-dashoffset: 0; stroke: #343837; stroke-opacity: 0.8"/>
     </g>
     <g id="line2d_20">
      <g>
       <use xlink:href="#mee8b562e90" x="71.99" y="421.461143" style="stroke: #000000; stroke-width: 0.8"/>
      </g>
     </g>
     <g id="text_11">
      <!-- 2 -->
      <g transform="translate(53.237188 428.690205) scale(0.22 -0.22)">
       <defs>
        <path id="Aptos-32" d="M 291 0 
L 291 413 
L 1738 1734 
Q 2113 2075 2281 2353 
Q 2450 2631 2450 2938 
Q 2450 3256 2279 3461 
Q 2109 3666 1722 3666 
Q 1284 3666 1095 3439 
Q 906 3213 906 2869 
L 384 2869 
Q 384 3250 532 3534 
Q 681 3819 979 3975 
Q 1278 4131 1722 4131 
Q 2128 4131 2412 3986 
Q 2697 3841 2845 3578 
Q 2994 3316 2994 2959 
Q 2994 2641 2870 2378 
Q 2747 2116 2537 1884 
Q 2328 1653 2075 1425 
L 1003 463 
L 3113 463 
L 3113 0 
L 291 0 
z
" transform="scale(0.015625)"/>
       </defs>
       <use xlink:href="#Aptos-32"/>
      </g>
     </g>
    </g>
    <g id="ytick_4">
     <g id="line2d_21">
      <path d="M 71.99 348.751714 
L 844 348.751714 
" clip-path="url(#p7a5eb60efd)" style="fill: none; stroke-dasharray: 3.7,1.6; stroke-dashoffset: 0; stroke: #343837; stroke-opacity: 0.8"/>
     </g>
     <g id="line2d_22">
      <g>
       <use xlink:href="#mee8b562e90" x="71.99" y="348.751714" style="stroke: #000000; stroke-width: 0.8"/>
      </g>
     </g>
     <g id="text_12">
      <!-- 3 -->
      <g transform="translate(53.237188 355.980777) scale(0.22 -0.22)">
       <use xlink:href="#Aptos-33"/>
      </g>
     </g>
    </g>
    <g id="ytick_5">
     <g id="line2d_23">
      <path d="M 71.99 276.042286 
L 844 276.042286 
" clip-path="url(#p7a5eb60efd)" style="fill: none; stroke-dasharray: 3.7,1.6; stroke-dashoffset: 0; stroke: #343837; stroke-opacity: 0.8"/>
     </g>
     <g id="line2d_24">
      <g>
       <use xlink:href="#mee8b562e90" x="71.99" y="276.042286" style="stroke: #000000; stroke-width: 0.8"/>
      </g>
     </g>
     <g id="text_13">
      <!-- 4 -->
      <g transform="translate(53.237188 283.271348) scale(0.22 -0.22)">
       <defs>
        <path id="Aptos-34" d="M 2144 0 
L 2144 825 
L 175 825 
L 175 1297 
L 2134 4103 
L 2666 4103 
L 2666 1284 
L 3225 1284 
L 3225 825 
L 2666 825 
L 2666 0 
L 2144 0 
z
M 684 1284 
L 2150 1284 
L 2150 3391 
L 684 1284 
z
" transform="scale(0.015625)"/>
       </defs>
       <use xlink:href="#Aptos-34"/>
      </g>
     </g>
    </g>
    <g id="ytick_6">
     <g id="line2d_25">
      <path d="M 71.99 203.332857 
L 844 203.332857 
" clip-path="url(#p7a5eb60efd)" style="fill: none; stroke-dasharray: 3.7,1.6; stroke-dashoffset: 0; stroke: #343837; stroke-opacity: 0.8"/>
     </g>
     <g id="line2d_26">
      <g>
       <use xlink:href="#mee8b562e90" x="71.99" y="203.332857" style="stroke: #000000; stroke-width: 0.8"/>
      </g>
     </g>
     <g id="text_14">
      <!-- 5 -->
      <g transform="translate(53.237188 210.56192) scale(0.22 -0.22)">
       <use xlink:href="#Aptos-35"/>
      </g>
     </g>
    </g>
    <g id="ytick_7">
     <g id="line2d_27">
      <path d="M 71.99 130.623429 
L 844 130.623429 
" clip-path="url(#p7a5eb60efd)" style="fill: none; stroke-dasharray: 3.7,1.6; stroke-dashoffset: 0; stroke: #343837; stroke-opacity: 0.8"/>
     </g>
     <g id="line2d_28">
      <g>
       <use xlink:href="#mee8b562e90" x="71.99" y="130.623429" style="stroke: #000000; stroke-width: 0.8"/>
      </g>
     </g>
     <g id="text_15">
      <!-- 6 -->
      <g transform="translate(53.237188 137.852491) scale(0.22 -0.22)">
       <defs>
        <path id="Aptos-36" d="M 1806 -56 
Q 1372 -56 1031 151 
Q 691 359 495 815 
Q 300 1272 300 2013 
Q 300 2738 487 3206 
Q 675 3675 1015 3903 
Q 1356 4131 1806 4131 
Q 2303 4131 2645 3875 
Q 2988 3619 3081 3097 
L 2556 3097 
Q 2491 3388 2300 3534 
Q 2109 3681 1806 3681 
Q 1356 3681 1095 3279 
Q 834 2878 834 2013 
L 834 1850 
Q 834 1313 970 992 
Q 1106 672 1328 531 
Q 1550 391 1809 391 
Q 2219 391 2416 644 
Q 2613 897 2613 1272 
Q 2613 1650 2419 1869 
Q 2225 2088 1875 2088 
Q 1469 2088 1162 1897 
Q 856 1706 700 1456 
L 641 1856 
Q 775 2047 967 2201 
Q 1159 2356 1404 2447 
Q 1650 2538 1947 2538 
Q 2294 2538 2566 2395 
Q 2838 2253 2997 1975 
Q 3156 1697 3156 1291 
Q 3156 897 2998 592 
Q 2841 288 2539 116 
Q 2238 -56 1806 -56 
z
" transform="scale(0.015625)"/>
       </defs>
       <use xlink:href="#Aptos-36"/>
      </g>
     </g>
    </g>
    <g id="ytick_8">
     <g id="line2d_29">
      <path d="M 71.99 57.914 
L 844 57.914 
" clip-path="url(#p7a5eb60efd)" style="fill: none; stroke-dasharray: 3.7,1.6; stroke-dashoffset: 0; stroke: #343837; stroke-opacity: 0.8"/>
     </g>
     <g id="line2d_30">
      <g>
       <use xlink:href="#mee8b562e90" x="71.99" y="57.914" style="stroke: #000000; stroke-width: 0.8"/>
      </g>
     </g>
     <g id="text_16">
      <!-- 7 -->
      <g transform="translate(53.237188 65.143063) scale(0.22 -0.22)">
       <use xlink:href="#Aptos-37"/>
      </g>
     </g>
    </g>
    <g id="text_17">
     <!-- Neutron reproduction factor $\eta$ -->
     <g transform="translate(39.777187 480.747) rotate(-90) scale(0.26 -0.26)">
      <defs>
       <path id="Aptos-4e" d="M 550 0 
L 550 4206 
L 1125 4206 
L 3431 859 
L 3431 4206 
L 3966 4206 
L 3966 0 
L 3391 0 
L 1081 3353 
L 1081 0 
L 550 0 
z
" transform="scale(0.015625)"/>
       <path id="Aptos-70" d="M 503 -1119 
L 503 3044 
L 1009 3044 
L 1025 2547 
Q 1188 2791 1445 2944 
Q 1703 3097 2044 3097 
Q 2419 3097 2691 2920 
Q 2963 2744 3111 2394 
Q 3259 2044 3259 1522 
Q 3259 1006 3101 654 
Q 2944 303 2656 123 
Q 2369 -56 1981 -56 
Q 1656 -56 1412 73 
Q 1169 203 1022 428 
L 1022 -1119 
L 503 -1119 
z
M 1884 372 
Q 2300 372 2511 670 
Q 2722 969 2722 1522 
Q 2722 2081 2525 2378 
Q 2328 2675 1947 2675 
Q 1613 2675 1383 2497 
Q 1153 2319 1025 2081 
L 1025 906 
Q 1150 669 1362 520 
Q 1575 372 1884 372 
z
" transform="scale(0.015625)"/>
       <path id="Aptos-61" d="M 1288 -56 
Q 1025 -56 808 44 
Q 591 144 461 339 
Q 331 534 331 822 
Q 331 1231 587 1443 
Q 844 1656 1312 1732 
Q 1781 1809 2409 1816 
L 2409 2028 
Q 2409 2419 2215 2564 
Q 2022 2709 1725 2709 
Q 1409 2709 1193 2550 
Q 978 2391 978 2047 
L 472 2047 
Q 472 2422 633 2653 
Q 794 2884 1076 2990 
Q 1359 3097 1725 3097 
Q 1959 3097 2173 3053 
Q 2388 3009 2558 2893 
Q 2728 2778 2828 2570 
Q 2928 2363 2928 2034 
L 2928 0 
L 2441 0 
L 2419 463 
Q 2209 228 1932 86 
Q 1656 -56 1288 -56 
z
M 1425 344 
Q 1738 344 1988 491 
Q 2238 638 2406 863 
L 2406 1481 
Q 1575 1472 1214 1325 
Q 853 1178 853 844 
Q 853 616 998 480 
Q 1144 344 1425 344 
z
" transform="scale(0.015625)"/>
       <path id="DejaVuSerif-Italic-3b7" d="M 1153 0 
L 578 0 
L 1159 2988 
L 609 2988 
L 675 3322 
L 1800 3322 
L 1684 2731 
Q 1909 3069 2198 3241 
Q 2488 3413 2825 3413 
Q 3366 3413 3572 3097 
Q 3772 2791 3641 2113 
L 2969 -1331 
L 2391 -1331 
L 3025 1931 
Q 3144 2541 3037 2767 
Q 2931 2994 2553 2994 
Q 2153 2994 1887 2701 
Q 1622 2409 1513 1850 
L 1153 0 
z
" transform="scale(0.015625)"/>
      </defs>
      <use xlink:href="#Aptos-4e" transform="translate(0 0.03125)"/>
      <use xlink:href="#Aptos-65" transform="translate(70.605469 0.03125)"/>
      <use xlink:href="#Aptos-75" transform="translate(123.291016 0.03125)"/>
      <use xlink:href="#Aptos-74" transform="translate(179.150391 0.03125)"/>
      <use xlink:href="#Aptos-72" transform="translate(211.474609 0.03125)"/>
      <use xlink:href="#Aptos-6f" transform="translate(244.921875 0.03125)"/>
      <use xlink:href="#Aptos-6e" transform="translate(300.097656 0.03125)"/>
      <use xlink:href="#Aptos-20" transform="translate(355.224609 0.03125)"/>
      <use xlink:href="#Aptos-72" transform="translate(375.537109 0.03125)"/>
      <use xlink:href="#Aptos-65" transform="translate(408.984375 0.03125)"/>
      <use xlink:href="#Aptos-70" transform="translate(461.669922 0.03125)"/>
      <use xlink:href="#Aptos-72" transform="translate(517.773438 0.03125)"/>
      <use xlink:href="#Aptos-6f" transform="translate(551.220703 0.03125)"/>
      <use xlink:href="#Aptos-64" transform="translate(606.396484 0.03125)"/>
      <use xlink:href="#Aptos-75" transform="translate(662.451172 0.03125)"/>
      <use xlink:href="#Aptos-63" transform="translate(718.310547 0.03125)"/>
      <use xlink:href="#Aptos-74" transform="translate(770.800781 0.03125)"/>
      <use xlink:href="#Aptos-69" transform="translate(803.125 0.03125)"/>
      <use xlink:href="#Aptos-6f" transform="translate(827.001953 0.03125)"/>
      <use xlink:href="#Aptos-6e" transform="translate(882.177734 0.03125)"/>
      <use xlink:href="#Aptos-20" transform="translate(937.304688 0.03125)"/>
      <use xlink:href="#Aptos-66" transform="translate(957.617188 0.03125)"/>
      <use xlink:href="#Aptos-61" transform="translate(987.744141 0.03125)"/>
      <use xlink:href="#Aptos-63" transform="translate(1040.869141 0.03125)"/>
      <use xlink:href="#Aptos-74" transform="translate(1093.359375 0.03125)"/>
      <use xlink:href="#Aptos-6f" transform="translate(1125.683594 0.03125)"/>
      <use xlink:href="#Aptos-72" transform="translate(1180.859375 0.03125)"/>
      <use xlink:href="#Aptos-20" transform="translate(1214.306641 0.03125)"/>
      <use xlink:href="#DejaVuSerif-Italic-3b7" transform="translate(1234.619141 0.03125)"/>
     </g>
    </g>
   </g>
   <g id="line2d_31">
    <path d="M 71.990027 417.42186 
L 233.157964 417.314988 
L 247.978533 417.058303 
L 259.289776 416.643101 
L 272.697401 415.895202 
L 287.779058 415.100056 
L 296.725153 414.872874 
L 304.841911 414.890053 
L 311.921997 415.120891 
L 317.688964 415.521122 
L 322.334791 416.056892 
L 326.1436 416.715104 
L 329.322728 417.488429 
L 332.05647 418.373648 
L 334.767175 419.497802 
L 337.692894 420.975584 
L 341.2099 422.713981 
L 342.561413 423.11043 
L 343.659517 423.199531 
L 344.634757 423.055592 
L 345.586959 422.688757 
L 346.577557 422.079417 
L 347.821563 421.027703 
L 349.541671 419.252181 
L 352.482748 416.207106 
L 354.16446 414.797479 
L 355.777061 413.731364 
L 357.466452 412.87972 
L 359.332462 412.191379 
L 361.505633 411.634952 
L 364.085795 411.211377 
L 367.218848 410.930414 
L 370.459408 410.857091 
L 373.062606 411.007644 
L 374.928616 411.336601 
L 376.241734 411.782775 
L 377.309122 412.376728 
L 378.199892 413.126759 
L 378.990834 414.089779 
L 379.720344 415.339031 
L 380.426817 417.012498 
L 381.12561 419.269918 
L 381.862799 422.44459 
L 382.753569 427.328516 
L 385.279977 441.616225 
L 385.940376 443.623233 
L 386.239859 444.041007 
L 386.378082 443.948329 
L 386.539342 443.491244 
L 386.792751 441.959662 
L 388.121227 432.415327 
L 388.804662 430.294449 
L 389.772223 427.996822 
L 390.693709 426.343783 
L 391.523046 425.276507 
L 392.275593 424.639397 
L 392.920634 424.357967 
L 393.496563 424.338747 
L 393.988022 424.538897 
L 394.464123 424.970352 
L 394.940224 425.748151 
L 395.385609 426.919088 
L 395.830994 428.757746 
L 396.261021 431.579035 
L 396.668011 435.867802 
L 397.044285 442.361919 
L 397.412879 453.023914 
L 397.781474 471.072853 
L 398.503304 508.073258 
L 398.733676 510.842299 
L 398.756713 510.895045 
L 398.810466 510.756028 
L 398.917973 509.690961 
L 399.10227 505.142777 
L 399.371037 491.797422 
L 400.169659 448.781389 
L 400.607365 438.33588 
L 401.068108 432.308378 
L 401.551888 428.720387 
L 402.027989 426.693479 
L 402.511769 425.526022 
L 402.941796 425.018887 
L 403.279675 424.919741 
L 403.602195 425.066606 
L 403.978468 425.553631 
L 404.339384 426.416193 
L 404.723336 427.944734 
L 405.107289 430.435761 
L 405.483562 434.424012 
L 405.875194 441.204411 
L 406.535592 453.315662 
L 406.550951 453.295915 
L 406.620062 452.886236 
L 406.765964 450.311845 
L 407.080805 439.734541 
L 407.602981 424.499961 
L 407.948538 420.07594 
L 408.248021 418.628064 
L 408.470714 418.427937 
L 408.639653 418.611816 
L 408.885382 419.329188 
L 409.215582 421.086863 
L 409.622571 424.606504 
L 411.027838 438.209412 
L 411.166061 438.331958 
L 411.196777 438.307286 
L 411.335 438.005153 
L 411.642162 436.610805 
L 412.102905 434.787408 
L 412.294881 434.608479 
L 412.317918 434.62335 
L 412.456141 434.840742 
L 412.663476 435.705194 
L 412.932243 437.936881 
L 413.262442 442.776372 
L 413.799975 454.797544 
L 414.598597 475.552095 
L 415.212921 492.50153 
L 415.458651 494.420402 
L 415.520083 494.457732 
L 415.566157 494.385325 
L 415.70438 493.735658 
L 415.980826 491.076187 
L 416.564434 483.0158 
L 417.478241 470.605563 
L 418.000417 466.56195 
L 418.399727 464.984036 
L 418.668494 464.638762 
L 418.814396 464.708951 
L 419.006372 465.077793 
L 419.259781 466.091187 
L 419.574622 468.390814 
L 419.92018 472.614398 
L 420.296453 480.117915 
L 420.680406 492.598423 
L 421.072037 512.999174 
L 421.717078 547.66979 
L 421.916733 548.951616 
L 421.962807 548.934428 
L 421.985844 548.879956 
L 422.085672 548.246277 
L 422.231574 545.377033 
L 422.400513 536.531637 
L 423.606124 454.495825 
L 424.174374 436.986449 
L 424.719587 426.287188 
L 425.134256 421.961269 
L 425.418381 420.801048 
L 425.564283 420.739217 
L 425.579641 420.751142 
L 425.740901 421.06005 
L 425.98663 422.151912 
L 426.39362 425.097665 
L 427.829603 436.495964 
L 428.09837 438.648144 
L 428.290346 442.516823 
L 428.482322 451.675402 
L 428.697336 474.476613 
L 429.135042 522.885354 
L 429.38845 527.740583 
L 429.657217 529.561986 
L 429.71097 529.438987 
L 429.826156 528.265164 
L 430.071886 522.761097 
L 430.786038 500.052989 
L 431.246781 489.499029 
L 431.584659 486.463502 
L 431.761277 486.089209 
L 431.776635 486.09731 
L 431.922537 486.390177 
L 432.152909 487.415993 
L 432.38328 489.607026 
L 432.797949 493.670167 
L 432.805628 493.66663 
L 432.890098 493.476076 
L 433.028321 492.318556 
L 433.266371 488.070127 
L 433.780868 477.323659 
L 433.826942 477.559085 
L 433.92677 479.699988 
L 434.118746 490.164176 
L 434.479662 508.226991 
L 434.49502 508.260472 
L 434.533415 508.090736 
L 434.625564 506.476622 
L 434.940405 495.374889 
L 435.723668 469.33301 
L 436.43782 452.78337 
L 437.00607 444.113729 
L 437.390022 441.096433 
L 437.789333 438.439935 
L 438.004346 434.809707 
L 438.488127 425.980863 
L 438.518843 425.970931 
L 438.549559 426.046621 
L 438.649387 426.939921 
L 438.802968 430.854545 
L 439.18692 443.613726 
L 439.232995 443.350199 
L 439.355859 441.034574 
L 439.670701 429.160026 
L 439.970184 422.544165 
L 440.231271 420.760408 
L 440.354136 420.642863 
L 440.384852 420.689789 
L 440.576829 421.353447 
L 440.791842 423.184514 
L 441.014535 427.48303 
L 441.237227 437.505851 
L 441.567426 455.498177 
L 441.613501 455.167046 
L 441.736365 451.655422 
L 442.012811 435.443092 
L 442.289257 424.999742 
L 442.504271 423.355376 
L 442.604098 423.302846 
L 442.634814 423.332206 
L 442.857507 423.496842 
L 442.895902 423.434396 
L 443.018767 422.963327 
L 443.256818 422.000226 
L 443.302892 422.040032 
L 443.372003 422.314064 
L 443.533264 423.931804 
L 443.863463 430.1625 
L 444.262773 442.188516 
L 444.592973 459.357856 
L 444.869418 485.938271 
L 445.406952 544.892027 
L 445.499101 545.720047 
L 445.545175 545.413391 
L 445.621966 542.4518 
L 445.74483 525.696108 
L 446.098067 478.93481 
L 446.290043 474.076475 
L 446.297722 474.085567 
L 446.359155 474.631666 
L 446.497377 478.597248 
L 446.973479 494.010962 
L 447.380468 498.326971 
L 447.457259 497.385813 
L 447.572445 491.201082 
L 447.818174 460.852507 
L 448.025509 449.745818 
L 448.033188 449.739944 
L 448.048546 449.80896 
L 448.125336 451.228923 
L 448.294276 455.348024 
L 448.348029 454.498278 
L 448.478573 446.672618 
L 448.808772 429.103899 
L 448.854846 428.839535 
L 448.9086 429.088991 
L 449.031465 431.346869 
L 449.238799 434.63537 
L 449.269515 434.554917 
L 449.369343 433.260941 
L 449.622751 426.128726 
L 450.175643 410.334419 
L 450.406015 409.026464 
L 450.475126 409.072631 
L 450.490484 409.104865 
L 450.590312 409.692956 
L 450.728535 411.923446 
L 450.866758 418.119139 
L 450.997302 435.973132 
L 451.350538 492.33995 
L 451.365896 492.231984 
L 451.41965 489.663974 
L 451.565552 467.457913 
L 451.795923 447.211976 
L 451.987899 444.529008 
L 451.995578 444.529554 
L 452.049332 444.685552 
L 452.172197 446.197552 
L 452.371852 452.096244 
L 453.109041 487.87305 
L 453.293338 491.992569 
L 453.454598 492.521466 
L 453.585142 494.323467 
L 454.161071 509.591154 
L 454.314652 517.412622 
L 454.368405 515.083429 
L 454.49127 493.136314 
L 454.806111 442.055534 
L 455.105594 430.81172 
L 455.282213 428.744018 
L 455.30525 428.776877 
L 455.397398 429.416639 
L 455.604733 432.870807 
L 456.011722 444.012391 
L 456.387996 452.497635 
L 456.426391 452.594741 
L 456.472466 452.427131 
L 456.572293 450.785372 
L 456.76427 442.748834 
L 457.094469 431.663335 
L 457.309482 428.990516 
L 457.332519 429.039786 
L 457.424668 430.018957 
L 457.662719 435.829943 
L 458.238647 455.658511 
L 458.438303 473.691877 
L 458.499735 471.496691 
L 458.753144 461.934861 
L 459.152455 457.764319 
L 459.444259 449.211393 
L 459.812853 436.85498 
L 459.858927 437.598887 
L 459.974113 444.526288 
L 460.204485 468.957041 
L 460.288954 462.60543 
L 460.396461 454.683549 
L 460.450214 456.447359 
L 460.611474 475.064683 
L 460.818809 506.065757 
L 460.895599 501.541634 
L 461.079897 495.676032 
L 461.45617 493.801315 
L 461.509923 494.226459 
L 461.609751 497.847324 
L 461.794048 505.283453 
L 461.840123 504.481693 
L 461.978346 496.024519 
L 462.439089 468.389031 
L 462.715535 463.835246 
L 462.761609 463.754008 
L 462.807683 463.876818 
L 462.922869 464.936801 
L 463.199315 470.191001 
L 463.375933 471.313127 
L 463.498798 471.336691 
L 463.506477 471.355977 
L 463.567909 471.82241 
L 463.637021 474.532886 
L 463.736848 490.967308 
L 463.928825 521.698645 
L 463.959541 521.055806 
L 464.028652 513.344389 
L 464.143838 466.3638 
L 464.328135 427.896653 
L 464.397247 426.840164 
L 464.451 427.486045 
L 464.543149 432.631724 
L 464.658335 454.981294 
L 464.796558 487.873761 
L 464.850311 483.676834 
L 465.065324 441.874185 
L 465.311054 408.469912 
L 465.564463 401.960327 
L 465.840909 399.730911 
L 466.017527 399.338567 
L 466.040564 399.350603 
L 466.132713 399.596072 
L 466.293973 400.792268 
L 466.47827 403.727779 
L 466.63953 410.61769 
L 466.793111 428.509401 
L 466.931334 447.447723 
L 466.977408 443.879948 
L 467.253854 420.080805 
L 467.430472 416.777968 
L 467.607091 412.416344 
L 467.653165 412.95602 
L 467.737634 417.59188 
L 467.975685 444.414356 
L 468.067834 440.368166 
L 468.144624 436.954745 
L 468.198378 438.527438 
L 468.390354 451.375821 
L 468.474823 449.324398 
L 468.920208 434.2593 
L 468.973962 435.499381 
L 469.188975 449.796005 
L 469.242729 451.840816 
L 469.288803 449.973943 
L 469.465421 435.886647 
L 469.526853 437.743247 
L 470.072066 474.52319 
L 470.479056 513.124822 
L 470.494414 512.744586 
L 470.563525 502.716754 
L 470.870688 460.535877 
L 471.00891 455.865946 
L 471.047306 456.356293 
L 471.131775 460.961719 
L 471.239282 484.307948 
L 471.431258 508.355593 
L 471.561802 525.168866 
L 471.66163 538.500852 
L 471.715383 534.737333 
L 472.275954 464.937469 
L 472.345065 465.005376 
L 472.398819 464.730341 
L 472.560079 462.15143 
L 472.621511 463.414443 
L 472.752055 474.757519 
L 473.159045 521.621591 
L 473.235835 519.343744 
L 473.880876 479.135178 
L 473.973024 481.548461 
L 474.095889 486.277753 
L 474.149643 485.290814 
L 474.280186 477.594327 
L 474.395372 452.374205 
L 474.479842 439.262548 
L 474.541274 442.367034 
L 474.710213 453.199408 
L 474.763967 451.931668 
L 475.002017 436.90111 
L 475.293821 420.550329 
L 475.600983 415.570309 
L 475.785281 414.744683 
L 475.800639 414.753764 
L 475.908145 415.030889 
L 475.977257 415.139537 
L 476.023331 415.049592 
L 476.184591 414.160885 
L 476.230666 414.521554 
L 476.330493 418.697251 
L 476.376568 420.013352 
L 476.422642 418.55433 
L 476.660692 410.670916 
L 476.729804 410.641384 
L 476.775878 410.68762 
L 476.914101 411.068676 
L 477.021608 412.135242 
L 477.159831 416.295465 
L 477.305733 428.291698 
L 477.658969 462.785031 
L 477.697364 463.091836 
L 477.751118 462.665006 
L 478.019885 457.769037 
L 478.119712 446.169321 
L 478.265614 434.412781 
L 478.29633 434.911701 
L 478.3808 441.829824 
L 478.457591 449.226227 
L 478.503665 444.967814 
L 478.795469 414.056551 
L 478.849222 413.508986 
L 478.902976 413.9002 
L 479.041198 417.073904 
L 479.233175 427.225735 
L 479.325323 439.511293 
L 479.494263 513.067752 
L 479.609448 497.082598 
L 479.862857 443.787513 
L 479.878215 444.841489 
L 479.939648 474.789322 
L 480.070191 528.226091 
L 480.108587 524.348475 
L 480.208414 469.650718 
L 480.24681 459.675373 
L 480.300563 471.942395 
L 480.438786 507.402285 
L 480.48486 504.951145 
L 480.56933 484.822692 
L 480.792022 431.381562 
L 480.868813 429.122424 
L 480.991678 422.634075 
L 481.045431 425.189576 
L 481.199012 436.886878 
L 481.252765 434.669229 
L 481.490816 410.865074 
L 481.598323 412.554259 
L 481.736546 419.165284 
L 481.874769 443.344799 
L 482.020671 458.710071 
L 482.059066 457.074572 
L 482.158893 451.268985 
L 482.212647 452.959865 
L 482.297116 456.82789 
L 482.35087 454.452983 
L 482.527488 440.469582 
L 482.58892 442.806032 
L 482.742501 452.525459 
L 482.796255 450.136603 
L 482.896082 443.386852 
L 482.942157 445.926445 
L 483.034305 475.382889 
L 483.103417 486.686098 
L 483.15717 481.91691 
L 483.333788 428.495027 
L 483.448974 444.362306 
L 483.533444 464.814298 
L 483.602555 458.940861 
L 483.748457 440.642343 
L 483.786852 447.03723 
L 483.994187 520.024428 
L 484.055619 512.85948 
L 484.163126 470.695509 
L 484.247596 486.667473 
L 484.285991 489.456802 
L 484.339744 485.179966 
L 484.708339 423.243451 
L 484.808166 431.151731 
L 485.092291 458.239576 
L 485.130686 453.066688 
L 485.43017 404.953672 
L 485.437849 404.964136 
L 485.491602 405.450803 
L 485.59143 408.796421 
L 485.737332 424.572721 
L 485.952345 441.397411 
L 486.013777 439.984168 
L 486.167358 430.434429 
L 486.259507 425.538038 
L 486.305581 427.885272 
L 486.4822 457.666854 
L 486.574348 445.715319 
L 486.605064 444.385209 
L 486.651139 447.730905 
L 486.942943 479.325252 
L 486.958301 478.667559 
L 487.012054 459.616779 
L 487.188672 420.289007 
L 487.196351 420.277735 
L 487.211709 420.434283 
L 487.296179 424.183956 
L 487.403686 437.382779 
L 487.580304 452.853118 
L 487.595662 452.880682 
L 487.626378 452.703725 
L 487.741564 450.562854 
L 487.795317 451.775025 
L 487.910503 459.234029 
L 487.964257 455.452061 
L 488.125517 434.16172 
L 488.171591 439.331239 
L 488.348209 486.082812 
L 488.394283 471.787054 
L 488.547864 434.577674 
L 488.555544 434.600041 
L 488.616976 435.403482 
L 488.686087 436.495889 
L 488.724483 435.642215 
L 489.139151 415.191715 
L 489.2313 418.041237 
L 489.354165 430.626964 
L 489.415597 434.979977 
L 489.492388 434.823135 
L 489.576857 442.90172 
L 489.607574 444.633886 
L 489.653648 441.39837 
L 490.006884 405.090073 
L 490.060638 404.848875 
L 490.091354 405.163306 
L 490.160465 409.326394 
L 490.275651 422.603478 
L 490.329404 417.002078 
L 490.521381 400.262808 
L 490.559776 399.974587 
L 490.613529 400.485157 
L 490.736394 405.200367 
L 490.813185 415.388677 
L 490.882296 471.321461 
L 491.01284 538.938834 
L 491.043556 537.238607 
L 491.104989 511.118623 
L 491.296965 438.403815 
L 491.304644 438.388107 
L 491.312323 438.465727 
L 491.366076 441.725316 
L 491.450546 463.928548 
L 491.573411 495.224739 
L 491.619485 492.814351 
L 491.703955 470.354602 
L 491.726992 465.715324 
L 491.780745 478.611147 
L 491.895931 493.982109 
L 491.934326 492.22268 
L 492.049512 464.279048 
L 492.118624 481.949985 
L 492.180056 490.144068 
L 492.233809 483.888265 
L 492.425786 436.096064 
L 492.494897 438.8279 
L 492.763664 476.000868 
L 492.817417 465.919316 
L 493.032431 421.474047 
L 493.093863 418.493002 
L 493.155295 420.108615 
L 493.247444 425.015201 
L 493.339593 433.605098 
L 493.401025 430.668932 
L 493.531569 419.16105 
L 493.60836 421.512012 
L 493.700508 424.823475 
L 493.746582 423.458085 
L 493.792657 421.878487 
L 493.838731 424.094505 
L 493.923201 443.091694 
L 493.976954 462.033922 
L 494.038386 445.539581 
L 494.207326 429.555973 
L 494.368586 420.53993 
L 494.437697 422.382708 
L 494.598957 436.105656 
L 494.913798 461.970195 
L 494.936835 461.481535 
L 494.998268 451.148221 
L 495.205602 418.43242 
L 495.274714 412.573084 
L 495.336146 415.163485 
L 495.443653 432.348935 
L 495.566518 458.452612 
L 495.620271 451.570079 
L 495.750815 438.3429 
L 495.781531 439.50677 
L 495.866001 446.271458 
L 495.942791 443.899601 
L 496.011903 442.551815 
L 496.057977 443.567239 
L 496.104051 445.340972 
L 496.150126 443.381869 
L 496.35746 425.687261 
L 496.472646 416.75211 
L 496.51872 417.811644 
L 496.587832 426.460983 
L 496.741413 457.067951 
L 496.787487 451.474635 
L 496.887315 425.547458 
L 496.956426 431.028 
L 497.094649 459.708559 
L 497.194477 447.955418 
L 497.3327 441.897784 
L 497.348058 441.991694 
L 497.386453 442.92901 
L 497.478602 452.366239 
L 497.578429 484.130138 
L 497.670578 521.477006 
L 497.724331 509.187195 
L 497.847196 440.898083 
L 497.916308 460.631175 
L 497.962382 467.164586 
L 498.008456 459.189245 
L 498.131321 414.43793 
L 498.215791 421.952501 
L 498.307939 426.386272 
L 498.346334 424.831226 
L 498.492236 406.668622 
L 498.592064 410.22111 
L 498.768682 422.452389 
L 498.922263 454.398766 
L 499.006733 444.365059 
L 499.252463 409.452796 
L 499.321574 410.215322 
L 499.375327 410.947585 
L 499.413723 410.243756 
L 499.528908 404.953839 
L 499.605699 406.288257 
L 499.667131 411.47787 
L 499.974293 488.632384 
L 500.066442 535.530281 
L 500.120195 532.861926 
L 500.173949 508.488733 
L 500.350567 411.733122 
L 500.365925 411.895235 
L 500.427357 415.49319 
L 500.496469 437.382989 
L 500.665408 466.798036 
L 500.795952 483.983221 
L 500.818989 481.530608 
L 500.911138 444.215436 
L 500.97257 462.306009 
L 501.103114 541.300478 
L 501.179905 538.454963 
L 501.241337 526.019193 
L 501.563857 402.894066 
L 501.61761 401.248164 
L 501.671364 402.910002 
L 501.740475 406.282778 
L 501.824945 405.958568 
L 501.932452 413.441566 
L 502.10907 427.673864 
L 502.162823 426.971652 
L 502.18586 427.192331 
L 502.224256 427.823236 
L 502.262651 426.972333 
L 502.377837 420.031983 
L 502.439269 422.783022 
L 502.51606 435.896039 
L 502.562134 449.528068 
L 502.608208 431.670648 
L 502.715715 410.539509 
L 502.75411 415.901323 
L 503.068951 502.008573 
L 503.084309 502.812169 
L 503.115026 500.14569 
L 503.414509 447.76137 
L 503.48362 440.657508 
L 503.537373 445.754498 
L 503.698633 485.55182 
L 503.767745 467.721066 
L 503.913647 421.982824 
L 503.959721 423.455153 
L 504.036512 430.426396 
L 504.105623 426.335855 
L 504.197772 420.523878 
L 504.243846 423.762772 
L 504.366711 431.088706 
L 504.397427 429.699865 
L 504.504934 415.537363 
L 504.566366 423.694985 
L 504.643157 472.444362 
L 504.750664 520.211327 
L 504.789059 517.633121 
L 504.881207 482.618606 
L 504.957998 505.460142 
L 504.981035 509.177828 
L 505.057826 502.639525 
L 505.149974 477.838727 
L 505.173011 472.163931 
L 505.203728 491.751439 
L 505.272839 534.444512 
L 505.326592 514.994386 
L 505.42642 444.083459 
L 505.51089 451.407321 
L 505.518569 451.430763 
L 505.526248 451.288695 
L 505.580001 448.536458 
L 505.610717 451.203229 
L 505.741261 482.46613 
L 505.83341 481.383059 
L 505.871805 488.508188 
L 505.956275 535.025598 
L 506.033065 518.75426 
L 506.271116 429.331814 
L 506.301832 429.929014 
L 506.386302 437.685477 
L 506.47845 481.430888 
L 506.524524 491.732369 
L 506.578278 477.429312 
L 506.785612 413.990111 
L 506.824007 413.061344 
L 506.870082 414.640368 
L 506.900798 415.609795 
L 506.946872 413.808673 
L 507.192602 405.656919 
L 507.20796 405.585494 
L 507.230997 406.069784 
L 507.269392 413.092954 
L 507.361541 478.338093 
L 507.430653 441.70658 
L 507.576555 410.023506 
L 507.668703 408.768268 
L 507.707098 409.393503 
L 507.799247 416.976227 
L 507.883717 437.026466 
L 507.945149 424.336718 
L 507.968186 422.246687 
L 508.02194 429.195603 
L 508.213916 466.31462 
L 508.298385 549.627718 
L 508.352139 520.971603 
L 508.521078 419.325935 
L 508.528757 419.295158 
L 508.536436 419.491213 
L 508.58251 428.096359 
L 508.651622 452.044292 
L 508.720733 443.039891 
L 508.759129 437.408574 
L 508.789845 445.198362 
L 508.866635 501.89964 
L 508.920389 462.997255 
L 509.07397 413.025763 
L 509.081649 412.990383 
L 509.104686 413.205283 
L 509.250588 418.234855 
L 509.342736 438.182176 
L 509.450243 432.64528 
L 509.695973 451.254855 
L 509.826517 528.680734 
L 509.872591 497.447002 
L 510.026172 421.421662 
L 510.072246 417.265603 
L 510.149037 406.104272 
L 510.195111 413.728266 
L 510.325655 430.734842 
L 510.356371 428.509564 
L 510.402446 423.597132 
L 510.440841 431.452628 
L 510.594422 490.535215 
L 510.625138 483.076173 
L 510.817114 416.280513 
L 510.909263 408.703313 
L 510.947658 411.496427 
L 510.993733 451.013811 
L 511.055165 503.639956 
L 511.116597 486.56231 
L 511.17803 446.568891 
L 511.231783 477.226934 
L 511.316253 495.405818 
L 511.362327 494.14251 
L 511.408401 480.702518 
L 511.492871 440.644187 
L 511.538945 459.551813 
L 511.600378 492.673438 
L 511.66181 474.257537 
L 511.753959 424.881127 
L 511.82307 437.736717 
L 511.846107 440.039403 
L 511.884503 431.440144 
L 511.945935 415.97253 
L 511.999688 424.914915 
L 512.14559 471.013332 
L 512.23006 462.905773 
L 512.322209 436.54461 
L 512.414357 410.724852 
L 512.460431 415.943057 
L 512.506506 425.268628 
L 512.560259 415.719649 
L 512.598654 412.861182 
L 512.660087 416.206151 
L 512.813668 443.30824 
L 512.898137 484.243659 
L 512.944212 456.485171 
L 513.013323 422.605722 
L 513.067077 435.947126 
L 513.220658 475.323293 
L 513.236016 473.024001 
L 513.451029 424.544564 
L 513.474066 425.174084 
L 513.673722 444.20587 
L 513.719796 466.661329 
L 513.773549 441.17417 
L 513.788907 437.888307 
L 513.827303 456.264437 
L 513.919451 521.363105 
L 513.980884 507.908239 
L 514.057674 453.347688 
L 514.126786 474.103779 
L 514.149823 477.012233 
L 514.218934 470.478205 
L 514.311083 452.410226 
L 514.33412 448.956284 
L 514.380194 463.240997 
L 514.410911 467.935268 
L 514.472343 459.326291 
L 514.526096 442.396161 
L 514.564492 463.965254 
L 514.610566 488.359279 
L 514.695035 482.777009 
L 514.710394 485.903129 
L 514.756468 470.427918 
L 514.771826 468.335704 
L 514.8179 479.658348 
L 514.948444 488.550996 
L 514.956123 488.0841 
L 514.994518 456.779722 
L 515.132741 413.502322 
L 515.209532 403.002036 
L 515.255606 409.429335 
L 515.485978 517.170941 
L 515.555089 505.233521 
L 515.747066 411.877577 
L 515.831535 414.997996 
L 516.03887 431.69286 
L 516.107981 430.142978 
L 516.131018 430.754253 
L 516.177092 441.627429 
L 516.261562 489.044713 
L 516.315315 467.715208 
L 516.430501 408.56842 
L 516.468896 409.629275 
L 516.753021 436.814881 
L 516.783738 428.245221 
L 516.829812 414.766724 
L 516.906602 418.751599 
L 516.952677 424.430823 
L 517.014109 454.176655 
L 517.083221 435.00795 
L 517.136974 415.775606 
L 517.183048 436.697148 
L 517.259839 461.809478 
L 517.305913 447.945302 
L 517.459494 408.433951 
L 517.482531 409.069711 
L 517.528606 419.875144 
L 517.590038 440.831449 
L 517.643791 426.631305 
L 517.674508 421.64365 
L 517.73594 429.800876 
L 517.758977 431.734283 
L 517.805051 425.790997 
L 517.973991 403.848547 
L 517.989349 404.299874 
L 518.035423 413.052652 
L 518.096855 440.305679 
L 518.189004 434.826025 
L 518.212041 441.88058 
L 518.396338 520.315617 
L 518.411696 522.636968 
L 518.450092 511.420503 
L 518.634389 440.051268 
L 518.642068 440.184272 
L 518.665105 441.445328 
L 518.695821 436.503371 
L 518.749575 415.597387 
L 518.78797 438.153713 
L 518.849402 486.175542 
L 518.903156 445.675037 
L 518.926193 433.061419 
L 519.010663 440.616794 
L 519.041379 471.505083 
L 519.102811 536.37863 
L 519.156565 498.846986 
L 519.202639 439.965656 
L 519.264071 483.668921 
L 519.302466 509.133777 
L 519.363899 475.229011 
L 519.532838 407.072773 
L 519.555875 406.441733 
L 519.60195 409.029828 
L 519.724814 430.121564 
L 519.847679 483.062484 
L 519.878395 479.375564 
L 520.116446 415.62981 
L 520.177878 427.428771 
L 520.300743 461.567121 
L 520.339138 459.994576 
L 520.523436 413.331586 
L 520.600226 429.562228 
L 520.677017 482.397843 
L 520.723091 441.719162 
L 520.822919 407.272076 
L 520.853635 414.086833 
L 520.915067 486.761385 
L 520.984179 432.325232 
L 521.130081 401.808681 
L 521.13776 401.716819 
L 521.168476 402.390989 
L 521.268304 411.971481 
L 521.352773 448.830402 
L 521.421885 432.922287 
L 521.452601 428.312928 
L 521.483317 439.17409 
L 521.583145 483.357508 
L 521.629219 475.377803 
L 521.744405 418.556987 
L 521.813516 425.24228 
L 521.86727 425.144087 
L 521.928702 434.607639 
L 522.089962 479.524351 
L 522.128358 463.264279 
L 522.205148 426.627238 
L 522.26658 427.902299 
L 522.304976 428.872514 
L 522.343371 426.718947 
L 522.358729 426.424868 
L 522.381766 428.235416 
L 522.427841 448.513616 
L 522.566063 552.091857 
L 522.612138 548.661985 
L 522.642854 505.565204 
L 522.711965 420.457676 
L 522.765719 462.8121 
L 522.804114 481.089254 
L 522.857867 443.829486 
L 522.896263 417.299206 
L 522.973053 430.60262 
L 523.211104 401.081207 
L 523.32629 405.572 
L 523.472192 413.755614 
L 523.548982 422.155103 
L 523.579698 415.175148 
L 523.7256 397.788176 
L 523.733279 397.718139 
L 523.748637 398.205199 
L 523.825428 411.289441 
L 523.894539 433.474361 
L 523.963651 419.85719 
L 524.063479 404.947241 
L 524.13259 411.664276 
L 524.432073 497.391174 
L 524.493505 490.9306 
L 524.554938 441.554448 
L 524.593333 488.948925 
L 524.624049 511.178328 
L 524.677803 466.594304 
L 524.769951 404.848424 
L 524.823705 409.090143 
L 524.908174 442.451369 
L 525.046397 460.891319 
L 525.054076 459.833173 
L 525.077113 451.126351 
L 525.123188 477.452398 
L 525.161583 490.284714 
L 525.199978 470.048515 
L 525.299806 417.410836 
L 525.34588 431.401635 
L 525.414992 437.871844 
L 525.445708 433.029109 
L 525.491782 419.650561 
L 525.545536 431.879572 
L 525.599289 473.846111 
L 525.653042 429.559081 
L 525.6684 428.189099 
L 525.699117 434.930473 
L 525.837339 492.109811 
L 525.875735 470.504696 
L 526.029316 400.180321 
L 526.175218 394.998543 
L 526.182897 394.990811 
L 526.190576 395.092751 
L 526.244329 399.329188 
L 526.344157 422.105339 
L 526.390231 406.627751 
L 526.451664 397.534982 
L 526.513096 401.536244 
L 526.612924 421.068281 
L 526.682035 410.925713 
L 526.689714 410.76935 
L 526.712751 412.233476 
L 526.766505 416.084685 
L 526.820258 413.277071 
L 526.858653 409.873467 
L 526.920086 413.393139 
L 526.96616 433.720873 
L 527.05063 490.537749 
L 527.096704 457.956339 
L 527.12742 429.522298 
L 527.21189 449.877279 
L 527.488336 405.179181 
L 527.496015 405.098973 
L 527.519052 405.787443 
L 527.595842 418.891694 
L 527.649596 407.909724 
L 527.657275 407.367238 
L 527.69567 410.098554 
L 527.741744 408.623225 
L 527.818535 422.925156 
L 527.849251 429.959726 
L 527.910683 420.142976 
L 527.918362 420.274296 
L 527.964437 432.73625 
L 527.987474 441.315815 
L 528.048906 425.21799 
L 528.056585 425.353562 
L 528.094981 437.267361 
L 528.125697 454.61773 
L 528.194808 435.142467 
L 528.202487 435.627338 
L 528.217845 437.617468 
L 528.248562 427.448522 
L 528.325352 410.242198 
L 528.371427 416.453996 
L 528.517329 430.806062 
L 528.525008 430.886553 
L 528.540366 430.340573 
L 528.594119 421.727161 
L 528.640193 430.41082 
L 528.716984 427.936767 
L 528.778416 501.333021 
L 528.801453 514.220816 
L 528.847528 466.221041 
L 528.916639 400.974165 
L 528.978072 402.760233 
L 529.024146 406.794348 
L 529.15469 432.098268 
L 529.185406 422.320549 
L 529.239159 402.459016 
L 529.308271 408.872871 
L 529.530963 443.844253 
L 529.584717 495.624342 
L 529.63847 447.394357 
L 529.692223 401.847119 
L 529.761335 414.739592 
L 529.79973 433.932952 
L 529.868842 415.96433 
L 529.876521 415.764161 
L 529.891879 417.869515 
L 529.96099 425.411158 
L 530.014744 420.919911 
L 530.030102 420.206147 
L 530.060818 424.504782 
L 530.12225 478.333712 
L 530.176004 432.85319 
L 530.291189 397.995533 
L 530.329585 400.526011 
L 530.61371 446.682464 
L 530.636747 439.97449 
L 530.77497 414.293903 
L 530.782649 414.897944 
L 530.798007 416.53342 
L 530.836402 409.435875 
L 530.859439 404.978049 
L 530.905514 411.554744 
L 530.943909 409.979733 
L 531.151243 432.485466 
L 531.189638 426.516766 
L 531.235713 415.208511 
L 531.289466 427.862639 
L 531.304824 429.388186 
L 531.34322 419.583712 
L 531.435368 401.421066 
L 531.496801 410.766884 
L 531.565912 457.177902 
L 531.642703 434.132574 
L 531.719493 406.964252 
L 531.757888 419.723585 
L 531.796284 442.432531 
L 531.857716 414.388333 
L 531.865395 414.205599 
L 531.873074 416.420388 
L 531.965223 476.299906 
L 532.072729 467.837521 
L 532.157199 411.406121 
L 532.249348 423.808559 
L 532.295422 444.681077 
L 532.341496 421.134116 
L 532.456682 401.855534 
L 532.479719 404.370764 
L 532.525793 415.570377 
L 532.610263 411.26342 
L 532.6333 413.090098 
L 532.809918 431.316457 
L 532.817597 430.624799 
L 532.863672 420.052963 
L 532.886709 434.9941 
L 532.963499 522.396132 
L 533.009574 467.205318 
L 533.078685 467.701132 
L 533.155476 422.50856 
L 533.193871 418.394934 
L 533.239945 423.487326 
L 533.270662 456.207266 
L 533.301378 494.990404 
L 533.370489 435.869511 
L 533.378168 435.740381 
L 533.416563 454.982264 
L 533.477996 435.01656 
L 533.593182 421.176675 
L 533.60854 425.495382 
L 533.708367 453.568354 
L 533.731405 443.059463 
L 533.785158 414.604936 
L 533.854269 425.321996 
L 533.984813 418.326368 
L 534.00785 422.308539 
L 534.069283 477.883051 
L 534.084641 487.475059 
L 534.130715 437.405214 
L 534.146073 426.21776 
L 534.199827 461.97231 
L 534.238222 437.055974 
L 534.276617 428.044748 
L 534.322692 447.65355 
L 534.468594 508.107488 
L 534.399482 443.467268 
L 534.522347 478.780032 
L 534.614496 414.211354 
L 534.668249 415.674034 
L 534.683607 416.029505 
L 534.729681 430.350733 
L 534.783435 415.31854 
L 534.791114 414.422084 
L 534.82183 421.20468 
L 534.929337 484.805076 
L 534.952374 502.246404 
L 534.998448 443.17388 
L 535.044522 407.271641 
L 535.113634 421.777974 
L 535.136671 426.05315 
L 535.175066 411.70673 
L 535.205783 404.626174 
L 535.259536 416.839152 
L 535.30561 458.451338 
L 535.367043 416.79101 
L 535.39008 418.396216 
L 535.413117 419.966122 
L 535.46687 416.022935 
L 535.482228 416.266523 
L 535.612772 425.498081 
L 535.743316 483.293119 
L 535.835465 470.515327 
L 535.889218 421.381146 
L 536.012083 428.562334 
L 536.142627 464.759474 
L 536.173343 444.959854 
L 536.219417 408.733004 
L 536.303887 412.83627 
L 536.365319 464.286568 
L 536.44211 435.519417 
L 536.564975 414.158488 
L 536.495863 450.347843 
L 536.588012 416.262715 
L 536.595691 416.451813 
L 536.611049 415.061584 
L 536.657123 409.391787 
L 536.68784 418.865434 
L 536.733914 501.679939 
L 536.787667 420.350153 
L 536.887495 407.858587 
L 536.910532 408.299475 
L 536.956606 414.636889 
L 537.018039 434.720578 
L 537.102508 430.229101 
L 537.17162 411.896007 
L 537.210015 425.513725 
L 537.233052 432.311948 
L 537.279126 411.152803 
L 537.294485 407.94003 
L 537.325201 420.521987 
L 537.363596 454.993851 
L 537.425028 410.643125 
L 537.486461 414.687318 
L 537.517177 447.839022 
L 537.540214 477.494941 
L 537.601647 417.466591 
L 537.609326 417.768122 
L 537.778265 494.623319 
L 537.824339 460.968079 
L 537.870413 412.652223 
L 537.916488 485.012556 
L 537.954883 520.233277 
L 538.008636 466.290796 
L 538.077748 421.061002 
L 538.146859 437.661935 
L 538.215971 415.079018 
L 538.30044 416.182015 
L 538.315798 415.981324 
L 538.338836 417.175881 
L 538.469379 442.031993 
L 538.592244 497.793442 
L 538.615281 486.643747 
L 538.70743 418.316353 
L 538.753504 446.555252 
L 538.776542 476.203772 
L 538.845653 415.5537 
L 538.853332 415.21008 
L 538.86869 418.759943 
L 538.937802 464.081109 
L 539.014592 441.769237 
L 539.045308 439.672147 
L 539.060666 445.031176 
L 539.11442 524.870864 
L 539.206568 484.422744 
L 539.214248 485.85147 
L 539.229606 473.994647 
L 539.27568 412.380089 
L 539.360149 432.597406 
L 539.383187 424.727957 
L 539.429261 407.836431 
L 539.513731 412.337702 
L 539.52141 412.54868 
L 539.544447 410.635197 
L 539.552126 410.271294 
L 539.567484 412.457087 
L 539.674991 461.433925 
L 539.721065 428.644549 
L 539.728744 424.344995 
L 539.797855 440.117446 
L 539.836251 498.366832 
L 539.897683 434.100274 
L 539.905362 437.51508 
L 539.936078 459.585824 
L 539.989832 420.839286 
L 540.074301 403.996007 
L 540.112697 416.553204 
L 540.24324 439.913859 
L 540.266278 430.980732 
L 540.335389 414.963878 
L 540.381463 422.467343 
L 540.450575 421.74825 
L 540.496649 438.609971 
L 540.535044 467.140167 
L 540.588798 428.429033 
L 540.611835 419.449977 
L 540.673267 440.042567 
L 540.680946 440.306441 
L 540.688625 437.798285 
L 540.757737 409.137926 
L 540.796132 429.265773 
L 540.826848 459.713711 
L 540.89596 417.13336 
L 540.926676 410.886186 
L 540.988108 421.760083 
L 541.05722 461.00267 
L 541.103294 427.161855 
L 541.149369 445.036579 
L 541.187764 424.160566 
L 541.249196 406.212295 
L 541.30295 417.561677 
L 541.349024 409.057776 
L 541.395098 418.214514 
L 541.471889 468.165189 
L 541.517963 428.113515 
L 541.548679 407.635715 
L 541.62547 423.328461 
L 541.633149 423.223688 
L 541.640828 423.781491 
L 541.740656 466.954774 
L 541.771372 440.442336 
L 541.817446 408.286411 
L 541.886557 420.370927 
L 541.924953 429.76946 
L 541.955669 418.49262 
L 541.978706 414.722622 
L 542.02478 428.160307 
L 542.055497 434.736918 
L 542.124608 424.898759 
L 542.262831 405.954228 
L 542.293547 414.092832 
L 542.35498 452.780457 
L 542.439449 442.334656 
L 542.454807 438.081371 
L 542.546956 407.162888 
L 542.585351 414.393246 
L 542.769648 476.148767 
L 542.800365 457.861437 
L 542.861797 427.533324 
L 542.900192 456.785262 
L 542.930909 468.085477 
L 542.969304 431.180086 
L 542.992341 433.18142 
L 543.007699 427.982393 
L 543.130564 404.414904 
L 543.145922 406.176289 
L 543.32254 483.651011 
L 543.376294 452.529675 
L 543.468442 405.364021 
L 543.522196 416.127658 
L 543.683456 481.063227 
L 543.706493 462.076545 
L 543.744888 416.868373 
L 543.829358 438.474267 
L 543.844716 444.483161 
L 543.913827 426.646916 
L 543.97526 423.968495 
L 544.128841 406.100193 
L 544.05205 430.583027 
L 544.13652 407.129648 
L 544.336175 446.781413 
L 544.343854 446.763321 
L 544.366891 445.473149 
L 544.382249 449.073276 
L 544.528151 504.128443 
L 544.551188 488.435949 
L 544.712449 414.141422 
L 544.758523 407.960577 
L 544.796918 412.748158 
L 544.842992 460.651176 
L 544.950499 439.74394 
L 545.088722 422.134773 
L 545.034969 442.287204 
L 545.10408 424.867492 
L 545.142475 432.493036 
L 545.165513 417.502408 
L 545.242303 408.621711 
L 545.273019 419.095771 
L 545.288377 421.220635 
L 545.34981 412.873382 
L 545.372847 404.507483 
L 545.403563 424.128786 
L 545.441958 489.813778 
L 545.526428 452.801436 
L 545.564823 419.611299 
L 545.610898 467.120622 
L 545.633935 484.472923 
L 545.680009 414.520317 
L 545.710725 401.343363 
L 545.795195 409.070315 
L 545.841269 403.795593 
L 545.879664 409.610227 
L 545.99485 431.385033 
L 546.033245 420.669302 
L 546.110036 410.469325 
L 546.071641 421.284648 
L 546.148431 417.214271 
L 546.186826 434.739235 
L 546.232901 411.47042 
L 546.263617 408.026952 
L 546.302012 418.176293 
L 546.332728 428.270455 
L 546.378803 417.864232 
L 546.409519 421.790662 
L 546.501668 407.662886 
L 546.5631 411.150835 
L 546.609174 408.468265 
L 546.64757 430.037196 
L 546.678286 434.385918 
L 546.716681 417.368485 
L 546.732039 413.187678 
L 546.778113 438.285043 
L 546.793472 450.243542 
L 546.893299 448.668078 
L 546.939374 422.30322 
L 546.97009 454.036612 
L 547.016164 444.721645 
L 547.100634 490.559124 
L 547.139029 452.125302 
L 547.146708 446.057705 
L 547.192782 472.377496 
L 547.238857 459.069901 
L 547.284931 464.635483 
L 547.307968 455.223328 
L 547.361721 407.287172 
L 547.415475 442.772354 
L 547.446191 472.749494 
L 547.492265 431.089993 
L 547.507623 432.633205 
L 547.53834 411.299948 
L 547.576735 449.169206 
L 547.592093 458.362634 
L 547.638167 410.421995 
L 547.761032 403.62092 
L 547.684242 423.01923 
L 547.768711 403.784517 
L 547.799427 420.352028 
L 547.953008 474.264157 
L 547.976045 479.517933 
L 547.999083 466.63555 
L 548.09891 403.245476 
L 548.129627 417.647927 
L 548.237133 458.836499 
L 548.267849 452.833478 
L 548.298566 476.089519 
L 548.336961 427.819504 
L 548.359998 415.185938 
L 548.42911 446.786356 
L 548.459826 473.704819 
L 548.5059 419.482428 
L 548.521258 408.612036 
L 548.575012 433.175971 
L 548.613407 417.702327 
L 548.621086 417.074549 
L 548.66716 421.886295 
L 548.682518 423.768223 
L 548.705555 413.152064 
L 548.736272 400.485855 
L 548.797704 425.956838 
L 548.813062 443.934532 
L 548.897532 417.860742 
L 548.905211 417.017967 
L 548.91289 420.344982 
L 548.958964 469.789764 
L 549.005038 418.081806 
L 549.028076 427.127305 
L 549.112545 455.687474 
L 549.07415 423.47651 
L 549.135582 432.564507 
L 549.158619 413.853584 
L 549.243089 434.858594 
L 549.266126 447.712044 
L 549.304521 424.7712 
L 549.342917 425.768326 
L 549.373633 420.904764 
L 549.388991 427.522553 
L 549.435065 453.594364 
L 549.488819 426.555141 
L 549.519535 408.562102 
L 549.596325 427.491292 
L 549.619363 446.527345 
L 549.673116 418.55868 
L 549.696153 420.622203 
L 549.88045 472.04282 
L 549.911167 451.171994 
L 549.941883 409.174487 
L 550.026352 438.482878 
L 550.110822 476.402462 
L 550.149217 454.369201 
L 550.28744 408.858871 
L 550.318156 405.436802 
L 550.379589 411.650317 
L 550.494774 447.778622 
L 550.617639 486.374689 
L 550.571565 424.860892 
L 550.632997 482.252667 
L 550.702109 400.505123 
L 550.848011 408.81518 
L 550.947838 433.713316 
L 550.978555 418.06752 
L 551.024629 422.194768 
L 551.109099 406.908317 
L 551.139815 412.378096 
L 551.301075 445.363711 
L 551.308754 442.173604 
L 551.370186 413.370363 
L 551.446977 419.941966 
L 551.516088 463.581275 
L 551.600558 448.314195 
L 551.623595 438.826865 
L 551.692706 459.07703 
L 551.754139 482.169614 
L 551.815571 469.664838 
L 551.82325 469.972553 
L 551.846288 467.472395 
L 551.961473 414.591295 
L 552.084338 418.306346 
L 552.122733 458.959832 
L 552.23024 528.467616 
L 552.245598 502.948088 
L 552.376142 417.387961 
L 552.383821 417.609081 
L 552.414537 431.789624 
L 552.460612 508.776073 
L 552.514365 420.825693 
L 552.537402 410.843832 
L 552.568118 449.03636 
L 552.614193 525.300836 
L 552.667946 428.145748 
L 552.706341 421.120821 
L 552.744737 434.331683 
L 552.775453 425.925776 
L 552.806169 443.435732 
L 552.87528 456.467119 
L 552.836885 441.478074 
L 552.921355 449.95524 
L 553.013503 421.51322 
L 553.059578 431.56655 
L 553.243875 475.719109 
L 553.266912 453.929861 
L 553.359061 406.182545 
L 553.397456 423.157936 
L 553.474246 445.224936 
L 553.428172 417.79757 
L 553.497284 429.848365 
L 553.558716 414.15006 
L 553.60479 430.306192 
L 553.658544 420.425941 
L 553.743013 454.177407 
L 553.758371 458.050476 
L 553.789088 427.36022 
L 553.873557 415.263145 
L 553.827483 429.067338 
L 553.896594 428.302438 
L 553.919631 457.260098 
L 553.996422 417.22496 
L 554.057854 407.780908 
L 554.119287 411.944786 
L 554.272868 456.415517 
L 554.17304 407.103047 
L 554.311263 440.884015 
L 554.426449 423.627899 
L 554.449486 429.591367 
L 554.457165 430.883986 
L 554.487881 418.55003 
L 554.49556 418.745356 
L 554.503239 418.957996 
L 554.518598 417.056862 
L 554.549314 413.384266 
L 554.572351 423.305222 
L 554.587709 439.823395 
L 554.687537 431.030681 
L 554.718253 435.34779 
L 554.748969 457.30677 
L 554.810401 425.161533 
L 554.856476 405.725054 
L 554.910229 426.190452 
L 555.017736 446.976763 
L 554.971662 416.620136 
L 555.040773 438.164003 
L 555.117564 409.448787 
L 555.155959 430.295841 
L 555.22507 442.421537 
L 555.278824 441.574553 
L 555.347935 413.715007 
L 555.417047 429.65319 
L 555.478479 458.420839 
L 555.539911 440.656008 
L 555.685813 409.240604 
L 555.71653 425.827502 
L 555.808678 437.527157 
L 555.770283 421.485738 
L 555.824036 429.330002 
L 555.847073 423.700867 
L 555.87779 444.789587 
L 555.893148 448.999988 
L 555.95458 429.000472 
L 555.969938 421.47952 
L 556.023692 456.593981 
L 556.062087 478.249804 
L 556.108161 433.030528 
L 556.138877 413.800634 
L 556.177273 450.566565 
L 556.20031 445.636917 
L 556.254063 456.638354 
L 556.353891 531.487475 
L 556.307817 454.769063 
L 556.384607 483.44796 
L 556.52283 420.331277 
L 556.530509 415.987872 
L 556.591941 442.177931 
L 556.630337 476.299023 
L 556.714806 472.98772 
L 556.868387 422.52146 
L 556.883745 427.130168 
L 557.021968 453.352024 
L 556.937499 418.25823 
L 557.029647 452.000806 
L 557.060364 453.135287 
L 557.075722 445.092223 
L 557.129475 399.21842 
L 557.190908 425.498685 
L 557.206266 421.0462 
L 557.275377 408.51951 
L 557.306093 427.811368 
L 557.321451 432.7151 
L 557.367526 399.190854 
L 557.390563 404.407668 
L 557.444316 459.412797 
L 557.528786 426.812176 
L 557.73612 468.413832 
L 557.590218 417.721441 
L 557.743799 462.846484 
L 557.905059 402.28601 
L 557.951134 469.647606 
L 558.089357 437.383136 
L 558.150789 410.227096 
L 558.196863 432.68193 
L 558.235259 459.072852 
L 558.265975 429.738787 
L 558.319728 446.019573 
L 558.442593 422.154028 
L 558.450272 425.910664 
L 558.496346 498.897937 
L 558.565458 437.44586 
L 558.611532 425.484586 
L 558.680644 435.989176 
L 558.780471 442.281344 
L 558.749755 431.100666 
L 558.78815 439.132422 
L 558.864941 421.890317 
L 558.895657 435.805943 
L 558.926373 461.67163 
L 558.980127 427.115086 
L 559.003164 434.075969 
L 559.064596 480.674913 
L 559.087633 501.819666 
L 559.141387 443.434777 
L 559.156745 449.091623 
L 559.264251 475.63902 
L 559.218177 429.233929 
L 559.27961 470.919653 
L 559.318005 435.468395 
L 559.379437 467.544893 
L 559.410153 496.058729 
L 559.486944 471.514563 
L 559.540697 448.26813 
L 559.60213 464.734862 
L 559.67892 497.322401 
L 559.709636 469.320758 
L 559.778748 414.38651 
L 559.832501 434.537527 
L 559.847859 444.458256 
L 559.878576 426.650441 
L 559.92465 426.8339 
L 559.955366 414.580669 
L 559.993761 448.310046 
L 560.00144 448.470502 
L 560.08591 500.831727 
L 560.147342 467.575515 
L 560.178059 473.264165 
L 560.224133 467.878918 
L 560.316282 418.394055 
L 560.370035 433.27483 
L 560.4929 484.136273 
L 560.500579 478.164723 
L 560.592727 440.550929 
L 560.623444 447.038327 
L 560.684876 473.499974 
L 560.715592 441.851104 
L 560.807741 429.219146 
L 560.761667 460.620493 
L 560.830778 439.304469 
L 560.861494 456.548798 
L 560.938285 439.315985 
L 561.022754 425.05019 
L 560.984359 457.504334 
L 561.038112 434.156498 
L 561.091866 420.643751 
L 561.160977 459.798041 
L 561.22241 465.361295 
L 561.360633 417.605253 
L 561.406707 446.569021 
L 561.552609 509.875199 
L 561.452781 427.261266 
L 561.560288 506.878266 
L 561.652437 415.120885 
L 561.690832 457.035452 
L 561.759943 489.91406 
L 561.729227 445.299065 
L 561.790659 459.677127 
L 561.944241 409.518319 
L 561.95192 413.221161 
L 562.059426 484.325636 
L 562.082463 457.639831 
L 562.097822 444.311552 
L 562.151575 464.789735 
L 562.18997 457.990788 
L 562.213007 445.649467 
L 562.251403 407.392076 
L 562.320514 447.424927 
L 562.481774 492.844184 
L 562.489453 482.877996 
L 562.543207 449.95267 
L 562.604639 468.292034 
L 562.67375 480.00547 
L 562.696788 456.897923 
L 562.765899 433.139575 
L 562.788936 466.437817 
L 562.811973 476.957725 
L 562.865727 440.39941 
L 562.881085 435.780357 
L 562.965554 440.041407 
L 562.988592 459.407833 
L 563.057703 430.769454 
L 563.08074 419.876226 
L 563.119135 456.605267 
L 563.142173 443.389096 
L 563.149852 443.394104 
L 563.211284 459.396728 
L 563.234321 441.135206 
L 563.249679 459.154168 
L 563.280395 527.806599 
L 563.364865 486.468367 
L 563.395581 451.943635 
L 563.472372 464.978015 
L 563.495409 520.669639 
L 563.579879 459.625771 
L 563.595237 460.518792 
L 563.610595 456.41646 
L 563.73346 439.50357 
L 563.702743 458.573835 
L 563.741139 440.832822 
L 563.764176 451.161776 
L 563.802571 425.594844 
L 563.817929 421.861957 
L 563.840966 444.551094 
L 563.871682 463.061857 
L 563.948473 451.24559 
L 563.97151 440.655505 
L 564.032943 470.775225 
L 564.048301 473.21642 
L 564.109733 462.523314 
L 564.209561 433.784057 
L 564.171165 479.431941 
L 564.240277 447.54064 
L 564.278672 491.064009 
L 564.317067 435.321694 
L 564.324747 429.286543 
L 564.355463 450.477538 
L 564.424574 437.70535 
L 564.562797 493.704227 
L 564.578155 474.345657 
L 564.601192 442.594854 
L 564.662625 514.234126 
L 564.670304 519.73307 
L 564.731736 492.738791 
L 564.762452 447.266344 
L 564.808527 532.18503 
L 564.839243 490.804861 
L 564.962108 440.39376 
L 565.02354 460.120962 
L 565.131047 486.845103 
L 565.054256 458.591834 
L 565.161763 468.733107 
L 565.1848 424.820859 
L 565.26927 476.553977 
L 565.323023 426.334778 
L 565.369098 482.198059 
L 565.392135 529.573797 
L 565.43053 448.416711 
L 565.476604 475.366768 
L 565.515 421.673655 
L 565.637864 434.855078 
L 565.75305 462.336825 
L 565.706976 428.742171 
L 565.768408 451.928618 
L 565.791445 426.557939 
L 565.875915 444.945612 
L 565.945026 485.184685 
L 565.968064 449.061631 
L 565.983422 422.799696 
L 566.014138 451.557221 
L 566.07557 449.262128 
L 566.090928 451.026065 
L 566.121645 441.594728 
L 566.137003 427.529966 
L 566.206114 447.915939 
L 566.229151 444.991209 
L 566.267547 453.826275 
L 566.290584 441.953598 
L 566.390411 415.64513 
L 566.344337 443.305313 
L 566.459523 426.694962 
L 566.513276 469.97868 
L 566.543992 421.40292 
L 566.56703 431.31437 
L 566.597746 413.661124 
L 566.682215 422.938966 
L 566.789722 452.670193 
L 566.797401 450.733272 
L 566.828117 425.492481 
L 566.866513 486.959668 
L 566.88955 476.704809 
L 566.981698 427.79201 
L 567.020094 465.380825 
L 567.058489 489.080537 
L 567.104563 440.441928 
L 567.135279 475.266236 
L 567.165996 432.298748 
L 567.219749 498.717176 
L 567.235107 497.440952 
L 567.365651 435.948652 
L 567.404046 462.023553 
L 567.427083 485.854444 
L 567.496195 428.292721 
L 567.519232 425.008186 
L 567.53459 438.249625 
L 567.557627 459.969896 
L 567.634418 426.860687 
L 567.726566 416.951218 
L 567.688171 435.404036 
L 567.757283 421.821888 
L 567.772641 426.251524 
L 567.803357 405.382683 
L 567.826394 408.880593 
L 567.849431 407.02809 
L 567.85711 409.289084 
L 567.910864 467.500907 
L 567.979975 416.657507 
L 568.003012 411.959643 
L 568.026049 435.126354 
L 568.164272 500.221224 
L 568.072124 427.751017 
L 568.17963 484.754148 
L 568.218026 430.083465 
L 568.294816 449.355294 
L 568.302495 452.202799 
L 568.333212 426.616572 
L 568.356249 431.730417 
L 568.386965 406.560172 
L 568.456076 430.619631 
L 568.486793 468.998895 
L 568.517509 426.503736 
L 568.555904 432.985885 
L 568.58662 403.685561 
L 568.67109 416.485398 
L 568.678769 414.134555 
L 568.694127 435.586184 
L 568.709485 465.570357 
L 568.778597 429.526612 
L 568.809313 452.114534 
L 568.83235 450.003643 
L 568.870745 471.721928 
L 568.878424 474.513877 
L 568.901461 443.567648 
L 568.932178 418.44261 
L 569.016647 436.83548 
L 569.024326 435.829302 
L 569.039684 443.210718 
L 569.055042 450.04993 
L 569.085759 424.040313 
L 569.131833 435.221216 
L 569.15487 427.933535 
L 569.193265 454.707238 
L 569.200944 458.772262 
L 569.262377 434.443795 
L 569.323809 451.926815 
L 569.354525 513.048932 
L 569.423637 443.765653 
L 569.531144 406.283354 
L 569.56186 418.890828 
L 569.63865 451.136315 
L 569.684725 430.576825 
L 569.700083 426.533591 
L 569.715441 441.328074 
L 569.807589 477.316268 
L 569.822948 455.61554 
L 569.907417 423.070099 
L 569.938133 448.370934 
L 569.984208 483.092175 
L 570.060998 464.369357 
L 570.122431 439.30984 
L 570.160826 470.157429 
L 570.168505 470.765367 
L 570.176184 466.340465 
L 570.214579 424.95517 
L 570.299049 429.428972 
L 570.314407 426.641554 
L 570.352802 443.460803 
L 570.36816 465.855264 
L 570.45263 427.850014 
L 570.467988 425.503814 
L 570.491025 436.966588 
L 570.498704 443.088672 
L 570.52942 421.319275 
L 570.606211 441.849717 
L 570.729076 420.81477 
L 570.659964 470.707826 
L 570.736755 422.117454 
L 570.782829 462.927058 
L 570.821224 415.57048 
L 570.85962 436.938253 
L 570.867299 435.50883 
L 570.882657 448.838639 
L 570.905694 459.874476 
L 570.951768 438.131105 
L 570.982484 445.13882 
L 571.028559 420.614338 
L 571.074633 447.779167 
L 571.113028 462.023106 
L 571.166782 442.622752 
L 571.18214 426.916544 
L 571.25893 448.131436 
L 571.274288 441.386282 
L 571.328042 406.698609 
L 571.397153 428.130442 
L 571.42019 445.765108 
L 571.458586 407.799867 
L 571.520018 442.551291 
L 571.543055 432.442319 
L 571.558413 453.610582 
L 571.566092 458.541473 
L 571.635204 439.670995 
L 571.650562 433.976636 
L 571.688957 466.686683 
L 571.711994 470.375429 
L 571.719673 459.88199 
L 571.781106 414.006418 
L 571.842538 416.947405 
L 571.850217 415.289946 
L 571.865575 430.938428 
L 571.950045 461.801762 
L 571.980761 448.606793 
L 572.057552 421.504052 
L 572.080589 461.090808 
L 572.103626 491.553926 
L 572.142021 422.412073 
L 572.172737 429.212925 
L 572.195775 430.602499 
L 572.218812 424.769563 
L 572.264886 418.819241 
L 572.280244 432.013765 
L 572.357035 460.106886 
L 572.318639 411.65464 
L 572.39543 449.358668 
L 572.418467 428.397893 
L 572.464541 460.901403 
L 572.495258 447.690231 
L 572.510616 463.69541 
L 572.564369 413.88209 
L 572.587406 424.134713 
L 572.794741 456.622971 
L 572.618122 421.450678 
L 572.833136 446.395022 
L 572.856173 429.28281 
L 572.925284 454.371436 
L 572.956001 429.464763 
L 572.971359 428.199373 
L 573.063507 407.037722 
L 573.12494 421.504517 
L 573.194051 435.413643 
L 573.232446 422.501709 
L 573.270842 409.806948 
L 573.301558 430.143227 
L 573.355311 415.112259 
L 573.36299 414.038559 
L 573.378348 425.934832 
L 573.44746 456.301313 
L 573.501213 432.57285 
L 573.508892 429.222782 
L 573.539609 459.080695 
L 573.585683 440.689202 
L 573.616399 474.624653 
L 573.677831 430.099731 
L 573.69319 433.084299 
L 573.76998 498.236018 
L 573.800696 445.026526 
L 573.839092 424.278029 
L 573.892845 468.221926 
L 573.900524 468.137835 
L 573.93124 410.55509 
L 573.992673 473.354959 
L 574.008031 496.74276 
L 574.084821 436.542781 
L 574.184649 408.364453 
L 574.215365 415.721278 
L 574.25376 418.970939 
L 574.261439 416.869446 
L 574.299835 405.674617 
L 574.322872 431.329328 
L 574.330551 441.249094 
L 574.399662 418.594665 
L 574.422699 427.953208 
L 574.445737 418.969252 
L 574.476453 440.574812 
L 574.622355 490.11066 
L 574.630034 483.835767 
L 574.676108 420.948814 
L 574.752899 448.058772 
L 574.791294 472.290755 
L 574.837368 443.326845 
L 574.875764 410.159007 
L 574.944875 434.517074 
L 575.021666 457.33654 
L 575.075419 445.967311 
L 575.121493 428.225753 
L 575.159888 449.643758 
L 575.205963 430.176541 
L 575.236679 458.887449 
L 575.328828 446.446644 
L 575.351865 439.613608 
L 575.359544 444.91983 
L 575.382581 473.454762 
L 575.467051 442.103161 
L 575.47473 440.774774 
L 575.490088 452.117334 
L 575.605273 460.751612 
L 575.697422 435.470554 
L 575.705101 432.14659 
L 575.735817 464.276649 
L 575.758854 469.496458 
L 575.774213 458.221432 
L 575.851003 471.125922 
L 575.897077 426.688434 
L 575.904756 424.721741 
L 575.95851 437.931371 
L 575.973868 443.81962 
L 576.027621 418.42525 
L 576.042979 411.118292 
L 576.058337 436.937881 
L 576.081375 492.303442 
L 576.127449 432.283543 
L 576.165844 451.265334 
L 576.219598 433.552352 
L 576.257993 454.826301 
L 576.265672 453.322576 
L 576.288709 458.718717 
L 576.311746 443.279493 
L 576.357821 411.914937 
L 576.388537 454.355115 
L 576.419253 434.902432 
L 576.542118 461.518241 
L 576.457648 415.081709 
L 576.549797 461.057862 
L 576.595871 423.2325 
L 576.649624 458.325024 
L 576.680341 477.409384 
L 576.741773 458.01731 
L 576.818564 411.61528 
L 576.856959 445.026824 
L 576.956787 481.235924 
L 576.92607 431.767747 
L 576.972145 468.409745 
L 577.056614 433.50605 
L 577.095009 448.274507 
L 577.156442 463.288588 
L 577.1718 445.790072 
L 577.240911 410.771847 
L 577.210195 456.610781 
L 577.286986 416.415797 
L 577.325381 477.839974 
L 577.41753 447.308482 
L 577.478962 413.149589 
L 577.509678 447.542705 
L 577.525036 467.996169 
L 577.586469 436.475061 
L 577.617185 455.835085 
L 577.717013 404.379518 
L 577.770766 432.956217 
L 577.809161 466.526895 
L 577.862915 430.16407 
L 577.885952 440.711168 
L 577.985779 413.94419 
L 577.947384 446.34036 
L 578.008817 431.017004 
L 578.047212 491.445689 
L 578.085607 416.076689 
L 578.093286 411.380058 
L 578.108644 443.374393 
L 578.131681 513.900124 
L 578.193114 414.625517 
L 578.208472 414.722989 
L 578.231509 406.612129 
L 578.254546 439.532553 
L 578.300621 423.386175 
L 578.3083 423.254451 
L 578.431164 474.081437 
L 578.438844 467.915558 
L 578.523313 417.945736 
L 578.561708 434.513529 
L 578.615462 420.550426 
L 578.638499 440.102056 
L 578.661536 454.624807 
L 578.692252 431.764119 
L 578.738327 434.040937 
L 578.746006 433.342407 
L 578.761364 439.496732 
L 578.838154 430.61228 
L 578.861191 445.346429 
L 578.884229 421.365853 
L 578.961019 445.956688 
L 578.984056 428.278708 
L 579.168353 471.589658 
L 579.022451 420.436474 
L 579.206749 458.134623 
L 579.314255 411.075632 
L 579.329614 430.306855 
L 579.368009 476.996838 
L 579.391046 423.137258 
L 579.429441 441.468817 
L 579.467836 407.899704 
L 579.544627 423.67365 
L 579.613738 506.59925 
L 579.583022 415.980296 
L 579.652134 420.876111 
L 579.675171 406.579167 
L 579.728924 422.448349 
L 579.75964 418.498826 
L 579.805715 470.388408 
L 579.874826 439.722385 
L 579.890184 439.289734 
L 579.897863 442.359468 
L 579.913221 454.029922 
L 579.982333 427.619642 
L 580.013049 411.598582 
L 580.059123 446.778085 
L 580.066802 450.7537 
L 580.112877 423.196411 
L 580.128235 426.104487 
L 580.135914 424.865374 
L 580.158951 434.76659 
L 580.189667 482.870412 
L 580.258779 434.426077 
L 580.32789 410.309282 
L 580.304853 441.954293 
L 580.373965 415.311339 
L 580.397002 430.887896 
L 580.420039 475.006636 
L 580.504508 424.125902 
L 580.588978 461.311673 
L 580.635052 434.150123 
L 580.742559 455.216171 
L 580.696485 429.738606 
L 580.757917 446.700828 
L 580.788633 408.790775 
L 580.857745 454.016373 
L 580.865424 451.805063 
L 580.972931 414.189974 
L 580.988289 431.415972 
L 581.042042 486.662044 
L 581.103474 441.762845 
L 581.14187 417.898533 
L 581.203302 443.600638 
L 581.264735 466.868127 
L 581.241697 434.592604 
L 581.30313 450.412853 
L 581.318488 420.554911 
L 581.395278 491.426684 
L 581.402957 501.900765 
L 581.456711 426.124525 
L 581.502785 444.500176 
L 581.479748 425.324207 
L 581.579576 429.682714 
L 581.633329 427.074194 
L 581.602613 434.526692 
L 581.664045 432.448658 
L 581.687082 447.887594 
L 581.725478 430.577639 
L 581.748515 431.542822 
L 581.832984 415.189211 
L 581.794589 450.195865 
L 581.848342 425.849671 
L 581.894417 470.612869 
L 581.925133 417.57198 
L 581.971207 449.654166 
L 581.986565 436.746131 
L 582.001924 474.988861 
L 582.071035 449.081901 
L 582.140146 501.391265 
L 582.094072 446.449557 
L 582.186221 454.789696 
L 582.232295 441.532927 
L 582.255332 473.982039 
L 582.27069 473.958338 
L 582.278369 477.994062 
L 582.309086 440.371546 
L 582.439629 417.176107 
L 582.339802 453.843155 
L 582.447309 417.259711 
L 582.485704 475.695221 
L 582.570173 439.633175 
L 582.585531 409.591294 
L 582.654643 455.745589 
L 582.67768 430.661963 
L 582.76215 472.150884 
L 582.792866 436.802879 
L 582.808224 420.779804 
L 582.885014 463.516073 
L 582.915731 428.174993 
L 582.969484 489.136601 
L 582.977163 488.905299 
L 583.100028 450.016619 
L 583.115386 454.500404 
L 583.192177 526.813632 
L 583.16146 450.447409 
L 583.230572 459.24868 
L 583.24593 452.586959 
L 583.292004 477.723869 
L 583.368795 488.006408 
L 583.315041 456.83113 
L 583.376474 484.58773 
L 583.430227 432.959611 
L 583.499339 445.835342 
L 583.522376 482.954557 
L 583.583808 428.243876 
L 583.645241 419.575175 
L 583.668278 433.476213 
L 583.675957 433.88802 
L 583.698994 419.617286 
L 583.775784 439.027789 
L 583.875612 455.789624 
L 583.837217 435.88379 
L 583.914007 445.283446 
L 583.921686 441.164651 
L 583.937045 465.594524 
L 583.998477 510.996835 
L 583.967761 440.818109 
L 584.044551 468.867105 
L 584.105984 421.277962 
L 584.175095 434.406294 
L 584.205811 459.7588 
L 584.244207 512.699392 
L 584.313318 456.013055 
L 584.397788 418.239995 
L 584.37475 474.372469 
L 584.436183 440.866272 
L 584.520652 458.670628 
L 584.482257 416.467894 
L 584.54369 444.803878 
L 584.582085 422.467196 
L 584.628159 415.749911 
L 584.658875 433.043979 
L 584.697271 498.137367 
L 584.751024 429.602657 
L 584.78174 442.758293 
L 584.789419 442.75295 
L 584.827815 452.803175 
L 584.850852 471.269501 
L 584.904605 431.11412 
L 584.912284 423.147384 
L 584.989075 455.424398 
L 584.996754 449.089423 
L 585.088902 485.166292 
L 585.042828 432.990961 
L 585.10426 468.799865 
L 585.18873 426.778096 
L 585.227125 428.810521 
L 585.234804 428.108386 
L 585.242483 433.445547 
L 585.280879 502.518831 
L 585.365348 463.461499 
L 585.403743 471.554076 
L 585.457497 423.629724 
L 585.503571 404.579791 
L 585.541966 441.014236 
L 585.557324 477.223589 
L 585.626436 417.136768 
L 585.649473 428.455592 
L 585.664831 413.163727 
L 585.687868 467.881967 
L 585.703226 507.805391 
L 585.75698 421.698053 
L 585.780017 423.543713 
L 585.787696 421.763511 
L 585.795375 435.151214 
L 585.810733 489.04609 
L 585.902882 461.412464 
L 585.948956 420.125634 
L 586.002709 477.602238 
L 586.010388 485.319364 
L 586.018068 437.403141 
L 586.071821 437.979118 
L 589.058972 437.758789 
L 589.750087 437.791866 
L 594.349839 438.36408 
L 598.619391 437.730434 
L 602.098002 437.346513 
L 603.580059 437.149677 
L 608.364108 437.267365 
L 611.719854 438.097458 
L 612.894748 438.321166 
L 615.766714 438.602881 
L 616.619089 439.005225 
L 618.093466 439.24632 
L 620.420219 439.538906 
L 623.345938 439.170825 
L 626.141113 438.014492 
L 627.093315 438.075576 
L 634.757009 438.608744 
L 640.547014 439.224883 
L 646.444525 439.876698 
L 660.934896 440.29592 
L 663.799182 440.181823 
L 665.634475 439.755224 
L 669.212914 438.663983 
L 671.163393 437.667815 
L 674.058395 436.19554 
L 676.016553 435.540872 
L 678.804049 434.868172 
L 682.044609 434.127779 
L 683.57274 433.452344 
L 684.471189 432.802928 
L 685.722875 431.536302 
L 687.611921 429.546934 
L 688.448938 429.085146 
L 689.40114 428.820866 
L 692.219352 428.210468 
L 694.369487 427.140622 
L 695.897618 426.174008 
L 697.387354 425.252416 
L 698.87709 424.294147 
L 700.551123 423.090464 
L 701.879599 422.45727 
L 702.885555 422.206998 
L 703.553633 421.881981 
L 705.189271 421.098957 
L 706.141473 420.816125 
L 708.829141 419.579944 
L 709.881171 419.363989 
L 712.038985 418.226732 
L 714.826481 416.715926 
L 716.354612 416.118801 
L 717.468074 415.567965 
L 719.44927 414.511847 
L 732.311681 408.296111 
L 746.901879 399.718955 
L 747.823366 398.824653 
L 748.552876 398.319414 
L 752.776354 395.890722 
L 755.586887 393.932595 
L 759.065497 391.21872 
L 761.054372 389.486864 
L 765.055158 385.581175 
L 766.959562 383.195521 
L 772.188997 376.599936 
L 775.022567 373.143783 
L 777.349319 369.774642 
L 779.745183 366.297648 
L 781.672625 363.40071 
L 784.367973 358.926086 
L 786.710083 355.225417 
L 787.854262 353.544725 
L 788.898613 351.446514 
L 791.279119 346.685797 
L 792.146852 345.207769 
L 792.991548 343.139807 
L 797.34557 331.636351 
L 799.111752 325.794279 
L 803.90348 310.171891 
L 805.470007 305.539572 
L 807.067249 300.180759 
L 808.341972 296.064622 
L 809.394002 292.656866 
L 810.70712 287.217553 
L 812.304363 280.809096 
L 813.417825 276.843836 
L 814.423781 272.223457 
L 819.061928 247.347629 
L 823.408271 218.935419 
L 831.870586 169.276126 
L 836.13246 145.282746 
L 837.483973 136.307666 
L 839.61107 120.252848 
L 839.879837 115.670397 
L 839.879837 115.670397 
" clip-path="url(#p7a5eb60efd)" style="fill: none; stroke: #510ac9; stroke-width: 5; stroke-linecap: square"/>
   </g>
   <g id="patch_3">
    <path d="M 71.99 566.88 
L 71.99 57.914 
" style="fill: none; stroke: #000000; stroke-width: 0.8; stroke-linejoin: miter; stroke-linecap: square"/>
   </g>
   <g id="patch_4">
    <path d="M 844 566.88 
L 844 57.914 
" style="fill: none; stroke: #000000; stroke-width: 0.8; stroke-linejoin: miter; stroke-linecap: square"/>
   </g>
   <g id="patch_5">
    <path d="M 71.99 566.88 
L 844 566.88 
" style="fill: none; stroke: #000000; stroke-width: 0.8; stroke-linejoin: miter; stroke-linecap: square"/>
   </g>
   <g id="patch_6">
    <path d="M 71.99 57.914 
L 844 57.914 
" style="fill: none; stroke: #000000; stroke-width: 0.8; stroke-linejoin: miter; stroke-linecap: square"/>
   </g>
   <g id="text_18">
    <!-- Neutron reproduction factor -->
    <g transform="translate(275.845781 39.18985) scale(0.3 -0.3)">
     <use xlink:href="#Aptos-4e"/>
     <use xlink:href="#Aptos-65" transform="translate(70.605469 0)"/>
     <use xlink:href="#Aptos-75" transform="translate(123.291016 0)"/>
     <use xlink:href="#Aptos-74" transform="translate(179.150391 0)"/>
     <use xlink:href="#Aptos-72" transform="translate(211.474609 0)"/>
     <use xlink:href="#Aptos-6f" transform="translate(244.921875 0)"/>
     <use xlink:href="#Aptos-6e" transform="translate(300.097656 0)"/>
     <use xlink:href="#Aptos-20" transform="translate(355.224609 0)"/>
     <use xlink:href="#Aptos-72" transform="translate(375.537109 0)"/>
     <use xlink:href="#Aptos-65" transform="translate(408.984375 0)"/>
     <use xlink:href="#Aptos-70" transform="translate(461.669922 0)"/>
     <use xlink:href="#Aptos-72" transform="translate(517.773438 0)"/>
     <use xlink:href="#Aptos-6f" transform="translate(551.220703 0)"/>
     <use xlink:href="#Aptos-64" transform="translate(606.396484 0)"/>
     <use xlink:href="#Aptos-75" transform="translate(662.451172 0)"/>
     <use xlink:href="#Aptos-63" transform="translate(718.310547 0)"/>
     <use xlink:href="#Aptos-74" transform="translate(770.800781 0)"/>
     <use xlink:href="#Aptos-69" transform="translate(803.125 0)"/>
     <use xlink:href="#Aptos-6f" transform="translate(827.001953 0)"/>
     <use xlink:href="#Aptos-6e" transform="translate(882.177734 0)"/>
     <use xlink:href="#Aptos-20" transform="translate(937.304688 0)"/>
     <use xlink:href="#Aptos-66" transform="translate(957.617188 0)"/>
     <use xlink:href="#Aptos-61" transform="translate(987.744141 0)"/>
     <use xlink:href="#Aptos-63" transform="translate(1040.869141 0)"/>
     <use xlink:href="#Aptos-74" transform="translate(1093.359375 0)"/>
     <use xlink:href="#Aptos-6f" transform="translate(1125.683594 0)"/>
     <use xlink:href="#Aptos-72" transform="translate(1180.859375 0)"/>
    </g>
   </g>
   <g id="legend_1">
    <g id="patch_7">
     <path d="M 721.6 102.114 
L 830 102.114 
Q 834 102.114 834 98.114 
L 834 71.914 
Q 834 67.914 830 67.914 
L 721.6 67.914 
Q 717.6 67.914 717.6 71.914 
L 717.6 98.114 
Q 717.6 102.114 721.6 102.114 
z
" style="fill: #ffffff; opacity: 0.95; stroke: #cccccc; stroke-linejoin: miter"/>
    </g>
    <g id="line2d_32">
     <path d="M 725.6 83.617125 
L 745.6 83.617125 
L 765.6 83.617125 
" style="fill: none; stroke: #510ac9; stroke-width: 5; stroke-linecap: square"/>
    </g>
    <g id="text_19">
     <!-- $\mathrm{^{235}U}$ -->
     <g transform="translate(781.6 90.617125) scale(0.2 -0.2)">
      <defs>
       <path id="DejaVuSerif-32" d="M 819 3553 
L 469 3553 
L 469 4384 
Q 803 4563 1142 4656 
Q 1481 4750 1806 4750 
Q 2534 4750 2956 4397 
Q 3378 4044 3378 3438 
Q 3378 2753 2422 1800 
Q 2347 1728 2309 1691 
L 1131 513 
L 3078 513 
L 3078 1088 
L 3444 1088 
L 3444 0 
L 434 0 
L 434 341 
L 1850 1753 
Q 2319 2222 2519 2614 
Q 2719 3006 2719 3438 
Q 2719 3909 2473 4175 
Q 2228 4441 1797 4441 
Q 1350 4441 1106 4219 
Q 863 3997 819 3553 
z
" transform="scale(0.015625)"/>
       <path id="DejaVuSerif-33" d="M 622 4469 
Q 988 4606 1323 4678 
Q 1659 4750 1953 4750 
Q 2638 4750 3022 4454 
Q 3406 4159 3406 3634 
Q 3406 3213 3140 2930 
Q 2875 2647 2388 2547 
Q 2963 2466 3280 2130 
Q 3597 1794 3597 1259 
Q 3597 606 3158 257 
Q 2719 -91 1894 -91 
Q 1528 -91 1179 -12 
Q 831 66 488 225 
L 488 1131 
L 838 1131 
Q 869 681 1141 450 
Q 1413 219 1906 219 
Q 2384 219 2661 495 
Q 2938 772 2938 1253 
Q 2938 1803 2653 2086 
Q 2369 2369 1819 2369 
L 1522 2369 
L 1522 2688 
L 1678 2688 
Q 2225 2688 2498 2914 
Q 2772 3141 2772 3597 
Q 2772 4006 2547 4223 
Q 2322 4441 1900 4441 
Q 1478 4441 1245 4241 
Q 1013 4041 972 3647 
L 622 3647 
L 622 4469 
z
" transform="scale(0.015625)"/>
       <path id="DejaVuSerif-35" d="M 3219 4666 
L 3219 4153 
L 1081 4153 
L 1081 2816 
Q 1244 2928 1461 2984 
Q 1678 3041 1947 3041 
Q 2703 3041 3140 2622 
Q 3578 2203 3578 1478 
Q 3578 738 3136 323 
Q 2694 -91 1894 -91 
Q 1572 -91 1234 -12 
Q 897 66 544 225 
L 544 1131 
L 897 1131 
Q 925 688 1179 453 
Q 1434 219 1894 219 
Q 2388 219 2653 544 
Q 2919 869 2919 1478 
Q 2919 2084 2655 2407 
Q 2391 2731 1894 2731 
Q 1613 2731 1398 2631 
Q 1184 2531 1019 2322 
L 750 2322 
L 750 4666 
L 3219 4666 
z
" transform="scale(0.015625)"/>
       <path id="DejaVuSerif-55" d="M 897 4331 
L 300 4331 
L 300 4666 
L 2125 4666 
L 2125 4331 
L 1528 4331 
L 1528 1919 
Q 1528 1025 1820 672 
Q 2113 319 2828 319 
Q 3544 319 3836 672 
Q 4128 1025 4128 1919 
L 4128 4331 
L 3531 4331 
L 3531 4666 
L 5106 4666 
L 5106 4331 
L 4513 4331 
L 4513 1856 
Q 4513 791 4103 350 
Q 3694 -91 2713 -91 
Q 1731 -91 1314 353 
Q 897 797 897 1856 
L 897 4331 
z
" transform="scale(0.015625)"/>
      </defs>
      <use xlink:href="#DejaVuSerif-32" transform="translate(0.908359 37.046875) scale(0.7)"/>
      <use xlink:href="#DejaVuSerif-33" transform="translate(45.444492 37.046875) scale(0.7)"/>
      <use xlink:href="#DejaVuSerif-35" transform="translate(89.980625 37.046875) scale(0.7)"/>
      <use xlink:href="#DejaVuSerif-55" transform="translate(137.11207 0.7125)"/>
     </g>
    </g>
   </g>
  </g>
 </g>
 <defs>
  <clipPath id="p7a5eb60efd">
   <rect x="71.99" y="57.914" width="772.01" height="508.966"/>
  </clipPath>
 </defs>
</svg>
