<?xml version="1.0" encoding="utf-8" standalone="no"?>
<!DOCTYPE svg PUBLIC "-//W3C//DTD SVG 1.1//EN"
  "http://www.w3.org/Graphics/SVG/1.1/DTD/svg11.dtd">
<svg xmlns:xlink="http://www.w3.org/1999/xlink" width="864pt" height="648pt" viewBox="0 0 864 648" xmlns="http://www.w3.org/2000/svg" version="1.1">
 <metadata>
  <rdf:RDF xmlns:dc="http://purl.org/dc/elements/1.1/" xmlns:cc="http://creativecommons.org/ns#" xmlns:rdf="http://www.w3.org/1999/02/22-rdf-syntax-ns#">
   <cc:Work>
    <dc:type rdf:resource="http://purl.org/dc/dcmitype/StillImage"/>
    <dc:date>2025-10-21T14:38:18.298658</dc:date>
    <dc:format>image/svg+xml</dc:format>
    <dc:creator>
     <cc:Agent>
      <dc:title>Matplotlib v3.10.7, https://matplotlib.org/</dc:title>
     </cc:Agent>
    </dc:creator>
   </cc:Work>
  </rdf:RDF>
 </metadata>
 <defs>
  <style type="text/css">*{stroke-linejoin: round; stroke-linecap: butt}</style>
 </defs>
 <g id="figure_1">
  <g id="patch_1">
   <path d="M 0 648 
L 864 648 
L 864 0 
L 0 0 
z
" style="fill: #ffffff; stroke: #000000; stroke-width: 3; stroke-linejoin: miter"/>
  </g>
  <g id="axes_1">
   <g id="patch_2">
    <path d="M 76.4 560.571 
L 844 560.571 
L 844 62.234 
L 76.4 62.234 
L 76.4 560.571 
z
" style="fill: none"/>
   </g>
   <g id="matplotlib.axis_1">
    <g id="xtick_1">
     <g id="line2d_1">
      <path d="M 76.4 560.571 
L 76.4 62.234 
" clip-path="url(#pc2b0d68dcc)" style="fill: none; stroke-dasharray: 4.625,2; stroke-dashoffset: 0; stroke: #343837; stroke-opacity: 0.8; stroke-width: 1.25"/>
     </g>
     <g id="line2d_2">
      <defs>
       <path id="m3af9ae58b8" d="M 0 0 
L 0 3.5 
" style="stroke: #000000; stroke-width: 0.8"/>
      </defs>
      <g>
       <use xlink:href="#m3af9ae58b8" x="76.4" y="560.571" style="stroke: #000000; stroke-width: 0.8"/>
      </g>
     </g>
     <g id="text_1">
      <!-- $\mathdefault{10^{-11}}$ -->
      <g transform="translate(45.71 584.287562) scale(0.22 -0.22)">
       <defs>
        <path id="DejaVuSerif-31" d="M 909 0 
L 909 331 
L 1722 331 
L 1722 4213 
L 781 3603 
L 781 4013 
L 1919 4750 
L 2350 4750 
L 2350 331 
L 3163 331 
L 3163 0 
L 909 0 
z
" transform="scale(0.015625)"/>
        <path id="DejaVuSerif-30" d="M 2034 219 
Q 2513 219 2750 744 
Q 2988 1269 2988 2328 
Q 2988 3391 2750 3916 
Q 2513 4441 2034 4441 
Q 1556 4441 1318 3916 
Q 1081 3391 1081 2328 
Q 1081 1269 1318 744 
Q 1556 219 2034 219 
z
M 2034 -91 
Q 1275 -91 848 546 
Q 422 1184 422 2328 
Q 422 3475 848 4112 
Q 1275 4750 2034 4750 
Q 2797 4750 3222 4112 
Q 3647 3475 3647 2328 
Q 3647 1184 3222 546 
Q 2797 -91 2034 -91 
z
" transform="scale(0.015625)"/>
        <path id="DejaVuSerif-2212" d="M 678 2259 
L 4684 2259 
L 4684 1753 
L 678 1753 
L 678 2259 
z
" transform="scale(0.015625)"/>
       </defs>
       <use xlink:href="#DejaVuSerif-31" transform="translate(0 0.7125)"/>
       <use xlink:href="#DejaVuSerif-30" transform="translate(63.623047 0.7125)"/>
       <use xlink:href="#DejaVuSerif-2212" transform="translate(128.154453 37.046875) scale(0.7)"/>
       <use xlink:href="#DejaVuSerif-31" transform="translate(186.806797 37.046875) scale(0.7)"/>
       <use xlink:href="#DejaVuSerif-31" transform="translate(231.34293 37.046875) scale(0.7)"/>
      </g>
     </g>
    </g>
    <g id="xtick_2">
     <g id="line2d_3">
      <path d="M 198.78454 560.571 
L 198.78454 62.234 
" clip-path="url(#pc2b0d68dcc)" style="fill: none; stroke-dasharray: 4.625,2; stroke-dashoffset: 0; stroke: #343837; stroke-opacity: 0.8; stroke-width: 1.25"/>
     </g>
     <g id="line2d_4">
      <g>
       <use xlink:href="#m3af9ae58b8" x="198.78454" y="560.571" style="stroke: #000000; stroke-width: 0.8"/>
      </g>
     </g>
     <g id="text_2">
      <!-- $\mathdefault{10^{-9}}$ -->
      <g transform="translate(173.04454 584.287562) scale(0.22 -0.22)">
       <defs>
        <path id="DejaVuSerif-39" d="M 2994 2091 
Q 2784 1856 2512 1740 
Q 2241 1625 1900 1625 
Q 1206 1625 804 2044 
Q 403 2463 403 3188 
Q 403 3897 839 4323 
Q 1275 4750 2003 4750 
Q 2794 4750 3217 4161 
Q 3641 3572 3641 2478 
Q 3641 1253 3137 581 
Q 2634 -91 1722 -91 
Q 1475 -91 1203 -44 
Q 931 3 647 97 
L 647 872 
L 997 872 
Q 1038 556 1241 387 
Q 1444 219 1784 219 
Q 2391 219 2687 676 
Q 2984 1134 2994 2091 
z
M 1978 4441 
Q 1534 4441 1298 4117 
Q 1063 3794 1063 3188 
Q 1063 2581 1298 2256 
Q 1534 1931 1978 1931 
Q 2422 1931 2658 2245 
Q 2894 2559 2894 3150 
Q 2894 3772 2656 4106 
Q 2419 4441 1978 4441 
z
" transform="scale(0.015625)"/>
       </defs>
       <use xlink:href="#DejaVuSerif-31" transform="translate(0 0.7125)"/>
       <use xlink:href="#DejaVuSerif-30" transform="translate(63.623047 0.7125)"/>
       <use xlink:href="#DejaVuSerif-2212" transform="translate(128.154453 37.046875) scale(0.7)"/>
       <use xlink:href="#DejaVuSerif-39" transform="translate(186.806797 37.046875) scale(0.7)"/>
      </g>
     </g>
    </g>
    <g id="xtick_3">
     <g id="line2d_5">
      <path d="M 321.16908 560.571 
L 321.16908 62.234 
" clip-path="url(#pc2b0d68dcc)" style="fill: none; stroke-dasharray: 4.625,2; stroke-dashoffset: 0; stroke: #343837; stroke-opacity: 0.8; stroke-width: 1.25"/>
     </g>
     <g id="line2d_6">
      <g>
       <use xlink:href="#m3af9ae58b8" x="321.16908" y="560.571" style="stroke: #000000; stroke-width: 0.8"/>
      </g>
     </g>
     <g id="text_3">
      <!-- $\mathdefault{10^{-7}}$ -->
      <g transform="translate(295.42908 584.287562) scale(0.22 -0.22)">
       <defs>
        <path id="DejaVuSerif-37" d="M 3609 4347 
L 1784 0 
L 1319 0 
L 3059 4153 
L 903 4153 
L 903 3578 
L 538 3578 
L 538 4666 
L 3609 4666 
L 3609 4347 
z
" transform="scale(0.015625)"/>
       </defs>
       <use xlink:href="#DejaVuSerif-31" transform="translate(0 0.63125)"/>
       <use xlink:href="#DejaVuSerif-30" transform="translate(63.623047 0.63125)"/>
       <use xlink:href="#DejaVuSerif-2212" transform="translate(128.154453 36.965625) scale(0.7)"/>
       <use xlink:href="#DejaVuSerif-37" transform="translate(186.806797 36.965625) scale(0.7)"/>
      </g>
     </g>
    </g>
    <g id="xtick_4">
     <g id="line2d_7">
      <path d="M 443.553621 560.571 
L 443.553621 62.234 
" clip-path="url(#pc2b0d68dcc)" style="fill: none; stroke-dasharray: 4.625,2; stroke-dashoffset: 0; stroke: #343837; stroke-opacity: 0.8; stroke-width: 1.25"/>
     </g>
     <g id="line2d_8">
      <g>
       <use xlink:href="#m3af9ae58b8" x="443.553621" y="560.571" style="stroke: #000000; stroke-width: 0.8"/>
      </g>
     </g>
     <g id="text_4">
      <!-- $\mathdefault{10^{-5}}$ -->
      <g transform="translate(417.813621 584.287562) scale(0.22 -0.22)">
       <defs>
        <path id="DejaVuSerif-35" d="M 3219 4666 
L 3219 4153 
L 1081 4153 
L 1081 2816 
Q 1244 2928 1461 2984 
Q 1678 3041 1947 3041 
Q 2703 3041 3140 2622 
Q 3578 2203 3578 1478 
Q 3578 738 3136 323 
Q 2694 -91 1894 -91 
Q 1572 -91 1234 -12 
Q 897 66 544 225 
L 544 1131 
L 897 1131 
Q 925 688 1179 453 
Q 1434 219 1894 219 
Q 2388 219 2653 544 
Q 2919 869 2919 1478 
Q 2919 2084 2655 2407 
Q 2391 2731 1894 2731 
Q 1613 2731 1398 2631 
Q 1184 2531 1019 2322 
L 750 2322 
L 750 4666 
L 3219 4666 
z
" transform="scale(0.015625)"/>
       </defs>
       <use xlink:href="#DejaVuSerif-31" transform="translate(0 0.63125)"/>
       <use xlink:href="#DejaVuSerif-30" transform="translate(63.623047 0.63125)"/>
       <use xlink:href="#DejaVuSerif-2212" transform="translate(128.154453 36.965625) scale(0.7)"/>
       <use xlink:href="#DejaVuSerif-35" transform="translate(186.806797 36.965625) scale(0.7)"/>
      </g>
     </g>
    </g>
    <g id="xtick_5">
     <g id="line2d_9">
      <path d="M 565.938161 560.571 
L 565.938161 62.234 
" clip-path="url(#pc2b0d68dcc)" style="fill: none; stroke-dasharray: 4.625,2; stroke-dashoffset: 0; stroke: #343837; stroke-opacity: 0.8; stroke-width: 1.25"/>
     </g>
     <g id="line2d_10">
      <g>
       <use xlink:href="#m3af9ae58b8" x="565.938161" y="560.571" style="stroke: #000000; stroke-width: 0.8"/>
      </g>
     </g>
     <g id="text_5">
      <!-- $\mathdefault{10^{-3}}$ -->
      <g transform="translate(540.198161 584.287562) scale(0.22 -0.22)">
       <defs>
        <path id="DejaVuSerif-33" d="M 622 4469 
Q 988 4606 1323 4678 
Q 1659 4750 1953 4750 
Q 2638 4750 3022 4454 
Q 3406 4159 3406 3634 
Q 3406 3213 3140 2930 
Q 2875 2647 2388 2547 
Q 2963 2466 3280 2130 
Q 3597 1794 3597 1259 
Q 3597 606 3158 257 
Q 2719 -91 1894 -91 
Q 1528 -91 1179 -12 
Q 831 66 488 225 
L 488 1131 
L 838 1131 
Q 869 681 1141 450 
Q 1413 219 1906 219 
Q 2384 219 2661 495 
Q 2938 772 2938 1253 
Q 2938 1803 2653 2086 
Q 2369 2369 1819 2369 
L 1522 2369 
L 1522 2688 
L 1678 2688 
Q 2225 2688 2498 2914 
Q 2772 3141 2772 3597 
Q 2772 4006 2547 4223 
Q 2322 4441 1900 4441 
Q 1478 4441 1245 4241 
Q 1013 4041 972 3647 
L 622 3647 
L 622 4469 
z
" transform="scale(0.015625)"/>
       </defs>
       <use xlink:href="#DejaVuSerif-31" transform="translate(0 0.7125)"/>
       <use xlink:href="#DejaVuSerif-30" transform="translate(63.623047 0.7125)"/>
       <use xlink:href="#DejaVuSerif-2212" transform="translate(128.154453 37.046875) scale(0.7)"/>
       <use xlink:href="#DejaVuSerif-33" transform="translate(186.806797 37.046875) scale(0.7)"/>
      </g>
     </g>
    </g>
    <g id="xtick_6">
     <g id="line2d_11">
      <path d="M 688.322701 560.571 
L 688.322701 62.234 
" clip-path="url(#pc2b0d68dcc)" style="fill: none; stroke-dasharray: 4.625,2; stroke-dashoffset: 0; stroke: #343837; stroke-opacity: 0.8; stroke-width: 1.25"/>
     </g>
     <g id="line2d_12">
      <g>
       <use xlink:href="#m3af9ae58b8" x="688.322701" y="560.571" style="stroke: #000000; stroke-width: 0.8"/>
      </g>
     </g>
     <g id="text_6">
      <!-- $\mathdefault{10^{-1}}$ -->
      <g transform="translate(662.582701 584.287562) scale(0.22 -0.22)">
       <use xlink:href="#DejaVuSerif-31" transform="translate(0 0.7125)"/>
       <use xlink:href="#DejaVuSerif-30" transform="translate(63.623047 0.7125)"/>
       <use xlink:href="#DejaVuSerif-2212" transform="translate(128.154453 37.046875) scale(0.7)"/>
       <use xlink:href="#DejaVuSerif-31" transform="translate(186.806797 37.046875) scale(0.7)"/>
      </g>
     </g>
    </g>
    <g id="xtick_7">
     <g id="line2d_13">
      <path d="M 810.707241 560.571 
L 810.707241 62.234 
" clip-path="url(#pc2b0d68dcc)" style="fill: none; stroke-dasharray: 4.625,2; stroke-dashoffset: 0; stroke: #343837; stroke-opacity: 0.8; stroke-width: 1.25"/>
     </g>
     <g id="line2d_14">
      <g>
       <use xlink:href="#m3af9ae58b8" x="810.707241" y="560.571" style="stroke: #000000; stroke-width: 0.8"/>
      </g>
     </g>
     <g id="text_7">
      <!-- $\mathdefault{10^{1}}$ -->
      <g transform="translate(791.347241 584.287562) scale(0.22 -0.22)">
       <use xlink:href="#DejaVuSerif-31" transform="translate(0 0.7125)"/>
       <use xlink:href="#DejaVuSerif-30" transform="translate(63.623047 0.7125)"/>
       <use xlink:href="#DejaVuSerif-31" transform="translate(128.154453 37.046875) scale(0.7)"/>
      </g>
     </g>
    </g>
    <g id="text_8">
     <!-- Energy of incident neutron (MeV) -->
     <g transform="translate(237.400313 620.618812) scale(0.26 -0.26)">
      <defs>
       <path id="DejaVuSerif-45" d="M 353 0 
L 353 331 
L 947 331 
L 947 4331 
L 353 4331 
L 353 4666 
L 4109 4666 
L 4109 3628 
L 3725 3628 
L 3725 4281 
L 1581 4281 
L 1581 2719 
L 3109 2719 
L 3109 3303 
L 3494 3303 
L 3494 1753 
L 3109 1753 
L 3109 2338 
L 1581 2338 
L 1581 384 
L 3775 384 
L 3775 1038 
L 4159 1038 
L 4159 0 
L 353 0 
z
" transform="scale(0.015625)"/>
       <path id="DejaVuSerif-6e" d="M 263 0 
L 263 331 
L 781 331 
L 781 2988 
L 231 2988 
L 231 3322 
L 1356 3322 
L 1356 2731 
Q 1516 3069 1770 3241 
Q 2025 3413 2363 3413 
Q 2913 3413 3172 3097 
Q 3431 2781 3431 2113 
L 3431 331 
L 3944 331 
L 3944 0 
L 2356 0 
L 2356 331 
L 2853 331 
L 2853 1931 
Q 2853 2541 2703 2767 
Q 2553 2994 2175 2994 
Q 1775 2994 1565 2701 
Q 1356 2409 1356 1850 
L 1356 331 
L 1856 331 
L 1856 0 
L 263 0 
z
" transform="scale(0.015625)"/>
       <path id="DejaVuSerif-65" d="M 3469 1600 
L 991 1600 
L 991 1575 
Q 991 903 1244 561 
Q 1497 219 1991 219 
Q 2369 219 2611 417 
Q 2853 616 2950 1006 
L 3413 1006 
Q 3275 459 2904 184 
Q 2534 -91 1931 -91 
Q 1203 -91 761 389 
Q 319 869 319 1663 
Q 319 2450 753 2931 
Q 1188 3413 1894 3413 
Q 2647 3413 3050 2948 
Q 3453 2484 3469 1600 
z
M 2791 1931 
Q 2772 2513 2545 2808 
Q 2319 3103 1894 3103 
Q 1497 3103 1269 2806 
Q 1041 2509 991 1931 
L 2791 1931 
z
" transform="scale(0.015625)"/>
       <path id="DejaVuSerif-72" d="M 3059 3328 
L 3059 2497 
L 2728 2497 
Q 2713 2744 2591 2866 
Q 2469 2988 2234 2988 
Q 1809 2988 1582 2694 
Q 1356 2400 1356 1850 
L 1356 331 
L 2022 331 
L 2022 0 
L 263 0 
L 263 331 
L 781 331 
L 781 2994 
L 231 2994 
L 231 3322 
L 1356 3322 
L 1356 2731 
Q 1525 3078 1790 3245 
Q 2056 3413 2438 3413 
Q 2578 3413 2733 3391 
Q 2888 3369 3059 3328 
z
" transform="scale(0.015625)"/>
       <path id="DejaVuSerif-67" d="M 3359 2988 
L 3359 72 
Q 3359 -644 2965 -1033 
Q 2572 -1422 1844 -1422 
Q 1516 -1422 1216 -1362 
Q 916 -1303 641 -1184 
L 641 -488 
L 941 -488 
Q 997 -813 1206 -963 
Q 1416 -1113 1806 -1113 
Q 2313 -1113 2548 -827 
Q 2784 -541 2784 72 
L 2784 519 
Q 2616 206 2355 57 
Q 2094 -91 1709 -91 
Q 1097 -91 708 395 
Q 319 881 319 1663 
Q 319 2444 706 2928 
Q 1094 3413 1709 3413 
Q 2094 3413 2355 3264 
Q 2616 3116 2784 2803 
L 2784 3322 
L 3909 3322 
L 3909 2988 
L 3359 2988 
z
M 2784 1825 
Q 2784 2422 2554 2737 
Q 2325 3053 1888 3053 
Q 1444 3053 1217 2703 
Q 991 2353 991 1663 
Q 991 975 1217 622 
Q 1444 269 1888 269 
Q 2325 269 2554 583 
Q 2784 897 2784 1497 
L 2784 1825 
z
" transform="scale(0.015625)"/>
       <path id="DejaVuSerif-79" d="M 1381 -609 
L 1600 -56 
L 359 2988 
L -19 2988 
L -19 3322 
L 1509 3322 
L 1509 2988 
L 978 2988 
L 1913 703 
L 2847 2988 
L 2350 2988 
L 2350 3322 
L 3597 3322 
L 3597 2988 
L 3225 2988 
L 1703 -750 
Q 1547 -1138 1356 -1280 
Q 1166 -1422 819 -1422 
Q 672 -1422 517 -1397 
Q 363 -1372 206 -1325 
L 206 -691 
L 500 -691 
Q 519 -903 608 -995 
Q 697 -1088 884 -1088 
Q 1056 -1088 1161 -992 
Q 1266 -897 1381 -609 
z
" transform="scale(0.015625)"/>
       <path id="DejaVuSerif-20" transform="scale(0.015625)"/>
       <path id="DejaVuSerif-6f" d="M 1925 219 
Q 2388 219 2623 584 
Q 2859 950 2859 1663 
Q 2859 2375 2623 2739 
Q 2388 3103 1925 3103 
Q 1463 3103 1227 2739 
Q 991 2375 991 1663 
Q 991 950 1228 584 
Q 1466 219 1925 219 
z
M 1925 -91 
Q 1200 -91 759 389 
Q 319 869 319 1663 
Q 319 2456 758 2934 
Q 1197 3413 1925 3413 
Q 2653 3413 3092 2934 
Q 3531 2456 3531 1663 
Q 3531 869 3092 389 
Q 2653 -91 1925 -91 
z
" transform="scale(0.015625)"/>
       <path id="DejaVuSerif-66" d="M 2753 4078 
L 2450 4078 
Q 2447 4313 2317 4434 
Q 2188 4556 1941 4556 
Q 1619 4556 1487 4379 
Q 1356 4203 1356 3750 
L 1356 3322 
L 2284 3322 
L 2284 2988 
L 1356 2988 
L 1356 331 
L 2094 331 
L 2094 0 
L 231 0 
L 231 331 
L 781 331 
L 781 2988 
L 231 2988 
L 231 3322 
L 781 3322 
L 781 3738 
Q 781 4294 1070 4578 
Q 1359 4863 1919 4863 
Q 2128 4863 2337 4825 
Q 2547 4788 2753 4709 
L 2753 4078 
z
" transform="scale(0.015625)"/>
       <path id="DejaVuSerif-69" d="M 622 4353 
Q 622 4497 726 4603 
Q 831 4709 978 4709 
Q 1122 4709 1226 4603 
Q 1331 4497 1331 4353 
Q 1331 4206 1228 4103 
Q 1125 4000 978 4000 
Q 831 4000 726 4103 
Q 622 4206 622 4353 
z
M 1356 331 
L 1900 331 
L 1900 0 
L 231 0 
L 231 331 
L 781 331 
L 781 2988 
L 231 2988 
L 231 3322 
L 1356 3322 
L 1356 331 
z
" transform="scale(0.015625)"/>
       <path id="DejaVuSerif-63" d="M 3291 997 
Q 3169 466 2822 187 
Q 2475 -91 1925 -91 
Q 1200 -91 759 389 
Q 319 869 319 1663 
Q 319 2459 759 2936 
Q 1200 3413 1925 3413 
Q 2241 3413 2553 3339 
Q 2866 3266 3181 3116 
L 3181 2266 
L 2847 2266 
Q 2781 2703 2561 2903 
Q 2341 3103 1931 3103 
Q 1466 3103 1228 2742 
Q 991 2381 991 1663 
Q 991 944 1227 581 
Q 1463 219 1931 219 
Q 2303 219 2525 412 
Q 2747 606 2828 997 
L 3291 997 
z
" transform="scale(0.015625)"/>
       <path id="DejaVuSerif-64" d="M 3359 331 
L 3909 331 
L 3909 0 
L 2784 0 
L 2784 519 
Q 2616 206 2355 57 
Q 2094 -91 1709 -91 
Q 1097 -91 708 395 
Q 319 881 319 1663 
Q 319 2444 706 2928 
Q 1094 3413 1709 3413 
Q 2094 3413 2355 3264 
Q 2616 3116 2784 2803 
L 2784 4531 
L 2241 4531 
L 2241 4863 
L 3359 4863 
L 3359 331 
z
M 2784 1497 
L 2784 1825 
Q 2784 2422 2554 2737 
Q 2325 3053 1888 3053 
Q 1444 3053 1217 2703 
Q 991 2353 991 1663 
Q 991 975 1217 622 
Q 1444 269 1888 269 
Q 2325 269 2554 583 
Q 2784 897 2784 1497 
z
" transform="scale(0.015625)"/>
       <path id="DejaVuSerif-74" d="M 691 2988 
L 184 2988 
L 184 3322 
L 691 3322 
L 691 4353 
L 1269 4353 
L 1269 3322 
L 2350 3322 
L 2350 2988 
L 1269 2988 
L 1269 878 
Q 1269 456 1350 337 
Q 1431 219 1650 219 
Q 1875 219 1978 351 
Q 2081 484 2088 781 
L 2522 781 
Q 2497 328 2275 118 
Q 2053 -91 1600 -91 
Q 1103 -91 897 129 
Q 691 350 691 878 
L 691 2988 
z
" transform="scale(0.015625)"/>
       <path id="DejaVuSerif-75" d="M 2266 3322 
L 3341 3322 
L 3341 331 
L 3884 331 
L 3884 0 
L 2766 0 
L 2766 588 
Q 2606 256 2353 82 
Q 2100 -91 1766 -91 
Q 1213 -91 952 223 
Q 691 538 691 1209 
L 691 2988 
L 172 2988 
L 172 3322 
L 1269 3322 
L 1269 1388 
Q 1269 781 1417 556 
Q 1566 331 1947 331 
Q 2347 331 2556 625 
Q 2766 919 2766 1478 
L 2766 2988 
L 2266 2988 
L 2266 3322 
z
" transform="scale(0.015625)"/>
       <path id="DejaVuSerif-28" d="M 2041 -997 
Q 1281 -656 893 83 
Q 506 822 506 1931 
Q 506 3044 893 3783 
Q 1281 4522 2041 4863 
L 2041 4556 
Q 1559 4225 1350 3623 
Q 1141 3022 1141 1931 
Q 1141 844 1350 242 
Q 1559 -359 2041 -691 
L 2041 -997 
z
" transform="scale(0.015625)"/>
       <path id="DejaVuSerif-4d" d="M 353 0 
L 353 331 
L 947 331 
L 947 4331 
L 319 4331 
L 319 4666 
L 1678 4666 
L 3316 1344 
L 4953 4666 
L 6228 4666 
L 6228 4331 
L 5606 4331 
L 5606 331 
L 6203 331 
L 6203 0 
L 4378 0 
L 4378 331 
L 4972 331 
L 4972 3938 
L 3372 684 
L 2931 684 
L 1331 3938 
L 1331 331 
L 1925 331 
L 1925 0 
L 353 0 
z
" transform="scale(0.015625)"/>
       <path id="DejaVuSerif-56" d="M 1119 4331 
L 2497 750 
L 3872 4331 
L 3347 4331 
L 3347 4666 
L 4716 4666 
L 4716 4331 
L 4263 4331 
L 2597 0 
L 2059 0 
L 403 4331 
L -63 4331 
L -63 4666 
L 1638 4666 
L 1638 4331 
L 1119 4331 
z
" transform="scale(0.015625)"/>
       <path id="DejaVuSerif-29" d="M 453 -997 
L 453 -691 
Q 934 -359 1145 242 
Q 1356 844 1356 1931 
Q 1356 3022 1145 3623 
Q 934 4225 453 4556 
L 453 4863 
Q 1216 4522 1603 3783 
Q 1991 3044 1991 1931 
Q 1991 822 1603 83 
Q 1216 -656 453 -997 
z
" transform="scale(0.015625)"/>
      </defs>
      <use xlink:href="#DejaVuSerif-45"/>
      <use xlink:href="#DejaVuSerif-6e" transform="translate(72.998047 0)"/>
      <use xlink:href="#DejaVuSerif-65" transform="translate(137.402344 0)"/>
      <use xlink:href="#DejaVuSerif-72" transform="translate(196.582031 0)"/>
      <use xlink:href="#DejaVuSerif-67" transform="translate(244.384766 0)"/>
      <use xlink:href="#DejaVuSerif-79" transform="translate(308.398438 0)"/>
      <use xlink:href="#DejaVuSerif-20" transform="translate(364.892578 0)"/>
      <use xlink:href="#DejaVuSerif-6f" transform="translate(396.679688 0)"/>
      <use xlink:href="#DejaVuSerif-66" transform="translate(456.884766 0)"/>
      <use xlink:href="#DejaVuSerif-20" transform="translate(493.896484 0)"/>
      <use xlink:href="#DejaVuSerif-69" transform="translate(525.683594 0)"/>
      <use xlink:href="#DejaVuSerif-6e" transform="translate(557.666016 0)"/>
      <use xlink:href="#DejaVuSerif-63" transform="translate(622.070312 0)"/>
      <use xlink:href="#DejaVuSerif-69" transform="translate(678.076172 0)"/>
      <use xlink:href="#DejaVuSerif-64" transform="translate(710.058594 0)"/>
      <use xlink:href="#DejaVuSerif-65" transform="translate(774.072266 0)"/>
      <use xlink:href="#DejaVuSerif-6e" transform="translate(833.251953 0)"/>
      <use xlink:href="#DejaVuSerif-74" transform="translate(897.65625 0)"/>
      <use xlink:href="#DejaVuSerif-20" transform="translate(937.841797 0)"/>
      <use xlink:href="#DejaVuSerif-6e" transform="translate(969.628906 0)"/>
      <use xlink:href="#DejaVuSerif-65" transform="translate(1034.033203 0)"/>
      <use xlink:href="#DejaVuSerif-75" transform="translate(1093.212891 0)"/>
      <use xlink:href="#DejaVuSerif-74" transform="translate(1157.617188 0)"/>
      <use xlink:href="#DejaVuSerif-72" transform="translate(1197.802734 0)"/>
      <use xlink:href="#DejaVuSerif-6f" transform="translate(1245.605469 0)"/>
      <use xlink:href="#DejaVuSerif-6e" transform="translate(1305.810547 0)"/>
      <use xlink:href="#DejaVuSerif-20" transform="translate(1370.214844 0)"/>
      <use xlink:href="#DejaVuSerif-28" transform="translate(1402.001953 0)"/>
      <use xlink:href="#DejaVuSerif-4d" transform="translate(1441.015625 0)"/>
      <use xlink:href="#DejaVuSerif-65" transform="translate(1543.408203 0)"/>
      <use xlink:href="#DejaVuSerif-56" transform="translate(1602.587891 0)"/>
      <use xlink:href="#DejaVuSerif-29" transform="translate(1674.804688 0)"/>
     </g>
    </g>
   </g>
   <g id="matplotlib.axis_2">
    <g id="ytick_1">
     <g id="line2d_15">
      <path d="M 76.4 557.036695 
L 844 557.036695 
" clip-path="url(#pc2b0d68dcc)" style="fill: none; stroke-dasharray: 4.625,2; stroke-dashoffset: 0; stroke: #343837; stroke-opacity: 0.8; stroke-width: 1.25"/>
     </g>
     <g id="line2d_16">
      <defs>
       <path id="mb8bb721a1e" d="M 0 0 
L -3.5 0 
" style="stroke: #000000; stroke-width: 0.8"/>
      </defs>
      <g>
       <use xlink:href="#mb8bb721a1e" x="76.4" y="557.036695" style="stroke: #000000; stroke-width: 0.8"/>
      </g>
     </g>
     <g id="text_9">
      <!-- 0 -->
      <g transform="translate(55.4025 565.394976) scale(0.22 -0.22)">
       <use xlink:href="#DejaVuSerif-30"/>
      </g>
     </g>
    </g>
    <g id="ytick_2">
     <g id="line2d_17">
      <path d="M 76.4 486.350596 
L 844 486.350596 
" clip-path="url(#pc2b0d68dcc)" style="fill: none; stroke-dasharray: 4.625,2; stroke-dashoffset: 0; stroke: #343837; stroke-opacity: 0.8; stroke-width: 1.25"/>
     </g>
     <g id="line2d_18">
      <g>
       <use xlink:href="#mb8bb721a1e" x="76.4" y="486.350596" style="stroke: #000000; stroke-width: 0.8"/>
      </g>
     </g>
     <g id="text_10">
      <!-- 1 -->
      <g transform="translate(55.4025 494.708877) scale(0.22 -0.22)">
       <use xlink:href="#DejaVuSerif-31"/>
      </g>
     </g>
    </g>
    <g id="ytick_3">
     <g id="line2d_19">
      <path d="M 76.4 415.664496 
L 844 415.664496 
" clip-path="url(#pc2b0d68dcc)" style="fill: none; stroke-dasharray: 4.625,2; stroke-dashoffset: 0; stroke: #343837; stroke-opacity: 0.8; stroke-width: 1.25"/>
     </g>
     <g id="line2d_20">
      <g>
       <use xlink:href="#mb8bb721a1e" x="76.4" y="415.664496" style="stroke: #000000; stroke-width: 0.8"/>
      </g>
     </g>
     <g id="text_11">
      <!-- 2 -->
      <g transform="translate(55.4025 424.022778) scale(0.22 -0.22)">
       <defs>
        <path id="DejaVuSerif-32" d="M 819 3553 
L 469 3553 
L 469 4384 
Q 803 4563 1142 4656 
Q 1481 4750 1806 4750 
Q 2534 4750 2956 4397 
Q 3378 4044 3378 3438 
Q 3378 2753 2422 1800 
Q 2347 1728 2309 1691 
L 1131 513 
L 3078 513 
L 3078 1088 
L 3444 1088 
L 3444 0 
L 434 0 
L 434 341 
L 1850 1753 
Q 2319 2222 2519 2614 
Q 2719 3006 2719 3438 
Q 2719 3909 2473 4175 
Q 2228 4441 1797 4441 
Q 1350 4441 1106 4219 
Q 863 3997 819 3553 
z
" transform="scale(0.015625)"/>
       </defs>
       <use xlink:href="#DejaVuSerif-32"/>
      </g>
     </g>
    </g>
    <g id="ytick_4">
     <g id="line2d_21">
      <path d="M 76.4 344.978397 
L 844 344.978397 
" clip-path="url(#pc2b0d68dcc)" style="fill: none; stroke-dasharray: 4.625,2; stroke-dashoffset: 0; stroke: #343837; stroke-opacity: 0.8; stroke-width: 1.25"/>
     </g>
     <g id="line2d_22">
      <g>
       <use xlink:href="#mb8bb721a1e" x="76.4" y="344.978397" style="stroke: #000000; stroke-width: 0.8"/>
      </g>
     </g>
     <g id="text_12">
      <!-- 3 -->
      <g transform="translate(55.4025 353.336678) scale(0.22 -0.22)">
       <use xlink:href="#DejaVuSerif-33"/>
      </g>
     </g>
    </g>
    <g id="ytick_5">
     <g id="line2d_23">
      <path d="M 76.4 274.292298 
L 844 274.292298 
" clip-path="url(#pc2b0d68dcc)" style="fill: none; stroke-dasharray: 4.625,2; stroke-dashoffset: 0; stroke: #343837; stroke-opacity: 0.8; stroke-width: 1.25"/>
     </g>
     <g id="line2d_24">
      <g>
       <use xlink:href="#mb8bb721a1e" x="76.4" y="274.292298" style="stroke: #000000; stroke-width: 0.8"/>
      </g>
     </g>
     <g id="text_13">
      <!-- 4 -->
      <g transform="translate(55.4025 282.650579) scale(0.22 -0.22)">
       <defs>
        <path id="DejaVuSerif-34" d="M 2234 1581 
L 2234 4063 
L 641 1581 
L 2234 1581 
z
M 3609 0 
L 1484 0 
L 1484 331 
L 2234 331 
L 2234 1247 
L 197 1247 
L 197 1588 
L 2241 4750 
L 2859 4750 
L 2859 1581 
L 3750 1581 
L 3750 1247 
L 2859 1247 
L 2859 331 
L 3609 331 
L 3609 0 
z
" transform="scale(0.015625)"/>
       </defs>
       <use xlink:href="#DejaVuSerif-34"/>
      </g>
     </g>
    </g>
    <g id="ytick_6">
     <g id="line2d_25">
      <path d="M 76.4 203.606199 
L 844 203.606199 
" clip-path="url(#pc2b0d68dcc)" style="fill: none; stroke-dasharray: 4.625,2; stroke-dashoffset: 0; stroke: #343837; stroke-opacity: 0.8; stroke-width: 1.25"/>
     </g>
     <g id="line2d_26">
      <g>
       <use xlink:href="#mb8bb721a1e" x="76.4" y="203.606199" style="stroke: #000000; stroke-width: 0.8"/>
      </g>
     </g>
     <g id="text_14">
      <!-- 5 -->
      <g transform="translate(55.4025 211.96448) scale(0.22 -0.22)">
       <use xlink:href="#DejaVuSerif-35"/>
      </g>
     </g>
    </g>
    <g id="ytick_7">
     <g id="line2d_27">
      <path d="M 76.4 132.920099 
L 844 132.920099 
" clip-path="url(#pc2b0d68dcc)" style="fill: none; stroke-dasharray: 4.625,2; stroke-dashoffset: 0; stroke: #343837; stroke-opacity: 0.8; stroke-width: 1.25"/>
     </g>
     <g id="line2d_28">
      <g>
       <use xlink:href="#mb8bb721a1e" x="76.4" y="132.920099" style="stroke: #000000; stroke-width: 0.8"/>
      </g>
     </g>
     <g id="text_15">
      <!-- 6 -->
      <g transform="translate(55.4025 141.278381) scale(0.22 -0.22)">
       <defs>
        <path id="DejaVuSerif-36" d="M 2094 219 
Q 2534 219 2771 542 
Q 3009 866 3009 1472 
Q 3009 2078 2771 2401 
Q 2534 2725 2094 2725 
Q 1647 2725 1412 2412 
Q 1178 2100 1178 1509 
Q 1178 888 1415 553 
Q 1653 219 2094 219 
z
M 1075 2569 
Q 1288 2803 1556 2918 
Q 1825 3034 2163 3034 
Q 2859 3034 3264 2615 
Q 3669 2197 3669 1472 
Q 3669 763 3233 336 
Q 2797 -91 2069 -91 
Q 1278 -91 853 498 
Q 428 1088 428 2181 
Q 428 3406 931 4078 
Q 1434 4750 2350 4750 
Q 2597 4750 2869 4703 
Q 3141 4656 3425 4563 
L 3425 3794 
L 3072 3794 
Q 3034 4109 2831 4275 
Q 2628 4441 2284 4441 
Q 1678 4441 1381 3981 
Q 1084 3522 1075 2569 
z
" transform="scale(0.015625)"/>
       </defs>
       <use xlink:href="#DejaVuSerif-36"/>
      </g>
     </g>
    </g>
    <g id="ytick_8">
     <g id="line2d_29">
      <path d="M 76.4 62.234 
L 844 62.234 
" clip-path="url(#pc2b0d68dcc)" style="fill: none; stroke-dasharray: 4.625,2; stroke-dashoffset: 0; stroke: #343837; stroke-opacity: 0.8; stroke-width: 1.25"/>
     </g>
     <g id="line2d_30">
      <g>
       <use xlink:href="#mb8bb721a1e" x="76.4" y="62.234" style="stroke: #000000; stroke-width: 0.8"/>
      </g>
     </g>
     <g id="text_16">
      <!-- 7 -->
      <g transform="translate(55.4025 70.592281) scale(0.22 -0.22)">
       <use xlink:href="#DejaVuSerif-37"/>
      </g>
     </g>
    </g>
    <g id="text_17">
     <!-- Neutron reproduction factor $\eta$ -->
     <g transform="translate(41.9425 511.6025) rotate(-90) scale(0.26 -0.26)">
      <defs>
       <path id="DejaVuSerif-4e" d="M 313 0 
L 313 331 
L 941 331 
L 941 4331 
L 313 4331 
L 313 4666 
L 1509 4666 
L 4306 984 
L 4306 4331 
L 3681 4331 
L 3681 4666 
L 5319 4666 
L 5319 4331 
L 4691 4331 
L 4691 -91 
L 4313 -91 
L 1325 3841 
L 1325 331 
L 1953 331 
L 1953 0 
L 313 0 
z
" transform="scale(0.015625)"/>
       <path id="DejaVuSerif-70" d="M 1313 1825 
L 1313 1497 
Q 1313 897 1542 583 
Q 1772 269 2209 269 
Q 2650 269 2876 622 
Q 3103 975 3103 1663 
Q 3103 2353 2876 2703 
Q 2650 3053 2209 3053 
Q 1772 3053 1542 2737 
Q 1313 2422 1313 1825 
z
M 738 2988 
L 184 2988 
L 184 3322 
L 1313 3322 
L 1313 2803 
Q 1481 3116 1742 3264 
Q 2003 3413 2388 3413 
Q 3000 3413 3387 2928 
Q 3775 2444 3775 1663 
Q 3775 881 3387 395 
Q 3000 -91 2388 -91 
Q 2003 -91 1742 57 
Q 1481 206 1313 519 
L 1313 -997 
L 1856 -997 
L 1856 -1331 
L 184 -1331 
L 184 -997 
L 738 -997 
L 738 2988 
z
" transform="scale(0.015625)"/>
       <path id="DejaVuSerif-61" d="M 2547 1044 
L 2547 1747 
L 1806 1747 
Q 1378 1747 1168 1562 
Q 959 1378 959 997 
Q 959 650 1171 447 
Q 1384 244 1747 244 
Q 2106 244 2326 466 
Q 2547 688 2547 1044 
z
M 3122 2075 
L 3122 331 
L 3634 331 
L 3634 0 
L 2547 0 
L 2547 359 
Q 2356 128 2106 18 
Q 1856 -91 1522 -91 
Q 969 -91 644 203 
Q 319 497 319 997 
Q 319 1513 691 1797 
Q 1063 2081 1741 2081 
L 2547 2081 
L 2547 2309 
Q 2547 2688 2317 2895 
Q 2088 3103 1672 3103 
Q 1328 3103 1125 2947 
Q 922 2791 872 2484 
L 575 2484 
L 575 3156 
Q 875 3284 1158 3348 
Q 1441 3413 1709 3413 
Q 2400 3413 2761 3070 
Q 3122 2728 3122 2075 
z
" transform="scale(0.015625)"/>
       <path id="DejaVuSerif-Italic-3b7" d="M 1153 0 
L 578 0 
L 1159 2988 
L 609 2988 
L 675 3322 
L 1800 3322 
L 1684 2731 
Q 1909 3069 2198 3241 
Q 2488 3413 2825 3413 
Q 3366 3413 3572 3097 
Q 3772 2791 3641 2113 
L 2969 -1331 
L 2391 -1331 
L 3025 1931 
Q 3144 2541 3037 2767 
Q 2931 2994 2553 2994 
Q 2153 2994 1887 2701 
Q 1622 2409 1513 1850 
L 1153 0 
z
" transform="scale(0.015625)"/>
      </defs>
      <use xlink:href="#DejaVuSerif-4e" transform="translate(0 0.015625)"/>
      <use xlink:href="#DejaVuSerif-65" transform="translate(87.5 0.015625)"/>
      <use xlink:href="#DejaVuSerif-75" transform="translate(146.679688 0.015625)"/>
      <use xlink:href="#DejaVuSerif-74" transform="translate(211.083984 0.015625)"/>
      <use xlink:href="#DejaVuSerif-72" transform="translate(251.269531 0.015625)"/>
      <use xlink:href="#DejaVuSerif-6f" transform="translate(299.072266 0.015625)"/>
      <use xlink:href="#DejaVuSerif-6e" transform="translate(359.277344 0.015625)"/>
      <use xlink:href="#DejaVuSerif-20" transform="translate(423.681641 0.015625)"/>
      <use xlink:href="#DejaVuSerif-72" transform="translate(455.46875 0.015625)"/>
      <use xlink:href="#DejaVuSerif-65" transform="translate(503.271484 0.015625)"/>
      <use xlink:href="#DejaVuSerif-70" transform="translate(562.451172 0.015625)"/>
      <use xlink:href="#DejaVuSerif-72" transform="translate(626.464844 0.015625)"/>
      <use xlink:href="#DejaVuSerif-6f" transform="translate(674.267578 0.015625)"/>
      <use xlink:href="#DejaVuSerif-64" transform="translate(734.472656 0.015625)"/>
      <use xlink:href="#DejaVuSerif-75" transform="translate(798.486328 0.015625)"/>
      <use xlink:href="#DejaVuSerif-63" transform="translate(862.890625 0.015625)"/>
      <use xlink:href="#DejaVuSerif-74" transform="translate(918.896484 0.015625)"/>
      <use xlink:href="#DejaVuSerif-69" transform="translate(959.082031 0.015625)"/>
      <use xlink:href="#DejaVuSerif-6f" transform="translate(991.064453 0.015625)"/>
      <use xlink:href="#DejaVuSerif-6e" transform="translate(1051.269531 0.015625)"/>
      <use xlink:href="#DejaVuSerif-20" transform="translate(1115.673828 0.015625)"/>
      <use xlink:href="#DejaVuSerif-66" transform="translate(1147.460938 0.015625)"/>
      <use xlink:href="#DejaVuSerif-61" transform="translate(1184.472656 0.015625)"/>
      <use xlink:href="#DejaVuSerif-63" transform="translate(1244.091797 0.015625)"/>
      <use xlink:href="#DejaVuSerif-74" transform="translate(1300.097656 0.015625)"/>
      <use xlink:href="#DejaVuSerif-6f" transform="translate(1340.283203 0.015625)"/>
      <use xlink:href="#DejaVuSerif-72" transform="translate(1400.488281 0.015625)"/>
      <use xlink:href="#DejaVuSerif-20" transform="translate(1448.291016 0.015625)"/>
      <use xlink:href="#DejaVuSerif-Italic-3b7" transform="translate(1480.078125 0.015625)"/>
     </g>
    </g>
   </g>
   <g id="line2d_31">
    <path d="M 76.400027 557.035529 
L 556.477627 556.926034 
L 556.79067 556.788085 
L 556.813576 556.81581 
L 556.859387 557.03261 
L 556.920468 556.77801 
L 556.928103 556.764233 
L 556.951009 556.940016 
L 556.989185 557.027025 
L 557.027361 556.725608 
L 557.073172 556.944181 
L 557.180064 551.117075 
L 557.264051 544.184536 
L 557.325133 547.57582 
L 557.493107 555.60426 
L 557.676352 557.035695 
L 557.706892 557.002884 
L 557.752703 557.032102 
L 557.867231 556.673229 
L 557.966489 556.783348 
L 558.073381 557.033994 
L 558.111557 556.886821 
L 558.248991 556.853056 
L 558.989604 557.03 
L 559.188118 557.013559 
L 559.875285 557.026149 
L 560.47083 557.028931 
L 564.548019 557.036462 
L 569.984272 556.930555 
L 570.136975 557.000964 
L 570.709614 557.034279 
L 570.854683 556.928747 
L 571.030292 554.51834 
L 571.083738 555.455934 
L 571.213537 557.033 
L 571.244077 556.996986 
L 571.266983 556.815392 
L 571.358605 556.926119 
L 571.618201 557.029504 
L 572.656587 557.032463 
L 572.900913 557.036678 
L 596.020256 557.03668 
L 612.16104 557.03053 
L 612.183946 556.816729 
L 612.237392 557.036453 
L 612.267933 557.036566 
L 612.336649 556.927152 
L 612.35192 556.833666 
L 612.397731 557.03655 
L 612.435907 557.035145 
L 613.863687 557.036373 
L 617.963782 556.967245 
L 617.986687 557.007339 
L 617.994322 556.610015 
L 618.009593 553.127611 
L 618.024863 557.035361 
L 618.101215 556.745609 
L 618.208107 557.036585 
L 618.12412 556.485143 
L 618.215743 557.035298 
L 618.33027 557.036005 
L 618.93345 556.987566 
L 618.986896 556.903237 
L 618.963991 557.036011 
L 619.032708 557.035947 
L 619.093789 557.021221 
L 619.200682 554.623178 
L 619.131965 557.034407 
L 619.208317 555.492435 
L 619.322845 557.036153 
L 619.338115 557.020533 
L 619.353385 556.783076 
L 619.376291 557.036179 
L 619.445008 557.019083 
L 619.475548 556.975849 
L 619.574806 557.036653 
L 620.399406 556.988229 
L 620.468123 555.885039 
L 620.429947 557.028886 
L 620.506299 557.013122 
L 620.513934 557.024989 
L 620.521569 557.005055 
L 620.55211 555.859293 
L 620.605556 557.033352 
L 620.636097 556.627044 
L 620.75826 557.036017 
L 620.781165 557.033364 
L 621.193465 557.036614 
L 624.629299 557.03646 
L 625.29356 557.034664 
L 625.324101 555.725681 
L 625.339371 552.735221 
L 625.423358 557.02144 
L 625.553157 557.036676 
L 627.790266 557.036677 
L 630.584744 557.016937 
L 630.60765 553.165287 
L 630.668731 557.033165 
L 630.691637 556.994773 
L 630.699272 556.902217 
L 630.714542 553.178829 
L 630.790894 557.035508 
L 630.806165 557.034449 
L 630.821435 556.787317 
L 630.913057 557.021122 
L 631.042855 557.035171 
L 631.165018 557.035777 
L 633.020369 557.036688 
L 636.876138 557.024265 
L 636.906678 555.962793 
L 636.944854 557.036537 
L 636.98303 557.036205 
L 638.067227 557.034832 
L 638.166484 556.774968 
L 638.174119 557.027668 
L 638.21993 557.015506 
L 638.273377 553.266916 
L 638.319188 557.032134 
L 638.326823 557.018665 
L 638.403175 557.035208 
L 638.41081 557.028866 
L 638.418445 556.87716 
L 638.433716 557.036319 
L 638.517703 556.958838 
L 638.662771 557.034423 
L 638.746758 556.745181 
L 638.800205 553.589 
L 638.784934 557.033591 
L 638.868921 556.099054 
L 638.884192 557.034081 
L 638.937638 555.900957 
L 638.983449 556.980373 
L 639.01399 556.973306 
L 639.097977 557.035302 
L 639.83859 557.036548 
L 639.991294 557.036649 
L 642.801042 557.036124 
L 642.846853 557.035276 
L 642.885029 555.729336 
L 642.9003 557.036591 
L 642.953746 557.036662 
L 656.406944 557.010101 
L 690.887445 556.976084 
L 702.744889 556.933758 
L 709.494393 556.9145 
L 715.037538 556.839462 
L 722.649819 556.79117 
L 725.96349 556.518621 
L 729.300066 556.484112 
L 731.430283 556.2529 
L 734.598885 556.200836 
L 737.156673 555.56123 
L 741.294944 554.296136 
L 742.463127 553.583292 
L 743.463337 552.708832 
L 744.089422 551.907066 
L 744.730777 550.670029 
L 745.486661 548.690784 
L 746.372343 545.703018 
L 746.89917 543.307528 
L 747.441269 540.295638 
L 747.960461 538.919331 
L 748.174246 538.777686 
L 748.181882 538.783207 
L 748.288774 539.015853 
L 748.525465 540.238404 
L 748.9454 542.200599 
L 748.998847 542.167342 
L 749.014117 542.11687 
L 749.128645 541.171934 
L 749.556215 536.959917 
L 749.594391 536.976286 
L 749.747095 537.236552 
L 750.16703 537.966582 
L 750.495343 538.081572 
L 750.5946 537.957529 
L 750.709128 536.937179 
L 750.97636 531.893628 
L 751.411565 524.786406 
L 751.884947 519.651059 
L 752.091097 516.040438 
L 752.114003 516.053208 
L 752.220895 516.324017 
L 752.503397 517.207771 
L 752.549208 517.13401 
L 752.656101 516.380239 
L 753.007319 511.530569 
L 753.625769 502.527859 
L 753.954082 498.093611 
L 754.381653 496.880692 
L 754.435099 497.064216 
L 754.595438 498.771805 
L 754.786318 500.403566 
L 754.824494 500.328955 
L 754.946657 499.473057 
L 755.504025 492.727512 
L 757.359375 467.658263 
L 757.771675 449.77471 
L 758.275598 433.13164 
L 758.840602 422.714504 
L 759.504863 414.135556 
L 760.123313 408.79112 
L 760.82575 404.730981 
L 761.573998 401.498508 
L 762.139002 399.931127 
L 762.810898 398.773422 
L 763.643134 397.318973 
L 764.147056 395.885882 
L 765.34578 392.384273 
L 766.750654 389.545367 
L 769.254995 384.522315 
L 771.660079 380.527787 
L 773.103129 377.849789 
L 774.981385 374.463472 
L 790.518989 346.692296 
L 793.366913 340.996124 
L 794.46638 338.296558 
L 795.199358 335.934849 
L 796.245379 331.569642 
L 797.92512 323.414917 
L 799.078033 318.024979 
L 799.727023 316.06468 
L 800.742503 313.728916 
L 802.353528 309.946332 
L 804.750976 303.953172 
L 807.522549 296.367295 
L 810.301756 288.254554 
L 812.409068 281.396436 
L 813.783401 276.056962 
L 815.821996 266.969782 
L 818.356878 255.122523 
L 821.12845 240.365804 
L 824.358134 221.769579 
L 827.465655 202.430394 
L 834.841245 153.973339 
L 835.68875 148.332661 
L 839.216206 122.927298 
L 839.57506 119.532041 
L 839.903373 114.325223 
L 839.903373 114.325223 
" clip-path="url(#pc2b0d68dcc)" style="fill: none; stroke: #2138ab; stroke-width: 5; stroke-linecap: square"/>
   </g>
   <g id="patch_3">
    <path d="M 76.4 560.571 
L 76.4 62.234 
" style="fill: none; stroke: #000000; stroke-width: 0.8; stroke-linejoin: miter; stroke-linecap: square"/>
   </g>
   <g id="patch_4">
    <path d="M 844 560.571 
L 844 62.234 
" style="fill: none; stroke: #000000; stroke-width: 0.8; stroke-linejoin: miter; stroke-linecap: square"/>
   </g>
   <g id="patch_5">
    <path d="M 76.4 560.571 
L 844 560.571 
" style="fill: none; stroke: #000000; stroke-width: 0.8; stroke-linejoin: miter; stroke-linecap: square"/>
   </g>
   <g id="patch_6">
    <path d="M 76.4 62.234 
L 844 62.234 
" style="fill: none; stroke: #000000; stroke-width: 0.8; stroke-linejoin: miter; stroke-linecap: square"/>
   </g>
   <g id="text_18">
    <!-- Neutron reproduction factor -->
    <g transform="translate(242.957813 43.775575) scale(0.3 -0.3)">
     <use xlink:href="#DejaVuSerif-4e"/>
     <use xlink:href="#DejaVuSerif-65" transform="translate(87.5 0)"/>
     <use xlink:href="#DejaVuSerif-75" transform="translate(146.679688 0)"/>
     <use xlink:href="#DejaVuSerif-74" transform="translate(211.083984 0)"/>
     <use xlink:href="#DejaVuSerif-72" transform="translate(251.269531 0)"/>
     <use xlink:href="#DejaVuSerif-6f" transform="translate(299.072266 0)"/>
     <use xlink:href="#DejaVuSerif-6e" transform="translate(359.277344 0)"/>
     <use xlink:href="#DejaVuSerif-20" transform="translate(423.681641 0)"/>
     <use xlink:href="#DejaVuSerif-72" transform="translate(455.46875 0)"/>
     <use xlink:href="#DejaVuSerif-65" transform="translate(503.271484 0)"/>
     <use xlink:href="#DejaVuSerif-70" transform="translate(562.451172 0)"/>
     <use xlink:href="#DejaVuSerif-72" transform="translate(626.464844 0)"/>
     <use xlink:href="#DejaVuSerif-6f" transform="translate(674.267578 0)"/>
     <use xlink:href="#DejaVuSerif-64" transform="translate(734.472656 0)"/>
     <use xlink:href="#DejaVuSerif-75" transform="translate(798.486328 0)"/>
     <use xlink:href="#DejaVuSerif-63" transform="translate(862.890625 0)"/>
     <use xlink:href="#DejaVuSerif-74" transform="translate(918.896484 0)"/>
     <use xlink:href="#DejaVuSerif-69" transform="translate(959.082031 0)"/>
     <use xlink:href="#DejaVuSerif-6f" transform="translate(991.064453 0)"/>
     <use xlink:href="#DejaVuSerif-6e" transform="translate(1051.269531 0)"/>
     <use xlink:href="#DejaVuSerif-20" transform="translate(1115.673828 0)"/>
     <use xlink:href="#DejaVuSerif-66" transform="translate(1147.460938 0)"/>
     <use xlink:href="#DejaVuSerif-61" transform="translate(1184.472656 0)"/>
     <use xlink:href="#DejaVuSerif-63" transform="translate(1244.091797 0)"/>
     <use xlink:href="#DejaVuSerif-74" transform="translate(1300.097656 0)"/>
     <use xlink:href="#DejaVuSerif-6f" transform="translate(1340.283203 0)"/>
     <use xlink:href="#DejaVuSerif-72" transform="translate(1400.488281 0)"/>
    </g>
   </g>
   <g id="legend_1">
    <g id="patch_7">
     <path d="M 721.8 107.59025 
L 830 107.59025 
Q 834 107.59025 834 103.59025 
L 834 76.234 
Q 834 72.234 830 72.234 
L 721.8 72.234 
Q 717.8 72.234 717.8 76.234 
L 717.8 103.59025 
Q 717.8 107.59025 721.8 107.59025 
z
" style="fill: #ffffff; opacity: 0.95; stroke: #cccccc; stroke-linejoin: miter"/>
    </g>
    <g id="line2d_32">
     <path d="M 725.8 88.430875 
L 745.8 88.430875 
L 765.8 88.430875 
" style="fill: none; stroke: #2138ab; stroke-width: 5; stroke-linecap: square"/>
    </g>
    <g id="text_19">
     <!-- $\mathrm{^{238}U}$ -->
     <g transform="translate(781.8 95.430875) scale(0.2 -0.2)">
      <defs>
       <path id="DejaVuSerif-38" d="M 2981 1275 
Q 2981 1775 2732 2051 
Q 2484 2328 2034 2328 
Q 1584 2328 1336 2051 
Q 1088 1775 1088 1275 
Q 1088 772 1336 495 
Q 1584 219 2034 219 
Q 2484 219 2732 495 
Q 2981 772 2981 1275 
z
M 2853 3541 
Q 2853 3966 2637 4203 
Q 2422 4441 2034 4441 
Q 1650 4441 1433 4203 
Q 1216 3966 1216 3541 
Q 1216 3113 1433 2875 
Q 1650 2638 2034 2638 
Q 2422 2638 2637 2875 
Q 2853 3113 2853 3541 
z
M 2516 2484 
Q 3047 2413 3344 2092 
Q 3641 1772 3641 1275 
Q 3641 619 3225 264 
Q 2809 -91 2034 -91 
Q 1263 -91 845 264 
Q 428 619 428 1275 
Q 428 1772 725 2092 
Q 1022 2413 1556 2484 
Q 1084 2569 832 2842 
Q 581 3116 581 3541 
Q 581 4103 968 4426 
Q 1356 4750 2034 4750 
Q 2713 4750 3100 4426 
Q 3488 4103 3488 3541 
Q 3488 3116 3236 2842 
Q 2984 2569 2516 2484 
z
" transform="scale(0.015625)"/>
       <path id="DejaVuSerif-55" d="M 897 4331 
L 300 4331 
L 300 4666 
L 2125 4666 
L 2125 4331 
L 1528 4331 
L 1528 1919 
Q 1528 1025 1820 672 
Q 2113 319 2828 319 
Q 3544 319 3836 672 
Q 4128 1025 4128 1919 
L 4128 4331 
L 3531 4331 
L 3531 4666 
L 5106 4666 
L 5106 4331 
L 4513 4331 
L 4513 1856 
Q 4513 791 4103 350 
Q 3694 -91 2713 -91 
Q 1731 -91 1314 353 
Q 897 797 897 1856 
L 897 4331 
z
" transform="scale(0.015625)"/>
      </defs>
      <use xlink:href="#DejaVuSerif-32" transform="translate(0.908359 37.046875) scale(0.7)"/>
      <use xlink:href="#DejaVuSerif-33" transform="translate(45.444492 37.046875) scale(0.7)"/>
      <use xlink:href="#DejaVuSerif-38" transform="translate(88.755625 37.046875) scale(0.7)"/>
      <use xlink:href="#DejaVuSerif-55" transform="translate(135.88707 0.7125)"/>
     </g>
    </g>
   </g>
  </g>
 </g>
 <defs>
  <clipPath id="pc2b0d68dcc">
   <rect x="76.4" y="62.234" width="767.6" height="498.337"/>
  </clipPath>
 </defs>
</svg>
