<?xml version="1.0" encoding="utf-8" standalone="no"?>
<!DOCTYPE svg PUBLIC "-//W3C//DTD SVG 1.1//EN"
  "http://www.w3.org/Graphics/SVG/1.1/DTD/svg11.dtd">
<svg xmlns:xlink="http://www.w3.org/1999/xlink" width="864pt" height="648pt" viewBox="0 0 864 648" xmlns="http://www.w3.org/2000/svg" version="1.1">
 <metadata>
  <rdf:RDF xmlns:dc="http://purl.org/dc/elements/1.1/" xmlns:cc="http://creativecommons.org/ns#" xmlns:rdf="http://www.w3.org/1999/02/22-rdf-syntax-ns#">
   <cc:Work>
    <dc:type rdf:resource="http://purl.org/dc/dcmitype/StillImage"/>
    <dc:date>2025-10-21T14:38:35.827795</dc:date>
    <dc:format>image/svg+xml</dc:format>
    <dc:creator>
     <cc:Agent>
      <dc:title>Matplotlib v3.10.7, https://matplotlib.org/</dc:title>
     </cc:Agent>
    </dc:creator>
   </cc:Work>
  </rdf:RDF>
 </metadata>
 <defs>
  <style type="text/css">*{stroke-linejoin: round; stroke-linecap: butt}</style>
 </defs>
 <g id="figure_1">
  <g id="patch_1">
   <path d="M 0 648 
L 864 648 
L 864 0 
L 0 0 
z
" style="fill: #ffffff; stroke: #000000; stroke-width: 3; stroke-linejoin: miter"/>
  </g>
  <g id="axes_1">
   <g id="patch_2">
    <path d="M 76.4 560.571 
L 844 560.571 
L 844 62.234 
L 76.4 62.234 
L 76.4 560.571 
z
" style="fill: none"/>
   </g>
   <g id="matplotlib.axis_1">
    <g id="xtick_1">
     <g id="line2d_1">
      <path d="M 76.4 560.571 
L 76.4 62.234 
" clip-path="url(#pf5c249c866)" style="fill: none; stroke-dasharray: 4.625,2; stroke-dashoffset: 0; stroke: #343837; stroke-opacity: 0.8; stroke-width: 1.25"/>
     </g>
     <g id="line2d_2">
      <defs>
       <path id="m9dcf183361" d="M 0 0 
L 0 3.5 
" style="stroke: #000000; stroke-width: 0.8"/>
      </defs>
      <g>
       <use xlink:href="#m9dcf183361" x="76.4" y="560.571" style="stroke: #000000; stroke-width: 0.8"/>
      </g>
     </g>
     <g id="text_1">
      <!-- $\mathdefault{10^{-11}}$ -->
      <g transform="translate(45.71 584.287562) scale(0.22 -0.22)">
       <defs>
        <path id="DejaVuSerif-31" d="M 909 0 
L 909 331 
L 1722 331 
L 1722 4213 
L 781 3603 
L 781 4013 
L 1919 4750 
L 2350 4750 
L 2350 331 
L 3163 331 
L 3163 0 
L 909 0 
z
" transform="scale(0.015625)"/>
        <path id="DejaVuSerif-30" d="M 2034 219 
Q 2513 219 2750 744 
Q 2988 1269 2988 2328 
Q 2988 3391 2750 3916 
Q 2513 4441 2034 4441 
Q 1556 4441 1318 3916 
Q 1081 3391 1081 2328 
Q 1081 1269 1318 744 
Q 1556 219 2034 219 
z
M 2034 -91 
Q 1275 -91 848 546 
Q 422 1184 422 2328 
Q 422 3475 848 4112 
Q 1275 4750 2034 4750 
Q 2797 4750 3222 4112 
Q 3647 3475 3647 2328 
Q 3647 1184 3222 546 
Q 2797 -91 2034 -91 
z
" transform="scale(0.015625)"/>
        <path id="DejaVuSerif-2212" d="M 678 2259 
L 4684 2259 
L 4684 1753 
L 678 1753 
L 678 2259 
z
" transform="scale(0.015625)"/>
       </defs>
       <use xlink:href="#DejaVuSerif-31" transform="translate(0 0.7125)"/>
       <use xlink:href="#DejaVuSerif-30" transform="translate(63.623047 0.7125)"/>
       <use xlink:href="#DejaVuSerif-2212" transform="translate(128.154453 37.046875) scale(0.7)"/>
       <use xlink:href="#DejaVuSerif-31" transform="translate(186.806797 37.046875) scale(0.7)"/>
       <use xlink:href="#DejaVuSerif-31" transform="translate(231.34293 37.046875) scale(0.7)"/>
      </g>
     </g>
    </g>
    <g id="xtick_2">
     <g id="line2d_3">
      <path d="M 198.78454 560.571 
L 198.78454 62.234 
" clip-path="url(#pf5c249c866)" style="fill: none; stroke-dasharray: 4.625,2; stroke-dashoffset: 0; stroke: #343837; stroke-opacity: 0.8; stroke-width: 1.25"/>
     </g>
     <g id="line2d_4">
      <g>
       <use xlink:href="#m9dcf183361" x="198.78454" y="560.571" style="stroke: #000000; stroke-width: 0.8"/>
      </g>
     </g>
     <g id="text_2">
      <!-- $\mathdefault{10^{-9}}$ -->
      <g transform="translate(173.04454 584.287562) scale(0.22 -0.22)">
       <defs>
        <path id="DejaVuSerif-39" d="M 2994 2091 
Q 2784 1856 2512 1740 
Q 2241 1625 1900 1625 
Q 1206 1625 804 2044 
Q 403 2463 403 3188 
Q 403 3897 839 4323 
Q 1275 4750 2003 4750 
Q 2794 4750 3217 4161 
Q 3641 3572 3641 2478 
Q 3641 1253 3137 581 
Q 2634 -91 1722 -91 
Q 1475 -91 1203 -44 
Q 931 3 647 97 
L 647 872 
L 997 872 
Q 1038 556 1241 387 
Q 1444 219 1784 219 
Q 2391 219 2687 676 
Q 2984 1134 2994 2091 
z
M 1978 4441 
Q 1534 4441 1298 4117 
Q 1063 3794 1063 3188 
Q 1063 2581 1298 2256 
Q 1534 1931 1978 1931 
Q 2422 1931 2658 2245 
Q 2894 2559 2894 3150 
Q 2894 3772 2656 4106 
Q 2419 4441 1978 4441 
z
" transform="scale(0.015625)"/>
       </defs>
       <use xlink:href="#DejaVuSerif-31" transform="translate(0 0.7125)"/>
       <use xlink:href="#DejaVuSerif-30" transform="translate(63.623047 0.7125)"/>
       <use xlink:href="#DejaVuSerif-2212" transform="translate(128.154453 37.046875) scale(0.7)"/>
       <use xlink:href="#DejaVuSerif-39" transform="translate(186.806797 37.046875) scale(0.7)"/>
      </g>
     </g>
    </g>
    <g id="xtick_3">
     <g id="line2d_5">
      <path d="M 321.16908 560.571 
L 321.16908 62.234 
" clip-path="url(#pf5c249c866)" style="fill: none; stroke-dasharray: 4.625,2; stroke-dashoffset: 0; stroke: #343837; stroke-opacity: 0.8; stroke-width: 1.25"/>
     </g>
     <g id="line2d_6">
      <g>
       <use xlink:href="#m9dcf183361" x="321.16908" y="560.571" style="stroke: #000000; stroke-width: 0.8"/>
      </g>
     </g>
     <g id="text_3">
      <!-- $\mathdefault{10^{-7}}$ -->
      <g transform="translate(295.42908 584.287562) scale(0.22 -0.22)">
       <defs>
        <path id="DejaVuSerif-37" d="M 3609 4347 
L 1784 0 
L 1319 0 
L 3059 4153 
L 903 4153 
L 903 3578 
L 538 3578 
L 538 4666 
L 3609 4666 
L 3609 4347 
z
" transform="scale(0.015625)"/>
       </defs>
       <use xlink:href="#DejaVuSerif-31" transform="translate(0 0.63125)"/>
       <use xlink:href="#DejaVuSerif-30" transform="translate(63.623047 0.63125)"/>
       <use xlink:href="#DejaVuSerif-2212" transform="translate(128.154453 36.965625) scale(0.7)"/>
       <use xlink:href="#DejaVuSerif-37" transform="translate(186.806797 36.965625) scale(0.7)"/>
      </g>
     </g>
    </g>
    <g id="xtick_4">
     <g id="line2d_7">
      <path d="M 443.553621 560.571 
L 443.553621 62.234 
" clip-path="url(#pf5c249c866)" style="fill: none; stroke-dasharray: 4.625,2; stroke-dashoffset: 0; stroke: #343837; stroke-opacity: 0.8; stroke-width: 1.25"/>
     </g>
     <g id="line2d_8">
      <g>
       <use xlink:href="#m9dcf183361" x="443.553621" y="560.571" style="stroke: #000000; stroke-width: 0.8"/>
      </g>
     </g>
     <g id="text_4">
      <!-- $\mathdefault{10^{-5}}$ -->
      <g transform="translate(417.813621 584.287562) scale(0.22 -0.22)">
       <defs>
        <path id="DejaVuSerif-35" d="M 3219 4666 
L 3219 4153 
L 1081 4153 
L 1081 2816 
Q 1244 2928 1461 2984 
Q 1678 3041 1947 3041 
Q 2703 3041 3140 2622 
Q 3578 2203 3578 1478 
Q 3578 738 3136 323 
Q 2694 -91 1894 -91 
Q 1572 -91 1234 -12 
Q 897 66 544 225 
L 544 1131 
L 897 1131 
Q 925 688 1179 453 
Q 1434 219 1894 219 
Q 2388 219 2653 544 
Q 2919 869 2919 1478 
Q 2919 2084 2655 2407 
Q 2391 2731 1894 2731 
Q 1613 2731 1398 2631 
Q 1184 2531 1019 2322 
L 750 2322 
L 750 4666 
L 3219 4666 
z
" transform="scale(0.015625)"/>
       </defs>
       <use xlink:href="#DejaVuSerif-31" transform="translate(0 0.63125)"/>
       <use xlink:href="#DejaVuSerif-30" transform="translate(63.623047 0.63125)"/>
       <use xlink:href="#DejaVuSerif-2212" transform="translate(128.154453 36.965625) scale(0.7)"/>
       <use xlink:href="#DejaVuSerif-35" transform="translate(186.806797 36.965625) scale(0.7)"/>
      </g>
     </g>
    </g>
    <g id="xtick_5">
     <g id="line2d_9">
      <path d="M 565.938161 560.571 
L 565.938161 62.234 
" clip-path="url(#pf5c249c866)" style="fill: none; stroke-dasharray: 4.625,2; stroke-dashoffset: 0; stroke: #343837; stroke-opacity: 0.8; stroke-width: 1.25"/>
     </g>
     <g id="line2d_10">
      <g>
       <use xlink:href="#m9dcf183361" x="565.938161" y="560.571" style="stroke: #000000; stroke-width: 0.8"/>
      </g>
     </g>
     <g id="text_5">
      <!-- $\mathdefault{10^{-3}}$ -->
      <g transform="translate(540.198161 584.287562) scale(0.22 -0.22)">
       <defs>
        <path id="DejaVuSerif-33" d="M 622 4469 
Q 988 4606 1323 4678 
Q 1659 4750 1953 4750 
Q 2638 4750 3022 4454 
Q 3406 4159 3406 3634 
Q 3406 3213 3140 2930 
Q 2875 2647 2388 2547 
Q 2963 2466 3280 2130 
Q 3597 1794 3597 1259 
Q 3597 606 3158 257 
Q 2719 -91 1894 -91 
Q 1528 -91 1179 -12 
Q 831 66 488 225 
L 488 1131 
L 838 1131 
Q 869 681 1141 450 
Q 1413 219 1906 219 
Q 2384 219 2661 495 
Q 2938 772 2938 1253 
Q 2938 1803 2653 2086 
Q 2369 2369 1819 2369 
L 1522 2369 
L 1522 2688 
L 1678 2688 
Q 2225 2688 2498 2914 
Q 2772 3141 2772 3597 
Q 2772 4006 2547 4223 
Q 2322 4441 1900 4441 
Q 1478 4441 1245 4241 
Q 1013 4041 972 3647 
L 622 3647 
L 622 4469 
z
" transform="scale(0.015625)"/>
       </defs>
       <use xlink:href="#DejaVuSerif-31" transform="translate(0 0.7125)"/>
       <use xlink:href="#DejaVuSerif-30" transform="translate(63.623047 0.7125)"/>
       <use xlink:href="#DejaVuSerif-2212" transform="translate(128.154453 37.046875) scale(0.7)"/>
       <use xlink:href="#DejaVuSerif-33" transform="translate(186.806797 37.046875) scale(0.7)"/>
      </g>
     </g>
    </g>
    <g id="xtick_6">
     <g id="line2d_11">
      <path d="M 688.322701 560.571 
L 688.322701 62.234 
" clip-path="url(#pf5c249c866)" style="fill: none; stroke-dasharray: 4.625,2; stroke-dashoffset: 0; stroke: #343837; stroke-opacity: 0.8; stroke-width: 1.25"/>
     </g>
     <g id="line2d_12">
      <g>
       <use xlink:href="#m9dcf183361" x="688.322701" y="560.571" style="stroke: #000000; stroke-width: 0.8"/>
      </g>
     </g>
     <g id="text_6">
      <!-- $\mathdefault{10^{-1}}$ -->
      <g transform="translate(662.582701 584.287562) scale(0.22 -0.22)">
       <use xlink:href="#DejaVuSerif-31" transform="translate(0 0.7125)"/>
       <use xlink:href="#DejaVuSerif-30" transform="translate(63.623047 0.7125)"/>
       <use xlink:href="#DejaVuSerif-2212" transform="translate(128.154453 37.046875) scale(0.7)"/>
       <use xlink:href="#DejaVuSerif-31" transform="translate(186.806797 37.046875) scale(0.7)"/>
      </g>
     </g>
    </g>
    <g id="xtick_7">
     <g id="line2d_13">
      <path d="M 810.707241 560.571 
L 810.707241 62.234 
" clip-path="url(#pf5c249c866)" style="fill: none; stroke-dasharray: 4.625,2; stroke-dashoffset: 0; stroke: #343837; stroke-opacity: 0.8; stroke-width: 1.25"/>
     </g>
     <g id="line2d_14">
      <g>
       <use xlink:href="#m9dcf183361" x="810.707241" y="560.571" style="stroke: #000000; stroke-width: 0.8"/>
      </g>
     </g>
     <g id="text_7">
      <!-- $\mathdefault{10^{1}}$ -->
      <g transform="translate(791.347241 584.287562) scale(0.22 -0.22)">
       <use xlink:href="#DejaVuSerif-31" transform="translate(0 0.7125)"/>
       <use xlink:href="#DejaVuSerif-30" transform="translate(63.623047 0.7125)"/>
       <use xlink:href="#DejaVuSerif-31" transform="translate(128.154453 37.046875) scale(0.7)"/>
      </g>
     </g>
    </g>
    <g id="text_8">
     <!-- Energy of incident neutron (MeV) -->
     <g transform="translate(237.400313 620.618812) scale(0.26 -0.26)">
      <defs>
       <path id="DejaVuSerif-45" d="M 353 0 
L 353 331 
L 947 331 
L 947 4331 
L 353 4331 
L 353 4666 
L 4109 4666 
L 4109 3628 
L 3725 3628 
L 3725 4281 
L 1581 4281 
L 1581 2719 
L 3109 2719 
L 3109 3303 
L 3494 3303 
L 3494 1753 
L 3109 1753 
L 3109 2338 
L 1581 2338 
L 1581 384 
L 3775 384 
L 3775 1038 
L 4159 1038 
L 4159 0 
L 353 0 
z
" transform="scale(0.015625)"/>
       <path id="DejaVuSerif-6e" d="M 263 0 
L 263 331 
L 781 331 
L 781 2988 
L 231 2988 
L 231 3322 
L 1356 3322 
L 1356 2731 
Q 1516 3069 1770 3241 
Q 2025 3413 2363 3413 
Q 2913 3413 3172 3097 
Q 3431 2781 3431 2113 
L 3431 331 
L 3944 331 
L 3944 0 
L 2356 0 
L 2356 331 
L 2853 331 
L 2853 1931 
Q 2853 2541 2703 2767 
Q 2553 2994 2175 2994 
Q 1775 2994 1565 2701 
Q 1356 2409 1356 1850 
L 1356 331 
L 1856 331 
L 1856 0 
L 263 0 
z
" transform="scale(0.015625)"/>
       <path id="DejaVuSerif-65" d="M 3469 1600 
L 991 1600 
L 991 1575 
Q 991 903 1244 561 
Q 1497 219 1991 219 
Q 2369 219 2611 417 
Q 2853 616 2950 1006 
L 3413 1006 
Q 3275 459 2904 184 
Q 2534 -91 1931 -91 
Q 1203 -91 761 389 
Q 319 869 319 1663 
Q 319 2450 753 2931 
Q 1188 3413 1894 3413 
Q 2647 3413 3050 2948 
Q 3453 2484 3469 1600 
z
M 2791 1931 
Q 2772 2513 2545 2808 
Q 2319 3103 1894 3103 
Q 1497 3103 1269 2806 
Q 1041 2509 991 1931 
L 2791 1931 
z
" transform="scale(0.015625)"/>
       <path id="DejaVuSerif-72" d="M 3059 3328 
L 3059 2497 
L 2728 2497 
Q 2713 2744 2591 2866 
Q 2469 2988 2234 2988 
Q 1809 2988 1582 2694 
Q 1356 2400 1356 1850 
L 1356 331 
L 2022 331 
L 2022 0 
L 263 0 
L 263 331 
L 781 331 
L 781 2994 
L 231 2994 
L 231 3322 
L 1356 3322 
L 1356 2731 
Q 1525 3078 1790 3245 
Q 2056 3413 2438 3413 
Q 2578 3413 2733 3391 
Q 2888 3369 3059 3328 
z
" transform="scale(0.015625)"/>
       <path id="DejaVuSerif-67" d="M 3359 2988 
L 3359 72 
Q 3359 -644 2965 -1033 
Q 2572 -1422 1844 -1422 
Q 1516 -1422 1216 -1362 
Q 916 -1303 641 -1184 
L 641 -488 
L 941 -488 
Q 997 -813 1206 -963 
Q 1416 -1113 1806 -1113 
Q 2313 -1113 2548 -827 
Q 2784 -541 2784 72 
L 2784 519 
Q 2616 206 2355 57 
Q 2094 -91 1709 -91 
Q 1097 -91 708 395 
Q 319 881 319 1663 
Q 319 2444 706 2928 
Q 1094 3413 1709 3413 
Q 2094 3413 2355 3264 
Q 2616 3116 2784 2803 
L 2784 3322 
L 3909 3322 
L 3909 2988 
L 3359 2988 
z
M 2784 1825 
Q 2784 2422 2554 2737 
Q 2325 3053 1888 3053 
Q 1444 3053 1217 2703 
Q 991 2353 991 1663 
Q 991 975 1217 622 
Q 1444 269 1888 269 
Q 2325 269 2554 583 
Q 2784 897 2784 1497 
L 2784 1825 
z
" transform="scale(0.015625)"/>
       <path id="DejaVuSerif-79" d="M 1381 -609 
L 1600 -56 
L 359 2988 
L -19 2988 
L -19 3322 
L 1509 3322 
L 1509 2988 
L 978 2988 
L 1913 703 
L 2847 2988 
L 2350 2988 
L 2350 3322 
L 3597 3322 
L 3597 2988 
L 3225 2988 
L 1703 -750 
Q 1547 -1138 1356 -1280 
Q 1166 -1422 819 -1422 
Q 672 -1422 517 -1397 
Q 363 -1372 206 -1325 
L 206 -691 
L 500 -691 
Q 519 -903 608 -995 
Q 697 -1088 884 -1088 
Q 1056 -1088 1161 -992 
Q 1266 -897 1381 -609 
z
" transform="scale(0.015625)"/>
       <path id="DejaVuSerif-20" transform="scale(0.015625)"/>
       <path id="DejaVuSerif-6f" d="M 1925 219 
Q 2388 219 2623 584 
Q 2859 950 2859 1663 
Q 2859 2375 2623 2739 
Q 2388 3103 1925 3103 
Q 1463 3103 1227 2739 
Q 991 2375 991 1663 
Q 991 950 1228 584 
Q 1466 219 1925 219 
z
M 1925 -91 
Q 1200 -91 759 389 
Q 319 869 319 1663 
Q 319 2456 758 2934 
Q 1197 3413 1925 3413 
Q 2653 3413 3092 2934 
Q 3531 2456 3531 1663 
Q 3531 869 3092 389 
Q 2653 -91 1925 -91 
z
" transform="scale(0.015625)"/>
       <path id="DejaVuSerif-66" d="M 2753 4078 
L 2450 4078 
Q 2447 4313 2317 4434 
Q 2188 4556 1941 4556 
Q 1619 4556 1487 4379 
Q 1356 4203 1356 3750 
L 1356 3322 
L 2284 3322 
L 2284 2988 
L 1356 2988 
L 1356 331 
L 2094 331 
L 2094 0 
L 231 0 
L 231 331 
L 781 331 
L 781 2988 
L 231 2988 
L 231 3322 
L 781 3322 
L 781 3738 
Q 781 4294 1070 4578 
Q 1359 4863 1919 4863 
Q 2128 4863 2337 4825 
Q 2547 4788 2753 4709 
L 2753 4078 
z
" transform="scale(0.015625)"/>
       <path id="DejaVuSerif-69" d="M 622 4353 
Q 622 4497 726 4603 
Q 831 4709 978 4709 
Q 1122 4709 1226 4603 
Q 1331 4497 1331 4353 
Q 1331 4206 1228 4103 
Q 1125 4000 978 4000 
Q 831 4000 726 4103 
Q 622 4206 622 4353 
z
M 1356 331 
L 1900 331 
L 1900 0 
L 231 0 
L 231 331 
L 781 331 
L 781 2988 
L 231 2988 
L 231 3322 
L 1356 3322 
L 1356 331 
z
" transform="scale(0.015625)"/>
       <path id="DejaVuSerif-63" d="M 3291 997 
Q 3169 466 2822 187 
Q 2475 -91 1925 -91 
Q 1200 -91 759 389 
Q 319 869 319 1663 
Q 319 2459 759 2936 
Q 1200 3413 1925 3413 
Q 2241 3413 2553 3339 
Q 2866 3266 3181 3116 
L 3181 2266 
L 2847 2266 
Q 2781 2703 2561 2903 
Q 2341 3103 1931 3103 
Q 1466 3103 1228 2742 
Q 991 2381 991 1663 
Q 991 944 1227 581 
Q 1463 219 1931 219 
Q 2303 219 2525 412 
Q 2747 606 2828 997 
L 3291 997 
z
" transform="scale(0.015625)"/>
       <path id="DejaVuSerif-64" d="M 3359 331 
L 3909 331 
L 3909 0 
L 2784 0 
L 2784 519 
Q 2616 206 2355 57 
Q 2094 -91 1709 -91 
Q 1097 -91 708 395 
Q 319 881 319 1663 
Q 319 2444 706 2928 
Q 1094 3413 1709 3413 
Q 2094 3413 2355 3264 
Q 2616 3116 2784 2803 
L 2784 4531 
L 2241 4531 
L 2241 4863 
L 3359 4863 
L 3359 331 
z
M 2784 1497 
L 2784 1825 
Q 2784 2422 2554 2737 
Q 2325 3053 1888 3053 
Q 1444 3053 1217 2703 
Q 991 2353 991 1663 
Q 991 975 1217 622 
Q 1444 269 1888 269 
Q 2325 269 2554 583 
Q 2784 897 2784 1497 
z
" transform="scale(0.015625)"/>
       <path id="DejaVuSerif-74" d="M 691 2988 
L 184 2988 
L 184 3322 
L 691 3322 
L 691 4353 
L 1269 4353 
L 1269 3322 
L 2350 3322 
L 2350 2988 
L 1269 2988 
L 1269 878 
Q 1269 456 1350 337 
Q 1431 219 1650 219 
Q 1875 219 1978 351 
Q 2081 484 2088 781 
L 2522 781 
Q 2497 328 2275 118 
Q 2053 -91 1600 -91 
Q 1103 -91 897 129 
Q 691 350 691 878 
L 691 2988 
z
" transform="scale(0.015625)"/>
       <path id="DejaVuSerif-75" d="M 2266 3322 
L 3341 3322 
L 3341 331 
L 3884 331 
L 3884 0 
L 2766 0 
L 2766 588 
Q 2606 256 2353 82 
Q 2100 -91 1766 -91 
Q 1213 -91 952 223 
Q 691 538 691 1209 
L 691 2988 
L 172 2988 
L 172 3322 
L 1269 3322 
L 1269 1388 
Q 1269 781 1417 556 
Q 1566 331 1947 331 
Q 2347 331 2556 625 
Q 2766 919 2766 1478 
L 2766 2988 
L 2266 2988 
L 2266 3322 
z
" transform="scale(0.015625)"/>
       <path id="DejaVuSerif-28" d="M 2041 -997 
Q 1281 -656 893 83 
Q 506 822 506 1931 
Q 506 3044 893 3783 
Q 1281 4522 2041 4863 
L 2041 4556 
Q 1559 4225 1350 3623 
Q 1141 3022 1141 1931 
Q 1141 844 1350 242 
Q 1559 -359 2041 -691 
L 2041 -997 
z
" transform="scale(0.015625)"/>
       <path id="DejaVuSerif-4d" d="M 353 0 
L 353 331 
L 947 331 
L 947 4331 
L 319 4331 
L 319 4666 
L 1678 4666 
L 3316 1344 
L 4953 4666 
L 6228 4666 
L 6228 4331 
L 5606 4331 
L 5606 331 
L 6203 331 
L 6203 0 
L 4378 0 
L 4378 331 
L 4972 331 
L 4972 3938 
L 3372 684 
L 2931 684 
L 1331 3938 
L 1331 331 
L 1925 331 
L 1925 0 
L 353 0 
z
" transform="scale(0.015625)"/>
       <path id="DejaVuSerif-56" d="M 1119 4331 
L 2497 750 
L 3872 4331 
L 3347 4331 
L 3347 4666 
L 4716 4666 
L 4716 4331 
L 4263 4331 
L 2597 0 
L 2059 0 
L 403 4331 
L -63 4331 
L -63 4666 
L 1638 4666 
L 1638 4331 
L 1119 4331 
z
" transform="scale(0.015625)"/>
       <path id="DejaVuSerif-29" d="M 453 -997 
L 453 -691 
Q 934 -359 1145 242 
Q 1356 844 1356 1931 
Q 1356 3022 1145 3623 
Q 934 4225 453 4556 
L 453 4863 
Q 1216 4522 1603 3783 
Q 1991 3044 1991 1931 
Q 1991 822 1603 83 
Q 1216 -656 453 -997 
z
" transform="scale(0.015625)"/>
      </defs>
      <use xlink:href="#DejaVuSerif-45"/>
      <use xlink:href="#DejaVuSerif-6e" transform="translate(72.998047 0)"/>
      <use xlink:href="#DejaVuSerif-65" transform="translate(137.402344 0)"/>
      <use xlink:href="#DejaVuSerif-72" transform="translate(196.582031 0)"/>
      <use xlink:href="#DejaVuSerif-67" transform="translate(244.384766 0)"/>
      <use xlink:href="#DejaVuSerif-79" transform="translate(308.398438 0)"/>
      <use xlink:href="#DejaVuSerif-20" transform="translate(364.892578 0)"/>
      <use xlink:href="#DejaVuSerif-6f" transform="translate(396.679688 0)"/>
      <use xlink:href="#DejaVuSerif-66" transform="translate(456.884766 0)"/>
      <use xlink:href="#DejaVuSerif-20" transform="translate(493.896484 0)"/>
      <use xlink:href="#DejaVuSerif-69" transform="translate(525.683594 0)"/>
      <use xlink:href="#DejaVuSerif-6e" transform="translate(557.666016 0)"/>
      <use xlink:href="#DejaVuSerif-63" transform="translate(622.070312 0)"/>
      <use xlink:href="#DejaVuSerif-69" transform="translate(678.076172 0)"/>
      <use xlink:href="#DejaVuSerif-64" transform="translate(710.058594 0)"/>
      <use xlink:href="#DejaVuSerif-65" transform="translate(774.072266 0)"/>
      <use xlink:href="#DejaVuSerif-6e" transform="translate(833.251953 0)"/>
      <use xlink:href="#DejaVuSerif-74" transform="translate(897.65625 0)"/>
      <use xlink:href="#DejaVuSerif-20" transform="translate(937.841797 0)"/>
      <use xlink:href="#DejaVuSerif-6e" transform="translate(969.628906 0)"/>
      <use xlink:href="#DejaVuSerif-65" transform="translate(1034.033203 0)"/>
      <use xlink:href="#DejaVuSerif-75" transform="translate(1093.212891 0)"/>
      <use xlink:href="#DejaVuSerif-74" transform="translate(1157.617188 0)"/>
      <use xlink:href="#DejaVuSerif-72" transform="translate(1197.802734 0)"/>
      <use xlink:href="#DejaVuSerif-6f" transform="translate(1245.605469 0)"/>
      <use xlink:href="#DejaVuSerif-6e" transform="translate(1305.810547 0)"/>
      <use xlink:href="#DejaVuSerif-20" transform="translate(1370.214844 0)"/>
      <use xlink:href="#DejaVuSerif-28" transform="translate(1402.001953 0)"/>
      <use xlink:href="#DejaVuSerif-4d" transform="translate(1441.015625 0)"/>
      <use xlink:href="#DejaVuSerif-65" transform="translate(1543.408203 0)"/>
      <use xlink:href="#DejaVuSerif-56" transform="translate(1602.587891 0)"/>
      <use xlink:href="#DejaVuSerif-29" transform="translate(1674.804688 0)"/>
     </g>
    </g>
   </g>
   <g id="matplotlib.axis_2">
    <g id="ytick_1">
     <g id="line2d_15">
      <path d="M 76.4 560.571 
L 844 560.571 
" clip-path="url(#pf5c249c866)" style="fill: none; stroke-dasharray: 4.625,2; stroke-dashoffset: 0; stroke: #343837; stroke-opacity: 0.8; stroke-width: 1.25"/>
     </g>
     <g id="line2d_16">
      <defs>
       <path id="mac1be9c7fd" d="M 0 0 
L -3.5 0 
" style="stroke: #000000; stroke-width: 0.8"/>
      </defs>
      <g>
       <use xlink:href="#mac1be9c7fd" x="76.4" y="560.571" style="stroke: #000000; stroke-width: 0.8"/>
      </g>
     </g>
     <g id="text_9">
      <!-- 0 -->
      <g transform="translate(55.4025 568.929281) scale(0.22 -0.22)">
       <use xlink:href="#DejaVuSerif-30"/>
      </g>
     </g>
    </g>
    <g id="ytick_2">
     <g id="line2d_17">
      <path d="M 76.4 495.000342 
L 844 495.000342 
" clip-path="url(#pf5c249c866)" style="fill: none; stroke-dasharray: 4.625,2; stroke-dashoffset: 0; stroke: #343837; stroke-opacity: 0.8; stroke-width: 1.25"/>
     </g>
     <g id="line2d_18">
      <g>
       <use xlink:href="#mac1be9c7fd" x="76.4" y="495.000342" style="stroke: #000000; stroke-width: 0.8"/>
      </g>
     </g>
     <g id="text_10">
      <!-- 1 -->
      <g transform="translate(55.4025 503.358623) scale(0.22 -0.22)">
       <use xlink:href="#DejaVuSerif-31"/>
      </g>
     </g>
    </g>
    <g id="ytick_3">
     <g id="line2d_19">
      <path d="M 76.4 429.429684 
L 844 429.429684 
" clip-path="url(#pf5c249c866)" style="fill: none; stroke-dasharray: 4.625,2; stroke-dashoffset: 0; stroke: #343837; stroke-opacity: 0.8; stroke-width: 1.25"/>
     </g>
     <g id="line2d_20">
      <g>
       <use xlink:href="#mac1be9c7fd" x="76.4" y="429.429684" style="stroke: #000000; stroke-width: 0.8"/>
      </g>
     </g>
     <g id="text_11">
      <!-- 2 -->
      <g transform="translate(55.4025 437.787965) scale(0.22 -0.22)">
       <defs>
        <path id="DejaVuSerif-32" d="M 819 3553 
L 469 3553 
L 469 4384 
Q 803 4563 1142 4656 
Q 1481 4750 1806 4750 
Q 2534 4750 2956 4397 
Q 3378 4044 3378 3438 
Q 3378 2753 2422 1800 
Q 2347 1728 2309 1691 
L 1131 513 
L 3078 513 
L 3078 1088 
L 3444 1088 
L 3444 0 
L 434 0 
L 434 341 
L 1850 1753 
Q 2319 2222 2519 2614 
Q 2719 3006 2719 3438 
Q 2719 3909 2473 4175 
Q 2228 4441 1797 4441 
Q 1350 4441 1106 4219 
Q 863 3997 819 3553 
z
" transform="scale(0.015625)"/>
       </defs>
       <use xlink:href="#DejaVuSerif-32"/>
      </g>
     </g>
    </g>
    <g id="ytick_4">
     <g id="line2d_21">
      <path d="M 76.4 363.859026 
L 844 363.859026 
" clip-path="url(#pf5c249c866)" style="fill: none; stroke-dasharray: 4.625,2; stroke-dashoffset: 0; stroke: #343837; stroke-opacity: 0.8; stroke-width: 1.25"/>
     </g>
     <g id="line2d_22">
      <g>
       <use xlink:href="#mac1be9c7fd" x="76.4" y="363.859026" style="stroke: #000000; stroke-width: 0.8"/>
      </g>
     </g>
     <g id="text_12">
      <!-- 3 -->
      <g transform="translate(55.4025 372.217308) scale(0.22 -0.22)">
       <use xlink:href="#DejaVuSerif-33"/>
      </g>
     </g>
    </g>
    <g id="ytick_5">
     <g id="line2d_23">
      <path d="M 76.4 298.288368 
L 844 298.288368 
" clip-path="url(#pf5c249c866)" style="fill: none; stroke-dasharray: 4.625,2; stroke-dashoffset: 0; stroke: #343837; stroke-opacity: 0.8; stroke-width: 1.25"/>
     </g>
     <g id="line2d_24">
      <g>
       <use xlink:href="#mac1be9c7fd" x="76.4" y="298.288368" style="stroke: #000000; stroke-width: 0.8"/>
      </g>
     </g>
     <g id="text_13">
      <!-- 4 -->
      <g transform="translate(55.4025 306.64665) scale(0.22 -0.22)">
       <defs>
        <path id="DejaVuSerif-34" d="M 2234 1581 
L 2234 4063 
L 641 1581 
L 2234 1581 
z
M 3609 0 
L 1484 0 
L 1484 331 
L 2234 331 
L 2234 1247 
L 197 1247 
L 197 1588 
L 2241 4750 
L 2859 4750 
L 2859 1581 
L 3750 1581 
L 3750 1247 
L 2859 1247 
L 2859 331 
L 3609 331 
L 3609 0 
z
" transform="scale(0.015625)"/>
       </defs>
       <use xlink:href="#DejaVuSerif-34"/>
      </g>
     </g>
    </g>
    <g id="ytick_6">
     <g id="line2d_25">
      <path d="M 76.4 232.717711 
L 844 232.717711 
" clip-path="url(#pf5c249c866)" style="fill: none; stroke-dasharray: 4.625,2; stroke-dashoffset: 0; stroke: #343837; stroke-opacity: 0.8; stroke-width: 1.25"/>
     </g>
     <g id="line2d_26">
      <g>
       <use xlink:href="#mac1be9c7fd" x="76.4" y="232.717711" style="stroke: #000000; stroke-width: 0.8"/>
      </g>
     </g>
     <g id="text_14">
      <!-- 5 -->
      <g transform="translate(55.4025 241.075992) scale(0.22 -0.22)">
       <use xlink:href="#DejaVuSerif-35"/>
      </g>
     </g>
    </g>
    <g id="ytick_7">
     <g id="line2d_27">
      <path d="M 76.4 167.147053 
L 844 167.147053 
" clip-path="url(#pf5c249c866)" style="fill: none; stroke-dasharray: 4.625,2; stroke-dashoffset: 0; stroke: #343837; stroke-opacity: 0.8; stroke-width: 1.25"/>
     </g>
     <g id="line2d_28">
      <g>
       <use xlink:href="#mac1be9c7fd" x="76.4" y="167.147053" style="stroke: #000000; stroke-width: 0.8"/>
      </g>
     </g>
     <g id="text_15">
      <!-- 6 -->
      <g transform="translate(55.4025 175.505334) scale(0.22 -0.22)">
       <defs>
        <path id="DejaVuSerif-36" d="M 2094 219 
Q 2534 219 2771 542 
Q 3009 866 3009 1472 
Q 3009 2078 2771 2401 
Q 2534 2725 2094 2725 
Q 1647 2725 1412 2412 
Q 1178 2100 1178 1509 
Q 1178 888 1415 553 
Q 1653 219 2094 219 
z
M 1075 2569 
Q 1288 2803 1556 2918 
Q 1825 3034 2163 3034 
Q 2859 3034 3264 2615 
Q 3669 2197 3669 1472 
Q 3669 763 3233 336 
Q 2797 -91 2069 -91 
Q 1278 -91 853 498 
Q 428 1088 428 2181 
Q 428 3406 931 4078 
Q 1434 4750 2350 4750 
Q 2597 4750 2869 4703 
Q 3141 4656 3425 4563 
L 3425 3794 
L 3072 3794 
Q 3034 4109 2831 4275 
Q 2628 4441 2284 4441 
Q 1678 4441 1381 3981 
Q 1084 3522 1075 2569 
z
" transform="scale(0.015625)"/>
       </defs>
       <use xlink:href="#DejaVuSerif-36"/>
      </g>
     </g>
    </g>
    <g id="ytick_8">
     <g id="line2d_29">
      <path d="M 76.4 101.576395 
L 844 101.576395 
" clip-path="url(#pf5c249c866)" style="fill: none; stroke-dasharray: 4.625,2; stroke-dashoffset: 0; stroke: #343837; stroke-opacity: 0.8; stroke-width: 1.25"/>
     </g>
     <g id="line2d_30">
      <g>
       <use xlink:href="#mac1be9c7fd" x="76.4" y="101.576395" style="stroke: #000000; stroke-width: 0.8"/>
      </g>
     </g>
     <g id="text_16">
      <!-- 7 -->
      <g transform="translate(55.4025 109.934676) scale(0.22 -0.22)">
       <use xlink:href="#DejaVuSerif-37"/>
      </g>
     </g>
    </g>
    <g id="text_17">
     <!-- Neutron reproduction factor $\eta$ -->
     <g transform="translate(41.9425 511.6025) rotate(-90) scale(0.26 -0.26)">
      <defs>
       <path id="DejaVuSerif-4e" d="M 313 0 
L 313 331 
L 941 331 
L 941 4331 
L 313 4331 
L 313 4666 
L 1509 4666 
L 4306 984 
L 4306 4331 
L 3681 4331 
L 3681 4666 
L 5319 4666 
L 5319 4331 
L 4691 4331 
L 4691 -91 
L 4313 -91 
L 1325 3841 
L 1325 331 
L 1953 331 
L 1953 0 
L 313 0 
z
" transform="scale(0.015625)"/>
       <path id="DejaVuSerif-70" d="M 1313 1825 
L 1313 1497 
Q 1313 897 1542 583 
Q 1772 269 2209 269 
Q 2650 269 2876 622 
Q 3103 975 3103 1663 
Q 3103 2353 2876 2703 
Q 2650 3053 2209 3053 
Q 1772 3053 1542 2737 
Q 1313 2422 1313 1825 
z
M 738 2988 
L 184 2988 
L 184 3322 
L 1313 3322 
L 1313 2803 
Q 1481 3116 1742 3264 
Q 2003 3413 2388 3413 
Q 3000 3413 3387 2928 
Q 3775 2444 3775 1663 
Q 3775 881 3387 395 
Q 3000 -91 2388 -91 
Q 2003 -91 1742 57 
Q 1481 206 1313 519 
L 1313 -997 
L 1856 -997 
L 1856 -1331 
L 184 -1331 
L 184 -997 
L 738 -997 
L 738 2988 
z
" transform="scale(0.015625)"/>
       <path id="DejaVuSerif-61" d="M 2547 1044 
L 2547 1747 
L 1806 1747 
Q 1378 1747 1168 1562 
Q 959 1378 959 997 
Q 959 650 1171 447 
Q 1384 244 1747 244 
Q 2106 244 2326 466 
Q 2547 688 2547 1044 
z
M 3122 2075 
L 3122 331 
L 3634 331 
L 3634 0 
L 2547 0 
L 2547 359 
Q 2356 128 2106 18 
Q 1856 -91 1522 -91 
Q 969 -91 644 203 
Q 319 497 319 997 
Q 319 1513 691 1797 
Q 1063 2081 1741 2081 
L 2547 2081 
L 2547 2309 
Q 2547 2688 2317 2895 
Q 2088 3103 1672 3103 
Q 1328 3103 1125 2947 
Q 922 2791 872 2484 
L 575 2484 
L 575 3156 
Q 875 3284 1158 3348 
Q 1441 3413 1709 3413 
Q 2400 3413 2761 3070 
Q 3122 2728 3122 2075 
z
" transform="scale(0.015625)"/>
       <path id="DejaVuSerif-Italic-3b7" d="M 1153 0 
L 578 0 
L 1159 2988 
L 609 2988 
L 675 3322 
L 1800 3322 
L 1684 2731 
Q 1909 3069 2198 3241 
Q 2488 3413 2825 3413 
Q 3366 3413 3572 3097 
Q 3772 2791 3641 2113 
L 2969 -1331 
L 2391 -1331 
L 3025 1931 
Q 3144 2541 3037 2767 
Q 2931 2994 2553 2994 
Q 2153 2994 1887 2701 
Q 1622 2409 1513 1850 
L 1153 0 
z
" transform="scale(0.015625)"/>
      </defs>
      <use xlink:href="#DejaVuSerif-4e" transform="translate(0 0.015625)"/>
      <use xlink:href="#DejaVuSerif-65" transform="translate(87.5 0.015625)"/>
      <use xlink:href="#DejaVuSerif-75" transform="translate(146.679688 0.015625)"/>
      <use xlink:href="#DejaVuSerif-74" transform="translate(211.083984 0.015625)"/>
      <use xlink:href="#DejaVuSerif-72" transform="translate(251.269531 0.015625)"/>
      <use xlink:href="#DejaVuSerif-6f" transform="translate(299.072266 0.015625)"/>
      <use xlink:href="#DejaVuSerif-6e" transform="translate(359.277344 0.015625)"/>
      <use xlink:href="#DejaVuSerif-20" transform="translate(423.681641 0.015625)"/>
      <use xlink:href="#DejaVuSerif-72" transform="translate(455.46875 0.015625)"/>
      <use xlink:href="#DejaVuSerif-65" transform="translate(503.271484 0.015625)"/>
      <use xlink:href="#DejaVuSerif-70" transform="translate(562.451172 0.015625)"/>
      <use xlink:href="#DejaVuSerif-72" transform="translate(626.464844 0.015625)"/>
      <use xlink:href="#DejaVuSerif-6f" transform="translate(674.267578 0.015625)"/>
      <use xlink:href="#DejaVuSerif-64" transform="translate(734.472656 0.015625)"/>
      <use xlink:href="#DejaVuSerif-75" transform="translate(798.486328 0.015625)"/>
      <use xlink:href="#DejaVuSerif-63" transform="translate(862.890625 0.015625)"/>
      <use xlink:href="#DejaVuSerif-74" transform="translate(918.896484 0.015625)"/>
      <use xlink:href="#DejaVuSerif-69" transform="translate(959.082031 0.015625)"/>
      <use xlink:href="#DejaVuSerif-6f" transform="translate(991.064453 0.015625)"/>
      <use xlink:href="#DejaVuSerif-6e" transform="translate(1051.269531 0.015625)"/>
      <use xlink:href="#DejaVuSerif-20" transform="translate(1115.673828 0.015625)"/>
      <use xlink:href="#DejaVuSerif-66" transform="translate(1147.460938 0.015625)"/>
      <use xlink:href="#DejaVuSerif-61" transform="translate(1184.472656 0.015625)"/>
      <use xlink:href="#DejaVuSerif-63" transform="translate(1244.091797 0.015625)"/>
      <use xlink:href="#DejaVuSerif-74" transform="translate(1300.097656 0.015625)"/>
      <use xlink:href="#DejaVuSerif-6f" transform="translate(1340.283203 0.015625)"/>
      <use xlink:href="#DejaVuSerif-72" transform="translate(1400.488281 0.015625)"/>
      <use xlink:href="#DejaVuSerif-20" transform="translate(1448.291016 0.015625)"/>
      <use xlink:href="#DejaVuSerif-Italic-3b7" transform="translate(1480.078125 0.015625)"/>
     </g>
    </g>
   </g>
   <g id="line2d_31">
    <path d="M 76.400027 425.496275 
L 172.3056 425.370848 
L 201.143698 425.12031 
L 219.582673 424.746948 
L 233.432901 424.247697 
L 244.610813 423.622342 
L 251.719171 423.080816 
L 259.560508 422.318189 
L 267.569818 421.318302 
L 275.4646 420.083367 
L 282.969988 418.659683 
L 290.780784 416.930627 
L 303.653708 413.790054 
L 310.135981 412.353056 
L 314.465131 411.613517 
L 318.023128 411.228698 
L 321.069567 411.123019 
L 323.810599 411.25458 
L 326.253859 411.593138 
L 328.513874 412.126548 
L 330.674632 412.864276 
L 332.751402 413.81087 
L 334.759456 414.971969 
L 336.721699 416.361752 
L 338.729753 418.061165 
L 340.760712 420.072432 
L 343.035998 422.65586 
L 345.868652 426.251015 
L 350.113816 432.062091 
L 352.778496 435.531356 
L 354.320803 437.186076 
L 355.542433 438.189933 
L 356.565548 438.765777 
L 357.489405 439.044448 
L 358.329276 439.078426 
L 359.169146 438.889887 
L 360.024287 438.45979 
L 360.932874 437.735701 
L 361.902543 436.663475 
L 362.986739 435.116871 
L 364.22364 432.945566 
L 365.689595 429.906214 
L 367.636568 425.319924 
L 375.10378 407.227062 
L 377.180551 403.058399 
L 379.127523 399.636796 
L 381.013414 396.763509 
L 382.89167 394.30046 
L 384.754655 392.219529 
L 386.594735 390.491108 
L 388.366098 389.120281 
L 389.923676 388.177791 
L 391.259834 387.614202 
L 392.32876 387.394609 
L 393.222077 387.481092 
L 393.886338 387.780943 
L 394.466612 388.298251 
L 395.031616 389.110402 
L 395.62716 390.398232 
L 396.291421 392.438208 
L 397.925351 397.725981 
L 398.238394 397.982955 
L 398.48272 397.91752 
L 398.757587 397.584771 
L 399.177522 396.675861 
L 401.865107 389.96568 
L 402.735519 388.713937 
L 403.758634 387.679341 
L 404.835195 386.942607 
L 406.07973 386.393336 
L 407.31663 386.109296 
L 408.614612 386.033768 
L 409.889688 386.178559 
L 411.073142 386.537892 
L 412.126798 387.086745 
L 413.081196 387.828454 
L 413.928702 388.7625 
L 414.738031 389.991131 
L 415.478644 391.533665 
L 416.173446 393.508004 
L 416.830072 396.073801 
L 417.448522 399.43442 
L 418.028797 403.883132 
L 418.57853 409.911058 
L 419.097723 418.165287 
L 419.616915 430.255239 
L 420.189554 449.36937 
L 420.693476 464.196893 
L 420.907262 465.719682 
L 420.983614 465.640843 
L 421.105777 464.864202 
L 421.281386 461.956831 
L 421.502806 453.39585 
L 422.449569 408.589608 
L 422.472475 408.559209 
L 422.518286 408.678155 
L 422.625179 409.860343 
L 422.838964 415.330179 
L 423.159642 430.117665 
L 423.694105 457.93105 
L 423.732281 457.674877 
L 423.839173 454.674549 
L 424.106405 438.789695 
L 424.679044 407.866479 
L 425.12952 395.102527 
L 425.595266 387.723966 
L 426.091553 383.130721 
L 426.618381 380.168124 
L 427.168114 378.219044 
L 427.771294 376.838233 
L 428.420285 375.877044 
L 429.076911 375.252188 
L 429.786983 374.855367 
L 430.405433 374.730461 
L 430.970437 374.845917 
L 431.375102 375.15076 
L 431.718685 375.666401 
L 432.069904 376.63895 
L 432.390582 378.266062 
L 432.688354 381.052192 
L 432.970856 386.014379 
L 433.260993 395.632414 
L 433.795456 414.118651 
L 433.848902 414.33599 
L 433.909984 414.182592 
L 434.016876 412.911762 
L 434.207756 407.483199 
L 434.856747 387.286258 
L 435.238506 382.574731 
L 435.643171 380.080323 
L 436.047836 378.834863 
L 436.414325 378.338777 
L 436.704462 378.267569 
L 436.948788 378.413925 
L 437.254195 378.892418 
L 437.582508 379.871729 
L 437.918456 381.63778 
L 438.246769 384.648591 
L 438.559812 389.777359 
L 438.857584 398.783326 
L 439.170627 416.188803 
L 439.51421 431.865305 
L 439.636373 432.871785 
L 439.674549 432.749749 
L 439.766172 431.445211 
L 439.91124 425.490345 
L 440.674759 386.096154 
L 441.033612 380.63328 
L 441.400101 378.062177 
L 441.705509 377.174734 
L 441.865848 377.124462 
L 441.873483 377.131267 
L 441.995646 377.407204 
L 442.133079 378.37872 
L 442.262877 381.132008 
L 442.407946 390.475203 
L 442.690448 424.958701 
L 442.774435 417.55187 
L 443.102748 379.458556 
L 443.316533 376.939229 
L 443.545589 376.379089 
L 443.744104 376.340712 
L 444.026605 376.598119 
L 444.40073 377.261709 
L 444.927557 378.673788 
L 445.546007 381.009569 
L 446.27135 384.682398 
L 447.27156 391.032032 
L 448.485554 398.504656 
L 448.943665 400.155455 
L 449.195626 400.447607 
L 449.34833 400.337934 
L 449.562115 399.815694 
L 449.905699 398.964644 
L 449.920969 398.979741 
L 450.043132 399.389782 
L 450.180565 400.729146 
L 450.340904 404.531069 
L 450.539419 415.524253 
L 451.371655 471.760514 
L 451.470912 471.893442 
L 451.516723 471.794913 
L 451.61598 470.821722 
L 451.753414 466.273332 
L 452.669636 428.089667 
L 453.01322 423.60242 
L 453.448425 420.918304 
L 454.066875 416.573097 
L 454.273025 413.436473 
L 454.830394 400.565672 
L 455.441209 388.290079 
L 455.738981 385.940867 
L 455.845874 385.821699 
L 455.88405 385.865254 
L 456.029118 386.399957 
L 456.365066 389.022916 
L 456.540676 389.763453 
L 456.571216 389.737848 
L 456.662839 389.412713 
L 456.968246 387.915474 
L 457.029327 387.977157 
L 457.143855 388.509854 
L 457.319465 390.757804 
L 457.517979 396.844848 
L 457.777576 412.888245 
L 458.144065 452.191423 
L 458.54873 488.003013 
L 458.655622 489.79848 
L 458.701433 489.550095 
L 459.113733 484.176304 
L 459.266437 476.716784 
L 459.449681 467.880272 
L 459.495493 468.40523 
L 459.777994 477.358948 
L 459.869617 475.473927 
L 460.480432 458.237254 
L 461.480641 438.010054 
L 461.900576 432.972999 
L 462.05328 432.459135 
L 462.091456 432.511341 
L 462.198348 433.104678 
L 462.358687 435.686056 
L 462.587743 443.833158 
L 462.778623 448.190151 
L 462.793893 448.154208 
L 462.801528 448.164976 
L 462.824434 448.046571 
L 462.938962 446.895022 
L 463.06876 442.84193 
L 463.740656 410.708405 
L 463.794102 410.620765 
L 463.832278 410.800964 
L 463.916265 412.181691 
L 464.038428 418.539786 
L 464.145321 438.30137 
L 464.343836 499.154351 
L 464.412552 494.981271 
L 464.52708 467.620752 
L 464.817217 396.16606 
L 465.038638 392.260621 
L 465.33641 390.743197 
L 465.649453 388.954259 
L 466.16101 385.242449 
L 466.244997 385.458031 
L 466.374795 386.908449 
L 466.535134 391.776678 
L 466.687838 404.806585 
L 467.000881 431.448665 
L 467.115408 435.24868 
L 467.16122 433.905142 
L 467.275747 417.897714 
L 467.520073 394.811143 
L 467.703318 392.542855 
L 468.184334 391.114878 
L 468.451566 390.565484 
L 468.566094 390.641495 
L 468.718797 391.107728 
L 468.932583 392.616647 
L 469.184544 396.212397 
L 469.604479 406.046687 
L 469.848805 420.59898 
L 470.146577 441.349948 
L 470.200024 439.483592 
L 470.345092 421.682157 
L 470.619959 398.10977 
L 470.955907 388.494298 
L 471.368207 381.940597 
L 471.71179 379.541177 
L 471.895035 379.174181 
L 471.910305 379.185863 
L 471.986657 379.46084 
L 472.085915 380.903636 
L 472.192807 386.846051 
L 472.437133 409.098377 
L 472.498215 406.205234 
L 472.811257 386.100411 
L 472.93342 385.446361 
L 472.971596 385.490904 
L 473.086124 386.127189 
L 473.490789 389.411628 
L 473.574776 389.21802 
L 473.72748 388.183473 
L 473.987076 384.453596 
L 474.445187 378.850785 
L 474.834582 376.525694 
L 475.071272 376.057988 
L 475.078908 376.060433 
L 475.162895 376.204394 
L 475.269787 376.935161 
L 475.37668 379.539625 
L 475.506478 390.499886 
L 475.659182 404.20818 
L 475.704993 401.717506 
L 475.80425 396.044232 
L 475.865332 396.935975 
L 475.918778 397.577936 
L 475.964589 397.071766 
L 476.056211 391.356204 
L 476.315808 376.866294 
L 476.453241 375.930767 
L 476.483782 375.972601 
L 476.560134 376.590234 
L 476.644121 379.68322 
L 476.720473 393.932919 
L 476.873176 437.894856 
L 476.926623 429.908171 
L 477.193854 380.495914 
L 477.224395 380.554734 
L 477.23203 380.593062 
L 477.338923 381.866675 
L 477.514532 386.860447 
L 477.62906 397.025448 
L 477.881021 432.931044 
L 477.934467 430.108042 
L 478.125347 413.501461 
L 478.171158 416.184415 
L 478.255145 449.309485 
L 478.346767 477.813505 
L 478.392578 467.836832 
L 478.690351 382.887762 
L 478.804878 381.639682 
L 478.85069 381.868272 
L 478.927041 384.120396 
L 479.011028 395.752326 
L 479.163732 427.620417 
L 479.224814 422.868393 
L 479.507316 384.867104 
L 479.545491 385.012338 
L 479.667654 386.691097 
L 479.873804 392.919127 
L 480.10286 405.848795 
L 480.270834 427.467793 
L 480.354821 425.492322 
L 480.461714 416.754933 
L 480.805297 380.622863 
L 481.003812 378.377286 
L 481.057258 378.353774 
L 481.095434 378.426736 
L 481.225232 379.140486 
L 481.461923 381.947853 
L 482.317064 396.558837 
L 482.401051 413.741577 
L 482.57666 497.661438 
L 482.675918 489.571091 
L 482.790446 446.025303 
L 482.95842 423.898436 
L 483.248557 417.419776 
L 484.264037 397.335562 
L 484.523633 393.298674 
L 484.737418 387.076761 
L 484.806135 388.1793 
L 484.882487 389.724742 
L 484.928298 388.719546 
L 485.2108 380.678985 
L 485.478031 379.681125 
L 485.760533 379.281932 
L 485.943777 379.310858 
L 486.104116 379.638584 
L 486.249185 380.531959 
L 486.478241 383.877062 
L 486.684391 385.249241 
L 486.692026 385.244938 
L 486.768378 384.993099 
L 487.203583 383.210678 
L 487.218854 383.219314 
L 487.279935 383.404592 
L 487.341017 384.377002 
L 487.402098 390.18372 
L 487.531896 441.116556 
L 487.592978 454.930781 
L 487.638789 441.507816 
L 487.829668 389.889348 
L 488.020548 387.355441 
L 488.066359 387.295187 
L 488.11217 387.381791 
L 488.203793 388.190586 
L 488.295415 391.451462 
L 488.356496 403.457114 
L 488.478659 466.649706 
L 488.555011 444.493741 
L 488.768796 385.524013 
L 488.845148 385.214513 
L 488.898595 385.31942 
L 489.013122 386.346455 
L 489.097109 389.363492 
L 489.158191 402.435777 
L 489.280354 458.875968 
L 489.349071 440.455515 
L 489.547585 388.05757 
L 489.562856 388.029923 
L 489.608667 388.202147 
L 489.700289 389.62262 
L 489.761371 393.958363 
L 489.837722 426.760164 
L 489.921709 460.062175 
L 489.967521 443.828487 
L 490.12786 394.068314 
L 490.150765 394.457679 
L 490.242387 399.101369 
L 490.288198 395.84559 
L 490.524889 378.194227 
L 490.662323 376.787956 
L 490.692863 376.843379 
L 490.77685 377.670663 
L 490.906648 381.721818 
L 491.036447 393.773802 
L 491.150974 408.286484 
L 491.219691 405.142491 
L 491.273137 403.628094 
L 491.326584 404.814906 
L 491.410571 406.636448 
L 491.464017 405.799672 
L 491.548004 402.638194 
L 491.60145 404.587562 
L 491.693073 411.094213 
L 491.746519 407.947606 
L 492.090102 378.959642 
L 492.319158 376.489578 
L 492.487132 376.093621 
L 492.510038 376.104763 
L 492.609295 376.312801 
L 492.761999 377.228071 
L 492.891797 379.493256 
L 492.960514 387.162974 
L 493.059771 411.945532 
L 493.120852 401.616 
L 493.23538 384.899248 
L 493.281191 385.459963 
L 494.075251 400.214007 
L 494.121062 400.037562 
L 494.220319 399.448969 
L 494.258495 399.709814 
L 494.334847 402.255644 
L 494.426469 414.448801 
L 494.586808 450.289266 
L 494.655525 446.943771 
L 494.739512 423.799455 
L 494.792958 413.234228 
L 494.846405 424.531271 
L 495.014379 465.445345 
L 495.037284 464.537061 
L 495.090731 447.030823 
L 495.26634 405.959647 
L 495.480125 382.494273 
L 495.724451 378.230736 
L 495.846614 377.726523 
L 495.88479 377.790552 
L 495.968777 378.440791 
L 496.136751 382.056862 
L 496.28182 390.596345 
L 496.579592 427.365884 
L 496.770471 506.557452 
L 496.808647 497.784265 
L 497.060609 401.94018 
L 497.091149 401.69114 
L 497.13696 402.324028 
L 497.220947 407.500785 
L 497.442368 429.110831 
L 497.488179 427.243173 
L 497.633248 400.220187 
L 497.694329 413.103424 
L 497.831762 502.236477 
L 497.900479 486.729555 
L 498.167711 382.882231 
L 498.266968 382.126941 
L 498.312779 382.288709 
L 498.419672 383.626706 
L 498.572375 388.628288 
L 498.702174 400.792134 
L 498.900688 430.126863 
L 498.954135 427.824883 
L 499.396976 385.826076 
L 499.549679 380.08331 
L 499.58022 380.270824 
L 499.648937 382.782469 
L 499.725289 394.950597 
L 499.923803 434.41924 
L 499.946709 433.546327 
L 500.00779 412.868977 
L 500.137589 388.26737 
L 500.168129 389.266715 
L 500.267387 395.810815 
L 500.336103 393.478978 
L 500.359009 393.121554 
L 500.397185 394.309247 
L 500.481172 410.487077 
L 500.526983 415.669962 
L 500.580429 409.063513 
L 500.717863 387.037575 
L 500.763674 387.8527 
L 500.840026 394.103867 
L 500.924013 424.551629 
L 501.000365 442.44459 
L 501.053811 438.922735 
L 501.130163 414.096671 
L 501.275231 381.23108 
L 501.298137 381.608771 
L 501.405029 388.010238 
L 501.450841 389.896947 
L 501.496652 387.298497 
L 501.710437 376.795027 
L 501.725707 376.764109 
L 501.763883 376.924917 
L 501.855505 378.795833 
L 501.970033 386.393372 
L 502.076926 395.131028 
L 502.138007 393.500768 
L 502.237265 389.233663 
L 502.267806 391.464192 
L 502.321252 430.260702 
L 502.382333 473.598675 
L 502.43578 447.61257 
L 502.611389 381.824729 
L 502.718281 380.868231 
L 502.764093 381.05052 
L 502.840444 382.867568 
L 502.916796 391.949126 
L 502.985513 402.668434 
L 503.046595 396.549417 
L 503.252745 376.507755 
L 503.268015 376.531759 
L 503.336732 377.236398 
L 503.527611 382.79873 
L 503.573422 394.61793 
L 503.657409 445.561199 
L 503.718491 420.556816 
L 503.802478 384.562828 
L 503.863559 388.475715 
L 503.886465 389.179398 
L 503.932276 386.802336 
L 503.993358 384.151715 
L 504.054439 385.516476 
L 504.298765 398.900542 
L 504.436198 408.256912 
L 504.489645 403.395994 
L 504.7187 381.750198 
L 504.879039 377.002716 
L 504.932485 378.103414 
L 505.008837 386.505609 
L 505.138636 426.968154 
L 505.207352 409.439938 
L 505.367691 375.502076 
L 505.390597 375.422363 
L 505.428773 375.739046 
L 505.505124 378.671553 
L 505.566206 391.143835 
L 505.726545 465.226543 
L 505.779991 454.284964 
L 505.970871 410.137655 
L 506.467158 382.246734 
L 506.520604 381.917647 
L 506.566415 382.319328 
L 506.635132 385.765593 
L 506.711484 408.753792 
L 506.833647 440.675805 
L 506.864188 431.782084 
L 507.032162 380.694776 
L 507.047432 380.701001 
L 507.062702 380.766442 
L 507.192501 382.135903 
L 507.291758 385.436248 
L 507.345204 383.650458 
L 507.406286 381.783867 
L 507.459732 383.324058 
L 507.902573 415.147429 
L 507.978925 445.571802 
L 508.047641 436.61241 
L 508.291967 376.660317 
L 508.375954 384.916163 
L 508.467577 406.289216 
L 508.513388 394.904013 
L 508.658456 381.418409 
L 508.772984 376.45593 
L 508.818795 376.90534 
L 508.940958 381.46094 
L 509.078392 392.944094 
L 509.162379 403.35851 
L 509.215825 398.983219 
L 509.292177 390.594595 
L 509.337988 396.65913 
L 509.421975 416.163839 
L 509.460151 404.895153 
L 509.612855 383.915149 
L 509.780829 375.934622 
L 509.857181 377.547687 
L 510.04806 389.058681 
L 510.101507 391.699235 
L 510.162588 389.59206 
L 510.170223 389.561707 
L 510.177858 389.685333 
L 510.216034 394.106021 
L 510.361103 470.257911 
L 510.414549 427.301999 
L 510.521442 383.56711 
L 510.551983 384.098858 
L 510.674145 388.377375 
L 510.735227 386.642349 
L 510.803944 383.756684 
L 510.84212 386.689274 
L 510.903201 396.527831 
L 510.979553 392.026287 
L 511.055905 388.289274 
L 511.200973 380.477239 
L 511.239149 381.068819 
L 511.292596 387.497871 
L 511.414759 442.988894 
L 511.498746 421.485803 
L 511.659084 388.150598 
L 511.66672 388.145497 
L 511.674355 388.210629 
L 511.720166 390.853974 
L 511.765977 410.853732 
L 511.926316 533.773372 
L 511.964492 526.533595 
L 512.254629 379.493272 
L 512.262264 379.500467 
L 512.30044 380.823508 
L 512.353886 392.334035 
L 512.460779 451.269823 
L 512.529496 430.125215 
L 512.689835 374.841193 
L 512.743281 374.294577 
L 512.796727 374.696555 
L 512.873079 377.470721 
L 512.926525 387.905218 
L 513.033418 486.167892 
L 513.10977 439.551829 
L 513.254838 392.347291 
L 513.445718 378.737902 
L 513.468624 378.524907 
L 513.514435 379.225218 
L 513.598422 385.543736 
L 513.812207 431.156935 
L 513.865653 412.652398 
L 513.980181 394.48519 
L 514.018357 395.411815 
L 514.186331 405.865574 
L 514.300859 425.085393 
L 514.354305 419.330007 
L 514.575726 382.749168 
L 514.613902 383.855409 
L 514.858228 392.270102 
L 514.865863 392.15776 
L 514.919309 387.677358 
L 515.079648 381.033335 
L 515.163635 380.471924 
L 515.194176 380.836733 
L 515.232352 384.531013 
L 515.36215 435.686478 
L 515.400326 405.804012 
L 515.484313 377.47398 
L 515.530124 379.923571 
L 515.614111 398.57348 
L 515.629381 403.238928 
L 515.682828 386.336508 
L 515.804991 376.565006 
L 515.827896 376.66653 
L 515.942424 377.898801 
L 516.026411 385.502197 
L 516.072222 388.536452 
L 516.148574 386.803035 
L 516.247831 385.247366 
L 516.293643 385.937331 
L 516.37763 392.60397 
L 516.58378 427.292728 
L 516.637226 415.309934 
L 516.759389 388.110025 
L 516.812835 394.748151 
L 516.881552 430.722794 
L 516.942633 405.206715 
L 517.049526 388.104695 
L 517.080067 390.431026 
L 517.156419 430.897216 
L 517.2175 398.762874 
L 517.255676 388.636114 
L 517.339663 392.767678 
L 517.446556 396.645473 
L 517.500002 414.420647 
L 517.553448 396.477689 
L 517.690882 376.330095 
L 517.698517 376.348685 
L 517.751963 377.074114 
L 517.866491 379.733249 
L 517.927572 378.783837 
L 518.011559 377.785627 
L 518.057371 378.246813 
L 518.141358 384.168212 
L 518.324602 416.939345 
L 518.385684 455.365417 
L 518.43913 431.53471 
L 518.584198 396.095876 
L 518.607104 395.084547 
L 518.66055 398.029475 
L 518.706361 402.323882 
L 518.736902 395.14473 
L 518.85143 381.138425 
L 518.881971 381.574685 
L 518.965958 386.776968 
L 519.019404 424.723599 
L 519.065215 447.851182 
L 519.111026 414.381592 
L 519.195013 386.216463 
L 519.240824 387.77288 
L 519.446974 411.591311 
L 519.530961 404.28948 
L 519.538597 403.752741 
L 519.561502 407.292256 
L 519.607313 417.692066 
L 519.653124 406.023208 
L 519.790558 373.927667 
L 519.813463 374.097119 
L 519.859274 377.243911 
L 520.126506 414.360518 
L 520.134141 412.477965 
L 520.271574 379.020774 
L 520.317386 379.337776 
L 520.378467 377.622395 
L 520.424278 376.820975 
L 520.477725 377.863432 
L 520.615158 386.661693 
L 520.767862 412.133617 
L 520.828943 401.908918 
L 520.890025 386.837015 
L 520.958741 393.416976 
L 521.042728 410.967882 
L 521.10381 402.272927 
L 521.264149 390.804621 
L 521.287054 391.112214 
L 521.332865 396.676699 
L 521.401582 417.166946 
L 521.462664 403.601302 
L 521.53138 383.11961 
L 521.584827 391.691129 
L 521.661178 416.091003 
L 521.714625 402.736816 
L 522.012397 372.06572 
L 522.058208 372.174325 
L 522.13456 373.281442 
L 522.249088 379.339173 
L 522.333075 387.774896 
L 522.394156 383.012674 
L 522.493414 377.768727 
L 522.539225 379.081654 
L 522.569766 379.794926 
L 522.630847 378.605591 
L 522.646117 378.527473 
L 522.676658 379.052138 
L 522.707199 387.213051 
L 522.76828 436.733379 
L 522.821727 392.416548 
L 522.836997 388.785557 
L 522.898079 395.509516 
L 522.928619 393.437575 
L 523.134769 372.717563 
L 523.18058 373.286869 
L 523.226392 379.611888 
L 523.272203 389.191114 
L 523.333284 379.123051 
L 523.348555 378.42325 
L 523.394366 381.244105 
L 523.615786 398.025427 
L 523.646327 397.514707 
L 523.745584 395.158699 
L 523.791395 396.373951 
L 523.890653 407.106508 
L 523.97464 402.350887 
L 524.035721 389.83593 
L 524.066262 400.543504 
L 524.142614 474.252971 
L 524.19606 424.356541 
L 524.333494 373.602375 
L 524.371669 374.309414 
L 524.432751 381.569452 
L 524.532008 442.917146 
L 524.585455 401.778069 
L 524.699982 375.669131 
L 524.715253 375.736934 
L 524.776334 377.576906 
L 524.822145 384.666717 
L 524.883227 434.390304 
L 524.951944 398.352052 
L 525.112283 376.425446 
L 525.257351 371.773026 
L 525.295527 371.863408 
L 525.356608 372.793803 
L 525.425325 379.520013 
L 525.600934 389.067536 
L 525.60857 389.257523 
L 525.631475 388.130761 
L 525.730733 377.55418 
L 525.776544 381.043186 
L 525.837625 418.008162 
L 525.898707 387.996191 
L 526.03614 372.962575 
L 526.059046 372.90439 
L 526.104857 373.129109 
L 526.173573 374.667652 
L 526.211749 389.601315 
L 526.25756 426.972363 
L 526.311007 387.024605 
L 526.43317 377.870538 
L 526.44844 377.923352 
L 526.486616 380.217309 
L 526.547698 407.159944 
L 526.662225 513.607392 
L 526.708036 476.286463 
L 526.761483 392.191418 
L 526.822564 454.556682 
L 526.853105 468.804412 
L 526.898916 422.523327 
L 527.036349 375.753447 
L 527.06689 375.318241 
L 527.105066 376.764388 
L 527.158512 389.971585 
L 527.265405 497.181708 
L 527.326487 445.290269 
L 527.341757 429.201121 
L 527.410474 457.620881 
L 527.425744 456.368208 
L 527.47919 411.330892 
L 527.631894 380.386736 
L 527.639529 380.109327 
L 527.662435 383.261984 
L 527.731151 449.69023 
L 527.799868 397.770576 
L 527.952572 373.958891 
L 527.967842 374.061603 
L 528.036559 376.302173 
L 528.135816 380.736145 
L 528.181627 378.588384 
L 528.28852 373.736563 
L 528.334331 374.911454 
L 528.403048 389.435939 
L 528.425953 391.328201 
L 528.471764 383.943427 
L 528.601563 379.391189 
L 528.655009 375.993719 
L 528.693185 379.581368 
L 528.731361 386.982762 
L 528.800077 379.201035 
L 528.822983 381.037106 
L 528.868794 410.705246 
L 529.021498 471.610782 
L 529.044403 480.931733 
L 529.090215 454.233485 
L 529.242918 374.427708 
L 529.31927 373.515354 
L 529.365081 374.001002 
L 529.594137 382.479562 
L 529.739205 381.225463 
L 529.785016 379.95104 
L 529.800287 379.69587 
L 529.830828 381.014368 
L 529.93772 403.49626 
L 530.029342 393.313972 
L 530.174411 380.580902 
L 530.296574 377.239283 
L 530.35002 378.016474 
L 530.449278 385.232651 
L 530.55617 381.905448 
L 530.632522 374.96517 
L 530.693604 378.615512 
L 530.76232 400.048864 
L 530.831037 386.852705 
L 530.869213 379.848738 
L 530.960835 380.622376 
L 531.021917 376.30656 
L 531.052457 380.958981 
L 531.090633 396.424254 
L 531.14408 376.04733 
L 531.17462 373.576548 
L 531.243337 376.677312 
L 531.495298 393.466745 
L 531.525839 389.552995 
L 531.617461 374.764926 
L 531.678543 379.776243 
L 531.701448 381.229401 
L 531.747259 377.251183 
L 531.785435 375.212108 
L 531.854152 376.935664 
L 531.892328 377.969402 
L 531.945774 376.196995 
L 531.991585 375.313584 
L 532.037396 376.505907 
L 532.106113 383.277011 
L 532.17483 379.057095 
L 532.182465 379.078523 
L 532.228276 383.509778 
L 532.274087 378.366308 
L 532.358074 373.087491 
L 532.411521 373.69027 
L 532.548954 379.921188 
L 532.58713 413.701869 
L 532.617671 431.626063 
L 532.671117 395.800732 
L 532.701658 383.925816 
L 532.762739 408.396701 
L 532.884902 433.118967 
L 532.839091 403.840411 
L 532.907808 419.925073 
L 533.029971 373.915971 
L 533.052876 374.195533 
L 533.121593 378.91325 
L 533.175039 374.981144 
L 533.213215 373.899036 
L 533.266661 375.482295 
L 533.365919 389.806736 
L 533.404095 397.979262 
L 533.472811 388.9741 
L 533.526258 382.079691 
L 533.579704 386.484842 
L 533.640785 429.751435 
L 533.701867 393.520846 
L 533.724773 389.446435 
L 533.785854 401.249925 
L 533.793489 402.00767 
L 533.816395 394.230766 
L 533.869841 382.064609 
L 533.930923 386.982717 
L 533.946193 406.82391 
L 534.152343 406.750288 
L 535.228904 406.263408 
L 536.290195 406.197479 
L 541.848611 405.783598 
L 542.070031 405.919931 
L 543.001524 406.638943 
L 547.086348 409.785042 
L 548.750819 410.970698 
L 550.163328 411.393212 
L 555.485053 412.907822 
L 560.928941 412.925 
L 561.921515 412.825342 
L 567.945677 408.53282 
L 568.709196 408.143095 
L 569.388727 408.139775 
L 588.850817 407.273983 
L 597.17317 406.932138 
L 616.368028 406.308158 
L 621.750834 406.06062 
L 625.430994 403.73657 
L 627.309249 402.716597 
L 628.233107 403.021571 
L 632.928746 404.293133 
L 638.364999 405.061626 
L 645.748224 403.135631 
L 652.283943 401.939725 
L 656.987218 401.971964 
L 658.254659 402.421738 
L 660.216902 403.062532 
L 662.8205 403.7219 
L 664.133752 403.929328 
L 664.752202 403.517159 
L 665.813493 402.486835 
L 666.836608 401.612332 
L 667.401612 401.401255 
L 668.004792 401.42312 
L 669.97467 401.686354 
L 671.035961 401.145875 
L 672.562998 400.390293 
L 673.08219 400.386886 
L 673.922061 400.649661 
L 674.609228 400.767385 
L 675.33457 400.588373 
L 679.640815 399.488184 
L 680.587578 399.70881 
L 682.290225 400.106818 
L 682.794147 399.907962 
L 684.458618 399.016761 
L 685.810046 398.407312 
L 691.429543 396.484093 
L 693.292528 395.946555 
L 696.262616 395.079537 
L 699.125811 394.432271 
L 703.355704 392.774125 
L 705.615719 391.69509 
L 708.914119 390.307884 
L 710.700753 389.688157 
L 711.762044 389.324084 
L 713.060025 388.831572 
L 716.106465 387.303483 
L 723.390432 383.595396 
L 725.726799 382.713116 
L 728.918307 381.494992 
L 732.781711 379.275174 
L 734.919563 377.987832 
L 738.072895 376.31432 
L 742.020286 374.267927 
L 750.159395 369.217906 
L 756.488964 364.304242 
L 758.916953 362.056556 
L 760.82575 360.434434 
L 764.162326 357.68867 
L 767.934108 354.384191 
L 773.332185 349.3373 
L 775.233346 347.234122 
L 777.493361 344.404313 
L 782.242447 338.081817 
L 785.174359 333.771827 
L 788.159716 328.994842 
L 790.96183 324.077045 
L 793.718132 318.781502 
L 796.337001 313.262749 
L 798.917694 307.292264 
L 801.376224 301.051747 
L 803.804213 294.255258 
L 806.255108 286.735943 
L 808.660191 278.628069 
L 811.07291 269.691307 
L 813.500899 259.835595 
L 815.928889 249.028783 
L 818.318702 237.370981 
L 820.754326 224.366442 
L 823.167045 210.259971 
L 825.579764 194.813554 
L 827.977212 178.006407 
L 830.382296 159.552201 
L 832.779744 139.409453 
L 835.177193 117.355192 
L 837.574641 93.207772 
L 839.903373 67.560049 
L 839.903373 67.560049 
" clip-path="url(#pf5c249c866)" style="fill: none; stroke: #610023; stroke-width: 5; stroke-linecap: square"/>
   </g>
   <g id="patch_3">
    <path d="M 76.4 560.571 
L 76.4 62.234 
" style="fill: none; stroke: #000000; stroke-width: 0.8; stroke-linejoin: miter; stroke-linecap: square"/>
   </g>
   <g id="patch_4">
    <path d="M 844 560.571 
L 844 62.234 
" style="fill: none; stroke: #000000; stroke-width: 0.8; stroke-linejoin: miter; stroke-linecap: square"/>
   </g>
   <g id="patch_5">
    <path d="M 76.4 560.571 
L 844 560.571 
" style="fill: none; stroke: #000000; stroke-width: 0.8; stroke-linejoin: miter; stroke-linecap: square"/>
   </g>
   <g id="patch_6">
    <path d="M 76.4 62.234 
L 844 62.234 
" style="fill: none; stroke: #000000; stroke-width: 0.8; stroke-linejoin: miter; stroke-linecap: square"/>
   </g>
   <g id="text_18">
    <!-- Neutron reproduction factor -->
    <g transform="translate(242.957813 43.775575) scale(0.3 -0.3)">
     <use xlink:href="#DejaVuSerif-4e"/>
     <use xlink:href="#DejaVuSerif-65" transform="translate(87.5 0)"/>
     <use xlink:href="#DejaVuSerif-75" transform="translate(146.679688 0)"/>
     <use xlink:href="#DejaVuSerif-74" transform="translate(211.083984 0)"/>
     <use xlink:href="#DejaVuSerif-72" transform="translate(251.269531 0)"/>
     <use xlink:href="#DejaVuSerif-6f" transform="translate(299.072266 0)"/>
     <use xlink:href="#DejaVuSerif-6e" transform="translate(359.277344 0)"/>
     <use xlink:href="#DejaVuSerif-20" transform="translate(423.681641 0)"/>
     <use xlink:href="#DejaVuSerif-72" transform="translate(455.46875 0)"/>
     <use xlink:href="#DejaVuSerif-65" transform="translate(503.271484 0)"/>
     <use xlink:href="#DejaVuSerif-70" transform="translate(562.451172 0)"/>
     <use xlink:href="#DejaVuSerif-72" transform="translate(626.464844 0)"/>
     <use xlink:href="#DejaVuSerif-6f" transform="translate(674.267578 0)"/>
     <use xlink:href="#DejaVuSerif-64" transform="translate(734.472656 0)"/>
     <use xlink:href="#DejaVuSerif-75" transform="translate(798.486328 0)"/>
     <use xlink:href="#DejaVuSerif-63" transform="translate(862.890625 0)"/>
     <use xlink:href="#DejaVuSerif-74" transform="translate(918.896484 0)"/>
     <use xlink:href="#DejaVuSerif-69" transform="translate(959.082031 0)"/>
     <use xlink:href="#DejaVuSerif-6f" transform="translate(991.064453 0)"/>
     <use xlink:href="#DejaVuSerif-6e" transform="translate(1051.269531 0)"/>
     <use xlink:href="#DejaVuSerif-20" transform="translate(1115.673828 0)"/>
     <use xlink:href="#DejaVuSerif-66" transform="translate(1147.460938 0)"/>
     <use xlink:href="#DejaVuSerif-61" transform="translate(1184.472656 0)"/>
     <use xlink:href="#DejaVuSerif-63" transform="translate(1244.091797 0)"/>
     <use xlink:href="#DejaVuSerif-74" transform="translate(1300.097656 0)"/>
     <use xlink:href="#DejaVuSerif-6f" transform="translate(1340.283203 0)"/>
     <use xlink:href="#DejaVuSerif-72" transform="translate(1400.488281 0)"/>
    </g>
   </g>
   <g id="legend_1">
    <g id="patch_7">
     <path d="M 712.2 107.59025 
L 830 107.59025 
Q 834 107.59025 834 103.59025 
L 834 76.234 
Q 834 72.234 830 72.234 
L 712.2 72.234 
Q 708.2 72.234 708.2 76.234 
L 708.2 103.59025 
Q 708.2 107.59025 712.2 107.59025 
z
" style="fill: #ffffff; opacity: 0.95; stroke: #cccccc; stroke-linejoin: miter"/>
    </g>
    <g id="line2d_32">
     <path d="M 716.2 88.430875 
L 736.2 88.430875 
L 756.2 88.430875 
" style="fill: none; stroke: #610023; stroke-width: 5; stroke-linecap: square"/>
    </g>
    <g id="text_19">
     <!-- $\mathrm{^{241}Pu}$ -->
     <g transform="translate(772.2 95.430875) scale(0.2 -0.2)">
      <defs>
       <path id="DejaVuSerif-50" d="M 1581 2375 
L 2406 2375 
Q 2872 2375 3115 2626 
Q 3359 2878 3359 3353 
Q 3359 3831 3115 4081 
Q 2872 4331 2406 4331 
L 1581 4331 
L 1581 2375 
z
M 353 0 
L 353 331 
L 947 331 
L 947 4331 
L 353 4331 
L 353 4666 
L 2559 4666 
Q 3259 4666 3668 4311 
Q 4078 3956 4078 3353 
Q 4078 2753 3668 2397 
Q 3259 2041 2559 2041 
L 1581 2041 
L 1581 331 
L 2303 331 
L 2303 0 
L 353 0 
z
" transform="scale(0.015625)"/>
      </defs>
      <use xlink:href="#DejaVuSerif-32" transform="translate(0.908359 37.046875) scale(0.7)"/>
      <use xlink:href="#DejaVuSerif-34" transform="translate(45.444492 37.046875) scale(0.7)"/>
      <use xlink:href="#DejaVuSerif-31" transform="translate(89.980625 37.046875) scale(0.7)"/>
      <use xlink:href="#DejaVuSerif-50" transform="translate(137.11207 0.7125)"/>
      <use xlink:href="#DejaVuSerif-75" transform="translate(204.397227 0.7125)"/>
     </g>
    </g>
   </g>
  </g>
 </g>
 <defs>
  <clipPath id="pf5c249c866">
   <rect x="76.4" y="62.234" width="767.6" height="498.337"/>
  </clipPath>
 </defs>
</svg>
