<?xml version="1.0" encoding="utf-8" standalone="no"?>
<!DOCTYPE svg PUBLIC "-//W3C//DTD SVG 1.1//EN"
  "http://www.w3.org/Graphics/SVG/1.1/DTD/svg11.dtd">
<svg xmlns:xlink="http://www.w3.org/1999/xlink" width="864pt" height="648pt" viewBox="0 0 864 648" xmlns="http://www.w3.org/2000/svg" version="1.1">
 <metadata>
  <rdf:RDF xmlns:dc="http://purl.org/dc/elements/1.1/" xmlns:cc="http://creativecommons.org/ns#" xmlns:rdf="http://www.w3.org/1999/02/22-rdf-syntax-ns#">
   <cc:Work>
    <dc:type rdf:resource="http://purl.org/dc/dcmitype/StillImage"/>
    <dc:date>2025-10-21T14:39:10.826883</dc:date>
    <dc:format>image/svg+xml</dc:format>
    <dc:creator>
     <cc:Agent>
      <dc:title>Matplotlib v3.10.7, https://matplotlib.org/</dc:title>
     </cc:Agent>
    </dc:creator>
   </cc:Work>
  </rdf:RDF>
 </metadata>
 <defs>
  <style type="text/css">*{stroke-linejoin: round; stroke-linecap: butt}</style>
 </defs>
 <g id="figure_1">
  <g id="patch_1">
   <path d="M 0 648 
L 864 648 
L 864 0 
L 0 0 
z
" style="fill: #ffffff; stroke: #000000; stroke-width: 3; stroke-linejoin: miter"/>
  </g>
  <g id="axes_1">
   <g id="patch_2">
    <path d="M 76.4 560.571 
L 844 560.571 
L 844 62.234 
L 76.4 62.234 
L 76.4 560.571 
z
" style="fill: none"/>
   </g>
   <g id="matplotlib.axis_1">
    <g id="xtick_1">
     <g id="line2d_1">
      <path d="M 76.4 560.571 
L 76.4 62.234 
" clip-path="url(#p8c3f4f60af)" style="fill: none; stroke-dasharray: 4.625,2; stroke-dashoffset: 0; stroke: #343837; stroke-opacity: 0.8; stroke-width: 1.25"/>
     </g>
     <g id="line2d_2">
      <defs>
       <path id="m6dcff5c06a" d="M 0 0 
L 0 3.5 
" style="stroke: #000000; stroke-width: 0.8"/>
      </defs>
      <g>
       <use xlink:href="#m6dcff5c06a" x="76.4" y="560.571" style="stroke: #000000; stroke-width: 0.8"/>
      </g>
     </g>
     <g id="text_1">
      <!-- $\mathdefault{10^{-11}}$ -->
      <g transform="translate(45.71 584.287562) scale(0.22 -0.22)">
       <defs>
        <path id="DejaVuSerif-31" d="M 909 0 
L 909 331 
L 1722 331 
L 1722 4213 
L 781 3603 
L 781 4013 
L 1919 4750 
L 2350 4750 
L 2350 331 
L 3163 331 
L 3163 0 
L 909 0 
z
" transform="scale(0.015625)"/>
        <path id="DejaVuSerif-30" d="M 2034 219 
Q 2513 219 2750 744 
Q 2988 1269 2988 2328 
Q 2988 3391 2750 3916 
Q 2513 4441 2034 4441 
Q 1556 4441 1318 3916 
Q 1081 3391 1081 2328 
Q 1081 1269 1318 744 
Q 1556 219 2034 219 
z
M 2034 -91 
Q 1275 -91 848 546 
Q 422 1184 422 2328 
Q 422 3475 848 4112 
Q 1275 4750 2034 4750 
Q 2797 4750 3222 4112 
Q 3647 3475 3647 2328 
Q 3647 1184 3222 546 
Q 2797 -91 2034 -91 
z
" transform="scale(0.015625)"/>
        <path id="DejaVuSerif-2212" d="M 678 2259 
L 4684 2259 
L 4684 1753 
L 678 1753 
L 678 2259 
z
" transform="scale(0.015625)"/>
       </defs>
       <use xlink:href="#DejaVuSerif-31" transform="translate(0 0.7125)"/>
       <use xlink:href="#DejaVuSerif-30" transform="translate(63.623047 0.7125)"/>
       <use xlink:href="#DejaVuSerif-2212" transform="translate(128.154453 37.046875) scale(0.7)"/>
       <use xlink:href="#DejaVuSerif-31" transform="translate(186.806797 37.046875) scale(0.7)"/>
       <use xlink:href="#DejaVuSerif-31" transform="translate(231.34293 37.046875) scale(0.7)"/>
      </g>
     </g>
    </g>
    <g id="xtick_2">
     <g id="line2d_3">
      <path d="M 198.221353 560.571 
L 198.221353 62.234 
" clip-path="url(#p8c3f4f60af)" style="fill: none; stroke-dasharray: 4.625,2; stroke-dashoffset: 0; stroke: #343837; stroke-opacity: 0.8; stroke-width: 1.25"/>
     </g>
     <g id="line2d_4">
      <g>
       <use xlink:href="#m6dcff5c06a" x="198.221353" y="560.571" style="stroke: #000000; stroke-width: 0.8"/>
      </g>
     </g>
     <g id="text_2">
      <!-- $\mathdefault{10^{-9}}$ -->
      <g transform="translate(172.481353 584.287562) scale(0.22 -0.22)">
       <defs>
        <path id="DejaVuSerif-39" d="M 2994 2091 
Q 2784 1856 2512 1740 
Q 2241 1625 1900 1625 
Q 1206 1625 804 2044 
Q 403 2463 403 3188 
Q 403 3897 839 4323 
Q 1275 4750 2003 4750 
Q 2794 4750 3217 4161 
Q 3641 3572 3641 2478 
Q 3641 1253 3137 581 
Q 2634 -91 1722 -91 
Q 1475 -91 1203 -44 
Q 931 3 647 97 
L 647 872 
L 997 872 
Q 1038 556 1241 387 
Q 1444 219 1784 219 
Q 2391 219 2687 676 
Q 2984 1134 2994 2091 
z
M 1978 4441 
Q 1534 4441 1298 4117 
Q 1063 3794 1063 3188 
Q 1063 2581 1298 2256 
Q 1534 1931 1978 1931 
Q 2422 1931 2658 2245 
Q 2894 2559 2894 3150 
Q 2894 3772 2656 4106 
Q 2419 4441 1978 4441 
z
" transform="scale(0.015625)"/>
       </defs>
       <use xlink:href="#DejaVuSerif-31" transform="translate(0 0.7125)"/>
       <use xlink:href="#DejaVuSerif-30" transform="translate(63.623047 0.7125)"/>
       <use xlink:href="#DejaVuSerif-2212" transform="translate(128.154453 37.046875) scale(0.7)"/>
       <use xlink:href="#DejaVuSerif-39" transform="translate(186.806797 37.046875) scale(0.7)"/>
      </g>
     </g>
    </g>
    <g id="xtick_3">
     <g id="line2d_5">
      <path d="M 320.042706 560.571 
L 320.042706 62.234 
" clip-path="url(#p8c3f4f60af)" style="fill: none; stroke-dasharray: 4.625,2; stroke-dashoffset: 0; stroke: #343837; stroke-opacity: 0.8; stroke-width: 1.25"/>
     </g>
     <g id="line2d_6">
      <g>
       <use xlink:href="#m6dcff5c06a" x="320.042706" y="560.571" style="stroke: #000000; stroke-width: 0.8"/>
      </g>
     </g>
     <g id="text_3">
      <!-- $\mathdefault{10^{-7}}$ -->
      <g transform="translate(294.302706 584.287562) scale(0.22 -0.22)">
       <defs>
        <path id="DejaVuSerif-37" d="M 3609 4347 
L 1784 0 
L 1319 0 
L 3059 4153 
L 903 4153 
L 903 3578 
L 538 3578 
L 538 4666 
L 3609 4666 
L 3609 4347 
z
" transform="scale(0.015625)"/>
       </defs>
       <use xlink:href="#DejaVuSerif-31" transform="translate(0 0.63125)"/>
       <use xlink:href="#DejaVuSerif-30" transform="translate(63.623047 0.63125)"/>
       <use xlink:href="#DejaVuSerif-2212" transform="translate(128.154453 36.965625) scale(0.7)"/>
       <use xlink:href="#DejaVuSerif-37" transform="translate(186.806797 36.965625) scale(0.7)"/>
      </g>
     </g>
    </g>
    <g id="xtick_4">
     <g id="line2d_7">
      <path d="M 441.864059 560.571 
L 441.864059 62.234 
" clip-path="url(#p8c3f4f60af)" style="fill: none; stroke-dasharray: 4.625,2; stroke-dashoffset: 0; stroke: #343837; stroke-opacity: 0.8; stroke-width: 1.25"/>
     </g>
     <g id="line2d_8">
      <g>
       <use xlink:href="#m6dcff5c06a" x="441.864059" y="560.571" style="stroke: #000000; stroke-width: 0.8"/>
      </g>
     </g>
     <g id="text_4">
      <!-- $\mathdefault{10^{-5}}$ -->
      <g transform="translate(416.124059 584.287562) scale(0.22 -0.22)">
       <defs>
        <path id="DejaVuSerif-35" d="M 3219 4666 
L 3219 4153 
L 1081 4153 
L 1081 2816 
Q 1244 2928 1461 2984 
Q 1678 3041 1947 3041 
Q 2703 3041 3140 2622 
Q 3578 2203 3578 1478 
Q 3578 738 3136 323 
Q 2694 -91 1894 -91 
Q 1572 -91 1234 -12 
Q 897 66 544 225 
L 544 1131 
L 897 1131 
Q 925 688 1179 453 
Q 1434 219 1894 219 
Q 2388 219 2653 544 
Q 2919 869 2919 1478 
Q 2919 2084 2655 2407 
Q 2391 2731 1894 2731 
Q 1613 2731 1398 2631 
Q 1184 2531 1019 2322 
L 750 2322 
L 750 4666 
L 3219 4666 
z
" transform="scale(0.015625)"/>
       </defs>
       <use xlink:href="#DejaVuSerif-31" transform="translate(0 0.63125)"/>
       <use xlink:href="#DejaVuSerif-30" transform="translate(63.623047 0.63125)"/>
       <use xlink:href="#DejaVuSerif-2212" transform="translate(128.154453 36.965625) scale(0.7)"/>
       <use xlink:href="#DejaVuSerif-35" transform="translate(186.806797 36.965625) scale(0.7)"/>
      </g>
     </g>
    </g>
    <g id="xtick_5">
     <g id="line2d_9">
      <path d="M 563.685412 560.571 
L 563.685412 62.234 
" clip-path="url(#p8c3f4f60af)" style="fill: none; stroke-dasharray: 4.625,2; stroke-dashoffset: 0; stroke: #343837; stroke-opacity: 0.8; stroke-width: 1.25"/>
     </g>
     <g id="line2d_10">
      <g>
       <use xlink:href="#m6dcff5c06a" x="563.685412" y="560.571" style="stroke: #000000; stroke-width: 0.8"/>
      </g>
     </g>
     <g id="text_5">
      <!-- $\mathdefault{10^{-3}}$ -->
      <g transform="translate(537.945412 584.287562) scale(0.22 -0.22)">
       <defs>
        <path id="DejaVuSerif-33" d="M 622 4469 
Q 988 4606 1323 4678 
Q 1659 4750 1953 4750 
Q 2638 4750 3022 4454 
Q 3406 4159 3406 3634 
Q 3406 3213 3140 2930 
Q 2875 2647 2388 2547 
Q 2963 2466 3280 2130 
Q 3597 1794 3597 1259 
Q 3597 606 3158 257 
Q 2719 -91 1894 -91 
Q 1528 -91 1179 -12 
Q 831 66 488 225 
L 488 1131 
L 838 1131 
Q 869 681 1141 450 
Q 1413 219 1906 219 
Q 2384 219 2661 495 
Q 2938 772 2938 1253 
Q 2938 1803 2653 2086 
Q 2369 2369 1819 2369 
L 1522 2369 
L 1522 2688 
L 1678 2688 
Q 2225 2688 2498 2914 
Q 2772 3141 2772 3597 
Q 2772 4006 2547 4223 
Q 2322 4441 1900 4441 
Q 1478 4441 1245 4241 
Q 1013 4041 972 3647 
L 622 3647 
L 622 4469 
z
" transform="scale(0.015625)"/>
       </defs>
       <use xlink:href="#DejaVuSerif-31" transform="translate(0 0.7125)"/>
       <use xlink:href="#DejaVuSerif-30" transform="translate(63.623047 0.7125)"/>
       <use xlink:href="#DejaVuSerif-2212" transform="translate(128.154453 37.046875) scale(0.7)"/>
       <use xlink:href="#DejaVuSerif-33" transform="translate(186.806797 37.046875) scale(0.7)"/>
      </g>
     </g>
    </g>
    <g id="xtick_6">
     <g id="line2d_11">
      <path d="M 685.506766 560.571 
L 685.506766 62.234 
" clip-path="url(#p8c3f4f60af)" style="fill: none; stroke-dasharray: 4.625,2; stroke-dashoffset: 0; stroke: #343837; stroke-opacity: 0.8; stroke-width: 1.25"/>
     </g>
     <g id="line2d_12">
      <g>
       <use xlink:href="#m6dcff5c06a" x="685.506766" y="560.571" style="stroke: #000000; stroke-width: 0.8"/>
      </g>
     </g>
     <g id="text_6">
      <!-- $\mathdefault{10^{-1}}$ -->
      <g transform="translate(659.766766 584.287562) scale(0.22 -0.22)">
       <use xlink:href="#DejaVuSerif-31" transform="translate(0 0.7125)"/>
       <use xlink:href="#DejaVuSerif-30" transform="translate(63.623047 0.7125)"/>
       <use xlink:href="#DejaVuSerif-2212" transform="translate(128.154453 37.046875) scale(0.7)"/>
       <use xlink:href="#DejaVuSerif-31" transform="translate(186.806797 37.046875) scale(0.7)"/>
      </g>
     </g>
    </g>
    <g id="xtick_7">
     <g id="line2d_13">
      <path d="M 807.328119 560.571 
L 807.328119 62.234 
" clip-path="url(#p8c3f4f60af)" style="fill: none; stroke-dasharray: 4.625,2; stroke-dashoffset: 0; stroke: #343837; stroke-opacity: 0.8; stroke-width: 1.25"/>
     </g>
     <g id="line2d_14">
      <g>
       <use xlink:href="#m6dcff5c06a" x="807.328119" y="560.571" style="stroke: #000000; stroke-width: 0.8"/>
      </g>
     </g>
     <g id="text_7">
      <!-- $\mathdefault{10^{1}}$ -->
      <g transform="translate(787.968119 584.287562) scale(0.22 -0.22)">
       <use xlink:href="#DejaVuSerif-31" transform="translate(0 0.7125)"/>
       <use xlink:href="#DejaVuSerif-30" transform="translate(63.623047 0.7125)"/>
       <use xlink:href="#DejaVuSerif-31" transform="translate(128.154453 37.046875) scale(0.7)"/>
      </g>
     </g>
    </g>
    <g id="text_8">
     <!-- Energy of incident neutron (MeV) -->
     <g transform="translate(237.400313 620.618812) scale(0.26 -0.26)">
      <defs>
       <path id="DejaVuSerif-45" d="M 353 0 
L 353 331 
L 947 331 
L 947 4331 
L 353 4331 
L 353 4666 
L 4109 4666 
L 4109 3628 
L 3725 3628 
L 3725 4281 
L 1581 4281 
L 1581 2719 
L 3109 2719 
L 3109 3303 
L 3494 3303 
L 3494 1753 
L 3109 1753 
L 3109 2338 
L 1581 2338 
L 1581 384 
L 3775 384 
L 3775 1038 
L 4159 1038 
L 4159 0 
L 353 0 
z
" transform="scale(0.015625)"/>
       <path id="DejaVuSerif-6e" d="M 263 0 
L 263 331 
L 781 331 
L 781 2988 
L 231 2988 
L 231 3322 
L 1356 3322 
L 1356 2731 
Q 1516 3069 1770 3241 
Q 2025 3413 2363 3413 
Q 2913 3413 3172 3097 
Q 3431 2781 3431 2113 
L 3431 331 
L 3944 331 
L 3944 0 
L 2356 0 
L 2356 331 
L 2853 331 
L 2853 1931 
Q 2853 2541 2703 2767 
Q 2553 2994 2175 2994 
Q 1775 2994 1565 2701 
Q 1356 2409 1356 1850 
L 1356 331 
L 1856 331 
L 1856 0 
L 263 0 
z
" transform="scale(0.015625)"/>
       <path id="DejaVuSerif-65" d="M 3469 1600 
L 991 1600 
L 991 1575 
Q 991 903 1244 561 
Q 1497 219 1991 219 
Q 2369 219 2611 417 
Q 2853 616 2950 1006 
L 3413 1006 
Q 3275 459 2904 184 
Q 2534 -91 1931 -91 
Q 1203 -91 761 389 
Q 319 869 319 1663 
Q 319 2450 753 2931 
Q 1188 3413 1894 3413 
Q 2647 3413 3050 2948 
Q 3453 2484 3469 1600 
z
M 2791 1931 
Q 2772 2513 2545 2808 
Q 2319 3103 1894 3103 
Q 1497 3103 1269 2806 
Q 1041 2509 991 1931 
L 2791 1931 
z
" transform="scale(0.015625)"/>
       <path id="DejaVuSerif-72" d="M 3059 3328 
L 3059 2497 
L 2728 2497 
Q 2713 2744 2591 2866 
Q 2469 2988 2234 2988 
Q 1809 2988 1582 2694 
Q 1356 2400 1356 1850 
L 1356 331 
L 2022 331 
L 2022 0 
L 263 0 
L 263 331 
L 781 331 
L 781 2994 
L 231 2994 
L 231 3322 
L 1356 3322 
L 1356 2731 
Q 1525 3078 1790 3245 
Q 2056 3413 2438 3413 
Q 2578 3413 2733 3391 
Q 2888 3369 3059 3328 
z
" transform="scale(0.015625)"/>
       <path id="DejaVuSerif-67" d="M 3359 2988 
L 3359 72 
Q 3359 -644 2965 -1033 
Q 2572 -1422 1844 -1422 
Q 1516 -1422 1216 -1362 
Q 916 -1303 641 -1184 
L 641 -488 
L 941 -488 
Q 997 -813 1206 -963 
Q 1416 -1113 1806 -1113 
Q 2313 -1113 2548 -827 
Q 2784 -541 2784 72 
L 2784 519 
Q 2616 206 2355 57 
Q 2094 -91 1709 -91 
Q 1097 -91 708 395 
Q 319 881 319 1663 
Q 319 2444 706 2928 
Q 1094 3413 1709 3413 
Q 2094 3413 2355 3264 
Q 2616 3116 2784 2803 
L 2784 3322 
L 3909 3322 
L 3909 2988 
L 3359 2988 
z
M 2784 1825 
Q 2784 2422 2554 2737 
Q 2325 3053 1888 3053 
Q 1444 3053 1217 2703 
Q 991 2353 991 1663 
Q 991 975 1217 622 
Q 1444 269 1888 269 
Q 2325 269 2554 583 
Q 2784 897 2784 1497 
L 2784 1825 
z
" transform="scale(0.015625)"/>
       <path id="DejaVuSerif-79" d="M 1381 -609 
L 1600 -56 
L 359 2988 
L -19 2988 
L -19 3322 
L 1509 3322 
L 1509 2988 
L 978 2988 
L 1913 703 
L 2847 2988 
L 2350 2988 
L 2350 3322 
L 3597 3322 
L 3597 2988 
L 3225 2988 
L 1703 -750 
Q 1547 -1138 1356 -1280 
Q 1166 -1422 819 -1422 
Q 672 -1422 517 -1397 
Q 363 -1372 206 -1325 
L 206 -691 
L 500 -691 
Q 519 -903 608 -995 
Q 697 -1088 884 -1088 
Q 1056 -1088 1161 -992 
Q 1266 -897 1381 -609 
z
" transform="scale(0.015625)"/>
       <path id="DejaVuSerif-20" transform="scale(0.015625)"/>
       <path id="DejaVuSerif-6f" d="M 1925 219 
Q 2388 219 2623 584 
Q 2859 950 2859 1663 
Q 2859 2375 2623 2739 
Q 2388 3103 1925 3103 
Q 1463 3103 1227 2739 
Q 991 2375 991 1663 
Q 991 950 1228 584 
Q 1466 219 1925 219 
z
M 1925 -91 
Q 1200 -91 759 389 
Q 319 869 319 1663 
Q 319 2456 758 2934 
Q 1197 3413 1925 3413 
Q 2653 3413 3092 2934 
Q 3531 2456 3531 1663 
Q 3531 869 3092 389 
Q 2653 -91 1925 -91 
z
" transform="scale(0.015625)"/>
       <path id="DejaVuSerif-66" d="M 2753 4078 
L 2450 4078 
Q 2447 4313 2317 4434 
Q 2188 4556 1941 4556 
Q 1619 4556 1487 4379 
Q 1356 4203 1356 3750 
L 1356 3322 
L 2284 3322 
L 2284 2988 
L 1356 2988 
L 1356 331 
L 2094 331 
L 2094 0 
L 231 0 
L 231 331 
L 781 331 
L 781 2988 
L 231 2988 
L 231 3322 
L 781 3322 
L 781 3738 
Q 781 4294 1070 4578 
Q 1359 4863 1919 4863 
Q 2128 4863 2337 4825 
Q 2547 4788 2753 4709 
L 2753 4078 
z
" transform="scale(0.015625)"/>
       <path id="DejaVuSerif-69" d="M 622 4353 
Q 622 4497 726 4603 
Q 831 4709 978 4709 
Q 1122 4709 1226 4603 
Q 1331 4497 1331 4353 
Q 1331 4206 1228 4103 
Q 1125 4000 978 4000 
Q 831 4000 726 4103 
Q 622 4206 622 4353 
z
M 1356 331 
L 1900 331 
L 1900 0 
L 231 0 
L 231 331 
L 781 331 
L 781 2988 
L 231 2988 
L 231 3322 
L 1356 3322 
L 1356 331 
z
" transform="scale(0.015625)"/>
       <path id="DejaVuSerif-63" d="M 3291 997 
Q 3169 466 2822 187 
Q 2475 -91 1925 -91 
Q 1200 -91 759 389 
Q 319 869 319 1663 
Q 319 2459 759 2936 
Q 1200 3413 1925 3413 
Q 2241 3413 2553 3339 
Q 2866 3266 3181 3116 
L 3181 2266 
L 2847 2266 
Q 2781 2703 2561 2903 
Q 2341 3103 1931 3103 
Q 1466 3103 1228 2742 
Q 991 2381 991 1663 
Q 991 944 1227 581 
Q 1463 219 1931 219 
Q 2303 219 2525 412 
Q 2747 606 2828 997 
L 3291 997 
z
" transform="scale(0.015625)"/>
       <path id="DejaVuSerif-64" d="M 3359 331 
L 3909 331 
L 3909 0 
L 2784 0 
L 2784 519 
Q 2616 206 2355 57 
Q 2094 -91 1709 -91 
Q 1097 -91 708 395 
Q 319 881 319 1663 
Q 319 2444 706 2928 
Q 1094 3413 1709 3413 
Q 2094 3413 2355 3264 
Q 2616 3116 2784 2803 
L 2784 4531 
L 2241 4531 
L 2241 4863 
L 3359 4863 
L 3359 331 
z
M 2784 1497 
L 2784 1825 
Q 2784 2422 2554 2737 
Q 2325 3053 1888 3053 
Q 1444 3053 1217 2703 
Q 991 2353 991 1663 
Q 991 975 1217 622 
Q 1444 269 1888 269 
Q 2325 269 2554 583 
Q 2784 897 2784 1497 
z
" transform="scale(0.015625)"/>
       <path id="DejaVuSerif-74" d="M 691 2988 
L 184 2988 
L 184 3322 
L 691 3322 
L 691 4353 
L 1269 4353 
L 1269 3322 
L 2350 3322 
L 2350 2988 
L 1269 2988 
L 1269 878 
Q 1269 456 1350 337 
Q 1431 219 1650 219 
Q 1875 219 1978 351 
Q 2081 484 2088 781 
L 2522 781 
Q 2497 328 2275 118 
Q 2053 -91 1600 -91 
Q 1103 -91 897 129 
Q 691 350 691 878 
L 691 2988 
z
" transform="scale(0.015625)"/>
       <path id="DejaVuSerif-75" d="M 2266 3322 
L 3341 3322 
L 3341 331 
L 3884 331 
L 3884 0 
L 2766 0 
L 2766 588 
Q 2606 256 2353 82 
Q 2100 -91 1766 -91 
Q 1213 -91 952 223 
Q 691 538 691 1209 
L 691 2988 
L 172 2988 
L 172 3322 
L 1269 3322 
L 1269 1388 
Q 1269 781 1417 556 
Q 1566 331 1947 331 
Q 2347 331 2556 625 
Q 2766 919 2766 1478 
L 2766 2988 
L 2266 2988 
L 2266 3322 
z
" transform="scale(0.015625)"/>
       <path id="DejaVuSerif-28" d="M 2041 -997 
Q 1281 -656 893 83 
Q 506 822 506 1931 
Q 506 3044 893 3783 
Q 1281 4522 2041 4863 
L 2041 4556 
Q 1559 4225 1350 3623 
Q 1141 3022 1141 1931 
Q 1141 844 1350 242 
Q 1559 -359 2041 -691 
L 2041 -997 
z
" transform="scale(0.015625)"/>
       <path id="DejaVuSerif-4d" d="M 353 0 
L 353 331 
L 947 331 
L 947 4331 
L 319 4331 
L 319 4666 
L 1678 4666 
L 3316 1344 
L 4953 4666 
L 6228 4666 
L 6228 4331 
L 5606 4331 
L 5606 331 
L 6203 331 
L 6203 0 
L 4378 0 
L 4378 331 
L 4972 331 
L 4972 3938 
L 3372 684 
L 2931 684 
L 1331 3938 
L 1331 331 
L 1925 331 
L 1925 0 
L 353 0 
z
" transform="scale(0.015625)"/>
       <path id="DejaVuSerif-56" d="M 1119 4331 
L 2497 750 
L 3872 4331 
L 3347 4331 
L 3347 4666 
L 4716 4666 
L 4716 4331 
L 4263 4331 
L 2597 0 
L 2059 0 
L 403 4331 
L -63 4331 
L -63 4666 
L 1638 4666 
L 1638 4331 
L 1119 4331 
z
" transform="scale(0.015625)"/>
       <path id="DejaVuSerif-29" d="M 453 -997 
L 453 -691 
Q 934 -359 1145 242 
Q 1356 844 1356 1931 
Q 1356 3022 1145 3623 
Q 934 4225 453 4556 
L 453 4863 
Q 1216 4522 1603 3783 
Q 1991 3044 1991 1931 
Q 1991 822 1603 83 
Q 1216 -656 453 -997 
z
" transform="scale(0.015625)"/>
      </defs>
      <use xlink:href="#DejaVuSerif-45"/>
      <use xlink:href="#DejaVuSerif-6e" transform="translate(72.998047 0)"/>
      <use xlink:href="#DejaVuSerif-65" transform="translate(137.402344 0)"/>
      <use xlink:href="#DejaVuSerif-72" transform="translate(196.582031 0)"/>
      <use xlink:href="#DejaVuSerif-67" transform="translate(244.384766 0)"/>
      <use xlink:href="#DejaVuSerif-79" transform="translate(308.398438 0)"/>
      <use xlink:href="#DejaVuSerif-20" transform="translate(364.892578 0)"/>
      <use xlink:href="#DejaVuSerif-6f" transform="translate(396.679688 0)"/>
      <use xlink:href="#DejaVuSerif-66" transform="translate(456.884766 0)"/>
      <use xlink:href="#DejaVuSerif-20" transform="translate(493.896484 0)"/>
      <use xlink:href="#DejaVuSerif-69" transform="translate(525.683594 0)"/>
      <use xlink:href="#DejaVuSerif-6e" transform="translate(557.666016 0)"/>
      <use xlink:href="#DejaVuSerif-63" transform="translate(622.070312 0)"/>
      <use xlink:href="#DejaVuSerif-69" transform="translate(678.076172 0)"/>
      <use xlink:href="#DejaVuSerif-64" transform="translate(710.058594 0)"/>
      <use xlink:href="#DejaVuSerif-65" transform="translate(774.072266 0)"/>
      <use xlink:href="#DejaVuSerif-6e" transform="translate(833.251953 0)"/>
      <use xlink:href="#DejaVuSerif-74" transform="translate(897.65625 0)"/>
      <use xlink:href="#DejaVuSerif-20" transform="translate(937.841797 0)"/>
      <use xlink:href="#DejaVuSerif-6e" transform="translate(969.628906 0)"/>
      <use xlink:href="#DejaVuSerif-65" transform="translate(1034.033203 0)"/>
      <use xlink:href="#DejaVuSerif-75" transform="translate(1093.212891 0)"/>
      <use xlink:href="#DejaVuSerif-74" transform="translate(1157.617188 0)"/>
      <use xlink:href="#DejaVuSerif-72" transform="translate(1197.802734 0)"/>
      <use xlink:href="#DejaVuSerif-6f" transform="translate(1245.605469 0)"/>
      <use xlink:href="#DejaVuSerif-6e" transform="translate(1305.810547 0)"/>
      <use xlink:href="#DejaVuSerif-20" transform="translate(1370.214844 0)"/>
      <use xlink:href="#DejaVuSerif-28" transform="translate(1402.001953 0)"/>
      <use xlink:href="#DejaVuSerif-4d" transform="translate(1441.015625 0)"/>
      <use xlink:href="#DejaVuSerif-65" transform="translate(1543.408203 0)"/>
      <use xlink:href="#DejaVuSerif-56" transform="translate(1602.587891 0)"/>
      <use xlink:href="#DejaVuSerif-29" transform="translate(1674.804688 0)"/>
     </g>
    </g>
   </g>
   <g id="matplotlib.axis_2">
    <g id="ytick_1">
     <g id="line2d_15">
      <path d="M 76.4 557.036695 
L 844 557.036695 
" clip-path="url(#p8c3f4f60af)" style="fill: none; stroke-dasharray: 4.625,2; stroke-dashoffset: 0; stroke: #343837; stroke-opacity: 0.8; stroke-width: 1.25"/>
     </g>
     <g id="line2d_16">
      <defs>
       <path id="m01b1189f69" d="M 0 0 
L -3.5 0 
" style="stroke: #000000; stroke-width: 0.8"/>
      </defs>
      <g>
       <use xlink:href="#m01b1189f69" x="76.4" y="557.036695" style="stroke: #000000; stroke-width: 0.8"/>
      </g>
     </g>
     <g id="text_9">
      <!-- 0 -->
      <g transform="translate(55.4025 565.394976) scale(0.22 -0.22)">
       <use xlink:href="#DejaVuSerif-30"/>
      </g>
     </g>
    </g>
    <g id="ytick_2">
     <g id="line2d_17">
      <path d="M 76.4 486.350596 
L 844 486.350596 
" clip-path="url(#p8c3f4f60af)" style="fill: none; stroke-dasharray: 4.625,2; stroke-dashoffset: 0; stroke: #343837; stroke-opacity: 0.8; stroke-width: 1.25"/>
     </g>
     <g id="line2d_18">
      <g>
       <use xlink:href="#m01b1189f69" x="76.4" y="486.350596" style="stroke: #000000; stroke-width: 0.8"/>
      </g>
     </g>
     <g id="text_10">
      <!-- 1 -->
      <g transform="translate(55.4025 494.708877) scale(0.22 -0.22)">
       <use xlink:href="#DejaVuSerif-31"/>
      </g>
     </g>
    </g>
    <g id="ytick_3">
     <g id="line2d_19">
      <path d="M 76.4 415.664496 
L 844 415.664496 
" clip-path="url(#p8c3f4f60af)" style="fill: none; stroke-dasharray: 4.625,2; stroke-dashoffset: 0; stroke: #343837; stroke-opacity: 0.8; stroke-width: 1.25"/>
     </g>
     <g id="line2d_20">
      <g>
       <use xlink:href="#m01b1189f69" x="76.4" y="415.664496" style="stroke: #000000; stroke-width: 0.8"/>
      </g>
     </g>
     <g id="text_11">
      <!-- 2 -->
      <g transform="translate(55.4025 424.022778) scale(0.22 -0.22)">
       <defs>
        <path id="DejaVuSerif-32" d="M 819 3553 
L 469 3553 
L 469 4384 
Q 803 4563 1142 4656 
Q 1481 4750 1806 4750 
Q 2534 4750 2956 4397 
Q 3378 4044 3378 3438 
Q 3378 2753 2422 1800 
Q 2347 1728 2309 1691 
L 1131 513 
L 3078 513 
L 3078 1088 
L 3444 1088 
L 3444 0 
L 434 0 
L 434 341 
L 1850 1753 
Q 2319 2222 2519 2614 
Q 2719 3006 2719 3438 
Q 2719 3909 2473 4175 
Q 2228 4441 1797 4441 
Q 1350 4441 1106 4219 
Q 863 3997 819 3553 
z
" transform="scale(0.015625)"/>
       </defs>
       <use xlink:href="#DejaVuSerif-32"/>
      </g>
     </g>
    </g>
    <g id="ytick_4">
     <g id="line2d_21">
      <path d="M 76.4 344.978397 
L 844 344.978397 
" clip-path="url(#p8c3f4f60af)" style="fill: none; stroke-dasharray: 4.625,2; stroke-dashoffset: 0; stroke: #343837; stroke-opacity: 0.8; stroke-width: 1.25"/>
     </g>
     <g id="line2d_22">
      <g>
       <use xlink:href="#m01b1189f69" x="76.4" y="344.978397" style="stroke: #000000; stroke-width: 0.8"/>
      </g>
     </g>
     <g id="text_12">
      <!-- 3 -->
      <g transform="translate(55.4025 353.336678) scale(0.22 -0.22)">
       <use xlink:href="#DejaVuSerif-33"/>
      </g>
     </g>
    </g>
    <g id="ytick_5">
     <g id="line2d_23">
      <path d="M 76.4 274.292298 
L 844 274.292298 
" clip-path="url(#p8c3f4f60af)" style="fill: none; stroke-dasharray: 4.625,2; stroke-dashoffset: 0; stroke: #343837; stroke-opacity: 0.8; stroke-width: 1.25"/>
     </g>
     <g id="line2d_24">
      <g>
       <use xlink:href="#m01b1189f69" x="76.4" y="274.292298" style="stroke: #000000; stroke-width: 0.8"/>
      </g>
     </g>
     <g id="text_13">
      <!-- 4 -->
      <g transform="translate(55.4025 282.650579) scale(0.22 -0.22)">
       <defs>
        <path id="DejaVuSerif-34" d="M 2234 1581 
L 2234 4063 
L 641 1581 
L 2234 1581 
z
M 3609 0 
L 1484 0 
L 1484 331 
L 2234 331 
L 2234 1247 
L 197 1247 
L 197 1588 
L 2241 4750 
L 2859 4750 
L 2859 1581 
L 3750 1581 
L 3750 1247 
L 2859 1247 
L 2859 331 
L 3609 331 
L 3609 0 
z
" transform="scale(0.015625)"/>
       </defs>
       <use xlink:href="#DejaVuSerif-34"/>
      </g>
     </g>
    </g>
    <g id="ytick_6">
     <g id="line2d_25">
      <path d="M 76.4 203.606199 
L 844 203.606199 
" clip-path="url(#p8c3f4f60af)" style="fill: none; stroke-dasharray: 4.625,2; stroke-dashoffset: 0; stroke: #343837; stroke-opacity: 0.8; stroke-width: 1.25"/>
     </g>
     <g id="line2d_26">
      <g>
       <use xlink:href="#m01b1189f69" x="76.4" y="203.606199" style="stroke: #000000; stroke-width: 0.8"/>
      </g>
     </g>
     <g id="text_14">
      <!-- 5 -->
      <g transform="translate(55.4025 211.96448) scale(0.22 -0.22)">
       <use xlink:href="#DejaVuSerif-35"/>
      </g>
     </g>
    </g>
    <g id="ytick_7">
     <g id="line2d_27">
      <path d="M 76.4 132.920099 
L 844 132.920099 
" clip-path="url(#p8c3f4f60af)" style="fill: none; stroke-dasharray: 4.625,2; stroke-dashoffset: 0; stroke: #343837; stroke-opacity: 0.8; stroke-width: 1.25"/>
     </g>
     <g id="line2d_28">
      <g>
       <use xlink:href="#m01b1189f69" x="76.4" y="132.920099" style="stroke: #000000; stroke-width: 0.8"/>
      </g>
     </g>
     <g id="text_15">
      <!-- 6 -->
      <g transform="translate(55.4025 141.278381) scale(0.22 -0.22)">
       <defs>
        <path id="DejaVuSerif-36" d="M 2094 219 
Q 2534 219 2771 542 
Q 3009 866 3009 1472 
Q 3009 2078 2771 2401 
Q 2534 2725 2094 2725 
Q 1647 2725 1412 2412 
Q 1178 2100 1178 1509 
Q 1178 888 1415 553 
Q 1653 219 2094 219 
z
M 1075 2569 
Q 1288 2803 1556 2918 
Q 1825 3034 2163 3034 
Q 2859 3034 3264 2615 
Q 3669 2197 3669 1472 
Q 3669 763 3233 336 
Q 2797 -91 2069 -91 
Q 1278 -91 853 498 
Q 428 1088 428 2181 
Q 428 3406 931 4078 
Q 1434 4750 2350 4750 
Q 2597 4750 2869 4703 
Q 3141 4656 3425 4563 
L 3425 3794 
L 3072 3794 
Q 3034 4109 2831 4275 
Q 2628 4441 2284 4441 
Q 1678 4441 1381 3981 
Q 1084 3522 1075 2569 
z
" transform="scale(0.015625)"/>
       </defs>
       <use xlink:href="#DejaVuSerif-36"/>
      </g>
     </g>
    </g>
    <g id="ytick_8">
     <g id="line2d_29">
      <path d="M 76.4 62.234 
L 844 62.234 
" clip-path="url(#p8c3f4f60af)" style="fill: none; stroke-dasharray: 4.625,2; stroke-dashoffset: 0; stroke: #343837; stroke-opacity: 0.8; stroke-width: 1.25"/>
     </g>
     <g id="line2d_30">
      <g>
       <use xlink:href="#m01b1189f69" x="76.4" y="62.234" style="stroke: #000000; stroke-width: 0.8"/>
      </g>
     </g>
     <g id="text_16">
      <!-- 7 -->
      <g transform="translate(55.4025 70.592281) scale(0.22 -0.22)">
       <use xlink:href="#DejaVuSerif-37"/>
      </g>
     </g>
    </g>
    <g id="text_17">
     <!-- Neutron reproduction factor $\eta$ -->
     <g transform="translate(41.9425 511.6025) rotate(-90) scale(0.26 -0.26)">
      <defs>
       <path id="DejaVuSerif-4e" d="M 313 0 
L 313 331 
L 941 331 
L 941 4331 
L 313 4331 
L 313 4666 
L 1509 4666 
L 4306 984 
L 4306 4331 
L 3681 4331 
L 3681 4666 
L 5319 4666 
L 5319 4331 
L 4691 4331 
L 4691 -91 
L 4313 -91 
L 1325 3841 
L 1325 331 
L 1953 331 
L 1953 0 
L 313 0 
z
" transform="scale(0.015625)"/>
       <path id="DejaVuSerif-70" d="M 1313 1825 
L 1313 1497 
Q 1313 897 1542 583 
Q 1772 269 2209 269 
Q 2650 269 2876 622 
Q 3103 975 3103 1663 
Q 3103 2353 2876 2703 
Q 2650 3053 2209 3053 
Q 1772 3053 1542 2737 
Q 1313 2422 1313 1825 
z
M 738 2988 
L 184 2988 
L 184 3322 
L 1313 3322 
L 1313 2803 
Q 1481 3116 1742 3264 
Q 2003 3413 2388 3413 
Q 3000 3413 3387 2928 
Q 3775 2444 3775 1663 
Q 3775 881 3387 395 
Q 3000 -91 2388 -91 
Q 2003 -91 1742 57 
Q 1481 206 1313 519 
L 1313 -997 
L 1856 -997 
L 1856 -1331 
L 184 -1331 
L 184 -997 
L 738 -997 
L 738 2988 
z
" transform="scale(0.015625)"/>
       <path id="DejaVuSerif-61" d="M 2547 1044 
L 2547 1747 
L 1806 1747 
Q 1378 1747 1168 1562 
Q 959 1378 959 997 
Q 959 650 1171 447 
Q 1384 244 1747 244 
Q 2106 244 2326 466 
Q 2547 688 2547 1044 
z
M 3122 2075 
L 3122 331 
L 3634 331 
L 3634 0 
L 2547 0 
L 2547 359 
Q 2356 128 2106 18 
Q 1856 -91 1522 -91 
Q 969 -91 644 203 
Q 319 497 319 997 
Q 319 1513 691 1797 
Q 1063 2081 1741 2081 
L 2547 2081 
L 2547 2309 
Q 2547 2688 2317 2895 
Q 2088 3103 1672 3103 
Q 1328 3103 1125 2947 
Q 922 2791 872 2484 
L 575 2484 
L 575 3156 
Q 875 3284 1158 3348 
Q 1441 3413 1709 3413 
Q 2400 3413 2761 3070 
Q 3122 2728 3122 2075 
z
" transform="scale(0.015625)"/>
       <path id="DejaVuSerif-Italic-3b7" d="M 1153 0 
L 578 0 
L 1159 2988 
L 609 2988 
L 675 3322 
L 1800 3322 
L 1684 2731 
Q 1909 3069 2198 3241 
Q 2488 3413 2825 3413 
Q 3366 3413 3572 3097 
Q 3772 2791 3641 2113 
L 2969 -1331 
L 2391 -1331 
L 3025 1931 
Q 3144 2541 3037 2767 
Q 2931 2994 2553 2994 
Q 2153 2994 1887 2701 
Q 1622 2409 1513 1850 
L 1153 0 
z
" transform="scale(0.015625)"/>
      </defs>
      <use xlink:href="#DejaVuSerif-4e" transform="translate(0 0.015625)"/>
      <use xlink:href="#DejaVuSerif-65" transform="translate(87.5 0.015625)"/>
      <use xlink:href="#DejaVuSerif-75" transform="translate(146.679688 0.015625)"/>
      <use xlink:href="#DejaVuSerif-74" transform="translate(211.083984 0.015625)"/>
      <use xlink:href="#DejaVuSerif-72" transform="translate(251.269531 0.015625)"/>
      <use xlink:href="#DejaVuSerif-6f" transform="translate(299.072266 0.015625)"/>
      <use xlink:href="#DejaVuSerif-6e" transform="translate(359.277344 0.015625)"/>
      <use xlink:href="#DejaVuSerif-20" transform="translate(423.681641 0.015625)"/>
      <use xlink:href="#DejaVuSerif-72" transform="translate(455.46875 0.015625)"/>
      <use xlink:href="#DejaVuSerif-65" transform="translate(503.271484 0.015625)"/>
      <use xlink:href="#DejaVuSerif-70" transform="translate(562.451172 0.015625)"/>
      <use xlink:href="#DejaVuSerif-72" transform="translate(626.464844 0.015625)"/>
      <use xlink:href="#DejaVuSerif-6f" transform="translate(674.267578 0.015625)"/>
      <use xlink:href="#DejaVuSerif-64" transform="translate(734.472656 0.015625)"/>
      <use xlink:href="#DejaVuSerif-75" transform="translate(798.486328 0.015625)"/>
      <use xlink:href="#DejaVuSerif-63" transform="translate(862.890625 0.015625)"/>
      <use xlink:href="#DejaVuSerif-74" transform="translate(918.896484 0.015625)"/>
      <use xlink:href="#DejaVuSerif-69" transform="translate(959.082031 0.015625)"/>
      <use xlink:href="#DejaVuSerif-6f" transform="translate(991.064453 0.015625)"/>
      <use xlink:href="#DejaVuSerif-6e" transform="translate(1051.269531 0.015625)"/>
      <use xlink:href="#DejaVuSerif-20" transform="translate(1115.673828 0.015625)"/>
      <use xlink:href="#DejaVuSerif-66" transform="translate(1147.460938 0.015625)"/>
      <use xlink:href="#DejaVuSerif-61" transform="translate(1184.472656 0.015625)"/>
      <use xlink:href="#DejaVuSerif-63" transform="translate(1244.091797 0.015625)"/>
      <use xlink:href="#DejaVuSerif-74" transform="translate(1300.097656 0.015625)"/>
      <use xlink:href="#DejaVuSerif-6f" transform="translate(1340.283203 0.015625)"/>
      <use xlink:href="#DejaVuSerif-72" transform="translate(1400.488281 0.015625)"/>
      <use xlink:href="#DejaVuSerif-20" transform="translate(1448.291016 0.015625)"/>
      <use xlink:href="#DejaVuSerif-Italic-3b7" transform="translate(1480.078125 0.015625)"/>
     </g>
    </g>
   </g>
   <g id="line2d_31">
    <path d="M 76.400026 556.925229 
L 481.543529 556.815157 
L 482.174333 556.691911 
L 482.516336 556.95719 
L 483.071139 557.029611 
L 485.609556 557.005878 
L 492.1228 556.940791 
L 492.601603 556.982901 
L 492.951205 556.904499 
L 494.311614 556.942843 
L 496.888031 556.967993 
L 499.776051 556.822377 
L 502.284067 556.779166 
L 503.211274 556.498513 
L 503.872478 556.357257 
L 504.533682 556.362263 
L 505.286087 555.325588 
L 505.70409 555.302876 
L 506.661697 555.571774 
L 509.306514 556.320812 
L 511.920932 556.804682 
L 513.425742 556.891641 
L 514.375748 556.882307 
L 517.62097 556.587756 
L 518.517776 556.475672 
L 518.852178 556.513991 
L 519.581783 556.920191 
L 520.204987 556.896898 
L 520.364588 557.028471 
L 520.379788 557.017301 
L 520.66859 556.788543 
L 521.504596 556.767734 
L 522.713004 556.790339 
L 523.412208 556.750767 
L 523.59461 556.920253 
L 523.739011 556.996769 
L 523.822611 556.869059 
L 524.027812 556.776859 
L 524.886618 556.760768 
L 525.319821 556.890651 
L 525.775824 556.974312 
L 526.163427 556.744752 
L 526.915832 556.018659 
L 527.189434 555.427338 
L 527.463035 554.61501 
L 527.508636 554.753878 
L 527.751837 556.209187 
L 527.926638 556.234404 
L 528.10144 556.299051 
L 528.14704 556.600898 
L 528.23064 557.02629 
L 528.276241 556.972618 
L 528.496642 556.328229 
L 528.884245 556.417381 
L 529.872251 556.673121 
L 530.396655 556.331656 
L 531.09586 556.286629 
L 532.030666 556.413614 
L 533.315074 556.787254 
L 533.740677 556.950521 
L 534.12068 556.839127 
L 534.439882 556.75467 
L 534.599483 556.644919 
L 534.971885 556.479256 
L 535.146687 556.567106 
L 535.275887 557.025843 
L 535.321488 556.755636 
L 535.458289 556.3879 
L 535.914292 556.308145 
L 536.096693 556.431369 
L 536.636297 556.998503 
L 536.795898 556.813195 
L 536.841498 556.347086 
L 536.909898 555.788487 
L 536.963099 555.931822 
L 537.1075 556.564203 
L 537.1151 556.563189 
L 537.320301 556.411017 
L 537.715504 555.827866 
L 538.141107 554.792588 
L 538.437509 553.537854 
L 538.521109 552.209719 
L 538.59711 550.498966 
L 538.64271 550.932909 
L 538.794711 553.906786 
L 538.802311 553.906634 
L 539.091113 554.02433 
L 539.554716 554.626556 
L 539.942319 555.504185 
L 540.246321 556.033747 
L 540.360321 555.935355 
L 540.603523 555.233407 
L 541.051926 554.080526 
L 541.203927 554.06846 
L 541.333128 554.357385 
L 541.507929 555.435906 
L 541.728331 556.992508 
L 541.773931 556.829706 
L 542.085533 553.071013 
L 542.853138 543.194712 
L 542.921538 543.561592 
L 543.050739 547.0255 
L 543.354741 555.005058 
L 543.377542 555.103069 
L 543.438342 556.395806 
L 543.499142 555.744251 
L 543.719544 553.7753 
L 543.970345 553.013371 
L 544.167947 552.991703 
L 544.882352 553.285388 
L 545.193954 553.234975 
L 545.307954 553.720053 
L 545.543556 555.844786 
L 545.604356 555.273698 
L 545.741157 553.328241 
L 545.786758 553.594648 
L 545.893158 554.633828 
L 545.938759 554.383603 
L 546.022359 545.911635 
L 546.15156 535.229839 
L 546.19716 535.828148 
L 546.295961 546.59492 
L 546.394762 545.344338 
L 546.447962 545.625133 
L 546.485962 545.807295 
L 546.531563 545.449757 
L 546.592363 545.415125 
L 546.615163 545.473399 
L 547.496769 555.320136 
L 547.724771 556.862702 
L 547.762771 556.813921 
L 547.831171 555.460993 
L 548.127573 544.152413 
L 548.271974 544.413093 
L 548.370775 542.886397 
L 548.423975 543.394157 
L 548.720377 549.642261 
L 549.001579 552.685527 
L 549.009179 552.68484 
L 549.047179 552.575772 
L 549.14598 550.028606 
L 549.351181 538.466176 
L 549.411982 541.186391 
L 549.503182 549.253686 
L 549.556383 548.662964 
L 549.609583 548.077992 
L 549.662783 548.474594 
L 549.769184 551.850748 
L 549.875585 555.497183 
L 549.928785 554.957286 
L 550.103586 551.632675 
L 550.164387 551.511233 
L 550.217587 551.583516 
L 550.354388 552.232143 
L 550.795191 555.554079 
L 550.878792 555.141414 
L 551.007992 554.482796 
L 551.053593 554.660948 
L 551.099193 556.139453 
L 551.144793 557.002971 
L 551.190394 555.719149 
L 551.311994 554.375535 
L 551.418395 553.711267 
L 551.790798 549.23705 
L 551.980799 539.585684 
L 552.011199 539.591081 
L 552.041599 539.671768 
L 552.1936 544.1686 
L 552.505202 550.349801 
L 552.778804 552.109067 
L 552.885205 552.255707 
L 552.923205 552.208315 
L 553.022006 551.700867 
L 553.113206 551.320134 
L 553.151207 551.509019 
L 553.500809 556.979915 
L 553.508409 556.978945 
L 553.538809 556.876128 
L 553.63001 552.663074 
L 553.820011 541.073915 
L 553.888412 541.55064 
L 554.268414 555.757585 
L 554.412815 555.869318 
L 554.580016 557.034669 
L 554.633217 556.773619 
L 554.891618 553.954707 
L 555.051219 549.519924 
L 555.18042 544.458004 
L 555.241221 545.843459 
L 555.484422 556.85783 
L 555.492022 556.857381 
L 555.522423 556.799679 
L 555.621223 556.112232 
L 555.674424 556.174499 
L 556.115227 556.800143 
L 556.510429 556.888216 
L 556.905632 556.776668 
L 556.996832 556.464918 
L 557.065233 555.927039 
L 557.110833 556.265499 
L 557.164034 556.414489 
L 557.224834 556.343595 
L 557.399635 556.201868 
L 557.422435 556.219873 
L 557.650437 556.515405 
L 557.718837 557.032748 
L 557.764438 556.629622 
L 557.901238 556.095267 
L 558.12924 555.680807 
L 558.18244 554.807922 
L 558.21284 555.546107 
L 558.250841 556.251911 
L 558.326841 556.168695 
L 558.600443 556.071015 
L 559.094446 556.32619 
L 559.223647 556.851999 
L 559.261647 556.547504 
L 559.512449 554.838434 
L 559.56565 554.850426 
L 559.57325 554.894387 
L 559.67205 556.155436 
L 559.740451 556.026734 
L 559.884852 555.995734 
L 560.470056 556.517507 
L 560.614457 556.655768 
L 560.629657 556.645961 
L 561.359261 556.229065 
L 562.104066 556.170632 
L 562.362468 556.308208 
L 562.476469 556.670064 
L 562.552469 556.877371 
L 562.59047 556.683262 
L 562.765271 555.976997 
L 563.008472 555.914041 
L 563.145273 555.844237 
L 563.206074 555.528781 
L 563.251674 555.78718 
L 563.426475 556.20883 
L 563.935679 556.943243 
L 564.14088 556.833503 
L 564.17888 556.847908 
L 564.18648 556.900754 
L 564.232081 557.03419 
L 564.277681 556.786358 
L 564.437282 556.581251 
L 564.733684 556.540218 
L 565.326488 556.650333 
L 565.334088 556.620075 
L 565.394888 556.530695 
L 565.425289 556.676941 
L 565.554489 556.854804 
L 565.68369 556.966678 
L 565.873692 557.00192 
L 566.686897 556.857419 
L 566.899698 556.945851 
L 566.914899 556.925793 
L 567.1809 556.7851 
L 567.515303 556.924864 
L 567.591303 557.034951 
L 567.621703 556.925724 
L 567.766104 556.821724 
L 568.016906 556.916443 
L 568.092906 557.01116 
L 568.123307 556.916553 
L 568.442509 555.271241 
L 568.495709 555.66098 
L 568.731311 557.034584 
L 568.754111 556.994292 
L 568.959312 555.410968 
L 568.982112 555.454465 
L 569.134113 556.024096 
L 569.316515 556.14581 
L 569.476116 556.770926 
L 569.536916 556.79206 
L 569.559716 556.706936 
L 569.704117 556.445286 
L 569.719317 556.452106 
L 569.863718 556.65166 
L 570.053719 557.035225 
L 570.08412 556.95515 
L 570.12212 556.444841 
L 570.16772 555.645485 
L 570.228521 556.413445 
L 570.403322 556.846609 
L 570.456522 556.956393 
L 570.524923 557.035809 
L 570.562923 556.942806 
L 570.806125 556.552832 
L 571.064526 556.505255 
L 571.072126 556.519412 
L 571.102526 556.602807 
L 571.125327 556.483958 
L 571.155727 555.955885 
L 571.231727 556.394444 
L 571.459729 556.684186 
L 571.59653 556.765323 
L 571.778931 557.004489 
L 571.923332 556.900435 
L 572.136133 556.748627 
L 572.721337 556.587572 
L 572.736537 556.505848 
L 572.789738 556.777485 
L 572.812538 556.757603 
L 573.017739 556.773045 
L 573.830945 556.965051 
L 574.081746 556.847522 
L 574.142547 556.787133 
L 574.165347 556.893294 
L 574.248947 556.986335 
L 574.286948 556.970062 
L 574.948152 556.81421 
L 588.559843 556.473165 
L 591.637863 555.437635 
L 592.960272 555.058177 
L 594.389082 555.577823 
L 597.239101 556.530212 
L 602.528736 555.806126 
L 607.111567 555.527962 
L 611.937599 555.869457 
L 615.266421 555.36114 
L 616.155627 554.084664 
L 618.511643 550.606844 
L 618.770044 550.343799 
L 618.777645 550.348252 
L 619.157647 550.721402 
L 621.11086 552.567887 
L 622.995673 554.656325 
L 624.447282 556.568064 
L 624.652484 556.689876 
L 624.888085 556.432917 
L 625.63289 555.67169 
L 628.057306 553.029519 
L 630.268921 550.301719 
L 630.550123 550.043066 
L 630.762924 550.246899 
L 631.431729 550.883556 
L 633.362142 552.857697 
L 635.224154 555.079558 
L 635.459756 555.201918 
L 643.994613 554.863699 
L 648.987846 554.111588 
L 653.319875 552.406371 
L 654.003879 552.226649 
L 661.672331 551.699299 
L 664.849152 552.797358 
L 667.676371 553.417394 
L 675.230821 552.37263 
L 680.611657 551.747328 
L 681.614864 551.2719 
L 682.648471 550.530672 
L 683.750478 549.457946 
L 684.958886 547.960247 
L 685.802492 546.618588 
L 686.311695 545.18294 
L 687.406102 541.212334 
L 688.112907 539.12818 
L 689.868519 535.19376 
L 690.316922 534.736897 
L 691.046527 534.485344 
L 692.186534 534.338627 
L 693.334142 534.355851 
L 694.58815 534.401299 
L 698.935379 533.825263 
L 700.371789 533.33782 
L 701.808198 532.458292 
L 703.016606 531.388207 
L 704.111014 530.087713 
L 705.182621 528.441488 
L 706.55823 525.927144 
L 707.797038 523.215552 
L 709.104247 519.726161 
L 711.521063 512.442845 
L 713.261475 506.501496 
L 714.880286 500.15335 
L 716.050693 494.628337 
L 717.540303 486.395807 
L 723.194741 453.42458 
L 725.657157 439.366794 
L 727.169568 432.028513 
L 728.613577 425.1264 
L 729.145581 422.5744 
L 729.821985 420.857982 
L 730.422389 419.894628 
L 732.299602 417.299923 
L 734.245215 413.281987 
L 736.274428 409.1336 
L 738.121241 405.569972 
L 739.451249 403.334999 
L 739.914853 403.035475 
L 740.652058 402.950353 
L 741.229661 403.089868 
L 742.346869 403.372894 
L 743.274075 403.153116 
L 745.006887 402.634073 
L 746.260895 401.644778 
L 748.153308 398.761485 
L 749.164114 397.433012 
L 750.577724 395.908465 
L 751.45173 394.951542 
L 754.180148 391.582573 
L 756.01936 390.067232 
L 758.010573 387.736203 
L 762.441403 382.567993 
L 763.801812 381.231118 
L 764.273015 380.802813 
L 765.572624 379.328254 
L 769.334649 374.617168 
L 772.222668 370.468705 
L 775.764292 364.968762 
L 778.424309 360.782513 
L 781.669531 355.553669 
L 785.97116 348.233579 
L 789.102381 342.50382 
L 790.629991 339.010782 
L 793.297609 332.505537 
L 795.874026 325.605775 
L 798.815245 317.698356 
L 801.376463 311.619279 
L 803.899679 305.050539 
L 806.346896 298.052481 
L 808.900513 290.053234 
L 811.180528 282.223838 
L 813.04254 275.041876 
L 814.904553 266.903397 
L 817.344169 255.150748 
L 822.094201 232.124681 
L 825.081021 217.43343 
L 827.125434 206.116497 
L 829.53465 191.569715 
L 831.936266 175.689978 
L 834.337882 158.301565 
L 836.389896 142.142256 
L 836.389896 142.142256 
" clip-path="url(#p8c3f4f60af)" style="fill: none; stroke: #0a888a; stroke-width: 5; stroke-linecap: square"/>
   </g>
   <g id="line2d_32">
    <path d="M 76.400026 557.028265 
L 568.480509 556.922087 
L 568.58691 556.747969 
L 568.60971 556.784237 
L 568.66291 557.035391 
L 568.708511 556.720346 
L 568.761711 556.632918 
L 568.814911 556.704742 
L 568.944112 557.034466 
L 568.974512 556.873156 
L 569.286114 555.610168 
L 569.491316 555.266668 
L 569.514116 555.293481 
L 569.582516 555.673584 
L 569.688917 557.035258 
L 569.734517 556.159147 
L 570.000519 550.014339 
L 570.023319 550.097443 
L 570.07652 556.992993 
L 570.12972 550.381123 
L 570.213321 540.268943 
L 570.258921 514.783139 
L 570.312121 545.831087 
L 570.380522 556.657551 
L 570.441322 551.565797 
L 570.524923 551.6791 
L 570.540123 553.034408 
L 570.570523 556.869845 
L 570.631323 552.197056 
L 570.646523 552.224139 
L 570.760524 553.074493 
L 570.904925 555.464475 
L 570.950525 557.032642 
L 571.018926 556.05083 
L 571.140527 557.035121 
L 571.239327 556.635366 
L 571.58133 557.030939 
L 571.718131 557.017845 
L 571.733331 556.990519 
L 577.805771 557.013349 
L 578.276974 557.027143 
L 578.436575 557.000377 
L 579.036979 557.032727 
L 579.523383 557.026825 
L 586.60663 557.033244 
L 586.918232 557.036632 
L 588.08864 556.953019 
L 588.11144 556.908285 
L 588.15704 557.035156 
L 588.17984 557.036376 
L 588.210241 556.928369 
L 588.309041 556.849133 
L 588.240641 557.032945 
L 588.324241 556.879693 
L 588.369842 557.035598 
L 588.415442 556.858801 
L 588.430642 556.861272 
L 588.863845 556.988117 
L 589.175447 556.795619 
L 589.213447 556.872473 
L 589.395849 557.033257 
L 589.63145 557.005827 
L 589.791051 556.912933 
L 589.882252 556.733008 
L 589.897452 556.794424 
L 589.935452 557.035708 
L 589.988652 556.512735 
L 590.041853 556.39007 
L 590.087453 556.556616 
L 590.140653 557.035773 
L 590.186254 556.50883 
L 590.201454 556.462878 
L 590.231854 556.719892 
L 590.262254 557.035595 
L 590.307855 556.572649 
L 590.338255 556.715422 
L 590.459856 557.035497 
L 590.475056 557.012958 
L 590.497856 556.762386 
L 590.589056 556.947816 
L 590.748658 557.035665 
L 590.809458 556.926502 
L 590.908259 556.585905 
L 590.870258 557.032044 
L 590.931059 556.654978 
L 591.007059 557.036086 
L 591.05266 556.767339 
L 591.06786 556.718454 
L 591.11346 556.953086 
L 591.15146 557.03587 
L 591.18946 556.76926 
L 591.265461 555.917394 
L 591.280661 556.754699 
L 591.303461 557.023467 
L 591.341461 555.645303 
L 591.356662 555.69599 
L 591.584663 557.035624 
L 591.615063 556.895965 
L 591.675864 557.035374 
L 591.767064 555.376942 
L 591.827865 553.7776 
L 591.843065 556.471323 
L 591.911465 557.025308 
L 591.934265 555.512962 
L 591.949466 553.811337 
L 592.025466 557.030677 
L 592.033066 557.020448 
L 592.048266 556.365829 
L 592.177467 533.476506 
L 592.124267 556.989163 
L 592.192667 547.969173 
L 592.215467 556.932288 
L 592.276268 530.137034 
L 592.382668 432.489776 
L 592.397869 432.529245 
L 592.413069 433.720534 
L 592.54987 502.370181 
L 592.762671 553.996386 
L 592.891872 557.033656 
L 592.922272 556.932261 
L 593.059073 555.765519 
L 592.983072 557.031385 
L 593.089473 556.259954 
L 593.119873 557.034332 
L 593.180674 555.251454 
L 593.211074 554.937637 
L 593.226274 555.392202 
L 593.249074 557.01544 
L 593.287074 555.131844 
L 593.332675 555.656338 
L 593.477076 557.034422 
L 593.499876 556.772964 
L 593.545476 556.378242 
L 593.598677 556.81549 
L 593.697477 557.035517 
L 593.712677 556.998731 
L 593.743078 556.553309 
L 593.788678 557.034566 
L 593.826678 556.842627 
L 593.902679 557.03573 
L 593.948279 556.904113 
L 593.971079 556.869199 
L 594.016679 557.036062 
L 594.05468 556.957514 
L 594.08508 556.851415 
L 594.15348 557.036112 
L 594.206681 556.946702 
L 594.290281 556.881447 
L 594.244681 557.035121 
L 594.320681 556.950997 
L 594.381482 557.034519 
L 594.419482 556.916646 
L 594.495483 556.732814 
L 594.548683 556.846042 
L 594.639883 557.035252 
L 594.685484 556.928688 
L 594.700684 556.924397 
L 594.715884 557.03249 
L 594.753884 557.014553 
L 594.852685 557.035699 
L 594.867885 557.00179 
L 594.989486 556.769761 
L 594.890685 557.034249 
L 595.042686 556.862268 
L 595.156687 557.034123 
L 595.194687 556.970639 
L 595.278288 556.920201 
L 595.240287 557.035652 
L 595.301088 556.980404 
L 595.346688 557.035433 
L 595.384688 556.877703 
L 595.529089 556.567216 
L 595.55949 556.586435 
L 595.703891 556.903642 
L 595.810291 557.036113 
L 595.848292 556.99088 
L 595.893892 556.960452 
L 595.947092 557.036613 
L 596.007893 556.933967 
L 596.038293 556.924213 
L 596.068693 556.998466 
L 596.114293 557.034667 
L 596.159894 556.903651 
L 596.190294 556.885164 
L 596.213094 556.980398 
L 596.266294 556.970771 
L 596.327095 557.03664 
L 596.722297 556.924768 
L 596.897099 556.897628 
L 597.193501 556.998891 
L 597.497503 557.033979 
L 598.394309 557.036668 
L 600.355122 557.034654 
L 600.469122 556.791612 
L 611.747598 556.683173 
L 611.785598 556.287725 
L 611.838798 550.780742 
L 611.899599 555.802978 
L 612.0364 556.777709 
L 625.359288 556.750741 
L 625.404889 554.56455 
L 625.420089 552.786432 
L 625.480889 556.774359 
L 625.496089 556.774384 
L 649.755451 556.692152 
L 660.235921 556.71831 
L 675.09402 556.716868 
L 681.151261 556.558137 
L 687.755705 556.435873 
L 693.448143 556.415665 
L 697.726971 556.166875 
L 701.298995 555.977542 
L 707.249835 555.809541 
L 713.094274 555.388856 
L 714.986686 555.269045 
L 716.704298 555.265074 
L 723.141541 554.942453 
L 729.472383 553.935035 
L 730.825192 552.406164 
L 731.805598 550.913961 
L 732.740405 549.076257 
L 735.142021 543.495135 
L 736.084427 540.298056 
L 736.722831 537.445625 
L 737.232035 532.990318 
L 738.00724 523.63053 
L 740.036453 497.313338 
L 740.089654 497.413743 
L 740.218855 498.442002 
L 740.515257 501.218588 
L 740.560857 501.042308 
L 740.705258 499.24479 
L 741.290462 491.93108 
L 742.696471 475.931093 
L 743.737678 465.197592 
L 744.436883 452.314114 
L 745.371689 440.184228 
L 745.614891 438.22999 
L 745.797292 437.997198 
L 745.964493 438.111762 
L 746.146894 438.151916 
L 746.154494 438.143689 
L 746.260895 437.840595 
L 747.172901 433.495946 
L 748.062107 430.938287 
L 748.100107 430.983879 
L 748.290108 431.461375 
L 748.358509 431.304247 
L 748.616911 430.053145 
L 748.966513 427.413037 
L 749.711318 421.316324 
L 750.684124 415.501283 
L 751.45933 412.465257 
L 752.720938 408.360229 
L 754.324549 403.704286 
L 756.06496 401.344623 
L 757.098567 399.54834 
L 757.387369 399.384827 
L 757.767372 399.494927 
L 758.063774 399.473349 
L 758.778178 399.047743 
L 759.104981 398.578801 
L 759.598984 397.357219 
L 760.46539 395.283819 
L 761.810599 393.388979 
L 762.965806 391.580223 
L 763.619411 390.756433 
L 764.075414 390.566797 
L 764.607417 390.32481 
L 764.96462 389.841849 
L 765.739825 388.378576 
L 768.293442 383.423808 
L 769.942653 380.762946 
L 771.523463 377.896463 
L 774.586284 371.789634 
L 784.785552 351.238771 
L 788.775579 342.874215 
L 792.0512 335.473593 
L 794.848019 328.630376 
L 797.523237 321.529578 
L 799.742452 314.964944 
L 802.242868 306.837143 
L 804.674885 298.175265 
L 807.091701 288.739303 
L 809.478117 278.512843 
L 811.887333 267.196389 
L 814.266149 254.954563 
L 816.682965 241.341902 
L 819.107381 226.410644 
L 821.463397 210.495654 
L 823.553411 194.933867 
L 825.909426 176.681772 
L 829.633451 151.264139 
L 832.681071 131.056918 
L 834.330282 121.538057 
L 835.546291 115.722766 
L 836.389896 112.520676 
L 836.389896 112.520676 
" clip-path="url(#p8c3f4f60af)" style="fill: none; stroke: #2000b1; stroke-opacity: 0.85; stroke-width: 5; stroke-linecap: square"/>
   </g>
   <g id="line2d_33">
    <path d="M 76.400026 557.035529 
L 554.268414 556.926034 
L 554.580016 556.788085 
L 554.602816 556.81581 
L 554.648417 557.03261 
L 554.709217 556.77801 
L 554.716817 556.764233 
L 554.739617 556.940016 
L 554.777618 557.027025 
L 554.815618 556.725608 
L 554.861218 556.944181 
L 554.967619 551.117075 
L 555.051219 544.184536 
L 555.11202 547.57582 
L 555.279221 555.60426 
L 555.461622 557.035695 
L 555.492022 557.002884 
L 555.537623 557.032102 
L 555.651623 556.673229 
L 555.750424 556.783348 
L 555.856825 557.033994 
L 555.894825 556.886821 
L 556.031626 556.853056 
L 556.768831 557.03 
L 556.966432 557.013559 
L 557.650437 557.026149 
L 558.243241 557.028931 
L 562.301668 557.036462 
L 567.712904 556.930555 
L 567.864905 557.000964 
L 568.434909 557.034279 
L 568.57931 556.928747 
L 568.754111 554.51834 
L 568.807311 555.455934 
L 568.936512 557.033 
L 568.966912 556.996986 
L 568.989712 556.815392 
L 569.080913 556.926119 
L 569.339315 557.029504 
L 570.372922 557.032463 
L 570.616123 557.036678 
L 593.629077 557.03668 
L 609.695584 557.03053 
L 609.718384 556.816729 
L 609.771584 557.036453 
L 609.801985 557.036566 
L 609.870385 556.927152 
L 609.885585 556.833666 
L 609.931185 557.03655 
L 609.969186 557.035145 
L 611.390395 557.036373 
L 615.471622 556.967245 
L 615.494423 557.007339 
L 615.502023 556.610015 
L 615.517223 553.127611 
L 615.532423 557.035361 
L 615.608423 556.745609 
L 615.714824 557.036585 
L 615.631224 556.485143 
L 615.722424 557.035298 
L 615.836425 557.036005 
L 616.436829 556.987566 
L 616.490029 556.903237 
L 616.467229 557.036011 
L 616.54323 557.036388 
L 616.59643 557.021221 
L 616.702831 554.623178 
L 616.63443 557.034407 
L 616.710431 555.492435 
L 616.824431 557.036153 
L 616.839632 557.020533 
L 616.854832 556.783076 
L 616.877632 557.036179 
L 616.946032 557.019083 
L 616.976432 556.975849 
L 617.075233 557.036653 
L 617.896039 556.988229 
L 617.964439 555.885039 
L 617.926439 557.028886 
L 618.002439 557.013122 
L 618.010039 557.024989 
L 618.017639 557.005055 
L 618.04804 555.859293 
L 618.10124 557.033352 
L 618.13164 556.627044 
L 618.253241 557.036017 
L 618.276041 557.033364 
L 618.686444 557.036614 
L 622.106467 557.03646 
L 622.767671 557.034664 
L 622.798071 555.725681 
L 622.813271 552.735221 
L 622.904472 557.035803 
L 624.006479 557.036683 
L 628.034506 557.016937 
L 628.057306 553.165287 
L 628.118107 557.033165 
L 628.171307 554.173407 
L 628.239708 557.035508 
L 628.285308 557.034125 
L 629.083313 557.036681 
L 634.160147 557.035896 
L 634.296948 557.024265 
L 634.327348 555.962793 
L 634.365348 557.036537 
L 634.403349 557.036205 
L 635.482556 557.034832 
L 635.581357 556.774968 
L 635.588957 557.027668 
L 635.634557 557.015506 
L 635.687757 553.266916 
L 635.733358 557.032134 
L 635.740958 557.018665 
L 635.816958 557.035208 
L 635.824558 557.028866 
L 635.832158 556.87716 
L 635.847358 557.036319 
L 635.930959 556.958838 
L 636.07536 557.034423 
L 636.15896 556.745181 
L 636.212161 553.589 
L 636.196961 557.033591 
L 636.280561 556.099054 
L 636.295761 557.034081 
L 636.348962 555.900957 
L 636.394562 556.980373 
L 636.424962 556.973306 
L 636.508563 557.035302 
L 637.245768 557.036548 
L 637.397769 557.036649 
L 640.194587 557.036124 
L 640.240188 557.035276 
L 640.278188 555.729336 
L 640.293388 557.036591 
L 640.346588 557.036662 
L 653.737878 557.010101 
L 688.059707 556.976084 
L 699.862585 556.933758 
L 706.58103 556.9145 
L 712.098667 556.839462 
L 719.675918 556.79117 
L 722.97434 556.518621 
L 726.295562 556.484112 
L 728.415976 556.2529 
L 731.569997 556.200836 
L 734.116014 555.56123 
L 738.235241 554.296136 
L 739.398049 553.583292 
L 740.393656 552.708832 
L 741.01686 551.907066 
L 741.655264 550.670029 
L 742.407669 548.690784 
L 743.289275 545.703018 
L 743.813679 543.307528 
L 744.353282 540.295638 
L 744.870086 538.919331 
L 745.082887 538.777686 
L 745.090487 538.783207 
L 745.204488 539.042362 
L 745.447689 540.334641 
L 745.850492 542.200599 
L 745.903693 542.167342 
L 745.918893 542.11687 
L 746.032893 541.171934 
L 746.458496 536.959917 
L 746.496496 536.976286 
L 746.648498 537.236552 
L 747.0665 537.966582 
L 747.393302 538.081572 
L 747.492103 537.957529 
L 747.606104 536.937179 
L 747.872106 531.893628 
L 748.305309 524.786406 
L 748.776512 519.651059 
L 748.981713 516.040438 
L 749.004513 516.053208 
L 749.110914 516.324017 
L 749.392116 517.207771 
L 749.437716 517.13401 
L 749.544117 516.380239 
L 749.901319 511.436325 
L 750.509323 502.527859 
L 750.836125 498.093611 
L 751.261728 496.880692 
L 751.314929 497.064216 
L 751.47453 498.771805 
L 751.664531 500.403566 
L 751.702531 500.328955 
L 751.824132 499.473057 
L 752.386536 492.629702 
L 754.233348 467.397285 
L 754.742551 445.30783 
L 755.168154 432.440615 
L 755.745758 422.011689 
L 756.406963 413.660378 
L 757.022567 408.481055 
L 757.759772 404.310113 
L 758.481776 401.290085 
L 759.03658 399.820476 
L 759.743385 398.635044 
L 760.48819 397.301429 
L 760.997393 395.83653 
L 762.167801 392.401199 
L 763.53581 389.625402 
L 766.218628 384.254937 
L 774.335482 369.783947 
L 777.694705 363.817497 
L 784.739952 351.380337 
L 788.517177 344.184748 
L 790.48559 340.02641 
L 791.473597 337.378651 
L 792.165201 334.858541 
L 793.404009 329.343596 
L 796.109627 316.865121 
L 796.953233 314.730911 
L 799.605651 308.512925 
L 802.014867 302.302234 
L 805.700891 291.947437 
L 808.026507 284.783554 
L 809.417316 279.942395 
L 810.754925 274.484188 
L 813.559344 261.70786 
L 815.155354 254.019711 
L 817.883773 239.343446 
L 821.204995 220.022031 
L 824.153815 201.460411 
L 830.363056 160.410918 
L 831.822266 150.931936 
L 835.128288 127.156345 
L 836.085894 119.230614 
L 836.389896 114.325223 
L 836.389896 114.325223 
" clip-path="url(#p8c3f4f60af)" style="fill: none; stroke: #2138ab; stroke-opacity: 0.85; stroke-width: 5; stroke-linecap: square"/>
   </g>
   <g id="patch_3">
    <path d="M 76.4 560.571 
L 76.4 62.234 
" style="fill: none; stroke: #000000; stroke-width: 0.8; stroke-linejoin: miter; stroke-linecap: square"/>
   </g>
   <g id="patch_4">
    <path d="M 844 560.571 
L 844 62.234 
" style="fill: none; stroke: #000000; stroke-width: 0.8; stroke-linejoin: miter; stroke-linecap: square"/>
   </g>
   <g id="patch_5">
    <path d="M 76.4 560.571 
L 844 560.571 
" style="fill: none; stroke: #000000; stroke-width: 0.8; stroke-linejoin: miter; stroke-linecap: square"/>
   </g>
   <g id="patch_6">
    <path d="M 76.4 62.234 
L 844 62.234 
" style="fill: none; stroke: #000000; stroke-width: 0.8; stroke-linejoin: miter; stroke-linecap: square"/>
   </g>
   <g id="text_18">
    <!-- Neutron reproduction factor -->
    <g transform="translate(242.957813 43.775575) scale(0.3 -0.3)">
     <use xlink:href="#DejaVuSerif-4e"/>
     <use xlink:href="#DejaVuSerif-65" transform="translate(87.5 0)"/>
     <use xlink:href="#DejaVuSerif-75" transform="translate(146.679688 0)"/>
     <use xlink:href="#DejaVuSerif-74" transform="translate(211.083984 0)"/>
     <use xlink:href="#DejaVuSerif-72" transform="translate(251.269531 0)"/>
     <use xlink:href="#DejaVuSerif-6f" transform="translate(299.072266 0)"/>
     <use xlink:href="#DejaVuSerif-6e" transform="translate(359.277344 0)"/>
     <use xlink:href="#DejaVuSerif-20" transform="translate(423.681641 0)"/>
     <use xlink:href="#DejaVuSerif-72" transform="translate(455.46875 0)"/>
     <use xlink:href="#DejaVuSerif-65" transform="translate(503.271484 0)"/>
     <use xlink:href="#DejaVuSerif-70" transform="translate(562.451172 0)"/>
     <use xlink:href="#DejaVuSerif-72" transform="translate(626.464844 0)"/>
     <use xlink:href="#DejaVuSerif-6f" transform="translate(674.267578 0)"/>
     <use xlink:href="#DejaVuSerif-64" transform="translate(734.472656 0)"/>
     <use xlink:href="#DejaVuSerif-75" transform="translate(798.486328 0)"/>
     <use xlink:href="#DejaVuSerif-63" transform="translate(862.890625 0)"/>
     <use xlink:href="#DejaVuSerif-74" transform="translate(918.896484 0)"/>
     <use xlink:href="#DejaVuSerif-69" transform="translate(959.082031 0)"/>
     <use xlink:href="#DejaVuSerif-6f" transform="translate(991.064453 0)"/>
     <use xlink:href="#DejaVuSerif-6e" transform="translate(1051.269531 0)"/>
     <use xlink:href="#DejaVuSerif-20" transform="translate(1115.673828 0)"/>
     <use xlink:href="#DejaVuSerif-66" transform="translate(1147.460938 0)"/>
     <use xlink:href="#DejaVuSerif-61" transform="translate(1184.472656 0)"/>
     <use xlink:href="#DejaVuSerif-63" transform="translate(1244.091797 0)"/>
     <use xlink:href="#DejaVuSerif-74" transform="translate(1300.097656 0)"/>
     <use xlink:href="#DejaVuSerif-6f" transform="translate(1340.283203 0)"/>
     <use xlink:href="#DejaVuSerif-72" transform="translate(1400.488281 0)"/>
    </g>
   </g>
   <g id="legend_1">
    <g id="patch_7">
     <path d="M 90.4 166.30275 
L 198.8 166.30275 
Q 202.8 166.30275 202.8 162.30275 
L 202.8 76.234 
Q 202.8 72.234 198.8 72.234 
L 90.4 72.234 
Q 86.4 72.234 86.4 76.234 
L 86.4 162.30275 
Q 86.4 166.30275 90.4 166.30275 
z
" style="fill: #ffffff; opacity: 0.95; stroke: #cccccc; stroke-linejoin: miter"/>
    </g>
    <g id="line2d_34">
     <path d="M 94.4 88.430875 
L 114.4 88.430875 
L 134.4 88.430875 
" style="fill: none; stroke: #0a888a; stroke-width: 5; stroke-linecap: square"/>
    </g>
    <g id="text_19">
     <!-- $\mathrm{^{234}U}$ -->
     <g transform="translate(150.4 95.430875) scale(0.2 -0.2)">
      <defs>
       <path id="DejaVuSerif-55" d="M 897 4331 
L 300 4331 
L 300 4666 
L 2125 4666 
L 2125 4331 
L 1528 4331 
L 1528 1919 
Q 1528 1025 1820 672 
Q 2113 319 2828 319 
Q 3544 319 3836 672 
Q 4128 1025 4128 1919 
L 4128 4331 
L 3531 4331 
L 3531 4666 
L 5106 4666 
L 5106 4331 
L 4513 4331 
L 4513 1856 
Q 4513 791 4103 350 
Q 3694 -91 2713 -91 
Q 1731 -91 1314 353 
Q 897 797 897 1856 
L 897 4331 
z
" transform="scale(0.015625)"/>
      </defs>
      <use xlink:href="#DejaVuSerif-32" transform="translate(0.908359 37.046875) scale(0.7)"/>
      <use xlink:href="#DejaVuSerif-33" transform="translate(45.444492 37.046875) scale(0.7)"/>
      <use xlink:href="#DejaVuSerif-34" transform="translate(89.980625 37.046875) scale(0.7)"/>
      <use xlink:href="#DejaVuSerif-55" transform="translate(137.11207 0.7125)"/>
     </g>
    </g>
    <g id="line2d_35">
     <path d="M 94.4 117.787125 
L 114.4 117.787125 
L 134.4 117.787125 
" style="fill: none; stroke: #2000b1; stroke-opacity: 0.85; stroke-width: 5; stroke-linecap: square"/>
    </g>
    <g id="text_20">
     <!-- $\mathrm{^{236}U}$ -->
     <g transform="translate(150.4 124.787125) scale(0.2 -0.2)">
      <use xlink:href="#DejaVuSerif-32" transform="translate(0.908359 37.046875) scale(0.7)"/>
      <use xlink:href="#DejaVuSerif-33" transform="translate(45.444492 37.046875) scale(0.7)"/>
      <use xlink:href="#DejaVuSerif-36" transform="translate(89.980625 37.046875) scale(0.7)"/>
      <use xlink:href="#DejaVuSerif-55" transform="translate(137.11207 0.7125)"/>
     </g>
    </g>
    <g id="line2d_36">
     <path d="M 94.4 147.143375 
L 114.4 147.143375 
L 134.4 147.143375 
" style="fill: none; stroke: #2138ab; stroke-opacity: 0.85; stroke-width: 5; stroke-linecap: square"/>
    </g>
    <g id="text_21">
     <!-- $\mathrm{^{238}U}$ -->
     <g transform="translate(150.4 154.143375) scale(0.2 -0.2)">
      <defs>
       <path id="DejaVuSerif-38" d="M 2981 1275 
Q 2981 1775 2732 2051 
Q 2484 2328 2034 2328 
Q 1584 2328 1336 2051 
Q 1088 1775 1088 1275 
Q 1088 772 1336 495 
Q 1584 219 2034 219 
Q 2484 219 2732 495 
Q 2981 772 2981 1275 
z
M 2853 3541 
Q 2853 3966 2637 4203 
Q 2422 4441 2034 4441 
Q 1650 4441 1433 4203 
Q 1216 3966 1216 3541 
Q 1216 3113 1433 2875 
Q 1650 2638 2034 2638 
Q 2422 2638 2637 2875 
Q 2853 3113 2853 3541 
z
M 2516 2484 
Q 3047 2413 3344 2092 
Q 3641 1772 3641 1275 
Q 3641 619 3225 264 
Q 2809 -91 2034 -91 
Q 1263 -91 845 264 
Q 428 619 428 1275 
Q 428 1772 725 2092 
Q 1022 2413 1556 2484 
Q 1084 2569 832 2842 
Q 581 3116 581 3541 
Q 581 4103 968 4426 
Q 1356 4750 2034 4750 
Q 2713 4750 3100 4426 
Q 3488 4103 3488 3541 
Q 3488 3116 3236 2842 
Q 2984 2569 2516 2484 
z
" transform="scale(0.015625)"/>
      </defs>
      <use xlink:href="#DejaVuSerif-32" transform="translate(0.908359 37.046875) scale(0.7)"/>
      <use xlink:href="#DejaVuSerif-33" transform="translate(45.444492 37.046875) scale(0.7)"/>
      <use xlink:href="#DejaVuSerif-38" transform="translate(88.755625 37.046875) scale(0.7)"/>
      <use xlink:href="#DejaVuSerif-55" transform="translate(135.88707 0.7125)"/>
     </g>
    </g>
   </g>
  </g>
 </g>
 <defs>
  <clipPath id="p8c3f4f60af">
   <rect x="76.4" y="62.234" width="767.6" height="498.337"/>
  </clipPath>
 </defs>
</svg>
