<?xml version="1.0" encoding="utf-8" standalone="no"?>
<!DOCTYPE svg PUBLIC "-//W3C//DTD SVG 1.1//EN"
  "http://www.w3.org/Graphics/SVG/1.1/DTD/svg11.dtd">
<svg xmlns:xlink="http://www.w3.org/1999/xlink" width="864pt" height="648pt" viewBox="0 0 864 648" xmlns="http://www.w3.org/2000/svg" version="1.1">
 <metadata>
  <rdf:RDF xmlns:dc="http://purl.org/dc/elements/1.1/" xmlns:cc="http://creativecommons.org/ns#" xmlns:rdf="http://www.w3.org/1999/02/22-rdf-syntax-ns#">
   <cc:Work>
    <dc:type rdf:resource="http://purl.org/dc/dcmitype/StillImage"/>
    <dc:date>2025-10-21T14:38:31.325866</dc:date>
    <dc:format>image/svg+xml</dc:format>
    <dc:creator>
     <cc:Agent>
      <dc:title>Matplotlib v3.10.7, https://matplotlib.org/</dc:title>
     </cc:Agent>
    </dc:creator>
   </cc:Work>
  </rdf:RDF>
 </metadata>
 <defs>
  <style type="text/css">*{stroke-linejoin: round; stroke-linecap: butt}</style>
 </defs>
 <g id="figure_1">
  <g id="patch_1">
   <path d="M 0 648 
L 864 648 
L 864 0 
L 0 0 
z
" style="fill: #ffffff; stroke: #000000; stroke-width: 3; stroke-linejoin: miter"/>
  </g>
  <g id="axes_1">
   <g id="patch_2">
    <path d="M 76.4 560.571 
L 844 560.571 
L 844 62.234 
L 76.4 62.234 
L 76.4 560.571 
z
" style="fill: none"/>
   </g>
   <g id="matplotlib.axis_1">
    <g id="xtick_1">
     <g id="line2d_1">
      <path d="M 76.4 560.571 
L 76.4 62.234 
" clip-path="url(#pb705c1e36e)" style="fill: none; stroke-dasharray: 4.625,2; stroke-dashoffset: 0; stroke: #343837; stroke-opacity: 0.8; stroke-width: 1.25"/>
     </g>
     <g id="line2d_2">
      <defs>
       <path id="m1fb1bde4ec" d="M 0 0 
L 0 3.5 
" style="stroke: #000000; stroke-width: 0.8"/>
      </defs>
      <g>
       <use xlink:href="#m1fb1bde4ec" x="76.4" y="560.571" style="stroke: #000000; stroke-width: 0.8"/>
      </g>
     </g>
     <g id="text_1">
      <!-- $\mathdefault{10^{-11}}$ -->
      <g transform="translate(45.71 584.287562) scale(0.22 -0.22)">
       <defs>
        <path id="DejaVuSerif-31" d="M 909 0 
L 909 331 
L 1722 331 
L 1722 4213 
L 781 3603 
L 781 4013 
L 1919 4750 
L 2350 4750 
L 2350 331 
L 3163 331 
L 3163 0 
L 909 0 
z
" transform="scale(0.015625)"/>
        <path id="DejaVuSerif-30" d="M 2034 219 
Q 2513 219 2750 744 
Q 2988 1269 2988 2328 
Q 2988 3391 2750 3916 
Q 2513 4441 2034 4441 
Q 1556 4441 1318 3916 
Q 1081 3391 1081 2328 
Q 1081 1269 1318 744 
Q 1556 219 2034 219 
z
M 2034 -91 
Q 1275 -91 848 546 
Q 422 1184 422 2328 
Q 422 3475 848 4112 
Q 1275 4750 2034 4750 
Q 2797 4750 3222 4112 
Q 3647 3475 3647 2328 
Q 3647 1184 3222 546 
Q 2797 -91 2034 -91 
z
" transform="scale(0.015625)"/>
        <path id="DejaVuSerif-2212" d="M 678 2259 
L 4684 2259 
L 4684 1753 
L 678 1753 
L 678 2259 
z
" transform="scale(0.015625)"/>
       </defs>
       <use xlink:href="#DejaVuSerif-31" transform="translate(0 0.7125)"/>
       <use xlink:href="#DejaVuSerif-30" transform="translate(63.623047 0.7125)"/>
       <use xlink:href="#DejaVuSerif-2212" transform="translate(128.154453 37.046875) scale(0.7)"/>
       <use xlink:href="#DejaVuSerif-31" transform="translate(186.806797 37.046875) scale(0.7)"/>
       <use xlink:href="#DejaVuSerif-31" transform="translate(231.34293 37.046875) scale(0.7)"/>
      </g>
     </g>
    </g>
    <g id="xtick_2">
     <g id="line2d_3">
      <path d="M 198.78454 560.571 
L 198.78454 62.234 
" clip-path="url(#pb705c1e36e)" style="fill: none; stroke-dasharray: 4.625,2; stroke-dashoffset: 0; stroke: #343837; stroke-opacity: 0.8; stroke-width: 1.25"/>
     </g>
     <g id="line2d_4">
      <g>
       <use xlink:href="#m1fb1bde4ec" x="198.78454" y="560.571" style="stroke: #000000; stroke-width: 0.8"/>
      </g>
     </g>
     <g id="text_2">
      <!-- $\mathdefault{10^{-9}}$ -->
      <g transform="translate(173.04454 584.287562) scale(0.22 -0.22)">
       <defs>
        <path id="DejaVuSerif-39" d="M 2994 2091 
Q 2784 1856 2512 1740 
Q 2241 1625 1900 1625 
Q 1206 1625 804 2044 
Q 403 2463 403 3188 
Q 403 3897 839 4323 
Q 1275 4750 2003 4750 
Q 2794 4750 3217 4161 
Q 3641 3572 3641 2478 
Q 3641 1253 3137 581 
Q 2634 -91 1722 -91 
Q 1475 -91 1203 -44 
Q 931 3 647 97 
L 647 872 
L 997 872 
Q 1038 556 1241 387 
Q 1444 219 1784 219 
Q 2391 219 2687 676 
Q 2984 1134 2994 2091 
z
M 1978 4441 
Q 1534 4441 1298 4117 
Q 1063 3794 1063 3188 
Q 1063 2581 1298 2256 
Q 1534 1931 1978 1931 
Q 2422 1931 2658 2245 
Q 2894 2559 2894 3150 
Q 2894 3772 2656 4106 
Q 2419 4441 1978 4441 
z
" transform="scale(0.015625)"/>
       </defs>
       <use xlink:href="#DejaVuSerif-31" transform="translate(0 0.7125)"/>
       <use xlink:href="#DejaVuSerif-30" transform="translate(63.623047 0.7125)"/>
       <use xlink:href="#DejaVuSerif-2212" transform="translate(128.154453 37.046875) scale(0.7)"/>
       <use xlink:href="#DejaVuSerif-39" transform="translate(186.806797 37.046875) scale(0.7)"/>
      </g>
     </g>
    </g>
    <g id="xtick_3">
     <g id="line2d_5">
      <path d="M 321.16908 560.571 
L 321.16908 62.234 
" clip-path="url(#pb705c1e36e)" style="fill: none; stroke-dasharray: 4.625,2; stroke-dashoffset: 0; stroke: #343837; stroke-opacity: 0.8; stroke-width: 1.25"/>
     </g>
     <g id="line2d_6">
      <g>
       <use xlink:href="#m1fb1bde4ec" x="321.16908" y="560.571" style="stroke: #000000; stroke-width: 0.8"/>
      </g>
     </g>
     <g id="text_3">
      <!-- $\mathdefault{10^{-7}}$ -->
      <g transform="translate(295.42908 584.287562) scale(0.22 -0.22)">
       <defs>
        <path id="DejaVuSerif-37" d="M 3609 4347 
L 1784 0 
L 1319 0 
L 3059 4153 
L 903 4153 
L 903 3578 
L 538 3578 
L 538 4666 
L 3609 4666 
L 3609 4347 
z
" transform="scale(0.015625)"/>
       </defs>
       <use xlink:href="#DejaVuSerif-31" transform="translate(0 0.63125)"/>
       <use xlink:href="#DejaVuSerif-30" transform="translate(63.623047 0.63125)"/>
       <use xlink:href="#DejaVuSerif-2212" transform="translate(128.154453 36.965625) scale(0.7)"/>
       <use xlink:href="#DejaVuSerif-37" transform="translate(186.806797 36.965625) scale(0.7)"/>
      </g>
     </g>
    </g>
    <g id="xtick_4">
     <g id="line2d_7">
      <path d="M 443.553621 560.571 
L 443.553621 62.234 
" clip-path="url(#pb705c1e36e)" style="fill: none; stroke-dasharray: 4.625,2; stroke-dashoffset: 0; stroke: #343837; stroke-opacity: 0.8; stroke-width: 1.25"/>
     </g>
     <g id="line2d_8">
      <g>
       <use xlink:href="#m1fb1bde4ec" x="443.553621" y="560.571" style="stroke: #000000; stroke-width: 0.8"/>
      </g>
     </g>
     <g id="text_4">
      <!-- $\mathdefault{10^{-5}}$ -->
      <g transform="translate(417.813621 584.287562) scale(0.22 -0.22)">
       <defs>
        <path id="DejaVuSerif-35" d="M 3219 4666 
L 3219 4153 
L 1081 4153 
L 1081 2816 
Q 1244 2928 1461 2984 
Q 1678 3041 1947 3041 
Q 2703 3041 3140 2622 
Q 3578 2203 3578 1478 
Q 3578 738 3136 323 
Q 2694 -91 1894 -91 
Q 1572 -91 1234 -12 
Q 897 66 544 225 
L 544 1131 
L 897 1131 
Q 925 688 1179 453 
Q 1434 219 1894 219 
Q 2388 219 2653 544 
Q 2919 869 2919 1478 
Q 2919 2084 2655 2407 
Q 2391 2731 1894 2731 
Q 1613 2731 1398 2631 
Q 1184 2531 1019 2322 
L 750 2322 
L 750 4666 
L 3219 4666 
z
" transform="scale(0.015625)"/>
       </defs>
       <use xlink:href="#DejaVuSerif-31" transform="translate(0 0.63125)"/>
       <use xlink:href="#DejaVuSerif-30" transform="translate(63.623047 0.63125)"/>
       <use xlink:href="#DejaVuSerif-2212" transform="translate(128.154453 36.965625) scale(0.7)"/>
       <use xlink:href="#DejaVuSerif-35" transform="translate(186.806797 36.965625) scale(0.7)"/>
      </g>
     </g>
    </g>
    <g id="xtick_5">
     <g id="line2d_9">
      <path d="M 565.938161 560.571 
L 565.938161 62.234 
" clip-path="url(#pb705c1e36e)" style="fill: none; stroke-dasharray: 4.625,2; stroke-dashoffset: 0; stroke: #343837; stroke-opacity: 0.8; stroke-width: 1.25"/>
     </g>
     <g id="line2d_10">
      <g>
       <use xlink:href="#m1fb1bde4ec" x="565.938161" y="560.571" style="stroke: #000000; stroke-width: 0.8"/>
      </g>
     </g>
     <g id="text_5">
      <!-- $\mathdefault{10^{-3}}$ -->
      <g transform="translate(540.198161 584.287562) scale(0.22 -0.22)">
       <defs>
        <path id="DejaVuSerif-33" d="M 622 4469 
Q 988 4606 1323 4678 
Q 1659 4750 1953 4750 
Q 2638 4750 3022 4454 
Q 3406 4159 3406 3634 
Q 3406 3213 3140 2930 
Q 2875 2647 2388 2547 
Q 2963 2466 3280 2130 
Q 3597 1794 3597 1259 
Q 3597 606 3158 257 
Q 2719 -91 1894 -91 
Q 1528 -91 1179 -12 
Q 831 66 488 225 
L 488 1131 
L 838 1131 
Q 869 681 1141 450 
Q 1413 219 1906 219 
Q 2384 219 2661 495 
Q 2938 772 2938 1253 
Q 2938 1803 2653 2086 
Q 2369 2369 1819 2369 
L 1522 2369 
L 1522 2688 
L 1678 2688 
Q 2225 2688 2498 2914 
Q 2772 3141 2772 3597 
Q 2772 4006 2547 4223 
Q 2322 4441 1900 4441 
Q 1478 4441 1245 4241 
Q 1013 4041 972 3647 
L 622 3647 
L 622 4469 
z
" transform="scale(0.015625)"/>
       </defs>
       <use xlink:href="#DejaVuSerif-31" transform="translate(0 0.7125)"/>
       <use xlink:href="#DejaVuSerif-30" transform="translate(63.623047 0.7125)"/>
       <use xlink:href="#DejaVuSerif-2212" transform="translate(128.154453 37.046875) scale(0.7)"/>
       <use xlink:href="#DejaVuSerif-33" transform="translate(186.806797 37.046875) scale(0.7)"/>
      </g>
     </g>
    </g>
    <g id="xtick_6">
     <g id="line2d_11">
      <path d="M 688.322701 560.571 
L 688.322701 62.234 
" clip-path="url(#pb705c1e36e)" style="fill: none; stroke-dasharray: 4.625,2; stroke-dashoffset: 0; stroke: #343837; stroke-opacity: 0.8; stroke-width: 1.25"/>
     </g>
     <g id="line2d_12">
      <g>
       <use xlink:href="#m1fb1bde4ec" x="688.322701" y="560.571" style="stroke: #000000; stroke-width: 0.8"/>
      </g>
     </g>
     <g id="text_6">
      <!-- $\mathdefault{10^{-1}}$ -->
      <g transform="translate(662.582701 584.287562) scale(0.22 -0.22)">
       <use xlink:href="#DejaVuSerif-31" transform="translate(0 0.7125)"/>
       <use xlink:href="#DejaVuSerif-30" transform="translate(63.623047 0.7125)"/>
       <use xlink:href="#DejaVuSerif-2212" transform="translate(128.154453 37.046875) scale(0.7)"/>
       <use xlink:href="#DejaVuSerif-31" transform="translate(186.806797 37.046875) scale(0.7)"/>
      </g>
     </g>
    </g>
    <g id="xtick_7">
     <g id="line2d_13">
      <path d="M 810.707241 560.571 
L 810.707241 62.234 
" clip-path="url(#pb705c1e36e)" style="fill: none; stroke-dasharray: 4.625,2; stroke-dashoffset: 0; stroke: #343837; stroke-opacity: 0.8; stroke-width: 1.25"/>
     </g>
     <g id="line2d_14">
      <g>
       <use xlink:href="#m1fb1bde4ec" x="810.707241" y="560.571" style="stroke: #000000; stroke-width: 0.8"/>
      </g>
     </g>
     <g id="text_7">
      <!-- $\mathdefault{10^{1}}$ -->
      <g transform="translate(791.347241 584.287562) scale(0.22 -0.22)">
       <use xlink:href="#DejaVuSerif-31" transform="translate(0 0.7125)"/>
       <use xlink:href="#DejaVuSerif-30" transform="translate(63.623047 0.7125)"/>
       <use xlink:href="#DejaVuSerif-31" transform="translate(128.154453 37.046875) scale(0.7)"/>
      </g>
     </g>
    </g>
    <g id="text_8">
     <!-- Energy of incident neutron (MeV) -->
     <g transform="translate(237.400313 620.618812) scale(0.26 -0.26)">
      <defs>
       <path id="DejaVuSerif-45" d="M 353 0 
L 353 331 
L 947 331 
L 947 4331 
L 353 4331 
L 353 4666 
L 4109 4666 
L 4109 3628 
L 3725 3628 
L 3725 4281 
L 1581 4281 
L 1581 2719 
L 3109 2719 
L 3109 3303 
L 3494 3303 
L 3494 1753 
L 3109 1753 
L 3109 2338 
L 1581 2338 
L 1581 384 
L 3775 384 
L 3775 1038 
L 4159 1038 
L 4159 0 
L 353 0 
z
" transform="scale(0.015625)"/>
       <path id="DejaVuSerif-6e" d="M 263 0 
L 263 331 
L 781 331 
L 781 2988 
L 231 2988 
L 231 3322 
L 1356 3322 
L 1356 2731 
Q 1516 3069 1770 3241 
Q 2025 3413 2363 3413 
Q 2913 3413 3172 3097 
Q 3431 2781 3431 2113 
L 3431 331 
L 3944 331 
L 3944 0 
L 2356 0 
L 2356 331 
L 2853 331 
L 2853 1931 
Q 2853 2541 2703 2767 
Q 2553 2994 2175 2994 
Q 1775 2994 1565 2701 
Q 1356 2409 1356 1850 
L 1356 331 
L 1856 331 
L 1856 0 
L 263 0 
z
" transform="scale(0.015625)"/>
       <path id="DejaVuSerif-65" d="M 3469 1600 
L 991 1600 
L 991 1575 
Q 991 903 1244 561 
Q 1497 219 1991 219 
Q 2369 219 2611 417 
Q 2853 616 2950 1006 
L 3413 1006 
Q 3275 459 2904 184 
Q 2534 -91 1931 -91 
Q 1203 -91 761 389 
Q 319 869 319 1663 
Q 319 2450 753 2931 
Q 1188 3413 1894 3413 
Q 2647 3413 3050 2948 
Q 3453 2484 3469 1600 
z
M 2791 1931 
Q 2772 2513 2545 2808 
Q 2319 3103 1894 3103 
Q 1497 3103 1269 2806 
Q 1041 2509 991 1931 
L 2791 1931 
z
" transform="scale(0.015625)"/>
       <path id="DejaVuSerif-72" d="M 3059 3328 
L 3059 2497 
L 2728 2497 
Q 2713 2744 2591 2866 
Q 2469 2988 2234 2988 
Q 1809 2988 1582 2694 
Q 1356 2400 1356 1850 
L 1356 331 
L 2022 331 
L 2022 0 
L 263 0 
L 263 331 
L 781 331 
L 781 2994 
L 231 2994 
L 231 3322 
L 1356 3322 
L 1356 2731 
Q 1525 3078 1790 3245 
Q 2056 3413 2438 3413 
Q 2578 3413 2733 3391 
Q 2888 3369 3059 3328 
z
" transform="scale(0.015625)"/>
       <path id="DejaVuSerif-67" d="M 3359 2988 
L 3359 72 
Q 3359 -644 2965 -1033 
Q 2572 -1422 1844 -1422 
Q 1516 -1422 1216 -1362 
Q 916 -1303 641 -1184 
L 641 -488 
L 941 -488 
Q 997 -813 1206 -963 
Q 1416 -1113 1806 -1113 
Q 2313 -1113 2548 -827 
Q 2784 -541 2784 72 
L 2784 519 
Q 2616 206 2355 57 
Q 2094 -91 1709 -91 
Q 1097 -91 708 395 
Q 319 881 319 1663 
Q 319 2444 706 2928 
Q 1094 3413 1709 3413 
Q 2094 3413 2355 3264 
Q 2616 3116 2784 2803 
L 2784 3322 
L 3909 3322 
L 3909 2988 
L 3359 2988 
z
M 2784 1825 
Q 2784 2422 2554 2737 
Q 2325 3053 1888 3053 
Q 1444 3053 1217 2703 
Q 991 2353 991 1663 
Q 991 975 1217 622 
Q 1444 269 1888 269 
Q 2325 269 2554 583 
Q 2784 897 2784 1497 
L 2784 1825 
z
" transform="scale(0.015625)"/>
       <path id="DejaVuSerif-79" d="M 1381 -609 
L 1600 -56 
L 359 2988 
L -19 2988 
L -19 3322 
L 1509 3322 
L 1509 2988 
L 978 2988 
L 1913 703 
L 2847 2988 
L 2350 2988 
L 2350 3322 
L 3597 3322 
L 3597 2988 
L 3225 2988 
L 1703 -750 
Q 1547 -1138 1356 -1280 
Q 1166 -1422 819 -1422 
Q 672 -1422 517 -1397 
Q 363 -1372 206 -1325 
L 206 -691 
L 500 -691 
Q 519 -903 608 -995 
Q 697 -1088 884 -1088 
Q 1056 -1088 1161 -992 
Q 1266 -897 1381 -609 
z
" transform="scale(0.015625)"/>
       <path id="DejaVuSerif-20" transform="scale(0.015625)"/>
       <path id="DejaVuSerif-6f" d="M 1925 219 
Q 2388 219 2623 584 
Q 2859 950 2859 1663 
Q 2859 2375 2623 2739 
Q 2388 3103 1925 3103 
Q 1463 3103 1227 2739 
Q 991 2375 991 1663 
Q 991 950 1228 584 
Q 1466 219 1925 219 
z
M 1925 -91 
Q 1200 -91 759 389 
Q 319 869 319 1663 
Q 319 2456 758 2934 
Q 1197 3413 1925 3413 
Q 2653 3413 3092 2934 
Q 3531 2456 3531 1663 
Q 3531 869 3092 389 
Q 2653 -91 1925 -91 
z
" transform="scale(0.015625)"/>
       <path id="DejaVuSerif-66" d="M 2753 4078 
L 2450 4078 
Q 2447 4313 2317 4434 
Q 2188 4556 1941 4556 
Q 1619 4556 1487 4379 
Q 1356 4203 1356 3750 
L 1356 3322 
L 2284 3322 
L 2284 2988 
L 1356 2988 
L 1356 331 
L 2094 331 
L 2094 0 
L 231 0 
L 231 331 
L 781 331 
L 781 2988 
L 231 2988 
L 231 3322 
L 781 3322 
L 781 3738 
Q 781 4294 1070 4578 
Q 1359 4863 1919 4863 
Q 2128 4863 2337 4825 
Q 2547 4788 2753 4709 
L 2753 4078 
z
" transform="scale(0.015625)"/>
       <path id="DejaVuSerif-69" d="M 622 4353 
Q 622 4497 726 4603 
Q 831 4709 978 4709 
Q 1122 4709 1226 4603 
Q 1331 4497 1331 4353 
Q 1331 4206 1228 4103 
Q 1125 4000 978 4000 
Q 831 4000 726 4103 
Q 622 4206 622 4353 
z
M 1356 331 
L 1900 331 
L 1900 0 
L 231 0 
L 231 331 
L 781 331 
L 781 2988 
L 231 2988 
L 231 3322 
L 1356 3322 
L 1356 331 
z
" transform="scale(0.015625)"/>
       <path id="DejaVuSerif-63" d="M 3291 997 
Q 3169 466 2822 187 
Q 2475 -91 1925 -91 
Q 1200 -91 759 389 
Q 319 869 319 1663 
Q 319 2459 759 2936 
Q 1200 3413 1925 3413 
Q 2241 3413 2553 3339 
Q 2866 3266 3181 3116 
L 3181 2266 
L 2847 2266 
Q 2781 2703 2561 2903 
Q 2341 3103 1931 3103 
Q 1466 3103 1228 2742 
Q 991 2381 991 1663 
Q 991 944 1227 581 
Q 1463 219 1931 219 
Q 2303 219 2525 412 
Q 2747 606 2828 997 
L 3291 997 
z
" transform="scale(0.015625)"/>
       <path id="DejaVuSerif-64" d="M 3359 331 
L 3909 331 
L 3909 0 
L 2784 0 
L 2784 519 
Q 2616 206 2355 57 
Q 2094 -91 1709 -91 
Q 1097 -91 708 395 
Q 319 881 319 1663 
Q 319 2444 706 2928 
Q 1094 3413 1709 3413 
Q 2094 3413 2355 3264 
Q 2616 3116 2784 2803 
L 2784 4531 
L 2241 4531 
L 2241 4863 
L 3359 4863 
L 3359 331 
z
M 2784 1497 
L 2784 1825 
Q 2784 2422 2554 2737 
Q 2325 3053 1888 3053 
Q 1444 3053 1217 2703 
Q 991 2353 991 1663 
Q 991 975 1217 622 
Q 1444 269 1888 269 
Q 2325 269 2554 583 
Q 2784 897 2784 1497 
z
" transform="scale(0.015625)"/>
       <path id="DejaVuSerif-74" d="M 691 2988 
L 184 2988 
L 184 3322 
L 691 3322 
L 691 4353 
L 1269 4353 
L 1269 3322 
L 2350 3322 
L 2350 2988 
L 1269 2988 
L 1269 878 
Q 1269 456 1350 337 
Q 1431 219 1650 219 
Q 1875 219 1978 351 
Q 2081 484 2088 781 
L 2522 781 
Q 2497 328 2275 118 
Q 2053 -91 1600 -91 
Q 1103 -91 897 129 
Q 691 350 691 878 
L 691 2988 
z
" transform="scale(0.015625)"/>
       <path id="DejaVuSerif-75" d="M 2266 3322 
L 3341 3322 
L 3341 331 
L 3884 331 
L 3884 0 
L 2766 0 
L 2766 588 
Q 2606 256 2353 82 
Q 2100 -91 1766 -91 
Q 1213 -91 952 223 
Q 691 538 691 1209 
L 691 2988 
L 172 2988 
L 172 3322 
L 1269 3322 
L 1269 1388 
Q 1269 781 1417 556 
Q 1566 331 1947 331 
Q 2347 331 2556 625 
Q 2766 919 2766 1478 
L 2766 2988 
L 2266 2988 
L 2266 3322 
z
" transform="scale(0.015625)"/>
       <path id="DejaVuSerif-28" d="M 2041 -997 
Q 1281 -656 893 83 
Q 506 822 506 1931 
Q 506 3044 893 3783 
Q 1281 4522 2041 4863 
L 2041 4556 
Q 1559 4225 1350 3623 
Q 1141 3022 1141 1931 
Q 1141 844 1350 242 
Q 1559 -359 2041 -691 
L 2041 -997 
z
" transform="scale(0.015625)"/>
       <path id="DejaVuSerif-4d" d="M 353 0 
L 353 331 
L 947 331 
L 947 4331 
L 319 4331 
L 319 4666 
L 1678 4666 
L 3316 1344 
L 4953 4666 
L 6228 4666 
L 6228 4331 
L 5606 4331 
L 5606 331 
L 6203 331 
L 6203 0 
L 4378 0 
L 4378 331 
L 4972 331 
L 4972 3938 
L 3372 684 
L 2931 684 
L 1331 3938 
L 1331 331 
L 1925 331 
L 1925 0 
L 353 0 
z
" transform="scale(0.015625)"/>
       <path id="DejaVuSerif-56" d="M 1119 4331 
L 2497 750 
L 3872 4331 
L 3347 4331 
L 3347 4666 
L 4716 4666 
L 4716 4331 
L 4263 4331 
L 2597 0 
L 2059 0 
L 403 4331 
L -63 4331 
L -63 4666 
L 1638 4666 
L 1638 4331 
L 1119 4331 
z
" transform="scale(0.015625)"/>
       <path id="DejaVuSerif-29" d="M 453 -997 
L 453 -691 
Q 934 -359 1145 242 
Q 1356 844 1356 1931 
Q 1356 3022 1145 3623 
Q 934 4225 453 4556 
L 453 4863 
Q 1216 4522 1603 3783 
Q 1991 3044 1991 1931 
Q 1991 822 1603 83 
Q 1216 -656 453 -997 
z
" transform="scale(0.015625)"/>
      </defs>
      <use xlink:href="#DejaVuSerif-45"/>
      <use xlink:href="#DejaVuSerif-6e" transform="translate(72.998047 0)"/>
      <use xlink:href="#DejaVuSerif-65" transform="translate(137.402344 0)"/>
      <use xlink:href="#DejaVuSerif-72" transform="translate(196.582031 0)"/>
      <use xlink:href="#DejaVuSerif-67" transform="translate(244.384766 0)"/>
      <use xlink:href="#DejaVuSerif-79" transform="translate(308.398438 0)"/>
      <use xlink:href="#DejaVuSerif-20" transform="translate(364.892578 0)"/>
      <use xlink:href="#DejaVuSerif-6f" transform="translate(396.679688 0)"/>
      <use xlink:href="#DejaVuSerif-66" transform="translate(456.884766 0)"/>
      <use xlink:href="#DejaVuSerif-20" transform="translate(493.896484 0)"/>
      <use xlink:href="#DejaVuSerif-69" transform="translate(525.683594 0)"/>
      <use xlink:href="#DejaVuSerif-6e" transform="translate(557.666016 0)"/>
      <use xlink:href="#DejaVuSerif-63" transform="translate(622.070312 0)"/>
      <use xlink:href="#DejaVuSerif-69" transform="translate(678.076172 0)"/>
      <use xlink:href="#DejaVuSerif-64" transform="translate(710.058594 0)"/>
      <use xlink:href="#DejaVuSerif-65" transform="translate(774.072266 0)"/>
      <use xlink:href="#DejaVuSerif-6e" transform="translate(833.251953 0)"/>
      <use xlink:href="#DejaVuSerif-74" transform="translate(897.65625 0)"/>
      <use xlink:href="#DejaVuSerif-20" transform="translate(937.841797 0)"/>
      <use xlink:href="#DejaVuSerif-6e" transform="translate(969.628906 0)"/>
      <use xlink:href="#DejaVuSerif-65" transform="translate(1034.033203 0)"/>
      <use xlink:href="#DejaVuSerif-75" transform="translate(1093.212891 0)"/>
      <use xlink:href="#DejaVuSerif-74" transform="translate(1157.617188 0)"/>
      <use xlink:href="#DejaVuSerif-72" transform="translate(1197.802734 0)"/>
      <use xlink:href="#DejaVuSerif-6f" transform="translate(1245.605469 0)"/>
      <use xlink:href="#DejaVuSerif-6e" transform="translate(1305.810547 0)"/>
      <use xlink:href="#DejaVuSerif-20" transform="translate(1370.214844 0)"/>
      <use xlink:href="#DejaVuSerif-28" transform="translate(1402.001953 0)"/>
      <use xlink:href="#DejaVuSerif-4d" transform="translate(1441.015625 0)"/>
      <use xlink:href="#DejaVuSerif-65" transform="translate(1543.408203 0)"/>
      <use xlink:href="#DejaVuSerif-56" transform="translate(1602.587891 0)"/>
      <use xlink:href="#DejaVuSerif-29" transform="translate(1674.804688 0)"/>
     </g>
    </g>
   </g>
   <g id="matplotlib.axis_2">
    <g id="ytick_1">
     <g id="line2d_15">
      <path d="M 76.4 557.036695 
L 844 557.036695 
" clip-path="url(#pb705c1e36e)" style="fill: none; stroke-dasharray: 4.625,2; stroke-dashoffset: 0; stroke: #343837; stroke-opacity: 0.8; stroke-width: 1.25"/>
     </g>
     <g id="line2d_16">
      <defs>
       <path id="m5040846c5b" d="M 0 0 
L -3.5 0 
" style="stroke: #000000; stroke-width: 0.8"/>
      </defs>
      <g>
       <use xlink:href="#m5040846c5b" x="76.4" y="557.036695" style="stroke: #000000; stroke-width: 0.8"/>
      </g>
     </g>
     <g id="text_9">
      <!-- 0 -->
      <g transform="translate(55.4025 565.394976) scale(0.22 -0.22)">
       <use xlink:href="#DejaVuSerif-30"/>
      </g>
     </g>
    </g>
    <g id="ytick_2">
     <g id="line2d_17">
      <path d="M 76.4 486.350596 
L 844 486.350596 
" clip-path="url(#pb705c1e36e)" style="fill: none; stroke-dasharray: 4.625,2; stroke-dashoffset: 0; stroke: #343837; stroke-opacity: 0.8; stroke-width: 1.25"/>
     </g>
     <g id="line2d_18">
      <g>
       <use xlink:href="#m5040846c5b" x="76.4" y="486.350596" style="stroke: #000000; stroke-width: 0.8"/>
      </g>
     </g>
     <g id="text_10">
      <!-- 1 -->
      <g transform="translate(55.4025 494.708877) scale(0.22 -0.22)">
       <use xlink:href="#DejaVuSerif-31"/>
      </g>
     </g>
    </g>
    <g id="ytick_3">
     <g id="line2d_19">
      <path d="M 76.4 415.664496 
L 844 415.664496 
" clip-path="url(#pb705c1e36e)" style="fill: none; stroke-dasharray: 4.625,2; stroke-dashoffset: 0; stroke: #343837; stroke-opacity: 0.8; stroke-width: 1.25"/>
     </g>
     <g id="line2d_20">
      <g>
       <use xlink:href="#m5040846c5b" x="76.4" y="415.664496" style="stroke: #000000; stroke-width: 0.8"/>
      </g>
     </g>
     <g id="text_11">
      <!-- 2 -->
      <g transform="translate(55.4025 424.022778) scale(0.22 -0.22)">
       <defs>
        <path id="DejaVuSerif-32" d="M 819 3553 
L 469 3553 
L 469 4384 
Q 803 4563 1142 4656 
Q 1481 4750 1806 4750 
Q 2534 4750 2956 4397 
Q 3378 4044 3378 3438 
Q 3378 2753 2422 1800 
Q 2347 1728 2309 1691 
L 1131 513 
L 3078 513 
L 3078 1088 
L 3444 1088 
L 3444 0 
L 434 0 
L 434 341 
L 1850 1753 
Q 2319 2222 2519 2614 
Q 2719 3006 2719 3438 
Q 2719 3909 2473 4175 
Q 2228 4441 1797 4441 
Q 1350 4441 1106 4219 
Q 863 3997 819 3553 
z
" transform="scale(0.015625)"/>
       </defs>
       <use xlink:href="#DejaVuSerif-32"/>
      </g>
     </g>
    </g>
    <g id="ytick_4">
     <g id="line2d_21">
      <path d="M 76.4 344.978397 
L 844 344.978397 
" clip-path="url(#pb705c1e36e)" style="fill: none; stroke-dasharray: 4.625,2; stroke-dashoffset: 0; stroke: #343837; stroke-opacity: 0.8; stroke-width: 1.25"/>
     </g>
     <g id="line2d_22">
      <g>
       <use xlink:href="#m5040846c5b" x="76.4" y="344.978397" style="stroke: #000000; stroke-width: 0.8"/>
      </g>
     </g>
     <g id="text_12">
      <!-- 3 -->
      <g transform="translate(55.4025 353.336678) scale(0.22 -0.22)">
       <use xlink:href="#DejaVuSerif-33"/>
      </g>
     </g>
    </g>
    <g id="ytick_5">
     <g id="line2d_23">
      <path d="M 76.4 274.292298 
L 844 274.292298 
" clip-path="url(#pb705c1e36e)" style="fill: none; stroke-dasharray: 4.625,2; stroke-dashoffset: 0; stroke: #343837; stroke-opacity: 0.8; stroke-width: 1.25"/>
     </g>
     <g id="line2d_24">
      <g>
       <use xlink:href="#m5040846c5b" x="76.4" y="274.292298" style="stroke: #000000; stroke-width: 0.8"/>
      </g>
     </g>
     <g id="text_13">
      <!-- 4 -->
      <g transform="translate(55.4025 282.650579) scale(0.22 -0.22)">
       <defs>
        <path id="DejaVuSerif-34" d="M 2234 1581 
L 2234 4063 
L 641 1581 
L 2234 1581 
z
M 3609 0 
L 1484 0 
L 1484 331 
L 2234 331 
L 2234 1247 
L 197 1247 
L 197 1588 
L 2241 4750 
L 2859 4750 
L 2859 1581 
L 3750 1581 
L 3750 1247 
L 2859 1247 
L 2859 331 
L 3609 331 
L 3609 0 
z
" transform="scale(0.015625)"/>
       </defs>
       <use xlink:href="#DejaVuSerif-34"/>
      </g>
     </g>
    </g>
    <g id="ytick_6">
     <g id="line2d_25">
      <path d="M 76.4 203.606199 
L 844 203.606199 
" clip-path="url(#pb705c1e36e)" style="fill: none; stroke-dasharray: 4.625,2; stroke-dashoffset: 0; stroke: #343837; stroke-opacity: 0.8; stroke-width: 1.25"/>
     </g>
     <g id="line2d_26">
      <g>
       <use xlink:href="#m5040846c5b" x="76.4" y="203.606199" style="stroke: #000000; stroke-width: 0.8"/>
      </g>
     </g>
     <g id="text_14">
      <!-- 5 -->
      <g transform="translate(55.4025 211.96448) scale(0.22 -0.22)">
       <use xlink:href="#DejaVuSerif-35"/>
      </g>
     </g>
    </g>
    <g id="ytick_7">
     <g id="line2d_27">
      <path d="M 76.4 132.920099 
L 844 132.920099 
" clip-path="url(#pb705c1e36e)" style="fill: none; stroke-dasharray: 4.625,2; stroke-dashoffset: 0; stroke: #343837; stroke-opacity: 0.8; stroke-width: 1.25"/>
     </g>
     <g id="line2d_28">
      <g>
       <use xlink:href="#m5040846c5b" x="76.4" y="132.920099" style="stroke: #000000; stroke-width: 0.8"/>
      </g>
     </g>
     <g id="text_15">
      <!-- 6 -->
      <g transform="translate(55.4025 141.278381) scale(0.22 -0.22)">
       <defs>
        <path id="DejaVuSerif-36" d="M 2094 219 
Q 2534 219 2771 542 
Q 3009 866 3009 1472 
Q 3009 2078 2771 2401 
Q 2534 2725 2094 2725 
Q 1647 2725 1412 2412 
Q 1178 2100 1178 1509 
Q 1178 888 1415 553 
Q 1653 219 2094 219 
z
M 1075 2569 
Q 1288 2803 1556 2918 
Q 1825 3034 2163 3034 
Q 2859 3034 3264 2615 
Q 3669 2197 3669 1472 
Q 3669 763 3233 336 
Q 2797 -91 2069 -91 
Q 1278 -91 853 498 
Q 428 1088 428 2181 
Q 428 3406 931 4078 
Q 1434 4750 2350 4750 
Q 2597 4750 2869 4703 
Q 3141 4656 3425 4563 
L 3425 3794 
L 3072 3794 
Q 3034 4109 2831 4275 
Q 2628 4441 2284 4441 
Q 1678 4441 1381 3981 
Q 1084 3522 1075 2569 
z
" transform="scale(0.015625)"/>
       </defs>
       <use xlink:href="#DejaVuSerif-36"/>
      </g>
     </g>
    </g>
    <g id="ytick_8">
     <g id="line2d_29">
      <path d="M 76.4 62.234 
L 844 62.234 
" clip-path="url(#pb705c1e36e)" style="fill: none; stroke-dasharray: 4.625,2; stroke-dashoffset: 0; stroke: #343837; stroke-opacity: 0.8; stroke-width: 1.25"/>
     </g>
     <g id="line2d_30">
      <g>
       <use xlink:href="#m5040846c5b" x="76.4" y="62.234" style="stroke: #000000; stroke-width: 0.8"/>
      </g>
     </g>
     <g id="text_16">
      <!-- 7 -->
      <g transform="translate(55.4025 70.592281) scale(0.22 -0.22)">
       <use xlink:href="#DejaVuSerif-37"/>
      </g>
     </g>
    </g>
    <g id="text_17">
     <!-- Neutron reproduction factor $\eta$ -->
     <g transform="translate(41.9425 511.6025) rotate(-90) scale(0.26 -0.26)">
      <defs>
       <path id="DejaVuSerif-4e" d="M 313 0 
L 313 331 
L 941 331 
L 941 4331 
L 313 4331 
L 313 4666 
L 1509 4666 
L 4306 984 
L 4306 4331 
L 3681 4331 
L 3681 4666 
L 5319 4666 
L 5319 4331 
L 4691 4331 
L 4691 -91 
L 4313 -91 
L 1325 3841 
L 1325 331 
L 1953 331 
L 1953 0 
L 313 0 
z
" transform="scale(0.015625)"/>
       <path id="DejaVuSerif-70" d="M 1313 1825 
L 1313 1497 
Q 1313 897 1542 583 
Q 1772 269 2209 269 
Q 2650 269 2876 622 
Q 3103 975 3103 1663 
Q 3103 2353 2876 2703 
Q 2650 3053 2209 3053 
Q 1772 3053 1542 2737 
Q 1313 2422 1313 1825 
z
M 738 2988 
L 184 2988 
L 184 3322 
L 1313 3322 
L 1313 2803 
Q 1481 3116 1742 3264 
Q 2003 3413 2388 3413 
Q 3000 3413 3387 2928 
Q 3775 2444 3775 1663 
Q 3775 881 3387 395 
Q 3000 -91 2388 -91 
Q 2003 -91 1742 57 
Q 1481 206 1313 519 
L 1313 -997 
L 1856 -997 
L 1856 -1331 
L 184 -1331 
L 184 -997 
L 738 -997 
L 738 2988 
z
" transform="scale(0.015625)"/>
       <path id="DejaVuSerif-61" d="M 2547 1044 
L 2547 1747 
L 1806 1747 
Q 1378 1747 1168 1562 
Q 959 1378 959 997 
Q 959 650 1171 447 
Q 1384 244 1747 244 
Q 2106 244 2326 466 
Q 2547 688 2547 1044 
z
M 3122 2075 
L 3122 331 
L 3634 331 
L 3634 0 
L 2547 0 
L 2547 359 
Q 2356 128 2106 18 
Q 1856 -91 1522 -91 
Q 969 -91 644 203 
Q 319 497 319 997 
Q 319 1513 691 1797 
Q 1063 2081 1741 2081 
L 2547 2081 
L 2547 2309 
Q 2547 2688 2317 2895 
Q 2088 3103 1672 3103 
Q 1328 3103 1125 2947 
Q 922 2791 872 2484 
L 575 2484 
L 575 3156 
Q 875 3284 1158 3348 
Q 1441 3413 1709 3413 
Q 2400 3413 2761 3070 
Q 3122 2728 3122 2075 
z
" transform="scale(0.015625)"/>
       <path id="DejaVuSerif-Italic-3b7" d="M 1153 0 
L 578 0 
L 1159 2988 
L 609 2988 
L 675 3322 
L 1800 3322 
L 1684 2731 
Q 1909 3069 2198 3241 
Q 2488 3413 2825 3413 
Q 3366 3413 3572 3097 
Q 3772 2791 3641 2113 
L 2969 -1331 
L 2391 -1331 
L 3025 1931 
Q 3144 2541 3037 2767 
Q 2931 2994 2553 2994 
Q 2153 2994 1887 2701 
Q 1622 2409 1513 1850 
L 1153 0 
z
" transform="scale(0.015625)"/>
      </defs>
      <use xlink:href="#DejaVuSerif-4e" transform="translate(0 0.015625)"/>
      <use xlink:href="#DejaVuSerif-65" transform="translate(87.5 0.015625)"/>
      <use xlink:href="#DejaVuSerif-75" transform="translate(146.679688 0.015625)"/>
      <use xlink:href="#DejaVuSerif-74" transform="translate(211.083984 0.015625)"/>
      <use xlink:href="#DejaVuSerif-72" transform="translate(251.269531 0.015625)"/>
      <use xlink:href="#DejaVuSerif-6f" transform="translate(299.072266 0.015625)"/>
      <use xlink:href="#DejaVuSerif-6e" transform="translate(359.277344 0.015625)"/>
      <use xlink:href="#DejaVuSerif-20" transform="translate(423.681641 0.015625)"/>
      <use xlink:href="#DejaVuSerif-72" transform="translate(455.46875 0.015625)"/>
      <use xlink:href="#DejaVuSerif-65" transform="translate(503.271484 0.015625)"/>
      <use xlink:href="#DejaVuSerif-70" transform="translate(562.451172 0.015625)"/>
      <use xlink:href="#DejaVuSerif-72" transform="translate(626.464844 0.015625)"/>
      <use xlink:href="#DejaVuSerif-6f" transform="translate(674.267578 0.015625)"/>
      <use xlink:href="#DejaVuSerif-64" transform="translate(734.472656 0.015625)"/>
      <use xlink:href="#DejaVuSerif-75" transform="translate(798.486328 0.015625)"/>
      <use xlink:href="#DejaVuSerif-63" transform="translate(862.890625 0.015625)"/>
      <use xlink:href="#DejaVuSerif-74" transform="translate(918.896484 0.015625)"/>
      <use xlink:href="#DejaVuSerif-69" transform="translate(959.082031 0.015625)"/>
      <use xlink:href="#DejaVuSerif-6f" transform="translate(991.064453 0.015625)"/>
      <use xlink:href="#DejaVuSerif-6e" transform="translate(1051.269531 0.015625)"/>
      <use xlink:href="#DejaVuSerif-20" transform="translate(1115.673828 0.015625)"/>
      <use xlink:href="#DejaVuSerif-66" transform="translate(1147.460938 0.015625)"/>
      <use xlink:href="#DejaVuSerif-61" transform="translate(1184.472656 0.015625)"/>
      <use xlink:href="#DejaVuSerif-63" transform="translate(1244.091797 0.015625)"/>
      <use xlink:href="#DejaVuSerif-74" transform="translate(1300.097656 0.015625)"/>
      <use xlink:href="#DejaVuSerif-6f" transform="translate(1340.283203 0.015625)"/>
      <use xlink:href="#DejaVuSerif-72" transform="translate(1400.488281 0.015625)"/>
      <use xlink:href="#DejaVuSerif-20" transform="translate(1448.291016 0.015625)"/>
      <use xlink:href="#DejaVuSerif-Italic-3b7" transform="translate(1480.078125 0.015625)"/>
     </g>
    </g>
   </g>
   <g id="line2d_31">
    <path d="M 76.400027 556.985418 
L 445.561278 556.874322 
L 453.318627 556.665756 
L 457.090409 556.357112 
L 460.045226 555.887518 
L 462.732812 555.498807 
L 464.214038 555.536713 
L 466.206821 555.884504 
L 469.482316 556.449346 
L 472.620378 556.738305 
L 477.42291 556.937391 
L 484.248766 556.98691 
L 493.800384 556.869197 
L 495.365597 557.011328 
L 495.762627 556.803867 
L 496.717025 556.18617 
L 497.396557 556.111297 
L 499.412246 556.20029 
L 500.901107 556.44634 
L 501.901317 556.839957 
L 502.43578 557.006132 
L 502.535037 556.778125 
L 502.687741 556.600531 
L 502.855715 556.700262 
L 503.214569 556.934155 
L 503.825383 557.031351 
L 505.848708 557.005468 
L 508.711903 556.84956 
L 510.002249 556.786029 
L 510.880296 556.931654 
L 511.200973 557.031606 
L 511.575097 556.89423 
L 511.712531 556.597969 
L 511.87287 555.53403 
L 511.956857 555.843175 
L 512.132466 557.030188 
L 512.414968 556.977187 
L 513.239568 556.839668 
L 514.003087 556.976249 
L 514.621537 557.010452 
L 514.972755 556.805213 
L 515.331609 556.307734 
L 515.751544 555.305072 
L 515.911883 555.08195 
L 515.9806 554.896392 
L 516.240196 554.267127 
L 516.560874 553.919499 
L 516.744118 554.000232 
L 516.957904 554.414606 
L 517.278582 555.633122 
L 517.690882 557.001525 
L 517.874126 556.912011 
L 518.133722 556.117331 
L 518.408589 555.600705 
L 518.561293 555.66901 
L 518.767443 556.07219 
L 518.912511 556.168373 
L 518.996498 556.373491 
L 519.340082 556.836077 
L 519.721841 557.016933 
L 520.454819 557.03311 
L 521.355771 556.935154 
L 521.768071 556.625981 
L 521.951315 556.194263 
L 521.989491 556.078971 
L 522.058208 556.202562 
L 522.157465 556.3902 
L 522.32544 557.035117 
L 522.455238 556.952268 
L 522.676658 556.035271 
L 522.707199 556.070937 
L 522.951525 556.725791 
L 523.020242 556.500421 
L 523.172945 556.074953 
L 523.218756 555.860317 
L 523.38673 555.223308 
L 523.631056 555.073164 
L 524.654171 554.936263 
L 525.478771 554.994484 
L 526.081951 555.249377 
L 526.601144 555.706473 
L 527.204324 556.56774 
L 527.631894 557.033013 
L 527.792233 556.944153 
L 528.09764 556.216779 
L 528.830618 553.828735 
L 529.059674 553.728167 
L 529.265824 553.890979 
L 529.548326 554.445026 
L 529.983531 555.875949 
L 530.380561 556.943064 
L 530.571441 557.015603 
L 530.754685 556.768731 
L 531.854152 554.830533 
L 532.235911 554.726213 
L 532.831456 554.855266 
L 534.098897 555.741642 
L 534.282141 556.427789 
L 534.419574 556.67569 
L 534.63336 557.031791 
L 535.022754 556.986281 
L 535.053295 556.478002 
L 535.129647 555.242505 
L 535.175458 555.688926 
L 535.312891 556.770087 
L 535.404513 556.673203 
L 535.572488 556.121819 
L 535.603028 556.287364 
L 535.763367 556.74686 
L 535.969517 556.896868 
L 536.603238 556.904987 
L 536.733036 556.93714 
L 536.90101 557.031344 
L 537.214053 556.949314 
L 537.550001 556.400922 
L 537.863043 556.183661 
L 538.076829 556.271669 
L 538.512034 556.79975 
L 538.855618 557.035537 
L 539.023592 556.919044 
L 539.15339 556.768523 
L 539.451162 556.101113 
L 539.504608 556.185436 
L 539.810016 557.029839 
L 539.878733 556.962853 
L 540.107788 556.399712 
L 540.886577 554.440472 
L 541.016375 554.291905 
L 541.039281 554.362742 
L 541.130903 556.86227 
L 541.191985 555.105945 
L 541.329418 554.338889 
L 541.550838 554.234101 
L 541.879151 554.349813 
L 542.199829 554.523898 
L 542.589224 554.874873 
L 542.703751 555.557686 
L 542.948077 557.031246 
L 543.116052 556.890417 
L 543.398553 556.811261 
L 543.955922 556.973638 
L 544.307141 556.986701 
L 544.375857 556.735285 
L 544.520926 555.574702 
L 544.551467 555.935883 
L 544.727076 556.77733 
L 544.833968 556.931883 
L 545.147011 557.036261 
L 545.353161 556.932934 
L 545.482959 556.550317 
L 545.605122 555.408997 
L 545.73492 554.871876 
L 545.750191 554.845091 
L 545.788367 555.045619 
L 546.086139 557.035279 
L 546.13195 556.932675 
L 546.414452 556.250639 
L 546.620602 556.240136 
L 547.109254 556.390544 
L 547.124524 556.342496 
L 547.246687 556.264556 
L 547.254322 556.269709 
L 547.391756 556.456378 
L 547.452837 556.381564 
L 547.544459 556.259242 
L 547.834597 555.60615 
L 547.910948 555.743403 
L 547.9873 556.478175 
L 548.010206 556.746486 
L 548.078923 556.416479 
L 548.109463 555.560276 
L 548.17818 556.707854 
L 548.19345 556.718313 
L 548.216356 556.597392 
L 548.231626 556.596062 
L 548.323248 556.705337 
L 548.491223 557.018719 
L 548.697373 557.004352 
L 549.01805 556.848298 
L 549.048591 555.620893 
L 549.163119 553.814203 
L 549.170754 553.845631 
L 549.41508 555.918328 
L 549.773934 556.753113 
L 549.972449 556.848069 
L 550.064071 556.637262 
L 550.338938 554.886857 
L 550.506912 554.276292 
L 550.537452 554.299014 
L 550.63671 554.688683 
L 551.125362 557.014714 
L 551.377323 557.030684 
L 551.514756 556.94444 
L 551.575838 556.224856 
L 551.690366 552.341714 
L 551.736177 553.960382 
L 551.919421 556.619972 
L 552.09503 557.031504 
L 552.110301 557.023113 
L 552.255369 556.742437 
L 552.514966 554.988095 
L 552.576047 555.279966 
L 552.774562 556.996318 
L 552.820373 556.764292 
L 553.011253 554.123968 
L 553.385377 549.937735 
L 553.423553 549.893942 
L 553.469364 550.002791 
L 553.568621 550.985654 
L 553.706055 554.875034 
L 553.843488 556.976807 
L 553.912205 556.497138 
L 554.011462 556.750188 
L 554.049638 557.013164 
L 554.11072 556.695646 
L 554.286329 555.375762 
L 554.33214 555.589429 
L 554.408492 556.771267 
L 554.423762 556.294764 
L 554.545925 542.12779 
L 554.584101 544.150851 
L 554.805522 549.916371 
L 555.355255 557.011953 
L 555.370525 557.013586 
L 555.393431 556.933979 
L 555.469783 555.707082 
L 555.630122 551.672518 
L 555.698838 552.368487 
L 556.019516 556.93964 
L 556.080598 557.030084 
L 556.134044 556.940034 
L 556.263842 556.138536 
L 556.523438 552.744213 
L 556.691413 551.007743 
L 556.729588 551.236728 
L 556.80594 553.731699 
L 556.851751 556.292834 
L 556.889927 552.589959 
L 556.951009 550.92508 
L 557.157159 522.785473 
L 557.767974 500.358169 
L 557.813785 500.037821 
L 557.859596 500.38409 
L 557.935948 504.074462 
L 557.997029 520.322961 
L 558.035205 548.883121 
L 558.096287 512.313085 
L 558.119192 491.096467 
L 558.210815 498.504437 
L 558.539128 546.029498 
L 558.653655 553.872423 
L 558.676561 552.904253 
L 558.775818 536.965078 
L 559.050685 436.953045 
L 559.203389 401.098932 
L 559.218659 404.703037 
L 559.272105 545.477124 
L 559.317917 394.474858 
L 559.417174 364.60996 
L 559.44008 364.846083 
L 559.493526 369.279444 
L 559.569878 400.523732 
L 559.64623 535.124548 
L 559.737852 468.022381 
L 559.837109 409.039265 
L 559.875285 410.917067 
L 560.027989 434.404156 
L 560.577722 556.606567 
L 560.722791 546.724951 
L 560.776237 545.652357 
L 560.837319 546.227087 
L 560.959482 547.847292 
L 560.997658 547.380999 
L 561.043469 543.135027 
L 561.066374 539.942052 
L 561.127456 544.271168 
L 561.234348 557.005151 
L 561.249619 557.00286 
L 561.333606 556.850028 
L 561.417593 556.12239 
L 561.532121 555.14208 
L 561.562661 555.333725 
L 561.684824 555.861821 
L 561.723 555.769554 
L 561.990232 553.751649 
L 562.089489 550.220565 
L 562.158206 540.052175 
L 562.211652 544.064957 
L 562.265098 556.950208 
L 562.333815 555.693133 
L 562.555235 549.792584 
L 562.631587 549.855723 
L 562.707939 549.614204 
L 562.814832 549.193935 
L 562.845373 549.385123 
L 562.967536 551.725162 
L 563.066793 556.683902 
L 563.089699 552.822451 
L 563.143145 504.656029 
L 563.196591 555.457061 
L 563.204226 555.988156 
L 563.265308 552.886218 
L 563.295849 550.991389 
L 563.303484 550.387492 
L 563.349295 555.134128 
L 563.448552 556.988695 
L 563.471458 556.942746 
L 563.524904 556.876214 
L 563.853217 545.935069 
L 563.929569 546.592001 
L 564.089908 551.395837 
L 564.296058 557.002994 
L 564.334234 556.651044 
L 564.502208 548.708578 
L 564.616736 543.280396 
L 564.662547 544.649954 
L 564.845791 556.783788 
L 564.899238 553.449594 
L 565.113023 536.580077 
L 565.120658 538.09817 
L 565.204645 556.847033 
L 565.250456 554.131365 
L 565.311538 547.525242 
L 565.349714 554.663704 
L 565.357349 554.715835 
L 565.38789 554.204332 
L 565.410795 547.630169 
L 565.464241 444.568022 
L 565.525323 525.380073 
L 565.532958 536.341234 
L 565.59404 470.676327 
L 565.731473 411.062258 
L 565.769649 416.223297 
L 565.868906 484.73337 
L 566.052151 556.799063 
L 566.067421 556.968764 
L 566.136138 556.472555 
L 566.143773 556.499616 
L 566.181949 556.861222 
L 566.197219 556.230036 
L 566.220125 535.842988 
L 566.296477 519.955278 
L 566.334653 529.388223 
L 566.517897 556.469846 
L 566.556073 554.355562 
L 566.609519 553.840763 
L 566.617155 554.256004 
L 566.632425 555.419891 
L 566.64006 552.782169 
L 566.739318 508.891351 
L 566.777493 513.976969 
L 566.968373 556.646169 
L 567.113442 550.576833 
L 567.143982 550.74385 
L 567.174523 555.91633 
L 567.197429 550.165914 
L 567.289051 498.540979 
L 567.327227 511.758679 
L 567.533377 542.934421 
L 567.815879 555.898108 
L 567.86169 556.91046 
L 567.87696 555.662291 
L 567.922771 538.271818 
L 567.983853 554.551715 
L 568.037299 555.73323 
L 568.075475 554.602566 
L 568.151827 544.755066 
L 568.205273 551.232686 
L 568.380883 554.601431 
L 568.68629 556.893305 
L 568.762642 557.028694 
L 568.793183 556.898706 
L 569.052779 554.345374 
L 569.190212 552.663484 
L 569.213118 553.213003 
L 569.251294 555.755013 
L 569.312375 553.742555 
L 569.335281 550.048148 
L 569.419268 553.658275 
L 569.549066 557.0069 
L 569.579607 556.800904 
L 569.778122 554.193065 
L 569.831568 554.90863 
L 570.014812 556.930204 
L 570.075894 556.970387 
L 570.11407 556.903756 
L 570.167516 556.267686 
L 570.190422 554.225395 
L 570.236233 541.450749 
L 570.297314 555.81987 
L 570.381301 557.022586 
L 570.419477 556.752187 
L 570.52637 554.690588 
L 570.564546 555.882966 
L 570.617992 556.584884 
L 570.709614 557.035603 
L 570.740155 556.975089 
L 570.755425 556.444905 
L 570.816507 544.771222 
L 570.877588 553.071837 
L 571.060833 557.024778 
L 571.106644 556.859112 
L 571.221172 556.262684 
L 571.274618 556.498352 
L 571.328064 556.985727 
L 571.35097 556.545619 
L 571.457863 551.720423 
L 571.488403 552.943785 
L 571.534214 556.442764 
L 571.602931 554.209886 
L 571.656377 540.662104 
L 571.748 535.641638 
L 571.793811 536.378681 
L 571.915974 543.609926 
L 572.129759 556.447522 
L 572.183205 557.014296 
L 572.236652 556.526451 
L 572.419896 551.428148 
L 572.473342 550.08309 
L 572.488613 551.007237 
L 572.5726 556.259664 
L 572.610776 554.168773 
L 572.77875 551.134632 
L 572.801655 551.12811 
L 572.832196 551.207471 
L 572.961994 552.222801 
L 573.267402 555.273862 
L 573.282672 555.264099 
L 573.351389 554.97245 
L 573.504092 553.012913 
L 573.672067 548.974106 
L 573.710242 549.876248 
L 573.771324 555.978017 
L 573.840041 552.864169 
L 573.878217 539.352312 
L 573.939298 556.788805 
L 573.954568 556.525013 
L 574.053826 523.71761 
L 574.122543 542.708436 
L 574.137813 550.881636 
L 574.20653 524.056765 
L 574.267611 488.438962 
L 574.321057 497.897207 
L 574.473761 555.299455 
L 574.527207 533.771791 
L 574.580654 512.441102 
L 574.626465 540.147948 
L 574.64937 525.806132 
L 574.687546 510.902323 
L 574.832615 368.269107 
L 574.916602 364.087499 
L 574.962413 366.025171 
L 574.992954 381.836673 
L 575.015859 433.260746 
L 575.099846 377.902688 
L 575.107482 377.652975 
L 575.138022 379.305709 
L 575.229645 401.865351 
L 575.328902 490.980444 
L 575.412889 544.290361 
L 575.451065 542.354883 
L 575.580863 496.598352 
L 575.626674 498.323363 
L 575.718296 555.339691 
L 575.809919 545.471005 
L 575.840459 542.364304 
L 575.932082 500.757521 
L 575.985528 517.380635 
L 576.069515 550.778192 
L 576.084785 514.975977 
L 576.122961 503.876404 
L 576.191678 515.536276 
L 576.229854 540.280751 
L 576.2833 512.194612 
L 576.313841 480.133149 
L 576.344382 524.672413 
L 576.413098 552.137446 
L 576.451274 532.367941 
L 576.588708 498.591907 
L 576.611613 499.963447 
L 576.642154 517.802519 
L 576.749047 556.428415 
L 576.764317 556.37236 
L 576.779587 556.092899 
L 576.802493 541.260119 
L 576.909385 521.732123 
L 576.939926 522.219452 
L 577.115536 528.462236 
L 577.161347 526.203154 
L 577.191887 522.462283 
L 577.245334 526.049436 
L 577.329321 556.8317 
L 577.382767 556.184716 
L 577.482024 553.4325 
L 577.5202 554.54464 
L 577.611823 556.345488 
L 577.634728 555.470389 
L 577.672904 532.528558 
L 577.741621 556.574237 
L 577.764526 556.983073 
L 577.833243 556.319162 
L 577.871419 555.478694 
L 577.924865 556.469765 
L 577.955406 556.970586 
L 577.985947 555.702749 
L 578.085204 549.067866 
L 578.100475 552.939188 
L 578.131015 556.336696 
L 578.184462 545.197205 
L 578.321895 537.397274 
L 578.352436 538.089115 
L 578.390612 545.13425 
L 578.421152 556.350575 
L 578.482234 538.440007 
L 578.489869 538.850543 
L 578.657843 556.991899 
L 578.780006 555.253978 
L 578.802912 554.887751 
L 578.863993 543.77054 
L 578.925075 552.289733 
L 578.940345 555.577229 
L 579.039602 553.224096 
L 579.222847 557.029829 
L 579.276293 556.95017 
L 579.383186 556.786558 
L 579.482443 553.130648 
L 579.490078 552.710723 
L 579.528254 556.405367 
L 579.53589 556.43033 
L 579.55116 556.143401 
L 579.642782 550.500776 
L 579.688593 551.506224 
L 579.787851 556.898445 
L 579.833662 553.201012 
L 579.871838 552.410379 
L 580.070353 523.380149 
L 580.093258 524.260524 
L 580.123799 543.090213 
L 580.18488 552.928844 
L 580.230691 540.700056 
L 580.291773 536.748449 
L 580.345219 538.86929 
L 580.58191 556.987705 
L 580.650627 553.887816 
L 580.719343 553.065697 
L 580.757519 553.96303 
L 580.833871 556.678262 
L 580.879682 556.18801 
L 580.971305 554.652026 
L 581.032386 553.518119 
L 581.070562 554.655798 
L 581.177455 556.921393 
L 581.223266 556.587113 
L 581.307253 555.453003 
L 581.360699 551.118169 
L 581.383605 547.278328 
L 581.437051 556.927062 
L 581.452321 556.811012 
L 581.666106 552.137928 
L 581.711918 546.75774 
L 581.765364 551.769541 
L 581.81881 554.005607 
L 581.879892 552.589424 
L 581.994419 542.105731 
L 582.208205 507.706219 
L 582.246381 516.91841 
L 582.292192 550.134543 
L 582.353273 523.287273 
L 582.399084 484.190061 
L 582.444895 555.713525 
L 582.452531 555.841264 
L 582.460166 555.474643 
L 582.475436 544.900461 
L 582.505977 484.334423 
L 582.589964 528.018792 
L 582.689221 556.71915 
L 582.780844 549.189753 
L 582.811384 547.27998 
L 582.872466 512.633413 
L 582.956453 521.541142 
L 583.086251 556.246105 
L 583.116792 542.911752 
L 583.26186 401.576096 
L 583.338212 410.609789 
L 583.368753 412.219502 
L 583.414564 408.301379 
L 583.506186 368.639735 
L 583.536727 386.627252 
L 583.628349 550.196036 
L 583.689431 509.545235 
L 583.719972 467.966589 
L 583.811594 482.245736 
L 583.949027 516.440482 
L 584.048285 556.793408 
L 584.109366 553.761372 
L 584.124636 553.538657 
L 584.162812 554.754824 
L 584.208623 556.875148 
L 584.269705 555.752659 
L 584.430044 546.650962 
L 584.353692 556.695548 
L 584.437679 546.77397 
L 584.498761 552.364995 
L 584.536936 556.589615 
L 584.575112 548.150152 
L 584.598018 545.894224 
L 584.620924 527.188357 
L 584.68964 553.881783 
L 584.704911 548.279626 
L 584.788898 513.400841 
L 584.827074 522.086092 
L 584.849979 555.694155 
L 584.911061 521.548978 
L 584.933966 521.87347 
L 585.109575 527.365652 
L 585.163022 556.313795 
L 585.330996 554.665834 
L 585.399713 556.974947 
L 585.460794 556.028161 
L 585.560051 547.060132 
L 585.613498 551.736591 
L 585.712755 557.004842 
L 585.758566 553.120118 
L 585.857824 543.098582 
L 585.896 544.848709 
L 585.964716 555.413744 
L 586.025798 546.927443 
L 586.056339 538.017692 
L 586.125055 549.772763 
L 586.147961 555.243646 
L 586.209042 545.622105 
L 586.254853 525.551909 
L 586.315935 549.101021 
L 586.377016 556.60595 
L 586.430463 550.475115 
L 586.51445 546.778094 
L 586.567896 547.476963 
L 586.590802 549.327042 
L 586.743505 556.978269 
L 586.774046 557.01404 
L 586.812222 556.909023 
L 586.896209 555.602279 
L 587.056548 549.912094 
L 587.087089 550.473001 
L 587.155805 556.471629 
L 587.209252 551.111018 
L 587.216887 550.520078 
L 587.247428 556.360339 
L 587.277968 556.470289 
L 587.285604 556.14761 
L 587.445942 547.70976 
L 587.346685 556.722341 
L 587.476483 548.667184 
L 587.606281 556.983778 
L 587.667363 554.305711 
L 587.674998 553.661415 
L 587.713174 556.420934 
L 587.76662 554.628306 
L 587.842972 556.247599 
L 587.865878 554.646104 
L 587.896418 554.390761 
L 587.911689 555.194313 
L 588.049122 556.464843 
L 588.079663 556.814875 
L 588.133109 556.353962 
L 588.171285 554.569498 
L 588.240002 556.723878 
L 588.301083 547.831179 
L 588.331624 538.580181 
L 588.407976 544.934614 
L 588.499598 556.671704 
L 588.56068 552.111904 
L 588.583585 551.578499 
L 588.621761 553.664803 
L 588.682843 556.706741 
L 588.743924 556.436336 
L 588.76683 556.199885 
L 588.7821 554.603443 
L 588.866087 556.937103 
L 588.873722 556.982296 
L 588.896628 556.502104 
L 588.927169 556.262161 
L 589.00352 550.154341 
L 589.056967 553.759086 
L 589.087507 556.869367 
L 589.171494 553.936705 
L 589.202035 554.769556 
L 589.240211 556.755038 
L 589.286022 553.885075 
L 589.308928 551.10251 
L 589.38528 555.91793 
L 589.408185 556.881483 
L 589.438726 555.562812 
L 589.446361 555.146015 
L 589.492172 556.439113 
L 589.545619 555.597747 
L 589.652511 557.026696 
L 589.690687 556.862873 
L 589.751769 556.476186 
L 589.79758 556.86159 
L 589.81285 556.990959 
L 589.82812 556.317626 
L 589.889202 554.49267 
L 589.927378 556.463873 
L 589.935013 556.788645 
L 590.00373 555.303157 
L 590.011365 555.552686 
L 590.080082 539.00028 
L 590.118258 555.432419 
L 590.148798 555.841739 
L 590.156433 554.822675 
L 590.270961 539.452698 
L 590.316772 540.938311 
L 590.385489 552.842509 
L 590.408395 556.407448 
L 590.446571 548.267075 
L 590.500017 555.359811 
L 590.530558 556.265261 
L 590.545828 556.873962 
L 590.584004 555.682547 
L 590.629815 556.28056 
L 590.652721 553.237718 
L 590.736708 556.329893 
L 590.767248 555.20282 
L 590.912317 548.93636 
L 590.927587 550.755457 
L 591.03448 556.560069 
L 590.981034 549.704868 
L 591.042115 556.00668 
L 591.202454 528.288741 
L 591.110832 556.346241 
L 591.24063 536.581229 
L 591.263535 551.745028 
L 591.309347 535.336655 
L 591.324617 505.419366 
L 591.393334 554.292601 
L 591.416239 546.357415 
L 591.46205 539.675688 
L 591.523132 545.024067 
L 591.645295 556.474467 
L 591.683471 553.850225 
L 591.820904 455.714281 
L 591.87435 498.580154 
L 591.889621 549.113632 
L 591.973608 466.028908 
L 591.981243 464.67764 
L 591.996513 469.601872 
L 592.027054 535.868083 
L 592.06523 433.601186 
L 592.187393 395.57955 
L 592.202663 395.678688 
L 592.240839 399.191997 
L 592.279015 407.43869 
L 592.332462 394.782354 
L 592.424084 515.370075 
L 592.47753 547.476869 
L 592.446989 508.090481 
L 592.530976 525.243987 
L 592.553882 502.641119 
L 592.622599 556.381536 
L 592.660775 556.769681 
L 592.645504 556.187625 
L 592.66841 556.410181 
L 592.775302 535.131887 
L 592.882195 470.267593 
L 592.905101 475.963264 
L 592.950912 556.199268 
L 593.004358 475.643292 
L 593.08071 464.368621 
L 593.134156 466.535621 
L 593.279225 484.209821 
L 593.424293 529.200348 
L 593.50828 556.791282 
L 593.569362 552.976181 
L 593.592267 552.560339 
L 593.638078 553.844343 
L 593.760241 556.742153 
L 593.790782 556.249971 
L 593.89004 545.171615 
L 594.004567 550.344122 
L 594.12673 556.536126 
L 594.195447 556.054108 
L 594.210717 556.105616 
L 594.225988 556.855732 
L 594.256528 553.756608 
L 594.378691 545.821164 
L 594.416867 549.394937 
L 594.462678 556.456078 
L 594.531395 552.639138 
L 594.684099 557.028866 
L 594.72991 556.781598 
L 594.882614 554.702782 
L 594.92079 555.913722 
L 594.974236 556.753727 
L 594.989506 556.096195 
L 595.027682 551.242339 
L 595.096399 555.800839 
L 595.119305 556.903851 
L 595.15748 554.698739 
L 595.203292 554.243179 
L 595.241467 554.790472 
L 595.272008 555.08376 
L 595.317819 554.579573 
L 595.378901 549.160693 
L 595.432347 554.330774 
L 595.523969 556.487836 
L 595.55451 555.204771 
L 595.56978 554.981555 
L 595.630862 513.454392 
L 595.722484 398.712609 
L 595.753025 431.286724 
L 595.783566 553.210007 
L 595.875188 515.762267 
L 595.943905 510.215263 
L 596.004986 556.528674 
L 596.027892 545.232646 
L 596.066068 506.977964 
L 596.134784 553.273163 
L 596.180595 557.023806 
L 596.256947 556.849023 
L 596.287488 557.007715 
L 596.302758 556.742568 
L 596.318029 553.083434 
L 596.371475 535.541852 
L 596.432557 543.915963 
L 596.692153 556.266905 
L 596.768505 554.633032 
L 596.814316 554.462887 
L 596.837221 554.684704 
L 596.898303 556.673992 
L 596.944114 554.875818 
L 596.959384 553.217906 
L 597.051007 554.566014 
L 597.066277 554.606739 
L 597.104453 554.361797 
L 597.234251 551.577266 
L 597.280062 552.755247 
L 597.356414 551.556728 
L 597.448036 556.923669 
L 597.463307 557.017903 
L 597.509118 556.525447 
L 597.524388 556.461292 
L 597.554929 556.916075 
L 597.562564 556.623125 
L 597.631281 537.382058 
L 597.677092 550.798647 
L 597.684727 553.796794 
L 597.730538 546.775252 
L 597.753444 516.613103 
L 597.82216 555.263494 
L 597.845066 536.386566 
L 597.951959 488.618175 
L 597.898512 549.943635 
L 597.967229 526.215344 
L 597.99777 543.257261 
L 598.020675 508.951193 
L 598.066486 530.434654 
L 598.119933 532.233199 
L 598.257366 368.359455 
L 598.287907 365.826981 
L 598.295542 368.125426 
L 598.379529 551.555271 
L 598.41007 390.524697 
L 598.44061 384.36005 
L 598.501692 395.210185 
L 598.585679 456.821719 
L 598.639125 556.922693 
L 598.707842 480.947405 
L 598.715477 480.50794 
L 598.730748 485.44449 
L 598.776559 555.105739 
L 598.921627 554.614769 
L 598.929262 554.507863 
L 598.944533 550.972206 
L 599.02852 556.947878 
L 599.036155 556.994055 
L 599.059061 556.55573 
L 599.158318 550.142395 
L 599.204129 554.532302 
L 599.211764 555.452263 
L 599.265211 550.078426 
L 599.303387 546.383029 
L 599.341562 554.017937 
L 599.356833 554.784259 
L 599.364468 556.12768 
L 599.42555 551.245847 
L 599.448455 551.680998 
L 599.494266 556.060489 
L 599.540077 553.03467 
L 599.555348 547.749331 
L 599.639335 557.026605 
L 599.654605 557.016299 
L 599.677511 554.751877 
L 599.692781 553.855028 
L 599.761498 556.565121 
L 599.83785 557.035689 
L 599.860755 556.776395 
L 599.921837 555.169323 
L 599.990553 555.546648 
L 600.097446 554.141615 
L 600.150892 550.475858 
L 600.211974 552.00173 
L 600.418124 556.624493 
L 600.425759 556.528383 
L 600.555557 551.314744 
L 600.593733 552.180638 
L 600.631909 556.61573 
L 600.700626 552.671862 
L 600.754072 549.240065 
L 600.799883 554.060598 
L 600.822789 555.707289 
L 600.853329 552.165818 
L 600.929681 547.995676 
L 600.967857 551.310081 
L 600.990763 555.040824 
L 601.036574 546.285119 
L 601.09002 539.050565 
L 601.143466 542.816173 
L 601.196913 554.915076 
L 601.250359 538.801765 
L 601.273265 539.441119 
L 601.326711 554.89225 
L 601.395428 550.926625 
L 601.517591 544.063048 
L 601.548131 546.643108 
L 601.670294 556.790133 
L 601.677929 556.8927 
L 601.731376 556.305868 
L 601.838268 541.60726 
L 601.861174 551.458706 
L 601.884079 556.548179 
L 601.937526 545.449346 
L 601.960431 537.50223 
L 602.029148 555.024753 
L 602.082594 556.933875 
L 602.128405 554.980715 
L 602.166581 549.267209 
L 602.227663 555.586642 
L 602.242933 556.918616 
L 602.29638 551.543845 
L 602.349826 552.403329 
L 602.388002 544.322051 
L 602.433813 509.246269 
L 602.494894 537.919304 
L 602.548341 556.913758 
L 602.609422 548.969327 
L 602.632328 548.013986 
L 602.655233 549.3157 
L 602.72395 556.4859 
L 602.754491 550.58866 
L 602.807937 509.671213 
L 602.869018 543.963007 
L 603.036993 556.658957 
L 603.075168 556.403529 
L 603.128615 555.193907 
L 603.174426 556.530604 
L 603.220237 557.028232 
L 603.243143 555.460676 
L 603.380576 553.205969 
L 603.288954 555.92357 
L 603.403482 553.498282 
L 603.53328 556.996308 
L 603.571456 556.077509 
L 603.601996 554.679888 
L 603.632537 552.586378 
L 603.685983 556.628571 
L 603.701254 555.195295 
L 603.708889 555.187656 
L 603.716524 555.269464 
L 603.853957 556.965178 
L 603.861593 556.828451 
L 603.907404 554.858369 
L 603.97612 555.317883 
L 604.029567 555.280247 
L 604.044837 555.244242 
L 604.121189 554.674335 
L 604.18227 552.651477 
L 604.228082 554.500195 
L 604.258622 555.935707 
L 604.304433 551.409874 
L 604.334974 526.732735 
L 604.418961 542.990772 
L 604.449502 518.265851 
L 604.487678 556.783898 
L 604.5793 555.205081 
L 604.617476 556.105286 
L 604.640382 555.945702 
L 604.762545 554.450968 
L 604.78545 555.177123 
L 604.808356 555.365868 
L 604.831261 557.007648 
L 604.915248 556.146955 
L 604.930519 555.198931 
L 604.968695 557.02387 
L 605.022141 556.590477 
L 605.083222 553.477791 
L 605.129034 556.471946 
L 605.16721 557.035886 
L 605.19775 556.060592 
L 605.266467 556.656508 
L 605.342819 520.056953 
L 605.380995 498.185407 
L 605.419171 515.827636 
L 605.480252 556.186945 
L 605.533698 532.22179 
L 605.541334 530.728802 
L 605.571874 545.567569 
L 605.625321 556.991336 
L 605.678767 552.213853 
L 605.716943 542.356193 
L 605.770389 555.680646 
L 605.78566 553.071293 
L 605.8162 549.002758 
L 605.877282 556.787287 
L 605.892552 556.897182 
L 605.900187 556.199717 
L 605.984174 539.463438 
L 606.029986 551.026883 
L 606.106337 556.912944 
L 606.144513 555.101817 
L 606.175054 550.082907 
L 606.243771 555.585639 
L 606.251406 555.309829 
L 606.274312 554.507851 
L 606.281947 550.945629 
L 606.343028 556.911902 
L 606.381204 555.201195 
L 606.396474 554.84132 
L 606.449921 556.514355 
L 606.526273 556.951228 
L 606.488097 554.820607 
L 606.541543 556.350738 
L 606.671341 548.660592 
L 606.709517 550.011392 
L 606.824045 556.830902 
L 606.877491 554.784111 
L 606.969113 541.8225 
L 606.992019 536.796942 
L 607.0531 555.991491 
L 607.091276 557.016209 
L 607.129452 554.086945 
L 607.144723 553.953096 
L 607.152358 554.334591 
L 607.205804 556.410487 
L 607.266886 555.681787 
L 607.343238 553.699528 
L 607.427225 541.103214 
L 607.465401 548.162588 
L 607.534117 556.459829 
L 607.572293 547.80925 
L 607.595199 546.590202 
L 607.602834 547.311345 
L 607.648645 556.610533 
L 607.717362 556.607332 
L 607.961688 480.569692 
L 607.976958 487.736237 
L 608.030404 553.747418 
L 608.099121 524.405435 
L 608.160202 548.890724 
L 608.167838 555.740949 
L 608.206014 493.226624 
L 608.236554 437.682948 
L 608.305271 507.380186 
L 608.312906 507.380177 
L 608.351082 480.782873 
L 608.389258 511.007092 
L 608.442704 483.384119 
L 608.511421 556.52235 
L 608.572503 553.890648 
L 608.595408 555.024837 
L 608.603043 552.209508 
L 608.664125 523.421106 
L 608.732841 542.305704 
L 608.832099 555.325615 
L 608.86264 553.028638 
L 608.931356 525.611443 
L 608.977167 546.773601 
L 608.984803 551.73024 
L 609.053519 527.630719 
L 609.183317 483.150633 
L 609.198588 499.021556 
L 609.236764 542.236079 
L 609.297845 449.259311 
L 609.30548 449.250009 
L 609.313116 450.030001 
L 609.343656 553.716591 
L 609.458184 542.515975 
L 609.488725 557.010425 
L 609.542171 534.571721 
L 609.557442 534.968208 
L 609.572712 536.540752 
L 609.68724 551.567236 
L 609.626158 530.39043 
L 609.694875 551.547941 
L 609.801768 546.142111 
L 609.855214 550.111259 
L 609.885755 552.35398 
L 609.901025 551.058599 
L 610.084269 467.556659 
L 610.11481 453.72606 
L 610.160621 481.181158 
L 610.206432 554.348736 
L 610.267514 479.607266 
L 610.359136 449.486686 
L 610.397312 453.612734 
L 610.679814 556.191153 
L 610.71799 554.445838 
L 610.73326 554.520668 
L 610.794342 557.003913 
L 610.847788 555.607211 
L 610.92414 540.941686 
L 610.947045 524.367014 
L 611.008127 555.260387 
L 611.023397 554.064431 
L 611.038668 553.626275 
L 611.092114 512.214954 
L 611.168466 534.545986 
L 611.214277 554.764737 
L 611.305899 551.331488 
L 611.33644 547.656811 
L 611.397521 554.045562 
L 611.458603 555.133363 
L 611.489144 553.419378 
L 611.504414 551.576972 
L 611.580766 556.230329 
L 611.641847 557.0136 
L 611.657118 556.662285 
L 611.794551 552.813429 
L 611.817457 552.377044 
L 611.840362 552.893606 
L 611.886173 556.640927 
L 611.947255 552.347335 
L 612.000701 549.567864 
L 612.038877 553.950764 
L 612.054147 554.831255 
L 612.153405 557.034144 
L 612.099959 551.652827 
L 612.168675 556.98937 
L 612.428272 551.34884 
L 612.527529 550.428079 
L 612.58861 550.530094 
L 612.703138 551.220322 
L 612.832936 553.393448 
L 612.916923 553.130642 
L 613.153614 551.170251 
L 613.291048 550.204966 
L 613.336859 550.502832 
L 613.443751 551.440964 
L 613.504833 551.169115 
L 613.642266 549.299863 
L 613.871322 545.943899 
L 613.901862 545.889936 
L 613.940038 546.039429 
L 614.359974 548.597878 
L 614.382879 548.577086 
L 614.39815 548.496723 
L 614.520313 546.704596 
L 614.947883 541.354733 
L 615.115857 540.944346 
L 615.421265 539.618952 
L 615.63505 538.045622 
L 615.680861 538.468197 
L 615.909916 545.075142 
L 616.093161 547.062188 
L 616.284041 548.141496 
L 616.337487 547.906973 
L 616.574178 546.978448 
L 616.612354 546.972093 
L 616.627624 547.059865 
L 616.742152 549.278001 
L 616.933031 551.54065 
L 616.963572 551.495228 
L 617.26898 550.882408 
L 617.28425 550.898582 
L 617.429318 551.246661 
L 617.498035 551.066395 
L 617.673644 549.746343 
L 617.765267 549.098847 
L 617.826348 549.223049 
L 617.994322 550.237474 
L 618.09358 550.920303 
L 618.154661 550.803996 
L 618.53642 548.992158 
L 618.811287 547.989452 
L 618.979261 547.911303 
L 619.467913 545.190779 
L 619.826767 543.90095 
L 619.987106 543.950187 
L 620.071093 545.087442 
L 620.254337 546.402919 
L 620.323054 546.472534 
L 620.34596 546.389925 
L 620.895693 543.157719 
L 621.17056 542.191435 
L 621.208736 542.174299 
L 621.231641 542.272591 
L 621.80428 545.966851 
L 622.231851 546.7326 
L 622.376919 546.789475 
L 622.529623 546.667328 
L 622.712867 545.692544 
L 623.018275 543.120226 
L 623.071721 543.506197 
L 623.384764 546.274946 
L 623.400034 546.261998 
L 623.514562 545.856772 
L 623.575643 545.742995 
L 623.621454 545.860244 
L 623.842875 547.390114 
L 624.125377 548.809444 
L 624.26281 550.151916 
L 624.606393 552.767561 
L 624.67511 552.901908 
L 624.720921 552.792538 
L 624.888895 551.939466 
L 624.949977 552.177032 
L 625.347007 554.249144 
L 625.46917 554.391125 
L 625.48444 554.330901 
L 625.583697 552.711041 
L 625.766942 551.220556 
L 625.850929 551.084044 
L 625.88147 551.182883 
L 626.049444 552.684176 
L 626.163971 552.40158 
L 626.91222 548.538431 
L 627.087829 547.881323 
L 627.126005 547.912468 
L 627.377966 548.467297 
L 627.553575 549.083876 
L 627.629927 548.991342 
L 627.920064 548.31228 
L 627.95824 548.520975 
L 628.172025 550.722152 
L 628.217837 550.185397 
L 628.721759 541.231133 
L 628.790476 541.118638 
L 628.843922 541.214053 
L 629.027166 541.923643 
L 629.103518 541.638628 
L 629.19514 540.24231 
L 629.553994 531.44499 
L 629.981565 528.708459 
L 630.065552 528.57665 
L 630.111363 528.596889 
L 630.325148 528.853505 
L 630.508392 529.928012 
L 630.661096 530.856689 
L 630.714542 530.618079 
L 630.920692 529.196826 
L 630.981774 529.422925 
L 631.218465 531.650005 
L 631.302452 532.158333 
L 631.378804 532.120412 
L 631.577318 531.923994 
L 631.6384 531.248796 
L 631.821644 528.530562 
L 631.890361 528.81169 
L 632.020159 530.732044 
L 632.218674 533.739618 
L 632.24158 533.643634 
L 632.409554 531.226917 
L 632.569893 530.415653 
L 632.898206 530.027764 
L 633.150167 529.703307 
L 633.218883 529.847626 
L 633.417398 530.215495 
L 633.432669 530.198245 
L 633.516656 529.624141 
L 633.692265 528.362192 
L 633.745711 528.479587 
L 634.035848 530.148113 
L 635.440723 541.853005 
L 635.875928 544.918051 
L 635.906469 544.935213 
L 635.944645 544.835387 
L 636.326404 543.625818 
L 636.479108 543.625815 
L 636.486743 543.671337 
L 636.586001 545.466485 
L 636.769245 548.630382 
L 636.830327 548.462131 
L 637.181545 547.380611 
L 637.357154 547.341528 
L 637.372425 547.376813 
L 637.540399 548.223173 
L 637.624386 548.595292 
L 637.685467 548.516281 
L 637.799995 548.032936 
L 638.01378 546.895833 
L 638.090132 547.002993 
L 638.20466 548.081111 
L 638.296282 547.838511 
L 638.403175 546.834907 
L 638.792569 540.584115 
L 639.059801 539.455843 
L 639.578994 539.170641 
L 639.861495 539.665069 
L 639.922577 539.507007 
L 640.166903 538.865883 
L 640.189808 538.891017 
L 640.434134 539.238123 
L 640.45704 539.227361 
L 640.495216 539.127291 
L 640.777718 536.327321 
L 640.876975 536.990226 
L 641.212923 539.237441 
L 641.831373 541.732145 
L 641.892455 541.759352 
L 641.930631 541.684477 
L 642.068064 540.937618 
L 642.358201 538.705125 
L 642.373472 538.713485 
L 642.472729 538.974428 
L 642.617798 539.976497 
L 642.839218 542.93182 
L 642.946111 542.374319 
L 643.144626 539.732283 
L 643.373681 533.281081 
L 643.480574 530.558244 
L 643.54929 530.787085 
L 643.732535 532.677463 
L 643.808887 533.284114 
L 643.854698 532.999746 
L 644.1372 529.900822 
L 644.205916 530.30639 
L 644.297539 530.90285 
L 644.366255 530.825438 
L 644.488418 530.40649 
L 644.801461 525.633192 
L 644.900718 525.839504 
L 645.251937 527.718152 
L 645.862752 531.058163 
L 646.160524 534.351845 
L 646.488837 537.137268 
L 646.580459 536.613629 
L 646.756069 533.621987 
L 646.847691 532.093058 
L 646.901137 532.516785 
L 647.427965 538.945978 
L 647.64175 539.30375 
L 647.786819 539.249178 
L 648.046415 538.579605 
L 648.550337 537.323805 
L 648.832839 537.081616 
L 648.977908 536.931765 
L 649.008448 536.989572 
L 649.191693 537.884586 
L 649.390208 539.561378 
L 649.611628 541.358756 
L 649.70325 541.422075 
L 649.718521 541.364442 
L 649.825413 539.752413 
L 649.978117 539.013579 
L 650.107915 538.968902 
L 650.130821 538.992226 
L 650.252984 539.097724 
L 650.275889 539.001188 
L 650.466769 537.193216 
L 650.588932 537.26985 
L 650.642378 537.477937 
L 650.802717 540.287766 
L 650.932515 539.924742 
L 651.260828 538.456702 
L 651.360086 538.545495 
L 651.421167 538.468748 
L 651.589141 537.597569 
L 651.864008 536.23993 
L 651.993806 536.07935 
L 652.154145 535.015453 
L 652.329754 532.53926 
L 652.413742 533.006939 
L 652.910029 536.935708 
L 653.299423 537.437749 
L 653.322329 537.254402 
L 653.452127 533.194401 
L 653.612466 531.715692 
L 653.696453 531.542382 
L 653.719358 531.667206 
L 653.841521 534.190421 
L 654.047671 536.301676 
L 655.093692 542.944583 
L 655.124233 542.823129 
L 655.269301 540.748493 
L 655.498357 538.844453 
L 655.521262 538.89429 
L 655.628155 540.005372 
L 655.704507 540.57433 
L 655.750318 540.221265 
L 656.406944 531.096096 
L 656.803974 529.5308 
L 657.101746 528.84881 
L 657.47587 527.19525 
L 658.666959 516.437381 
L 658.720405 516.714453 
L 658.865474 519.446088 
L 658.980002 524.700202 
L 659.216692 533.159887 
L 659.415207 534.293357 
L 659.53737 534.42471 
L 659.560276 534.367875 
L 659.651898 533.447673 
L 659.827507 529.280236 
L 660.094739 522.16599 
L 660.209267 521.64435 
L 660.255078 521.747634 
L 660.407781 522.911844 
L 660.583391 525.508511 
L 660.652107 526.018173 
L 660.690283 525.462541 
L 661.110219 516.196023 
L 661.133124 516.223235 
L 661.224746 516.777122 
L 661.446167 519.807406 
L 662.018806 532.697072 
L 662.125698 532.366404 
L 662.286037 530.802815 
L 662.728878 518.860389 
L 662.843406 519.194455 
L 663.2328 521.890285 
L 663.660371 526.40336 
L 663.82071 526.301645 
L 664.286456 525.787501 
L 664.759838 524.841386 
L 665.553897 522.664777 
L 666.569377 520.035476 
L 667.019853 519.414831 
L 667.233638 519.390174 
L 667.409247 519.701105 
L 667.676479 520.713812 
L 668.073508 523.215032 
L 668.760675 529.256878 
L 669.501288 535.169218 
L 669.806696 536.204371 
L 669.959399 536.217952 
L 670.409875 535.876904 
L 670.967244 535.150765 
L 671.753668 533.715493 
L 672.799689 531.343789 
L 673.525031 528.774631 
L 674.380172 525.990362 
L 674.761931 525.392863 
L 675.30403 525.113592 
L 675.846128 525.084253 
L 676.479848 525.287356 
L 678.457362 526.09479 
L 678.869662 525.920554 
L 679.656086 525.237308 
L 680.938797 523.77012 
L 682.137521 522.523284 
L 682.69489 522.222167 
L 683.099555 522.271089 
L 683.595842 522.576676 
L 685.245042 523.785988 
L 685.573355 523.662264 
L 685.878762 523.273167 
L 686.306333 522.313095 
L 686.9935 520.130895 
L 687.917357 517.363021 
L 688.299117 516.822073 
L 688.856485 516.602821 
L 689.68872 516.510503 
L 690.940891 516.370706 
L 692.94131 515.653249 
L 693.628476 515.171053 
L 694.674497 514.036685 
L 695.354029 513.471091 
L 695.529638 513.55431 
L 695.766329 513.971868 
L 696.155723 515.192344 
L 697.041405 518.046421 
L 697.25519 518.15646 
L 697.65222 517.83564 
L 698.201953 517.093081 
L 698.996012 515.599123 
L 699.347231 514.625658 
L 699.805342 512.388215 
L 700.584131 508.725905 
L 700.843727 508.315425 
L 700.942985 508.447576 
L 701.118594 509.203011 
L 701.416366 511.661239 
L 702.3784 520.324883 
L 702.439481 520.325371 
L 702.470022 520.264652 
L 702.592185 519.595392 
L 702.828876 516.740908 
L 703.943613 501.152537 
L 704.264291 501.087339 
L 704.668956 501.263395 
L 705.356122 501.563277 
L 706.379237 501.358346 
L 706.768632 501.12871 
L 706.867889 499.860719 
L 707.196202 491.634563 
L 707.53215 485.087961 
L 707.570326 485.757823 
L 707.997897 496.642901 
L 708.058978 497.016298 
L 708.158236 501.424857 
L 708.288034 507.057125 
L 708.34148 506.288192 
L 708.631617 493.965393 
L 709.158445 480.441114 
L 709.272973 479.512474 
L 709.303514 479.738521 
L 709.402771 483.549142 
L 709.685273 492.710074 
L 709.929599 494.944135 
L 709.99068 495.053452 
L 710.028856 494.892435 
L 710.151019 492.913047 
L 710.471697 487.446498 
L 710.502238 487.476837 
L 710.601495 487.896718 
L 710.80001 489.950938 
L 711.586434 500.54787 
L 711.670421 500.470247 
L 711.876571 499.995632 
L 712.204884 498.58 
L 712.777523 494.989818 
L 713.128742 490.763155 
L 713.731922 484.009405 
L 714.258749 481.534334 
L 715.274229 477.193993 
L 715.633083 476.149502 
L 715.869774 476.060592 
L 716.839442 475.827614 
L 717.526609 474.920267 
L 717.564785 475.024233 
L 717.999991 476.577611 
L 718.106883 476.649501 
L 718.251952 477.312955 
L 718.389385 478.513997 
L 718.442832 478.172027 
L 718.610806 474.737197 
L 718.855132 470.140671 
L 719.068917 469.40519 
L 719.084187 469.431567 
L 719.198715 470.304492 
L 719.236891 470.419637 
L 719.297972 470.289443 
L 719.443041 469.267367 
L 720.061491 463.617838 
L 720.122572 463.66538 
L 720.275276 464.092825 
L 720.847915 466.241465 
L 720.893726 466.149678 
L 721.015889 465.283249 
L 721.64961 458.976647 
L 721.733597 459.007791 
L 721.955017 459.28554 
L 722.352047 460.232999 
L 722.512386 460.981769 
L 723.09266 464.594556 
L 723.161377 464.528084 
L 723.321715 464.024666 
L 724.291384 460.295434 
L 724.970916 458.933761 
L 725.169431 458.772264 
L 725.184701 458.811517 
L 725.291594 459.824742 
L 725.429027 461.448702 
L 725.497744 460.942798 
L 725.627542 457.812702 
L 725.826057 451.906311 
L 725.871868 452.108068 
L 726.078018 453.990469 
L 726.146734 453.538914 
L 726.490318 449.940498 
L 726.574305 449.97561 
L 726.742279 449.992517 
L 726.757549 449.962565 
L 726.902618 449.336414 
L 727.131673 447.398732 
L 727.711948 440.671473 
L 727.780664 440.726011 
L 727.948638 441.192681 
L 728.292222 442.084347 
L 728.299857 442.079024 
L 728.360938 441.782935 
L 728.521277 439.506465 
L 728.887766 434.767646 
L 728.964118 434.864421 
L 729.139727 435.627397 
L 729.445135 436.803839 
L 729.460405 436.791649 
L 729.536757 436.43379 
L 729.727637 434.083225 
L 730.147572 429.356914 
L 731.407378 421.932539 
L 731.628798 420.699939 
L 731.766231 418.074208 
L 732.018193 414.934565 
L 732.270154 414.337498 
L 732.92678 411.672625 
L 733.476513 408.773042 
L 734.675237 402.227931 
L 735.118078 400.992458 
L 735.667812 397.63581 
L 735.980854 396.985739 
L 736.232815 395.737549 
L 736.309167 395.821102 
L 736.454236 395.992598 
L 736.492412 395.936475 
L 736.629845 395.346564 
L 737.026875 393.326716 
L 737.378093 391.623784 
L 738.011814 388.67752 
L 738.622629 387.448677 
L 738.966212 386.309127 
L 739.393782 385.579463 
L 739.966421 383.887828 
L 741.592716 379.799282 
L 742.753264 376.506451 
L 743.249551 375.936996 
L 743.463337 375.526165 
L 744.64679 372.792731 
L 745.02855 372.01134 
L 745.387403 371.235747 
L 746.853359 369.247462 
L 747.10532 368.869904 
L 747.739041 367.757941 
L 748.013908 367.409638 
L 748.288774 367.075298 
L 749.13628 366.282828 
L 749.815811 365.368037 
L 750.144124 364.798191 
L 750.525884 364.65718 
L 750.670952 364.441021 
L 751.060347 363.77496 
L 751.571904 363.313176 
L 751.968934 362.901442 
L 752.465221 362.849229 
L 752.908062 362.565096 
L 753.03786 362.499756 
L 753.595229 361.47444 
L 753.946447 361.085597 
L 754.320571 360.56666 
L 754.732871 360.333772 
L 755.015373 360.299064 
L 755.229158 360.104146 
L 755.49639 359.622751 
L 755.962136 358.955623 
L 756.313355 358.680628 
L 756.756196 358.096508 
L 757.038698 357.938617 
L 757.435727 357.423758 
L 758.046542 356.528919 
L 758.435937 356.138234 
L 758.718439 355.778491 
L 759.077292 355.659444 
L 759.642296 355.106155 
L 759.856081 354.632647 
L 760.123313 354.423279 
L 760.940278 353.356712 
L 762.47495 351.771244 
L 764.032528 350.192495 
L 766.132204 347.657026 
L 767.735593 345.766747 
L 770.629329 342.374947 
L 772.553396 340.087361 
L 777.134508 334.218496 
L 783.097588 325.79999 
L 786.793018 319.853583 
L 789.75547 314.567734 
L 792.465961 309.232673 
L 794.87868 303.936788 
L 796.970721 298.7797 
L 800.292027 289.928825 
L 803.506441 280.680258 
L 805.980241 272.881762 
L 808.423501 264.408551 
L 810.630069 255.982374 
L 812.859544 246.598437 
L 815.081383 236.245135 
L 817.028355 226.130419 
L 819.227289 213.443466 
L 822.5715 192.631782 
L 825.679021 172.033326 
L 835.810913 101.902626 
L 837.880049 84.797672 
L 839.903373 66.783309 
L 839.903373 66.783309 
" clip-path="url(#pb705c1e36e)" style="fill: none; stroke: #01a049; stroke-width: 5; stroke-linecap: square"/>
   </g>
   <g id="patch_3">
    <path d="M 76.4 560.571 
L 76.4 62.234 
" style="fill: none; stroke: #000000; stroke-width: 0.8; stroke-linejoin: miter; stroke-linecap: square"/>
   </g>
   <g id="patch_4">
    <path d="M 844 560.571 
L 844 62.234 
" style="fill: none; stroke: #000000; stroke-width: 0.8; stroke-linejoin: miter; stroke-linecap: square"/>
   </g>
   <g id="patch_5">
    <path d="M 76.4 560.571 
L 844 560.571 
" style="fill: none; stroke: #000000; stroke-width: 0.8; stroke-linejoin: miter; stroke-linecap: square"/>
   </g>
   <g id="patch_6">
    <path d="M 76.4 62.234 
L 844 62.234 
" style="fill: none; stroke: #000000; stroke-width: 0.8; stroke-linejoin: miter; stroke-linecap: square"/>
   </g>
   <g id="text_18">
    <!-- Neutron reproduction factor -->
    <g transform="translate(242.957813 43.775575) scale(0.3 -0.3)">
     <use xlink:href="#DejaVuSerif-4e"/>
     <use xlink:href="#DejaVuSerif-65" transform="translate(87.5 0)"/>
     <use xlink:href="#DejaVuSerif-75" transform="translate(146.679688 0)"/>
     <use xlink:href="#DejaVuSerif-74" transform="translate(211.083984 0)"/>
     <use xlink:href="#DejaVuSerif-72" transform="translate(251.269531 0)"/>
     <use xlink:href="#DejaVuSerif-6f" transform="translate(299.072266 0)"/>
     <use xlink:href="#DejaVuSerif-6e" transform="translate(359.277344 0)"/>
     <use xlink:href="#DejaVuSerif-20" transform="translate(423.681641 0)"/>
     <use xlink:href="#DejaVuSerif-72" transform="translate(455.46875 0)"/>
     <use xlink:href="#DejaVuSerif-65" transform="translate(503.271484 0)"/>
     <use xlink:href="#DejaVuSerif-70" transform="translate(562.451172 0)"/>
     <use xlink:href="#DejaVuSerif-72" transform="translate(626.464844 0)"/>
     <use xlink:href="#DejaVuSerif-6f" transform="translate(674.267578 0)"/>
     <use xlink:href="#DejaVuSerif-64" transform="translate(734.472656 0)"/>
     <use xlink:href="#DejaVuSerif-75" transform="translate(798.486328 0)"/>
     <use xlink:href="#DejaVuSerif-63" transform="translate(862.890625 0)"/>
     <use xlink:href="#DejaVuSerif-74" transform="translate(918.896484 0)"/>
     <use xlink:href="#DejaVuSerif-69" transform="translate(959.082031 0)"/>
     <use xlink:href="#DejaVuSerif-6f" transform="translate(991.064453 0)"/>
     <use xlink:href="#DejaVuSerif-6e" transform="translate(1051.269531 0)"/>
     <use xlink:href="#DejaVuSerif-20" transform="translate(1115.673828 0)"/>
     <use xlink:href="#DejaVuSerif-66" transform="translate(1147.460938 0)"/>
     <use xlink:href="#DejaVuSerif-61" transform="translate(1184.472656 0)"/>
     <use xlink:href="#DejaVuSerif-63" transform="translate(1244.091797 0)"/>
     <use xlink:href="#DejaVuSerif-74" transform="translate(1300.097656 0)"/>
     <use xlink:href="#DejaVuSerif-6f" transform="translate(1340.283203 0)"/>
     <use xlink:href="#DejaVuSerif-72" transform="translate(1400.488281 0)"/>
    </g>
   </g>
   <g id="legend_1">
    <g id="patch_7">
     <path d="M 712.2 107.59025 
L 830 107.59025 
Q 834 107.59025 834 103.59025 
L 834 76.234 
Q 834 72.234 830 72.234 
L 712.2 72.234 
Q 708.2 72.234 708.2 76.234 
L 708.2 103.59025 
Q 708.2 107.59025 712.2 107.59025 
z
" style="fill: #ffffff; opacity: 0.95; stroke: #cccccc; stroke-linejoin: miter"/>
    </g>
    <g id="line2d_32">
     <path d="M 716.2 88.430875 
L 736.2 88.430875 
L 756.2 88.430875 
" style="fill: none; stroke: #01a049; stroke-width: 5; stroke-linecap: square"/>
    </g>
    <g id="text_19">
     <!-- $\mathrm{^{240}Pu}$ -->
     <g transform="translate(772.2 95.430875) scale(0.2 -0.2)">
      <defs>
       <path id="DejaVuSerif-50" d="M 1581 2375 
L 2406 2375 
Q 2872 2375 3115 2626 
Q 3359 2878 3359 3353 
Q 3359 3831 3115 4081 
Q 2872 4331 2406 4331 
L 1581 4331 
L 1581 2375 
z
M 353 0 
L 353 331 
L 947 331 
L 947 4331 
L 353 4331 
L 353 4666 
L 2559 4666 
Q 3259 4666 3668 4311 
Q 4078 3956 4078 3353 
Q 4078 2753 3668 2397 
Q 3259 2041 2559 2041 
L 1581 2041 
L 1581 331 
L 2303 331 
L 2303 0 
L 353 0 
z
" transform="scale(0.015625)"/>
      </defs>
      <use xlink:href="#DejaVuSerif-32" transform="translate(0.908359 37.046875) scale(0.7)"/>
      <use xlink:href="#DejaVuSerif-34" transform="translate(45.444492 37.046875) scale(0.7)"/>
      <use xlink:href="#DejaVuSerif-30" transform="translate(89.980625 37.046875) scale(0.7)"/>
      <use xlink:href="#DejaVuSerif-50" transform="translate(137.11207 0.7125)"/>
      <use xlink:href="#DejaVuSerif-75" transform="translate(204.397227 0.7125)"/>
     </g>
    </g>
   </g>
  </g>
 </g>
 <defs>
  <clipPath id="pb705c1e36e">
   <rect x="76.4" y="62.234" width="767.6" height="498.337"/>
  </clipPath>
 </defs>
</svg>
