<?xml version="1.0" encoding="utf-8" standalone="no"?>
<!DOCTYPE svg PUBLIC "-//W3C//DTD SVG 1.1//EN"
  "http://www.w3.org/Graphics/SVG/1.1/DTD/svg11.dtd">
<svg xmlns:xlink="http://www.w3.org/1999/xlink" width="864pt" height="648pt" viewBox="0 0 864 648" xmlns="http://www.w3.org/2000/svg" version="1.1">
 <metadata>
  <rdf:RDF xmlns:dc="http://purl.org/dc/elements/1.1/" xmlns:cc="http://creativecommons.org/ns#" xmlns:rdf="http://www.w3.org/1999/02/22-rdf-syntax-ns#">
   <cc:Work>
    <dc:type rdf:resource="http://purl.org/dc/dcmitype/StillImage"/>
    <dc:date>2025-10-21T14:54:24.404508</dc:date>
    <dc:format>image/svg+xml</dc:format>
    <dc:creator>
     <cc:Agent>
      <dc:title>Matplotlib v3.10.7, https://matplotlib.org/</dc:title>
     </cc:Agent>
    </dc:creator>
   </cc:Work>
  </rdf:RDF>
 </metadata>
 <defs>
  <style type="text/css">*{stroke-linejoin: round; stroke-linecap: butt}</style>
 </defs>
 <g id="figure_1">
  <g id="patch_1">
   <path d="M 0 648 
L 864 648 
L 864 0 
L 0 0 
z
" style="fill: #ffffff; stroke: #000000; stroke-width: 3; stroke-linejoin: miter"/>
  </g>
  <g id="axes_1">
   <g id="patch_2">
    <path d="M 71.99 566.88 
L 844 566.88 
L 844 57.914 
L 71.99 57.914 
L 71.99 566.88 
z
" style="fill: none"/>
   </g>
   <g id="matplotlib.axis_1">
    <g id="xtick_1">
     <g id="line2d_1">
      <path d="M 71.99 566.88 
L 71.99 57.914 
" clip-path="url(#pf39077c0d8)" style="fill: none; stroke-dasharray: 3.7,1.6; stroke-dashoffset: 0; stroke: #343837; stroke-opacity: 0.8"/>
     </g>
     <g id="line2d_2">
      <defs>
       <path id="mf488e90849" d="M 0 0 
L 0 3.5 
" style="stroke: #000000; stroke-width: 0.8"/>
      </defs>
      <g>
       <use xlink:href="#mf488e90849" x="71.99" y="566.88" style="stroke: #000000; stroke-width: 0.8"/>
      </g>
     </g>
     <g id="text_1">
      <!-- $\mathdefault{10^{-11}}$ -->
      <g transform="translate(47.46 588.338125) scale(0.22 -0.22)">
       <defs>
        <path id="Aptos-31" d="M 1681 0 
L 1681 3425 
Q 1597 3309 1442 3201 
Q 1288 3094 1075 3009 
Q 863 2925 600 2888 
L 600 3381 
Q 859 3425 1082 3540 
Q 1306 3656 1476 3806 
Q 1647 3956 1744 4094 
L 2228 4094 
L 2228 0 
L 1681 0 
z
" transform="scale(0.015625)"/>
        <path id="Aptos-30" d="M 1709 -56 
Q 1316 -56 1045 105 
Q 775 266 611 552 
Q 447 838 373 1216 
Q 300 1594 300 2031 
Q 300 2475 373 2856 
Q 447 3238 611 3525 
Q 775 3813 1045 3973 
Q 1316 4134 1709 4134 
Q 2103 4134 2373 3975 
Q 2644 3816 2806 3527 
Q 2969 3238 3042 2858 
Q 3116 2478 3116 2038 
Q 3116 1597 3042 1217 
Q 2969 838 2806 552 
Q 2644 266 2373 105 
Q 2103 -56 1709 -56 
z
M 1709 400 
Q 1969 400 2134 540 
Q 2300 681 2392 917 
Q 2484 1153 2520 1445 
Q 2556 1738 2556 2038 
Q 2556 2341 2520 2633 
Q 2484 2925 2392 3161 
Q 2300 3397 2134 3537 
Q 1969 3678 1709 3678 
Q 1450 3678 1283 3537 
Q 1116 3397 1022 3161 
Q 928 2925 892 2633 
Q 856 2341 856 2038 
Q 856 1738 892 1445 
Q 928 1153 1022 917 
Q 1116 681 1283 540 
Q 1450 400 1709 400 
z
" transform="scale(0.015625)"/>
        <path id="Aptos-2212" d="M 353 1866 
L 353 2319 
L 3059 2319 
L 3059 1866 
L 353 1866 
z
" transform="scale(0.015625)"/>
       </defs>
       <use xlink:href="#Aptos-31" transform="translate(0 0.928125)"/>
       <use xlink:href="#Aptos-30" transform="translate(53.417969 0.928125)"/>
       <use xlink:href="#Aptos-2212" transform="translate(107.668281 34.221875) scale(0.7)"/>
       <use xlink:href="#Aptos-31" transform="translate(145.060859 34.221875) scale(0.7)"/>
       <use xlink:href="#Aptos-31" transform="translate(182.453438 34.221875) scale(0.7)"/>
      </g>
     </g>
    </g>
    <g id="xtick_2">
     <g id="line2d_3">
      <path d="M 194.511239 566.88 
L 194.511239 57.914 
" clip-path="url(#pf39077c0d8)" style="fill: none; stroke-dasharray: 3.7,1.6; stroke-dashoffset: 0; stroke: #343837; stroke-opacity: 0.8"/>
     </g>
     <g id="line2d_4">
      <g>
       <use xlink:href="#mf488e90849" x="194.511239" y="566.88" style="stroke: #000000; stroke-width: 0.8"/>
      </g>
     </g>
     <g id="text_2">
      <!-- $\mathdefault{10^{-9}}$ -->
      <g transform="translate(174.161239 588.338125) scale(0.22 -0.22)">
       <defs>
        <path id="Aptos-39" d="M 1594 -56 
Q 1244 -56 970 64 
Q 697 184 523 415 
Q 350 647 303 978 
L 831 978 
Q 881 713 1075 552 
Q 1269 391 1594 391 
Q 2066 391 2337 778 
Q 2609 1166 2609 2019 
L 2609 2197 
Q 2609 2753 2481 3079 
Q 2353 3406 2142 3547 
Q 1931 3688 1681 3688 
Q 1250 3688 1042 3433 
Q 834 3178 834 2800 
Q 834 2422 1034 2203 
Q 1234 1984 1594 1984 
Q 1878 1984 2087 2071 
Q 2297 2159 2453 2300 
Q 2609 2441 2725 2594 
L 2778 2209 
Q 2653 2038 2476 1884 
Q 2300 1731 2064 1634 
Q 1828 1538 1528 1538 
Q 1166 1538 886 1683 
Q 606 1828 448 2108 
Q 291 2388 291 2784 
Q 291 3175 458 3479 
Q 625 3784 936 3959 
Q 1247 4134 1675 4134 
Q 2100 4134 2433 3926 
Q 2766 3719 2958 3262 
Q 3150 2806 3150 2066 
Q 3150 1338 2956 869 
Q 2763 400 2413 172 
Q 2063 -56 1594 -56 
z
" transform="scale(0.015625)"/>
       </defs>
       <use xlink:href="#Aptos-31" transform="translate(0 0.490625)"/>
       <use xlink:href="#Aptos-30" transform="translate(53.417969 0.490625)"/>
       <use xlink:href="#Aptos-2212" transform="translate(107.668281 33.784375) scale(0.7)"/>
       <use xlink:href="#Aptos-39" transform="translate(145.060859 33.784375) scale(0.7)"/>
      </g>
     </g>
    </g>
    <g id="xtick_3">
     <g id="line2d_5">
      <path d="M 317.032477 566.88 
L 317.032477 57.914 
" clip-path="url(#pf39077c0d8)" style="fill: none; stroke-dasharray: 3.7,1.6; stroke-dashoffset: 0; stroke: #343837; stroke-opacity: 0.8"/>
     </g>
     <g id="line2d_6">
      <g>
       <use xlink:href="#mf488e90849" x="317.032477" y="566.88" style="stroke: #000000; stroke-width: 0.8"/>
      </g>
     </g>
     <g id="text_3">
      <!-- $\mathdefault{10^{-7}}$ -->
      <g transform="translate(296.682477 588.338125) scale(0.22 -0.22)">
       <defs>
        <path id="Aptos-37" d="M 806 0 
L 2584 3600 
L 297 3600 
L 297 4078 
L 3116 4078 
L 3116 3622 
L 1375 0 
L 806 0 
z
" transform="scale(0.015625)"/>
       </defs>
       <use xlink:href="#Aptos-31" transform="translate(0 0.103125)"/>
       <use xlink:href="#Aptos-30" transform="translate(53.417969 0.103125)"/>
       <use xlink:href="#Aptos-2212" transform="translate(107.668281 33.396875) scale(0.7)"/>
       <use xlink:href="#Aptos-37" transform="translate(145.060859 33.396875) scale(0.7)"/>
      </g>
     </g>
    </g>
    <g id="xtick_4">
     <g id="line2d_7">
      <path d="M 439.553716 566.88 
L 439.553716 57.914 
" clip-path="url(#pf39077c0d8)" style="fill: none; stroke-dasharray: 3.7,1.6; stroke-dashoffset: 0; stroke: #343837; stroke-opacity: 0.8"/>
     </g>
     <g id="line2d_8">
      <g>
       <use xlink:href="#mf488e90849" x="439.553716" y="566.88" style="stroke: #000000; stroke-width: 0.8"/>
      </g>
     </g>
     <g id="text_4">
      <!-- $\mathdefault{10^{-5}}$ -->
      <g transform="translate(419.203716 588.338125) scale(0.22 -0.22)">
       <defs>
        <path id="Aptos-35" d="M 1709 -56 
Q 1313 -56 992 83 
Q 672 222 484 483 
Q 297 744 297 1113 
L 831 1113 
Q 831 778 1076 584 
Q 1322 391 1709 391 
Q 2119 391 2347 625 
Q 2575 859 2575 1319 
Q 2575 1772 2345 1989 
Q 2116 2206 1725 2206 
Q 1434 2206 1245 2123 
Q 1056 2041 931 1894 
L 459 1894 
L 638 4078 
L 2838 4078 
L 2838 3613 
L 1056 3613 
L 947 2322 
Q 1063 2453 1267 2550 
Q 1472 2647 1797 2647 
Q 2159 2647 2459 2506 
Q 2759 2366 2939 2072 
Q 3119 1778 3119 1319 
Q 3119 872 2937 565 
Q 2756 259 2439 101 
Q 2122 -56 1709 -56 
z
" transform="scale(0.015625)"/>
       </defs>
       <use xlink:href="#Aptos-31" transform="translate(0 0.103125)"/>
       <use xlink:href="#Aptos-30" transform="translate(53.417969 0.103125)"/>
       <use xlink:href="#Aptos-2212" transform="translate(107.668281 33.396875) scale(0.7)"/>
       <use xlink:href="#Aptos-35" transform="translate(145.060859 33.396875) scale(0.7)"/>
      </g>
     </g>
    </g>
    <g id="xtick_5">
     <g id="line2d_9">
      <path d="M 562.074955 566.88 
L 562.074955 57.914 
" clip-path="url(#pf39077c0d8)" style="fill: none; stroke-dasharray: 3.7,1.6; stroke-dashoffset: 0; stroke: #343837; stroke-opacity: 0.8"/>
     </g>
     <g id="line2d_10">
      <g>
       <use xlink:href="#mf488e90849" x="562.074955" y="566.88" style="stroke: #000000; stroke-width: 0.8"/>
      </g>
     </g>
     <g id="text_5">
      <!-- $\mathdefault{10^{-3}}$ -->
      <g transform="translate(541.724955 588.338125) scale(0.22 -0.22)">
       <defs>
        <path id="Aptos-33" d="M 1738 -56 
Q 1088 -56 697 275 
Q 306 606 306 1225 
L 828 1225 
Q 828 844 1067 617 
Q 1306 391 1731 391 
Q 2125 391 2351 581 
Q 2578 772 2578 1172 
Q 2578 1556 2328 1737 
Q 2078 1919 1644 1919 
L 1403 1919 
L 1403 2363 
L 1656 2363 
Q 2047 2363 2253 2556 
Q 2459 2750 2459 3072 
Q 2459 3378 2256 3529 
Q 2053 3681 1722 3681 
Q 1347 3681 1140 3481 
Q 934 3281 934 2956 
L 413 2956 
Q 413 3319 578 3583 
Q 744 3847 1036 3990 
Q 1328 4134 1716 4134 
Q 2066 4134 2353 4017 
Q 2641 3900 2811 3670 
Q 2981 3441 2981 3097 
Q 2981 2731 2778 2495 
Q 2575 2259 2244 2166 
Q 2622 2097 2870 1840 
Q 3119 1584 3119 1150 
Q 3119 763 2945 494 
Q 2772 225 2461 84 
Q 2150 -56 1738 -56 
z
" transform="scale(0.015625)"/>
       </defs>
       <use xlink:href="#Aptos-31" transform="translate(0 0.490625)"/>
       <use xlink:href="#Aptos-30" transform="translate(53.417969 0.490625)"/>
       <use xlink:href="#Aptos-2212" transform="translate(107.668281 33.784375) scale(0.7)"/>
       <use xlink:href="#Aptos-33" transform="translate(145.060859 33.784375) scale(0.7)"/>
      </g>
     </g>
    </g>
    <g id="xtick_6">
     <g id="line2d_11">
      <path d="M 684.596193 566.88 
L 684.596193 57.914 
" clip-path="url(#pf39077c0d8)" style="fill: none; stroke-dasharray: 3.7,1.6; stroke-dashoffset: 0; stroke: #343837; stroke-opacity: 0.8"/>
     </g>
     <g id="line2d_12">
      <g>
       <use xlink:href="#mf488e90849" x="684.596193" y="566.88" style="stroke: #000000; stroke-width: 0.8"/>
      </g>
     </g>
     <g id="text_6">
      <!-- $\mathdefault{10^{-1}}$ -->
      <g transform="translate(664.246193 588.338125) scale(0.22 -0.22)">
       <use xlink:href="#Aptos-31" transform="translate(0 0.928125)"/>
       <use xlink:href="#Aptos-30" transform="translate(53.417969 0.928125)"/>
       <use xlink:href="#Aptos-2212" transform="translate(107.668281 34.221875) scale(0.7)"/>
       <use xlink:href="#Aptos-31" transform="translate(145.060859 34.221875) scale(0.7)"/>
      </g>
     </g>
    </g>
    <g id="xtick_7">
     <g id="line2d_13">
      <path d="M 807.117432 566.88 
L 807.117432 57.914 
" clip-path="url(#pf39077c0d8)" style="fill: none; stroke-dasharray: 3.7,1.6; stroke-dashoffset: 0; stroke: #343837; stroke-opacity: 0.8"/>
     </g>
     <g id="line2d_14">
      <g>
       <use xlink:href="#mf488e90849" x="807.117432" y="566.88" style="stroke: #000000; stroke-width: 0.8"/>
      </g>
     </g>
     <g id="text_7">
      <!-- $\mathdefault{10^{1}}$ -->
      <g transform="translate(790.837432 588.338125) scale(0.22 -0.22)">
       <use xlink:href="#Aptos-31" transform="translate(0 0.928125)"/>
       <use xlink:href="#Aptos-30" transform="translate(53.417969 0.928125)"/>
       <use xlink:href="#Aptos-31" transform="translate(107.668281 34.221875) scale(0.7)"/>
      </g>
     </g>
    </g>
    <g id="text_8">
     <!-- Energy of incident neutron (MeV) -->
     <g transform="translate(276.356562 621.373125) scale(0.26 -0.26)">
      <defs>
       <path id="Aptos-45" d="M 550 0 
L 550 4206 
L 3234 4206 
L 3234 3738 
L 1113 3738 
L 1113 2397 
L 3066 2397 
L 3066 1934 
L 1113 1934 
L 1113 469 
L 3234 469 
L 3234 0 
L 550 0 
z
" transform="scale(0.015625)"/>
       <path id="Aptos-6e" d="M 503 0 
L 503 3044 
L 1003 3044 
L 1022 2575 
Q 1163 2759 1425 2923 
Q 1688 3088 2097 3088 
Q 2597 3088 2825 2792 
Q 3053 2497 3053 1963 
L 3053 0 
L 2531 0 
L 2531 1888 
Q 2531 2109 2484 2281 
Q 2438 2453 2317 2551 
Q 2197 2650 1969 2650 
Q 1628 2650 1397 2495 
Q 1166 2341 1025 2156 
L 1025 0 
L 503 0 
z
" transform="scale(0.015625)"/>
       <path id="Aptos-65" d="M 1769 -56 
Q 1272 -56 955 151 
Q 638 359 484 717 
Q 331 1075 331 1522 
Q 331 1988 479 2342 
Q 628 2697 933 2897 
Q 1238 3097 1706 3097 
Q 2328 3097 2681 2722 
Q 3034 2347 3034 1644 
Q 3034 1597 3031 1533 
Q 3028 1469 3022 1441 
L 853 1441 
Q 856 1144 948 895 
Q 1041 647 1241 497 
Q 1441 347 1769 347 
Q 2119 347 2316 511 
Q 2513 675 2522 984 
L 3038 984 
Q 3028 663 2872 430 
Q 2716 197 2434 70 
Q 2153 -56 1769 -56 
z
M 856 1822 
L 2519 1822 
Q 2509 2247 2296 2472 
Q 2084 2697 1706 2697 
Q 1325 2697 1108 2473 
Q 891 2250 856 1822 
z
" transform="scale(0.015625)"/>
       <path id="Aptos-72" d="M 503 0 
L 503 3044 
L 994 3044 
L 1013 2525 
Q 1141 2763 1369 2922 
Q 1597 3081 1963 3081 
L 2025 3081 
L 2025 2603 
L 1953 2603 
Q 1725 2603 1553 2543 
Q 1381 2484 1253 2379 
Q 1125 2275 1025 2138 
L 1025 0 
L 503 0 
z
" transform="scale(0.015625)"/>
       <path id="Aptos-67" d="M 1563 -1178 
Q 1069 -1178 773 -1065 
Q 478 -953 347 -765 
Q 216 -578 216 -359 
Q 216 -94 442 112 
Q 669 319 1141 403 
L 1241 575 
L 1625 575 
Q 2375 575 2697 376 
Q 3019 178 3019 -238 
Q 3019 -650 2651 -914 
Q 2284 -1178 1563 -1178 
z
M 1550 -800 
Q 2081 -800 2298 -650 
Q 2516 -500 2516 -278 
Q 2516 -147 2442 -51 
Q 2369 44 2170 97 
Q 1972 150 1606 150 
L 1144 150 
Q 931 97 815 -31 
Q 700 -159 700 -328 
Q 700 -516 897 -658 
Q 1094 -800 1550 -800 
z
M 1134 178 
Q 838 209 667 301 
Q 497 394 425 508 
Q 353 622 353 728 
Q 353 881 476 1017 
Q 600 1153 881 1241 
L 1141 1078 
Q 975 1031 878 957 
Q 781 884 781 794 
Q 781 731 839 682 
Q 897 634 1036 604 
Q 1175 575 1422 575 
L 1134 178 
z
M 1525 984 
Q 1150 984 889 1129 
Q 628 1275 493 1511 
Q 359 1747 359 2022 
Q 359 2313 495 2550 
Q 631 2788 895 2928 
Q 1159 3069 1541 3069 
Q 1931 3069 2190 2928 
Q 2450 2788 2578 2550 
Q 2706 2313 2706 2022 
Q 2706 1741 2576 1505 
Q 2447 1269 2184 1126 
Q 1922 984 1525 984 
z
M 1522 1341 
Q 1822 1341 2017 1512 
Q 2213 1684 2213 2022 
Q 2213 2375 2028 2545 
Q 1844 2716 1541 2716 
Q 1244 2716 1048 2541 
Q 853 2366 853 2025 
Q 853 1681 1054 1511 
Q 1256 1341 1522 1341 
z
M 2319 2734 
L 2106 2931 
Q 2241 3225 2458 3331 
Q 2675 3438 3019 3447 
L 3019 3006 
Q 2800 3006 2617 2961 
Q 2434 2916 2319 2734 
z
" transform="scale(0.015625)"/>
       <path id="Aptos-79" d="M 328 -1119 
L 328 -688 
L 584 -688 
Q 763 -688 886 -592 
Q 1009 -497 1097 -275 
L 1216 0 
L 0 3044 
L 553 3044 
L 1494 553 
L 2363 3044 
L 2894 3044 
L 1750 0 
L 1606 -369 
Q 1500 -641 1379 -806 
Q 1259 -972 1084 -1045 
Q 909 -1119 638 -1119 
L 328 -1119 
z
" transform="scale(0.015625)"/>
       <path id="Aptos-20" transform="scale(0.015625)"/>
       <path id="Aptos-6f" d="M 1750 -50 
Q 1303 -50 984 139 
Q 666 328 498 679 
Q 331 1031 331 1516 
Q 331 2013 498 2367 
Q 666 2722 984 2912 
Q 1303 3103 1750 3103 
Q 2206 3103 2529 2912 
Q 2853 2722 3026 2367 
Q 3200 2013 3200 1516 
Q 3200 1031 3026 679 
Q 2853 328 2529 139 
Q 2206 -50 1750 -50 
z
M 1750 366 
Q 2088 366 2288 514 
Q 2488 663 2575 923 
Q 2663 1184 2663 1516 
Q 2663 1853 2575 2118 
Q 2488 2384 2288 2536 
Q 2088 2688 1750 2688 
Q 1422 2688 1230 2536 
Q 1038 2384 953 2118 
Q 869 1853 869 1516 
Q 869 1184 953 923 
Q 1038 663 1230 514 
Q 1422 366 1750 366 
z
" transform="scale(0.015625)"/>
       <path id="Aptos-66" d="M 609 0 
L 609 2622 
L 100 2622 
L 100 3044 
L 609 3044 
L 609 3219 
Q 609 3450 648 3634 
Q 688 3819 786 3945 
Q 884 4072 1061 4139 
Q 1238 4206 1519 4206 
L 1834 4206 
L 1834 3797 
L 1553 3797 
Q 1275 3797 1201 3647 
Q 1128 3497 1128 3213 
L 1128 3044 
L 1838 3044 
L 1838 2622 
L 1128 2622 
L 1128 0 
L 609 0 
z
" transform="scale(0.015625)"/>
       <path id="Aptos-69" d="M 503 0 
L 503 3044 
L 1025 3044 
L 1025 0 
L 503 0 
z
M 763 3616 
Q 616 3616 527 3702 
Q 438 3788 438 3919 
Q 438 4050 527 4136 
Q 616 4222 763 4222 
Q 909 4222 1000 4136 
Q 1091 4050 1091 3919 
Q 1091 3788 1000 3702 
Q 909 3616 763 3616 
z
" transform="scale(0.015625)"/>
       <path id="Aptos-63" d="M 1741 -53 
Q 1328 -53 1009 120 
Q 691 294 511 642 
Q 331 991 331 1516 
Q 331 2041 507 2392 
Q 684 2744 1001 2920 
Q 1319 3097 1741 3097 
Q 2094 3097 2376 2981 
Q 2659 2866 2828 2633 
Q 2997 2400 3006 2044 
L 2491 2044 
Q 2472 2338 2278 2506 
Q 2084 2675 1750 2675 
Q 1306 2675 1087 2370 
Q 869 2066 869 1516 
Q 869 1150 966 895 
Q 1063 641 1259 505 
Q 1456 369 1750 369 
Q 2084 369 2293 542 
Q 2503 716 2513 1050 
L 3028 1050 
Q 3019 681 2848 436 
Q 2678 191 2389 69 
Q 2100 -53 1741 -53 
z
" transform="scale(0.015625)"/>
       <path id="Aptos-64" d="M 1544 -56 
Q 1172 -56 900 122 
Q 628 300 479 654 
Q 331 1009 331 1531 
Q 331 2050 489 2397 
Q 647 2744 934 2920 
Q 1222 3097 1613 3097 
Q 1938 3097 2178 2955 
Q 2419 2813 2566 2569 
L 2566 4206 
L 3088 4206 
L 3088 0 
L 2594 0 
L 2566 444 
Q 2403 222 2147 83 
Q 1891 -56 1544 -56 
z
M 1650 372 
Q 1984 372 2206 530 
Q 2428 688 2566 909 
L 2566 2081 
Q 2438 2338 2230 2505 
Q 2022 2672 1706 2672 
Q 1291 2672 1080 2375 
Q 869 2078 869 1531 
Q 869 966 1067 669 
Q 1266 372 1650 372 
z
" transform="scale(0.015625)"/>
       <path id="Aptos-74" d="M 1519 0 
Q 1150 0 953 117 
Q 756 234 682 454 
Q 609 675 609 984 
L 609 2622 
L 100 2622 
L 100 3044 
L 609 3044 
L 609 3741 
L 1128 3741 
L 1128 3044 
L 1878 3044 
L 1878 2622 
L 1128 2622 
L 1128 1009 
Q 1128 725 1201 573 
Q 1275 422 1553 422 
L 1884 422 
L 1884 0 
L 1519 0 
z
" transform="scale(0.015625)"/>
       <path id="Aptos-75" d="M 1469 -47 
Q 941 -47 706 247 
Q 472 541 472 1056 
L 472 3044 
L 997 3044 
L 997 1128 
Q 997 922 1044 759 
Q 1091 597 1222 506 
Q 1353 416 1600 416 
Q 1944 416 2175 558 
Q 2406 700 2547 888 
L 2547 3044 
L 3072 3044 
L 3072 0 
L 2569 0 
L 2553 469 
Q 2406 288 2139 120 
Q 1872 -47 1469 -47 
z
" transform="scale(0.015625)"/>
       <path id="Aptos-28" d="M 1216 -1116 
Q 963 -678 783 -267 
Q 603 144 508 581 
Q 413 1019 413 1528 
Q 413 2028 506 2486 
Q 600 2944 779 3378 
Q 959 3813 1216 4231 
L 1644 4231 
Q 1275 3600 1097 2886 
Q 919 2172 919 1428 
Q 919 766 1120 103 
Q 1322 -559 1644 -1116 
L 1216 -1116 
z
" transform="scale(0.015625)"/>
       <path id="Aptos-4d" d="M 550 0 
L 550 4206 
L 1166 4206 
L 2663 1728 
L 2434 1728 
L 3903 4206 
L 4503 4206 
L 4503 0 
L 3950 0 
L 3950 3738 
L 4144 3738 
L 2716 1322 
L 2347 1322 
L 897 3738 
L 1091 3738 
L 1091 0 
L 550 0 
z
" transform="scale(0.015625)"/>
       <path id="Aptos-56" d="M 1538 0 
L 25 4206 
L 622 4206 
L 1872 594 
L 3128 4206 
L 3722 4206 
L 2194 0 
L 1538 0 
z
" transform="scale(0.015625)"/>
       <path id="Aptos-29" d="M 231 -1116 
Q 603 -481 781 233 
Q 959 947 959 1694 
Q 959 2356 756 3015 
Q 553 3675 231 4231 
L 656 4231 
Q 913 3800 1094 3389 
Q 1275 2978 1370 2540 
Q 1466 2103 1466 1594 
Q 1466 1094 1370 634 
Q 1275 175 1095 -259 
Q 916 -694 656 -1116 
L 231 -1116 
z
" transform="scale(0.015625)"/>
      </defs>
      <use xlink:href="#Aptos-45"/>
      <use xlink:href="#Aptos-6e" transform="translate(55.615234 0)"/>
      <use xlink:href="#Aptos-65" transform="translate(110.742188 0)"/>
      <use xlink:href="#Aptos-72" transform="translate(163.427734 0)"/>
      <use xlink:href="#Aptos-67" transform="translate(196.875 0)"/>
      <use xlink:href="#Aptos-79" transform="translate(245.3125 0)"/>
      <use xlink:href="#Aptos-20" transform="translate(290.527344 0)"/>
      <use xlink:href="#Aptos-6f" transform="translate(310.839844 0)"/>
      <use xlink:href="#Aptos-66" transform="translate(366.015625 0)"/>
      <use xlink:href="#Aptos-20" transform="translate(396.142578 0)"/>
      <use xlink:href="#Aptos-69" transform="translate(416.455078 0)"/>
      <use xlink:href="#Aptos-6e" transform="translate(440.332031 0)"/>
      <use xlink:href="#Aptos-63" transform="translate(495.458984 0)"/>
      <use xlink:href="#Aptos-69" transform="translate(547.949219 0)"/>
      <use xlink:href="#Aptos-64" transform="translate(571.826172 0)"/>
      <use xlink:href="#Aptos-65" transform="translate(627.880859 0)"/>
      <use xlink:href="#Aptos-6e" transform="translate(680.566406 0)"/>
      <use xlink:href="#Aptos-74" transform="translate(735.693359 0)"/>
      <use xlink:href="#Aptos-20" transform="translate(768.017578 0)"/>
      <use xlink:href="#Aptos-6e" transform="translate(788.330078 0)"/>
      <use xlink:href="#Aptos-65" transform="translate(843.457031 0)"/>
      <use xlink:href="#Aptos-75" transform="translate(896.142578 0)"/>
      <use xlink:href="#Aptos-74" transform="translate(952.001953 0)"/>
      <use xlink:href="#Aptos-72" transform="translate(984.326172 0)"/>
      <use xlink:href="#Aptos-6f" transform="translate(1017.773438 0)"/>
      <use xlink:href="#Aptos-6e" transform="translate(1072.949219 0)"/>
      <use xlink:href="#Aptos-20" transform="translate(1128.076172 0)"/>
      <use xlink:href="#Aptos-28" transform="translate(1148.388672 0)"/>
      <use xlink:href="#Aptos-4d" transform="translate(1177.685547 0)"/>
      <use xlink:href="#Aptos-65" transform="translate(1256.689453 0)"/>
      <use xlink:href="#Aptos-56" transform="translate(1309.375 0)"/>
      <use xlink:href="#Aptos-29" transform="translate(1367.919922 0)"/>
     </g>
    </g>
   </g>
   <g id="matplotlib.axis_2">
    <g id="ytick_1">
     <g id="line2d_15">
      <path d="M 71.99 563.270312 
L 844 563.270312 
" clip-path="url(#pf39077c0d8)" style="fill: none; stroke-dasharray: 3.7,1.6; stroke-dashoffset: 0; stroke: #343837; stroke-opacity: 0.8"/>
     </g>
     <g id="line2d_16">
      <defs>
       <path id="m616a4e5b93" d="M 0 0 
L -3.5 0 
" style="stroke: #000000; stroke-width: 0.8"/>
      </defs>
      <g>
       <use xlink:href="#m616a4e5b93" x="71.99" y="563.270312" style="stroke: #000000; stroke-width: 0.8"/>
      </g>
     </g>
     <g id="text_9">
      <!-- 0 -->
      <g transform="translate(53.237188 570.499375) scale(0.22 -0.22)">
       <use xlink:href="#Aptos-30"/>
      </g>
     </g>
    </g>
    <g id="ytick_2">
     <g id="line2d_17">
      <path d="M 71.99 491.076553 
L 844 491.076553 
" clip-path="url(#pf39077c0d8)" style="fill: none; stroke-dasharray: 3.7,1.6; stroke-dashoffset: 0; stroke: #343837; stroke-opacity: 0.8"/>
     </g>
     <g id="line2d_18">
      <g>
       <use xlink:href="#m616a4e5b93" x="71.99" y="491.076553" style="stroke: #000000; stroke-width: 0.8"/>
      </g>
     </g>
     <g id="text_10">
      <!-- 1 -->
      <g transform="translate(53.237188 498.305616) scale(0.22 -0.22)">
       <use xlink:href="#Aptos-31"/>
      </g>
     </g>
    </g>
    <g id="ytick_3">
     <g id="line2d_19">
      <path d="M 71.99 418.882794 
L 844 418.882794 
" clip-path="url(#pf39077c0d8)" style="fill: none; stroke-dasharray: 3.7,1.6; stroke-dashoffset: 0; stroke: #343837; stroke-opacity: 0.8"/>
     </g>
     <g id="line2d_20">
      <g>
       <use xlink:href="#m616a4e5b93" x="71.99" y="418.882794" style="stroke: #000000; stroke-width: 0.8"/>
      </g>
     </g>
     <g id="text_11">
      <!-- 2 -->
      <g transform="translate(53.237188 426.111857) scale(0.22 -0.22)">
       <defs>
        <path id="Aptos-32" d="M 291 0 
L 291 413 
L 1738 1734 
Q 2113 2075 2281 2353 
Q 2450 2631 2450 2938 
Q 2450 3256 2279 3461 
Q 2109 3666 1722 3666 
Q 1284 3666 1095 3439 
Q 906 3213 906 2869 
L 384 2869 
Q 384 3250 532 3534 
Q 681 3819 979 3975 
Q 1278 4131 1722 4131 
Q 2128 4131 2412 3986 
Q 2697 3841 2845 3578 
Q 2994 3316 2994 2959 
Q 2994 2641 2870 2378 
Q 2747 2116 2537 1884 
Q 2328 1653 2075 1425 
L 1003 463 
L 3113 463 
L 3113 0 
L 291 0 
z
" transform="scale(0.015625)"/>
       </defs>
       <use xlink:href="#Aptos-32"/>
      </g>
     </g>
    </g>
    <g id="ytick_4">
     <g id="line2d_21">
      <path d="M 71.99 346.689035 
L 844 346.689035 
" clip-path="url(#pf39077c0d8)" style="fill: none; stroke-dasharray: 3.7,1.6; stroke-dashoffset: 0; stroke: #343837; stroke-opacity: 0.8"/>
     </g>
     <g id="line2d_22">
      <g>
       <use xlink:href="#m616a4e5b93" x="71.99" y="346.689035" style="stroke: #000000; stroke-width: 0.8"/>
      </g>
     </g>
     <g id="text_12">
      <!-- 3 -->
      <g transform="translate(53.237188 353.918098) scale(0.22 -0.22)">
       <use xlink:href="#Aptos-33"/>
      </g>
     </g>
    </g>
    <g id="ytick_5">
     <g id="line2d_23">
      <path d="M 71.99 274.495277 
L 844 274.495277 
" clip-path="url(#pf39077c0d8)" style="fill: none; stroke-dasharray: 3.7,1.6; stroke-dashoffset: 0; stroke: #343837; stroke-opacity: 0.8"/>
     </g>
     <g id="line2d_24">
      <g>
       <use xlink:href="#m616a4e5b93" x="71.99" y="274.495277" style="stroke: #000000; stroke-width: 0.8"/>
      </g>
     </g>
     <g id="text_13">
      <!-- 4 -->
      <g transform="translate(53.237188 281.724339) scale(0.22 -0.22)">
       <defs>
        <path id="Aptos-34" d="M 2144 0 
L 2144 825 
L 175 825 
L 175 1297 
L 2134 4103 
L 2666 4103 
L 2666 1284 
L 3225 1284 
L 3225 825 
L 2666 825 
L 2666 0 
L 2144 0 
z
M 684 1284 
L 2150 1284 
L 2150 3391 
L 684 1284 
z
" transform="scale(0.015625)"/>
       </defs>
       <use xlink:href="#Aptos-34"/>
      </g>
     </g>
    </g>
    <g id="ytick_6">
     <g id="line2d_25">
      <path d="M 71.99 202.301518 
L 844 202.301518 
" clip-path="url(#pf39077c0d8)" style="fill: none; stroke-dasharray: 3.7,1.6; stroke-dashoffset: 0; stroke: #343837; stroke-opacity: 0.8"/>
     </g>
     <g id="line2d_26">
      <g>
       <use xlink:href="#m616a4e5b93" x="71.99" y="202.301518" style="stroke: #000000; stroke-width: 0.8"/>
      </g>
     </g>
     <g id="text_14">
      <!-- 5 -->
      <g transform="translate(53.237188 209.53058) scale(0.22 -0.22)">
       <use xlink:href="#Aptos-35"/>
      </g>
     </g>
    </g>
    <g id="ytick_7">
     <g id="line2d_27">
      <path d="M 71.99 130.107759 
L 844 130.107759 
" clip-path="url(#pf39077c0d8)" style="fill: none; stroke-dasharray: 3.7,1.6; stroke-dashoffset: 0; stroke: #343837; stroke-opacity: 0.8"/>
     </g>
     <g id="line2d_28">
      <g>
       <use xlink:href="#m616a4e5b93" x="71.99" y="130.107759" style="stroke: #000000; stroke-width: 0.8"/>
      </g>
     </g>
     <g id="text_15">
      <!-- 6 -->
      <g transform="translate(53.237188 137.336821) scale(0.22 -0.22)">
       <defs>
        <path id="Aptos-36" d="M 1806 -56 
Q 1372 -56 1031 151 
Q 691 359 495 815 
Q 300 1272 300 2013 
Q 300 2738 487 3206 
Q 675 3675 1015 3903 
Q 1356 4131 1806 4131 
Q 2303 4131 2645 3875 
Q 2988 3619 3081 3097 
L 2556 3097 
Q 2491 3388 2300 3534 
Q 2109 3681 1806 3681 
Q 1356 3681 1095 3279 
Q 834 2878 834 2013 
L 834 1850 
Q 834 1313 970 992 
Q 1106 672 1328 531 
Q 1550 391 1809 391 
Q 2219 391 2416 644 
Q 2613 897 2613 1272 
Q 2613 1650 2419 1869 
Q 2225 2088 1875 2088 
Q 1469 2088 1162 1897 
Q 856 1706 700 1456 
L 641 1856 
Q 775 2047 967 2201 
Q 1159 2356 1404 2447 
Q 1650 2538 1947 2538 
Q 2294 2538 2566 2395 
Q 2838 2253 2997 1975 
Q 3156 1697 3156 1291 
Q 3156 897 2998 592 
Q 2841 288 2539 116 
Q 2238 -56 1806 -56 
z
" transform="scale(0.015625)"/>
       </defs>
       <use xlink:href="#Aptos-36"/>
      </g>
     </g>
    </g>
    <g id="ytick_8">
     <g id="line2d_29">
      <path d="M 71.99 57.914 
L 844 57.914 
" clip-path="url(#pf39077c0d8)" style="fill: none; stroke-dasharray: 3.7,1.6; stroke-dashoffset: 0; stroke: #343837; stroke-opacity: 0.8"/>
     </g>
     <g id="line2d_30">
      <g>
       <use xlink:href="#m616a4e5b93" x="71.99" y="57.914" style="stroke: #000000; stroke-width: 0.8"/>
      </g>
     </g>
     <g id="text_16">
      <!-- 7 -->
      <g transform="translate(53.237188 65.143063) scale(0.22 -0.22)">
       <use xlink:href="#Aptos-37"/>
      </g>
     </g>
    </g>
    <g id="text_17">
     <!-- Neutron reproduction factor $\eta$ -->
     <g transform="translate(39.777187 480.747) rotate(-90) scale(0.26 -0.26)">
      <defs>
       <path id="Aptos-4e" d="M 550 0 
L 550 4206 
L 1125 4206 
L 3431 859 
L 3431 4206 
L 3966 4206 
L 3966 0 
L 3391 0 
L 1081 3353 
L 1081 0 
L 550 0 
z
" transform="scale(0.015625)"/>
       <path id="Aptos-70" d="M 503 -1119 
L 503 3044 
L 1009 3044 
L 1025 2547 
Q 1188 2791 1445 2944 
Q 1703 3097 2044 3097 
Q 2419 3097 2691 2920 
Q 2963 2744 3111 2394 
Q 3259 2044 3259 1522 
Q 3259 1006 3101 654 
Q 2944 303 2656 123 
Q 2369 -56 1981 -56 
Q 1656 -56 1412 73 
Q 1169 203 1022 428 
L 1022 -1119 
L 503 -1119 
z
M 1884 372 
Q 2300 372 2511 670 
Q 2722 969 2722 1522 
Q 2722 2081 2525 2378 
Q 2328 2675 1947 2675 
Q 1613 2675 1383 2497 
Q 1153 2319 1025 2081 
L 1025 906 
Q 1150 669 1362 520 
Q 1575 372 1884 372 
z
" transform="scale(0.015625)"/>
       <path id="Aptos-61" d="M 1288 -56 
Q 1025 -56 808 44 
Q 591 144 461 339 
Q 331 534 331 822 
Q 331 1231 587 1443 
Q 844 1656 1312 1732 
Q 1781 1809 2409 1816 
L 2409 2028 
Q 2409 2419 2215 2564 
Q 2022 2709 1725 2709 
Q 1409 2709 1193 2550 
Q 978 2391 978 2047 
L 472 2047 
Q 472 2422 633 2653 
Q 794 2884 1076 2990 
Q 1359 3097 1725 3097 
Q 1959 3097 2173 3053 
Q 2388 3009 2558 2893 
Q 2728 2778 2828 2570 
Q 2928 2363 2928 2034 
L 2928 0 
L 2441 0 
L 2419 463 
Q 2209 228 1932 86 
Q 1656 -56 1288 -56 
z
M 1425 344 
Q 1738 344 1988 491 
Q 2238 638 2406 863 
L 2406 1481 
Q 1575 1472 1214 1325 
Q 853 1178 853 844 
Q 853 616 998 480 
Q 1144 344 1425 344 
z
" transform="scale(0.015625)"/>
       <path id="DejaVuSerif-Italic-3b7" d="M 1153 0 
L 578 0 
L 1159 2988 
L 609 2988 
L 675 3322 
L 1800 3322 
L 1684 2731 
Q 1909 3069 2198 3241 
Q 2488 3413 2825 3413 
Q 3366 3413 3572 3097 
Q 3772 2791 3641 2113 
L 2969 -1331 
L 2391 -1331 
L 3025 1931 
Q 3144 2541 3037 2767 
Q 2931 2994 2553 2994 
Q 2153 2994 1887 2701 
Q 1622 2409 1513 1850 
L 1153 0 
z
" transform="scale(0.015625)"/>
      </defs>
      <use xlink:href="#Aptos-4e" transform="translate(0 0.03125)"/>
      <use xlink:href="#Aptos-65" transform="translate(70.605469 0.03125)"/>
      <use xlink:href="#Aptos-75" transform="translate(123.291016 0.03125)"/>
      <use xlink:href="#Aptos-74" transform="translate(179.150391 0.03125)"/>
      <use xlink:href="#Aptos-72" transform="translate(211.474609 0.03125)"/>
      <use xlink:href="#Aptos-6f" transform="translate(244.921875 0.03125)"/>
      <use xlink:href="#Aptos-6e" transform="translate(300.097656 0.03125)"/>
      <use xlink:href="#Aptos-20" transform="translate(355.224609 0.03125)"/>
      <use xlink:href="#Aptos-72" transform="translate(375.537109 0.03125)"/>
      <use xlink:href="#Aptos-65" transform="translate(408.984375 0.03125)"/>
      <use xlink:href="#Aptos-70" transform="translate(461.669922 0.03125)"/>
      <use xlink:href="#Aptos-72" transform="translate(517.773438 0.03125)"/>
      <use xlink:href="#Aptos-6f" transform="translate(551.220703 0.03125)"/>
      <use xlink:href="#Aptos-64" transform="translate(606.396484 0.03125)"/>
      <use xlink:href="#Aptos-75" transform="translate(662.451172 0.03125)"/>
      <use xlink:href="#Aptos-63" transform="translate(718.310547 0.03125)"/>
      <use xlink:href="#Aptos-74" transform="translate(770.800781 0.03125)"/>
      <use xlink:href="#Aptos-69" transform="translate(803.125 0.03125)"/>
      <use xlink:href="#Aptos-6f" transform="translate(827.001953 0.03125)"/>
      <use xlink:href="#Aptos-6e" transform="translate(882.177734 0.03125)"/>
      <use xlink:href="#Aptos-20" transform="translate(937.304688 0.03125)"/>
      <use xlink:href="#Aptos-66" transform="translate(957.617188 0.03125)"/>
      <use xlink:href="#Aptos-61" transform="translate(987.744141 0.03125)"/>
      <use xlink:href="#Aptos-63" transform="translate(1040.869141 0.03125)"/>
      <use xlink:href="#Aptos-74" transform="translate(1093.359375 0.03125)"/>
      <use xlink:href="#Aptos-6f" transform="translate(1125.683594 0.03125)"/>
      <use xlink:href="#Aptos-72" transform="translate(1180.859375 0.03125)"/>
      <use xlink:href="#Aptos-20" transform="translate(1214.306641 0.03125)"/>
      <use xlink:href="#DejaVuSerif-Italic-3b7" transform="translate(1234.619141 0.03125)"/>
     </g>
    </g>
   </g>
   <g id="line2d_31">
    <path d="M 71.990027 563.156468 
L 479.453508 563.046924 
L 480.09558 562.918174 
L 480.439547 563.189111 
L 480.989894 563.262802 
L 483.466458 563.241108 
L 490.101202 563.172362 
L 490.575112 563.220209 
L 490.911436 563.136656 
L 492.172648 563.167609 
L 494.909098 563.19876 
L 497.75256 563.050173 
L 500.313204 563.008666 
L 501.222806 562.732647 
L 501.926028 562.577634 
L 502.575744 562.593967 
L 503.363046 561.515303 
L 503.791094 561.504301 
L 504.670121 561.756086 
L 507.230766 562.5033 
L 509.821985 563.006508 
L 511.243716 563.101364 
L 512.994126 563.033605 
L 514.866836 562.834642 
L 517.091157 562.843628 
L 517.496274 563.176412 
L 518.627544 563.073343 
L 518.963867 562.998292 
L 519.850538 563.02811 
L 520.607266 563.081097 
L 521.539799 562.969537 
L 521.746179 563.134278 
L 521.906697 563.227668 
L 522.013709 563.062804 
L 522.227733 563.010974 
L 522.816299 563.027635 
L 523.190841 563.00818 
L 524.131018 563.12145 
L 524.788378 562.583083 
L 525.216426 562.021217 
L 525.453381 561.303932 
L 525.644474 560.796975 
L 525.667405 560.816374 
L 525.713267 561.208012 
L 525.934935 562.425155 
L 526.103096 562.452048 
L 526.294189 562.535535 
L 526.347695 563.071444 
L 526.416489 563.259685 
L 526.462351 563.204868 
L 526.684019 562.546735 
L 527.066204 562.634924 
L 528.067531 562.898984 
L 528.594947 562.550235 
L 529.290525 562.50414 
L 530.207771 562.627366 
L 531.553065 563.031808 
L 531.965825 563.182283 
L 532.332724 563.073882 
L 532.65376 562.982267 
L 532.814278 562.876707 
L 533.18882 562.70187 
L 533.372269 562.790707 
L 533.494568 563.262145 
L 533.548074 562.983258 
L 533.685661 562.607679 
L 534.13664 562.525941 
L 534.320089 562.641955 
L 534.893368 563.220845 
L 535.030955 563.042045 
L 535.076817 562.565994 
L 535.145611 561.995481 
L 535.199117 562.141873 
L 535.344347 562.787742 
L 535.351991 562.786707 
L 535.558371 562.631289 
L 535.955844 562.0357 
L 536.383892 560.978341 
L 536.681997 559.696844 
L 536.766078 558.340382 
L 536.842515 556.59314 
L 536.888377 557.036338 
L 537.041252 560.073645 
L 537.324069 560.17863 
L 537.836198 560.862029 
L 538.241315 561.831113 
L 538.508845 562.24594 
L 538.615857 562.145482 
L 538.860456 561.428562 
L 539.311435 560.251092 
L 539.456665 560.23153 
L 539.464309 560.238767 
L 539.594252 560.533855 
L 539.770058 561.63538 
L 539.991725 563.225183 
L 540.037588 563.058908 
L 540.35098 559.220046 
L 541.122995 549.133094 
L 541.191789 549.5078 
L 541.314088 552.740815 
L 541.635124 561.200017 
L 541.650411 561.295444 
L 541.711561 562.615754 
L 541.772711 561.950302 
L 541.994379 559.939355 
L 542.238977 559.168767 
L 542.43007 559.131341 
L 543.209729 559.41122 
L 543.461972 559.361267 
L 543.568984 559.728986 
L 543.714214 561.251257 
L 543.821226 562.053592 
L 543.867089 561.940223 
L 544.027607 559.482761 
L 544.088756 559.953596 
L 544.172837 560.816694 
L 544.226343 560.560632 
L 544.310424 551.907966 
L 544.440367 540.998339 
L 544.486229 541.60941 
L 544.585598 552.605825 
L 544.684966 551.328569 
L 544.738472 551.615354 
L 544.776691 551.8014 
L 544.822553 551.436237 
L 544.883703 551.400867 
L 544.906634 551.460383 
L 545.793305 561.517141 
L 546.022616 563.092608 
L 546.060835 563.042787 
L 546.129628 561.661002 
L 546.427733 550.111222 
L 546.572964 550.377462 
L 546.672332 548.818203 
L 546.725838 549.336793 
L 547.016299 555.581631 
L 547.30676 558.826338 
L 547.352622 558.714242 
L 547.451991 556.112748 
L 547.658371 544.303704 
L 547.719521 547.081937 
L 547.811245 555.3213 
L 547.864751 554.717978 
L 547.918257 554.120529 
L 547.971763 554.52559 
L 548.078775 557.973755 
L 548.185787 561.697964 
L 548.239293 561.146551 
L 548.415099 557.751029 
L 548.476248 557.626997 
L 548.529754 557.700823 
L 548.667341 558.363284 
L 549.110677 561.756073 
L 549.194758 561.334607 
L 549.324701 560.661941 
L 549.370563 560.843893 
L 549.416425 562.353932 
L 549.462288 563.235869 
L 549.50815 561.924665 
L 549.630449 560.552392 
L 549.737461 559.873956 
L 550.112003 555.304308 
L 550.303096 545.447089 
L 550.333671 545.452601 
L 550.364246 545.53501 
L 550.51712 550.127754 
L 550.830512 556.440794 
L 551.105686 558.237583 
L 551.212698 558.387351 
L 551.250917 558.338947 
L 551.350285 557.820676 
L 551.44201 557.431823 
L 551.480228 557.624736 
L 551.831839 563.212321 
L 551.839483 563.211331 
L 551.870058 563.10632 
L 551.961782 558.803407 
L 552.152875 546.967063 
L 552.221668 547.453956 
L 552.603854 561.96392 
L 552.749085 562.078036 
L 552.917246 563.268243 
L 552.970752 563.001624 
L 553.230639 560.122588 
L 553.391157 555.593216 
L 553.5211 550.423331 
L 553.58225 551.838336 
L 553.826848 563.087632 
L 553.834492 563.087174 
L 553.865067 563.028241 
L 553.964435 562.326132 
L 554.017941 562.389726 
L 554.461277 563.028715 
L 554.851106 563.118486 
L 555.240936 563.024194 
L 555.340304 562.752555 
L 555.416741 562.136988 
L 555.470247 562.554443 
L 555.516109 562.634835 
L 555.577259 562.562429 
L 555.753064 562.417679 
L 555.775996 562.436068 
L 556.005307 562.737903 
L 556.0741 563.266281 
L 556.119963 562.854557 
L 556.25755 562.308805 
L 556.486861 561.885504 
L 556.540367 560.994002 
L 556.570942 561.747932 
L 556.60916 562.468789 
L 556.685598 562.383799 
L 556.960771 562.284035 
L 557.457613 562.544653 
L 557.587556 563.081677 
L 557.625774 562.770687 
L 557.878017 561.025164 
L 557.931523 561.037413 
L 557.939167 561.082311 
L 558.038535 562.370257 
L 558.107328 562.238809 
L 558.252559 562.207148 
L 558.841125 562.74005 
L 558.986356 562.881261 
L 559.001643 562.871244 
L 559.727796 562.447281 
L 560.469236 562.384174 
L 560.736766 562.514814 
L 560.859066 562.895861 
L 560.935503 563.10759 
L 560.973721 562.909341 
L 561.149527 562.188012 
L 561.394126 562.123713 
L 561.531713 562.05242 
L 561.592862 561.730235 
L 561.638725 561.994146 
L 561.81453 562.42479 
L 562.326659 563.174867 
L 562.533039 563.062786 
L 562.571258 563.077498 
L 562.578901 563.131471 
L 562.624764 563.267754 
L 562.670626 563.014636 
L 562.831144 562.805154 
L 563.121605 562.761163 
L 563.725459 562.875709 
L 563.733102 562.844806 
L 563.794252 562.753519 
L 563.824827 562.902885 
L 563.95477 563.084542 
L 564.084713 563.198801 
L 564.275806 563.234796 
L 565.08604 563.080987 
L 565.307707 563.17753 
L 565.330639 563.148112 
L 565.582881 563.012427 
L 565.926848 563.156096 
L 566.003285 563.268531 
L 566.03386 563.156974 
L 566.171447 563.050428 
L 566.431333 563.147495 
L 566.507771 563.244232 
L 566.538345 563.147607 
L 566.859381 561.467203 
L 566.912887 561.865255 
L 567.149843 563.268156 
L 567.172774 563.227005 
L 567.37151 561.609441 
L 567.379154 561.60991 
L 567.402085 561.654335 
L 567.554959 562.236116 
L 567.738409 562.360425 
L 567.891283 562.962238 
L 567.952433 563.023295 
L 567.990651 562.897018 
L 568.128238 562.666289 
L 568.151169 562.677683 
L 568.288756 562.877065 
L 568.479849 563.268811 
L 568.510424 563.187028 
L 568.548642 562.665834 
L 568.594505 561.849428 
L 568.655654 562.633768 
L 568.83146 563.076172 
L 568.884966 563.188297 
L 568.953759 563.269407 
L 568.991978 563.17442 
L 569.236577 562.776129 
L 569.496463 562.727537 
L 569.504107 562.741996 
L 569.534681 562.827169 
L 569.557613 562.705785 
L 569.588187 562.166449 
L 569.664625 562.614363 
L 569.893936 562.910284 
L 570.031523 562.993152 
L 570.214972 563.237419 
L 570.360203 563.131146 
L 570.574227 562.9761 
L 571.162793 562.81161 
L 571.17808 562.728143 
L 571.231586 563.005573 
L 571.246873 562.992711 
L 571.407391 562.983272 
L 572.431649 563.154152 
L 572.599811 563.020404 
L 572.622742 563.170781 
L 572.699179 563.218878 
L 572.745041 563.199044 
L 573.402401 563.043082 
L 587.08465 562.697082 
L 590.157423 561.648824 
L 591.51036 561.246146 
L 593.016172 561.803708 
L 595.806128 562.755478 
L 601.118509 562.015475 
L 605.735313 561.727944 
L 610.596715 562.079118 
L 613.952306 561.559019 
L 614.838976 560.266149 
L 617.208528 556.716619 
L 617.476058 556.434663 
L 617.491345 556.444155 
L 617.965256 556.90845 
L 619.906759 558.785901 
L 621.787113 560.913729 
L 623.208844 562.827035 
L 623.399936 562.911794 
L 623.652179 562.624701 
L 624.577069 561.668418 
L 627.000126 558.961069 
L 629.08686 556.314245 
L 629.323815 556.127516 
L 629.537839 556.335696 
L 630.202842 556.978612 
L 632.129058 558.976484 
L 633.994125 561.231567 
L 634.254011 561.396607 
L 642.814971 561.054949 
L 647.852179 560.288402 
L 651.689323 558.776737 
L 652.935249 558.355713 
L 660.571319 557.797849 
L 663.139607 558.769332 
L 665.746114 559.512102 
L 666.403473 559.615257 
L 672.801262 558.650082 
L 679.688249 557.862576 
L 680.689576 557.377953 
L 681.721477 556.625522 
L 682.822172 555.538472 
L 684.029879 554.021534 
L 684.885975 552.647618 
L 685.398104 551.189107 
L 686.445293 547.329117 
L 687.179089 545.072669 
L 689.013581 540.917201 
L 689.449272 540.487061 
L 690.228931 540.224233 
L 691.428994 540.078513 
L 692.437965 540.101865 
L 693.729752 540.152127 
L 698.086669 539.567845 
L 699.538975 539.070033 
L 700.975993 538.179604 
L 702.1837 537.098926 
L 703.269108 535.799056 
L 704.32394 534.168609 
L 705.707453 531.620388 
L 706.976309 528.822327 
L 708.268097 525.341776 
L 710.59943 518.244317 
L 712.372772 512.165864 
L 714.01617 505.703159 
L 715.193302 500.163273 
L 716.584458 492.449177 
L 721.384711 464.166709 
L 725.443523 440.662989 
L 726.895829 433.852893 
L 727.759569 429.749211 
L 728.46279 426.011881 
L 729.143081 424.234504 
L 729.746934 423.233395 
L 731.688438 420.484213 
L 733.370055 416.927979 
L 735.793112 411.925318 
L 737.726972 408.17031 
L 738.850598 406.290321 
L 739.316865 405.984409 
L 740.050661 405.897174 
L 740.608652 406.029028 
L 741.778141 406.327145 
L 742.871192 406.064815 
L 744.338785 405.64528 
L 745.745228 404.497202 
L 749.467717 399.204609 
L 750.912379 397.738133 
L 753.67176 394.281417 
L 755.490964 392.764845 
L 757.424824 390.470889 
L 762.163927 384.866031 
L 763.333415 383.719837 
L 763.799682 383.293238 
L 765.083826 381.818385 
L 768.928614 376.928037 
L 771.787363 372.75789 
L 775.379909 367.092933 
L 778.024634 362.866286 
L 781.2885 357.528329 
L 785.607199 350.068223 
L 788.771697 344.194424 
L 790.23929 340.793065 
L 792.922233 334.168334 
L 795.498165 327.185423 
L 798.586226 318.75674 
L 801.154514 312.560505 
L 803.67694 305.888381 
L 806.130572 298.762239 
L 808.691216 290.617736 
L 810.976687 282.65236 
L 812.849397 275.324731 
L 814.714463 267.055894 
L 817.145164 255.176663 
L 822.006567 231.244297 
L 824.979971 216.382955 
L 827.028487 204.865358 
L 829.443901 190.057333 
L 831.851671 173.897223 
L 834.259441 156.206871 
L 836.346175 139.526615 
L 836.346175 139.526615 
" clip-path="url(#pf39077c0d8)" style="fill: none; stroke: #0a888a; stroke-width: 5; stroke-linecap: square"/>
   </g>
   <g id="line2d_32">
    <path d="M 71.990027 563.261702 
L 566.8976 563.153259 
L 567.004612 562.975427 
L 567.027543 563.01247 
L 567.081049 563.26898 
L 567.126911 562.947216 
L 567.180417 562.857923 
L 567.233923 562.931279 
L 567.363867 563.268036 
L 567.394441 563.103285 
L 567.707834 561.813358 
L 567.914214 561.462533 
L 567.937145 561.489917 
L 568.005939 561.878127 
L 568.112951 563.268844 
L 568.158813 562.374047 
L 568.426343 556.098176 
L 568.449274 556.183053 
L 568.50278 563.225678 
L 568.556286 556.472783 
L 568.640367 546.144922 
L 568.686229 520.115532 
L 568.739735 551.825701 
L 568.808529 562.883081 
L 568.869678 557.682725 
L 568.953759 557.798445 
L 568.969047 559.182661 
L 568.999621 563.099903 
L 569.060771 558.327449 
L 569.076059 558.355109 
L 569.183071 559.145484 
L 569.335945 561.664558 
L 569.381807 563.266172 
L 569.450601 562.26342 
L 569.5729 563.268705 
L 569.672268 562.860423 
L 570.008592 563.254751 
L 570.146179 563.263717 
L 570.276122 563.26304 
L 570.513077 563.218152 
L 570.826469 563.203404 
L 571.185724 563.264768 
L 574.938787 563.239259 
L 575.328617 563.270221 
L 586.618383 563.184852 
L 586.641314 563.139163 
L 586.687176 563.26874 
L 586.710108 563.269986 
L 586.740682 563.159676 
L 586.840051 563.078749 
L 586.771257 563.266482 
L 586.855338 563.109962 
L 586.9012 563.269192 
L 586.947063 563.088623 
L 586.96235 563.091148 
L 587.398042 563.220698 
L 587.711434 563.024094 
L 587.749653 563.102588 
L 587.910171 563.267011 
L 587.917814 563.247261 
L 588.345862 563.106686 
L 588.4223 562.960148 
L 588.437587 563.022873 
L 588.475806 563.269303 
L 588.529312 562.735177 
L 588.582818 562.609895 
L 588.62868 562.779994 
L 588.682186 563.26937 
L 588.728048 562.731189 
L 588.743336 562.684256 
L 588.77391 562.946752 
L 588.804485 563.269189 
L 588.850348 562.796369 
L 588.880922 562.942186 
L 589.003222 563.269088 
L 589.018509 563.246068 
L 589.04144 562.990153 
L 589.133165 563.179538 
L 589.293683 563.26926 
L 589.354833 563.157769 
L 589.454201 562.809907 
L 589.415982 563.265562 
L 589.477132 562.880453 
L 589.553569 563.26969 
L 589.599432 562.995211 
L 589.614719 562.945284 
L 589.660581 563.18492 
L 589.6988 563.269469 
L 589.737018 562.997173 
L 589.813456 562.127138 
L 589.828743 562.982301 
L 589.851674 563.256802 
L 589.889893 561.849244 
L 589.90518 561.901011 
L 590.134492 563.269218 
L 590.165066 563.12658 
L 590.226216 563.268963 
L 590.317941 561.575158 
L 590.37909 559.941704 
L 590.394378 562.692881 
L 590.463171 563.258682 
L 590.486102 561.714079 
L 590.50139 559.976161 
L 590.577827 563.264166 
L 590.585471 563.253719 
L 590.600758 562.585137 
L 590.730701 539.207609 
L 590.677195 563.221766 
L 590.745989 554.009389 
L 590.76892 563.163678 
L 590.83007 535.79691 
L 590.937082 436.06694 
L 590.952369 436.10725 
L 590.967656 437.323948 
L 591.105243 507.437819 
L 591.319267 560.165157 
L 591.44921 563.267208 
L 591.479785 563.16365 
L 591.617372 561.972023 
L 591.540935 563.264888 
L 591.647947 562.477004 
L 591.678522 563.267899 
L 591.739672 561.446993 
L 591.770246 561.126483 
L 591.785534 561.590744 
L 591.808465 563.248604 
L 591.846684 561.324832 
L 591.892546 561.860514 
L 592.037776 563.267991 
L 592.060708 563.000956 
L 592.10657 562.597815 
L 592.160076 563.044389 
L 592.259444 563.269109 
L 592.274732 563.231539 
L 592.305307 562.776616 
L 592.351169 563.268138 
L 592.389387 563.072105 
L 592.465825 563.269326 
L 592.511687 563.134902 
L 592.534618 563.099243 
L 592.572837 563.266387 
L 592.603411 563.268114 
L 592.618699 563.189442 
L 592.649274 563.08108 
L 592.710423 563.266353 
L 592.748642 563.262057 
L 592.771573 563.1784 
L 592.855654 563.111753 
L 592.809792 563.268705 
L 592.886229 563.182786 
L 592.947379 563.26809 
L 592.985597 563.147702 
L 593.062034 562.959949 
L 593.11554 563.075593 
L 593.207265 563.268838 
L 593.253127 563.160002 
L 593.268415 563.155619 
L 593.283702 563.266017 
L 593.306633 563.269085 
L 593.44422 563.21789 
L 593.467151 563.269722 
L 593.497726 563.180095 
L 593.558876 562.997684 
L 593.612382 563.092165 
L 593.727037 563.267685 
L 593.765256 563.202847 
L 593.849337 563.151334 
L 593.811118 563.269247 
L 593.872268 563.212821 
L 593.91813 563.269023 
L 593.956349 563.107929 
L 594.101579 562.79082 
L 594.132154 562.810448 
L 594.277385 563.134421 
L 594.384397 563.269717 
L 594.422615 563.22352 
L 594.468478 563.192443 
L 594.521984 563.270229 
L 594.583133 563.165393 
L 594.606065 563.149588 
L 594.644283 563.231267 
L 594.682502 563.270068 
L 594.728364 563.150212 
L 594.766583 563.115549 
L 594.789514 563.212814 
L 594.84302 563.202982 
L 594.904169 563.270256 
L 595.301643 563.155998 
L 595.477448 563.128279 
L 595.744978 563.266518 
L 595.767909 563.229702 
L 596.280038 563.249098 
L 597.174353 563.269607 
L 598.252116 563.243604 
L 598.519646 563.257338 
L 598.687808 563.267038 
L 598.955338 563.268228 
L 599.069994 563.020001 
L 610.413266 562.909249 
L 610.451484 562.505368 
L 610.50499 556.880926 
L 610.56614 562.010281 
L 610.703727 563.005802 
L 624.103158 562.978259 
L 624.149021 560.745439 
L 624.164308 558.929396 
L 624.225458 563.002381 
L 624.240745 563.002406 
L 648.402526 562.920446 
L 658.622172 562.940385 
L 672.793619 562.954065 
L 680.070435 562.786677 
L 686.942134 562.658055 
L 692.476183 562.639507 
L 696.794882 562.389738 
L 700.486796 562.188494 
L 706.403031 562.020252 
L 712.258116 561.597651 
L 714.260769 561.465927 
L 715.942386 561.461915 
L 722.393681 561.139023 
L 728.79147 560.12508 
L 729.869234 558.937931 
L 730.855273 557.533039 
L 731.810737 555.770763 
L 733.87454 551.205012 
L 734.807073 548.517076 
L 735.716675 545.161059 
L 736.160011 542.860734 
L 736.679783 538.048046 
L 737.459442 528.293738 
L 739.148703 505.920721 
L 739.446808 502.271738 
L 739.523245 502.53827 
L 739.729625 504.620364 
L 739.920718 506.261664 
L 739.974224 506.025565 
L 740.142386 503.770176 
L 740.753883 496.104044 
L 742.099177 480.579702 
L 743.161653 469.472379 
L 743.864875 456.31411 
L 744.805052 443.925505 
L 745.04965 441.929586 
L 745.2331 441.691829 
L 745.401261 441.808837 
L 745.58471 441.849846 
L 745.592354 441.841444 
L 745.699366 441.531886 
L 746.616612 437.09457 
L 747.510926 434.482359 
L 747.549145 434.528923 
L 747.740238 435.016604 
L 747.809031 434.856124 
L 748.068918 433.578338 
L 748.420528 430.881919 
L 749.161969 424.707681 
L 750.140364 418.751899 
L 750.904736 415.698966 
L 752.143017 411.592606 
L 753.809347 406.667485 
L 755.559758 404.257493 
L 756.599303 402.422898 
L 756.889764 402.255897 
L 757.264306 402.365887 
L 757.562411 402.349636 
L 758.28092 401.919033 
L 758.6096 401.447898 
L 759.098797 400.22795 
L 759.985468 398.067419 
L 761.330762 396.143023 
L 762.477319 394.321641 
L 763.149966 393.449068 
L 763.600945 393.253601 
L 764.151293 393.002639 
L 764.502904 392.521881 
L 765.274919 391.046519 
L 767.858494 385.954446 
L 769.501893 383.262838 
L 771.084142 380.35381 
L 774.149271 374.14944 
L 784.926908 352.086929 
L 788.657041 344.099474 
L 791.905619 336.61659 
L 794.710863 329.617084 
L 797.325013 322.543576 
L 799.549334 315.842354 
L 802.056472 307.549337 
L 804.494817 298.713897 
L 806.917874 289.091592 
L 809.310357 278.666516 
L 811.725771 267.133596 
L 814.11061 254.661531 
L 816.533667 240.796392 
L 818.964368 225.592358 
L 821.326276 209.392775 
L 823.428297 193.507286 
L 825.813136 174.751394 
L 829.550913 148.843058 
L 832.608398 128.252937 
L 834.259441 118.564825 
L 835.482435 112.609581 
L 836.346175 109.273238 
L 836.346175 109.273238 
" clip-path="url(#pf39077c0d8)" style="fill: none; stroke: #2000b1; stroke-opacity: 0.85; stroke-width: 5; stroke-linecap: square"/>
   </g>
   <g id="line2d_33">
    <path d="M 71.990027 563.269122 
L 552.59621 563.164444 
L 552.909603 563.016296 
L 552.940178 563.044715 
L 552.98604 563.26614 
L 553.04719 563.00611 
L 553.054833 562.992039 
L 553.077764 563.17157 
L 553.115983 563.260436 
L 553.154202 562.95259 
L 553.200064 563.175824 
L 553.307076 557.224432 
L 553.391157 550.14403 
L 553.452306 553.607646 
L 553.620468 561.807325 
L 553.803917 563.269291 
L 553.834492 563.23578 
L 553.880354 563.265621 
L 553.99501 562.899094 
L 554.094378 563.011561 
L 554.20139 563.267554 
L 554.239609 563.117242 
L 554.369552 563.079865 
L 555.133924 563.250808 
L 555.386166 563.26534 
L 555.684271 563.270112 
L 566.03386 563.214506 
L 566.179091 563.150787 
L 566.354896 563.2607 
L 566.515414 563.256551 
L 567.004612 563.082127 
L 567.10398 561.926997 
L 567.172774 560.698244 
L 567.218636 561.305218 
L 567.363867 563.26675 
L 567.37151 563.265005 
L 567.394441 563.141323 
L 567.409729 563.044289 
L 567.501453 563.157378 
L 567.76134 563.262968 
L 568.793241 563.269127 
L 569.09899 563.263236 
L 570.031523 563.261895 
L 578.928806 563.270198 
L 608.349463 563.264015 
L 608.372394 563.045655 
L 608.4259 563.270065 
L 608.456475 563.27018 
L 608.525268 563.158433 
L 608.540556 563.062952 
L 608.586418 563.270163 
L 608.624637 563.268729 
L 610.03108 563.270294 
L 614.158686 563.199381 
L 614.181617 563.24033 
L 614.189261 562.834532 
L 614.204548 559.277852 
L 614.219836 563.26895 
L 614.296273 562.973018 
L 614.403285 563.2702 
L 614.319204 562.706996 
L 614.410928 563.268885 
L 614.525584 563.269607 
L 615.129438 563.220135 
L 615.182944 563.134007 
L 615.160012 563.269613 
L 615.228806 563.269549 
L 615.289956 563.254508 
L 615.396968 560.805317 
L 615.328174 563.267975 
L 615.404611 561.693115 
L 615.519267 563.269759 
L 615.534554 563.253805 
L 615.549842 563.011283 
L 615.572773 563.269785 
L 615.641566 563.252324 
L 615.672141 563.208168 
L 615.763866 563.270278 
L 616.597031 563.220812 
L 616.665824 562.094092 
L 616.627606 563.262337 
L 616.704043 563.246236 
L 616.711686 563.258356 
L 616.71933 563.237997 
L 616.749905 562.067797 
L 616.803411 563.266897 
L 616.833986 562.851924 
L 616.956285 563.26962 
L 616.979216 563.26691 
L 617.384333 563.270105 
L 621.496652 563.268237 
L 621.527226 561.931335 
L 621.542514 558.877092 
L 621.626595 563.254732 
L 621.756538 563.270293 
L 623.950284 563.270308 
L 626.648515 563.205111 
L 626.656159 563.155163 
L 626.67909 563.269209 
L 626.747883 563.268418 
L 626.801389 562.953715 
L 626.816677 559.316331 
L 626.877827 563.266707 
L 626.916045 559.688004 
L 626.923689 559.330162 
L 626.94662 563.194213 
L 627.030701 563.015615 
L 627.061276 563.269553 
L 632.549463 563.270259 
L 632.809349 563.266155 
L 633.076879 563.266216 
L 633.092166 563.257617 
L 633.122741 562.173505 
L 633.16096 563.270151 
L 633.199178 563.269812 
L 634.284586 563.26841 
L 634.383954 563.003003 
L 634.391598 563.261092 
L 634.43746 563.248671 
L 634.490966 559.420128 
L 634.536828 563.265654 
L 634.544472 563.251897 
L 634.620909 563.268793 
L 634.628553 563.262316 
L 634.636197 563.107375 
L 634.651484 563.269929 
L 634.735565 563.190795 
L 634.880795 563.267991 
L 634.964876 562.972581 
L 635.018382 559.749081 
L 635.003095 563.267142 
L 635.087176 562.312672 
L 635.102463 563.267642 
L 635.155969 562.11035 
L 635.201831 563.212789 
L 635.232406 563.205571 
L 635.316487 563.268889 
L 636.04264 563.270236 
L 639.069551 563.268862 
L 639.107769 561.935069 
L 639.123057 563.270206 
L 639.176563 563.270279 
L 652.461338 563.24268 
L 684.824825 563.223827 
L 719.611369 562.930812 
L 721.698103 562.731805 
L 725.90979 562.655506 
L 727.576119 562.466917 
L 730.985216 562.403565 
L 733.775172 561.681176 
L 737.581742 560.49468 
L 738.75123 559.777402 
L 739.744913 558.90579 
L 740.402272 558.068432 
L 741.0367 556.837632 
L 741.785784 554.861734 
L 742.664812 551.869955 
L 743.230446 549.302251 
L 743.788438 546.145688 
L 744.300566 544.766524 
L 744.51459 544.621858 
L 744.522234 544.627497 
L 744.629246 544.865104 
L 744.858558 546.064896 
L 745.286606 548.117778 
L 745.340112 548.083812 
L 745.355399 548.032263 
L 745.470055 547.067173 
L 745.898103 542.765318 
L 745.936321 542.782035 
L 746.089196 543.047853 
L 746.5096 543.793454 
L 746.83828 543.910896 
L 746.937648 543.784207 
L 747.052304 542.742094 
L 747.319834 537.59097 
L 747.755525 530.332159 
L 748.229436 525.08728 
L 748.435816 521.399649 
L 748.458747 521.412691 
L 748.565759 521.689276 
L 748.848577 522.591879 
L 748.894439 522.516545 
L 749.001451 521.746697 
L 749.353062 516.793588 
L 749.972203 507.59886 
L 750.300882 503.070034 
L 750.72893 501.831245 
L 750.782436 502.018684 
L 750.942954 503.762694 
L 751.134047 505.429258 
L 751.172266 505.353056 
L 751.294565 504.478902 
L 751.852556 497.589482 
L 753.709979 471.985533 
L 754.122739 453.720542 
L 754.627225 436.722494 
L 755.192859 426.083171 
L 755.857863 417.321243 
L 756.477003 411.862816 
L 757.180225 407.716079 
L 757.929309 404.41466 
L 758.494944 402.813849 
L 759.159947 401.64324 
L 760.000756 400.145981 
L 760.505241 398.682323 
L 761.705304 395.106028 
L 763.104104 392.222986 
L 765.641817 387.035356 
L 768.041943 382.970059 
L 769.494249 380.21637 
L 771.366959 376.775345 
L 786.944849 348.364743 
L 789.773023 342.587279 
L 790.873718 339.821236 
L 791.607515 337.393853 
L 792.662347 332.887696 
L 794.382183 324.342538 
L 795.475234 319.160729 
L 796.12495 317.158619 
L 797.141564 314.773036 
L 798.746744 310.928332 
L 801.139226 304.829696 
L 803.890964 297.150251 
L 806.680919 288.85147 
L 808.805872 281.806822 
L 810.189384 276.330476 
L 812.207325 267.156005 
L 814.752682 255.035953 
L 817.397407 240.712251 
L 820.745354 221.086332 
L 823.856345 201.360489 
L 831.385404 150.96054 
L 832.30265 144.593396 
L 835.742321 119.260631 
L 836.063357 115.80752 
L 836.346175 111.116273 
L 836.346175 111.116273 
" clip-path="url(#pf39077c0d8)" style="fill: none; stroke: #2138ab; stroke-opacity: 0.85; stroke-width: 5; stroke-linecap: square"/>
   </g>
   <g id="patch_3">
    <path d="M 71.99 566.88 
L 71.99 57.914 
" style="fill: none; stroke: #000000; stroke-width: 0.8; stroke-linejoin: miter; stroke-linecap: square"/>
   </g>
   <g id="patch_4">
    <path d="M 844 566.88 
L 844 57.914 
" style="fill: none; stroke: #000000; stroke-width: 0.8; stroke-linejoin: miter; stroke-linecap: square"/>
   </g>
   <g id="patch_5">
    <path d="M 71.99 566.88 
L 844 566.88 
" style="fill: none; stroke: #000000; stroke-width: 0.8; stroke-linejoin: miter; stroke-linecap: square"/>
   </g>
   <g id="patch_6">
    <path d="M 71.99 57.914 
L 844 57.914 
" style="fill: none; stroke: #000000; stroke-width: 0.8; stroke-linejoin: miter; stroke-linecap: square"/>
   </g>
   <g id="text_18">
    <!-- Neutron reproduction factor -->
    <g transform="translate(275.845781 39.18985) scale(0.3 -0.3)">
     <use xlink:href="#Aptos-4e"/>
     <use xlink:href="#Aptos-65" transform="translate(70.605469 0)"/>
     <use xlink:href="#Aptos-75" transform="translate(123.291016 0)"/>
     <use xlink:href="#Aptos-74" transform="translate(179.150391 0)"/>
     <use xlink:href="#Aptos-72" transform="translate(211.474609 0)"/>
     <use xlink:href="#Aptos-6f" transform="translate(244.921875 0)"/>
     <use xlink:href="#Aptos-6e" transform="translate(300.097656 0)"/>
     <use xlink:href="#Aptos-20" transform="translate(355.224609 0)"/>
     <use xlink:href="#Aptos-72" transform="translate(375.537109 0)"/>
     <use xlink:href="#Aptos-65" transform="translate(408.984375 0)"/>
     <use xlink:href="#Aptos-70" transform="translate(461.669922 0)"/>
     <use xlink:href="#Aptos-72" transform="translate(517.773438 0)"/>
     <use xlink:href="#Aptos-6f" transform="translate(551.220703 0)"/>
     <use xlink:href="#Aptos-64" transform="translate(606.396484 0)"/>
     <use xlink:href="#Aptos-75" transform="translate(662.451172 0)"/>
     <use xlink:href="#Aptos-63" transform="translate(718.310547 0)"/>
     <use xlink:href="#Aptos-74" transform="translate(770.800781 0)"/>
     <use xlink:href="#Aptos-69" transform="translate(803.125 0)"/>
     <use xlink:href="#Aptos-6f" transform="translate(827.001953 0)"/>
     <use xlink:href="#Aptos-6e" transform="translate(882.177734 0)"/>
     <use xlink:href="#Aptos-20" transform="translate(937.304688 0)"/>
     <use xlink:href="#Aptos-66" transform="translate(957.617188 0)"/>
     <use xlink:href="#Aptos-61" transform="translate(987.744141 0)"/>
     <use xlink:href="#Aptos-63" transform="translate(1040.869141 0)"/>
     <use xlink:href="#Aptos-74" transform="translate(1093.359375 0)"/>
     <use xlink:href="#Aptos-6f" transform="translate(1125.683594 0)"/>
     <use xlink:href="#Aptos-72" transform="translate(1180.859375 0)"/>
    </g>
   </g>
   <g id="legend_1">
    <g id="patch_7">
     <path d="M 85.99 158.514 
L 194.39 158.514 
Q 198.39 158.514 198.39 154.514 
L 198.39 71.914 
Q 198.39 67.914 194.39 67.914 
L 85.99 67.914 
Q 81.99 67.914 81.99 71.914 
L 81.99 154.514 
Q 81.99 158.514 85.99 158.514 
z
" style="fill: #ffffff; opacity: 0.95; stroke: #cccccc; stroke-linejoin: miter"/>
    </g>
    <g id="line2d_34">
     <path d="M 89.99 83.617125 
L 109.99 83.617125 
L 129.99 83.617125 
" style="fill: none; stroke: #0a888a; stroke-width: 5; stroke-linecap: square"/>
    </g>
    <g id="text_19">
     <!-- $\mathrm{^{234}U}$ -->
     <g transform="translate(145.99 90.617125) scale(0.2 -0.2)">
      <defs>
       <path id="DejaVuSerif-32" d="M 819 3553 
L 469 3553 
L 469 4384 
Q 803 4563 1142 4656 
Q 1481 4750 1806 4750 
Q 2534 4750 2956 4397 
Q 3378 4044 3378 3438 
Q 3378 2753 2422 1800 
Q 2347 1728 2309 1691 
L 1131 513 
L 3078 513 
L 3078 1088 
L 3444 1088 
L 3444 0 
L 434 0 
L 434 341 
L 1850 1753 
Q 2319 2222 2519 2614 
Q 2719 3006 2719 3438 
Q 2719 3909 2473 4175 
Q 2228 4441 1797 4441 
Q 1350 4441 1106 4219 
Q 863 3997 819 3553 
z
" transform="scale(0.015625)"/>
       <path id="DejaVuSerif-33" d="M 622 4469 
Q 988 4606 1323 4678 
Q 1659 4750 1953 4750 
Q 2638 4750 3022 4454 
Q 3406 4159 3406 3634 
Q 3406 3213 3140 2930 
Q 2875 2647 2388 2547 
Q 2963 2466 3280 2130 
Q 3597 1794 3597 1259 
Q 3597 606 3158 257 
Q 2719 -91 1894 -91 
Q 1528 -91 1179 -12 
Q 831 66 488 225 
L 488 1131 
L 838 1131 
Q 869 681 1141 450 
Q 1413 219 1906 219 
Q 2384 219 2661 495 
Q 2938 772 2938 1253 
Q 2938 1803 2653 2086 
Q 2369 2369 1819 2369 
L 1522 2369 
L 1522 2688 
L 1678 2688 
Q 2225 2688 2498 2914 
Q 2772 3141 2772 3597 
Q 2772 4006 2547 4223 
Q 2322 4441 1900 4441 
Q 1478 4441 1245 4241 
Q 1013 4041 972 3647 
L 622 3647 
L 622 4469 
z
" transform="scale(0.015625)"/>
       <path id="DejaVuSerif-34" d="M 2234 1581 
L 2234 4063 
L 641 1581 
L 2234 1581 
z
M 3609 0 
L 1484 0 
L 1484 331 
L 2234 331 
L 2234 1247 
L 197 1247 
L 197 1588 
L 2241 4750 
L 2859 4750 
L 2859 1581 
L 3750 1581 
L 3750 1247 
L 2859 1247 
L 2859 331 
L 3609 331 
L 3609 0 
z
" transform="scale(0.015625)"/>
       <path id="DejaVuSerif-55" d="M 897 4331 
L 300 4331 
L 300 4666 
L 2125 4666 
L 2125 4331 
L 1528 4331 
L 1528 1919 
Q 1528 1025 1820 672 
Q 2113 319 2828 319 
Q 3544 319 3836 672 
Q 4128 1025 4128 1919 
L 4128 4331 
L 3531 4331 
L 3531 4666 
L 5106 4666 
L 5106 4331 
L 4513 4331 
L 4513 1856 
Q 4513 791 4103 350 
Q 3694 -91 2713 -91 
Q 1731 -91 1314 353 
Q 897 797 897 1856 
L 897 4331 
z
" transform="scale(0.015625)"/>
      </defs>
      <use xlink:href="#DejaVuSerif-32" transform="translate(0.908359 37.046875) scale(0.7)"/>
      <use xlink:href="#DejaVuSerif-33" transform="translate(45.444492 37.046875) scale(0.7)"/>
      <use xlink:href="#DejaVuSerif-34" transform="translate(89.980625 37.046875) scale(0.7)"/>
      <use xlink:href="#DejaVuSerif-55" transform="translate(137.11207 0.7125)"/>
     </g>
    </g>
    <g id="line2d_35">
     <path d="M 89.99 111.817125 
L 109.99 111.817125 
L 129.99 111.817125 
" style="fill: none; stroke: #2000b1; stroke-opacity: 0.85; stroke-width: 5; stroke-linecap: square"/>
    </g>
    <g id="text_20">
     <!-- $\mathrm{^{236}U}$ -->
     <g transform="translate(145.99 118.817125) scale(0.2 -0.2)">
      <defs>
       <path id="DejaVuSerif-36" d="M 2094 219 
Q 2534 219 2771 542 
Q 3009 866 3009 1472 
Q 3009 2078 2771 2401 
Q 2534 2725 2094 2725 
Q 1647 2725 1412 2412 
Q 1178 2100 1178 1509 
Q 1178 888 1415 553 
Q 1653 219 2094 219 
z
M 1075 2569 
Q 1288 2803 1556 2918 
Q 1825 3034 2163 3034 
Q 2859 3034 3264 2615 
Q 3669 2197 3669 1472 
Q 3669 763 3233 336 
Q 2797 -91 2069 -91 
Q 1278 -91 853 498 
Q 428 1088 428 2181 
Q 428 3406 931 4078 
Q 1434 4750 2350 4750 
Q 2597 4750 2869 4703 
Q 3141 4656 3425 4563 
L 3425 3794 
L 3072 3794 
Q 3034 4109 2831 4275 
Q 2628 4441 2284 4441 
Q 1678 4441 1381 3981 
Q 1084 3522 1075 2569 
z
" transform="scale(0.015625)"/>
      </defs>
      <use xlink:href="#DejaVuSerif-32" transform="translate(0.908359 37.046875) scale(0.7)"/>
      <use xlink:href="#DejaVuSerif-33" transform="translate(45.444492 37.046875) scale(0.7)"/>
      <use xlink:href="#DejaVuSerif-36" transform="translate(89.980625 37.046875) scale(0.7)"/>
      <use xlink:href="#DejaVuSerif-55" transform="translate(137.11207 0.7125)"/>
     </g>
    </g>
    <g id="line2d_36">
     <path d="M 89.99 140.017125 
L 109.99 140.017125 
L 129.99 140.017125 
" style="fill: none; stroke: #2138ab; stroke-opacity: 0.85; stroke-width: 5; stroke-linecap: square"/>
    </g>
    <g id="text_21">
     <!-- $\mathrm{^{238}U}$ -->
     <g transform="translate(145.99 147.017125) scale(0.2 -0.2)">
      <defs>
       <path id="DejaVuSerif-38" d="M 2981 1275 
Q 2981 1775 2732 2051 
Q 2484 2328 2034 2328 
Q 1584 2328 1336 2051 
Q 1088 1775 1088 1275 
Q 1088 772 1336 495 
Q 1584 219 2034 219 
Q 2484 219 2732 495 
Q 2981 772 2981 1275 
z
M 2853 3541 
Q 2853 3966 2637 4203 
Q 2422 4441 2034 4441 
Q 1650 4441 1433 4203 
Q 1216 3966 1216 3541 
Q 1216 3113 1433 2875 
Q 1650 2638 2034 2638 
Q 2422 2638 2637 2875 
Q 2853 3113 2853 3541 
z
M 2516 2484 
Q 3047 2413 3344 2092 
Q 3641 1772 3641 1275 
Q 3641 619 3225 264 
Q 2809 -91 2034 -91 
Q 1263 -91 845 264 
Q 428 619 428 1275 
Q 428 1772 725 2092 
Q 1022 2413 1556 2484 
Q 1084 2569 832 2842 
Q 581 3116 581 3541 
Q 581 4103 968 4426 
Q 1356 4750 2034 4750 
Q 2713 4750 3100 4426 
Q 3488 4103 3488 3541 
Q 3488 3116 3236 2842 
Q 2984 2569 2516 2484 
z
" transform="scale(0.015625)"/>
      </defs>
      <use xlink:href="#DejaVuSerif-32" transform="translate(0.908359 37.046875) scale(0.7)"/>
      <use xlink:href="#DejaVuSerif-33" transform="translate(45.444492 37.046875) scale(0.7)"/>
      <use xlink:href="#DejaVuSerif-38" transform="translate(88.755625 37.046875) scale(0.7)"/>
      <use xlink:href="#DejaVuSerif-55" transform="translate(135.88707 0.7125)"/>
     </g>
    </g>
   </g>
  </g>
 </g>
 <defs>
  <clipPath id="pf39077c0d8">
   <rect x="71.99" y="57.914" width="772.01" height="508.966"/>
  </clipPath>
 </defs>
</svg>
