<?xml version="1.0" encoding="utf-8" standalone="no"?>
<!DOCTYPE svg PUBLIC "-//W3C//DTD SVG 1.1//EN"
  "http://www.w3.org/Graphics/SVG/1.1/DTD/svg11.dtd">
<svg xmlns:xlink="http://www.w3.org/1999/xlink" width="864pt" height="648pt" viewBox="0 0 864 648" xmlns="http://www.w3.org/2000/svg" version="1.1">
 <metadata>
  <rdf:RDF xmlns:dc="http://purl.org/dc/elements/1.1/" xmlns:cc="http://creativecommons.org/ns#" xmlns:rdf="http://www.w3.org/1999/02/22-rdf-syntax-ns#">
   <cc:Work>
    <dc:type rdf:resource="http://purl.org/dc/dcmitype/StillImage"/>
    <dc:date>2025-10-21T14:38:08.562134</dc:date>
    <dc:format>image/svg+xml</dc:format>
    <dc:creator>
     <cc:Agent>
      <dc:title>Matplotlib v3.10.7, https://matplotlib.org/</dc:title>
     </cc:Agent>
    </dc:creator>
   </cc:Work>
  </rdf:RDF>
 </metadata>
 <defs>
  <style type="text/css">*{stroke-linejoin: round; stroke-linecap: butt}</style>
 </defs>
 <g id="figure_1">
  <g id="patch_1">
   <path d="M 0 648 
L 864 648 
L 864 0 
L 0 0 
z
" style="fill: #ffffff; stroke: #000000; stroke-width: 3; stroke-linejoin: miter"/>
  </g>
  <g id="axes_1">
   <g id="patch_2">
    <path d="M 76.4 560.571 
L 844 560.571 
L 844 62.234 
L 76.4 62.234 
L 76.4 560.571 
z
" style="fill: none"/>
   </g>
   <g id="matplotlib.axis_1">
    <g id="xtick_1">
     <g id="line2d_1">
      <path d="M 76.4 560.571 
L 76.4 62.234 
" clip-path="url(#pea6c6965c2)" style="fill: none; stroke-dasharray: 4.625,2; stroke-dashoffset: 0; stroke: #343837; stroke-opacity: 0.8; stroke-width: 1.25"/>
     </g>
     <g id="line2d_2">
      <defs>
       <path id="m82778f4c86" d="M 0 0 
L 0 3.5 
" style="stroke: #000000; stroke-width: 0.8"/>
      </defs>
      <g>
       <use xlink:href="#m82778f4c86" x="76.4" y="560.571" style="stroke: #000000; stroke-width: 0.8"/>
      </g>
     </g>
     <g id="text_1">
      <!-- $\mathdefault{10^{-11}}$ -->
      <g transform="translate(45.71 584.287562) scale(0.22 -0.22)">
       <defs>
        <path id="DejaVuSerif-31" d="M 909 0 
L 909 331 
L 1722 331 
L 1722 4213 
L 781 3603 
L 781 4013 
L 1919 4750 
L 2350 4750 
L 2350 331 
L 3163 331 
L 3163 0 
L 909 0 
z
" transform="scale(0.015625)"/>
        <path id="DejaVuSerif-30" d="M 2034 219 
Q 2513 219 2750 744 
Q 2988 1269 2988 2328 
Q 2988 3391 2750 3916 
Q 2513 4441 2034 4441 
Q 1556 4441 1318 3916 
Q 1081 3391 1081 2328 
Q 1081 1269 1318 744 
Q 1556 219 2034 219 
z
M 2034 -91 
Q 1275 -91 848 546 
Q 422 1184 422 2328 
Q 422 3475 848 4112 
Q 1275 4750 2034 4750 
Q 2797 4750 3222 4112 
Q 3647 3475 3647 2328 
Q 3647 1184 3222 546 
Q 2797 -91 2034 -91 
z
" transform="scale(0.015625)"/>
        <path id="DejaVuSerif-2212" d="M 678 2259 
L 4684 2259 
L 4684 1753 
L 678 1753 
L 678 2259 
z
" transform="scale(0.015625)"/>
       </defs>
       <use xlink:href="#DejaVuSerif-31" transform="translate(0 0.7125)"/>
       <use xlink:href="#DejaVuSerif-30" transform="translate(63.623047 0.7125)"/>
       <use xlink:href="#DejaVuSerif-2212" transform="translate(128.154453 37.046875) scale(0.7)"/>
       <use xlink:href="#DejaVuSerif-31" transform="translate(186.806797 37.046875) scale(0.7)"/>
       <use xlink:href="#DejaVuSerif-31" transform="translate(231.34293 37.046875) scale(0.7)"/>
      </g>
     </g>
    </g>
    <g id="xtick_2">
     <g id="line2d_3">
      <path d="M 198.78454 560.571 
L 198.78454 62.234 
" clip-path="url(#pea6c6965c2)" style="fill: none; stroke-dasharray: 4.625,2; stroke-dashoffset: 0; stroke: #343837; stroke-opacity: 0.8; stroke-width: 1.25"/>
     </g>
     <g id="line2d_4">
      <g>
       <use xlink:href="#m82778f4c86" x="198.78454" y="560.571" style="stroke: #000000; stroke-width: 0.8"/>
      </g>
     </g>
     <g id="text_2">
      <!-- $\mathdefault{10^{-9}}$ -->
      <g transform="translate(173.04454 584.287562) scale(0.22 -0.22)">
       <defs>
        <path id="DejaVuSerif-39" d="M 2994 2091 
Q 2784 1856 2512 1740 
Q 2241 1625 1900 1625 
Q 1206 1625 804 2044 
Q 403 2463 403 3188 
Q 403 3897 839 4323 
Q 1275 4750 2003 4750 
Q 2794 4750 3217 4161 
Q 3641 3572 3641 2478 
Q 3641 1253 3137 581 
Q 2634 -91 1722 -91 
Q 1475 -91 1203 -44 
Q 931 3 647 97 
L 647 872 
L 997 872 
Q 1038 556 1241 387 
Q 1444 219 1784 219 
Q 2391 219 2687 676 
Q 2984 1134 2994 2091 
z
M 1978 4441 
Q 1534 4441 1298 4117 
Q 1063 3794 1063 3188 
Q 1063 2581 1298 2256 
Q 1534 1931 1978 1931 
Q 2422 1931 2658 2245 
Q 2894 2559 2894 3150 
Q 2894 3772 2656 4106 
Q 2419 4441 1978 4441 
z
" transform="scale(0.015625)"/>
       </defs>
       <use xlink:href="#DejaVuSerif-31" transform="translate(0 0.7125)"/>
       <use xlink:href="#DejaVuSerif-30" transform="translate(63.623047 0.7125)"/>
       <use xlink:href="#DejaVuSerif-2212" transform="translate(128.154453 37.046875) scale(0.7)"/>
       <use xlink:href="#DejaVuSerif-39" transform="translate(186.806797 37.046875) scale(0.7)"/>
      </g>
     </g>
    </g>
    <g id="xtick_3">
     <g id="line2d_5">
      <path d="M 321.16908 560.571 
L 321.16908 62.234 
" clip-path="url(#pea6c6965c2)" style="fill: none; stroke-dasharray: 4.625,2; stroke-dashoffset: 0; stroke: #343837; stroke-opacity: 0.8; stroke-width: 1.25"/>
     </g>
     <g id="line2d_6">
      <g>
       <use xlink:href="#m82778f4c86" x="321.16908" y="560.571" style="stroke: #000000; stroke-width: 0.8"/>
      </g>
     </g>
     <g id="text_3">
      <!-- $\mathdefault{10^{-7}}$ -->
      <g transform="translate(295.42908 584.287562) scale(0.22 -0.22)">
       <defs>
        <path id="DejaVuSerif-37" d="M 3609 4347 
L 1784 0 
L 1319 0 
L 3059 4153 
L 903 4153 
L 903 3578 
L 538 3578 
L 538 4666 
L 3609 4666 
L 3609 4347 
z
" transform="scale(0.015625)"/>
       </defs>
       <use xlink:href="#DejaVuSerif-31" transform="translate(0 0.63125)"/>
       <use xlink:href="#DejaVuSerif-30" transform="translate(63.623047 0.63125)"/>
       <use xlink:href="#DejaVuSerif-2212" transform="translate(128.154453 36.965625) scale(0.7)"/>
       <use xlink:href="#DejaVuSerif-37" transform="translate(186.806797 36.965625) scale(0.7)"/>
      </g>
     </g>
    </g>
    <g id="xtick_4">
     <g id="line2d_7">
      <path d="M 443.553621 560.571 
L 443.553621 62.234 
" clip-path="url(#pea6c6965c2)" style="fill: none; stroke-dasharray: 4.625,2; stroke-dashoffset: 0; stroke: #343837; stroke-opacity: 0.8; stroke-width: 1.25"/>
     </g>
     <g id="line2d_8">
      <g>
       <use xlink:href="#m82778f4c86" x="443.553621" y="560.571" style="stroke: #000000; stroke-width: 0.8"/>
      </g>
     </g>
     <g id="text_4">
      <!-- $\mathdefault{10^{-5}}$ -->
      <g transform="translate(417.813621 584.287562) scale(0.22 -0.22)">
       <defs>
        <path id="DejaVuSerif-35" d="M 3219 4666 
L 3219 4153 
L 1081 4153 
L 1081 2816 
Q 1244 2928 1461 2984 
Q 1678 3041 1947 3041 
Q 2703 3041 3140 2622 
Q 3578 2203 3578 1478 
Q 3578 738 3136 323 
Q 2694 -91 1894 -91 
Q 1572 -91 1234 -12 
Q 897 66 544 225 
L 544 1131 
L 897 1131 
Q 925 688 1179 453 
Q 1434 219 1894 219 
Q 2388 219 2653 544 
Q 2919 869 2919 1478 
Q 2919 2084 2655 2407 
Q 2391 2731 1894 2731 
Q 1613 2731 1398 2631 
Q 1184 2531 1019 2322 
L 750 2322 
L 750 4666 
L 3219 4666 
z
" transform="scale(0.015625)"/>
       </defs>
       <use xlink:href="#DejaVuSerif-31" transform="translate(0 0.63125)"/>
       <use xlink:href="#DejaVuSerif-30" transform="translate(63.623047 0.63125)"/>
       <use xlink:href="#DejaVuSerif-2212" transform="translate(128.154453 36.965625) scale(0.7)"/>
       <use xlink:href="#DejaVuSerif-35" transform="translate(186.806797 36.965625) scale(0.7)"/>
      </g>
     </g>
    </g>
    <g id="xtick_5">
     <g id="line2d_9">
      <path d="M 565.938161 560.571 
L 565.938161 62.234 
" clip-path="url(#pea6c6965c2)" style="fill: none; stroke-dasharray: 4.625,2; stroke-dashoffset: 0; stroke: #343837; stroke-opacity: 0.8; stroke-width: 1.25"/>
     </g>
     <g id="line2d_10">
      <g>
       <use xlink:href="#m82778f4c86" x="565.938161" y="560.571" style="stroke: #000000; stroke-width: 0.8"/>
      </g>
     </g>
     <g id="text_5">
      <!-- $\mathdefault{10^{-3}}$ -->
      <g transform="translate(540.198161 584.287562) scale(0.22 -0.22)">
       <defs>
        <path id="DejaVuSerif-33" d="M 622 4469 
Q 988 4606 1323 4678 
Q 1659 4750 1953 4750 
Q 2638 4750 3022 4454 
Q 3406 4159 3406 3634 
Q 3406 3213 3140 2930 
Q 2875 2647 2388 2547 
Q 2963 2466 3280 2130 
Q 3597 1794 3597 1259 
Q 3597 606 3158 257 
Q 2719 -91 1894 -91 
Q 1528 -91 1179 -12 
Q 831 66 488 225 
L 488 1131 
L 838 1131 
Q 869 681 1141 450 
Q 1413 219 1906 219 
Q 2384 219 2661 495 
Q 2938 772 2938 1253 
Q 2938 1803 2653 2086 
Q 2369 2369 1819 2369 
L 1522 2369 
L 1522 2688 
L 1678 2688 
Q 2225 2688 2498 2914 
Q 2772 3141 2772 3597 
Q 2772 4006 2547 4223 
Q 2322 4441 1900 4441 
Q 1478 4441 1245 4241 
Q 1013 4041 972 3647 
L 622 3647 
L 622 4469 
z
" transform="scale(0.015625)"/>
       </defs>
       <use xlink:href="#DejaVuSerif-31" transform="translate(0 0.7125)"/>
       <use xlink:href="#DejaVuSerif-30" transform="translate(63.623047 0.7125)"/>
       <use xlink:href="#DejaVuSerif-2212" transform="translate(128.154453 37.046875) scale(0.7)"/>
       <use xlink:href="#DejaVuSerif-33" transform="translate(186.806797 37.046875) scale(0.7)"/>
      </g>
     </g>
    </g>
    <g id="xtick_6">
     <g id="line2d_11">
      <path d="M 688.322701 560.571 
L 688.322701 62.234 
" clip-path="url(#pea6c6965c2)" style="fill: none; stroke-dasharray: 4.625,2; stroke-dashoffset: 0; stroke: #343837; stroke-opacity: 0.8; stroke-width: 1.25"/>
     </g>
     <g id="line2d_12">
      <g>
       <use xlink:href="#m82778f4c86" x="688.322701" y="560.571" style="stroke: #000000; stroke-width: 0.8"/>
      </g>
     </g>
     <g id="text_6">
      <!-- $\mathdefault{10^{-1}}$ -->
      <g transform="translate(662.582701 584.287562) scale(0.22 -0.22)">
       <use xlink:href="#DejaVuSerif-31" transform="translate(0 0.7125)"/>
       <use xlink:href="#DejaVuSerif-30" transform="translate(63.623047 0.7125)"/>
       <use xlink:href="#DejaVuSerif-2212" transform="translate(128.154453 37.046875) scale(0.7)"/>
       <use xlink:href="#DejaVuSerif-31" transform="translate(186.806797 37.046875) scale(0.7)"/>
      </g>
     </g>
    </g>
    <g id="xtick_7">
     <g id="line2d_13">
      <path d="M 810.707241 560.571 
L 810.707241 62.234 
" clip-path="url(#pea6c6965c2)" style="fill: none; stroke-dasharray: 4.625,2; stroke-dashoffset: 0; stroke: #343837; stroke-opacity: 0.8; stroke-width: 1.25"/>
     </g>
     <g id="line2d_14">
      <g>
       <use xlink:href="#m82778f4c86" x="810.707241" y="560.571" style="stroke: #000000; stroke-width: 0.8"/>
      </g>
     </g>
     <g id="text_7">
      <!-- $\mathdefault{10^{1}}$ -->
      <g transform="translate(791.347241 584.287562) scale(0.22 -0.22)">
       <use xlink:href="#DejaVuSerif-31" transform="translate(0 0.7125)"/>
       <use xlink:href="#DejaVuSerif-30" transform="translate(63.623047 0.7125)"/>
       <use xlink:href="#DejaVuSerif-31" transform="translate(128.154453 37.046875) scale(0.7)"/>
      </g>
     </g>
    </g>
    <g id="text_8">
     <!-- Energy of incident neutron (MeV) -->
     <g transform="translate(237.400313 620.618812) scale(0.26 -0.26)">
      <defs>
       <path id="DejaVuSerif-45" d="M 353 0 
L 353 331 
L 947 331 
L 947 4331 
L 353 4331 
L 353 4666 
L 4109 4666 
L 4109 3628 
L 3725 3628 
L 3725 4281 
L 1581 4281 
L 1581 2719 
L 3109 2719 
L 3109 3303 
L 3494 3303 
L 3494 1753 
L 3109 1753 
L 3109 2338 
L 1581 2338 
L 1581 384 
L 3775 384 
L 3775 1038 
L 4159 1038 
L 4159 0 
L 353 0 
z
" transform="scale(0.015625)"/>
       <path id="DejaVuSerif-6e" d="M 263 0 
L 263 331 
L 781 331 
L 781 2988 
L 231 2988 
L 231 3322 
L 1356 3322 
L 1356 2731 
Q 1516 3069 1770 3241 
Q 2025 3413 2363 3413 
Q 2913 3413 3172 3097 
Q 3431 2781 3431 2113 
L 3431 331 
L 3944 331 
L 3944 0 
L 2356 0 
L 2356 331 
L 2853 331 
L 2853 1931 
Q 2853 2541 2703 2767 
Q 2553 2994 2175 2994 
Q 1775 2994 1565 2701 
Q 1356 2409 1356 1850 
L 1356 331 
L 1856 331 
L 1856 0 
L 263 0 
z
" transform="scale(0.015625)"/>
       <path id="DejaVuSerif-65" d="M 3469 1600 
L 991 1600 
L 991 1575 
Q 991 903 1244 561 
Q 1497 219 1991 219 
Q 2369 219 2611 417 
Q 2853 616 2950 1006 
L 3413 1006 
Q 3275 459 2904 184 
Q 2534 -91 1931 -91 
Q 1203 -91 761 389 
Q 319 869 319 1663 
Q 319 2450 753 2931 
Q 1188 3413 1894 3413 
Q 2647 3413 3050 2948 
Q 3453 2484 3469 1600 
z
M 2791 1931 
Q 2772 2513 2545 2808 
Q 2319 3103 1894 3103 
Q 1497 3103 1269 2806 
Q 1041 2509 991 1931 
L 2791 1931 
z
" transform="scale(0.015625)"/>
       <path id="DejaVuSerif-72" d="M 3059 3328 
L 3059 2497 
L 2728 2497 
Q 2713 2744 2591 2866 
Q 2469 2988 2234 2988 
Q 1809 2988 1582 2694 
Q 1356 2400 1356 1850 
L 1356 331 
L 2022 331 
L 2022 0 
L 263 0 
L 263 331 
L 781 331 
L 781 2994 
L 231 2994 
L 231 3322 
L 1356 3322 
L 1356 2731 
Q 1525 3078 1790 3245 
Q 2056 3413 2438 3413 
Q 2578 3413 2733 3391 
Q 2888 3369 3059 3328 
z
" transform="scale(0.015625)"/>
       <path id="DejaVuSerif-67" d="M 3359 2988 
L 3359 72 
Q 3359 -644 2965 -1033 
Q 2572 -1422 1844 -1422 
Q 1516 -1422 1216 -1362 
Q 916 -1303 641 -1184 
L 641 -488 
L 941 -488 
Q 997 -813 1206 -963 
Q 1416 -1113 1806 -1113 
Q 2313 -1113 2548 -827 
Q 2784 -541 2784 72 
L 2784 519 
Q 2616 206 2355 57 
Q 2094 -91 1709 -91 
Q 1097 -91 708 395 
Q 319 881 319 1663 
Q 319 2444 706 2928 
Q 1094 3413 1709 3413 
Q 2094 3413 2355 3264 
Q 2616 3116 2784 2803 
L 2784 3322 
L 3909 3322 
L 3909 2988 
L 3359 2988 
z
M 2784 1825 
Q 2784 2422 2554 2737 
Q 2325 3053 1888 3053 
Q 1444 3053 1217 2703 
Q 991 2353 991 1663 
Q 991 975 1217 622 
Q 1444 269 1888 269 
Q 2325 269 2554 583 
Q 2784 897 2784 1497 
L 2784 1825 
z
" transform="scale(0.015625)"/>
       <path id="DejaVuSerif-79" d="M 1381 -609 
L 1600 -56 
L 359 2988 
L -19 2988 
L -19 3322 
L 1509 3322 
L 1509 2988 
L 978 2988 
L 1913 703 
L 2847 2988 
L 2350 2988 
L 2350 3322 
L 3597 3322 
L 3597 2988 
L 3225 2988 
L 1703 -750 
Q 1547 -1138 1356 -1280 
Q 1166 -1422 819 -1422 
Q 672 -1422 517 -1397 
Q 363 -1372 206 -1325 
L 206 -691 
L 500 -691 
Q 519 -903 608 -995 
Q 697 -1088 884 -1088 
Q 1056 -1088 1161 -992 
Q 1266 -897 1381 -609 
z
" transform="scale(0.015625)"/>
       <path id="DejaVuSerif-20" transform="scale(0.015625)"/>
       <path id="DejaVuSerif-6f" d="M 1925 219 
Q 2388 219 2623 584 
Q 2859 950 2859 1663 
Q 2859 2375 2623 2739 
Q 2388 3103 1925 3103 
Q 1463 3103 1227 2739 
Q 991 2375 991 1663 
Q 991 950 1228 584 
Q 1466 219 1925 219 
z
M 1925 -91 
Q 1200 -91 759 389 
Q 319 869 319 1663 
Q 319 2456 758 2934 
Q 1197 3413 1925 3413 
Q 2653 3413 3092 2934 
Q 3531 2456 3531 1663 
Q 3531 869 3092 389 
Q 2653 -91 1925 -91 
z
" transform="scale(0.015625)"/>
       <path id="DejaVuSerif-66" d="M 2753 4078 
L 2450 4078 
Q 2447 4313 2317 4434 
Q 2188 4556 1941 4556 
Q 1619 4556 1487 4379 
Q 1356 4203 1356 3750 
L 1356 3322 
L 2284 3322 
L 2284 2988 
L 1356 2988 
L 1356 331 
L 2094 331 
L 2094 0 
L 231 0 
L 231 331 
L 781 331 
L 781 2988 
L 231 2988 
L 231 3322 
L 781 3322 
L 781 3738 
Q 781 4294 1070 4578 
Q 1359 4863 1919 4863 
Q 2128 4863 2337 4825 
Q 2547 4788 2753 4709 
L 2753 4078 
z
" transform="scale(0.015625)"/>
       <path id="DejaVuSerif-69" d="M 622 4353 
Q 622 4497 726 4603 
Q 831 4709 978 4709 
Q 1122 4709 1226 4603 
Q 1331 4497 1331 4353 
Q 1331 4206 1228 4103 
Q 1125 4000 978 4000 
Q 831 4000 726 4103 
Q 622 4206 622 4353 
z
M 1356 331 
L 1900 331 
L 1900 0 
L 231 0 
L 231 331 
L 781 331 
L 781 2988 
L 231 2988 
L 231 3322 
L 1356 3322 
L 1356 331 
z
" transform="scale(0.015625)"/>
       <path id="DejaVuSerif-63" d="M 3291 997 
Q 3169 466 2822 187 
Q 2475 -91 1925 -91 
Q 1200 -91 759 389 
Q 319 869 319 1663 
Q 319 2459 759 2936 
Q 1200 3413 1925 3413 
Q 2241 3413 2553 3339 
Q 2866 3266 3181 3116 
L 3181 2266 
L 2847 2266 
Q 2781 2703 2561 2903 
Q 2341 3103 1931 3103 
Q 1466 3103 1228 2742 
Q 991 2381 991 1663 
Q 991 944 1227 581 
Q 1463 219 1931 219 
Q 2303 219 2525 412 
Q 2747 606 2828 997 
L 3291 997 
z
" transform="scale(0.015625)"/>
       <path id="DejaVuSerif-64" d="M 3359 331 
L 3909 331 
L 3909 0 
L 2784 0 
L 2784 519 
Q 2616 206 2355 57 
Q 2094 -91 1709 -91 
Q 1097 -91 708 395 
Q 319 881 319 1663 
Q 319 2444 706 2928 
Q 1094 3413 1709 3413 
Q 2094 3413 2355 3264 
Q 2616 3116 2784 2803 
L 2784 4531 
L 2241 4531 
L 2241 4863 
L 3359 4863 
L 3359 331 
z
M 2784 1497 
L 2784 1825 
Q 2784 2422 2554 2737 
Q 2325 3053 1888 3053 
Q 1444 3053 1217 2703 
Q 991 2353 991 1663 
Q 991 975 1217 622 
Q 1444 269 1888 269 
Q 2325 269 2554 583 
Q 2784 897 2784 1497 
z
" transform="scale(0.015625)"/>
       <path id="DejaVuSerif-74" d="M 691 2988 
L 184 2988 
L 184 3322 
L 691 3322 
L 691 4353 
L 1269 4353 
L 1269 3322 
L 2350 3322 
L 2350 2988 
L 1269 2988 
L 1269 878 
Q 1269 456 1350 337 
Q 1431 219 1650 219 
Q 1875 219 1978 351 
Q 2081 484 2088 781 
L 2522 781 
Q 2497 328 2275 118 
Q 2053 -91 1600 -91 
Q 1103 -91 897 129 
Q 691 350 691 878 
L 691 2988 
z
" transform="scale(0.015625)"/>
       <path id="DejaVuSerif-75" d="M 2266 3322 
L 3341 3322 
L 3341 331 
L 3884 331 
L 3884 0 
L 2766 0 
L 2766 588 
Q 2606 256 2353 82 
Q 2100 -91 1766 -91 
Q 1213 -91 952 223 
Q 691 538 691 1209 
L 691 2988 
L 172 2988 
L 172 3322 
L 1269 3322 
L 1269 1388 
Q 1269 781 1417 556 
Q 1566 331 1947 331 
Q 2347 331 2556 625 
Q 2766 919 2766 1478 
L 2766 2988 
L 2266 2988 
L 2266 3322 
z
" transform="scale(0.015625)"/>
       <path id="DejaVuSerif-28" d="M 2041 -997 
Q 1281 -656 893 83 
Q 506 822 506 1931 
Q 506 3044 893 3783 
Q 1281 4522 2041 4863 
L 2041 4556 
Q 1559 4225 1350 3623 
Q 1141 3022 1141 1931 
Q 1141 844 1350 242 
Q 1559 -359 2041 -691 
L 2041 -997 
z
" transform="scale(0.015625)"/>
       <path id="DejaVuSerif-4d" d="M 353 0 
L 353 331 
L 947 331 
L 947 4331 
L 319 4331 
L 319 4666 
L 1678 4666 
L 3316 1344 
L 4953 4666 
L 6228 4666 
L 6228 4331 
L 5606 4331 
L 5606 331 
L 6203 331 
L 6203 0 
L 4378 0 
L 4378 331 
L 4972 331 
L 4972 3938 
L 3372 684 
L 2931 684 
L 1331 3938 
L 1331 331 
L 1925 331 
L 1925 0 
L 353 0 
z
" transform="scale(0.015625)"/>
       <path id="DejaVuSerif-56" d="M 1119 4331 
L 2497 750 
L 3872 4331 
L 3347 4331 
L 3347 4666 
L 4716 4666 
L 4716 4331 
L 4263 4331 
L 2597 0 
L 2059 0 
L 403 4331 
L -63 4331 
L -63 4666 
L 1638 4666 
L 1638 4331 
L 1119 4331 
z
" transform="scale(0.015625)"/>
       <path id="DejaVuSerif-29" d="M 453 -997 
L 453 -691 
Q 934 -359 1145 242 
Q 1356 844 1356 1931 
Q 1356 3022 1145 3623 
Q 934 4225 453 4556 
L 453 4863 
Q 1216 4522 1603 3783 
Q 1991 3044 1991 1931 
Q 1991 822 1603 83 
Q 1216 -656 453 -997 
z
" transform="scale(0.015625)"/>
      </defs>
      <use xlink:href="#DejaVuSerif-45"/>
      <use xlink:href="#DejaVuSerif-6e" transform="translate(72.998047 0)"/>
      <use xlink:href="#DejaVuSerif-65" transform="translate(137.402344 0)"/>
      <use xlink:href="#DejaVuSerif-72" transform="translate(196.582031 0)"/>
      <use xlink:href="#DejaVuSerif-67" transform="translate(244.384766 0)"/>
      <use xlink:href="#DejaVuSerif-79" transform="translate(308.398438 0)"/>
      <use xlink:href="#DejaVuSerif-20" transform="translate(364.892578 0)"/>
      <use xlink:href="#DejaVuSerif-6f" transform="translate(396.679688 0)"/>
      <use xlink:href="#DejaVuSerif-66" transform="translate(456.884766 0)"/>
      <use xlink:href="#DejaVuSerif-20" transform="translate(493.896484 0)"/>
      <use xlink:href="#DejaVuSerif-69" transform="translate(525.683594 0)"/>
      <use xlink:href="#DejaVuSerif-6e" transform="translate(557.666016 0)"/>
      <use xlink:href="#DejaVuSerif-63" transform="translate(622.070312 0)"/>
      <use xlink:href="#DejaVuSerif-69" transform="translate(678.076172 0)"/>
      <use xlink:href="#DejaVuSerif-64" transform="translate(710.058594 0)"/>
      <use xlink:href="#DejaVuSerif-65" transform="translate(774.072266 0)"/>
      <use xlink:href="#DejaVuSerif-6e" transform="translate(833.251953 0)"/>
      <use xlink:href="#DejaVuSerif-74" transform="translate(897.65625 0)"/>
      <use xlink:href="#DejaVuSerif-20" transform="translate(937.841797 0)"/>
      <use xlink:href="#DejaVuSerif-6e" transform="translate(969.628906 0)"/>
      <use xlink:href="#DejaVuSerif-65" transform="translate(1034.033203 0)"/>
      <use xlink:href="#DejaVuSerif-75" transform="translate(1093.212891 0)"/>
      <use xlink:href="#DejaVuSerif-74" transform="translate(1157.617188 0)"/>
      <use xlink:href="#DejaVuSerif-72" transform="translate(1197.802734 0)"/>
      <use xlink:href="#DejaVuSerif-6f" transform="translate(1245.605469 0)"/>
      <use xlink:href="#DejaVuSerif-6e" transform="translate(1305.810547 0)"/>
      <use xlink:href="#DejaVuSerif-20" transform="translate(1370.214844 0)"/>
      <use xlink:href="#DejaVuSerif-28" transform="translate(1402.001953 0)"/>
      <use xlink:href="#DejaVuSerif-4d" transform="translate(1441.015625 0)"/>
      <use xlink:href="#DejaVuSerif-65" transform="translate(1543.408203 0)"/>
      <use xlink:href="#DejaVuSerif-56" transform="translate(1602.587891 0)"/>
      <use xlink:href="#DejaVuSerif-29" transform="translate(1674.804688 0)"/>
     </g>
    </g>
   </g>
   <g id="matplotlib.axis_2">
    <g id="ytick_1">
     <g id="line2d_15">
      <path d="M 76.4 560.571 
L 844 560.571 
" clip-path="url(#pea6c6965c2)" style="fill: none; stroke-dasharray: 4.625,2; stroke-dashoffset: 0; stroke: #343837; stroke-opacity: 0.8; stroke-width: 1.25"/>
     </g>
     <g id="line2d_16">
      <defs>
       <path id="mf9521b5c7d" d="M 0 0 
L -3.5 0 
" style="stroke: #000000; stroke-width: 0.8"/>
      </defs>
      <g>
       <use xlink:href="#mf9521b5c7d" x="76.4" y="560.571" style="stroke: #000000; stroke-width: 0.8"/>
      </g>
     </g>
     <g id="text_9">
      <!-- 0 -->
      <g transform="translate(55.4025 568.929281) scale(0.22 -0.22)">
       <use xlink:href="#DejaVuSerif-30"/>
      </g>
     </g>
    </g>
    <g id="ytick_2">
     <g id="line2d_17">
      <path d="M 76.4 489.38 
L 844 489.38 
" clip-path="url(#pea6c6965c2)" style="fill: none; stroke-dasharray: 4.625,2; stroke-dashoffset: 0; stroke: #343837; stroke-opacity: 0.8; stroke-width: 1.25"/>
     </g>
     <g id="line2d_18">
      <g>
       <use xlink:href="#mf9521b5c7d" x="76.4" y="489.38" style="stroke: #000000; stroke-width: 0.8"/>
      </g>
     </g>
     <g id="text_10">
      <!-- 1 -->
      <g transform="translate(55.4025 497.738281) scale(0.22 -0.22)">
       <use xlink:href="#DejaVuSerif-31"/>
      </g>
     </g>
    </g>
    <g id="ytick_3">
     <g id="line2d_19">
      <path d="M 76.4 418.189 
L 844 418.189 
" clip-path="url(#pea6c6965c2)" style="fill: none; stroke-dasharray: 4.625,2; stroke-dashoffset: 0; stroke: #343837; stroke-opacity: 0.8; stroke-width: 1.25"/>
     </g>
     <g id="line2d_20">
      <g>
       <use xlink:href="#mf9521b5c7d" x="76.4" y="418.189" style="stroke: #000000; stroke-width: 0.8"/>
      </g>
     </g>
     <g id="text_11">
      <!-- 2 -->
      <g transform="translate(55.4025 426.547281) scale(0.22 -0.22)">
       <defs>
        <path id="DejaVuSerif-32" d="M 819 3553 
L 469 3553 
L 469 4384 
Q 803 4563 1142 4656 
Q 1481 4750 1806 4750 
Q 2534 4750 2956 4397 
Q 3378 4044 3378 3438 
Q 3378 2753 2422 1800 
Q 2347 1728 2309 1691 
L 1131 513 
L 3078 513 
L 3078 1088 
L 3444 1088 
L 3444 0 
L 434 0 
L 434 341 
L 1850 1753 
Q 2319 2222 2519 2614 
Q 2719 3006 2719 3438 
Q 2719 3909 2473 4175 
Q 2228 4441 1797 4441 
Q 1350 4441 1106 4219 
Q 863 3997 819 3553 
z
" transform="scale(0.015625)"/>
       </defs>
       <use xlink:href="#DejaVuSerif-32"/>
      </g>
     </g>
    </g>
    <g id="ytick_4">
     <g id="line2d_21">
      <path d="M 76.4 346.998 
L 844 346.998 
" clip-path="url(#pea6c6965c2)" style="fill: none; stroke-dasharray: 4.625,2; stroke-dashoffset: 0; stroke: #343837; stroke-opacity: 0.8; stroke-width: 1.25"/>
     </g>
     <g id="line2d_22">
      <g>
       <use xlink:href="#mf9521b5c7d" x="76.4" y="346.998" style="stroke: #000000; stroke-width: 0.8"/>
      </g>
     </g>
     <g id="text_12">
      <!-- 3 -->
      <g transform="translate(55.4025 355.356281) scale(0.22 -0.22)">
       <use xlink:href="#DejaVuSerif-33"/>
      </g>
     </g>
    </g>
    <g id="ytick_5">
     <g id="line2d_23">
      <path d="M 76.4 275.807 
L 844 275.807 
" clip-path="url(#pea6c6965c2)" style="fill: none; stroke-dasharray: 4.625,2; stroke-dashoffset: 0; stroke: #343837; stroke-opacity: 0.8; stroke-width: 1.25"/>
     </g>
     <g id="line2d_24">
      <g>
       <use xlink:href="#mf9521b5c7d" x="76.4" y="275.807" style="stroke: #000000; stroke-width: 0.8"/>
      </g>
     </g>
     <g id="text_13">
      <!-- 4 -->
      <g transform="translate(55.4025 284.165281) scale(0.22 -0.22)">
       <defs>
        <path id="DejaVuSerif-34" d="M 2234 1581 
L 2234 4063 
L 641 1581 
L 2234 1581 
z
M 3609 0 
L 1484 0 
L 1484 331 
L 2234 331 
L 2234 1247 
L 197 1247 
L 197 1588 
L 2241 4750 
L 2859 4750 
L 2859 1581 
L 3750 1581 
L 3750 1247 
L 2859 1247 
L 2859 331 
L 3609 331 
L 3609 0 
z
" transform="scale(0.015625)"/>
       </defs>
       <use xlink:href="#DejaVuSerif-34"/>
      </g>
     </g>
    </g>
    <g id="ytick_6">
     <g id="line2d_25">
      <path d="M 76.4 204.616 
L 844 204.616 
" clip-path="url(#pea6c6965c2)" style="fill: none; stroke-dasharray: 4.625,2; stroke-dashoffset: 0; stroke: #343837; stroke-opacity: 0.8; stroke-width: 1.25"/>
     </g>
     <g id="line2d_26">
      <g>
       <use xlink:href="#mf9521b5c7d" x="76.4" y="204.616" style="stroke: #000000; stroke-width: 0.8"/>
      </g>
     </g>
     <g id="text_14">
      <!-- 5 -->
      <g transform="translate(55.4025 212.974281) scale(0.22 -0.22)">
       <use xlink:href="#DejaVuSerif-35"/>
      </g>
     </g>
    </g>
    <g id="ytick_7">
     <g id="line2d_27">
      <path d="M 76.4 133.425 
L 844 133.425 
" clip-path="url(#pea6c6965c2)" style="fill: none; stroke-dasharray: 4.625,2; stroke-dashoffset: 0; stroke: #343837; stroke-opacity: 0.8; stroke-width: 1.25"/>
     </g>
     <g id="line2d_28">
      <g>
       <use xlink:href="#mf9521b5c7d" x="76.4" y="133.425" style="stroke: #000000; stroke-width: 0.8"/>
      </g>
     </g>
     <g id="text_15">
      <!-- 6 -->
      <g transform="translate(55.4025 141.783281) scale(0.22 -0.22)">
       <defs>
        <path id="DejaVuSerif-36" d="M 2094 219 
Q 2534 219 2771 542 
Q 3009 866 3009 1472 
Q 3009 2078 2771 2401 
Q 2534 2725 2094 2725 
Q 1647 2725 1412 2412 
Q 1178 2100 1178 1509 
Q 1178 888 1415 553 
Q 1653 219 2094 219 
z
M 1075 2569 
Q 1288 2803 1556 2918 
Q 1825 3034 2163 3034 
Q 2859 3034 3264 2615 
Q 3669 2197 3669 1472 
Q 3669 763 3233 336 
Q 2797 -91 2069 -91 
Q 1278 -91 853 498 
Q 428 1088 428 2181 
Q 428 3406 931 4078 
Q 1434 4750 2350 4750 
Q 2597 4750 2869 4703 
Q 3141 4656 3425 4563 
L 3425 3794 
L 3072 3794 
Q 3034 4109 2831 4275 
Q 2628 4441 2284 4441 
Q 1678 4441 1381 3981 
Q 1084 3522 1075 2569 
z
" transform="scale(0.015625)"/>
       </defs>
       <use xlink:href="#DejaVuSerif-36"/>
      </g>
     </g>
    </g>
    <g id="ytick_8">
     <g id="line2d_29">
      <path d="M 76.4 62.234 
L 844 62.234 
" clip-path="url(#pea6c6965c2)" style="fill: none; stroke-dasharray: 4.625,2; stroke-dashoffset: 0; stroke: #343837; stroke-opacity: 0.8; stroke-width: 1.25"/>
     </g>
     <g id="line2d_30">
      <g>
       <use xlink:href="#mf9521b5c7d" x="76.4" y="62.234" style="stroke: #000000; stroke-width: 0.8"/>
      </g>
     </g>
     <g id="text_16">
      <!-- 7 -->
      <g transform="translate(55.4025 70.592281) scale(0.22 -0.22)">
       <use xlink:href="#DejaVuSerif-37"/>
      </g>
     </g>
    </g>
    <g id="text_17">
     <!-- Neutron reproduction factor $\eta$ -->
     <g transform="translate(41.9425 511.6025) rotate(-90) scale(0.26 -0.26)">
      <defs>
       <path id="DejaVuSerif-4e" d="M 313 0 
L 313 331 
L 941 331 
L 941 4331 
L 313 4331 
L 313 4666 
L 1509 4666 
L 4306 984 
L 4306 4331 
L 3681 4331 
L 3681 4666 
L 5319 4666 
L 5319 4331 
L 4691 4331 
L 4691 -91 
L 4313 -91 
L 1325 3841 
L 1325 331 
L 1953 331 
L 1953 0 
L 313 0 
z
" transform="scale(0.015625)"/>
       <path id="DejaVuSerif-70" d="M 1313 1825 
L 1313 1497 
Q 1313 897 1542 583 
Q 1772 269 2209 269 
Q 2650 269 2876 622 
Q 3103 975 3103 1663 
Q 3103 2353 2876 2703 
Q 2650 3053 2209 3053 
Q 1772 3053 1542 2737 
Q 1313 2422 1313 1825 
z
M 738 2988 
L 184 2988 
L 184 3322 
L 1313 3322 
L 1313 2803 
Q 1481 3116 1742 3264 
Q 2003 3413 2388 3413 
Q 3000 3413 3387 2928 
Q 3775 2444 3775 1663 
Q 3775 881 3387 395 
Q 3000 -91 2388 -91 
Q 2003 -91 1742 57 
Q 1481 206 1313 519 
L 1313 -997 
L 1856 -997 
L 1856 -1331 
L 184 -1331 
L 184 -997 
L 738 -997 
L 738 2988 
z
" transform="scale(0.015625)"/>
       <path id="DejaVuSerif-61" d="M 2547 1044 
L 2547 1747 
L 1806 1747 
Q 1378 1747 1168 1562 
Q 959 1378 959 997 
Q 959 650 1171 447 
Q 1384 244 1747 244 
Q 2106 244 2326 466 
Q 2547 688 2547 1044 
z
M 3122 2075 
L 3122 331 
L 3634 331 
L 3634 0 
L 2547 0 
L 2547 359 
Q 2356 128 2106 18 
Q 1856 -91 1522 -91 
Q 969 -91 644 203 
Q 319 497 319 997 
Q 319 1513 691 1797 
Q 1063 2081 1741 2081 
L 2547 2081 
L 2547 2309 
Q 2547 2688 2317 2895 
Q 2088 3103 1672 3103 
Q 1328 3103 1125 2947 
Q 922 2791 872 2484 
L 575 2484 
L 575 3156 
Q 875 3284 1158 3348 
Q 1441 3413 1709 3413 
Q 2400 3413 2761 3070 
Q 3122 2728 3122 2075 
z
" transform="scale(0.015625)"/>
       <path id="DejaVuSerif-Italic-3b7" d="M 1153 0 
L 578 0 
L 1159 2988 
L 609 2988 
L 675 3322 
L 1800 3322 
L 1684 2731 
Q 1909 3069 2198 3241 
Q 2488 3413 2825 3413 
Q 3366 3413 3572 3097 
Q 3772 2791 3641 2113 
L 2969 -1331 
L 2391 -1331 
L 3025 1931 
Q 3144 2541 3037 2767 
Q 2931 2994 2553 2994 
Q 2153 2994 1887 2701 
Q 1622 2409 1513 1850 
L 1153 0 
z
" transform="scale(0.015625)"/>
      </defs>
      <use xlink:href="#DejaVuSerif-4e" transform="translate(0 0.015625)"/>
      <use xlink:href="#DejaVuSerif-65" transform="translate(87.5 0.015625)"/>
      <use xlink:href="#DejaVuSerif-75" transform="translate(146.679688 0.015625)"/>
      <use xlink:href="#DejaVuSerif-74" transform="translate(211.083984 0.015625)"/>
      <use xlink:href="#DejaVuSerif-72" transform="translate(251.269531 0.015625)"/>
      <use xlink:href="#DejaVuSerif-6f" transform="translate(299.072266 0.015625)"/>
      <use xlink:href="#DejaVuSerif-6e" transform="translate(359.277344 0.015625)"/>
      <use xlink:href="#DejaVuSerif-20" transform="translate(423.681641 0.015625)"/>
      <use xlink:href="#DejaVuSerif-72" transform="translate(455.46875 0.015625)"/>
      <use xlink:href="#DejaVuSerif-65" transform="translate(503.271484 0.015625)"/>
      <use xlink:href="#DejaVuSerif-70" transform="translate(562.451172 0.015625)"/>
      <use xlink:href="#DejaVuSerif-72" transform="translate(626.464844 0.015625)"/>
      <use xlink:href="#DejaVuSerif-6f" transform="translate(674.267578 0.015625)"/>
      <use xlink:href="#DejaVuSerif-64" transform="translate(734.472656 0.015625)"/>
      <use xlink:href="#DejaVuSerif-75" transform="translate(798.486328 0.015625)"/>
      <use xlink:href="#DejaVuSerif-63" transform="translate(862.890625 0.015625)"/>
      <use xlink:href="#DejaVuSerif-74" transform="translate(918.896484 0.015625)"/>
      <use xlink:href="#DejaVuSerif-69" transform="translate(959.082031 0.015625)"/>
      <use xlink:href="#DejaVuSerif-6f" transform="translate(991.064453 0.015625)"/>
      <use xlink:href="#DejaVuSerif-6e" transform="translate(1051.269531 0.015625)"/>
      <use xlink:href="#DejaVuSerif-20" transform="translate(1115.673828 0.015625)"/>
      <use xlink:href="#DejaVuSerif-66" transform="translate(1147.460938 0.015625)"/>
      <use xlink:href="#DejaVuSerif-61" transform="translate(1184.472656 0.015625)"/>
      <use xlink:href="#DejaVuSerif-63" transform="translate(1244.091797 0.015625)"/>
      <use xlink:href="#DejaVuSerif-74" transform="translate(1300.097656 0.015625)"/>
      <use xlink:href="#DejaVuSerif-6f" transform="translate(1340.283203 0.015625)"/>
      <use xlink:href="#DejaVuSerif-72" transform="translate(1400.488281 0.015625)"/>
      <use xlink:href="#DejaVuSerif-20" transform="translate(1448.291016 0.015625)"/>
      <use xlink:href="#DejaVuSerif-Italic-3b7" transform="translate(1480.078125 0.015625)"/>
     </g>
    </g>
   </g>
   <g id="line2d_31">
    <path d="M 76.400027 414.234072 
L 236.884005 414.127126 
L 251.64282 413.87118 
L 263.003977 413.454286 
L 275.205004 412.784297 
L 290.177604 411.990612 
L 299.072596 411.748223 
L 307.158258 411.743481 
L 314.411685 411.954797 
L 320.336589 412.341371 
L 325.06277 412.862503 
L 328.910904 413.50347 
L 332.102411 414.255116 
L 334.881619 415.129778 
L 337.57684 416.221501 
L 340.501116 417.669508 
L 343.93695 419.360262 
L 345.349459 419.789483 
L 346.456561 419.892456 
L 347.418595 419.767835 
L 348.395899 419.409181 
L 349.403743 418.805344 
L 350.625373 417.792898 
L 352.320384 416.075333 
L 355.336283 413.002947 
L 357.023659 411.619777 
L 358.649954 410.572999 
L 360.3526 409.741555 
L 362.238491 409.071434 
L 364.44506 408.530952 
L 367.056294 408.12561 
L 370.209626 407.863935 
L 373.439309 407.811366 
L 375.966556 407.97886 
L 377.737919 408.309312 
L 379.051171 408.774347 
L 380.089556 409.374109 
L 380.967603 410.138037 
L 381.738757 411.104838 
L 382.464099 412.379934 
L 383.166536 414.087919 
L 383.868974 416.415792 
L 384.617222 419.710643 
L 385.579255 425.072727 
L 387.610215 436.779695 
L 388.282111 439.165894 
L 388.770763 440.248519 
L 388.946372 440.263032 
L 389.091441 439.981963 
L 389.305226 438.962574 
L 389.67935 435.828285 
L 390.335976 430.656375 
L 390.839899 428.510606 
L 391.595782 426.344204 
L 392.595991 424.135274 
L 393.512214 422.640539 
L 394.336814 421.700768 
L 395.085062 421.173525 
L 395.718783 420.990282 
L 396.268516 421.06284 
L 396.749533 421.343429 
L 397.24582 421.92087 
L 397.696296 422.818715 
L 398.131501 424.182892 
L 398.559072 426.26755 
L 398.971372 429.442844 
L 399.360766 434.268941 
L 399.73489 441.945006 
L 400.086109 454.043133 
L 400.506044 477.701168 
L 400.987061 501.476544 
L 401.246657 505.623562 
L 401.300104 505.755208 
L 401.35355 505.619094 
L 401.460443 504.576269 
L 401.643687 500.123068 
L 401.910919 487.056411 
L 402.704978 444.938703 
L 403.140183 434.711333 
L 403.598295 428.809707 
L 404.079311 425.296645 
L 404.560328 423.28827 
L 405.041345 422.156374 
L 405.468915 421.667342 
L 405.804863 421.576219 
L 406.125541 421.725919 
L 406.507301 422.223011 
L 406.866154 423.087184 
L 407.255549 424.651906 
L 407.637308 427.163846 
L 408.011432 431.190184 
L 408.408462 438.168071 
L 409.034547 449.378285 
L 409.087994 449.202752 
L 409.210156 447.616993 
L 409.446847 440.798764 
L 410.118744 420.750934 
L 410.462327 416.66138 
L 410.744829 415.399857 
L 410.958614 415.219138 
L 411.126588 415.399177 
L 411.370914 416.101567 
L 411.699227 417.822537 
L 412.103892 421.268675 
L 413.508766 434.603304 
L 413.638564 434.707493 
L 413.669105 434.683336 
L 413.806539 434.387513 
L 414.111946 433.022284 
L 414.570057 431.236966 
L 414.760937 431.061773 
L 414.783842 431.076334 
L 414.921276 431.289186 
L 415.127426 432.135586 
L 415.394657 434.320667 
L 415.72297 439.059092 
L 416.257433 450.829219 
L 417.051493 471.150343 
L 417.669943 487.850966 
L 417.914269 489.636863 
L 417.967715 489.661164 
L 418.013526 489.590269 
L 418.150959 488.954169 
L 418.425826 486.350237 
L 419.0061 478.45818 
L 419.914687 466.307112 
L 420.43388 462.347944 
L 420.83091 460.802982 
L 421.098141 460.464919 
L 421.250845 460.541877 
L 421.441725 460.915505 
L 421.693686 461.927521 
L 422.006729 464.208548 
L 422.357947 468.508056 
L 422.732071 476.00335 
L 423.11383 488.458997 
L 423.51086 509.286784 
L 424.11404 541.54664 
L 424.327825 543.017024 
L 424.373636 543.000195 
L 424.396542 542.94686 
L 424.495799 542.326415 
L 424.640868 539.51709 
L 424.808842 530.856418 
L 426.015201 450.247467 
L 426.58784 433.01993 
L 427.114668 422.914261 
L 427.526968 418.678682 
L 427.80947 417.54269 
L 427.954539 417.482151 
L 427.969809 417.493826 
L 428.130148 417.796283 
L 428.374474 418.865343 
L 428.779139 421.749578 
L 430.214554 432.952498 
L 430.481785 435.113294 
L 430.66503 438.804963 
L 430.855909 447.772279 
L 431.069694 470.097321 
L 431.5049 517.495117 
L 431.756861 522.248952 
L 432.024093 524.032317 
L 432.077539 523.911887 
L 432.192067 522.762577 
L 432.444028 517.166538 
L 433.207547 493.369604 
L 433.627482 484.50443 
L 433.94816 481.799059 
L 434.116134 481.467405 
L 434.131404 481.475337 
L 434.276473 481.762088 
L 434.505528 482.766481 
L 434.734584 484.911757 
L 435.146884 488.890046 
L 435.154519 488.886583 
L 435.238506 488.700008 
L 435.383575 487.474727 
L 435.627901 483.05987 
L 436.124188 472.884911 
L 436.162364 473.053864 
L 436.246351 474.520833 
L 436.414325 482.394816 
L 436.83426 503.175654 
L 436.841895 503.170359 
L 436.895342 502.757064 
L 437.048045 498.973776 
L 438.514001 453.926158 
L 439.155357 442.531028 
L 439.598197 438.065687 
L 440.201377 433.615342 
L 440.453338 427.988147 
L 440.766381 422.738002 
L 440.827462 422.60001 
L 440.873274 422.711352 
L 440.972531 423.669414 
L 441.125235 427.675765 
L 441.499359 439.878959 
L 441.54517 439.620935 
L 441.667333 437.353669 
L 441.988011 425.466278 
L 442.285783 419.161606 
L 442.545379 417.49019 
L 442.659907 417.387809 
L 442.698083 417.45024 
L 442.858422 417.962985 
L 443.049302 419.356089 
L 443.255452 422.557013 
L 443.461602 429.567937 
L 443.866267 451.515221 
L 443.973159 449.867886 
L 444.164039 441.167868 
L 444.60688 421.324148 
L 444.81303 420.01835 
L 444.904652 419.996971 
L 444.935193 420.02773 
L 445.156613 420.173419 
L 445.202424 420.091524 
L 445.347493 419.458729 
L 445.546007 418.716825 
L 445.584183 418.746816 
L 445.6529 418.982747 
L 445.805604 420.402593 
L 446.118646 426.014966 
L 446.515676 437.33392 
L 446.851624 453.766966 
L 447.134126 479.336349 
L 447.706765 539.361618 
L 447.775482 539.852941 
L 447.821293 539.552689 
L 447.897645 536.652947 
L 448.019808 520.247172 
L 448.371026 474.462415 
L 448.561906 469.705539 
L 448.569541 469.714441 
L 448.630623 470.249136 
L 448.768056 474.131902 
L 449.241438 489.223724 
L 449.646102 493.449599 
L 449.722454 492.528096 
L 449.836982 486.472523 
L 450.081308 456.757734 
L 450.287458 445.882991 
L 450.295093 445.87724 
L 450.310364 445.944815 
L 450.386715 447.335124 
L 450.55469 451.368204 
L 450.608136 450.536204 
L 450.737934 442.87397 
L 451.073882 425.587874 
L 451.112058 425.413305 
L 451.165504 425.657551 
L 451.287667 427.868277 
L 451.493817 431.088103 
L 451.531993 430.962324 
L 451.646521 429.279908 
L 451.929023 420.86653 
L 452.394769 407.644429 
L 452.639095 406.031113 
L 452.692542 406.013954 
L 452.730718 406.074374 
L 452.814705 406.478475 
L 452.959773 408.487022 
L 453.097207 413.862326 
L 453.227005 429.326347 
L 453.593494 487.587609 
L 453.624034 487.145257 
L 453.708021 479.901226 
L 454.082146 442.243731 
L 454.227214 440.775127 
L 454.257755 440.807837 
L 454.349377 441.481087 
L 454.517351 444.976534 
L 454.761677 455.743635 
L 455.418303 486.194295 
L 455.578642 487.330777 
L 455.70844 487.95298 
L 455.853509 490.461755 
L 456.540676 512.136675 
L 456.601757 509.148092 
L 456.73919 482.814945 
L 457.029327 438.353308 
L 457.3271 427.344304 
L 457.502709 425.319783 
L 457.525615 425.351956 
L 457.617237 425.978357 
L 457.823387 429.36039 
L 458.235687 440.507851 
L 458.602176 448.577341 
L 458.640352 448.672419 
L 458.686163 448.508309 
L 458.78542 446.900836 
L 458.9763 439.032129 
L 459.312248 428.027169 
L 459.518398 425.561133 
L 459.548939 425.645475 
L 459.632926 426.568097 
L 459.877252 432.476078 
L 460.442256 451.672207 
L 460.640771 469.328973 
L 460.701852 467.17963 
L 460.953813 457.817485 
L 461.350843 453.734038 
L 461.64098 445.359728 
L 462.007469 433.26136 
L 462.05328 433.989731 
L 462.167808 440.772464 
L 462.396863 464.693017 
L 462.48085 458.474049 
L 462.587743 450.717605 
L 462.641189 452.444581 
L 462.801528 470.673109 
L 463.007678 501.026772 
L 463.08403 496.597128 
L 463.267275 490.854021 
L 463.641399 489.018455 
L 463.694845 489.43472 
L 463.801738 493.38092 
L 463.977347 500.260806 
L 464.023158 499.475789 
L 464.160591 491.19523 
L 464.618703 464.136869 
L 464.893569 459.678183 
L 464.93938 459.598641 
L 464.985191 459.718887 
L 465.099719 460.756734 
L 465.382221 466.020046 
L 465.550195 466.999899 
L 465.672358 467.022971 
L 465.679993 467.041855 
L 465.741075 467.498547 
L 465.809792 470.152418 
L 465.909049 486.243632 
L 466.099929 516.33319 
L 466.130469 515.703777 
L 466.199186 508.153401 
L 466.313714 462.153932 
L 466.496958 424.490114 
L 466.565675 423.455688 
L 466.619121 424.088081 
L 466.710744 429.1263 
L 466.825271 451.009132 
L 466.962705 483.214689 
L 467.016151 479.105409 
L 467.229936 438.175746 
L 467.474262 405.469071 
L 467.726223 399.09543 
L 468.00109 396.912571 
L 468.184334 396.530285 
L 468.199605 396.540206 
L 468.291227 396.780548 
L 468.451566 397.951764 
L 468.63481 400.825971 
L 468.795149 407.571997 
L 468.947853 425.090066 
L 469.085286 443.632889 
L 469.138733 439.093297 
L 469.398329 416.929308 
L 469.589209 413.355181 
L 469.757183 409.333088 
L 469.802994 409.861494 
L 469.886981 414.400541 
L 470.123672 440.662869 
L 470.215294 436.701178 
L 470.291646 433.359041 
L 470.345092 434.898891 
L 470.535972 447.478954 
L 470.619959 445.470372 
L 471.0628 430.719887 
L 471.116246 431.934071 
L 471.337666 446.364356 
L 471.383477 447.934238 
L 471.429289 446.106352 
L 471.604898 432.313249 
L 471.665979 434.131076 
L 472.208078 470.142925 
L 472.612742 507.938419 
L 472.628013 507.566124 
L 472.696729 497.747708 
L 473.002137 456.447716 
L 473.13957 451.87531 
L 473.177746 452.355417 
L 473.261733 456.864666 
L 473.368626 479.723342 
L 473.567141 503.798483 
L 473.696939 521.274345 
L 473.788561 532.784509 
L 473.842007 529.099585 
L 474.399376 460.757387 
L 474.468093 460.823876 
L 474.521539 460.554585 
L 474.681878 458.029531 
L 474.742959 459.266167 
L 474.872758 470.37236 
L 475.277422 516.257746 
L 475.353774 514.027469 
L 475.99513 474.658599 
L 476.086752 477.021484 
L 476.208915 481.652011 
L 476.262361 480.685684 
L 476.39216 473.149926 
L 476.506687 448.456488 
L 476.590674 435.618649 
L 476.651756 438.658303 
L 476.81973 449.264459 
L 476.873176 448.023194 
L 477.109867 433.306527 
L 477.400004 417.297207 
L 477.705412 412.421188 
L 477.888656 411.612804 
L 477.903926 411.621695 
L 478.010819 411.893032 
L 478.079536 411.999411 
L 478.125347 411.911345 
L 478.285686 411.041197 
L 478.331497 411.394334 
L 478.430754 415.482828 
L 478.476565 416.771444 
L 478.522377 415.342892 
L 478.759067 407.624111 
L 478.827784 407.595195 
L 478.873595 407.640466 
L 479.011028 408.013564 
L 479.117921 409.057856 
L 479.255354 413.1312 
L 479.400423 424.876909 
L 479.759277 458.755721 
L 479.789817 458.950298 
L 479.843264 458.532382 
L 480.110495 453.738658 
L 480.209753 442.381184 
L 480.354821 430.870162 
L 480.385362 431.358663 
L 480.469349 438.132311 
L 480.545701 445.374252 
L 480.591512 441.204769 
L 480.889284 410.783754 
L 480.935095 410.402912 
L 480.988542 410.785956 
L 481.125975 413.893382 
L 481.316855 423.833207 
L 481.408477 435.862199 
L 481.576451 507.882541 
L 481.690979 492.231213 
L 481.94294 440.049117 
L 481.95821 441.081082 
L 482.019292 470.4035 
L 482.14909 522.72432 
L 482.187266 518.927683 
L 482.286523 465.372208 
L 482.324699 455.605183 
L 482.378146 467.616026 
L 482.515579 502.335389 
L 482.56139 499.935438 
L 482.645377 480.227337 
L 482.866797 427.902246 
L 482.943149 425.690287 
L 483.065312 419.337437 
L 483.118759 421.839571 
L 483.271462 433.292592 
L 483.324909 431.121255 
L 483.561599 407.814214 
L 483.668492 409.468123 
L 483.805925 415.941087 
L 483.943359 439.615648 
L 484.088427 454.66004 
L 484.126603 453.058696 
L 484.225861 447.374349 
L 484.279307 449.029918 
L 484.363294 452.817165 
L 484.41674 450.491855 
L 484.59235 436.800476 
L 484.653431 439.088133 
L 484.806135 448.604584 
L 484.859581 446.265616 
L 484.958838 439.656823 
L 485.00465 442.143381 
L 485.096272 470.984671 
L 485.164988 482.051828 
L 485.218435 477.382238 
L 485.394044 425.075992 
L 485.508572 440.611906 
L 485.592559 460.636789 
L 485.661276 454.88601 
L 485.806344 436.969629 
L 485.84452 443.230968 
L 486.05067 514.693937 
L 486.111752 507.678618 
L 486.218644 466.395179 
L 486.302631 482.033593 
L 486.340807 484.76467 
L 486.394253 480.57715 
L 486.760742 419.934088 
L 486.86 427.677214 
L 487.142502 454.19937 
L 487.180678 449.13451 
L 487.47845 402.026263 
L 487.486085 402.036509 
L 487.539531 402.513012 
L 487.638789 405.788762 
L 487.783857 421.235598 
L 487.997643 437.708928 
L 488.058724 436.325199 
L 488.211428 426.974892 
L 488.30305 422.180755 
L 488.348861 424.47897 
L 488.52447 453.638609 
L 488.616093 441.936664 
L 488.646633 440.634331 
L 488.692445 443.910157 
L 488.982582 474.844703 
L 488.997852 474.200745 
L 489.051298 455.547812 
L 489.226908 417.041343 
L 489.234543 417.030306 
L 489.249813 417.183585 
L 489.3338 420.854951 
L 489.440693 433.778136 
L 489.616302 448.9254 
L 489.631572 448.952389 
L 489.662113 448.779127 
L 489.776641 446.682965 
L 489.830087 447.869822 
L 489.944615 455.173056 
L 489.998061 451.470068 
L 490.1584 430.624345 
L 490.204211 435.685905 
L 490.379821 481.461142 
L 490.425632 467.463929 
L 490.578335 431.031612 
L 490.585971 431.053512 
L 490.647052 431.840174 
L 490.715769 432.909767 
L 490.753945 432.073921 
L 491.166245 412.0505 
L 491.257867 414.840513 
L 491.38003 427.163407 
L 491.525099 431.594217 
L 491.631991 440.877815 
L 491.693073 435.373636 
L 491.98321 402.396086 
L 492.082467 401.923654 
L 492.113008 402.231519 
L 492.181725 406.307667 
L 492.296252 419.307479 
L 492.349699 413.823056 
L 492.540578 397.433361 
L 492.578754 397.151159 
L 492.632201 397.651066 
L 492.754364 402.267806 
L 492.830715 412.243348 
L 492.899432 467.008059 
L 493.02923 533.213344 
L 493.059771 531.548624 
L 493.120852 505.974117 
L 493.311732 434.77785 
L 493.319367 434.76247 
L 493.327003 434.838468 
L 493.380449 438.029986 
L 493.464436 459.769537 
L 493.586599 490.412153 
L 493.63241 488.052102 
L 493.716397 466.061392 
L 493.739303 461.518998 
L 493.792749 474.145511 
L 493.907277 489.195473 
L 493.945453 487.472787 
L 494.05998 460.112717 
L 494.128697 477.414622 
L 494.189779 485.437584 
L 494.243225 479.312424 
L 494.434105 432.518293 
L 494.502821 435.193078 
L 494.770053 471.589744 
L 494.823499 461.718731 
L 495.037284 418.201634 
L 495.098366 415.282844 
L 495.159447 416.864718 
L 495.251069 421.668837 
L 495.342692 430.079347 
L 495.403773 427.204498 
L 495.533571 415.936941 
L 495.609923 418.238807 
L 495.701545 421.481115 
L 495.747357 420.144239 
L 495.793168 418.597629 
L 495.838979 420.767368 
L 495.922966 439.367829 
L 495.976412 457.914477 
L 496.037494 441.764596 
L 496.205468 426.114782 
L 496.365807 417.287025 
L 496.434523 419.091319 
L 496.602497 433.481486 
L 496.90027 457.768613 
L 496.907905 457.85208 
L 496.93081 457.373626 
L 496.991892 447.256108 
L 497.198042 415.223527 
L 497.266759 409.486555 
L 497.32784 412.022859 
L 497.434733 428.849416 
L 497.556896 454.407957 
L 497.610342 447.669156 
L 497.74014 434.718207 
L 497.778316 436.471877 
L 497.854668 442.481188 
L 497.923385 440.403257 
L 497.999736 438.839225 
L 498.045548 439.833443 
L 498.091359 441.570135 
L 498.144805 439.229905 
L 498.34332 422.326862 
L 498.457848 413.578308 
L 498.503659 414.615715 
L 498.572375 423.084426 
L 498.725079 453.052213 
L 498.77089 447.575705 
L 498.870148 422.189978 
L 498.938864 427.556068 
L 499.076298 455.637675 
L 499.175555 444.129982 
L 499.312988 438.198853 
L 499.328259 438.290801 
L 499.366435 439.208543 
L 499.458057 448.448689 
L 499.557314 479.549246 
L 499.648937 516.116181 
L 499.702383 504.083024 
L 499.824546 437.220028 
L 499.893263 456.541024 
L 499.939074 462.937995 
L 499.984885 455.129207 
L 500.107048 411.312457 
L 500.191035 418.670097 
L 500.282657 423.011275 
L 500.320833 421.488704 
L 500.465902 403.705399 
L 500.565159 407.183698 
L 500.740768 419.159545 
L 500.893472 450.43877 
L 500.977459 440.614602 
L 501.221785 406.43143 
L 501.290502 407.178031 
L 501.343948 407.895002 
L 501.382124 407.205872 
L 501.496652 402.026427 
L 501.573004 403.332978 
L 501.634085 408.414213 
L 501.939493 483.95747 
L 502.031115 529.875974 
L 502.084561 527.263343 
L 502.138007 503.399148 
L 502.313617 408.664135 
L 502.328887 408.822862 
L 502.389968 412.345679 
L 502.458685 433.778342 
L 502.626659 462.5791 
L 502.756457 479.405397 
L 502.779363 477.004004 
L 502.870985 440.468103 
L 502.932067 458.180882 
L 503.061865 535.525668 
L 503.138217 532.739577 
L 503.199298 520.56351 
L 503.519976 400.009669 
L 503.573422 398.398139 
L 503.626869 400.025272 
L 503.695585 403.327612 
L 503.787208 403.277785 
L 503.909371 412.851608 
L 504.062074 424.271977 
L 504.107885 423.626252 
L 504.115521 423.58443 
L 504.146061 423.953647 
L 504.176602 424.41823 
L 504.214778 423.585097 
L 504.329306 416.789686 
L 504.390387 419.483273 
L 504.466739 432.322445 
L 504.51255 445.669789 
L 504.558361 428.185295 
L 504.665254 407.495448 
L 504.70343 412.745288 
L 505.016473 497.054316 
L 505.031743 497.84113 
L 505.069919 493.141647 
L 505.146271 454.042804 
L 505.276069 454.791442 
L 505.428773 436.984477 
L 505.474584 440.764071 
L 505.642558 480.941239 
L 505.711274 463.482853 
L 505.856343 418.699786 
L 505.902154 420.141368 
L 505.978506 426.967027 
L 506.047223 422.961911 
L 506.138845 417.271309 
L 506.184656 420.442563 
L 506.306819 427.615505 
L 506.33736 426.255668 
L 506.444252 412.38893 
L 506.505334 420.376192 
L 506.581686 468.10751 
L 506.688578 514.876933 
L 506.726754 512.352569 
L 506.818376 478.06928 
L 506.894728 500.433805 
L 506.917634 504.073852 
L 506.993986 497.672092 
L 507.085608 473.389222 
L 507.108514 467.832935 
L 507.139054 487.011387 
L 507.207771 528.812879 
L 507.261217 509.76894 
L 507.360475 440.338883 
L 507.444462 447.509796 
L 507.452097 447.532749 
L 507.459732 447.393648 
L 507.513178 444.698887 
L 507.543719 447.309966 
L 507.673517 477.919988 
L 507.76514 476.859535 
L 507.803315 483.835867 
L 507.887303 529.38183 
L 507.97129 509.42204 
L 508.200345 425.895304 
L 508.20798 425.935262 
L 508.261427 427.985046 
L 508.337779 440.053648 
L 508.452306 486.992716 
L 508.513388 468.064826 
L 508.696632 411.66346 
L 508.750079 409.964619 
L 508.803525 411.866223 
L 508.82643 412.459849 
L 508.872242 410.69634 
L 509.116568 402.714824 
L 509.131838 402.64489 
L 509.154743 403.119067 
L 509.192919 409.995568 
L 509.284542 473.87816 
L 509.353258 438.011641 
L 509.498327 406.990221 
L 509.589949 405.761197 
L 509.628125 406.373375 
L 509.719747 413.797745 
L 509.803734 433.429264 
L 509.864816 421.004523 
L 509.887721 418.958139 
L 509.941168 425.761938 
L 510.132047 462.105779 
L 510.216034 543.679007 
L 510.269481 515.621331 
L 510.437455 416.098383 
L 510.44509 416.068248 
L 510.452725 416.26021 
L 510.498536 424.685649 
L 510.567253 448.133465 
L 510.63597 439.317108 
L 510.674145 433.803393 
L 510.704686 441.430502 
L 510.781038 496.947658 
L 510.834484 458.857692 
L 510.987188 409.92978 
L 510.994823 409.895139 
L 511.017729 410.105552 
L 511.162797 415.030089 
L 511.25442 434.560839 
L 511.361312 429.139573 
L 511.605638 447.360514 
L 511.735436 523.169469 
L 511.781247 492.588007 
L 511.941586 417.927626 
L 512.002668 409.73772 
L 512.056114 403.152835 
L 512.101925 410.617613 
L 512.231723 427.269032 
L 512.262264 425.090226 
L 512.308075 420.280382 
L 512.346251 427.971828 
L 512.498955 485.820562 
L 512.529496 478.517292 
L 512.720375 413.11656 
L 512.811998 405.697598 
L 512.850174 408.432382 
L 512.895985 447.124504 
L 512.957066 498.65163 
L 513.018148 481.930626 
L 513.079229 442.77241 
L 513.132675 472.790205 
L 513.216662 490.58945 
L 513.262474 489.352525 
L 513.308285 476.193207 
L 513.392272 436.971435 
L 513.438083 455.484203 
L 513.499164 487.914132 
L 513.560246 469.882819 
L 513.651868 421.537563 
L 513.720585 434.124683 
L 513.74349 436.379281 
L 513.781666 427.959604 
L 513.842748 412.815008 
L 513.896194 421.570646 
L 514.041263 466.706365 
L 514.12525 458.768121 
L 514.216872 432.957471 
L 514.308494 407.676921 
L 514.36194 414.705946 
L 514.400116 421.916971 
L 514.453563 412.567409 
L 514.491739 409.768636 
L 514.55282 413.04375 
L 514.705524 439.579853 
L 514.789511 479.660396 
L 514.835322 452.481603 
L 514.904039 419.309676 
L 514.957485 432.372465 
L 515.110189 470.926319 
L 515.125459 468.675044 
L 515.339244 421.208028 
L 515.36215 421.824402 
L 515.560665 440.458737 
L 515.606476 462.445247 
L 515.659922 437.49035 
L 515.675192 434.273108 
L 515.713368 452.265479 
L 515.804991 516.004657 
L 515.866072 502.830777 
L 515.942424 449.409642 
L 516.011141 469.732273 
L 516.034046 472.579988 
L 516.102763 466.182413 
L 516.20202 446.494801 
L 516.217291 445.109946 
L 516.247831 453.745842 
L 516.293643 463.692582 
L 516.354724 455.263391 
L 516.40817 438.686822 
L 516.446346 459.805476 
L 516.492157 483.690068 
L 516.576144 478.224375 
L 516.591415 481.285211 
L 516.637226 466.133177 
L 516.652496 464.084655 
L 516.698307 475.170843 
L 516.828106 483.877782 
L 516.835741 483.420636 
L 516.873917 452.770003 
L 517.018985 408.705513 
L 517.087702 400.115384 
L 517.133513 406.408459 
L 517.362569 511.900041 
L 517.431285 500.211916 
L 517.622165 408.805572 
L 517.706152 411.860826 
L 517.912302 428.207043 
L 517.981019 426.689528 
L 518.003924 427.288037 
L 518.049735 437.934143 
L 518.133722 484.361187 
L 518.187169 463.477118 
L 518.301696 405.565522 
L 518.347508 407.159952 
L 518.622374 433.222098 
L 518.64528 428.236321 
L 518.698726 411.634384 
L 518.782713 415.91519 
L 518.828524 424.260815 
L 518.881971 450.221297 
L 518.950687 431.452902 
L 519.004134 412.622197 
L 519.049945 433.106823 
L 519.126297 457.69472 
L 519.172108 444.120077 
L 519.324811 405.433862 
L 519.347717 406.056345 
L 519.393528 416.636122 
L 519.45461 437.154786 
L 519.508056 423.251191 
L 519.538597 418.367696 
L 519.599678 426.354571 
L 519.622584 428.247601 
L 519.668395 422.428431 
L 519.836369 400.944217 
L 519.851639 401.386119 
L 519.89745 409.956108 
L 519.958532 436.639996 
L 520.050154 431.274777 
L 520.07306 438.182008 
L 520.256304 514.979045 
L 520.271574 517.251918 
L 520.30975 506.269692 
L 520.492995 436.390898 
L 520.50063 436.521124 
L 520.523536 437.755845 
L 520.554076 432.917094 
L 520.607523 412.4477 
L 520.645699 434.532971 
L 520.70678 481.551935 
L 520.760226 441.897223 
L 520.783132 429.547022 
L 520.874754 438.914407 
L 520.958741 530.706606 
L 521.019823 479.821437 
L 521.057999 436.307074 
L 521.11908 479.097661 
L 521.157256 504.030721 
L 521.218338 470.834006 
L 521.386312 404.10111 
L 521.409217 403.483248 
L 521.455028 406.017294 
L 521.577191 426.668562 
L 521.699354 478.503889 
L 521.729895 474.893965 
L 521.966586 412.479446 
L 522.027667 424.032003 
L 522.14983 457.457424 
L 522.188006 455.917719 
L 522.371251 410.229217 
L 522.447603 426.120906 
L 522.523954 477.853128 
L 522.569766 438.02396 
L 522.669023 404.296251 
L 522.699564 410.968691 
L 522.760645 482.125544 
L 522.829362 428.826209 
L 522.97443 398.946951 
L 522.982066 398.857007 
L 523.012606 399.517098 
L 523.111864 408.897515 
L 523.195851 444.986693 
L 523.264567 429.410795 
L 523.295108 424.897696 
L 523.325649 435.532038 
L 523.424906 478.792751 
L 523.470718 470.979691 
L 523.585245 415.345493 
L 523.653962 421.891174 
L 523.707408 421.795031 
L 523.76849 431.060951 
L 523.928829 475.039644 
L 523.967005 459.11914 
L 524.043356 423.247209 
L 524.104438 424.495642 
L 524.142614 425.445596 
L 524.18079 423.337002 
L 524.19606 423.049065 
L 524.218966 424.821802 
L 524.264777 444.676522 
L 524.40221 546.091685 
L 524.448021 542.733442 
L 524.478562 500.536672 
L 524.547279 417.206489 
L 524.600725 458.676403 
L 524.638901 476.571867 
L 524.692347 440.090213 
L 524.730523 414.113979 
L 524.806875 427.139571 
L 525.043566 398.234669 
L 525.158094 402.631679 
L 525.310797 411.127604 
L 525.379514 418.868468 
L 525.410055 412.034279 
L 525.555123 395.010408 
L 525.562759 394.941833 
L 525.578029 395.418722 
L 525.654381 408.229719 
L 525.723097 429.95134 
L 525.791814 416.618543 
L 525.891072 402.019966 
L 525.959788 408.596726 
L 526.25756 492.533345 
L 526.318642 486.207691 
L 526.379723 437.862686 
L 526.417899 484.2674 
L 526.44844 506.032575 
L 526.501886 462.379622 
L 526.593509 401.923213 
L 526.646955 406.07635 
L 526.730942 438.740876 
L 526.868375 456.795735 
L 526.876011 455.759687 
L 526.898916 447.234695 
L 526.944727 473.010961 
L 526.982903 485.575293 
L 527.021079 465.761697 
L 527.120336 414.223278 
L 527.166148 427.9219 
L 527.234864 434.256988 
L 527.265405 429.515386 
L 527.311216 416.416229 
L 527.364662 428.389856 
L 527.418109 469.479985 
L 527.471555 426.117825 
L 527.486825 424.776452 
L 527.525001 434.294056 
L 527.6548 487.362275 
L 527.692975 466.208352 
L 527.845679 397.352597 
L 527.990748 392.279032 
L 527.998383 392.271461 
L 528.006018 392.371273 
L 528.059464 396.519238 
L 528.158722 418.819743 
L 528.204533 403.665382 
L 528.265614 394.762502 
L 528.326696 398.680203 
L 528.425953 417.804342 
L 528.49467 407.873587 
L 528.502305 407.72049 
L 528.525211 409.154039 
L 528.578657 412.924821 
L 528.632103 410.17584 
L 528.670279 406.843315 
L 528.731361 410.289485 
L 528.777172 430.192704 
L 528.861159 485.823044 
L 528.90697 453.922048 
L 528.937511 426.08181 
L 529.021498 446.011707 
L 529.296365 402.247062 
L 529.304 402.16853 
L 529.326905 402.842622 
L 529.403257 415.673211 
L 529.456703 404.920583 
L 529.464339 404.389426 
L 529.502515 407.063702 
L 529.548326 405.619183 
L 529.624678 419.622439 
L 529.655218 426.510103 
L 529.7163 416.898361 
L 529.723935 417.026939 
L 529.769746 429.228643 
L 529.792652 437.629036 
L 529.853733 421.867391 
L 529.861368 422.000131 
L 529.899544 433.665129 
L 529.930085 450.653161 
L 529.998802 431.58461 
L 530.006437 432.059355 
L 530.021707 434.007924 
L 530.052248 424.051342 
L 530.1286 407.204346 
L 530.174411 413.28642 
L 530.319479 427.338764 
L 530.327115 427.417574 
L 530.342385 426.882996 
L 530.395831 418.449463 
L 530.441642 426.951777 
L 530.517994 424.52939 
L 530.579076 496.392872 
L 530.601981 509.011525 
L 530.647793 462.014154 
L 530.716509 398.129862 
L 530.777591 399.878631 
L 530.823402 403.828499 
L 530.9532 428.603984 
L 530.983741 419.030459 
L 531.037187 399.583704 
L 531.113539 406.911614 
L 531.327324 440.104672 
L 531.38077 490.803411 
L 531.434217 443.580638 
L 531.487663 398.984586 
L 531.55638 411.607819 
L 531.594556 430.400354 
L 531.663272 412.80698 
L 531.670907 412.610991 
L 531.686178 414.672378 
L 531.754894 422.056525 
L 531.808341 417.659071 
L 531.823611 416.960213 
L 531.854152 421.169077 
L 531.915233 473.87387 
L 531.96868 429.343142 
L 532.083208 395.213434 
L 532.121383 397.691067 
L 532.403885 442.883611 
L 532.426791 436.315724 
L 532.564224 411.171437 
L 532.571859 411.762864 
L 532.58713 413.364186 
L 532.625306 406.414862 
L 532.648211 402.050131 
L 532.694022 408.489482 
L 532.732198 406.947363 
L 532.938348 428.983096 
L 532.976524 423.139044 
L 533.022335 412.066946 
L 533.075782 424.45681 
L 533.091052 425.950498 
L 533.129228 416.350777 
L 533.22085 398.567431 
L 533.281932 407.718075 
L 533.350648 453.159868 
L 533.427 430.595807 
L 533.503352 403.994855 
L 533.541528 416.487729 
L 533.579704 438.722432 
L 533.640785 411.263895 
L 533.648421 411.084978 
L 533.656056 413.253514 
L 533.747678 471.882537 
L 533.854571 463.596876 
L 533.938558 408.343962 
L 534.03018 420.487393 
L 534.075991 440.92402 
L 534.121802 417.868803 
L 534.23633 398.992825 
L 534.259236 401.455528 
L 534.305047 412.421254 
L 534.396669 408.316136 
L 534.587549 427.838501 
L 534.63336 417.562877 
L 534.640995 416.810228 
L 534.656265 422.175118 
L 534.740252 517.016111 
L 534.786063 462.977876 
L 534.85478 463.463335 
L 534.931132 419.214543 
L 534.969308 415.186824 
L 535.015119 420.172869 
L 535.053295 467.254737 
L 535.0762 490.182712 
L 535.137282 435.933947 
L 535.190728 451.010082 
L 535.26708 425.508287 
L 535.366338 417.910473 
L 535.320526 426.031944 
L 535.381608 422.13899 
L 535.480865 449.6257 
L 535.503771 439.336271 
L 535.557217 411.475975 
L 535.625934 421.969225 
L 535.755732 415.11969 
L 535.778638 419.0187 
L 535.839719 473.43262 
L 535.854989 482.824313 
L 535.900801 433.800103 
L 535.916071 422.846283 
L 535.969517 457.854152 
L 536.015328 429.91662 
L 536.045869 424.635117 
L 536.084045 440.515048 
L 536.236749 503.025865 
L 536.168032 439.73556 
L 536.28256 484.2139 
L 536.381817 411.090612 
L 536.442899 412.572004 
L 536.465804 416.362733 
L 536.496345 426.892945 
L 536.557427 411.296941 
L 536.565062 411.653402 
L 536.671954 445.74298 
L 536.717766 497.287181 
L 536.763577 439.448298 
L 536.809388 404.295825 
L 536.878104 418.499214 
L 536.90101 422.68511 
L 536.939186 408.638293 
L 536.969727 401.705605 
L 537.023173 413.663533 
L 537.068984 454.40671 
L 537.130066 413.616396 
L 537.152971 415.188079 
L 537.175877 416.725201 
L 537.229323 412.864361 
L 537.244593 413.102862 
L 537.374392 422.141633 
L 537.50419 478.729707 
L 537.595812 466.21876 
L 537.649258 418.110674 
L 537.771421 425.141893 
L 537.901219 460.58311 
L 537.93176 441.196975 
L 537.977571 405.726669 
L 538.061558 409.744245 
L 538.12264 460.12008 
L 538.198992 431.953688 
L 538.321155 411.03885 
L 538.252438 446.472444 
L 538.34406 413.099133 
L 538.351695 413.284283 
L 538.366966 411.923086 
L 538.412777 406.371695 
L 538.443318 415.647498 
L 538.489129 496.732546 
L 538.55021 410.155268 
L 538.641832 404.870513 
L 538.588386 411.894235 
L 538.672373 405.657151 
L 538.718184 414.048499 
L 538.771631 431.171532 
L 538.855618 426.773852 
L 538.924334 408.823618 
L 538.970145 425.533886 
L 538.985416 428.813202 
L 539.023592 411.49064 
L 539.046497 404.950255 
L 539.084673 425.554461 
L 539.115214 451.021427 
L 539.176295 407.596901 
L 539.237377 411.556636 
L 539.267918 444.016016 
L 539.290823 473.052616 
L 539.351905 414.277868 
L 539.35954 414.573102 
L 539.527514 489.823292 
L 539.573325 456.870893 
L 539.619136 409.564041 
L 539.664947 480.413236 
L 539.703123 514.898424 
L 539.764205 454.168956 
L 539.825286 417.797215 
L 539.894003 434.051462 
L 539.96272 411.940156 
L 540.046707 413.020119 
L 540.061977 412.823619 
L 540.084883 413.993229 
L 540.214681 438.330259 
L 540.336844 492.927212 
L 540.359749 482.010362 
L 540.451372 415.109884 
L 540.497183 442.759056 
L 540.520088 471.788411 
L 540.588805 412.404925 
L 540.59644 412.068481 
L 540.61171 415.544211 
L 540.680427 459.918911 
L 540.756779 438.072989 
L 540.78732 436.019694 
L 540.80259 441.266808 
L 540.856036 519.439163 
L 540.947659 479.835741 
L 540.955294 481.23463 
L 540.970564 469.62542 
L 541.016375 409.297591 
L 541.100362 429.092699 
L 541.123268 421.387592 
L 541.169079 404.84882 
L 541.253066 409.256089 
L 541.260701 409.462661 
L 541.283607 407.589138 
L 541.291242 407.232835 
L 541.306512 409.37298 
L 541.413405 457.32701 
L 541.459216 425.222391 
L 541.466851 421.012627 
L 541.535568 436.455694 
L 541.573744 493.488628 
L 541.634825 430.564182 
L 541.642461 433.907674 
L 541.673001 455.517504 
L 541.726448 417.58013 
L 541.810435 401.088598 
L 541.848611 413.383556 
L 541.978409 436.256359 
L 542.001314 427.509787 
L 542.070031 411.827421 
L 542.115842 419.174187 
L 542.184559 418.470111 
L 542.23037 434.9797 
L 542.268546 462.914086 
L 542.321992 425.011377 
L 542.344898 416.219834 
L 542.405979 436.382379 
L 542.413614 436.640742 
L 542.42125 434.184965 
L 542.489966 406.123135 
L 542.528142 425.830642 
L 542.558683 455.64272 
L 542.6274 413.951596 
L 542.65794 407.834885 
L 542.719022 418.481697 
L 542.787739 456.904761 
L 542.841185 426.816665 
L 542.879361 441.272098 
L 542.925172 415.477755 
L 542.978618 403.258602 
L 543.0397 413.442759 
L 543.077876 406.044659 
L 543.123687 415.010172 
L 543.200039 463.917702 
L 543.24585 424.702447 
L 543.27639 404.652296 
L 543.360377 419.914737 
L 543.383283 425.880046 
L 543.46727 462.732564 
L 543.497811 436.773799 
L 543.543622 405.289403 
L 543.619974 418.045474 
L 543.650515 426.323811 
L 543.696326 411.725285 
L 543.703961 411.591203 
L 543.711596 412.396663 
L 543.780313 431.18753 
L 543.856665 420.477268 
L 543.986463 403.005924 
L 544.009368 406.87876 
L 544.078085 448.854257 
L 544.169707 438.339974 
L 544.268965 404.189343 
L 544.314776 414.347362 
L 544.490385 471.734554 
L 544.383492 411.350349 
L 544.520926 453.829128 
L 544.582007 424.134373 
L 544.620183 452.775428 
L 544.650724 463.839654 
L 544.6889 427.704978 
L 544.711805 429.664516 
L 544.727076 424.574064 
L 544.849239 401.498746 
L 544.864509 403.223348 
L 545.040118 479.080125 
L 545.093565 448.608712 
L 545.185187 402.428042 
L 545.238633 412.966897 
L 545.398972 476.546383 
L 545.421878 457.95621 
L 545.460054 413.692143 
L 545.544041 434.846831 
L 545.559311 440.730238 
L 545.628028 423.266476 
L 545.689109 420.64399 
L 545.841813 403.14884 
L 545.765461 427.120387 
L 545.849448 404.156797 
L 546.047963 442.980494 
L 546.055598 442.96278 
L 546.078504 441.699551 
L 546.093774 445.224495 
L 546.238843 499.129916 
L 546.261748 483.765137 
L 546.422087 411.022141 
L 546.467898 404.970374 
L 546.513709 413.914685 
L 546.551885 456.560608 
L 546.643508 434.880148 
L 546.742765 438.58014 
L 546.696954 425.51049 
L 546.7504 437.85579 
L 546.895469 406.089754 
L 546.926009 407.169351 
L 546.948915 405.617701 
L 546.971821 412.479343 
L 546.994726 417.953514 
L 547.063443 405.799231 
L 547.078713 401.589392 
L 547.109254 420.800933 
L 547.14743 485.114191 
L 547.231417 448.874797 
L 547.269593 416.377787 
L 547.315404 462.894949 
L 547.338309 479.884873 
L 547.384121 411.393123 
L 547.414661 398.49135 
L 547.498648 406.056936 
L 547.544459 400.892369 
L 547.582635 406.585573 
L 547.697163 427.905645 
L 547.735339 417.413696 
L 547.811691 407.42673 
L 547.773515 418.016191 
L 547.849867 414.030817 
L 547.888043 431.189799 
L 547.933854 408.406919 
L 547.964395 405.035363 
L 548.002571 414.97275 
L 548.033111 424.85611 
L 548.078923 414.667205 
L 548.117098 416.743252 
L 548.201086 404.6789 
L 548.254532 408.070418 
L 548.262167 408.094007 
L 548.307978 405.46746 
L 548.346154 426.585955 
L 548.376695 430.84386 
L 548.414871 414.181811 
L 548.430141 410.088314 
L 548.475952 434.661558 
L 548.491223 446.370322 
L 548.59048 444.827758 
L 548.636291 419.013491 
L 548.666832 450.084178 
L 548.712643 440.963741 
L 548.79663 485.843973 
L 548.834806 448.212783 
L 548.842441 442.2719 
L 548.888252 468.042041 
L 548.934063 455.012355 
L 548.979874 460.461708 
L 549.00278 451.246112 
L 549.056226 404.311032 
L 549.117308 447.56884 
L 549.140213 468.40627 
L 549.20893 424.937895 
L 549.231836 408.240007 
L 549.285282 454.319859 
L 549.300552 447.182099 
L 549.437986 401.678845 
L 549.453256 400.721343 
L 549.476162 404.160891 
L 549.667041 475.033361 
L 549.682312 470.770411 
L 549.789204 400.353741 
L 549.82738 423.880343 
L 549.926638 454.783827 
L 549.957178 448.90617 
L 549.987719 471.676543 
L 550.025895 424.414576 
L 550.048801 412.044844 
L 550.117517 442.985333 
L 550.148058 469.341644 
L 550.193869 416.251608 
L 550.209139 405.608228 
L 550.262586 429.659181 
L 550.300762 414.508682 
L 550.308397 413.894014 
L 550.354208 418.605274 
L 550.369478 420.4479 
L 550.392384 410.053444 
L 550.422925 397.65175 
L 550.484006 422.590809 
L 550.499277 440.193066 
L 550.583264 414.663788 
L 550.590899 413.838614 
L 550.598534 417.096149 
L 550.644345 465.50835 
L 550.690156 414.880236 
L 550.713062 423.736833 
L 550.797049 451.700565 
L 550.758873 420.16228 
L 550.819954 429.060487 
L 550.84286 410.740314 
L 550.926847 431.306665 
L 550.949753 443.89169 
L 550.987928 421.429931 
L 551.026104 422.406234 
L 551.056645 417.644241 
L 551.071916 424.123827 
L 551.117727 449.651167 
L 551.171173 423.176618 
L 551.201714 405.559336 
L 551.278066 424.093219 
L 551.300971 442.731732 
L 551.354417 415.347151 
L 551.377323 417.36758 
L 551.560567 467.714354 
L 551.591108 447.279384 
L 551.621649 406.158933 
L 551.705636 434.855262 
L 551.789623 471.982951 
L 551.827799 450.409822 
L 551.965232 405.849908 
L 551.995773 402.499304 
L 552.056855 408.583058 
L 552.171382 443.956878 
L 552.293545 481.746923 
L 552.247734 421.51775 
L 552.308816 477.710983 
L 552.377532 397.670616 
L 552.522601 405.807129 
L 552.621858 430.185305 
L 552.652399 414.866248 
L 552.69821 418.907305 
L 552.782197 403.940088 
L 552.812738 409.295639 
L 552.973077 441.592399 
L 552.980712 438.468912 
L 553.041794 410.267184 
L 553.118145 416.701549 
L 553.186862 459.429515 
L 553.270849 444.481266 
L 553.293755 435.192065 
L 553.362471 455.019335 
L 553.423553 477.629665 
L 553.484634 465.386032 
L 553.49227 465.687321 
L 553.515175 463.239375 
L 553.629703 411.462619 
L 553.751866 415.100086 
L 553.790042 454.904584 
L 553.896934 522.960802 
L 553.912205 497.974211 
L 554.042003 414.20088 
L 554.049638 414.417383 
L 554.080179 428.301786 
L 554.12599 503.680487 
L 554.179436 417.566821 
L 554.202342 407.793415 
L 554.232883 445.188349 
L 554.278694 519.860155 
L 554.33214 424.734007 
L 554.370316 417.855785 
L 554.408492 430.790758 
L 554.439033 422.560396 
L 554.469573 439.704682 
L 554.53829 452.463928 
L 554.500114 437.787907 
L 554.584101 446.08804 
L 554.675723 418.239989 
L 554.721534 428.083371 
L 554.904779 471.313869 
L 554.927685 449.979657 
L 555.019307 403.229473 
L 555.057483 419.850358 
L 555.133835 441.456522 
L 555.088023 414.601935 
L 555.15674 426.401067 
L 555.217822 411.030598 
L 555.263633 426.849334 
L 555.317079 417.175417 
L 555.401066 450.222033 
L 555.416336 454.014219 
L 555.446877 423.964884 
L 555.530864 412.120438 
L 555.485053 425.636351 
L 555.55377 424.887424 
L 555.576675 453.240347 
L 555.653027 414.041283 
L 555.714109 404.794456 
L 555.77519 408.871378 
L 555.927894 452.413404 
L 555.828636 404.130752 
L 555.96607 437.206254 
L 556.080598 420.310507 
L 556.103503 426.149437 
L 556.111138 427.415061 
L 556.141679 415.338681 
L 556.149314 415.529928 
L 556.156949 415.738128 
L 556.17222 413.876696 
L 556.202761 410.280797 
L 556.225666 419.994568 
L 556.240937 436.167784 
L 556.340194 427.558692 
L 556.370735 431.785645 
L 556.401275 453.286045 
L 556.462357 421.812113 
L 556.508168 402.781536 
L 556.561614 422.819545 
L 556.668507 443.171764 
L 556.622696 413.44909 
L 556.691413 434.543045 
L 556.767764 406.427505 
L 556.80594 426.839198 
L 556.874657 438.711668 
L 556.928103 437.882371 
L 556.99682 410.60463 
L 557.065537 426.209969 
L 557.126618 454.376848 
L 557.1877 436.983009 
L 557.332768 406.223669 
L 557.363309 422.464175 
L 557.454931 433.919499 
L 557.416755 418.213081 
L 557.470202 425.893529 
L 557.493107 420.381951 
L 557.531283 444.793897 
L 557.538918 445.152737 
L 557.546553 442.907813 
L 557.61527 418.206993 
L 557.653446 442.790989 
L 557.706892 473.791714 
L 557.737433 440.411147 
L 557.783244 410.688469 
L 557.82142 446.686599 
L 557.844326 441.859899 
L 557.897772 452.631588 
L 557.997029 525.917595 
L 557.951218 450.801334 
L 558.02757 478.881314 
L 558.165003 417.08273 
L 558.172639 412.83003 
L 558.23372 438.473148 
L 558.271896 471.881673 
L 558.355883 468.639521 
L 558.508587 419.227174 
L 558.523857 423.739636 
L 558.661291 449.413888 
L 558.577304 415.052975 
L 558.668926 448.090887 
L 558.699466 449.201677 
L 558.714737 441.32658 
L 558.768183 396.410784 
L 558.8369 421.863014 
L 558.913252 405.517634 
L 558.936157 418.391806 
L 558.959063 429.207935 
L 559.004874 396.383793 
L 559.020144 398.287861 
L 559.081226 455.34809 
L 559.211024 431.80331 
L 559.226294 414.527396 
L 559.26447 447.912831 
L 559.310281 446.803027 
L 559.371363 464.161152 
L 559.394268 443.720322 
L 559.539337 399.414311 
L 559.554607 413.338664 
L 559.585148 465.36916 
L 559.669135 437.01662 
L 559.783663 407.18956 
L 559.814204 417.603989 
L 559.86765 455.015244 
L 559.951637 442.234564 
L 560.0738 418.867415 
L 560.081435 422.545599 
L 560.127246 494.008641 
L 560.195963 433.8399 
L 560.241774 422.128419 
L 560.310491 432.413637 
L 560.409748 438.574402 
L 560.379207 427.627216 
L 560.417383 435.491241 
L 560.493735 418.609212 
L 560.524276 432.23423 
L 560.554817 457.55975 
L 560.608263 423.724869 
L 560.631169 430.540384 
L 560.69225 476.166178 
L 560.715156 496.869355 
L 560.768602 439.703747 
L 560.791507 452.750968 
L 560.890765 471.235452 
L 560.844954 425.799463 
L 560.906035 466.614643 
L 560.944211 431.903731 
L 561.005293 463.31036 
L 561.035833 491.228726 
L 561.112185 467.197129 
L 561.165632 444.436163 
L 561.226713 460.559012 
L 561.303065 492.466008 
L 561.333606 465.049138 
L 561.402322 411.26211 
L 561.455769 430.992303 
L 561.471039 440.705852 
L 561.50158 423.269927 
L 561.547391 423.449555 
L 561.577932 411.452215 
L 561.616108 444.477204 
L 561.623743 444.634309 
L 561.70773 495.902048 
L 561.768811 463.340342 
L 561.799352 468.910193 
L 561.845163 463.637409 
L 561.936785 415.185964 
L 561.990232 429.755976 
L 562.112395 479.555253 
L 562.12003 473.70841 
L 562.211652 436.880124 
L 562.242193 443.232042 
L 562.303274 469.141077 
L 562.333815 438.153147 
L 562.425437 425.784989 
L 562.379626 456.530565 
L 562.448343 435.659694 
L 562.478884 452.543901 
L 562.555235 435.67097 
L 562.639223 421.703095 
L 562.601047 453.479482 
L 562.654493 430.619231 
L 562.707939 417.388679 
L 562.776656 455.725289 
L 562.837737 461.172363 
L 562.975171 414.413635 
L 563.020982 442.772537 
L 563.16605 504.756659 
L 563.066793 423.867997 
L 563.173686 501.822314 
L 563.265308 411.981149 
L 563.303484 453.020392 
L 563.3722 485.21238 
L 563.34166 441.529102 
L 563.402741 455.6069 
L 563.555445 406.495585 
L 563.56308 410.121098 
L 563.669973 479.740662 
L 563.692878 453.61215 
L 563.708149 440.562212 
L 563.761595 460.612739 
L 563.799771 453.955778 
L 563.822676 441.872187 
L 563.860852 404.413745 
L 563.929569 443.610569 
L 564.089908 488.081312 
L 564.097543 478.323253 
L 564.150989 446.085524 
L 564.212071 464.041897 
L 564.280788 475.510716 
L 564.303693 452.885735 
L 564.37241 429.623545 
L 564.395315 462.226403 
L 564.418221 472.526619 
L 564.471667 436.73177 
L 564.486938 432.209179 
L 564.570925 436.381243 
L 564.59383 455.343229 
L 564.662547 427.302921 
L 564.685452 416.637182 
L 564.723628 452.599191 
L 564.746534 439.65902 
L 564.754169 439.663924 
L 564.815251 455.332357 
L 564.838156 437.4522 
L 564.853427 455.094863 
L 564.883967 522.313589 
L 564.967954 481.838645 
L 564.998495 448.03491 
L 565.074847 460.797086 
L 565.097752 515.325674 
L 565.18174 455.556616 
L 565.19701 456.430988 
L 565.21228 452.414327 
L 565.334443 435.854638 
L 565.303903 454.526648 
L 565.342078 437.15613 
L 565.364984 447.26938 
L 565.40316 422.236375 
L 565.41843 418.581444 
L 565.441336 440.796752 
L 565.471877 458.920945 
L 565.548228 447.351443 
L 565.571134 436.982516 
L 565.632216 466.47323 
L 565.647486 468.863444 
L 565.708567 458.393648 
L 565.807825 430.254568 
L 565.769649 474.949164 
L 565.838366 443.723866 
L 565.876541 486.338314 
L 565.914717 431.760094 
L 565.922353 425.850978 
L 565.952893 446.599431 
L 566.02161 434.093971 
L 566.159043 488.923395 
L 566.174314 469.9691 
L 566.197219 438.881365 
L 566.258301 509.024557 
L 566.265936 514.408664 
L 566.327017 487.978121 
L 566.357558 443.455298 
L 566.403369 526.600583 
L 566.43391 486.084577 
L 566.556073 436.726238 
L 566.617155 456.041466 
L 566.724047 482.207513 
L 566.647695 454.544272 
L 566.754588 464.47376 
L 566.777493 421.478553 
L 566.86148 472.131302 
L 566.914927 422.960857 
L 566.960738 477.657515 
L 566.983643 524.043882 
L 567.021819 444.581641 
L 567.067631 470.968886 
L 567.105806 418.397074 
L 567.227969 431.303223 
L 567.342497 458.211054 
L 567.296686 425.317975 
L 567.357768 448.020207 
L 567.380673 423.179357 
L 567.46466 441.183031 
L 567.533377 480.58177 
L 567.556282 445.213092 
L 567.571553 419.499599 
L 567.602094 447.656566 
L 567.663175 445.409403 
L 567.678445 447.136503 
L 567.708986 437.902125 
L 567.724257 424.131084 
L 567.792973 444.091327 
L 567.815879 441.227676 
L 567.854055 449.878234 
L 567.884595 436.722083 
L 567.930407 439.576987 
L 567.960947 418.785747 
L 567.976218 412.494446 
L 568.05257 431.54823 
L 568.098381 465.69332 
L 568.128921 418.131993 
L 568.151827 427.836457 
L 568.182368 410.551873 
L 568.266355 419.635961 
L 568.373247 448.746296 
L 568.388518 433.522129 
L 568.411423 422.136149 
L 568.449599 482.319685 
L 568.457234 478.163521 
L 568.564127 424.387657 
L 568.594668 447.390665 
L 568.640479 484.396264 
L 568.68629 436.7734 
L 568.716831 470.870453 
L 568.747371 428.800278 
L 568.800818 493.831656 
L 568.816088 492.582084 
L 568.945886 432.373959 
L 568.984062 457.904324 
L 569.006968 481.237543 
L 569.075684 424.877911 
L 569.09859 421.661969 
L 569.11386 434.62688 
L 569.136766 455.893555 
L 569.213118 423.475782 
L 569.30474 413.773258 
L 569.266564 431.840716 
L 569.335281 418.542212 
L 569.350551 422.879341 
L 569.381092 402.446315 
L 569.403997 405.871177 
L 569.426903 404.05736 
L 569.434538 406.271136 
L 569.487985 463.267292 
L 569.556701 413.485681 
L 569.579607 408.885925 
L 569.602512 431.568833 
L 569.739946 495.304293 
L 569.648323 424.347519 
L 569.755216 480.160224 
L 569.793392 426.631257 
L 569.869744 445.500623 
L 569.877379 448.288662 
L 569.90792 423.236766 
L 569.930825 428.243816 
L 569.961366 403.599214 
L 570.030083 427.156227 
L 570.060624 464.733996 
L 570.091164 423.126286 
L 570.12934 429.473065 
L 570.159881 400.784635 
L 570.243868 413.317166 
L 570.251503 411.015417 
L 570.266774 432.019061 
L 570.282044 461.377059 
L 570.350761 426.086034 
L 570.381301 448.20224 
L 570.404207 446.135432 
L 570.442383 467.400163 
L 570.450018 470.133807 
L 570.472924 439.833843 
L 570.503464 415.233504 
L 570.587451 433.242267 
L 570.595087 432.257102 
L 570.610357 439.484368 
L 570.625627 446.180753 
L 570.656168 420.714308 
L 570.701979 431.661714 
L 570.724885 424.526225 
L 570.763061 450.7408 
L 570.770696 454.720932 
L 570.831777 430.900529 
L 570.892859 448.018442 
L 570.9234 507.864114 
L 570.992116 440.027713 
L 571.099009 403.328176 
L 571.12955 415.672363 
L 571.205901 447.244451 
L 571.251713 427.114315 
L 571.266983 423.155518 
L 571.282253 437.641039 
L 571.373876 472.877674 
L 571.389146 451.630133 
L 571.473133 419.764355 
L 571.503674 444.53682 
L 571.549485 478.532959 
L 571.633472 456.211783 
L 571.686918 435.664953 
L 571.717459 463.396041 
L 571.732729 466.463578 
L 571.748 446.301704 
L 571.77854 421.610059 
L 571.870163 423.679624 
L 571.877798 423.261226 
L 571.900703 425.393578 
L 571.931244 461.656016 
L 572.007596 425.170398 
L 572.030502 422.147246 
L 572.045772 426.807823 
L 572.061042 439.36487 
L 572.091583 418.050094 
L 572.167935 438.151789 
L 572.290098 417.556126 
L 572.221381 466.40724 
L 572.297733 418.831605 
L 572.343544 458.788961 
L 572.38172 412.421355 
L 572.419896 433.342894 
L 572.427531 431.943322 
L 572.442802 444.994758 
L 572.465707 455.800127 
L 572.511518 434.510834 
L 572.542059 441.372204 
L 572.58787 417.35988 
L 572.633681 443.957411 
L 572.671857 457.903887 
L 572.725303 438.90868 
L 572.740574 423.530474 
L 572.816926 444.302324 
L 572.839831 433.322437 
L 572.870372 412.801221 
L 572.885642 403.73476 
L 572.946724 425.657463 
L 572.954359 424.719021 
L 572.977265 441.985413 
L 573.015441 404.81302 
L 573.076522 438.838712 
L 573.099428 428.940851 
L 573.114698 449.667046 
L 573.122333 454.494962 
L 573.19105 436.018566 
L 573.20632 430.443126 
L 573.244496 462.470072 
L 573.267402 466.081784 
L 573.275037 455.807485 
L 573.336118 410.889956 
L 573.3972 413.769525 
L 573.404835 412.14668 
L 573.420105 427.468366 
L 573.504092 457.687165 
L 573.534633 444.767753 
L 573.610985 418.231013 
L 573.633891 456.991058 
L 573.656796 486.817999 
L 573.694972 419.120071 
L 573.725513 425.778897 
L 573.748418 427.139452 
L 573.771324 421.428329 
L 573.817135 415.60227 
L 573.832405 428.521246 
L 573.908757 456.027684 
L 573.870581 408.587292 
L 573.946933 445.503926 
L 573.969839 424.980887 
L 574.01565 456.805609 
L 574.046191 443.870332 
L 574.061461 459.541267 
L 574.114907 410.768224 
L 574.137813 420.806736 
L 574.343963 452.616525 
L 574.168354 418.178754 
L 574.382139 442.602172 
L 574.405044 425.847323 
L 574.473761 450.412011 
L 574.504302 426.025476 
L 574.519572 424.786512 
L 574.611194 404.066791 
L 574.672276 418.231468 
L 574.740993 431.850123 
L 574.779169 419.207835 
L 574.817344 406.778186 
L 574.847885 426.689772 
L 574.908967 410.921426 
L 574.992954 452.301585 
L 575.0464 429.068655 
L 575.054035 425.788549 
L 575.084576 455.022923 
L 575.130387 437.01551 
L 575.160928 470.242269 
L 575.222009 426.647184 
L 575.229645 426.846394 
L 575.313632 493.360545 
L 575.344172 441.262255 
L 575.382348 420.94706 
L 575.435795 463.973254 
L 575.44343 463.890919 
L 575.47397 407.510704 
L 575.535052 468.999091 
L 575.550322 491.898472 
L 575.626674 432.955681 
L 575.725932 405.365815 
L 575.756472 412.569004 
L 575.794648 415.750801 
L 575.802284 413.693194 
L 575.840459 402.732152 
L 575.863365 427.851103 
L 575.871 437.563709 
L 575.939717 415.382384 
L 575.962622 424.545488 
L 575.985528 415.749149 
L 576.016069 436.903508 
L 576.161137 485.404874 
L 576.168772 479.261023 
L 576.214584 417.68737 
L 576.290935 444.231178 
L 576.329111 467.957111 
L 576.374922 439.598069 
L 576.413098 407.122893 
L 576.48945 435.045738 
L 576.558167 453.315192 
L 576.611613 442.183393 
L 576.657424 424.812342 
L 576.6956 445.783063 
L 576.741411 426.72239 
L 576.771952 454.833713 
L 576.87121 441.080756 
L 576.88648 435.962378 
L 576.917021 469.096809 
L 576.947561 450.188784 
L 576.962832 468.244653 
L 577.008643 437.099295 
L 577.054454 451.215799 
L 577.062089 451.231531 
L 577.138441 456.658946 
L 577.168982 452.711987 
L 577.237699 428.651297 
L 577.260604 451.700118 
L 577.321686 428.201991 
L 577.382767 466.816604 
L 577.405673 462.027162 
L 577.543106 419.476767 
L 577.573647 408.062144 
L 577.581282 410.571644 
L 577.611823 487.551863 
L 577.703445 443.899377 
L 577.749256 430.027702 
L 577.772162 446.233103 
L 577.817973 454.668505 
L 577.848513 434.696315 
L 577.886689 408.842153 
L 577.91723 450.39603 
L 577.947771 431.349587 
L 578.069934 457.409565 
L 577.985947 411.942791 
L 578.077569 456.9588 
L 578.12338 419.923365 
L 578.176826 454.283034 
L 578.207367 472.968845 
L 578.276084 444.914392 
L 578.3448 408.548753 
L 578.382976 441.262547 
L 578.482234 476.715473 
L 578.451693 428.280366 
L 578.497504 464.15715 
L 578.581491 429.982367 
L 578.619667 444.442407 
L 578.680749 459.142941 
L 578.696019 442.009856 
L 578.764736 407.722934 
L 578.734195 452.60459 
L 578.810547 413.249019 
L 578.848723 473.390443 
L 578.940345 443.496555 
L 579.001427 410.05102 
L 579.039602 458.561736 
L 579.047238 463.752211 
L 579.108319 432.889375 
L 579.115954 433.098752 
L 579.131225 452.393663 
L 579.207577 419.877965 
L 579.238117 401.4641 
L 579.291564 429.444017 
L 579.32974 462.313621 
L 579.383186 426.71018 
L 579.406091 437.037017 
L 579.505349 410.829028 
L 579.467173 442.548652 
L 579.528254 427.545301 
L 579.650417 508.69753 
L 579.612241 408.318444 
L 579.673323 452.725541 
L 579.680958 452.250911 
L 579.749675 403.650085 
L 579.818391 420.07383 
L 579.826027 419.944857 
L 579.94819 469.710398 
L 579.955825 463.673284 
L 580.039812 414.747007 
L 580.077988 430.968807 
L 580.131434 417.297302 
L 580.15434 436.440625 
L 580.177245 450.66009 
L 580.207786 428.276814 
L 580.253597 430.506084 
L 580.261232 429.822142 
L 580.276503 435.847942 
L 580.352854 427.149029 
L 580.37576 441.575478 
L 580.398666 418.0957 
L 580.475017 442.172992 
L 580.497923 424.864191 
L 580.681167 467.270655 
L 580.536099 417.18573 
L 580.719343 454.096609 
L 580.826236 408.020375 
L 580.841506 426.849982 
L 580.879682 472.564915 
L 580.902588 419.830112 
L 580.940764 437.778844 
L 580.97894 404.910772 
L 581.055292 420.355302 
L 581.124008 501.549124 
L 581.093468 412.822613 
L 581.162184 417.616186 
L 581.18509 403.617812 
L 581.238536 419.15559 
L 581.269077 415.288547 
L 581.314888 466.094492 
L 581.383605 436.068884 
L 581.398875 435.645268 
L 581.40651 438.650895 
L 581.421781 450.077629 
L 581.490497 424.218888 
L 581.521038 408.532404 
L 581.574484 446.869825 
L 581.620295 419.888029 
L 581.673742 442.098745 
L 581.696647 478.315827 
L 581.772999 416.30261 
L 581.834081 407.270029 
L 581.811175 438.254182 
L 581.887527 413.157445 
L 581.925703 470.616275 
L 582.02496 429.641418 
L 582.032595 429.624214 
L 582.047866 424.945915 
L 582.078407 438.832128 
L 582.093677 457.207311 
L 582.139488 430.61299 
L 582.185299 436.475017 
L 582.292192 405.783234 
L 582.246381 451.239104 
L 582.322732 408.760177 
L 582.360908 450.064363 
L 582.452531 434.347713 
L 582.475436 411.069678 
L 582.528883 474.136446 
L 582.544153 482.028277 
L 582.597599 446.642784 
L 582.64341 414.70079 
L 582.704492 439.866145 
L 582.765573 462.647726 
L 582.742668 431.04623 
L 582.803749 446.536096 
L 582.81902 417.301693 
L 582.895371 486.693415 
L 582.903007 496.94876 
L 582.956453 422.754994 
L 583.002264 440.746897 
L 582.979359 421.97139 
L 583.078616 426.238876 
L 583.132062 423.684831 
L 583.101521 430.981694 
L 583.162603 428.947057 
L 583.185509 444.063574 
L 583.223684 427.115112 
L 583.24659 428.060138 
L 583.330577 412.048048 
L 583.292401 446.323641 
L 583.353483 430.479672 
L 583.361118 430.301582 
L 583.368753 432.191374 
L 583.391659 466.314265 
L 583.422199 414.381056 
L 583.475646 433.716128 
L 583.483281 433.154784 
L 583.498551 470.598871 
L 583.597809 443.957395 
L 583.635985 496.4499 
L 583.689431 443.390862 
L 583.712336 452.467243 
L 583.811594 434.195175 
L 583.773418 473.541313 
L 583.826864 445.014699 
L 583.834499 449.894762 
L 583.86504 418.112911 
L 583.910851 429.32883 
L 583.933757 413.993451 
L 583.949027 426.506211 
L 583.979568 471.290479 
L 584.063555 435.981537 
L 584.078825 406.567036 
L 584.147542 451.757467 
L 584.170448 427.197674 
L 584.254435 467.820161 
L 584.284975 433.210347 
L 584.300246 417.52189 
L 584.376598 459.365675 
L 584.407138 424.762641 
L 584.460585 484.451157 
L 584.46822 484.224685 
L 584.590383 446.148138 
L 584.605653 450.538285 
L 584.682005 521.341359 
L 584.651464 446.569931 
L 584.720181 455.187401 
L 584.735451 448.6648 
L 584.781262 473.276763 
L 584.857614 483.344566 
L 584.804168 452.820337 
L 584.865249 479.997282 
L 584.918696 429.44734 
L 584.987412 442.05418 
L 585.010318 478.398215 
L 585.0714 424.830086 
L 585.132481 416.342418 
L 585.155387 429.953153 
L 585.163022 430.356361 
L 585.185927 416.38365 
L 585.262279 435.388793 
L 585.361537 451.800582 
L 585.323361 432.310451 
L 585.399713 441.51381 
L 585.407348 437.48103 
L 585.422618 461.400721 
L 585.4837 505.854872 
L 585.453159 437.141725 
L 585.529511 464.604959 
L 585.590592 418.009645 
L 585.659309 430.863811 
L 585.68985 455.686868 
L 585.728026 507.521873 
L 585.796742 452.019346 
L 585.880729 415.035121 
L 585.857824 469.995352 
L 585.918905 437.188882 
L 586.002892 454.62142 
L 585.964716 413.300027 
L 586.025798 441.044257 
L 586.063974 419.174043 
L 586.109785 412.597038 
L 586.140326 429.529945 
L 586.178502 493.263955 
L 586.231948 426.16049 
L 586.262489 439.041391 
L 586.270124 439.03616 
L 586.3083 448.8765 
L 586.331205 466.957184 
L 586.384652 427.640389 
L 586.392287 419.840027 
L 586.468639 451.442983 
L 586.476274 445.240305 
L 586.567896 480.563762 
L 586.522085 429.478035 
L 586.583166 464.539123 
L 586.667153 423.394917 
L 586.712965 424.697425 
L 586.758776 497.553918 
L 586.858033 448.763653 
L 586.880939 467.235816 
L 586.911479 435.50244 
L 586.934385 420.312294 
L 586.980196 401.66019 
L 587.018372 437.333756 
L 587.033642 472.78693 
L 587.102359 413.954933 
L 587.125265 425.037381 
L 587.140535 410.064863 
L 587.163441 463.640394 
L 587.178711 502.730077 
L 587.232157 418.420963 
L 587.255063 420.228079 
L 587.262698 418.485054 
L 587.270333 431.593175 
L 587.285604 484.362536 
L 587.377226 457.305997 
L 587.423037 416.881381 
L 587.476483 473.157672 
L 587.484118 480.713637 
L 587.491754 433.798073 
L 587.5452 434.362022 
L 590.545828 434.14282 
L 591.187184 434.176448 
L 595.783566 434.737631 
L 600.044 434.116761 
L 603.502739 433.737921 
L 604.961059 433.549913 
L 609.71778 433.666739 
L 613.084898 434.488729 
L 614.22254 434.697375 
L 617.070465 434.972758 
L 617.925606 435.367363 
L 619.445008 435.613254 
L 621.697388 435.889236 
L 624.614029 435.525414 
L 627.393236 434.398028 
L 628.362905 434.458123 
L 636.043902 434.986385 
L 641.839009 435.59839 
L 647.527222 436.218326 
L 662.079887 436.63033 
L 664.843825 436.516147 
L 666.699175 436.088702 
L 670.241901 435.019062 
L 672.22705 434.015647 
L 675.021528 432.618668 
L 676.983771 431.97257 
L 679.785884 431.308778 
L 682.954486 430.5966 
L 684.496794 429.925421 
L 685.390111 429.287207 
L 686.657551 428.019377 
L 688.489996 426.11675 
L 689.322231 425.659887 
L 690.27663 425.396366 
L 693.109284 424.787366 
L 695.384569 423.662081 
L 696.896336 422.697252 
L 698.324116 421.84647 
L 699.721355 420.950748 
L 701.36292 419.788603 
L 702.699078 419.161571 
L 705.096526 418.182947 
L 705.921126 417.845709 
L 706.982417 417.53067 
L 709.555475 416.352221 
L 710.731293 416.096677 
L 712.84624 414.99116 
L 715.556731 413.54643 
L 717.091404 412.955304 
L 718.206141 412.409896 
L 720.168384 411.381268 
L 732.995496 405.272767 
L 747.494715 396.870105 
L 749.75473 395.180511 
L 753.091306 393.283627 
L 755.870514 391.396071 
L 759.214726 388.841834 
L 761.490011 386.917721 
L 765.506119 383.058332 
L 767.414916 380.703014 
L 772.622113 374.23848 
L 775.439496 370.849822 
L 777.768228 367.524146 
L 780.119865 364.166956 
L 782.043932 361.31726 
L 784.800235 356.808637 
L 786.983898 353.405623 
L 788.190257 351.663938 
L 789.251548 349.557344 
L 791.59555 344.952966 
L 792.450691 343.511986 
L 793.305832 341.445301 
L 797.581536 330.333121 
L 799.268912 324.845537 
L 804.292865 308.787715 
L 805.819902 304.287039 
L 807.39275 299.042461 
L 808.591475 295.279717 
L 809.591684 292.074609 
L 810.904936 286.716439 
L 812.48542 280.474263 
L 813.592522 276.591811 
L 814.600366 272.028545 
L 819.242559 247.454735 
L 820.578717 239.011403 
L 821.426223 233.315573 
L 823.098328 222.371224 
L 825.457601 208.440145 
L 829.030868 187.474596 
L 831.649737 172.828265 
L 835.749832 150.457847 
L 837.864778 136.430338 
L 838.933704 129.120832 
L 839.605601 123.695371 
L 839.903373 118.78424 
L 839.903373 118.78424 
" clip-path="url(#pea6c6965c2)" style="fill: none; stroke: #510ac9; stroke-width: 5; stroke-linecap: square"/>
   </g>
   <g id="patch_3">
    <path d="M 76.4 560.571 
L 76.4 62.234 
" style="fill: none; stroke: #000000; stroke-width: 0.8; stroke-linejoin: miter; stroke-linecap: square"/>
   </g>
   <g id="patch_4">
    <path d="M 844 560.571 
L 844 62.234 
" style="fill: none; stroke: #000000; stroke-width: 0.8; stroke-linejoin: miter; stroke-linecap: square"/>
   </g>
   <g id="patch_5">
    <path d="M 76.4 560.571 
L 844 560.571 
" style="fill: none; stroke: #000000; stroke-width: 0.8; stroke-linejoin: miter; stroke-linecap: square"/>
   </g>
   <g id="patch_6">
    <path d="M 76.4 62.234 
L 844 62.234 
" style="fill: none; stroke: #000000; stroke-width: 0.8; stroke-linejoin: miter; stroke-linecap: square"/>
   </g>
   <g id="text_18">
    <!-- Neutron reproduction factor -->
    <g transform="translate(242.957813 43.775575) scale(0.3 -0.3)">
     <use xlink:href="#DejaVuSerif-4e"/>
     <use xlink:href="#DejaVuSerif-65" transform="translate(87.5 0)"/>
     <use xlink:href="#DejaVuSerif-75" transform="translate(146.679688 0)"/>
     <use xlink:href="#DejaVuSerif-74" transform="translate(211.083984 0)"/>
     <use xlink:href="#DejaVuSerif-72" transform="translate(251.269531 0)"/>
     <use xlink:href="#DejaVuSerif-6f" transform="translate(299.072266 0)"/>
     <use xlink:href="#DejaVuSerif-6e" transform="translate(359.277344 0)"/>
     <use xlink:href="#DejaVuSerif-20" transform="translate(423.681641 0)"/>
     <use xlink:href="#DejaVuSerif-72" transform="translate(455.46875 0)"/>
     <use xlink:href="#DejaVuSerif-65" transform="translate(503.271484 0)"/>
     <use xlink:href="#DejaVuSerif-70" transform="translate(562.451172 0)"/>
     <use xlink:href="#DejaVuSerif-72" transform="translate(626.464844 0)"/>
     <use xlink:href="#DejaVuSerif-6f" transform="translate(674.267578 0)"/>
     <use xlink:href="#DejaVuSerif-64" transform="translate(734.472656 0)"/>
     <use xlink:href="#DejaVuSerif-75" transform="translate(798.486328 0)"/>
     <use xlink:href="#DejaVuSerif-63" transform="translate(862.890625 0)"/>
     <use xlink:href="#DejaVuSerif-74" transform="translate(918.896484 0)"/>
     <use xlink:href="#DejaVuSerif-69" transform="translate(959.082031 0)"/>
     <use xlink:href="#DejaVuSerif-6f" transform="translate(991.064453 0)"/>
     <use xlink:href="#DejaVuSerif-6e" transform="translate(1051.269531 0)"/>
     <use xlink:href="#DejaVuSerif-20" transform="translate(1115.673828 0)"/>
     <use xlink:href="#DejaVuSerif-66" transform="translate(1147.460938 0)"/>
     <use xlink:href="#DejaVuSerif-61" transform="translate(1184.472656 0)"/>
     <use xlink:href="#DejaVuSerif-63" transform="translate(1244.091797 0)"/>
     <use xlink:href="#DejaVuSerif-74" transform="translate(1300.097656 0)"/>
     <use xlink:href="#DejaVuSerif-6f" transform="translate(1340.283203 0)"/>
     <use xlink:href="#DejaVuSerif-72" transform="translate(1400.488281 0)"/>
    </g>
   </g>
   <g id="legend_1">
    <g id="patch_7">
     <path d="M 721.6 107.59025 
L 830 107.59025 
Q 834 107.59025 834 103.59025 
L 834 76.234 
Q 834 72.234 830 72.234 
L 721.6 72.234 
Q 717.6 72.234 717.6 76.234 
L 717.6 103.59025 
Q 717.6 107.59025 721.6 107.59025 
z
" style="fill: #ffffff; opacity: 0.95; stroke: #cccccc; stroke-linejoin: miter"/>
    </g>
    <g id="line2d_32">
     <path d="M 725.6 88.430875 
L 745.6 88.430875 
L 765.6 88.430875 
" style="fill: none; stroke: #510ac9; stroke-width: 5; stroke-linecap: square"/>
    </g>
    <g id="text_19">
     <!-- $\mathrm{^{235}U}$ -->
     <g transform="translate(781.6 95.430875) scale(0.2 -0.2)">
      <defs>
       <path id="DejaVuSerif-55" d="M 897 4331 
L 300 4331 
L 300 4666 
L 2125 4666 
L 2125 4331 
L 1528 4331 
L 1528 1919 
Q 1528 1025 1820 672 
Q 2113 319 2828 319 
Q 3544 319 3836 672 
Q 4128 1025 4128 1919 
L 4128 4331 
L 3531 4331 
L 3531 4666 
L 5106 4666 
L 5106 4331 
L 4513 4331 
L 4513 1856 
Q 4513 791 4103 350 
Q 3694 -91 2713 -91 
Q 1731 -91 1314 353 
Q 897 797 897 1856 
L 897 4331 
z
" transform="scale(0.015625)"/>
      </defs>
      <use xlink:href="#DejaVuSerif-32" transform="translate(0.908359 37.046875) scale(0.7)"/>
      <use xlink:href="#DejaVuSerif-33" transform="translate(45.444492 37.046875) scale(0.7)"/>
      <use xlink:href="#DejaVuSerif-35" transform="translate(89.980625 37.046875) scale(0.7)"/>
      <use xlink:href="#DejaVuSerif-55" transform="translate(137.11207 0.7125)"/>
     </g>
    </g>
   </g>
  </g>
 </g>
 <defs>
  <clipPath id="pea6c6965c2">
   <rect x="76.4" y="62.234" width="767.6" height="498.337"/>
  </clipPath>
 </defs>
</svg>
