<?xml version="1.0" encoding="utf-8" standalone="no"?>
<!DOCTYPE svg PUBLIC "-//W3C//DTD SVG 1.1//EN"
  "http://www.w3.org/Graphics/SVG/1.1/DTD/svg11.dtd">
<svg xmlns:xlink="http://www.w3.org/1999/xlink" width="864pt" height="648pt" viewBox="0 0 864 648" xmlns="http://www.w3.org/2000/svg" version="1.1">
 <metadata>
  <rdf:RDF xmlns:dc="http://purl.org/dc/elements/1.1/" xmlns:cc="http://creativecommons.org/ns#" xmlns:rdf="http://www.w3.org/1999/02/22-rdf-syntax-ns#">
   <cc:Work>
    <dc:type rdf:resource="http://purl.org/dc/dcmitype/StillImage"/>
    <dc:date>2025-10-21T14:54:19.459424</dc:date>
    <dc:format>image/svg+xml</dc:format>
    <dc:creator>
     <cc:Agent>
      <dc:title>Matplotlib v3.10.7, https://matplotlib.org/</dc:title>
     </cc:Agent>
    </dc:creator>
   </cc:Work>
  </rdf:RDF>
 </metadata>
 <defs>
  <style type="text/css">*{stroke-linejoin: round; stroke-linecap: butt}</style>
 </defs>
 <g id="figure_1">
  <g id="patch_1">
   <path d="M 0 648 
L 864 648 
L 864 0 
L 0 0 
z
" style="fill: #ffffff; stroke: #000000; stroke-width: 3; stroke-linejoin: miter"/>
  </g>
  <g id="axes_1">
   <g id="patch_2">
    <path d="M 71.99 566.88 
L 844 566.88 
L 844 57.914 
L 71.99 57.914 
L 71.99 566.88 
z
" style="fill: none"/>
   </g>
   <g id="matplotlib.axis_1">
    <g id="xtick_1">
     <g id="line2d_1">
      <path d="M 71.99 566.88 
L 71.99 57.914 
" clip-path="url(#p6344802ddb)" style="fill: none; stroke-dasharray: 3.7,1.6; stroke-dashoffset: 0; stroke: #343837; stroke-opacity: 0.8"/>
     </g>
     <g id="line2d_2">
      <defs>
       <path id="m86c8943f1e" d="M 0 0 
L 0 3.5 
" style="stroke: #000000; stroke-width: 0.8"/>
      </defs>
      <g>
       <use xlink:href="#m86c8943f1e" x="71.99" y="566.88" style="stroke: #000000; stroke-width: 0.8"/>
      </g>
     </g>
     <g id="text_1">
      <!-- $\mathdefault{10^{-11}}$ -->
      <g transform="translate(47.46 588.338125) scale(0.22 -0.22)">
       <defs>
        <path id="Aptos-31" d="M 1681 0 
L 1681 3425 
Q 1597 3309 1442 3201 
Q 1288 3094 1075 3009 
Q 863 2925 600 2888 
L 600 3381 
Q 859 3425 1082 3540 
Q 1306 3656 1476 3806 
Q 1647 3956 1744 4094 
L 2228 4094 
L 2228 0 
L 1681 0 
z
" transform="scale(0.015625)"/>
        <path id="Aptos-30" d="M 1709 -56 
Q 1316 -56 1045 105 
Q 775 266 611 552 
Q 447 838 373 1216 
Q 300 1594 300 2031 
Q 300 2475 373 2856 
Q 447 3238 611 3525 
Q 775 3813 1045 3973 
Q 1316 4134 1709 4134 
Q 2103 4134 2373 3975 
Q 2644 3816 2806 3527 
Q 2969 3238 3042 2858 
Q 3116 2478 3116 2038 
Q 3116 1597 3042 1217 
Q 2969 838 2806 552 
Q 2644 266 2373 105 
Q 2103 -56 1709 -56 
z
M 1709 400 
Q 1969 400 2134 540 
Q 2300 681 2392 917 
Q 2484 1153 2520 1445 
Q 2556 1738 2556 2038 
Q 2556 2341 2520 2633 
Q 2484 2925 2392 3161 
Q 2300 3397 2134 3537 
Q 1969 3678 1709 3678 
Q 1450 3678 1283 3537 
Q 1116 3397 1022 3161 
Q 928 2925 892 2633 
Q 856 2341 856 2038 
Q 856 1738 892 1445 
Q 928 1153 1022 917 
Q 1116 681 1283 540 
Q 1450 400 1709 400 
z
" transform="scale(0.015625)"/>
        <path id="Aptos-2212" d="M 353 1866 
L 353 2319 
L 3059 2319 
L 3059 1866 
L 353 1866 
z
" transform="scale(0.015625)"/>
       </defs>
       <use xlink:href="#Aptos-31" transform="translate(0 0.928125)"/>
       <use xlink:href="#Aptos-30" transform="translate(53.417969 0.928125)"/>
       <use xlink:href="#Aptos-2212" transform="translate(107.668281 34.221875) scale(0.7)"/>
       <use xlink:href="#Aptos-31" transform="translate(145.060859 34.221875) scale(0.7)"/>
       <use xlink:href="#Aptos-31" transform="translate(182.453438 34.221875) scale(0.7)"/>
      </g>
     </g>
    </g>
    <g id="xtick_2">
     <g id="line2d_3">
      <path d="M 195.077661 566.88 
L 195.077661 57.914 
" clip-path="url(#p6344802ddb)" style="fill: none; stroke-dasharray: 3.7,1.6; stroke-dashoffset: 0; stroke: #343837; stroke-opacity: 0.8"/>
     </g>
     <g id="line2d_4">
      <g>
       <use xlink:href="#m86c8943f1e" x="195.077661" y="566.88" style="stroke: #000000; stroke-width: 0.8"/>
      </g>
     </g>
     <g id="text_2">
      <!-- $\mathdefault{10^{-9}}$ -->
      <g transform="translate(174.727661 588.338125) scale(0.22 -0.22)">
       <defs>
        <path id="Aptos-39" d="M 1594 -56 
Q 1244 -56 970 64 
Q 697 184 523 415 
Q 350 647 303 978 
L 831 978 
Q 881 713 1075 552 
Q 1269 391 1594 391 
Q 2066 391 2337 778 
Q 2609 1166 2609 2019 
L 2609 2197 
Q 2609 2753 2481 3079 
Q 2353 3406 2142 3547 
Q 1931 3688 1681 3688 
Q 1250 3688 1042 3433 
Q 834 3178 834 2800 
Q 834 2422 1034 2203 
Q 1234 1984 1594 1984 
Q 1878 1984 2087 2071 
Q 2297 2159 2453 2300 
Q 2609 2441 2725 2594 
L 2778 2209 
Q 2653 2038 2476 1884 
Q 2300 1731 2064 1634 
Q 1828 1538 1528 1538 
Q 1166 1538 886 1683 
Q 606 1828 448 2108 
Q 291 2388 291 2784 
Q 291 3175 458 3479 
Q 625 3784 936 3959 
Q 1247 4134 1675 4134 
Q 2100 4134 2433 3926 
Q 2766 3719 2958 3262 
Q 3150 2806 3150 2066 
Q 3150 1338 2956 869 
Q 2763 400 2413 172 
Q 2063 -56 1594 -56 
z
" transform="scale(0.015625)"/>
       </defs>
       <use xlink:href="#Aptos-31" transform="translate(0 0.490625)"/>
       <use xlink:href="#Aptos-30" transform="translate(53.417969 0.490625)"/>
       <use xlink:href="#Aptos-2212" transform="translate(107.668281 33.784375) scale(0.7)"/>
       <use xlink:href="#Aptos-39" transform="translate(145.060859 33.784375) scale(0.7)"/>
      </g>
     </g>
    </g>
    <g id="xtick_3">
     <g id="line2d_5">
      <path d="M 318.165323 566.88 
L 318.165323 57.914 
" clip-path="url(#p6344802ddb)" style="fill: none; stroke-dasharray: 3.7,1.6; stroke-dashoffset: 0; stroke: #343837; stroke-opacity: 0.8"/>
     </g>
     <g id="line2d_6">
      <g>
       <use xlink:href="#m86c8943f1e" x="318.165323" y="566.88" style="stroke: #000000; stroke-width: 0.8"/>
      </g>
     </g>
     <g id="text_3">
      <!-- $\mathdefault{10^{-7}}$ -->
      <g transform="translate(297.815323 588.338125) scale(0.22 -0.22)">
       <defs>
        <path id="Aptos-37" d="M 806 0 
L 2584 3600 
L 297 3600 
L 297 4078 
L 3116 4078 
L 3116 3622 
L 1375 0 
L 806 0 
z
" transform="scale(0.015625)"/>
       </defs>
       <use xlink:href="#Aptos-31" transform="translate(0 0.103125)"/>
       <use xlink:href="#Aptos-30" transform="translate(53.417969 0.103125)"/>
       <use xlink:href="#Aptos-2212" transform="translate(107.668281 33.396875) scale(0.7)"/>
       <use xlink:href="#Aptos-37" transform="translate(145.060859 33.396875) scale(0.7)"/>
      </g>
     </g>
    </g>
    <g id="xtick_4">
     <g id="line2d_7">
      <path d="M 441.252984 566.88 
L 441.252984 57.914 
" clip-path="url(#p6344802ddb)" style="fill: none; stroke-dasharray: 3.7,1.6; stroke-dashoffset: 0; stroke: #343837; stroke-opacity: 0.8"/>
     </g>
     <g id="line2d_8">
      <g>
       <use xlink:href="#m86c8943f1e" x="441.252984" y="566.88" style="stroke: #000000; stroke-width: 0.8"/>
      </g>
     </g>
     <g id="text_4">
      <!-- $\mathdefault{10^{-5}}$ -->
      <g transform="translate(420.902984 588.338125) scale(0.22 -0.22)">
       <defs>
        <path id="Aptos-35" d="M 1709 -56 
Q 1313 -56 992 83 
Q 672 222 484 483 
Q 297 744 297 1113 
L 831 1113 
Q 831 778 1076 584 
Q 1322 391 1709 391 
Q 2119 391 2347 625 
Q 2575 859 2575 1319 
Q 2575 1772 2345 1989 
Q 2116 2206 1725 2206 
Q 1434 2206 1245 2123 
Q 1056 2041 931 1894 
L 459 1894 
L 638 4078 
L 2838 4078 
L 2838 3613 
L 1056 3613 
L 947 2322 
Q 1063 2453 1267 2550 
Q 1472 2647 1797 2647 
Q 2159 2647 2459 2506 
Q 2759 2366 2939 2072 
Q 3119 1778 3119 1319 
Q 3119 872 2937 565 
Q 2756 259 2439 101 
Q 2122 -56 1709 -56 
z
" transform="scale(0.015625)"/>
       </defs>
       <use xlink:href="#Aptos-31" transform="translate(0 0.103125)"/>
       <use xlink:href="#Aptos-30" transform="translate(53.417969 0.103125)"/>
       <use xlink:href="#Aptos-2212" transform="translate(107.668281 33.396875) scale(0.7)"/>
       <use xlink:href="#Aptos-35" transform="translate(145.060859 33.396875) scale(0.7)"/>
      </g>
     </g>
    </g>
    <g id="xtick_5">
     <g id="line2d_9">
      <path d="M 564.340646 566.88 
L 564.340646 57.914 
" clip-path="url(#p6344802ddb)" style="fill: none; stroke-dasharray: 3.7,1.6; stroke-dashoffset: 0; stroke: #343837; stroke-opacity: 0.8"/>
     </g>
     <g id="line2d_10">
      <g>
       <use xlink:href="#m86c8943f1e" x="564.340646" y="566.88" style="stroke: #000000; stroke-width: 0.8"/>
      </g>
     </g>
     <g id="text_5">
      <!-- $\mathdefault{10^{-3}}$ -->
      <g transform="translate(543.990646 588.338125) scale(0.22 -0.22)">
       <defs>
        <path id="Aptos-33" d="M 1738 -56 
Q 1088 -56 697 275 
Q 306 606 306 1225 
L 828 1225 
Q 828 844 1067 617 
Q 1306 391 1731 391 
Q 2125 391 2351 581 
Q 2578 772 2578 1172 
Q 2578 1556 2328 1737 
Q 2078 1919 1644 1919 
L 1403 1919 
L 1403 2363 
L 1656 2363 
Q 2047 2363 2253 2556 
Q 2459 2750 2459 3072 
Q 2459 3378 2256 3529 
Q 2053 3681 1722 3681 
Q 1347 3681 1140 3481 
Q 934 3281 934 2956 
L 413 2956 
Q 413 3319 578 3583 
Q 744 3847 1036 3990 
Q 1328 4134 1716 4134 
Q 2066 4134 2353 4017 
Q 2641 3900 2811 3670 
Q 2981 3441 2981 3097 
Q 2981 2731 2778 2495 
Q 2575 2259 2244 2166 
Q 2622 2097 2870 1840 
Q 3119 1584 3119 1150 
Q 3119 763 2945 494 
Q 2772 225 2461 84 
Q 2150 -56 1738 -56 
z
" transform="scale(0.015625)"/>
       </defs>
       <use xlink:href="#Aptos-31" transform="translate(0 0.490625)"/>
       <use xlink:href="#Aptos-30" transform="translate(53.417969 0.490625)"/>
       <use xlink:href="#Aptos-2212" transform="translate(107.668281 33.784375) scale(0.7)"/>
       <use xlink:href="#Aptos-33" transform="translate(145.060859 33.784375) scale(0.7)"/>
      </g>
     </g>
    </g>
    <g id="xtick_6">
     <g id="line2d_11">
      <path d="M 687.428307 566.88 
L 687.428307 57.914 
" clip-path="url(#p6344802ddb)" style="fill: none; stroke-dasharray: 3.7,1.6; stroke-dashoffset: 0; stroke: #343837; stroke-opacity: 0.8"/>
     </g>
     <g id="line2d_12">
      <g>
       <use xlink:href="#m86c8943f1e" x="687.428307" y="566.88" style="stroke: #000000; stroke-width: 0.8"/>
      </g>
     </g>
     <g id="text_6">
      <!-- $\mathdefault{10^{-1}}$ -->
      <g transform="translate(667.078307 588.338125) scale(0.22 -0.22)">
       <use xlink:href="#Aptos-31" transform="translate(0 0.928125)"/>
       <use xlink:href="#Aptos-30" transform="translate(53.417969 0.928125)"/>
       <use xlink:href="#Aptos-2212" transform="translate(107.668281 34.221875) scale(0.7)"/>
       <use xlink:href="#Aptos-31" transform="translate(145.060859 34.221875) scale(0.7)"/>
      </g>
     </g>
    </g>
    <g id="xtick_7">
     <g id="line2d_13">
      <path d="M 810.515968 566.88 
L 810.515968 57.914 
" clip-path="url(#p6344802ddb)" style="fill: none; stroke-dasharray: 3.7,1.6; stroke-dashoffset: 0; stroke: #343837; stroke-opacity: 0.8"/>
     </g>
     <g id="line2d_14">
      <g>
       <use xlink:href="#m86c8943f1e" x="810.515968" y="566.88" style="stroke: #000000; stroke-width: 0.8"/>
      </g>
     </g>
     <g id="text_7">
      <!-- $\mathdefault{10^{1}}$ -->
      <g transform="translate(794.235968 588.338125) scale(0.22 -0.22)">
       <use xlink:href="#Aptos-31" transform="translate(0 0.928125)"/>
       <use xlink:href="#Aptos-30" transform="translate(53.417969 0.928125)"/>
       <use xlink:href="#Aptos-31" transform="translate(107.668281 34.221875) scale(0.7)"/>
      </g>
     </g>
    </g>
    <g id="text_8">
     <!-- Energy of incident neutron (MeV) -->
     <g transform="translate(276.356562 621.373125) scale(0.26 -0.26)">
      <defs>
       <path id="Aptos-45" d="M 550 0 
L 550 4206 
L 3234 4206 
L 3234 3738 
L 1113 3738 
L 1113 2397 
L 3066 2397 
L 3066 1934 
L 1113 1934 
L 1113 469 
L 3234 469 
L 3234 0 
L 550 0 
z
" transform="scale(0.015625)"/>
       <path id="Aptos-6e" d="M 503 0 
L 503 3044 
L 1003 3044 
L 1022 2575 
Q 1163 2759 1425 2923 
Q 1688 3088 2097 3088 
Q 2597 3088 2825 2792 
Q 3053 2497 3053 1963 
L 3053 0 
L 2531 0 
L 2531 1888 
Q 2531 2109 2484 2281 
Q 2438 2453 2317 2551 
Q 2197 2650 1969 2650 
Q 1628 2650 1397 2495 
Q 1166 2341 1025 2156 
L 1025 0 
L 503 0 
z
" transform="scale(0.015625)"/>
       <path id="Aptos-65" d="M 1769 -56 
Q 1272 -56 955 151 
Q 638 359 484 717 
Q 331 1075 331 1522 
Q 331 1988 479 2342 
Q 628 2697 933 2897 
Q 1238 3097 1706 3097 
Q 2328 3097 2681 2722 
Q 3034 2347 3034 1644 
Q 3034 1597 3031 1533 
Q 3028 1469 3022 1441 
L 853 1441 
Q 856 1144 948 895 
Q 1041 647 1241 497 
Q 1441 347 1769 347 
Q 2119 347 2316 511 
Q 2513 675 2522 984 
L 3038 984 
Q 3028 663 2872 430 
Q 2716 197 2434 70 
Q 2153 -56 1769 -56 
z
M 856 1822 
L 2519 1822 
Q 2509 2247 2296 2472 
Q 2084 2697 1706 2697 
Q 1325 2697 1108 2473 
Q 891 2250 856 1822 
z
" transform="scale(0.015625)"/>
       <path id="Aptos-72" d="M 503 0 
L 503 3044 
L 994 3044 
L 1013 2525 
Q 1141 2763 1369 2922 
Q 1597 3081 1963 3081 
L 2025 3081 
L 2025 2603 
L 1953 2603 
Q 1725 2603 1553 2543 
Q 1381 2484 1253 2379 
Q 1125 2275 1025 2138 
L 1025 0 
L 503 0 
z
" transform="scale(0.015625)"/>
       <path id="Aptos-67" d="M 1563 -1178 
Q 1069 -1178 773 -1065 
Q 478 -953 347 -765 
Q 216 -578 216 -359 
Q 216 -94 442 112 
Q 669 319 1141 403 
L 1241 575 
L 1625 575 
Q 2375 575 2697 376 
Q 3019 178 3019 -238 
Q 3019 -650 2651 -914 
Q 2284 -1178 1563 -1178 
z
M 1550 -800 
Q 2081 -800 2298 -650 
Q 2516 -500 2516 -278 
Q 2516 -147 2442 -51 
Q 2369 44 2170 97 
Q 1972 150 1606 150 
L 1144 150 
Q 931 97 815 -31 
Q 700 -159 700 -328 
Q 700 -516 897 -658 
Q 1094 -800 1550 -800 
z
M 1134 178 
Q 838 209 667 301 
Q 497 394 425 508 
Q 353 622 353 728 
Q 353 881 476 1017 
Q 600 1153 881 1241 
L 1141 1078 
Q 975 1031 878 957 
Q 781 884 781 794 
Q 781 731 839 682 
Q 897 634 1036 604 
Q 1175 575 1422 575 
L 1134 178 
z
M 1525 984 
Q 1150 984 889 1129 
Q 628 1275 493 1511 
Q 359 1747 359 2022 
Q 359 2313 495 2550 
Q 631 2788 895 2928 
Q 1159 3069 1541 3069 
Q 1931 3069 2190 2928 
Q 2450 2788 2578 2550 
Q 2706 2313 2706 2022 
Q 2706 1741 2576 1505 
Q 2447 1269 2184 1126 
Q 1922 984 1525 984 
z
M 1522 1341 
Q 1822 1341 2017 1512 
Q 2213 1684 2213 2022 
Q 2213 2375 2028 2545 
Q 1844 2716 1541 2716 
Q 1244 2716 1048 2541 
Q 853 2366 853 2025 
Q 853 1681 1054 1511 
Q 1256 1341 1522 1341 
z
M 2319 2734 
L 2106 2931 
Q 2241 3225 2458 3331 
Q 2675 3438 3019 3447 
L 3019 3006 
Q 2800 3006 2617 2961 
Q 2434 2916 2319 2734 
z
" transform="scale(0.015625)"/>
       <path id="Aptos-79" d="M 328 -1119 
L 328 -688 
L 584 -688 
Q 763 -688 886 -592 
Q 1009 -497 1097 -275 
L 1216 0 
L 0 3044 
L 553 3044 
L 1494 553 
L 2363 3044 
L 2894 3044 
L 1750 0 
L 1606 -369 
Q 1500 -641 1379 -806 
Q 1259 -972 1084 -1045 
Q 909 -1119 638 -1119 
L 328 -1119 
z
" transform="scale(0.015625)"/>
       <path id="Aptos-20" transform="scale(0.015625)"/>
       <path id="Aptos-6f" d="M 1750 -50 
Q 1303 -50 984 139 
Q 666 328 498 679 
Q 331 1031 331 1516 
Q 331 2013 498 2367 
Q 666 2722 984 2912 
Q 1303 3103 1750 3103 
Q 2206 3103 2529 2912 
Q 2853 2722 3026 2367 
Q 3200 2013 3200 1516 
Q 3200 1031 3026 679 
Q 2853 328 2529 139 
Q 2206 -50 1750 -50 
z
M 1750 366 
Q 2088 366 2288 514 
Q 2488 663 2575 923 
Q 2663 1184 2663 1516 
Q 2663 1853 2575 2118 
Q 2488 2384 2288 2536 
Q 2088 2688 1750 2688 
Q 1422 2688 1230 2536 
Q 1038 2384 953 2118 
Q 869 1853 869 1516 
Q 869 1184 953 923 
Q 1038 663 1230 514 
Q 1422 366 1750 366 
z
" transform="scale(0.015625)"/>
       <path id="Aptos-66" d="M 609 0 
L 609 2622 
L 100 2622 
L 100 3044 
L 609 3044 
L 609 3219 
Q 609 3450 648 3634 
Q 688 3819 786 3945 
Q 884 4072 1061 4139 
Q 1238 4206 1519 4206 
L 1834 4206 
L 1834 3797 
L 1553 3797 
Q 1275 3797 1201 3647 
Q 1128 3497 1128 3213 
L 1128 3044 
L 1838 3044 
L 1838 2622 
L 1128 2622 
L 1128 0 
L 609 0 
z
" transform="scale(0.015625)"/>
       <path id="Aptos-69" d="M 503 0 
L 503 3044 
L 1025 3044 
L 1025 0 
L 503 0 
z
M 763 3616 
Q 616 3616 527 3702 
Q 438 3788 438 3919 
Q 438 4050 527 4136 
Q 616 4222 763 4222 
Q 909 4222 1000 4136 
Q 1091 4050 1091 3919 
Q 1091 3788 1000 3702 
Q 909 3616 763 3616 
z
" transform="scale(0.015625)"/>
       <path id="Aptos-63" d="M 1741 -53 
Q 1328 -53 1009 120 
Q 691 294 511 642 
Q 331 991 331 1516 
Q 331 2041 507 2392 
Q 684 2744 1001 2920 
Q 1319 3097 1741 3097 
Q 2094 3097 2376 2981 
Q 2659 2866 2828 2633 
Q 2997 2400 3006 2044 
L 2491 2044 
Q 2472 2338 2278 2506 
Q 2084 2675 1750 2675 
Q 1306 2675 1087 2370 
Q 869 2066 869 1516 
Q 869 1150 966 895 
Q 1063 641 1259 505 
Q 1456 369 1750 369 
Q 2084 369 2293 542 
Q 2503 716 2513 1050 
L 3028 1050 
Q 3019 681 2848 436 
Q 2678 191 2389 69 
Q 2100 -53 1741 -53 
z
" transform="scale(0.015625)"/>
       <path id="Aptos-64" d="M 1544 -56 
Q 1172 -56 900 122 
Q 628 300 479 654 
Q 331 1009 331 1531 
Q 331 2050 489 2397 
Q 647 2744 934 2920 
Q 1222 3097 1613 3097 
Q 1938 3097 2178 2955 
Q 2419 2813 2566 2569 
L 2566 4206 
L 3088 4206 
L 3088 0 
L 2594 0 
L 2566 444 
Q 2403 222 2147 83 
Q 1891 -56 1544 -56 
z
M 1650 372 
Q 1984 372 2206 530 
Q 2428 688 2566 909 
L 2566 2081 
Q 2438 2338 2230 2505 
Q 2022 2672 1706 2672 
Q 1291 2672 1080 2375 
Q 869 2078 869 1531 
Q 869 966 1067 669 
Q 1266 372 1650 372 
z
" transform="scale(0.015625)"/>
       <path id="Aptos-74" d="M 1519 0 
Q 1150 0 953 117 
Q 756 234 682 454 
Q 609 675 609 984 
L 609 2622 
L 100 2622 
L 100 3044 
L 609 3044 
L 609 3741 
L 1128 3741 
L 1128 3044 
L 1878 3044 
L 1878 2622 
L 1128 2622 
L 1128 1009 
Q 1128 725 1201 573 
Q 1275 422 1553 422 
L 1884 422 
L 1884 0 
L 1519 0 
z
" transform="scale(0.015625)"/>
       <path id="Aptos-75" d="M 1469 -47 
Q 941 -47 706 247 
Q 472 541 472 1056 
L 472 3044 
L 997 3044 
L 997 1128 
Q 997 922 1044 759 
Q 1091 597 1222 506 
Q 1353 416 1600 416 
Q 1944 416 2175 558 
Q 2406 700 2547 888 
L 2547 3044 
L 3072 3044 
L 3072 0 
L 2569 0 
L 2553 469 
Q 2406 288 2139 120 
Q 1872 -47 1469 -47 
z
" transform="scale(0.015625)"/>
       <path id="Aptos-28" d="M 1216 -1116 
Q 963 -678 783 -267 
Q 603 144 508 581 
Q 413 1019 413 1528 
Q 413 2028 506 2486 
Q 600 2944 779 3378 
Q 959 3813 1216 4231 
L 1644 4231 
Q 1275 3600 1097 2886 
Q 919 2172 919 1428 
Q 919 766 1120 103 
Q 1322 -559 1644 -1116 
L 1216 -1116 
z
" transform="scale(0.015625)"/>
       <path id="Aptos-4d" d="M 550 0 
L 550 4206 
L 1166 4206 
L 2663 1728 
L 2434 1728 
L 3903 4206 
L 4503 4206 
L 4503 0 
L 3950 0 
L 3950 3738 
L 4144 3738 
L 2716 1322 
L 2347 1322 
L 897 3738 
L 1091 3738 
L 1091 0 
L 550 0 
z
" transform="scale(0.015625)"/>
       <path id="Aptos-56" d="M 1538 0 
L 25 4206 
L 622 4206 
L 1872 594 
L 3128 4206 
L 3722 4206 
L 2194 0 
L 1538 0 
z
" transform="scale(0.015625)"/>
       <path id="Aptos-29" d="M 231 -1116 
Q 603 -481 781 233 
Q 959 947 959 1694 
Q 959 2356 756 3015 
Q 553 3675 231 4231 
L 656 4231 
Q 913 3800 1094 3389 
Q 1275 2978 1370 2540 
Q 1466 2103 1466 1594 
Q 1466 1094 1370 634 
Q 1275 175 1095 -259 
Q 916 -694 656 -1116 
L 231 -1116 
z
" transform="scale(0.015625)"/>
      </defs>
      <use xlink:href="#Aptos-45"/>
      <use xlink:href="#Aptos-6e" transform="translate(55.615234 0)"/>
      <use xlink:href="#Aptos-65" transform="translate(110.742188 0)"/>
      <use xlink:href="#Aptos-72" transform="translate(163.427734 0)"/>
      <use xlink:href="#Aptos-67" transform="translate(196.875 0)"/>
      <use xlink:href="#Aptos-79" transform="translate(245.3125 0)"/>
      <use xlink:href="#Aptos-20" transform="translate(290.527344 0)"/>
      <use xlink:href="#Aptos-6f" transform="translate(310.839844 0)"/>
      <use xlink:href="#Aptos-66" transform="translate(366.015625 0)"/>
      <use xlink:href="#Aptos-20" transform="translate(396.142578 0)"/>
      <use xlink:href="#Aptos-69" transform="translate(416.455078 0)"/>
      <use xlink:href="#Aptos-6e" transform="translate(440.332031 0)"/>
      <use xlink:href="#Aptos-63" transform="translate(495.458984 0)"/>
      <use xlink:href="#Aptos-69" transform="translate(547.949219 0)"/>
      <use xlink:href="#Aptos-64" transform="translate(571.826172 0)"/>
      <use xlink:href="#Aptos-65" transform="translate(627.880859 0)"/>
      <use xlink:href="#Aptos-6e" transform="translate(680.566406 0)"/>
      <use xlink:href="#Aptos-74" transform="translate(735.693359 0)"/>
      <use xlink:href="#Aptos-20" transform="translate(768.017578 0)"/>
      <use xlink:href="#Aptos-6e" transform="translate(788.330078 0)"/>
      <use xlink:href="#Aptos-65" transform="translate(843.457031 0)"/>
      <use xlink:href="#Aptos-75" transform="translate(896.142578 0)"/>
      <use xlink:href="#Aptos-74" transform="translate(952.001953 0)"/>
      <use xlink:href="#Aptos-72" transform="translate(984.326172 0)"/>
      <use xlink:href="#Aptos-6f" transform="translate(1017.773438 0)"/>
      <use xlink:href="#Aptos-6e" transform="translate(1072.949219 0)"/>
      <use xlink:href="#Aptos-20" transform="translate(1128.076172 0)"/>
      <use xlink:href="#Aptos-28" transform="translate(1148.388672 0)"/>
      <use xlink:href="#Aptos-4d" transform="translate(1177.685547 0)"/>
      <use xlink:href="#Aptos-65" transform="translate(1256.689453 0)"/>
      <use xlink:href="#Aptos-56" transform="translate(1309.375 0)"/>
      <use xlink:href="#Aptos-29" transform="translate(1367.919922 0)"/>
     </g>
    </g>
   </g>
   <g id="matplotlib.axis_2">
    <g id="ytick_1">
     <g id="line2d_15">
      <path d="M 71.99 563.270312 
L 844 563.270312 
" clip-path="url(#p6344802ddb)" style="fill: none; stroke-dasharray: 3.7,1.6; stroke-dashoffset: 0; stroke: #343837; stroke-opacity: 0.8"/>
     </g>
     <g id="line2d_16">
      <defs>
       <path id="m113fc1b66d" d="M 0 0 
L -3.5 0 
" style="stroke: #000000; stroke-width: 0.8"/>
      </defs>
      <g>
       <use xlink:href="#m113fc1b66d" x="71.99" y="563.270312" style="stroke: #000000; stroke-width: 0.8"/>
      </g>
     </g>
     <g id="text_9">
      <!-- 0 -->
      <g transform="translate(53.237188 570.499375) scale(0.22 -0.22)">
       <use xlink:href="#Aptos-30"/>
      </g>
     </g>
    </g>
    <g id="ytick_2">
     <g id="line2d_17">
      <path d="M 71.99 491.076553 
L 844 491.076553 
" clip-path="url(#p6344802ddb)" style="fill: none; stroke-dasharray: 3.7,1.6; stroke-dashoffset: 0; stroke: #343837; stroke-opacity: 0.8"/>
     </g>
     <g id="line2d_18">
      <g>
       <use xlink:href="#m113fc1b66d" x="71.99" y="491.076553" style="stroke: #000000; stroke-width: 0.8"/>
      </g>
     </g>
     <g id="text_10">
      <!-- 1 -->
      <g transform="translate(53.237188 498.305616) scale(0.22 -0.22)">
       <use xlink:href="#Aptos-31"/>
      </g>
     </g>
    </g>
    <g id="ytick_3">
     <g id="line2d_19">
      <path d="M 71.99 418.882794 
L 844 418.882794 
" clip-path="url(#p6344802ddb)" style="fill: none; stroke-dasharray: 3.7,1.6; stroke-dashoffset: 0; stroke: #343837; stroke-opacity: 0.8"/>
     </g>
     <g id="line2d_20">
      <g>
       <use xlink:href="#m113fc1b66d" x="71.99" y="418.882794" style="stroke: #000000; stroke-width: 0.8"/>
      </g>
     </g>
     <g id="text_11">
      <!-- 2 -->
      <g transform="translate(53.237188 426.111857) scale(0.22 -0.22)">
       <defs>
        <path id="Aptos-32" d="M 291 0 
L 291 413 
L 1738 1734 
Q 2113 2075 2281 2353 
Q 2450 2631 2450 2938 
Q 2450 3256 2279 3461 
Q 2109 3666 1722 3666 
Q 1284 3666 1095 3439 
Q 906 3213 906 2869 
L 384 2869 
Q 384 3250 532 3534 
Q 681 3819 979 3975 
Q 1278 4131 1722 4131 
Q 2128 4131 2412 3986 
Q 2697 3841 2845 3578 
Q 2994 3316 2994 2959 
Q 2994 2641 2870 2378 
Q 2747 2116 2537 1884 
Q 2328 1653 2075 1425 
L 1003 463 
L 3113 463 
L 3113 0 
L 291 0 
z
" transform="scale(0.015625)"/>
       </defs>
       <use xlink:href="#Aptos-32"/>
      </g>
     </g>
    </g>
    <g id="ytick_4">
     <g id="line2d_21">
      <path d="M 71.99 346.689035 
L 844 346.689035 
" clip-path="url(#p6344802ddb)" style="fill: none; stroke-dasharray: 3.7,1.6; stroke-dashoffset: 0; stroke: #343837; stroke-opacity: 0.8"/>
     </g>
     <g id="line2d_22">
      <g>
       <use xlink:href="#m113fc1b66d" x="71.99" y="346.689035" style="stroke: #000000; stroke-width: 0.8"/>
      </g>
     </g>
     <g id="text_12">
      <!-- 3 -->
      <g transform="translate(53.237188 353.918098) scale(0.22 -0.22)">
       <use xlink:href="#Aptos-33"/>
      </g>
     </g>
    </g>
    <g id="ytick_5">
     <g id="line2d_23">
      <path d="M 71.99 274.495277 
L 844 274.495277 
" clip-path="url(#p6344802ddb)" style="fill: none; stroke-dasharray: 3.7,1.6; stroke-dashoffset: 0; stroke: #343837; stroke-opacity: 0.8"/>
     </g>
     <g id="line2d_24">
      <g>
       <use xlink:href="#m113fc1b66d" x="71.99" y="274.495277" style="stroke: #000000; stroke-width: 0.8"/>
      </g>
     </g>
     <g id="text_13">
      <!-- 4 -->
      <g transform="translate(53.237188 281.724339) scale(0.22 -0.22)">
       <defs>
        <path id="Aptos-34" d="M 2144 0 
L 2144 825 
L 175 825 
L 175 1297 
L 2134 4103 
L 2666 4103 
L 2666 1284 
L 3225 1284 
L 3225 825 
L 2666 825 
L 2666 0 
L 2144 0 
z
M 684 1284 
L 2150 1284 
L 2150 3391 
L 684 1284 
z
" transform="scale(0.015625)"/>
       </defs>
       <use xlink:href="#Aptos-34"/>
      </g>
     </g>
    </g>
    <g id="ytick_6">
     <g id="line2d_25">
      <path d="M 71.99 202.301518 
L 844 202.301518 
" clip-path="url(#p6344802ddb)" style="fill: none; stroke-dasharray: 3.7,1.6; stroke-dashoffset: 0; stroke: #343837; stroke-opacity: 0.8"/>
     </g>
     <g id="line2d_26">
      <g>
       <use xlink:href="#m113fc1b66d" x="71.99" y="202.301518" style="stroke: #000000; stroke-width: 0.8"/>
      </g>
     </g>
     <g id="text_14">
      <!-- 5 -->
      <g transform="translate(53.237188 209.53058) scale(0.22 -0.22)">
       <use xlink:href="#Aptos-35"/>
      </g>
     </g>
    </g>
    <g id="ytick_7">
     <g id="line2d_27">
      <path d="M 71.99 130.107759 
L 844 130.107759 
" clip-path="url(#p6344802ddb)" style="fill: none; stroke-dasharray: 3.7,1.6; stroke-dashoffset: 0; stroke: #343837; stroke-opacity: 0.8"/>
     </g>
     <g id="line2d_28">
      <g>
       <use xlink:href="#m113fc1b66d" x="71.99" y="130.107759" style="stroke: #000000; stroke-width: 0.8"/>
      </g>
     </g>
     <g id="text_15">
      <!-- 6 -->
      <g transform="translate(53.237188 137.336821) scale(0.22 -0.22)">
       <defs>
        <path id="Aptos-36" d="M 1806 -56 
Q 1372 -56 1031 151 
Q 691 359 495 815 
Q 300 1272 300 2013 
Q 300 2738 487 3206 
Q 675 3675 1015 3903 
Q 1356 4131 1806 4131 
Q 2303 4131 2645 3875 
Q 2988 3619 3081 3097 
L 2556 3097 
Q 2491 3388 2300 3534 
Q 2109 3681 1806 3681 
Q 1356 3681 1095 3279 
Q 834 2878 834 2013 
L 834 1850 
Q 834 1313 970 992 
Q 1106 672 1328 531 
Q 1550 391 1809 391 
Q 2219 391 2416 644 
Q 2613 897 2613 1272 
Q 2613 1650 2419 1869 
Q 2225 2088 1875 2088 
Q 1469 2088 1162 1897 
Q 856 1706 700 1456 
L 641 1856 
Q 775 2047 967 2201 
Q 1159 2356 1404 2447 
Q 1650 2538 1947 2538 
Q 2294 2538 2566 2395 
Q 2838 2253 2997 1975 
Q 3156 1697 3156 1291 
Q 3156 897 2998 592 
Q 2841 288 2539 116 
Q 2238 -56 1806 -56 
z
" transform="scale(0.015625)"/>
       </defs>
       <use xlink:href="#Aptos-36"/>
      </g>
     </g>
    </g>
    <g id="ytick_8">
     <g id="line2d_29">
      <path d="M 71.99 57.914 
L 844 57.914 
" clip-path="url(#p6344802ddb)" style="fill: none; stroke-dasharray: 3.7,1.6; stroke-dashoffset: 0; stroke: #343837; stroke-opacity: 0.8"/>
     </g>
     <g id="line2d_30">
      <g>
       <use xlink:href="#m113fc1b66d" x="71.99" y="57.914" style="stroke: #000000; stroke-width: 0.8"/>
      </g>
     </g>
     <g id="text_16">
      <!-- 7 -->
      <g transform="translate(53.237188 65.143063) scale(0.22 -0.22)">
       <use xlink:href="#Aptos-37"/>
      </g>
     </g>
    </g>
    <g id="text_17">
     <!-- Neutron reproduction factor $\eta$ -->
     <g transform="translate(39.777187 480.747) rotate(-90) scale(0.26 -0.26)">
      <defs>
       <path id="Aptos-4e" d="M 550 0 
L 550 4206 
L 1125 4206 
L 3431 859 
L 3431 4206 
L 3966 4206 
L 3966 0 
L 3391 0 
L 1081 3353 
L 1081 0 
L 550 0 
z
" transform="scale(0.015625)"/>
       <path id="Aptos-70" d="M 503 -1119 
L 503 3044 
L 1009 3044 
L 1025 2547 
Q 1188 2791 1445 2944 
Q 1703 3097 2044 3097 
Q 2419 3097 2691 2920 
Q 2963 2744 3111 2394 
Q 3259 2044 3259 1522 
Q 3259 1006 3101 654 
Q 2944 303 2656 123 
Q 2369 -56 1981 -56 
Q 1656 -56 1412 73 
Q 1169 203 1022 428 
L 1022 -1119 
L 503 -1119 
z
M 1884 372 
Q 2300 372 2511 670 
Q 2722 969 2722 1522 
Q 2722 2081 2525 2378 
Q 2328 2675 1947 2675 
Q 1613 2675 1383 2497 
Q 1153 2319 1025 2081 
L 1025 906 
Q 1150 669 1362 520 
Q 1575 372 1884 372 
z
" transform="scale(0.015625)"/>
       <path id="Aptos-61" d="M 1288 -56 
Q 1025 -56 808 44 
Q 591 144 461 339 
Q 331 534 331 822 
Q 331 1231 587 1443 
Q 844 1656 1312 1732 
Q 1781 1809 2409 1816 
L 2409 2028 
Q 2409 2419 2215 2564 
Q 2022 2709 1725 2709 
Q 1409 2709 1193 2550 
Q 978 2391 978 2047 
L 472 2047 
Q 472 2422 633 2653 
Q 794 2884 1076 2990 
Q 1359 3097 1725 3097 
Q 1959 3097 2173 3053 
Q 2388 3009 2558 2893 
Q 2728 2778 2828 2570 
Q 2928 2363 2928 2034 
L 2928 0 
L 2441 0 
L 2419 463 
Q 2209 228 1932 86 
Q 1656 -56 1288 -56 
z
M 1425 344 
Q 1738 344 1988 491 
Q 2238 638 2406 863 
L 2406 1481 
Q 1575 1472 1214 1325 
Q 853 1178 853 844 
Q 853 616 998 480 
Q 1144 344 1425 344 
z
" transform="scale(0.015625)"/>
       <path id="DejaVuSerif-Italic-3b7" d="M 1153 0 
L 578 0 
L 1159 2988 
L 609 2988 
L 675 3322 
L 1800 3322 
L 1684 2731 
Q 1909 3069 2198 3241 
Q 2488 3413 2825 3413 
Q 3366 3413 3572 3097 
Q 3772 2791 3641 2113 
L 2969 -1331 
L 2391 -1331 
L 3025 1931 
Q 3144 2541 3037 2767 
Q 2931 2994 2553 2994 
Q 2153 2994 1887 2701 
Q 1622 2409 1513 1850 
L 1153 0 
z
" transform="scale(0.015625)"/>
      </defs>
      <use xlink:href="#Aptos-4e" transform="translate(0 0.03125)"/>
      <use xlink:href="#Aptos-65" transform="translate(70.605469 0.03125)"/>
      <use xlink:href="#Aptos-75" transform="translate(123.291016 0.03125)"/>
      <use xlink:href="#Aptos-74" transform="translate(179.150391 0.03125)"/>
      <use xlink:href="#Aptos-72" transform="translate(211.474609 0.03125)"/>
      <use xlink:href="#Aptos-6f" transform="translate(244.921875 0.03125)"/>
      <use xlink:href="#Aptos-6e" transform="translate(300.097656 0.03125)"/>
      <use xlink:href="#Aptos-20" transform="translate(355.224609 0.03125)"/>
      <use xlink:href="#Aptos-72" transform="translate(375.537109 0.03125)"/>
      <use xlink:href="#Aptos-65" transform="translate(408.984375 0.03125)"/>
      <use xlink:href="#Aptos-70" transform="translate(461.669922 0.03125)"/>
      <use xlink:href="#Aptos-72" transform="translate(517.773438 0.03125)"/>
      <use xlink:href="#Aptos-6f" transform="translate(551.220703 0.03125)"/>
      <use xlink:href="#Aptos-64" transform="translate(606.396484 0.03125)"/>
      <use xlink:href="#Aptos-75" transform="translate(662.451172 0.03125)"/>
      <use xlink:href="#Aptos-63" transform="translate(718.310547 0.03125)"/>
      <use xlink:href="#Aptos-74" transform="translate(770.800781 0.03125)"/>
      <use xlink:href="#Aptos-69" transform="translate(803.125 0.03125)"/>
      <use xlink:href="#Aptos-6f" transform="translate(827.001953 0.03125)"/>
      <use xlink:href="#Aptos-6e" transform="translate(882.177734 0.03125)"/>
      <use xlink:href="#Aptos-20" transform="translate(937.304688 0.03125)"/>
      <use xlink:href="#Aptos-66" transform="translate(957.617188 0.03125)"/>
      <use xlink:href="#Aptos-61" transform="translate(987.744141 0.03125)"/>
      <use xlink:href="#Aptos-63" transform="translate(1040.869141 0.03125)"/>
      <use xlink:href="#Aptos-74" transform="translate(1093.359375 0.03125)"/>
      <use xlink:href="#Aptos-6f" transform="translate(1125.683594 0.03125)"/>
      <use xlink:href="#Aptos-72" transform="translate(1180.859375 0.03125)"/>
      <use xlink:href="#Aptos-20" transform="translate(1214.306641 0.03125)"/>
      <use xlink:href="#DejaVuSerif-Italic-3b7" transform="translate(1234.619141 0.03125)"/>
     </g>
    </g>
   </g>
   <g id="line2d_31">
    <path d="M 71.990027 563.217941 
L 443.080199 563.106889 
L 450.943548 562.898284 
L 454.744679 562.591294 
L 457.770225 562.10983 
L 460.48861 561.701671 
L 462.247112 561.764882 
L 464.37421 562.163721 
L 467.28457 562.664404 
L 470.348512 562.956352 
L 475.048092 563.162213 
L 481.85941 563.226816 
L 492.06487 563.11939 
L 493.43942 563.221907 
L 493.84641 562.96103 
L 494.598957 562.443479 
L 495.167207 562.333535 
L 496.541757 562.357159 
L 498.46152 562.555265 
L 499.528908 562.877295 
L 500.519506 563.17695 
L 500.803631 562.828226 
L 500.964891 562.995941 
L 501.356523 563.196679 
L 502.062995 563.269772 
L 505.603038 563.194413 
L 508.835919 563.125056 
L 509.358095 563.258326 
L 509.680615 563.107642 
L 509.811159 562.785021 
L 509.957061 561.734196 
L 510.049209 562.051336 
L 510.225827 563.263666 
L 510.509952 563.209535 
L 511.331611 563.068852 
L 512.076479 563.201175 
L 512.721519 563.245529 
L 513.074756 563.041226 
L 513.427992 562.553977 
L 513.85034 561.566007 
L 514.034637 561.268101 
L 514.103748 561.051194 
L 514.387873 560.386279 
L 514.687356 560.085454 
L 514.863975 560.169084 
L 515.078988 560.592297 
L 515.401508 561.836802 
L 515.816177 563.234392 
L 516.000474 563.142969 
L 516.261562 562.331339 
L 516.538008 561.803693 
L 516.691589 561.873456 
L 516.898923 562.285235 
L 517.044825 562.38347 
L 517.121616 562.575323 
L 517.436457 563.030121 
L 517.81273 563.240545 
L 518.411696 563.266439 
L 519.548196 563.144602 
L 519.92447 562.840064 
L 520.108767 562.379933 
L 520.139483 562.292161 
L 520.208595 562.418387 
L 520.308422 562.610028 
L 520.477361 563.2687 
L 520.607905 563.184085 
L 520.830598 562.247529 
L 520.861314 562.283956 
L 521.107044 562.952777 
L 521.176155 562.7226 
L 521.329736 562.288057 
L 521.37581 562.068843 
L 521.54475 561.418247 
L 521.790479 561.264901 
L 522.811793 561.125588 
L 523.633452 561.180927 
L 524.240097 561.435101 
L 524.762272 561.893975 
L 525.353559 562.742398 
L 525.806623 563.265257 
L 525.967883 563.187035 
L 526.23665 562.60894 
L 527.065988 559.947399 
L 527.281001 559.901334 
L 527.488336 560.100766 
L 527.787819 560.748674 
L 528.26392 562.415553 
L 528.494291 563.01238 
L 528.716984 563.267098 
L 528.870565 563.143886 
L 529.15469 562.527821 
L 529.753656 561.299737 
L 530.145287 560.973656 
L 530.567635 560.916821 
L 531.158922 561.101794 
L 532.172557 561.712674 
L 532.379892 562.11176 
L 532.863672 563.266473 
L 533.247624 563.218823 
L 533.278341 562.699703 
L 533.355131 561.437854 
L 533.401205 561.893797 
L 533.539428 562.998018 
L 533.631577 562.899067 
L 533.800516 562.335923 
L 533.831232 562.504998 
L 533.992492 562.974296 
L 534.199827 563.127503 
L 534.837188 563.135795 
L 534.967732 563.168634 
L 535.136671 563.264847 
L 535.451512 563.181067 
L 535.78939 562.620979 
L 536.104232 562.399084 
L 536.319245 562.488969 
L 536.749272 563.019114 
L 537.102508 563.26913 
L 537.263768 563.153749 
L 537.40967 562.977693 
L 537.701474 562.314775 
L 537.755228 562.400897 
L 538.06239 563.26331 
L 538.123822 563.206479 
L 538.338836 562.688105 
L 539.168173 560.581085 
L 539.27568 560.466978 
L 539.298717 560.539327 
L 539.390866 563.092167 
L 539.452298 561.298381 
L 539.590521 560.514964 
L 539.813214 560.407942 
L 540.135734 560.523815 
L 540.588798 560.774523 
L 540.849886 561.040364 
L 540.965071 561.684135 
L 541.21848 563.264747 
L 541.233838 563.260615 
L 541.825125 563.069385 
L 542.608388 563.175927 
L 542.669821 562.732042 
L 542.800365 561.777136 
L 542.808044 561.827179 
L 543.007699 563.005415 
L 543.115206 563.163264 
L 543.430047 563.269868 
L 543.637381 563.164338 
L 543.767925 562.77356 
L 543.89079 561.607897 
L 544.021334 561.05932 
L 544.036692 561.031963 
L 544.075087 561.236769 
L 544.37457 563.268866 
L 544.420645 563.164073 
L 544.704769 562.46749 
L 544.912104 562.456763 
L 545.403563 562.610379 
L 545.418921 562.561307 
L 545.541786 562.481704 
L 545.549465 562.486967 
L 545.687688 562.677618 
L 545.74912 562.601207 
L 545.841269 562.476277 
L 546.133073 561.809255 
L 546.209864 561.949436 
L 546.286654 562.69988 
L 546.309691 562.973913 
L 546.378803 562.636868 
L 546.409519 561.762402 
L 546.47863 562.934457 
L 546.493989 562.945139 
L 546.517026 562.821639 
L 546.532384 562.820281 
L 546.624532 562.931887 
L 546.793472 563.251953 
L 547.000806 563.237279 
L 547.323326 563.077896 
L 547.354042 561.824313 
L 547.469228 559.979087 
L 547.476907 560.011186 
L 547.722637 562.128091 
L 548.075873 562.969409 
L 548.275528 563.082894 
L 548.283208 563.077663 
L 548.375356 562.862359 
L 548.651802 561.07462 
L 548.820741 560.451032 
L 548.851457 560.47424 
L 548.951285 560.872219 
L 549.442744 563.247863 
L 549.688474 563.263414 
L 549.834376 563.176089 
L 549.888129 562.636802 
L 550.010994 558.475192 
L 550.072427 560.657516 
L 550.256724 562.920837 
L 550.417984 563.265011 
L 550.441021 563.249057 
L 550.586923 562.91742 
L 550.840332 561.178017 
L 550.871048 561.250073 
L 550.963197 562.308605 
L 551.10142 563.229074 
L 551.116778 563.194886 
L 551.216605 562.195027 
L 551.754139 555.975212 
L 551.769497 555.991129 
L 551.838608 556.336777 
L 551.969152 558.546586 
L 552.176487 563.209147 
L 552.23024 562.777311 
L 552.245598 562.719247 
L 552.31471 562.939029 
L 552.353105 563.02396 
L 552.383821 563.24628 
L 552.445254 562.921989 
L 552.621872 561.573953 
L 552.667946 561.792177 
L 552.744737 562.999223 
L 552.760095 562.512556 
L 552.88296 548.043416 
L 552.921355 550.109627 
L 553.136368 555.872184 
L 553.696939 563.245042 
L 553.712297 563.24671 
L 553.735334 563.165405 
L 553.812125 561.912339 
L 553.973385 557.791722 
L 554.034817 558.32286 
L 554.349658 563.112793 
L 554.426449 563.26356 
L 554.472523 563.194075 
L 554.587709 562.553953 
L 554.818081 559.710003 
L 555.040773 557.112769 
L 555.079168 557.346638 
L 555.155959 559.894824 
L 555.202033 562.510585 
L 555.240428 558.728732 
L 555.301861 557.028343 
L 555.509195 528.288547 
L 556.123519 505.382893 
L 556.169594 505.055713 
L 556.215668 505.409367 
L 556.292458 509.178451 
L 556.353891 525.773513 
L 556.392286 554.942831 
L 556.453719 517.592795 
L 556.476756 495.923648 
L 556.568904 503.489623 
L 556.899104 552.028343 
L 557.014289 560.03855 
L 557.037326 559.04973 
L 557.129475 544.688504 
L 557.367526 457.543531 
L 557.567181 404.006562 
L 557.582539 407.687539 
L 557.636293 551.464187 
L 557.682367 397.241203 
L 557.782194 366.739319 
L 557.805232 366.980478 
L 557.858985 371.508398 
L 557.935776 403.419093 
L 558.012566 540.890802 
L 558.104715 472.357417 
L 558.204542 412.116254 
L 558.242938 414.034107 
L 558.396519 438.022151 
L 558.94941 562.831009 
L 559.095312 552.73863 
L 559.149066 551.643158 
L 559.210498 552.230147 
L 559.333363 553.884908 
L 559.371758 553.40867 
L 559.417832 549.072136 
L 559.44087 545.811059 
L 559.502302 550.23251 
L 559.609809 563.238095 
L 559.625167 563.235755 
L 559.709636 563.079664 
L 559.794106 562.336506 
L 559.909292 561.335287 
L 559.940008 561.53102 
L 560.062873 562.070379 
L 560.101268 561.976145 
L 560.370035 559.9152 
L 560.469863 556.308801 
L 560.538974 545.92353 
L 560.592727 550.021901 
L 560.646481 563.181981 
L 560.715592 561.898094 
L 560.938285 555.871692 
L 561.015075 555.936178 
L 561.091866 555.689508 
L 561.199372 555.260275 
L 561.230089 555.455541 
L 561.352954 557.84549 
L 561.452781 562.909994 
L 561.475818 558.966183 
L 561.529572 509.772422 
L 561.583325 561.656986 
L 561.591004 562.199408 
L 561.652437 559.03131 
L 561.683153 557.096066 
L 561.690832 556.479289 
L 561.736906 561.327165 
L 561.836734 563.221288 
L 561.859771 563.174359 
L 561.913524 563.106408 
L 562.243724 551.9319 
L 562.320514 552.602844 
L 562.481774 557.50914 
L 562.689109 563.235892 
L 562.727504 562.876436 
L 562.896443 554.764565 
L 563.011629 549.220605 
L 563.057703 550.619375 
L 563.242 563.012011 
L 563.295754 559.606702 
L 563.510767 542.377376 
L 563.518446 543.927848 
L 563.602916 563.076605 
L 563.64899 560.303014 
L 563.710422 553.55599 
L 563.748818 560.846708 
L 563.756497 560.89995 
L 563.787213 560.377537 
L 563.81025 553.663154 
L 563.864003 448.402801 
L 563.925436 530.938488 
L 563.933115 542.133439 
L 563.994547 475.067969 
L 564.13277 414.182395 
L 564.171165 419.453514 
L 564.270993 489.424834 
L 564.45529 563.027611 
L 564.470649 563.200933 
L 564.53976 562.69414 
L 564.547439 562.721778 
L 564.585834 563.091096 
L 564.601192 562.446448 
L 564.62423 541.624566 
L 564.70102 525.397988 
L 564.739415 535.032128 
L 564.923713 562.691373 
L 564.962108 560.531993 
L 565.015861 560.006215 
L 565.02354 560.430311 
L 565.038898 561.619023 
L 565.046577 558.925042 
L 565.146405 514.098079 
L 565.177121 518.031328 
L 565.376777 562.871457 
L 565.522679 556.672668 
L 565.553395 556.843247 
L 565.584111 562.126051 
L 565.607148 556.252985 
L 565.699297 503.526944 
L 565.737692 517.026564 
L 565.945026 548.867251 
L 566.229151 562.107441 
L 566.275226 563.141385 
L 566.290584 561.866593 
L 566.336658 544.1052 
L 566.39809 560.73233 
L 566.451844 561.939045 
L 566.490239 560.784266 
L 566.56703 550.726728 
L 566.620783 557.342509 
L 566.797401 560.783106 
L 567.104563 563.123863 
L 567.181354 563.26214 
L 567.21207 563.12938 
L 567.465479 560.631744 
L 567.611381 558.803825 
L 567.634418 559.365065 
L 567.672813 561.961293 
L 567.734245 559.905912 
L 567.757283 556.132707 
L 567.841752 559.819834 
L 567.972296 563.239881 
L 568.003012 563.029491 
L 568.202668 560.36603 
L 568.256421 561.096858 
L 568.440718 563.16155 
L 568.502151 563.202589 
L 568.540546 563.134538 
L 568.594299 562.484901 
L 568.617336 560.39905 
L 568.663411 547.351935 
L 568.724843 562.027534 
L 568.809313 563.255902 
L 568.847708 562.979736 
L 568.955215 560.874165 
L 568.99361 562.091975 
L 569.047363 562.808864 
L 569.139512 563.269197 
L 569.170228 563.207392 
L 569.185586 562.6659 
L 569.247019 550.743229 
L 569.300772 558.779297 
L 569.485069 563.254441 
L 569.500427 563.250403 
L 569.523465 563.173136 
L 569.654008 562.479792 
L 569.707762 562.720487 
L 569.761515 563.218256 
L 569.784552 562.768762 
L 569.892059 557.84065 
L 569.922775 559.090104 
L 569.96885 562.663714 
L 570.037961 560.38321 
L 570.091714 546.546468 
L 570.183863 541.418921 
L 570.229937 542.171684 
L 570.352802 549.557165 
L 570.567816 562.668572 
L 570.621569 563.247435 
L 570.675322 562.749185 
L 570.85962 557.542141 
L 570.913373 556.168394 
L 570.928731 557.112252 
L 571.013201 562.476708 
L 571.051596 560.34122 
L 571.220535 557.242364 
L 571.243572 557.235703 
L 571.274288 557.316757 
L 571.397153 558.22502 
L 571.696636 561.459762 
L 571.727352 561.459908 
L 571.758069 561.380251 
L 571.857896 560.499566 
L 572.118984 555.035756 
L 572.172737 557.029194 
L 572.218812 562.189053 
L 572.287923 559.008791 
L 572.326318 545.20874 
L 572.387751 563.017135 
L 572.403109 562.747717 
L 572.502937 529.240566 
L 572.572048 548.636447 
L 572.587406 556.983972 
L 572.656518 529.586955 
L 572.71795 493.209462 
L 572.771703 502.869441 
L 572.925284 561.496018 
L 572.979038 539.509192 
L 573.032791 517.723542 
L 573.078865 546.021346 
L 573.101903 531.373634 
L 573.140298 516.151942 
L 573.2862 370.476511 
L 573.370669 366.205714 
L 573.416744 368.184715 
L 573.44746 384.333459 
L 573.470497 436.854353 
L 573.554967 380.315566 
L 573.562646 380.060528 
L 573.593362 381.748513 
L 573.685511 404.789328 
L 573.785338 495.805151 
L 573.869808 550.252112 
L 573.908203 548.275352 
L 574.038747 501.542884 
L 574.084821 503.304687 
L 574.17697 561.537113 
L 574.269118 551.457939 
L 574.299835 548.284975 
L 574.391983 505.790763 
L 574.445737 522.76843 
L 574.530206 556.878322 
L 574.545564 520.312484 
L 574.58396 508.976168 
L 574.653071 520.884733 
L 574.691466 546.156981 
L 574.74522 517.471795 
L 574.775936 484.726495 
L 574.806652 530.215735 
L 574.875764 558.266567 
L 574.914159 538.075399 
L 575.052382 503.578959 
L 575.075419 504.979752 
L 575.106135 523.199312 
L 575.213642 562.649058 
L 575.229 562.591807 
L 575.244358 562.306386 
L 575.267395 547.157239 
L 575.374902 527.212731 
L 575.405618 527.710454 
L 575.582236 534.08639 
L 575.628311 531.779125 
L 575.659027 527.958465 
L 575.71278 531.622128 
L 575.79725 563.060945 
L 575.851003 562.400161 
L 575.950831 559.589244 
L 575.989226 560.725104 
L 576.081375 562.564362 
L 576.104412 561.670598 
L 576.142807 538.239443 
L 576.211919 562.79799 
L 576.234956 563.215547 
L 576.304067 562.537474 
L 576.342462 561.679081 
L 576.396216 562.69129 
L 576.426932 563.202793 
L 576.457648 561.907915 
L 576.557476 555.131516 
L 576.572834 559.085409 
L 576.60355 562.555383 
L 576.657304 551.178299 
L 576.795526 543.212003 
L 576.826243 543.9186 
L 576.864638 551.114001 
L 576.895354 562.569558 
L 576.956787 544.276977 
L 576.964466 544.696269 
L 577.133405 563.22456 
L 577.25627 561.449572 
L 577.279307 561.075534 
L 577.340739 549.721204 
L 577.402172 558.422102 
L 577.41753 561.779718 
L 577.517357 559.376395 
L 577.701655 563.2633 
L 577.755408 563.181941 
L 577.862915 563.014839 
L 577.962742 559.280953 
L 577.970421 558.852072 
L 578.008817 562.625519 
L 578.016496 562.651014 
L 578.031854 562.357965 
L 578.124002 556.594989 
L 578.170077 557.621882 
L 578.269904 563.129114 
L 578.315979 559.352818 
L 578.354374 558.545322 
L 578.554029 528.895907 
L 578.577066 529.79506 
L 578.607783 549.026367 
L 578.669215 559.074844 
L 578.715289 546.585229 
L 578.776722 542.549339 
L 578.830475 544.715415 
L 579.068526 563.220277 
L 579.137637 560.05427 
L 579.206749 559.214617 
L 579.245144 560.131089 
L 579.321934 562.904234 
L 579.368009 562.403526 
L 579.460157 560.83478 
L 579.52159 559.676689 
L 579.559985 560.838633 
L 579.667492 563.152551 
L 579.713566 562.811141 
L 579.798036 561.652842 
L 579.851789 557.22555 
L 579.874826 553.303809 
L 579.92858 563.158341 
L 579.943938 563.039815 
L 580.158951 558.26706 
L 580.205025 552.772117 
L 580.258779 557.890816 
L 580.312532 560.174574 
L 580.373965 558.728186 
L 580.48915 548.020887 
L 580.704164 512.887669 
L 580.742559 522.296347 
L 580.788633 556.220945 
L 580.850066 528.801051 
L 580.89614 488.869937 
L 580.942214 561.918921 
L 580.949893 562.049384 
L 580.957572 561.674943 
L 580.972931 550.875225 
L 581.003647 489.017378 
L 581.080437 527.223706 
L 581.187944 562.945994 
L 581.226339 560.000811 
L 581.318488 548.094081 
L 581.372241 517.919955 
L 581.433674 522.721807 
L 581.587255 562.46286 
L 581.62565 539.992542 
L 581.763873 404.493904 
L 581.817626 411.105513 
L 581.87138 415.364322 
L 581.917454 411.36263 
L 582.009603 370.855044 
L 582.040319 389.226217 
L 582.132467 556.283749 
L 582.1939 514.76591 
L 582.224616 472.300435 
L 582.316765 486.884141 
L 582.454988 521.808225 
L 582.554815 563.021836 
L 582.616248 559.92513 
L 582.631606 559.697665 
L 582.670001 560.939771 
L 582.716075 563.10532 
L 582.777508 561.958888 
L 582.938768 552.663062 
L 582.861977 562.921889 
L 582.946447 552.788694 
L 583.007879 558.49897 
L 583.046275 562.813697 
L 583.08467 554.194229 
L 583.107707 551.890184 
L 583.130744 532.785341 
L 583.199856 560.048109 
L 583.215214 554.326464 
L 583.299683 518.703752 
L 583.338078 527.57425 
L 583.361116 561.899137 
L 583.422548 527.02568 
L 583.445585 527.357092 
L 583.622203 532.966417 
L 583.675957 562.531993 
L 583.844896 560.848883 
L 583.914007 563.207247 
L 583.97544 562.240267 
L 584.075267 553.080959 
L 584.129021 557.857162 
L 584.228848 563.23778 
L 584.274923 559.270199 
L 584.37475 549.034914 
L 584.413146 550.822369 
L 584.482257 561.612745 
L 584.54369 552.945441 
L 584.574406 543.845654 
L 584.643517 555.851448 
L 584.666554 561.439019 
L 584.727987 551.612261 
L 584.774061 531.113989 
L 584.835494 555.165379 
L 584.896926 562.83038 
L 584.950679 556.56878 
L 585.035149 552.792906 
L 585.088902 553.506681 
L 585.111939 555.39622 
L 585.26552 563.21064 
L 585.296237 563.247174 
L 585.334632 563.139917 
L 585.419102 561.805301 
L 585.580362 555.993751 
L 585.611078 556.566621 
L 585.680189 562.693193 
L 585.733943 557.218247 
L 585.741622 556.614703 
L 585.772338 562.579531 
L 585.803054 562.691825 
L 585.810733 562.362264 
L 585.971993 553.744443 
L 585.872166 562.949253 
L 586.002709 554.722288 
L 586.133253 563.216266 
L 586.194686 560.481079 
L 586.202365 559.823041 
L 586.24076 562.641417 
L 586.294513 560.810554 
L 586.371304 562.464386 
L 586.394341 560.828732 
L 586.425057 560.567943 
L 586.440415 561.388634 
L 586.578638 562.686263 
L 586.609355 563.043761 
L 586.663108 562.573017 
L 586.701503 560.750492 
L 586.762936 562.663645 
L 586.770615 562.950823 
L 586.778294 562.453608 
L 586.862763 544.42014 
L 586.908838 547.056364 
L 587.031702 562.897536 
L 587.123851 557.793227 
L 587.400297 563.168596 
L 587.407976 563.214752 
L 587.431013 562.724319 
L 587.461729 562.479258 
L 587.53852 556.241165 
L 587.592273 559.922795 
L 587.622989 563.099415 
L 587.707459 560.104203 
L 587.738175 560.954817 
L 587.77657 562.982647 
L 587.822645 560.051471 
L 587.845682 557.209557 
L 587.922472 562.127685 
L 587.94551 563.11179 
L 587.976226 561.764993 
L 587.983905 561.339306 
L 588.029979 562.659984 
L 588.083732 561.800673 
L 588.191239 563.2601 
L 588.229634 563.092783 
L 588.291067 562.697848 
L 588.337141 563.091473 
L 588.352499 563.2236 
L 588.367857 562.535907 
L 588.42929 560.672026 
L 588.467685 562.685272 
L 588.475364 563.016971 
L 588.544476 561.499799 
L 588.552155 561.754651 
L 588.621266 544.8492 
L 588.659661 561.631818 
L 588.690378 562.049869 
L 588.698057 561.009069 
L 588.813242 545.311267 
L 588.859317 546.828566 
L 588.928428 558.986669 
L 588.951465 562.627644 
L 588.989861 554.313645 
L 589.043614 561.557661 
L 589.07433 562.482424 
L 589.089688 563.104108 
L 589.128083 561.887282 
L 589.174158 562.49805 
L 589.197195 559.390307 
L 589.281665 562.548434 
L 589.312381 561.397322 
L 589.458283 554.997206 
L 589.473641 556.855102 
L 589.581148 562.78352 
L 589.527394 555.782105 
L 589.588827 562.218328 
L 589.750087 533.909195 
L 589.657938 562.565131 
L 589.788482 542.378552 
L 589.811519 557.865779 
L 589.857593 541.107433 
L 589.872951 510.55204 
L 589.942063 560.46769 
L 589.9651 552.363254 
L 590.011174 545.539013 
L 590.072607 551.001467 
L 590.195472 562.696093 
L 590.233867 560.015878 
L 590.37209 459.786799 
L 590.425843 503.566954 
L 590.441201 555.178258 
L 590.517992 473.333536 
L 590.53335 468.941336 
L 590.556387 484.889128 
L 590.579424 541.650196 
L 590.648536 406.519618 
L 590.740684 398.369457 
L 590.77908 399.531003 
L 590.832833 410.48154 
L 590.886586 397.555258 
L 590.978735 520.714987 
L 591.032488 553.506585 
L 591.001772 513.280127 
L 591.086242 530.799499 
L 591.109279 507.714536 
L 591.17839 562.60118 
L 591.216786 562.997603 
L 591.201427 562.403132 
L 591.224465 562.630435 
L 591.331971 540.898298 
L 591.439478 474.650517 
L 591.462515 480.46767 
L 591.508589 562.415024 
L 591.562343 480.140874 
L 591.639133 468.625726 
L 591.692887 470.838946 
L 591.838789 488.890118 
L 591.984691 534.840245 
L 592.06916 563.019665 
L 592.130593 559.123192 
L 592.15363 558.69848 
L 592.199704 560.00987 
L 592.322569 562.969488 
L 592.353285 562.466808 
L 592.453113 551.152163 
L 592.568299 556.434993 
L 592.691163 562.759066 
L 592.760275 562.266767 
L 592.775633 562.319374 
L 592.790991 563.085489 
L 592.821707 559.920264 
L 592.944572 551.815566 
L 592.982967 555.465563 
L 593.029042 562.677311 
L 593.098153 558.77896 
L 593.251734 563.262316 
L 593.297809 563.009774 
L 593.45139 560.886619 
L 593.489785 562.123387 
L 593.543538 562.981309 
L 593.558896 562.309753 
L 593.597292 557.352368 
L 593.666403 562.008097 
L 593.68944 563.134634 
L 593.727835 560.88249 
L 593.77391 560.417214 
L 593.812305 560.97618 
L 593.843021 561.275723 
L 593.889096 560.760782 
L 593.950528 555.226323 
L 594.004281 560.506677 
L 594.09643 562.709747 
L 594.119467 561.462242 
L 594.142504 561.171338 
L 594.203937 518.758445 
L 594.296085 401.569341 
L 594.326801 434.838227 
L 594.357518 559.362005 
L 594.449666 521.115544 
L 594.518778 515.450228 
L 594.58021 562.751456 
L 594.603247 551.214495 
L 594.641643 512.143881 
L 594.710754 559.426508 
L 594.756828 563.257148 
L 594.833619 563.078637 
L 594.864335 563.240714 
L 594.879693 562.969911 
L 594.895051 559.232732 
L 594.948805 541.317007 
L 595.010237 549.869729 
L 595.271325 562.484103 
L 595.340436 560.928096 
L 595.39419 560.641608 
L 595.432585 561.189907 
L 595.478659 562.899873 
L 595.524734 561.063346 
L 595.540092 559.370073 
L 595.63224 560.746934 
L 595.647598 560.788527 
L 595.685994 560.538362 
L 595.816537 557.69444 
L 595.862612 558.897545 
L 595.939402 557.673463 
L 596.023872 563.007762 
L 596.046909 563.251119 
L 596.108341 562.682637 
L 596.139058 563.147119 
L 596.154416 559.199482 
L 596.215848 543.196462 
L 596.261922 556.899213 
L 596.269602 559.961308 
L 596.315676 552.790003 
L 596.338713 521.984528 
L 596.407824 561.45929 
L 596.430862 542.179738 
L 596.538368 493.392497 
L 596.484615 556.025965 
L 596.553726 531.791575 
L 596.584443 549.196977 
L 596.60748 514.159197 
L 596.653554 536.100878 
L 596.707307 537.937784 
L 596.84553 370.568786 
L 596.876247 367.982297 
L 596.883926 370.329766 
L 596.968395 557.671975 
L 596.999111 393.20679 
L 597.029828 386.910657 
L 597.09126 397.992214 
L 597.17573 460.917857 
L 597.229483 563.153878 
L 597.298594 485.558119 
L 597.306274 485.109279 
L 597.321632 490.151122 
L 597.367706 561.298171 
L 597.513608 560.796729 
L 597.521287 560.687542 
L 597.536645 557.076474 
L 597.621115 563.179601 
L 597.628794 563.226762 
L 597.651831 562.779089 
L 597.751659 556.228964 
L 597.797733 560.712503 
L 597.805412 561.652086 
L 597.859165 556.163631 
L 597.89756 552.389414 
L 597.935956 560.187168 
L 597.951314 560.969834 
L 597.958993 562.341908 
L 598.020425 557.355952 
L 598.043462 557.800384 
L 598.089537 562.273285 
L 598.135611 559.182928 
L 598.150969 553.784858 
L 598.235439 563.260007 
L 598.250797 563.249481 
L 598.273834 560.936761 
L 598.289192 560.020784 
L 598.358304 562.788679 
L 598.435094 563.269285 
L 598.458131 563.00446 
L 598.519564 561.363111 
L 598.588675 561.748484 
L 598.696182 560.313483 
L 598.749935 556.569539 
L 598.811368 558.127956 
L 599.018702 562.849318 
L 599.026381 562.751158 
L 599.156925 557.426318 
L 599.19532 558.31068 
L 599.233715 562.840368 
L 599.302827 558.812382 
L 599.35658 555.307388 
L 599.402655 560.230738 
L 599.425692 561.912551 
L 599.456408 558.295545 
L 599.533199 554.036457 
L 599.571594 557.421555 
L 599.594631 561.231871 
L 599.640705 552.289416 
L 599.694459 544.900557 
L 599.748212 548.746482 
L 599.801965 561.103441 
L 599.84804 544.738292 
L 599.855719 544.646451 
L 599.878756 545.299441 
L 599.932509 561.080128 
L 600.001621 557.029921 
L 600.124485 550.019951 
L 600.155202 552.655041 
L 600.278067 563.018491 
L 600.285746 563.123245 
L 600.339499 562.523897 
L 600.447006 547.511784 
L 600.470043 557.573351 
L 600.49308 562.771376 
L 600.546833 551.435817 
L 600.56987 543.319198 
L 600.638982 561.215458 
L 600.692735 563.165299 
L 600.73881 561.17048 
L 600.777205 555.335111 
L 600.838637 561.78933 
L 600.853995 563.149715 
L 600.907749 557.660305 
L 600.961502 558.538122 
L 600.999897 550.284478 
L 601.045972 514.460567 
L 601.107404 543.745168 
L 601.161157 563.144753 
L 601.22259 555.030875 
L 601.245627 554.055159 
L 601.268664 555.384636 
L 601.337776 562.707769 
L 601.368492 556.684748 
L 601.422245 514.894574 
L 601.483678 549.917776 
L 601.644938 562.874467 
L 601.652617 562.884517 
L 601.675654 562.787345 
L 601.744765 561.388219 
L 601.79084 562.753427 
L 601.836914 563.261669 
L 601.852272 562.928704 
L 601.982816 559.550795 
L 601.998174 559.357881 
L 602.044248 560.330668 
L 602.067286 560.830997 
L 602.151755 563.229063 
L 602.19015 562.290668 
L 602.220867 560.863237 
L 602.251583 558.725075 
L 602.305336 562.853483 
L 602.320694 561.389637 
L 602.328373 561.381835 
L 602.336052 561.465388 
L 602.474275 563.19727 
L 602.481954 563.057626 
L 602.528029 561.045524 
L 602.59714 561.514839 
L 602.650893 561.4764 
L 602.666252 561.439627 
L 602.743042 560.857565 
L 602.804475 558.791562 
L 602.850549 560.679711 
L 602.881265 562.145841 
L 602.927339 557.523477 
L 602.958056 532.320001 
L 603.042525 548.924804 
L 603.073241 523.672527 
L 603.111637 563.012123 
L 603.203785 561.399632 
L 603.24218 562.319038 
L 603.265218 562.15605 
L 603.388082 560.629435 
L 603.41112 561.371077 
L 603.434157 561.563849 
L 603.457194 563.240646 
L 603.541663 562.361595 
L 603.557022 561.393351 
L 603.595417 563.257213 
L 603.641491 562.932312 
L 603.687565 561.101165 
L 603.710603 559.6355 
L 603.779714 563.260007 
L 603.802751 563.267317 
L 603.81043 563.226153 
L 603.940974 553.378887 
L 604.010086 503.163789 
L 604.048481 521.182307 
L 604.109913 562.402438 
L 604.155988 544.230581 
L 604.171346 536.401299 
L 604.240457 561.572615 
L 604.255815 563.223986 
L 604.317248 554.811379 
L 604.347964 548.27669 
L 604.401717 561.88534 
L 604.409396 561.146157 
L 604.447792 555.065019 
L 604.509224 563.015584 
L 604.524582 563.127823 
L 604.532261 562.415482 
L 604.616731 545.322236 
L 604.662805 557.132318 
L 604.739596 563.143922 
L 604.777991 561.294165 
L 604.808707 556.168207 
L 604.877818 561.788307 
L 604.885498 561.506614 
L 604.908535 560.687531 
L 604.916214 557.04933 
L 604.977646 563.142857 
L 605.016041 561.395663 
L 605.0314 561.028112 
L 605.085153 562.736831 
L 605.161943 563.183022 
L 605.123548 561.006957 
L 605.177301 562.569724 
L 605.307845 554.715556 
L 605.346241 556.095167 
L 605.461426 563.06013 
L 605.51518 560.969683 
L 605.607328 547.731614 
L 605.630366 542.598866 
L 605.691798 562.202815 
L 605.730193 563.249389 
L 605.760909 560.838489 
L 605.783947 560.120943 
L 605.845379 562.630748 
L 605.899132 562.007947 
L 605.983602 559.861967 
L 606.068071 546.996986 
L 606.106467 554.206929 
L 606.175578 562.681142 
L 606.213973 553.846055 
L 606.237011 552.601006 
L 606.24469 553.337531 
L 606.290764 562.835061 
L 606.359875 562.831792 
L 606.605605 485.172349 
L 606.620963 492.491748 
L 606.674717 559.910878 
L 606.736149 529.831373 
L 606.751507 531.191129 
L 606.81294 561.946929 
L 606.835977 540.272643 
L 606.882051 441.370876 
L 606.951162 512.554683 
L 606.958841 512.554673 
L 606.997237 485.390077 
L 607.035632 516.258946 
L 607.089385 488.046805 
L 607.158497 562.744997 
L 607.219929 560.057164 
L 607.242966 561.215543 
L 607.250645 558.340167 
L 607.312078 528.937738 
L 607.381189 548.225124 
L 607.481017 561.522736 
L 607.511733 559.176767 
L 607.580845 531.174793 
L 607.626919 552.788317 
L 607.634598 557.850676 
L 607.703709 533.237138 
L 607.834253 487.808339 
L 607.849611 504.017771 
L 607.888007 548.154015 
L 607.949439 453.194151 
L 607.957118 453.184651 
L 607.964797 453.981279 
L 607.995513 559.879394 
L 608.110699 548.43988 
L 608.141415 563.243482 
L 608.195169 540.326183 
L 608.210527 540.731127 
L 608.225885 542.337212 
L 608.341071 557.684195 
L 608.279638 536.055711 
L 608.34875 557.664489 
L 608.456257 552.143358 
L 608.51001 556.197164 
L 608.540726 558.487719 
L 608.556084 557.16471 
L 608.740381 471.881762 
L 608.771098 457.756171 
L 608.817172 485.796857 
L 608.863246 560.525022 
L 608.924679 484.189395 
L 609.016827 453.426376 
L 609.055223 457.640427 
L 609.339348 562.406736 
L 609.377743 560.624194 
L 609.393101 560.700621 
L 609.454533 563.236831 
L 609.508287 561.810338 
L 609.585077 546.832014 
L 609.608114 529.903821 
L 609.669547 561.456118 
L 609.677226 560.861846 
L 609.707942 553.75446 
L 609.754016 517.492571 
L 609.823128 539.85796 
L 609.838486 545.014022 
L 609.876881 560.949895 
L 609.961351 558.219529 
L 609.999746 553.690365 
L 610.053499 560.04839 
L 610.122611 561.326384 
L 610.145648 560.220976 
L 610.168685 557.694139 
L 610.230118 562.307442 
L 610.306908 563.246724 
L 610.322266 562.887917 
L 610.460489 558.956968 
L 610.483526 558.511276 
L 610.506563 559.038856 
L 610.552638 562.866103 
L 610.606391 560.004629 
L 610.667823 555.642179 
L 610.713898 560.215203 
L 610.821404 563.267707 
L 610.767651 557.771612 
L 610.844442 562.933364 
L 610.8598 560.665128 
L 610.982665 558.788438 
L 611.197678 556.520742 
L 611.297506 556.772737 
L 611.389654 557.61468 
L 611.50484 559.549359 
L 611.573952 559.360286 
L 611.758249 557.902284 
L 611.965583 556.292869 
L 612.003978 556.517646 
L 612.119164 557.55523 
L 612.180597 557.277583 
L 612.31882 555.368462 
L 612.549191 551.940919 
L 612.579907 551.885805 
L 612.618303 552.038486 
L 613.04065 554.651504 
L 613.063688 554.630269 
L 613.079046 554.548192 
L 613.201911 552.71784 
L 613.631937 547.253871 
L 613.800877 546.834731 
L 614.108039 545.481067 
L 614.323052 543.87418 
L 614.369126 544.305768 
L 614.591819 550.82943 
L 614.776116 553.038872 
L 614.975771 554.185388 
L 615.029525 553.945862 
L 615.267575 552.997533 
L 615.305971 552.991043 
L 615.321329 553.080687 
L 615.436515 555.346133 
L 615.628491 557.657042 
L 615.659207 557.610651 
L 615.966369 556.984761 
L 615.981727 557.001279 
L 616.127629 557.356783 
L 616.196741 557.172672 
L 616.373359 555.824465 
L 616.465507 555.163159 
L 616.52694 555.29001 
L 616.695879 556.326071 
L 616.795707 557.023464 
L 616.857139 556.904676 
L 617.233413 555.10118 
L 617.517538 554.030101 
L 617.686477 553.950285 
L 618.170257 551.212605 
L 618.531172 549.855507 
L 618.700112 549.904683 
L 618.784581 551.066194 
L 618.968878 552.409729 
L 619.03799 552.480828 
L 619.061027 552.396458 
L 619.613919 549.095312 
L 619.890365 548.108418 
L 619.92876 548.090917 
L 619.951797 548.191306 
L 620.527726 551.96436 
L 620.950074 552.727481 
L 621.095976 552.805207 
L 621.257236 552.679777 
L 621.441533 551.684203 
L 621.748695 549.057019 
L 621.802448 549.451223 
L 622.11729 552.279027 
L 622.132648 552.265802 
L 622.247833 551.851933 
L 622.309266 551.73573 
L 622.35534 551.855479 
L 622.578033 553.417979 
L 622.862158 554.867582 
L 623.00038 556.238688 
L 623.345938 558.910122 
L 623.415049 559.047334 
L 623.461124 558.935631 
L 623.630063 558.064364 
L 623.691495 558.306998 
L 624.090806 560.423306 
L 624.213671 560.568315 
L 624.229029 560.506806 
L 624.328856 558.852397 
L 624.513154 557.330121 
L 624.597623 557.190698 
L 624.628339 557.291644 
L 624.797279 558.824959 
L 624.912464 558.536335 
L 625.665011 554.590789 
L 625.84163 553.919666 
L 625.880025 553.951475 
L 626.125754 554.49024 
L 626.310052 555.147868 
L 626.386842 555.05336 
L 626.678646 554.359814 
L 626.717041 554.572961 
L 626.932055 556.821086 
L 626.978129 556.272883 
L 627.484947 547.127634 
L 627.554058 547.01274 
L 627.600132 547.089342 
L 627.792109 547.834915 
L 627.868899 547.543821 
L 627.961048 546.11772 
L 628.321963 537.132763 
L 628.75199 534.337865 
L 628.83646 534.203245 
L 628.882534 534.223915 
L 629.097547 534.486005 
L 629.281845 535.58343 
L 629.435426 536.531914 
L 629.4815 536.342272 
L 629.696514 534.836648 
L 629.765625 535.117778 
L 630.080466 537.861321 
L 630.257084 537.763587 
L 630.37227 537.537129 
L 630.518172 535.239058 
L 630.602642 534.156173 
L 630.671753 534.443298 
L 630.794618 536.208705 
L 631.001952 539.476333 
L 631.024989 539.378301 
L 631.193929 536.910039 
L 631.355189 536.081472 
L 631.685388 535.68531 
L 631.938797 535.353932 
L 632.007908 535.501329 
L 632.207563 535.877044 
L 632.222922 535.859427 
L 632.307391 535.273078 
L 632.484009 533.984212 
L 632.537763 534.104111 
L 632.829567 535.808225 
L 634.242512 547.76277 
L 634.680218 550.89319 
L 634.710934 550.910719 
L 634.74933 550.808763 
L 635.133282 549.573395 
L 635.286863 549.573392 
L 635.294542 549.619885 
L 635.39437 551.453321 
L 635.578667 554.684701 
L 635.6401 554.512862 
L 635.993336 553.408274 
L 636.169954 553.368357 
L 636.185312 553.404395 
L 636.346572 554.212132 
L 636.438721 554.648863 
L 636.500153 554.568166 
L 636.615339 554.074512 
L 636.830353 552.913156 
L 636.907143 553.022602 
L 637.022329 554.123715 
L 637.114477 553.87594 
L 637.221984 552.85093 
L 637.613616 546.466816 
L 637.882383 545.314479 
L 638.404558 545.023194 
L 638.688683 545.528167 
L 638.750115 545.366735 
L 638.995845 544.711936 
L 639.018882 544.737606 
L 639.256933 545.095565 
L 639.287649 545.081124 
L 639.326044 544.97892 
L 639.610169 542.119229 
L 639.709997 542.796273 
L 640.040196 545.05321 
L 640.669878 547.639332 
L 640.731311 547.66712 
L 640.769706 547.590647 
L 640.907929 546.827859 
L 641.199733 544.547749 
L 641.215091 544.556287 
L 641.314919 544.822796 
L 641.460821 545.846238 
L 641.683513 548.864595 
L 641.79102 548.295203 
L 641.990675 545.596815 
L 642.221047 539.008016 
L 642.328554 536.227104 
L 642.397665 536.460826 
L 642.581962 538.391523 
L 642.658753 539.011114 
L 642.704827 538.72068 
L 642.988952 535.55566 
L 643.058063 535.969878 
L 643.150212 536.57906 
L 643.219324 536.499997 
L 643.342188 536.072113 
L 643.657029 531.197006 
L 643.756857 531.407718 
L 644.102414 533.289872 
L 644.724418 536.737685 
L 645.023901 540.101618 
L 645.3541 542.946451 
L 645.446249 542.411644 
L 645.622867 539.356193 
L 645.715015 537.794654 
L 645.768769 538.227418 
L 646.298623 544.79374 
L 646.513637 545.159142 
L 646.659539 545.103406 
L 646.920626 544.419552 
L 647.427444 543.136967 
L 647.711569 542.889612 
L 647.857471 542.736566 
L 647.888187 542.795605 
L 648.072484 543.709709 
L 648.27214 545.422265 
L 648.494832 547.25798 
L 648.586981 547.322649 
L 648.602339 547.263787 
L 648.709845 545.617375 
L 648.863427 544.862782 
L 648.99397 544.817152 
L 649.017008 544.840974 
L 649.139872 544.948721 
L 649.16291 544.850127 
L 649.354886 543.003593 
L 649.477751 543.081861 
L 649.531504 543.294387 
L 649.692764 546.164146 
L 649.823308 545.793379 
L 650.153507 544.294028 
L 650.253335 544.384714 
L 650.314767 544.306331 
L 650.483706 543.41657 
L 650.760152 542.029974 
L 650.890696 541.865969 
L 651.051956 540.77938 
L 651.228574 538.250372 
L 651.313044 538.728027 
L 651.812182 542.740592 
L 652.203814 543.253341 
L 652.219172 543.165852 
L 652.303642 540.780653 
L 652.503297 537.472676 
L 652.603125 537.232233 
L 652.626162 537.359719 
L 652.749027 539.936751 
L 652.956361 542.093037 
L 654.008391 548.87763 
L 654.039107 548.753586 
L 654.185009 546.6347 
L 654.415381 544.690049 
L 654.438418 544.740948 
L 654.545925 545.875729 
L 654.622715 546.456822 
L 654.66879 546.096226 
L 655.329188 536.776427 
L 655.728499 535.177746 
L 656.027982 534.481209 
L 656.404255 532.792381 
L 657.602187 521.805058 
L 657.655941 522.08804 
L 657.801843 524.877938 
L 657.917028 530.244116 
L 658.155079 538.884237 
L 658.354734 540.041883 
L 658.477599 540.176037 
L 658.500636 540.11799 
L 658.592785 539.178161 
L 658.769403 534.921837 
L 659.03817 527.655852 
L 659.153356 527.123086 
L 659.19943 527.228573 
L 659.345332 528.346491 
L 659.529629 531.069665 
L 659.598741 531.590197 
L 659.637136 531.022715 
L 660.059484 521.558552 
L 660.082521 521.586344 
L 660.17467 522.152045 
L 660.397362 525.246962 
L 660.973291 538.411551 
L 661.080798 538.07383 
L 661.242058 536.476891 
L 661.687443 524.279746 
L 661.802629 524.620937 
L 662.19426 527.374266 
L 662.624287 531.9836 
L 662.785547 531.879716 
L 663.253969 531.354606 
L 663.730071 530.388312 
L 664.528692 528.165277 
L 665.550006 525.479896 
L 665.995391 524.852055 
L 666.210404 524.814126 
L 666.379343 525.098736 
L 666.640431 526.060171 
L 667.032063 528.49469 
L 667.677103 534.16706 
L 668.498762 540.936425 
L 668.805924 541.993657 
L 668.959505 542.007527 
L 669.40489 541.667126 
L 669.965461 540.929718 
L 670.741045 539.499023 
L 671.800754 537.076656 
L 672.507227 534.552229 
L 673.397997 531.579847 
L 673.781949 530.957642 
L 674.319483 530.670609 
L 674.857016 530.633211 
L 675.47902 530.825814 
L 677.544685 531.661569 
L 677.959353 531.463025 
L 678.750296 530.752718 
L 680.09413 529.183883 
L 681.230629 528.002278 
L 681.768163 527.713227 
L 682.167474 527.760301 
L 682.658933 528.062674 
L 684.348324 529.309686 
L 684.670845 529.177737 
L 684.978007 528.773127 
L 685.408034 527.78492 
L 686.106827 525.523956 
L 687.012955 522.766843 
L 687.396908 522.203129 
L 687.911404 521.98825 
L 688.710026 521.882357 
L 690.099934 521.725249 
L 692.050413 521.01627 
L 692.741528 520.533486 
L 693.709088 519.471278 
L 694.476994 518.781206 
L 694.653612 518.837186 
L 694.876304 519.197242 
L 695.23722 520.279912 
L 696.243175 523.505895 
L 696.435152 523.547991 
L 696.880537 523.156216 
L 697.456466 522.320011 
L 698.301161 520.650413 
L 698.585286 519.667079 
L 699.145857 516.725188 
L 699.760181 513.929104 
L 700.021269 513.509869 
L 700.121097 513.644839 
L 700.290036 514.370171 
L 700.589519 516.848475 
L 701.572437 525.782756 
L 701.626191 525.775974 
L 701.656907 525.713961 
L 701.779772 525.030426 
L 702.017822 522.115058 
L 703.138964 506.194204 
L 703.453805 506.126477 
L 703.853116 506.297833 
L 704.567267 506.612983 
L 705.665372 506.377097 
L 705.980213 506.169868 
L 706.080041 504.874833 
L 706.41024 496.473222 
L 706.748118 489.786988 
L 706.786513 490.471137 
L 707.21654 501.588383 
L 707.277973 501.969743 
L 707.3778 506.472332 
L 707.508344 512.224731 
L 707.562098 511.439397 
L 707.838543 499.366177 
L 708.368398 485.275872 
L 708.498942 484.092582 
L 708.529658 484.32345 
L 708.629486 488.215347 
L 708.913611 497.571672 
L 709.15934 499.853384 
L 709.220773 499.965032 
L 709.259168 499.800581 
L 709.374354 497.950444 
L 709.704553 492.19583 
L 709.735269 492.226816 
L 709.835097 492.655652 
L 710.034752 494.753687 
L 710.825695 505.57664 
L 710.910164 505.497362 
L 711.10982 505.037249 
L 711.440019 503.607615 
L 712.015948 499.970267 
L 712.361505 495.796538 
L 712.983508 488.685427 
L 713.513363 486.157565 
L 714.526998 481.758138 
L 714.887913 480.666857 
L 715.110605 480.57061 
L 716.131919 480.296735 
L 716.799997 479.402428 
L 716.830713 479.4763 
L 717.322172 481.086531 
L 717.391284 481.18956 
L 717.537186 481.921926 
L 717.66773 483.072808 
L 717.721483 482.723545 
L 717.890422 479.215453 
L 718.136152 474.520888 
L 718.351165 473.76972 
L 718.366523 473.796659 
L 718.481709 474.688203 
L 718.520104 474.805804 
L 718.581537 474.672833 
L 718.727439 473.628957 
L 719.349442 467.85893 
L 719.410874 467.907486 
L 719.564455 468.344048 
L 720.140384 470.538516 
L 720.186459 470.444772 
L 720.309323 469.559862 
L 720.946685 463.118747 
L 721.031154 463.150556 
L 721.253847 463.434228 
L 721.645478 464.380694 
L 721.814418 465.166636 
L 722.398025 468.85648 
L 722.467137 468.788591 
L 722.628397 468.274435 
L 723.603637 464.465662 
L 724.287072 463.074947 
L 724.486728 462.910004 
L 724.502086 462.950095 
L 724.609592 463.984932 
L 724.747815 465.643529 
L 724.816927 465.126834 
L 724.947471 461.929977 
L 725.147126 455.897608 
L 725.1932 456.103668 
L 725.400535 458.026219 
L 725.469646 457.565033 
L 725.815203 453.889867 
L 725.899673 453.925727 
L 726.068612 453.942995 
L 726.08397 453.912404 
L 726.229872 453.272898 
L 726.460244 451.293887 
L 727.043852 444.423143 
L 727.112963 444.478844 
L 727.281902 444.955468 
L 727.62746 445.866152 
L 727.635139 445.860716 
L 727.696571 445.558312 
L 727.857831 443.233286 
L 728.226426 438.393394 
L 728.303216 438.492233 
L 728.479834 439.271483 
L 728.786996 440.473017 
L 728.802355 440.460567 
L 728.879145 440.095075 
L 729.071121 437.694375 
L 729.493469 432.867257 
L 730.760513 425.284528 
L 730.983205 424.025637 
L 731.121428 421.343903 
L 731.367158 418.150164 
L 731.643604 417.473333 
L 732.350076 414.528875 
L 732.902968 411.470775 
L 734.062505 405.125493 
L 734.484853 403.954623 
L 735.068461 400.434373 
L 735.360265 399.805639 
L 735.613673 398.530826 
L 735.690464 398.616161 
L 735.836366 398.791315 
L 735.874761 398.733995 
L 736.012984 398.131502 
L 736.412295 396.068573 
L 736.757852 394.372649 
L 737.410572 391.307099 
L 738.009538 390.102812 
L 738.362774 388.901306 
L 738.792801 388.156079 
L 739.36873 386.428363 
L 740.996689 382.276906 
L 742.194621 378.853497 
L 743.100749 377.270913 
L 743.722752 375.764576 
L 745.381427 372.533745 
L 746.479532 371.232454 
L 746.886521 370.206296 
L 747.086177 370.003699 
L 747.347264 369.817955 
L 748.023021 369.073723 
L 748.314825 368.799067 
L 748.852359 368.177505 
L 749.220953 367.634391 
L 749.697054 366.92334 
L 750.019574 366.766531 
L 750.150118 366.528567 
L 750.518713 365.892037 
L 751.071604 365.363535 
L 751.401804 364.989868 
L 751.947016 364.933399 
L 752.377043 364.648704 
L 752.515266 364.584107 
L 753.075837 363.536922 
L 753.429073 363.139785 
L 753.805347 362.609779 
L 754.220016 362.371925 
L 754.496462 362.339077 
L 754.703796 362.155328 
L 754.972563 361.675373 
L 755.471701 360.957263 
L 755.809579 360.68352 
L 756.254964 360.086942 
L 756.539089 359.925683 
L 756.930721 359.414775 
L 757.191809 359.144797 
L 757.360748 358.755757 
L 757.629515 358.454711 
L 757.859886 358.281049 
L 758.243839 357.719081 
L 758.574038 357.609266 
L 759.149967 357.067011 
L 759.380338 356.546303 
L 759.641426 356.335366 
L 760.463085 355.246051 
L 761.991216 353.641103 
L 763.573101 352.014344 
L 765.677161 349.433197 
L 767.282083 347.513443 
L 770.169406 344.073043 
L 772.112206 341.732461 
L 776.77339 335.667334 
L 782.809125 327.004526 
L 786.548823 320.881612 
L 789.443826 315.629745 
L 792.16221 310.197176 
L 794.581111 304.808372 
L 796.662134 299.605292 
L 800.040917 290.465314 
L 803.266119 281.042952 
L 805.746452 273.106276 
L 808.19607 264.48556 
L 810.399958 255.950793 
L 812.634562 246.417819 
L 814.846129 235.98064 
L 816.811966 225.648144 
L 819.023533 212.723875 
L 822.348562 191.741158 
L 825.520011 170.428698 
L 835.679396 99.100046 
L 837.75274 81.763407 
L 839.879837 62.560341 
L 839.879837 62.560341 
" clip-path="url(#p6344802ddb)" style="fill: none; stroke: #01a049; stroke-width: 5; stroke-linecap: square"/>
   </g>
   <g id="patch_3">
    <path d="M 71.99 566.88 
L 71.99 57.914 
" style="fill: none; stroke: #000000; stroke-width: 0.8; stroke-linejoin: miter; stroke-linecap: square"/>
   </g>
   <g id="patch_4">
    <path d="M 844 566.88 
L 844 57.914 
" style="fill: none; stroke: #000000; stroke-width: 0.8; stroke-linejoin: miter; stroke-linecap: square"/>
   </g>
   <g id="patch_5">
    <path d="M 71.99 566.88 
L 844 566.88 
" style="fill: none; stroke: #000000; stroke-width: 0.8; stroke-linejoin: miter; stroke-linecap: square"/>
   </g>
   <g id="patch_6">
    <path d="M 71.99 57.914 
L 844 57.914 
" style="fill: none; stroke: #000000; stroke-width: 0.8; stroke-linejoin: miter; stroke-linecap: square"/>
   </g>
   <g id="text_18">
    <!-- Neutron reproduction factor -->
    <g transform="translate(275.845781 39.18985) scale(0.3 -0.3)">
     <use xlink:href="#Aptos-4e"/>
     <use xlink:href="#Aptos-65" transform="translate(70.605469 0)"/>
     <use xlink:href="#Aptos-75" transform="translate(123.291016 0)"/>
     <use xlink:href="#Aptos-74" transform="translate(179.150391 0)"/>
     <use xlink:href="#Aptos-72" transform="translate(211.474609 0)"/>
     <use xlink:href="#Aptos-6f" transform="translate(244.921875 0)"/>
     <use xlink:href="#Aptos-6e" transform="translate(300.097656 0)"/>
     <use xlink:href="#Aptos-20" transform="translate(355.224609 0)"/>
     <use xlink:href="#Aptos-72" transform="translate(375.537109 0)"/>
     <use xlink:href="#Aptos-65" transform="translate(408.984375 0)"/>
     <use xlink:href="#Aptos-70" transform="translate(461.669922 0)"/>
     <use xlink:href="#Aptos-72" transform="translate(517.773438 0)"/>
     <use xlink:href="#Aptos-6f" transform="translate(551.220703 0)"/>
     <use xlink:href="#Aptos-64" transform="translate(606.396484 0)"/>
     <use xlink:href="#Aptos-75" transform="translate(662.451172 0)"/>
     <use xlink:href="#Aptos-63" transform="translate(718.310547 0)"/>
     <use xlink:href="#Aptos-74" transform="translate(770.800781 0)"/>
     <use xlink:href="#Aptos-69" transform="translate(803.125 0)"/>
     <use xlink:href="#Aptos-6f" transform="translate(827.001953 0)"/>
     <use xlink:href="#Aptos-6e" transform="translate(882.177734 0)"/>
     <use xlink:href="#Aptos-20" transform="translate(937.304688 0)"/>
     <use xlink:href="#Aptos-66" transform="translate(957.617188 0)"/>
     <use xlink:href="#Aptos-61" transform="translate(987.744141 0)"/>
     <use xlink:href="#Aptos-63" transform="translate(1040.869141 0)"/>
     <use xlink:href="#Aptos-74" transform="translate(1093.359375 0)"/>
     <use xlink:href="#Aptos-6f" transform="translate(1125.683594 0)"/>
     <use xlink:href="#Aptos-72" transform="translate(1180.859375 0)"/>
    </g>
   </g>
   <g id="legend_1">
    <g id="patch_7">
     <path d="M 712.2 102.114 
L 830 102.114 
Q 834 102.114 834 98.114 
L 834 71.914 
Q 834 67.914 830 67.914 
L 712.2 67.914 
Q 708.2 67.914 708.2 71.914 
L 708.2 98.114 
Q 708.2 102.114 712.2 102.114 
z
" style="fill: #ffffff; opacity: 0.95; stroke: #cccccc; stroke-linejoin: miter"/>
    </g>
    <g id="line2d_32">
     <path d="M 716.2 83.617125 
L 736.2 83.617125 
L 756.2 83.617125 
" style="fill: none; stroke: #01a049; stroke-width: 5; stroke-linecap: square"/>
    </g>
    <g id="text_19">
     <!-- $\mathrm{^{240}Pu}$ -->
     <g transform="translate(772.2 90.617125) scale(0.2 -0.2)">
      <defs>
       <path id="DejaVuSerif-32" d="M 819 3553 
L 469 3553 
L 469 4384 
Q 803 4563 1142 4656 
Q 1481 4750 1806 4750 
Q 2534 4750 2956 4397 
Q 3378 4044 3378 3438 
Q 3378 2753 2422 1800 
Q 2347 1728 2309 1691 
L 1131 513 
L 3078 513 
L 3078 1088 
L 3444 1088 
L 3444 0 
L 434 0 
L 434 341 
L 1850 1753 
Q 2319 2222 2519 2614 
Q 2719 3006 2719 3438 
Q 2719 3909 2473 4175 
Q 2228 4441 1797 4441 
Q 1350 4441 1106 4219 
Q 863 3997 819 3553 
z
" transform="scale(0.015625)"/>
       <path id="DejaVuSerif-34" d="M 2234 1581 
L 2234 4063 
L 641 1581 
L 2234 1581 
z
M 3609 0 
L 1484 0 
L 1484 331 
L 2234 331 
L 2234 1247 
L 197 1247 
L 197 1588 
L 2241 4750 
L 2859 4750 
L 2859 1581 
L 3750 1581 
L 3750 1247 
L 2859 1247 
L 2859 331 
L 3609 331 
L 3609 0 
z
" transform="scale(0.015625)"/>
       <path id="DejaVuSerif-30" d="M 2034 219 
Q 2513 219 2750 744 
Q 2988 1269 2988 2328 
Q 2988 3391 2750 3916 
Q 2513 4441 2034 4441 
Q 1556 4441 1318 3916 
Q 1081 3391 1081 2328 
Q 1081 1269 1318 744 
Q 1556 219 2034 219 
z
M 2034 -91 
Q 1275 -91 848 546 
Q 422 1184 422 2328 
Q 422 3475 848 4112 
Q 1275 4750 2034 4750 
Q 2797 4750 3222 4112 
Q 3647 3475 3647 2328 
Q 3647 1184 3222 546 
Q 2797 -91 2034 -91 
z
" transform="scale(0.015625)"/>
       <path id="DejaVuSerif-50" d="M 1581 2375 
L 2406 2375 
Q 2872 2375 3115 2626 
Q 3359 2878 3359 3353 
Q 3359 3831 3115 4081 
Q 2872 4331 2406 4331 
L 1581 4331 
L 1581 2375 
z
M 353 0 
L 353 331 
L 947 331 
L 947 4331 
L 353 4331 
L 353 4666 
L 2559 4666 
Q 3259 4666 3668 4311 
Q 4078 3956 4078 3353 
Q 4078 2753 3668 2397 
Q 3259 2041 2559 2041 
L 1581 2041 
L 1581 331 
L 2303 331 
L 2303 0 
L 353 0 
z
" transform="scale(0.015625)"/>
       <path id="DejaVuSerif-75" d="M 2266 3322 
L 3341 3322 
L 3341 331 
L 3884 331 
L 3884 0 
L 2766 0 
L 2766 588 
Q 2606 256 2353 82 
Q 2100 -91 1766 -91 
Q 1213 -91 952 223 
Q 691 538 691 1209 
L 691 2988 
L 172 2988 
L 172 3322 
L 1269 3322 
L 1269 1388 
Q 1269 781 1417 556 
Q 1566 331 1947 331 
Q 2347 331 2556 625 
Q 2766 919 2766 1478 
L 2766 2988 
L 2266 2988 
L 2266 3322 
z
" transform="scale(0.015625)"/>
      </defs>
      <use xlink:href="#DejaVuSerif-32" transform="translate(0.908359 37.046875) scale(0.7)"/>
      <use xlink:href="#DejaVuSerif-34" transform="translate(45.444492 37.046875) scale(0.7)"/>
      <use xlink:href="#DejaVuSerif-30" transform="translate(89.980625 37.046875) scale(0.7)"/>
      <use xlink:href="#DejaVuSerif-50" transform="translate(137.11207 0.7125)"/>
      <use xlink:href="#DejaVuSerif-75" transform="translate(204.397227 0.7125)"/>
     </g>
    </g>
   </g>
  </g>
 </g>
 <defs>
  <clipPath id="p6344802ddb">
   <rect x="71.99" y="57.914" width="772.01" height="508.966"/>
  </clipPath>
 </defs>
</svg>
