<?xml version="1.0" encoding="utf-8" standalone="no"?>
<!DOCTYPE svg PUBLIC "-//W3C//DTD SVG 1.1//EN"
  "http://www.w3.org/Graphics/SVG/1.1/DTD/svg11.dtd">
<svg xmlns:xlink="http://www.w3.org/1999/xlink" width="864pt" height="648pt" viewBox="0 0 864 648" xmlns="http://www.w3.org/2000/svg" version="1.1">
 <metadata>
  <rdf:RDF xmlns:dc="http://purl.org/dc/elements/1.1/" xmlns:cc="http://creativecommons.org/ns#" xmlns:rdf="http://www.w3.org/1999/02/22-rdf-syntax-ns#">
   <cc:Work>
    <dc:type rdf:resource="http://purl.org/dc/dcmitype/StillImage"/>
    <dc:date>2025-10-21T14:54:20.240945</dc:date>
    <dc:format>image/svg+xml</dc:format>
    <dc:creator>
     <cc:Agent>
      <dc:title>Matplotlib v3.10.7, https://matplotlib.org/</dc:title>
     </cc:Agent>
    </dc:creator>
   </cc:Work>
  </rdf:RDF>
 </metadata>
 <defs>
  <style type="text/css">*{stroke-linejoin: round; stroke-linecap: butt}</style>
 </defs>
 <g id="figure_1">
  <g id="patch_1">
   <path d="M 0 648 
L 864 648 
L 864 0 
L 0 0 
z
" style="fill: #ffffff; stroke: #000000; stroke-width: 3; stroke-linejoin: miter"/>
  </g>
  <g id="axes_1">
   <g id="patch_2">
    <path d="M 71.99 566.88 
L 844 566.88 
L 844 57.914 
L 71.99 57.914 
L 71.99 566.88 
z
" style="fill: none"/>
   </g>
   <g id="matplotlib.axis_1">
    <g id="xtick_1">
     <g id="line2d_1">
      <path d="M 71.99 566.88 
L 71.99 57.914 
" clip-path="url(#p80d36fff26)" style="fill: none; stroke-dasharray: 3.7,1.6; stroke-dashoffset: 0; stroke: #343837; stroke-opacity: 0.8"/>
     </g>
     <g id="line2d_2">
      <defs>
       <path id="m47f83be6d7" d="M 0 0 
L 0 3.5 
" style="stroke: #000000; stroke-width: 0.8"/>
      </defs>
      <g>
       <use xlink:href="#m47f83be6d7" x="71.99" y="566.88" style="stroke: #000000; stroke-width: 0.8"/>
      </g>
     </g>
     <g id="text_1">
      <!-- $\mathdefault{10^{-11}}$ -->
      <g transform="translate(47.46 588.338125) scale(0.22 -0.22)">
       <defs>
        <path id="Aptos-31" d="M 1681 0 
L 1681 3425 
Q 1597 3309 1442 3201 
Q 1288 3094 1075 3009 
Q 863 2925 600 2888 
L 600 3381 
Q 859 3425 1082 3540 
Q 1306 3656 1476 3806 
Q 1647 3956 1744 4094 
L 2228 4094 
L 2228 0 
L 1681 0 
z
" transform="scale(0.015625)"/>
        <path id="Aptos-30" d="M 1709 -56 
Q 1316 -56 1045 105 
Q 775 266 611 552 
Q 447 838 373 1216 
Q 300 1594 300 2031 
Q 300 2475 373 2856 
Q 447 3238 611 3525 
Q 775 3813 1045 3973 
Q 1316 4134 1709 4134 
Q 2103 4134 2373 3975 
Q 2644 3816 2806 3527 
Q 2969 3238 3042 2858 
Q 3116 2478 3116 2038 
Q 3116 1597 3042 1217 
Q 2969 838 2806 552 
Q 2644 266 2373 105 
Q 2103 -56 1709 -56 
z
M 1709 400 
Q 1969 400 2134 540 
Q 2300 681 2392 917 
Q 2484 1153 2520 1445 
Q 2556 1738 2556 2038 
Q 2556 2341 2520 2633 
Q 2484 2925 2392 3161 
Q 2300 3397 2134 3537 
Q 1969 3678 1709 3678 
Q 1450 3678 1283 3537 
Q 1116 3397 1022 3161 
Q 928 2925 892 2633 
Q 856 2341 856 2038 
Q 856 1738 892 1445 
Q 928 1153 1022 917 
Q 1116 681 1283 540 
Q 1450 400 1709 400 
z
" transform="scale(0.015625)"/>
        <path id="Aptos-2212" d="M 353 1866 
L 353 2319 
L 3059 2319 
L 3059 1866 
L 353 1866 
z
" transform="scale(0.015625)"/>
       </defs>
       <use xlink:href="#Aptos-31" transform="translate(0 0.928125)"/>
       <use xlink:href="#Aptos-30" transform="translate(53.417969 0.928125)"/>
       <use xlink:href="#Aptos-2212" transform="translate(107.668281 34.221875) scale(0.7)"/>
       <use xlink:href="#Aptos-31" transform="translate(145.060859 34.221875) scale(0.7)"/>
       <use xlink:href="#Aptos-31" transform="translate(182.453438 34.221875) scale(0.7)"/>
      </g>
     </g>
    </g>
    <g id="xtick_2">
     <g id="line2d_3">
      <path d="M 195.077661 566.88 
L 195.077661 57.914 
" clip-path="url(#p80d36fff26)" style="fill: none; stroke-dasharray: 3.7,1.6; stroke-dashoffset: 0; stroke: #343837; stroke-opacity: 0.8"/>
     </g>
     <g id="line2d_4">
      <g>
       <use xlink:href="#m47f83be6d7" x="195.077661" y="566.88" style="stroke: #000000; stroke-width: 0.8"/>
      </g>
     </g>
     <g id="text_2">
      <!-- $\mathdefault{10^{-9}}$ -->
      <g transform="translate(174.727661 588.338125) scale(0.22 -0.22)">
       <defs>
        <path id="Aptos-39" d="M 1594 -56 
Q 1244 -56 970 64 
Q 697 184 523 415 
Q 350 647 303 978 
L 831 978 
Q 881 713 1075 552 
Q 1269 391 1594 391 
Q 2066 391 2337 778 
Q 2609 1166 2609 2019 
L 2609 2197 
Q 2609 2753 2481 3079 
Q 2353 3406 2142 3547 
Q 1931 3688 1681 3688 
Q 1250 3688 1042 3433 
Q 834 3178 834 2800 
Q 834 2422 1034 2203 
Q 1234 1984 1594 1984 
Q 1878 1984 2087 2071 
Q 2297 2159 2453 2300 
Q 2609 2441 2725 2594 
L 2778 2209 
Q 2653 2038 2476 1884 
Q 2300 1731 2064 1634 
Q 1828 1538 1528 1538 
Q 1166 1538 886 1683 
Q 606 1828 448 2108 
Q 291 2388 291 2784 
Q 291 3175 458 3479 
Q 625 3784 936 3959 
Q 1247 4134 1675 4134 
Q 2100 4134 2433 3926 
Q 2766 3719 2958 3262 
Q 3150 2806 3150 2066 
Q 3150 1338 2956 869 
Q 2763 400 2413 172 
Q 2063 -56 1594 -56 
z
" transform="scale(0.015625)"/>
       </defs>
       <use xlink:href="#Aptos-31" transform="translate(0 0.490625)"/>
       <use xlink:href="#Aptos-30" transform="translate(53.417969 0.490625)"/>
       <use xlink:href="#Aptos-2212" transform="translate(107.668281 33.784375) scale(0.7)"/>
       <use xlink:href="#Aptos-39" transform="translate(145.060859 33.784375) scale(0.7)"/>
      </g>
     </g>
    </g>
    <g id="xtick_3">
     <g id="line2d_5">
      <path d="M 318.165323 566.88 
L 318.165323 57.914 
" clip-path="url(#p80d36fff26)" style="fill: none; stroke-dasharray: 3.7,1.6; stroke-dashoffset: 0; stroke: #343837; stroke-opacity: 0.8"/>
     </g>
     <g id="line2d_6">
      <g>
       <use xlink:href="#m47f83be6d7" x="318.165323" y="566.88" style="stroke: #000000; stroke-width: 0.8"/>
      </g>
     </g>
     <g id="text_3">
      <!-- $\mathdefault{10^{-7}}$ -->
      <g transform="translate(297.815323 588.338125) scale(0.22 -0.22)">
       <defs>
        <path id="Aptos-37" d="M 806 0 
L 2584 3600 
L 297 3600 
L 297 4078 
L 3116 4078 
L 3116 3622 
L 1375 0 
L 806 0 
z
" transform="scale(0.015625)"/>
       </defs>
       <use xlink:href="#Aptos-31" transform="translate(0 0.103125)"/>
       <use xlink:href="#Aptos-30" transform="translate(53.417969 0.103125)"/>
       <use xlink:href="#Aptos-2212" transform="translate(107.668281 33.396875) scale(0.7)"/>
       <use xlink:href="#Aptos-37" transform="translate(145.060859 33.396875) scale(0.7)"/>
      </g>
     </g>
    </g>
    <g id="xtick_4">
     <g id="line2d_7">
      <path d="M 441.252984 566.88 
L 441.252984 57.914 
" clip-path="url(#p80d36fff26)" style="fill: none; stroke-dasharray: 3.7,1.6; stroke-dashoffset: 0; stroke: #343837; stroke-opacity: 0.8"/>
     </g>
     <g id="line2d_8">
      <g>
       <use xlink:href="#m47f83be6d7" x="441.252984" y="566.88" style="stroke: #000000; stroke-width: 0.8"/>
      </g>
     </g>
     <g id="text_4">
      <!-- $\mathdefault{10^{-5}}$ -->
      <g transform="translate(420.902984 588.338125) scale(0.22 -0.22)">
       <defs>
        <path id="Aptos-35" d="M 1709 -56 
Q 1313 -56 992 83 
Q 672 222 484 483 
Q 297 744 297 1113 
L 831 1113 
Q 831 778 1076 584 
Q 1322 391 1709 391 
Q 2119 391 2347 625 
Q 2575 859 2575 1319 
Q 2575 1772 2345 1989 
Q 2116 2206 1725 2206 
Q 1434 2206 1245 2123 
Q 1056 2041 931 1894 
L 459 1894 
L 638 4078 
L 2838 4078 
L 2838 3613 
L 1056 3613 
L 947 2322 
Q 1063 2453 1267 2550 
Q 1472 2647 1797 2647 
Q 2159 2647 2459 2506 
Q 2759 2366 2939 2072 
Q 3119 1778 3119 1319 
Q 3119 872 2937 565 
Q 2756 259 2439 101 
Q 2122 -56 1709 -56 
z
" transform="scale(0.015625)"/>
       </defs>
       <use xlink:href="#Aptos-31" transform="translate(0 0.103125)"/>
       <use xlink:href="#Aptos-30" transform="translate(53.417969 0.103125)"/>
       <use xlink:href="#Aptos-2212" transform="translate(107.668281 33.396875) scale(0.7)"/>
       <use xlink:href="#Aptos-35" transform="translate(145.060859 33.396875) scale(0.7)"/>
      </g>
     </g>
    </g>
    <g id="xtick_5">
     <g id="line2d_9">
      <path d="M 564.340646 566.88 
L 564.340646 57.914 
" clip-path="url(#p80d36fff26)" style="fill: none; stroke-dasharray: 3.7,1.6; stroke-dashoffset: 0; stroke: #343837; stroke-opacity: 0.8"/>
     </g>
     <g id="line2d_10">
      <g>
       <use xlink:href="#m47f83be6d7" x="564.340646" y="566.88" style="stroke: #000000; stroke-width: 0.8"/>
      </g>
     </g>
     <g id="text_5">
      <!-- $\mathdefault{10^{-3}}$ -->
      <g transform="translate(543.990646 588.338125) scale(0.22 -0.22)">
       <defs>
        <path id="Aptos-33" d="M 1738 -56 
Q 1088 -56 697 275 
Q 306 606 306 1225 
L 828 1225 
Q 828 844 1067 617 
Q 1306 391 1731 391 
Q 2125 391 2351 581 
Q 2578 772 2578 1172 
Q 2578 1556 2328 1737 
Q 2078 1919 1644 1919 
L 1403 1919 
L 1403 2363 
L 1656 2363 
Q 2047 2363 2253 2556 
Q 2459 2750 2459 3072 
Q 2459 3378 2256 3529 
Q 2053 3681 1722 3681 
Q 1347 3681 1140 3481 
Q 934 3281 934 2956 
L 413 2956 
Q 413 3319 578 3583 
Q 744 3847 1036 3990 
Q 1328 4134 1716 4134 
Q 2066 4134 2353 4017 
Q 2641 3900 2811 3670 
Q 2981 3441 2981 3097 
Q 2981 2731 2778 2495 
Q 2575 2259 2244 2166 
Q 2622 2097 2870 1840 
Q 3119 1584 3119 1150 
Q 3119 763 2945 494 
Q 2772 225 2461 84 
Q 2150 -56 1738 -56 
z
" transform="scale(0.015625)"/>
       </defs>
       <use xlink:href="#Aptos-31" transform="translate(0 0.490625)"/>
       <use xlink:href="#Aptos-30" transform="translate(53.417969 0.490625)"/>
       <use xlink:href="#Aptos-2212" transform="translate(107.668281 33.784375) scale(0.7)"/>
       <use xlink:href="#Aptos-33" transform="translate(145.060859 33.784375) scale(0.7)"/>
      </g>
     </g>
    </g>
    <g id="xtick_6">
     <g id="line2d_11">
      <path d="M 687.428307 566.88 
L 687.428307 57.914 
" clip-path="url(#p80d36fff26)" style="fill: none; stroke-dasharray: 3.7,1.6; stroke-dashoffset: 0; stroke: #343837; stroke-opacity: 0.8"/>
     </g>
     <g id="line2d_12">
      <g>
       <use xlink:href="#m47f83be6d7" x="687.428307" y="566.88" style="stroke: #000000; stroke-width: 0.8"/>
      </g>
     </g>
     <g id="text_6">
      <!-- $\mathdefault{10^{-1}}$ -->
      <g transform="translate(667.078307 588.338125) scale(0.22 -0.22)">
       <use xlink:href="#Aptos-31" transform="translate(0 0.928125)"/>
       <use xlink:href="#Aptos-30" transform="translate(53.417969 0.928125)"/>
       <use xlink:href="#Aptos-2212" transform="translate(107.668281 34.221875) scale(0.7)"/>
       <use xlink:href="#Aptos-31" transform="translate(145.060859 34.221875) scale(0.7)"/>
      </g>
     </g>
    </g>
    <g id="xtick_7">
     <g id="line2d_13">
      <path d="M 810.515968 566.88 
L 810.515968 57.914 
" clip-path="url(#p80d36fff26)" style="fill: none; stroke-dasharray: 3.7,1.6; stroke-dashoffset: 0; stroke: #343837; stroke-opacity: 0.8"/>
     </g>
     <g id="line2d_14">
      <g>
       <use xlink:href="#m47f83be6d7" x="810.515968" y="566.88" style="stroke: #000000; stroke-width: 0.8"/>
      </g>
     </g>
     <g id="text_7">
      <!-- $\mathdefault{10^{1}}$ -->
      <g transform="translate(794.235968 588.338125) scale(0.22 -0.22)">
       <use xlink:href="#Aptos-31" transform="translate(0 0.928125)"/>
       <use xlink:href="#Aptos-30" transform="translate(53.417969 0.928125)"/>
       <use xlink:href="#Aptos-31" transform="translate(107.668281 34.221875) scale(0.7)"/>
      </g>
     </g>
    </g>
    <g id="text_8">
     <!-- Energy of incident neutron (MeV) -->
     <g transform="translate(276.356562 621.373125) scale(0.26 -0.26)">
      <defs>
       <path id="Aptos-45" d="M 550 0 
L 550 4206 
L 3234 4206 
L 3234 3738 
L 1113 3738 
L 1113 2397 
L 3066 2397 
L 3066 1934 
L 1113 1934 
L 1113 469 
L 3234 469 
L 3234 0 
L 550 0 
z
" transform="scale(0.015625)"/>
       <path id="Aptos-6e" d="M 503 0 
L 503 3044 
L 1003 3044 
L 1022 2575 
Q 1163 2759 1425 2923 
Q 1688 3088 2097 3088 
Q 2597 3088 2825 2792 
Q 3053 2497 3053 1963 
L 3053 0 
L 2531 0 
L 2531 1888 
Q 2531 2109 2484 2281 
Q 2438 2453 2317 2551 
Q 2197 2650 1969 2650 
Q 1628 2650 1397 2495 
Q 1166 2341 1025 2156 
L 1025 0 
L 503 0 
z
" transform="scale(0.015625)"/>
       <path id="Aptos-65" d="M 1769 -56 
Q 1272 -56 955 151 
Q 638 359 484 717 
Q 331 1075 331 1522 
Q 331 1988 479 2342 
Q 628 2697 933 2897 
Q 1238 3097 1706 3097 
Q 2328 3097 2681 2722 
Q 3034 2347 3034 1644 
Q 3034 1597 3031 1533 
Q 3028 1469 3022 1441 
L 853 1441 
Q 856 1144 948 895 
Q 1041 647 1241 497 
Q 1441 347 1769 347 
Q 2119 347 2316 511 
Q 2513 675 2522 984 
L 3038 984 
Q 3028 663 2872 430 
Q 2716 197 2434 70 
Q 2153 -56 1769 -56 
z
M 856 1822 
L 2519 1822 
Q 2509 2247 2296 2472 
Q 2084 2697 1706 2697 
Q 1325 2697 1108 2473 
Q 891 2250 856 1822 
z
" transform="scale(0.015625)"/>
       <path id="Aptos-72" d="M 503 0 
L 503 3044 
L 994 3044 
L 1013 2525 
Q 1141 2763 1369 2922 
Q 1597 3081 1963 3081 
L 2025 3081 
L 2025 2603 
L 1953 2603 
Q 1725 2603 1553 2543 
Q 1381 2484 1253 2379 
Q 1125 2275 1025 2138 
L 1025 0 
L 503 0 
z
" transform="scale(0.015625)"/>
       <path id="Aptos-67" d="M 1563 -1178 
Q 1069 -1178 773 -1065 
Q 478 -953 347 -765 
Q 216 -578 216 -359 
Q 216 -94 442 112 
Q 669 319 1141 403 
L 1241 575 
L 1625 575 
Q 2375 575 2697 376 
Q 3019 178 3019 -238 
Q 3019 -650 2651 -914 
Q 2284 -1178 1563 -1178 
z
M 1550 -800 
Q 2081 -800 2298 -650 
Q 2516 -500 2516 -278 
Q 2516 -147 2442 -51 
Q 2369 44 2170 97 
Q 1972 150 1606 150 
L 1144 150 
Q 931 97 815 -31 
Q 700 -159 700 -328 
Q 700 -516 897 -658 
Q 1094 -800 1550 -800 
z
M 1134 178 
Q 838 209 667 301 
Q 497 394 425 508 
Q 353 622 353 728 
Q 353 881 476 1017 
Q 600 1153 881 1241 
L 1141 1078 
Q 975 1031 878 957 
Q 781 884 781 794 
Q 781 731 839 682 
Q 897 634 1036 604 
Q 1175 575 1422 575 
L 1134 178 
z
M 1525 984 
Q 1150 984 889 1129 
Q 628 1275 493 1511 
Q 359 1747 359 2022 
Q 359 2313 495 2550 
Q 631 2788 895 2928 
Q 1159 3069 1541 3069 
Q 1931 3069 2190 2928 
Q 2450 2788 2578 2550 
Q 2706 2313 2706 2022 
Q 2706 1741 2576 1505 
Q 2447 1269 2184 1126 
Q 1922 984 1525 984 
z
M 1522 1341 
Q 1822 1341 2017 1512 
Q 2213 1684 2213 2022 
Q 2213 2375 2028 2545 
Q 1844 2716 1541 2716 
Q 1244 2716 1048 2541 
Q 853 2366 853 2025 
Q 853 1681 1054 1511 
Q 1256 1341 1522 1341 
z
M 2319 2734 
L 2106 2931 
Q 2241 3225 2458 3331 
Q 2675 3438 3019 3447 
L 3019 3006 
Q 2800 3006 2617 2961 
Q 2434 2916 2319 2734 
z
" transform="scale(0.015625)"/>
       <path id="Aptos-79" d="M 328 -1119 
L 328 -688 
L 584 -688 
Q 763 -688 886 -592 
Q 1009 -497 1097 -275 
L 1216 0 
L 0 3044 
L 553 3044 
L 1494 553 
L 2363 3044 
L 2894 3044 
L 1750 0 
L 1606 -369 
Q 1500 -641 1379 -806 
Q 1259 -972 1084 -1045 
Q 909 -1119 638 -1119 
L 328 -1119 
z
" transform="scale(0.015625)"/>
       <path id="Aptos-20" transform="scale(0.015625)"/>
       <path id="Aptos-6f" d="M 1750 -50 
Q 1303 -50 984 139 
Q 666 328 498 679 
Q 331 1031 331 1516 
Q 331 2013 498 2367 
Q 666 2722 984 2912 
Q 1303 3103 1750 3103 
Q 2206 3103 2529 2912 
Q 2853 2722 3026 2367 
Q 3200 2013 3200 1516 
Q 3200 1031 3026 679 
Q 2853 328 2529 139 
Q 2206 -50 1750 -50 
z
M 1750 366 
Q 2088 366 2288 514 
Q 2488 663 2575 923 
Q 2663 1184 2663 1516 
Q 2663 1853 2575 2118 
Q 2488 2384 2288 2536 
Q 2088 2688 1750 2688 
Q 1422 2688 1230 2536 
Q 1038 2384 953 2118 
Q 869 1853 869 1516 
Q 869 1184 953 923 
Q 1038 663 1230 514 
Q 1422 366 1750 366 
z
" transform="scale(0.015625)"/>
       <path id="Aptos-66" d="M 609 0 
L 609 2622 
L 100 2622 
L 100 3044 
L 609 3044 
L 609 3219 
Q 609 3450 648 3634 
Q 688 3819 786 3945 
Q 884 4072 1061 4139 
Q 1238 4206 1519 4206 
L 1834 4206 
L 1834 3797 
L 1553 3797 
Q 1275 3797 1201 3647 
Q 1128 3497 1128 3213 
L 1128 3044 
L 1838 3044 
L 1838 2622 
L 1128 2622 
L 1128 0 
L 609 0 
z
" transform="scale(0.015625)"/>
       <path id="Aptos-69" d="M 503 0 
L 503 3044 
L 1025 3044 
L 1025 0 
L 503 0 
z
M 763 3616 
Q 616 3616 527 3702 
Q 438 3788 438 3919 
Q 438 4050 527 4136 
Q 616 4222 763 4222 
Q 909 4222 1000 4136 
Q 1091 4050 1091 3919 
Q 1091 3788 1000 3702 
Q 909 3616 763 3616 
z
" transform="scale(0.015625)"/>
       <path id="Aptos-63" d="M 1741 -53 
Q 1328 -53 1009 120 
Q 691 294 511 642 
Q 331 991 331 1516 
Q 331 2041 507 2392 
Q 684 2744 1001 2920 
Q 1319 3097 1741 3097 
Q 2094 3097 2376 2981 
Q 2659 2866 2828 2633 
Q 2997 2400 3006 2044 
L 2491 2044 
Q 2472 2338 2278 2506 
Q 2084 2675 1750 2675 
Q 1306 2675 1087 2370 
Q 869 2066 869 1516 
Q 869 1150 966 895 
Q 1063 641 1259 505 
Q 1456 369 1750 369 
Q 2084 369 2293 542 
Q 2503 716 2513 1050 
L 3028 1050 
Q 3019 681 2848 436 
Q 2678 191 2389 69 
Q 2100 -53 1741 -53 
z
" transform="scale(0.015625)"/>
       <path id="Aptos-64" d="M 1544 -56 
Q 1172 -56 900 122 
Q 628 300 479 654 
Q 331 1009 331 1531 
Q 331 2050 489 2397 
Q 647 2744 934 2920 
Q 1222 3097 1613 3097 
Q 1938 3097 2178 2955 
Q 2419 2813 2566 2569 
L 2566 4206 
L 3088 4206 
L 3088 0 
L 2594 0 
L 2566 444 
Q 2403 222 2147 83 
Q 1891 -56 1544 -56 
z
M 1650 372 
Q 1984 372 2206 530 
Q 2428 688 2566 909 
L 2566 2081 
Q 2438 2338 2230 2505 
Q 2022 2672 1706 2672 
Q 1291 2672 1080 2375 
Q 869 2078 869 1531 
Q 869 966 1067 669 
Q 1266 372 1650 372 
z
" transform="scale(0.015625)"/>
       <path id="Aptos-74" d="M 1519 0 
Q 1150 0 953 117 
Q 756 234 682 454 
Q 609 675 609 984 
L 609 2622 
L 100 2622 
L 100 3044 
L 609 3044 
L 609 3741 
L 1128 3741 
L 1128 3044 
L 1878 3044 
L 1878 2622 
L 1128 2622 
L 1128 1009 
Q 1128 725 1201 573 
Q 1275 422 1553 422 
L 1884 422 
L 1884 0 
L 1519 0 
z
" transform="scale(0.015625)"/>
       <path id="Aptos-75" d="M 1469 -47 
Q 941 -47 706 247 
Q 472 541 472 1056 
L 472 3044 
L 997 3044 
L 997 1128 
Q 997 922 1044 759 
Q 1091 597 1222 506 
Q 1353 416 1600 416 
Q 1944 416 2175 558 
Q 2406 700 2547 888 
L 2547 3044 
L 3072 3044 
L 3072 0 
L 2569 0 
L 2553 469 
Q 2406 288 2139 120 
Q 1872 -47 1469 -47 
z
" transform="scale(0.015625)"/>
       <path id="Aptos-28" d="M 1216 -1116 
Q 963 -678 783 -267 
Q 603 144 508 581 
Q 413 1019 413 1528 
Q 413 2028 506 2486 
Q 600 2944 779 3378 
Q 959 3813 1216 4231 
L 1644 4231 
Q 1275 3600 1097 2886 
Q 919 2172 919 1428 
Q 919 766 1120 103 
Q 1322 -559 1644 -1116 
L 1216 -1116 
z
" transform="scale(0.015625)"/>
       <path id="Aptos-4d" d="M 550 0 
L 550 4206 
L 1166 4206 
L 2663 1728 
L 2434 1728 
L 3903 4206 
L 4503 4206 
L 4503 0 
L 3950 0 
L 3950 3738 
L 4144 3738 
L 2716 1322 
L 2347 1322 
L 897 3738 
L 1091 3738 
L 1091 0 
L 550 0 
z
" transform="scale(0.015625)"/>
       <path id="Aptos-56" d="M 1538 0 
L 25 4206 
L 622 4206 
L 1872 594 
L 3128 4206 
L 3722 4206 
L 2194 0 
L 1538 0 
z
" transform="scale(0.015625)"/>
       <path id="Aptos-29" d="M 231 -1116 
Q 603 -481 781 233 
Q 959 947 959 1694 
Q 959 2356 756 3015 
Q 553 3675 231 4231 
L 656 4231 
Q 913 3800 1094 3389 
Q 1275 2978 1370 2540 
Q 1466 2103 1466 1594 
Q 1466 1094 1370 634 
Q 1275 175 1095 -259 
Q 916 -694 656 -1116 
L 231 -1116 
z
" transform="scale(0.015625)"/>
      </defs>
      <use xlink:href="#Aptos-45"/>
      <use xlink:href="#Aptos-6e" transform="translate(55.615234 0)"/>
      <use xlink:href="#Aptos-65" transform="translate(110.742188 0)"/>
      <use xlink:href="#Aptos-72" transform="translate(163.427734 0)"/>
      <use xlink:href="#Aptos-67" transform="translate(196.875 0)"/>
      <use xlink:href="#Aptos-79" transform="translate(245.3125 0)"/>
      <use xlink:href="#Aptos-20" transform="translate(290.527344 0)"/>
      <use xlink:href="#Aptos-6f" transform="translate(310.839844 0)"/>
      <use xlink:href="#Aptos-66" transform="translate(366.015625 0)"/>
      <use xlink:href="#Aptos-20" transform="translate(396.142578 0)"/>
      <use xlink:href="#Aptos-69" transform="translate(416.455078 0)"/>
      <use xlink:href="#Aptos-6e" transform="translate(440.332031 0)"/>
      <use xlink:href="#Aptos-63" transform="translate(495.458984 0)"/>
      <use xlink:href="#Aptos-69" transform="translate(547.949219 0)"/>
      <use xlink:href="#Aptos-64" transform="translate(571.826172 0)"/>
      <use xlink:href="#Aptos-65" transform="translate(627.880859 0)"/>
      <use xlink:href="#Aptos-6e" transform="translate(680.566406 0)"/>
      <use xlink:href="#Aptos-74" transform="translate(735.693359 0)"/>
      <use xlink:href="#Aptos-20" transform="translate(768.017578 0)"/>
      <use xlink:href="#Aptos-6e" transform="translate(788.330078 0)"/>
      <use xlink:href="#Aptos-65" transform="translate(843.457031 0)"/>
      <use xlink:href="#Aptos-75" transform="translate(896.142578 0)"/>
      <use xlink:href="#Aptos-74" transform="translate(952.001953 0)"/>
      <use xlink:href="#Aptos-72" transform="translate(984.326172 0)"/>
      <use xlink:href="#Aptos-6f" transform="translate(1017.773438 0)"/>
      <use xlink:href="#Aptos-6e" transform="translate(1072.949219 0)"/>
      <use xlink:href="#Aptos-20" transform="translate(1128.076172 0)"/>
      <use xlink:href="#Aptos-28" transform="translate(1148.388672 0)"/>
      <use xlink:href="#Aptos-4d" transform="translate(1177.685547 0)"/>
      <use xlink:href="#Aptos-65" transform="translate(1256.689453 0)"/>
      <use xlink:href="#Aptos-56" transform="translate(1309.375 0)"/>
      <use xlink:href="#Aptos-29" transform="translate(1367.919922 0)"/>
     </g>
    </g>
   </g>
   <g id="matplotlib.axis_2">
    <g id="ytick_1">
     <g id="line2d_15">
      <path d="M 71.99 566.88 
L 844 566.88 
" clip-path="url(#p80d36fff26)" style="fill: none; stroke-dasharray: 3.7,1.6; stroke-dashoffset: 0; stroke: #343837; stroke-opacity: 0.8"/>
     </g>
     <g id="line2d_16">
      <defs>
       <path id="m7470a5ef16" d="M 0 0 
L -3.5 0 
" style="stroke: #000000; stroke-width: 0.8"/>
      </defs>
      <g>
       <use xlink:href="#m7470a5ef16" x="71.99" y="566.88" style="stroke: #000000; stroke-width: 0.8"/>
      </g>
     </g>
     <g id="text_9">
      <!-- 0 -->
      <g transform="translate(53.237188 574.109063) scale(0.22 -0.22)">
       <use xlink:href="#Aptos-30"/>
      </g>
     </g>
    </g>
    <g id="ytick_2">
     <g id="line2d_17">
      <path d="M 71.99 499.910789 
L 844 499.910789 
" clip-path="url(#p80d36fff26)" style="fill: none; stroke-dasharray: 3.7,1.6; stroke-dashoffset: 0; stroke: #343837; stroke-opacity: 0.8"/>
     </g>
     <g id="line2d_18">
      <g>
       <use xlink:href="#m7470a5ef16" x="71.99" y="499.910789" style="stroke: #000000; stroke-width: 0.8"/>
      </g>
     </g>
     <g id="text_10">
      <!-- 1 -->
      <g transform="translate(53.237188 507.139852) scale(0.22 -0.22)">
       <use xlink:href="#Aptos-31"/>
      </g>
     </g>
    </g>
    <g id="ytick_3">
     <g id="line2d_19">
      <path d="M 71.99 432.941579 
L 844 432.941579 
" clip-path="url(#p80d36fff26)" style="fill: none; stroke-dasharray: 3.7,1.6; stroke-dashoffset: 0; stroke: #343837; stroke-opacity: 0.8"/>
     </g>
     <g id="line2d_20">
      <g>
       <use xlink:href="#m7470a5ef16" x="71.99" y="432.941579" style="stroke: #000000; stroke-width: 0.8"/>
      </g>
     </g>
     <g id="text_11">
      <!-- 2 -->
      <g transform="translate(53.237188 440.170641) scale(0.22 -0.22)">
       <defs>
        <path id="Aptos-32" d="M 291 0 
L 291 413 
L 1738 1734 
Q 2113 2075 2281 2353 
Q 2450 2631 2450 2938 
Q 2450 3256 2279 3461 
Q 2109 3666 1722 3666 
Q 1284 3666 1095 3439 
Q 906 3213 906 2869 
L 384 2869 
Q 384 3250 532 3534 
Q 681 3819 979 3975 
Q 1278 4131 1722 4131 
Q 2128 4131 2412 3986 
Q 2697 3841 2845 3578 
Q 2994 3316 2994 2959 
Q 2994 2641 2870 2378 
Q 2747 2116 2537 1884 
Q 2328 1653 2075 1425 
L 1003 463 
L 3113 463 
L 3113 0 
L 291 0 
z
" transform="scale(0.015625)"/>
       </defs>
       <use xlink:href="#Aptos-32"/>
      </g>
     </g>
    </g>
    <g id="ytick_4">
     <g id="line2d_21">
      <path d="M 71.99 365.972368 
L 844 365.972368 
" clip-path="url(#p80d36fff26)" style="fill: none; stroke-dasharray: 3.7,1.6; stroke-dashoffset: 0; stroke: #343837; stroke-opacity: 0.8"/>
     </g>
     <g id="line2d_22">
      <g>
       <use xlink:href="#m7470a5ef16" x="71.99" y="365.972368" style="stroke: #000000; stroke-width: 0.8"/>
      </g>
     </g>
     <g id="text_12">
      <!-- 3 -->
      <g transform="translate(53.237188 373.201431) scale(0.22 -0.22)">
       <use xlink:href="#Aptos-33"/>
      </g>
     </g>
    </g>
    <g id="ytick_5">
     <g id="line2d_23">
      <path d="M 71.99 299.003158 
L 844 299.003158 
" clip-path="url(#p80d36fff26)" style="fill: none; stroke-dasharray: 3.7,1.6; stroke-dashoffset: 0; stroke: #343837; stroke-opacity: 0.8"/>
     </g>
     <g id="line2d_24">
      <g>
       <use xlink:href="#m7470a5ef16" x="71.99" y="299.003158" style="stroke: #000000; stroke-width: 0.8"/>
      </g>
     </g>
     <g id="text_13">
      <!-- 4 -->
      <g transform="translate(53.237188 306.23222) scale(0.22 -0.22)">
       <defs>
        <path id="Aptos-34" d="M 2144 0 
L 2144 825 
L 175 825 
L 175 1297 
L 2134 4103 
L 2666 4103 
L 2666 1284 
L 3225 1284 
L 3225 825 
L 2666 825 
L 2666 0 
L 2144 0 
z
M 684 1284 
L 2150 1284 
L 2150 3391 
L 684 1284 
z
" transform="scale(0.015625)"/>
       </defs>
       <use xlink:href="#Aptos-34"/>
      </g>
     </g>
    </g>
    <g id="ytick_6">
     <g id="line2d_25">
      <path d="M 71.99 232.033947 
L 844 232.033947 
" clip-path="url(#p80d36fff26)" style="fill: none; stroke-dasharray: 3.7,1.6; stroke-dashoffset: 0; stroke: #343837; stroke-opacity: 0.8"/>
     </g>
     <g id="line2d_26">
      <g>
       <use xlink:href="#m7470a5ef16" x="71.99" y="232.033947" style="stroke: #000000; stroke-width: 0.8"/>
      </g>
     </g>
     <g id="text_14">
      <!-- 5 -->
      <g transform="translate(53.237188 239.26301) scale(0.22 -0.22)">
       <use xlink:href="#Aptos-35"/>
      </g>
     </g>
    </g>
    <g id="ytick_7">
     <g id="line2d_27">
      <path d="M 71.99 165.064737 
L 844 165.064737 
" clip-path="url(#p80d36fff26)" style="fill: none; stroke-dasharray: 3.7,1.6; stroke-dashoffset: 0; stroke: #343837; stroke-opacity: 0.8"/>
     </g>
     <g id="line2d_28">
      <g>
       <use xlink:href="#m7470a5ef16" x="71.99" y="165.064737" style="stroke: #000000; stroke-width: 0.8"/>
      </g>
     </g>
     <g id="text_15">
      <!-- 6 -->
      <g transform="translate(53.237188 172.293799) scale(0.22 -0.22)">
       <defs>
        <path id="Aptos-36" d="M 1806 -56 
Q 1372 -56 1031 151 
Q 691 359 495 815 
Q 300 1272 300 2013 
Q 300 2738 487 3206 
Q 675 3675 1015 3903 
Q 1356 4131 1806 4131 
Q 2303 4131 2645 3875 
Q 2988 3619 3081 3097 
L 2556 3097 
Q 2491 3388 2300 3534 
Q 2109 3681 1806 3681 
Q 1356 3681 1095 3279 
Q 834 2878 834 2013 
L 834 1850 
Q 834 1313 970 992 
Q 1106 672 1328 531 
Q 1550 391 1809 391 
Q 2219 391 2416 644 
Q 2613 897 2613 1272 
Q 2613 1650 2419 1869 
Q 2225 2088 1875 2088 
Q 1469 2088 1162 1897 
Q 856 1706 700 1456 
L 641 1856 
Q 775 2047 967 2201 
Q 1159 2356 1404 2447 
Q 1650 2538 1947 2538 
Q 2294 2538 2566 2395 
Q 2838 2253 2997 1975 
Q 3156 1697 3156 1291 
Q 3156 897 2998 592 
Q 2841 288 2539 116 
Q 2238 -56 1806 -56 
z
" transform="scale(0.015625)"/>
       </defs>
       <use xlink:href="#Aptos-36"/>
      </g>
     </g>
    </g>
    <g id="ytick_8">
     <g id="line2d_29">
      <path d="M 71.99 98.095526 
L 844 98.095526 
" clip-path="url(#p80d36fff26)" style="fill: none; stroke-dasharray: 3.7,1.6; stroke-dashoffset: 0; stroke: #343837; stroke-opacity: 0.8"/>
     </g>
     <g id="line2d_30">
      <g>
       <use xlink:href="#m7470a5ef16" x="71.99" y="98.095526" style="stroke: #000000; stroke-width: 0.8"/>
      </g>
     </g>
     <g id="text_16">
      <!-- 7 -->
      <g transform="translate(53.237188 105.324589) scale(0.22 -0.22)">
       <use xlink:href="#Aptos-37"/>
      </g>
     </g>
    </g>
    <g id="text_17">
     <!-- Neutron reproduction factor $\eta$ -->
     <g transform="translate(39.777187 480.747) rotate(-90) scale(0.26 -0.26)">
      <defs>
       <path id="Aptos-4e" d="M 550 0 
L 550 4206 
L 1125 4206 
L 3431 859 
L 3431 4206 
L 3966 4206 
L 3966 0 
L 3391 0 
L 1081 3353 
L 1081 0 
L 550 0 
z
" transform="scale(0.015625)"/>
       <path id="Aptos-70" d="M 503 -1119 
L 503 3044 
L 1009 3044 
L 1025 2547 
Q 1188 2791 1445 2944 
Q 1703 3097 2044 3097 
Q 2419 3097 2691 2920 
Q 2963 2744 3111 2394 
Q 3259 2044 3259 1522 
Q 3259 1006 3101 654 
Q 2944 303 2656 123 
Q 2369 -56 1981 -56 
Q 1656 -56 1412 73 
Q 1169 203 1022 428 
L 1022 -1119 
L 503 -1119 
z
M 1884 372 
Q 2300 372 2511 670 
Q 2722 969 2722 1522 
Q 2722 2081 2525 2378 
Q 2328 2675 1947 2675 
Q 1613 2675 1383 2497 
Q 1153 2319 1025 2081 
L 1025 906 
Q 1150 669 1362 520 
Q 1575 372 1884 372 
z
" transform="scale(0.015625)"/>
       <path id="Aptos-61" d="M 1288 -56 
Q 1025 -56 808 44 
Q 591 144 461 339 
Q 331 534 331 822 
Q 331 1231 587 1443 
Q 844 1656 1312 1732 
Q 1781 1809 2409 1816 
L 2409 2028 
Q 2409 2419 2215 2564 
Q 2022 2709 1725 2709 
Q 1409 2709 1193 2550 
Q 978 2391 978 2047 
L 472 2047 
Q 472 2422 633 2653 
Q 794 2884 1076 2990 
Q 1359 3097 1725 3097 
Q 1959 3097 2173 3053 
Q 2388 3009 2558 2893 
Q 2728 2778 2828 2570 
Q 2928 2363 2928 2034 
L 2928 0 
L 2441 0 
L 2419 463 
Q 2209 228 1932 86 
Q 1656 -56 1288 -56 
z
M 1425 344 
Q 1738 344 1988 491 
Q 2238 638 2406 863 
L 2406 1481 
Q 1575 1472 1214 1325 
Q 853 1178 853 844 
Q 853 616 998 480 
Q 1144 344 1425 344 
z
" transform="scale(0.015625)"/>
       <path id="DejaVuSerif-Italic-3b7" d="M 1153 0 
L 578 0 
L 1159 2988 
L 609 2988 
L 675 3322 
L 1800 3322 
L 1684 2731 
Q 1909 3069 2198 3241 
Q 2488 3413 2825 3413 
Q 3366 3413 3572 3097 
Q 3772 2791 3641 2113 
L 2969 -1331 
L 2391 -1331 
L 3025 1931 
Q 3144 2541 3037 2767 
Q 2931 2994 2553 2994 
Q 2153 2994 1887 2701 
Q 1622 2409 1513 1850 
L 1153 0 
z
" transform="scale(0.015625)"/>
      </defs>
      <use xlink:href="#Aptos-4e" transform="translate(0 0.03125)"/>
      <use xlink:href="#Aptos-65" transform="translate(70.605469 0.03125)"/>
      <use xlink:href="#Aptos-75" transform="translate(123.291016 0.03125)"/>
      <use xlink:href="#Aptos-74" transform="translate(179.150391 0.03125)"/>
      <use xlink:href="#Aptos-72" transform="translate(211.474609 0.03125)"/>
      <use xlink:href="#Aptos-6f" transform="translate(244.921875 0.03125)"/>
      <use xlink:href="#Aptos-6e" transform="translate(300.097656 0.03125)"/>
      <use xlink:href="#Aptos-20" transform="translate(355.224609 0.03125)"/>
      <use xlink:href="#Aptos-72" transform="translate(375.537109 0.03125)"/>
      <use xlink:href="#Aptos-65" transform="translate(408.984375 0.03125)"/>
      <use xlink:href="#Aptos-70" transform="translate(461.669922 0.03125)"/>
      <use xlink:href="#Aptos-72" transform="translate(517.773438 0.03125)"/>
      <use xlink:href="#Aptos-6f" transform="translate(551.220703 0.03125)"/>
      <use xlink:href="#Aptos-64" transform="translate(606.396484 0.03125)"/>
      <use xlink:href="#Aptos-75" transform="translate(662.451172 0.03125)"/>
      <use xlink:href="#Aptos-63" transform="translate(718.310547 0.03125)"/>
      <use xlink:href="#Aptos-74" transform="translate(770.800781 0.03125)"/>
      <use xlink:href="#Aptos-69" transform="translate(803.125 0.03125)"/>
      <use xlink:href="#Aptos-6f" transform="translate(827.001953 0.03125)"/>
      <use xlink:href="#Aptos-6e" transform="translate(882.177734 0.03125)"/>
      <use xlink:href="#Aptos-20" transform="translate(937.304688 0.03125)"/>
      <use xlink:href="#Aptos-66" transform="translate(957.617188 0.03125)"/>
      <use xlink:href="#Aptos-61" transform="translate(987.744141 0.03125)"/>
      <use xlink:href="#Aptos-63" transform="translate(1040.869141 0.03125)"/>
      <use xlink:href="#Aptos-74" transform="translate(1093.359375 0.03125)"/>
      <use xlink:href="#Aptos-6f" transform="translate(1125.683594 0.03125)"/>
      <use xlink:href="#Aptos-72" transform="translate(1180.859375 0.03125)"/>
      <use xlink:href="#Aptos-20" transform="translate(1214.306641 0.03125)"/>
      <use xlink:href="#DejaVuSerif-Italic-3b7" transform="translate(1234.619141 0.03125)"/>
     </g>
    </g>
   </g>
   <g id="line2d_31">
    <path d="M 71.990027 428.924275 
L 167.947457 428.7986 
L 196.920519 428.547854 
L 215.396317 428.175875 
L 229.287721 427.678386 
L 240.337877 427.065823 
L 250.67388 426.246055 
L 260.057682 425.220769 
L 267.068656 424.242428 
L 274.632522 422.954732 
L 281.589742 421.548987 
L 289.46077 419.728412 
L 308.458744 415.233377 
L 312.497926 414.601886 
L 315.830634 414.299594 
L 318.733316 414.254613 
L 321.743504 414.481182 
L 324.162405 414.908946 
L 326.366293 415.523229 
L 328.501069 416.352409 
L 330.543697 417.387928 
L 332.547929 418.65822 
L 334.521446 420.175237 
L 336.541036 422.014636 
L 338.668134 424.267835 
L 341.110072 427.209509 
L 344.189372 431.306421 
L 350.509231 439.818123 
L 351.998967 441.311872 
L 353.127788 442.144104 
L 354.133744 442.619223 
L 355.039872 442.802405 
L 355.892247 442.744177 
L 356.721584 442.460876 
L 357.589317 441.917581 
L 358.518482 441.056021 
L 359.524438 439.804389 
L 360.653259 438.030611 
L 361.974056 435.517643 
L 363.586656 431.942028 
L 365.867335 426.290678 
L 371.050695 413.316321 
L 373.269941 408.447056 
L 375.289531 404.538469 
L 377.216973 401.284729 
L 379.098341 398.539889 
L 380.96435 396.202437 
L 382.822681 394.226206 
L 384.634937 392.613388 
L 386.431835 391.317707 
L 387.913892 390.520565 
L 389.14254 390.098263 
L 390.056348 390.008861 
L 390.755141 390.136477 
L 391.384824 390.46416 
L 391.968431 391.034116 
L 392.536681 391.919668 
L 393.127968 393.284843 
L 393.811404 395.49127 
L 395.278103 400.424926 
L 395.62366 400.809015 
L 395.877069 400.784203 
L 396.115119 400.543847 
L 396.445319 399.912976 
L 397.067322 398.22425 
L 398.464909 394.365971 
L 399.332642 392.622693 
L 400.200375 391.357408 
L 401.221689 390.307142 
L 402.289077 389.561057 
L 403.525404 389.000052 
L 404.761732 388.70417 
L 406.036454 388.618393 
L 407.318856 388.752151 
L 408.509109 389.103741 
L 409.568818 389.646174 
L 410.544057 390.396046 
L 411.404111 391.337005 
L 412.22577 392.579427 
L 412.970638 394.124727 
L 413.677111 396.125553 
L 414.337509 398.696986 
L 414.959512 402.058941 
L 415.54312 406.498419 
L 416.103691 412.601575 
L 416.633545 420.992288 
L 417.155721 433.134514 
L 417.723971 452.141961 
L 418.261504 468.450336 
L 418.476518 470.005603 
L 418.553308 469.925084 
L 418.676173 469.131878 
L 418.852791 466.162495 
L 419.075484 457.418917 
L 420.027686 411.657006 
L 420.050723 411.625959 
L 420.096798 411.747442 
L 420.204304 412.954844 
L 420.419318 418.541346 
L 420.741838 433.644234 
L 421.279372 462.050849 
L 421.317767 461.789212 
L 421.425274 458.72489 
L 421.694041 442.501229 
L 422.269969 410.918454 
L 422.715354 398.045204 
L 423.183777 390.439564 
L 423.682915 385.710921 
L 424.212769 382.66449 
L 424.757982 380.683372 
L 425.356948 379.271796 
L 426.001989 378.284869 
L 426.670066 377.626348 
L 427.376539 377.215332 
L 428.036937 377.075743 
L 428.574471 377.183384 
L 428.981461 377.481093 
L 429.334697 378.000281 
L 429.680254 378.939235 
L 430.002774 380.531031 
L 430.302257 383.244403 
L 430.586382 388.057759 
L 430.870507 397.109793 
L 431.461794 417.440636 
L 431.507869 417.522638 
L 431.553943 417.369282 
L 431.66145 416.071347 
L 431.853426 410.526998 
L 432.506145 389.899278 
L 432.890098 385.087259 
L 433.297088 382.539648 
L 433.704077 381.267624 
L 434.064993 380.766571 
L 434.356797 380.687098 
L 434.602526 380.829758 
L 434.902009 381.292978 
L 435.232209 382.266741 
L 435.562408 383.973578 
L 435.892607 386.929194 
L 436.207448 391.942809 
L 436.506931 400.711579 
L 436.814093 417.337276 
L 437.190367 435.429149 
L 437.313232 436.457096 
L 437.351627 436.332457 
L 437.443776 435.000095 
L 437.589677 428.918217 
L 438.357583 388.68379 
L 438.718498 383.104399 
L 439.079414 380.514128 
L 439.394255 379.572086 
L 439.555515 379.520742 
L 439.563194 379.527692 
L 439.686059 379.809514 
L 439.824282 380.801751 
L 439.954825 383.613764 
L 440.093048 392.385587 
L 440.384852 428.375234 
L 440.469322 420.810424 
L 440.799521 381.904619 
L 441.014535 379.331558 
L 441.244906 378.75947 
L 441.444561 378.720275 
L 441.721007 378.973344 
L 442.081923 379.610533 
L 442.604098 381.00483 
L 443.218422 383.319277 
L 443.940253 386.974416 
L 444.93853 393.355634 
L 446.228611 401.430718 
L 446.689354 403.07611 
L 446.935083 403.341308 
L 447.080985 403.229333 
L 447.295999 402.695954 
L 447.641556 401.826752 
L 447.656914 401.842171 
L 447.779779 402.260958 
L 447.918002 403.628888 
L 448.079262 407.511903 
L 448.278917 418.739559 
L 449.115934 476.17528 
L 449.215762 476.311043 
L 449.261836 476.210413 
L 449.361664 475.216465 
L 449.499887 470.571063 
L 450.421373 431.57298 
L 450.76693 426.990025 
L 451.196957 424.295491 
L 451.834318 419.732308 
L 452.080048 415.681702 
L 452.878669 396.763183 
L 453.308696 389.783462 
L 453.554426 388.41682 
L 453.631216 388.413599 
L 453.654254 388.447966 
L 453.800156 388.994074 
L 454.130355 391.614373 
L 454.314652 392.429309 
L 454.345368 392.403158 
L 454.437517 392.071088 
L 454.744679 390.541915 
L 454.806111 390.604914 
L 454.921297 391.148972 
L 455.097915 393.444868 
L 455.297571 399.661742 
L 455.558658 416.047328 
L 455.927253 456.188801 
L 456.334243 492.764215 
L 456.441749 494.597977 
L 456.487824 494.344295 
L 456.902492 488.855887 
L 457.056074 481.237263 
L 457.240371 472.212277 
L 457.286445 472.748431 
L 457.57057 481.893123 
L 457.662719 479.967897 
L 458.277043 462.363584 
L 459.282999 441.704959 
L 459.697667 436.608566 
L 459.858927 436.035645 
L 459.889644 436.070332 
L 459.989471 436.560009 
L 460.143052 438.803188 
L 460.358066 445.965714 
L 460.588437 452.102187 
L 460.603795 452.065477 
L 460.611474 452.076475 
L 460.634512 451.955544 
L 460.749697 450.779434 
L 460.880241 446.639894 
L 461.555998 413.820995 
L 461.609751 413.731486 
L 461.648146 413.915528 
L 461.732616 415.325704 
L 461.855481 421.819411 
L 461.962988 442.002488 
L 462.162643 504.153399 
L 462.231754 499.891312 
L 462.34694 471.947221 
L 462.638744 398.968477 
L 462.861437 394.979739 
L 463.16092 393.42995 
L 463.475761 391.602855 
L 463.990257 387.811877 
L 464.074727 388.032057 
L 464.205271 389.513411 
L 464.366531 394.485474 
L 464.520112 407.793295 
L 464.834953 435.003622 
L 464.950139 438.884688 
L 464.996213 437.512494 
L 465.111399 421.163644 
L 465.357128 397.584661 
L 465.541426 395.267993 
L 466.025206 393.809558 
L 466.293973 393.248446 
L 466.409158 393.326079 
L 466.56274 393.802256 
L 466.777753 395.343359 
L 467.031162 399.015802 
L 467.44583 408.744653 
L 467.69156 423.317691 
L 467.998722 445.11609 
L 468.052476 443.209926 
L 468.198378 425.028805 
L 468.474823 400.953645 
L 468.812702 391.133084 
L 469.22737 384.4396 
L 469.572928 381.989003 
L 469.757225 381.614179 
L 469.764904 381.618203 
L 469.834016 381.814162 
L 469.933843 383.006604 
L 470.033671 387.495116 
L 470.302438 412.176626 
L 470.386907 406.742621 
L 470.640316 389.266415 
L 470.801576 388.020138 
L 470.816934 388.032508 
L 470.901404 388.332057 
L 471.108738 390.291304 
L 471.362147 392.06998 
L 471.369826 392.068943 
L 471.431258 391.931278 
L 471.584839 390.961545 
L 471.82289 387.641824 
L 472.30667 381.416397 
L 472.698302 378.968737 
L 472.944031 378.430657 
L 473.028501 378.535502 
L 473.128329 379.082937 
L 473.235835 381.091219 
L 473.351021 388.829773 
L 473.542997 407.182127 
L 473.596751 403.922404 
L 473.688899 398.84405 
L 473.750332 399.754814 
L 473.804085 400.410466 
L 473.85016 399.893501 
L 473.942308 394.056032 
L 474.203396 379.257067 
L 474.341619 378.301586 
L 474.372335 378.344313 
L 474.449126 378.975119 
L 474.533595 382.134076 
L 474.610386 396.687706 
L 474.763967 441.587304 
L 474.81772 433.430271 
L 475.086487 382.964103 
L 475.117203 383.024177 
L 475.124882 383.063323 
L 475.232389 384.364101 
L 475.409007 389.464385 
L 475.524193 399.846195 
L 475.777602 436.517619 
L 475.823676 434.391978 
L 476.023331 416.673623 
L 476.069405 419.413803 
L 476.153875 453.245395 
L 476.246024 482.357375 
L 476.292098 472.167911 
L 476.591581 385.406967 
L 476.706767 384.132267 
L 476.752841 384.365732 
L 476.829632 386.665891 
L 476.914101 398.545919 
L 477.067682 431.093721 
L 477.129115 426.240342 
L 477.41324 387.428526 
L 477.451635 387.576858 
L 477.5745 389.291423 
L 477.781834 395.652291 
L 478.012206 408.857734 
L 478.181145 430.937842 
L 478.265614 428.920237 
L 478.365442 421.096851 
L 478.741715 382.542483 
L 478.933692 380.776705 
L 478.979766 380.786228 
L 479.010482 380.850792 
L 479.133347 381.51914 
L 479.363719 384.209922 
L 480.231452 398.734483 
L 480.315921 413.87104 
L 480.500218 502.628643 
L 480.615404 491.060786 
L 480.97632 424.728415 
L 482.243363 399.616963 
L 482.481414 395.336914 
L 482.67339 389.685312 
L 482.727143 390.412837 
L 482.819292 392.389772 
L 482.865366 391.363136 
L 483.149491 383.151079 
L 483.410579 382.150002 
L 483.710062 381.720116 
L 483.894359 381.762015 
L 484.032582 382.03581 
L 484.193842 383.000917 
L 484.424214 386.417367 
L 484.631548 387.818814 
L 484.639227 387.814419 
L 484.716018 387.557209 
L 485.153724 385.73677 
L 485.161403 385.739495 
L 485.230514 385.934821 
L 485.291947 386.92797 
L 485.353379 392.85854 
L 485.483923 444.87772 
L 485.545355 458.986587 
L 485.59143 445.277325 
L 485.783406 392.55789 
L 485.975382 389.969937 
L 486.013777 389.905987 
L 486.067531 389.996849 
L 486.159679 390.822895 
L 486.251828 394.153322 
L 486.31326 406.415042 
L 486.436125 470.955465 
L 486.512916 448.326936 
L 486.727929 388.099446 
L 486.80472 387.783345 
L 486.858473 387.890489 
L 486.96598 388.815402 
L 487.058128 392.020817 
L 487.119561 405.37192 
L 487.242426 463.015921 
L 487.311537 444.202579 
L 487.511193 390.687041 
L 487.526551 390.658804 
L 487.572625 390.834702 
L 487.664774 392.285473 
L 487.726206 396.713692 
L 487.802996 430.215121 
L 487.887466 464.227428 
L 487.93354 447.647493 
L 488.0948 396.825989 
L 488.117838 397.223658 
L 488.209986 401.966393 
L 488.256061 398.641172 
L 488.494111 380.613324 
L 488.632334 379.177058 
L 488.66305 379.233664 
L 488.74752 380.078592 
L 488.878064 384.216154 
L 489.008608 396.525194 
L 489.123793 411.347417 
L 489.185226 408.589439 
L 489.246658 406.589668 
L 489.300412 407.801794 
L 489.384881 409.662187 
L 489.438634 408.807563 
L 489.523104 405.578654 
L 489.576857 407.5696 
L 489.669006 414.215031 
L 489.722759 411.001311 
L 490.068317 381.395064 
L 490.298688 378.872317 
L 490.467627 378.467914 
L 490.482986 378.473669 
L 490.582813 378.665897 
L 490.736394 379.556502 
L 490.866938 381.658675 
L 490.93605 388.097256 
L 491.043556 415.084508 
L 491.104989 404.534658 
L 491.220174 387.461356 
L 491.266249 388.03403 
L 492.06487 403.102763 
L 492.110944 402.922553 
L 492.210772 402.321407 
L 492.249167 402.587816 
L 492.325958 405.187946 
L 492.418107 417.641169 
L 492.579367 454.246073 
L 492.648478 450.829223 
L 492.732948 427.191263 
L 492.786701 416.40069 
L 492.840454 427.938688 
L 493.009394 469.725415 
L 493.032431 468.797758 
L 493.086184 450.918132 
L 493.262802 408.97095 
L 493.477816 385.005085 
L 493.723545 380.650611 
L 493.84641 380.135644 
L 493.884805 380.201038 
L 493.969275 380.865146 
L 494.138214 384.558344 
L 494.284116 393.279966 
L 494.583599 430.83376 
L 494.775575 511.7144 
L 494.813971 502.754091 
L 495.067379 404.865753 
L 495.098096 404.611401 
L 495.14417 405.257788 
L 495.228639 410.54496 
L 495.451332 432.615925 
L 495.497406 430.708432 
L 495.643308 403.109075 
L 495.704741 416.267097 
L 495.842964 507.301263 
L 495.912075 491.463595 
L 496.180842 385.401318 
L 496.28067 384.629918 
L 496.326744 384.795137 
L 496.434251 386.161672 
L 496.587832 391.269932 
L 496.718375 403.69322 
L 496.918031 433.653627 
L 496.971784 431.302549 
L 497.417169 388.407952 
L 497.57075 382.542699 
L 497.601466 382.734213 
L 497.670578 385.299428 
L 497.747368 397.727089 
L 497.947024 438.037557 
L 497.970061 437.146026 
L 498.031493 416.027649 
L 498.162037 390.901316 
L 498.192753 391.921976 
L 498.292581 398.605655 
L 498.361693 396.224083 
L 498.38473 395.859035 
L 498.423125 397.07206 
L 498.507595 413.594946 
L 498.553669 418.888377 
L 498.607422 412.141019 
L 498.745645 389.645291 
L 498.791719 390.477801 
L 498.86851 396.8623 
L 498.95298 427.95948 
L 499.02977 446.234079 
L 499.083523 442.637106 
L 499.160314 417.281529 
L 499.306216 383.71495 
L 499.321574 383.91692 
L 499.406044 388.29961 
L 499.482834 392.56565 
L 499.528908 389.911778 
L 499.743922 379.18428 
L 499.75928 379.152703 
L 499.797675 379.31694 
L 499.889824 381.227761 
L 500.00501 388.987348 
L 500.112516 397.911369 
L 500.173949 396.246337 
L 500.273776 391.888219 
L 500.304493 394.166324 
L 500.358246 433.790322 
L 500.419678 478.052648 
L 500.473432 451.512286 
L 500.65005 384.32126 
L 500.757557 383.344361 
L 500.803631 383.530538 
L 500.880421 385.386342 
L 500.957212 394.6616 
L 501.026323 405.60954 
L 501.087756 399.360011 
L 501.29509 378.890881 
L 501.310448 378.915397 
L 501.37956 379.635065 
L 501.571536 385.316036 
L 501.61761 397.387327 
L 501.70208 449.417162 
L 501.763512 423.879462 
L 501.847982 387.11776 
L 501.909414 391.114105 
L 501.932452 391.832796 
L 501.978526 389.405035 
L 502.039958 386.697879 
L 502.101391 388.091748 
L 502.34712 401.761282 
L 502.485343 411.317214 
L 502.539097 406.352617 
L 502.769468 384.245139 
L 502.930728 379.396399 
L 502.984482 380.520573 
L 503.061272 389.101979 
L 503.191816 430.427547 
L 503.253248 416.808021 
L 503.429867 377.810928 
L 503.445225 377.782339 
L 503.475941 377.995559 
L 503.552731 380.56213 
L 503.614164 390.496588 
L 503.783103 469.501947 
L 503.852214 449.545312 
L 504.021154 413.797582 
L 504.527971 384.752267 
L 504.581724 384.41616 
L 504.627799 384.826408 
L 504.69691 388.346179 
L 504.773701 411.824692 
L 504.896566 444.427567 
L 504.927282 435.344153 
L 505.096221 383.167207 
L 505.111579 383.173564 
L 505.126937 383.240402 
L 505.257481 384.639072 
L 505.357309 388.009809 
L 505.411062 386.18593 
L 505.472494 384.279527 
L 505.526248 385.852569 
L 505.971633 418.354699 
L 506.048423 449.427991 
L 506.117535 440.277505 
L 506.363264 379.046697 
L 506.447734 387.478631 
L 506.539883 409.307549 
L 506.585957 397.679511 
L 506.72418 384.537086 
L 506.847045 378.83795 
L 506.893119 379.296946 
L 507.015984 383.949713 
L 507.154207 395.67779 
L 507.238676 406.314334 
L 507.29243 401.845723 
L 507.36922 393.278179 
L 507.415294 399.472064 
L 507.499764 419.392787 
L 507.538159 407.883752 
L 507.69174 386.456267 
L 507.860679 378.305523 
L 507.93747 379.952994 
L 508.129446 391.709505 
L 508.1832 394.406379 
L 508.244632 392.25426 
L 508.252311 392.22326 
L 508.25999 392.349523 
L 508.298385 396.864499 
L 508.444287 474.640629 
L 508.498041 430.768513 
L 508.605547 386.100804 
L 508.636264 386.643895 
L 508.759129 391.013667 
L 508.820561 389.241635 
L 508.889672 386.294422 
L 508.928068 389.289561 
L 508.9895 399.337964 
L 509.066291 394.740407 
L 509.143081 390.923687 
L 509.288983 382.94503 
L 509.327378 383.549228 
L 509.381132 390.115404 
L 509.503997 446.789992 
L 509.588466 424.828263 
L 509.749726 390.782053 
L 509.757405 390.776844 
L 509.765084 390.843365 
L 509.811159 393.543089 
L 509.857233 413.969422 
L 510.018493 539.510807 
L 510.056888 532.116614 
L 510.348692 381.940076 
L 510.356371 381.947424 
L 510.394767 383.298685 
L 510.44852 395.054719 
L 510.556027 455.247545 
L 510.625138 433.651944 
L 510.786398 377.188773 
L 510.840152 376.630499 
L 510.893905 377.04105 
L 510.970695 379.874387 
L 511.024449 390.53144 
L 511.131955 490.889952 
L 511.208746 443.279618 
L 511.354648 395.068257 
L 511.546624 381.168595 
L 511.569661 380.951057 
L 511.615736 381.666304 
L 511.700205 388.11959 
L 511.915219 434.70567 
L 511.968972 415.806451 
L 512.084158 397.251756 
L 512.122553 398.198145 
L 512.291492 408.874871 
L 512.406678 428.504628 
L 512.460431 422.626486 
L 512.683124 385.265416 
L 512.721519 386.395253 
L 512.967249 394.989423 
L 512.974928 394.874684 
L 513.028681 390.29872 
L 513.189941 383.512987 
L 513.274411 382.939602 
L 513.305127 383.312191 
L 513.343522 387.085267 
L 513.474066 439.331824 
L 513.512462 408.811996 
L 513.596931 379.877714 
L 513.643005 382.379553 
L 513.727475 401.427245 
L 513.742833 406.192202 
L 513.796586 388.929271 
L 513.919451 378.949354 
L 513.942488 379.053043 
L 514.057674 380.311597 
L 514.142144 388.077165 
L 514.188218 391.176137 
L 514.25733 389.581203 
L 514.364836 387.816899 
L 514.410911 388.52158 
L 514.49538 395.330412 
L 514.702715 430.759044 
L 514.756468 418.520669 
L 514.879333 390.740615 
L 514.933086 397.520326 
L 515.002198 434.262269 
L 515.06363 408.20196 
L 515.171137 390.735171 
L 515.201853 393.11112 
L 515.278643 434.440411 
L 515.340076 401.620678 
L 515.378471 391.277925 
L 515.455262 395.295158 
L 515.570447 399.458116 
L 515.624201 417.612415 
L 515.677954 399.286752 
L 515.816177 378.709432 
L 515.823856 378.728418 
L 515.877609 379.46932 
L 515.992795 382.185171 
L 516.054228 381.215509 
L 516.138697 380.196009 
L 516.184772 380.667031 
L 516.269241 386.714727 
L 516.453538 420.184835 
L 516.514971 459.430494 
L 516.568724 435.091503 
L 516.714626 398.896796 
L 516.737663 397.863897 
L 516.791417 400.871636 
L 516.837491 405.257639 
L 516.868207 397.925363 
L 516.983393 383.620319 
L 517.014109 384.065883 
L 517.098579 389.379126 
L 517.152332 428.135118 
L 517.198406 451.755988 
L 517.244481 417.572527 
L 517.32895 388.806666 
L 517.375025 390.396279 
L 517.582359 414.722732 
L 517.666828 407.265161 
L 517.674508 406.716974 
L 517.697545 410.331983 
L 517.743619 420.95361 
L 517.789693 409.035867 
L 517.927916 376.255762 
L 517.950953 376.428829 
L 517.997028 379.642738 
L 518.265795 417.551004 
L 518.273474 415.628298 
L 518.411696 381.4575 
L 518.450092 381.795602 
L 518.473129 381.550276 
L 518.565278 379.210781 
L 518.619031 380.275473 
L 518.757254 389.261392 
L 518.910835 415.276605 
L 518.972267 404.833824 
L 519.0337 389.440453 
L 519.102811 396.160757 
L 519.187281 414.086006 
L 519.248713 405.205597 
L 519.402294 393.520407 
L 519.409973 393.492684 
L 519.43301 393.806837 
L 519.479085 399.490007 
L 519.548196 420.41729 
L 519.609629 406.562304 
L 519.67874 385.64376 
L 519.732493 394.3981 
L 519.809284 419.318398 
L 519.863037 405.67938 
L 520.16252 374.354102 
L 520.208595 374.465024 
L 520.285385 375.595754 
L 520.400571 381.78269 
L 520.48504 390.398338 
L 520.546473 385.534543 
L 520.646301 380.178748 
L 520.692375 381.519679 
L 520.723091 382.248164 
L 520.784523 381.033462 
L 520.799882 380.953678 
L 520.830598 381.489533 
L 520.861314 389.82451 
L 520.922746 440.401054 
L 520.9765 395.138992 
L 520.991858 391.430556 
L 521.05329 398.29793 
L 521.084006 396.181796 
L 521.291341 375.019849 
L 521.337415 375.601297 
L 521.383489 382.061222 
L 521.429564 391.844763 
L 521.490996 381.561959 
L 521.506354 380.847231 
L 521.552429 383.728252 
L 521.775121 400.867502 
L 521.805837 400.345889 
L 521.905665 397.93963 
L 521.951739 399.180802 
L 522.051567 410.142273 
L 522.136037 405.28522 
L 522.197469 392.503332 
L 522.228185 403.439287 
L 522.304976 478.720899 
L 522.358729 427.760231 
L 522.489273 375.932492 
L 522.496952 375.923532 
L 522.51231 376.047911 
L 522.566063 378.586632 
L 522.612138 391.730922 
L 522.696607 446.716714 
L 522.742682 415.090464 
L 522.865546 378.03437 
L 522.880905 378.103619 
L 522.942337 379.982836 
L 522.988411 387.223865 
L 523.049844 438.008003 
L 523.118955 401.201094 
L 523.280215 378.806817 
L 523.426117 374.055165 
L 523.464513 374.147475 
L 523.525945 375.097714 
L 523.595056 381.967388 
L 523.771675 391.718549 
L 523.779354 391.912588 
L 523.802391 390.761793 
L 523.902218 379.959625 
L 523.948293 383.523048 
L 524.009725 421.276448 
L 524.071158 390.624353 
L 524.209381 375.270086 
L 524.232418 375.21066 
L 524.278492 375.440172 
L 524.347603 377.01153 
L 524.385999 392.263713 
L 524.432073 430.431846 
L 524.485826 389.632044 
L 524.608691 380.282731 
L 524.624049 380.336671 
L 524.662445 382.679556 
L 524.723877 410.196849 
L 524.839063 518.914708 
L 524.885137 480.797763 
L 524.93889 394.90906 
L 525.000323 458.604508 
L 525.031039 473.156128 
L 525.077113 425.887917 
L 525.215336 378.120484 
L 525.246052 377.675996 
L 525.284448 379.152987 
L 525.338201 392.641881 
L 525.445708 502.138681 
L 525.50714 449.140454 
L 525.522498 432.708141 
L 525.59161 461.734064 
L 525.606968 460.454673 
L 525.660721 414.456758 
L 525.814302 382.852596 
L 525.821981 382.569271 
L 525.845019 385.789171 
L 525.91413 453.63426 
L 525.983241 400.607216 
L 526.136822 376.287652 
L 526.152181 376.392556 
L 526.221292 378.680914 
L 526.32112 383.209459 
L 526.367194 381.015887 
L 526.474701 376.060582 
L 526.513096 376.810899 
L 526.566849 386.19882 
L 526.612924 394.027431 
L 526.666677 384.591902 
L 526.789542 381.835815 
L 526.843295 378.365881 
L 526.881691 382.030051 
L 526.920086 389.589308 
L 526.989197 381.641606 
L 527.012234 383.516838 
L 527.058309 413.817768 
L 527.21189 476.022355 
L 527.234927 485.542112 
L 527.281001 458.274418 
L 527.434582 376.766469 
L 527.511373 375.834655 
L 527.557447 376.330662 
L 527.787819 384.990061 
L 527.933721 383.709213 
L 527.979795 382.407607 
L 527.995153 382.146995 
L 528.025869 383.493616 
L 528.133376 406.455022 
L 528.225525 396.055557 
L 528.371427 383.050904 
L 528.494291 379.638012 
L 528.548045 380.43178 
L 528.647872 387.80187 
L 528.755379 384.403701 
L 528.83217 377.315394 
L 528.893602 381.043594 
L 528.962714 402.934097 
L 529.031825 389.456478 
L 529.07022 382.303124 
L 529.162369 383.093263 
L 529.223801 378.685395 
L 529.254517 383.437047 
L 529.292913 399.232178 
L 529.346666 378.420635 
L 529.377382 375.897154 
L 529.446494 379.064054 
L 529.630791 384.171906 
L 529.676865 391.707516 
L 529.699902 396.211588 
L 529.761335 385.228031 
L 529.822767 377.110879 
L 529.8842 382.229083 
L 529.907237 383.713235 
L 529.953311 379.650165 
L 529.991706 377.567599 
L 530.060818 379.327916 
L 530.099213 380.383703 
L 530.152967 378.573493 
L 530.199041 377.671239 
L 530.245115 378.888994 
L 530.314227 385.804518 
L 530.383338 381.494595 
L 530.391017 381.516481 
L 530.437091 386.04225 
L 530.483166 380.789075 
L 530.567635 375.397666 
L 530.621389 376.013302 
L 530.759612 382.377119 
L 530.798007 416.878306 
L 530.828723 435.184804 
L 530.882476 398.595357 
L 530.913193 386.467162 
L 530.974625 411.459985 
L 531.09749 436.70955 
L 531.051416 406.806514 
L 531.120527 423.234245 
L 531.243392 376.243817 
L 531.266429 376.529342 
L 531.33554 381.347682 
L 531.389294 377.331709 
L 531.427689 376.226521 
L 531.481442 377.843549 
L 531.58127 392.473515 
L 531.619665 400.820352 
L 531.688777 391.62312 
L 531.74253 384.581661 
L 531.796284 389.080769 
L 531.857716 433.270193 
L 531.919148 396.266843 
L 531.942186 392.105529 
L 532.003618 404.160775 
L 532.011297 404.934682 
L 532.034334 396.991906 
L 532.088088 384.566257 
L 532.14952 389.589263 
L 532.164878 409.853648 
L 532.372212 409.778455 
L 533.44728 409.282632 
L 534.307333 409.233967 
L 540.212524 408.829482 
L 541.103294 409.53836 
L 545.534107 413.001731 
L 547.04688 414.087211 
L 548.383035 414.491431 
L 553.735334 416.071186 
L 555.985296 416.061503 
L 560.362356 415.937176 
L 566.144682 411.750075 
L 567.112242 411.198549 
L 567.818715 411.197187 
L 584.013835 410.469313 
L 617.241092 409.271484 
L 620.397182 409.124732 
L 626.033606 405.645826 
L 627.78443 406.20478 
L 631.685388 407.26382 
L 637.168231 408.058079 
L 644.655306 406.077365 
L 651.205537 404.864896 
L 655.897438 404.894129 
L 657.133765 405.336379 
L 659.084244 405.988684 
L 661.595294 406.640592 
L 663.108067 406.893646 
L 663.730071 406.469853 
L 664.805138 405.408341 
L 665.811094 404.535606 
L 666.379343 404.316517 
L 666.978309 404.33476 
L 668.990221 404.600296 
L 670.057609 404.045504 
L 671.570382 403.284589 
L 672.084879 403.276641 
L 672.8835 403.526211 
L 673.61301 403.669786 
L 674.273409 403.511254 
L 678.742617 402.367205 
L 679.725535 402.610308 
L 681.353494 402.99452 
L 681.837274 402.804502 
L 683.419159 401.948438 
L 684.832105 401.283051 
L 690.506924 399.303907 
L 692.380612 398.759769 
L 695.406159 397.86024 
L 698.285803 397.200547 
L 702.532319 395.512504 
L 704.805318 394.409274 
L 708.130347 392.987563 
L 709.934925 392.352407 
L 710.986955 391.985093 
L 712.284714 391.488338 
L 715.302582 389.953771 
L 722.735904 386.112973 
L 725.047298 385.228596 
L 728.241784 383.992938 
L 732.112026 381.73811 
L 734.200728 380.456053 
L 737.372176 378.73906 
L 741.518864 376.551351 
L 749.697054 371.38646 
L 756.301039 366.139534 
L 760.34022 362.480822 
L 763.665249 359.703071 
L 767.474059 356.316562 
L 772.557591 351.519134 
L 774.538786 349.348135 
L 776.765711 346.555614 
L 781.641909 339.994761 
L 784.606023 335.60075 
L 787.616211 330.742547 
L 790.419065 325.784095 
L 793.168166 320.464078 
L 795.763685 314.965179 
L 798.343847 308.968548 
L 800.839538 302.611351 
L 803.243082 295.85987 
L 805.708057 288.275568 
L 808.119279 280.128443 
L 810.530502 271.177457 
L 812.949403 261.342701 
L 815.352946 250.639227 
L 817.764168 238.87962 
L 820.213786 225.79566 
L 822.640366 211.606934 
L 825.066947 196.067666 
L 827.47049 179.219346 
L 829.881712 160.72329 
L 832.285255 140.542442 
L 834.688798 118.452901 
L 837.092341 94.273868 
L 839.488206 67.895958 
L 839.879837 63.353648 
L 839.879837 63.353648 
" clip-path="url(#p80d36fff26)" style="fill: none; stroke: #610023; stroke-width: 5; stroke-linecap: square"/>
   </g>
   <g id="patch_3">
    <path d="M 71.99 566.88 
L 71.99 57.914 
" style="fill: none; stroke: #000000; stroke-width: 0.8; stroke-linejoin: miter; stroke-linecap: square"/>
   </g>
   <g id="patch_4">
    <path d="M 844 566.88 
L 844 57.914 
" style="fill: none; stroke: #000000; stroke-width: 0.8; stroke-linejoin: miter; stroke-linecap: square"/>
   </g>
   <g id="patch_5">
    <path d="M 71.99 566.88 
L 844 566.88 
" style="fill: none; stroke: #000000; stroke-width: 0.8; stroke-linejoin: miter; stroke-linecap: square"/>
   </g>
   <g id="patch_6">
    <path d="M 71.99 57.914 
L 844 57.914 
" style="fill: none; stroke: #000000; stroke-width: 0.8; stroke-linejoin: miter; stroke-linecap: square"/>
   </g>
   <g id="text_18">
    <!-- Neutron reproduction factor -->
    <g transform="translate(275.845781 39.18985) scale(0.3 -0.3)">
     <use xlink:href="#Aptos-4e"/>
     <use xlink:href="#Aptos-65" transform="translate(70.605469 0)"/>
     <use xlink:href="#Aptos-75" transform="translate(123.291016 0)"/>
     <use xlink:href="#Aptos-74" transform="translate(179.150391 0)"/>
     <use xlink:href="#Aptos-72" transform="translate(211.474609 0)"/>
     <use xlink:href="#Aptos-6f" transform="translate(244.921875 0)"/>
     <use xlink:href="#Aptos-6e" transform="translate(300.097656 0)"/>
     <use xlink:href="#Aptos-20" transform="translate(355.224609 0)"/>
     <use xlink:href="#Aptos-72" transform="translate(375.537109 0)"/>
     <use xlink:href="#Aptos-65" transform="translate(408.984375 0)"/>
     <use xlink:href="#Aptos-70" transform="translate(461.669922 0)"/>
     <use xlink:href="#Aptos-72" transform="translate(517.773438 0)"/>
     <use xlink:href="#Aptos-6f" transform="translate(551.220703 0)"/>
     <use xlink:href="#Aptos-64" transform="translate(606.396484 0)"/>
     <use xlink:href="#Aptos-75" transform="translate(662.451172 0)"/>
     <use xlink:href="#Aptos-63" transform="translate(718.310547 0)"/>
     <use xlink:href="#Aptos-74" transform="translate(770.800781 0)"/>
     <use xlink:href="#Aptos-69" transform="translate(803.125 0)"/>
     <use xlink:href="#Aptos-6f" transform="translate(827.001953 0)"/>
     <use xlink:href="#Aptos-6e" transform="translate(882.177734 0)"/>
     <use xlink:href="#Aptos-20" transform="translate(937.304688 0)"/>
     <use xlink:href="#Aptos-66" transform="translate(957.617188 0)"/>
     <use xlink:href="#Aptos-61" transform="translate(987.744141 0)"/>
     <use xlink:href="#Aptos-63" transform="translate(1040.869141 0)"/>
     <use xlink:href="#Aptos-74" transform="translate(1093.359375 0)"/>
     <use xlink:href="#Aptos-6f" transform="translate(1125.683594 0)"/>
     <use xlink:href="#Aptos-72" transform="translate(1180.859375 0)"/>
    </g>
   </g>
   <g id="legend_1">
    <g id="patch_7">
     <path d="M 712.2 102.114 
L 830 102.114 
Q 834 102.114 834 98.114 
L 834 71.914 
Q 834 67.914 830 67.914 
L 712.2 67.914 
Q 708.2 67.914 708.2 71.914 
L 708.2 98.114 
Q 708.2 102.114 712.2 102.114 
z
" style="fill: #ffffff; opacity: 0.95; stroke: #cccccc; stroke-linejoin: miter"/>
    </g>
    <g id="line2d_32">
     <path d="M 716.2 83.617125 
L 736.2 83.617125 
L 756.2 83.617125 
" style="fill: none; stroke: #610023; stroke-width: 5; stroke-linecap: square"/>
    </g>
    <g id="text_19">
     <!-- $\mathrm{^{241}Pu}$ -->
     <g transform="translate(772.2 90.617125) scale(0.2 -0.2)">
      <defs>
       <path id="DejaVuSerif-32" d="M 819 3553 
L 469 3553 
L 469 4384 
Q 803 4563 1142 4656 
Q 1481 4750 1806 4750 
Q 2534 4750 2956 4397 
Q 3378 4044 3378 3438 
Q 3378 2753 2422 1800 
Q 2347 1728 2309 1691 
L 1131 513 
L 3078 513 
L 3078 1088 
L 3444 1088 
L 3444 0 
L 434 0 
L 434 341 
L 1850 1753 
Q 2319 2222 2519 2614 
Q 2719 3006 2719 3438 
Q 2719 3909 2473 4175 
Q 2228 4441 1797 4441 
Q 1350 4441 1106 4219 
Q 863 3997 819 3553 
z
" transform="scale(0.015625)"/>
       <path id="DejaVuSerif-34" d="M 2234 1581 
L 2234 4063 
L 641 1581 
L 2234 1581 
z
M 3609 0 
L 1484 0 
L 1484 331 
L 2234 331 
L 2234 1247 
L 197 1247 
L 197 1588 
L 2241 4750 
L 2859 4750 
L 2859 1581 
L 3750 1581 
L 3750 1247 
L 2859 1247 
L 2859 331 
L 3609 331 
L 3609 0 
z
" transform="scale(0.015625)"/>
       <path id="DejaVuSerif-31" d="M 909 0 
L 909 331 
L 1722 331 
L 1722 4213 
L 781 3603 
L 781 4013 
L 1919 4750 
L 2350 4750 
L 2350 331 
L 3163 331 
L 3163 0 
L 909 0 
z
" transform="scale(0.015625)"/>
       <path id="DejaVuSerif-50" d="M 1581 2375 
L 2406 2375 
Q 2872 2375 3115 2626 
Q 3359 2878 3359 3353 
Q 3359 3831 3115 4081 
Q 2872 4331 2406 4331 
L 1581 4331 
L 1581 2375 
z
M 353 0 
L 353 331 
L 947 331 
L 947 4331 
L 353 4331 
L 353 4666 
L 2559 4666 
Q 3259 4666 3668 4311 
Q 4078 3956 4078 3353 
Q 4078 2753 3668 2397 
Q 3259 2041 2559 2041 
L 1581 2041 
L 1581 331 
L 2303 331 
L 2303 0 
L 353 0 
z
" transform="scale(0.015625)"/>
       <path id="DejaVuSerif-75" d="M 2266 3322 
L 3341 3322 
L 3341 331 
L 3884 331 
L 3884 0 
L 2766 0 
L 2766 588 
Q 2606 256 2353 82 
Q 2100 -91 1766 -91 
Q 1213 -91 952 223 
Q 691 538 691 1209 
L 691 2988 
L 172 2988 
L 172 3322 
L 1269 3322 
L 1269 1388 
Q 1269 781 1417 556 
Q 1566 331 1947 331 
Q 2347 331 2556 625 
Q 2766 919 2766 1478 
L 2766 2988 
L 2266 2988 
L 2266 3322 
z
" transform="scale(0.015625)"/>
      </defs>
      <use xlink:href="#DejaVuSerif-32" transform="translate(0.908359 37.046875) scale(0.7)"/>
      <use xlink:href="#DejaVuSerif-34" transform="translate(45.444492 37.046875) scale(0.7)"/>
      <use xlink:href="#DejaVuSerif-31" transform="translate(89.980625 37.046875) scale(0.7)"/>
      <use xlink:href="#DejaVuSerif-50" transform="translate(137.11207 0.7125)"/>
      <use xlink:href="#DejaVuSerif-75" transform="translate(204.397227 0.7125)"/>
     </g>
    </g>
   </g>
  </g>
 </g>
 <defs>
  <clipPath id="p80d36fff26">
   <rect x="71.99" y="57.914" width="772.01" height="508.966"/>
  </clipPath>
 </defs>
</svg>
