<?xml version="1.0" encoding="utf-8" standalone="no"?>
<!DOCTYPE svg PUBLIC "-//W3C//DTD SVG 1.1//EN"
  "http://www.w3.org/Graphics/SVG/1.1/DTD/svg11.dtd">
<svg xmlns:xlink="http://www.w3.org/1999/xlink" width="864pt" height="648pt" viewBox="0 0 864 648" xmlns="http://www.w3.org/2000/svg" version="1.1">
 <metadata>
  <rdf:RDF xmlns:dc="http://purl.org/dc/elements/1.1/" xmlns:cc="http://creativecommons.org/ns#" xmlns:rdf="http://www.w3.org/1999/02/22-rdf-syntax-ns#">
   <cc:Work>
    <dc:type rdf:resource="http://purl.org/dc/dcmitype/StillImage"/>
    <dc:date>2025-10-21T14:37:49.149319</dc:date>
    <dc:format>image/svg+xml</dc:format>
    <dc:creator>
     <cc:Agent>
      <dc:title>Matplotlib v3.10.7, https://matplotlib.org/</dc:title>
     </cc:Agent>
    </dc:creator>
   </cc:Work>
  </rdf:RDF>
 </metadata>
 <defs>
  <style type="text/css">*{stroke-linejoin: round; stroke-linecap: butt}</style>
 </defs>
 <g id="figure_1">
  <g id="patch_1">
   <path d="M 0 648 
L 864 648 
L 864 0 
L 0 0 
z
" style="fill: #ffffff; stroke: #000000; stroke-width: 3; stroke-linejoin: miter"/>
  </g>
  <g id="axes_1">
   <g id="patch_2">
    <path d="M 76.4 560.571 
L 844 560.571 
L 844 62.234 
L 76.4 62.234 
L 76.4 560.571 
z
" style="fill: none"/>
   </g>
   <g id="matplotlib.axis_1">
    <g id="xtick_1">
     <g id="line2d_1">
      <path d="M 76.4 560.571 
L 76.4 62.234 
" clip-path="url(#p968f8b11b1)" style="fill: none; stroke-dasharray: 4.625,2; stroke-dashoffset: 0; stroke: #343837; stroke-opacity: 0.8; stroke-width: 1.25"/>
     </g>
     <g id="line2d_2">
      <defs>
       <path id="m13e23c76d1" d="M 0 0 
L 0 3.5 
" style="stroke: #000000; stroke-width: 0.8"/>
      </defs>
      <g>
       <use xlink:href="#m13e23c76d1" x="76.4" y="560.571" style="stroke: #000000; stroke-width: 0.8"/>
      </g>
     </g>
     <g id="text_1">
      <!-- $\mathdefault{10^{-11}}$ -->
      <g transform="translate(45.71 584.287562) scale(0.22 -0.22)">
       <defs>
        <path id="DejaVuSerif-31" d="M 909 0 
L 909 331 
L 1722 331 
L 1722 4213 
L 781 3603 
L 781 4013 
L 1919 4750 
L 2350 4750 
L 2350 331 
L 3163 331 
L 3163 0 
L 909 0 
z
" transform="scale(0.015625)"/>
        <path id="DejaVuSerif-30" d="M 2034 219 
Q 2513 219 2750 744 
Q 2988 1269 2988 2328 
Q 2988 3391 2750 3916 
Q 2513 4441 2034 4441 
Q 1556 4441 1318 3916 
Q 1081 3391 1081 2328 
Q 1081 1269 1318 744 
Q 1556 219 2034 219 
z
M 2034 -91 
Q 1275 -91 848 546 
Q 422 1184 422 2328 
Q 422 3475 848 4112 
Q 1275 4750 2034 4750 
Q 2797 4750 3222 4112 
Q 3647 3475 3647 2328 
Q 3647 1184 3222 546 
Q 2797 -91 2034 -91 
z
" transform="scale(0.015625)"/>
        <path id="DejaVuSerif-2212" d="M 678 2259 
L 4684 2259 
L 4684 1753 
L 678 1753 
L 678 2259 
z
" transform="scale(0.015625)"/>
       </defs>
       <use xlink:href="#DejaVuSerif-31" transform="translate(0 0.7125)"/>
       <use xlink:href="#DejaVuSerif-30" transform="translate(63.623047 0.7125)"/>
       <use xlink:href="#DejaVuSerif-2212" transform="translate(128.154453 37.046875) scale(0.7)"/>
       <use xlink:href="#DejaVuSerif-31" transform="translate(186.806797 37.046875) scale(0.7)"/>
       <use xlink:href="#DejaVuSerif-31" transform="translate(231.34293 37.046875) scale(0.7)"/>
      </g>
     </g>
    </g>
    <g id="xtick_2">
     <g id="line2d_3">
      <path d="M 198.78454 560.571 
L 198.78454 62.234 
" clip-path="url(#p968f8b11b1)" style="fill: none; stroke-dasharray: 4.625,2; stroke-dashoffset: 0; stroke: #343837; stroke-opacity: 0.8; stroke-width: 1.25"/>
     </g>
     <g id="line2d_4">
      <g>
       <use xlink:href="#m13e23c76d1" x="198.78454" y="560.571" style="stroke: #000000; stroke-width: 0.8"/>
      </g>
     </g>
     <g id="text_2">
      <!-- $\mathdefault{10^{-9}}$ -->
      <g transform="translate(173.04454 584.287562) scale(0.22 -0.22)">
       <defs>
        <path id="DejaVuSerif-39" d="M 2994 2091 
Q 2784 1856 2512 1740 
Q 2241 1625 1900 1625 
Q 1206 1625 804 2044 
Q 403 2463 403 3188 
Q 403 3897 839 4323 
Q 1275 4750 2003 4750 
Q 2794 4750 3217 4161 
Q 3641 3572 3641 2478 
Q 3641 1253 3137 581 
Q 2634 -91 1722 -91 
Q 1475 -91 1203 -44 
Q 931 3 647 97 
L 647 872 
L 997 872 
Q 1038 556 1241 387 
Q 1444 219 1784 219 
Q 2391 219 2687 676 
Q 2984 1134 2994 2091 
z
M 1978 4441 
Q 1534 4441 1298 4117 
Q 1063 3794 1063 3188 
Q 1063 2581 1298 2256 
Q 1534 1931 1978 1931 
Q 2422 1931 2658 2245 
Q 2894 2559 2894 3150 
Q 2894 3772 2656 4106 
Q 2419 4441 1978 4441 
z
" transform="scale(0.015625)"/>
       </defs>
       <use xlink:href="#DejaVuSerif-31" transform="translate(0 0.7125)"/>
       <use xlink:href="#DejaVuSerif-30" transform="translate(63.623047 0.7125)"/>
       <use xlink:href="#DejaVuSerif-2212" transform="translate(128.154453 37.046875) scale(0.7)"/>
       <use xlink:href="#DejaVuSerif-39" transform="translate(186.806797 37.046875) scale(0.7)"/>
      </g>
     </g>
    </g>
    <g id="xtick_3">
     <g id="line2d_5">
      <path d="M 321.16908 560.571 
L 321.16908 62.234 
" clip-path="url(#p968f8b11b1)" style="fill: none; stroke-dasharray: 4.625,2; stroke-dashoffset: 0; stroke: #343837; stroke-opacity: 0.8; stroke-width: 1.25"/>
     </g>
     <g id="line2d_6">
      <g>
       <use xlink:href="#m13e23c76d1" x="321.16908" y="560.571" style="stroke: #000000; stroke-width: 0.8"/>
      </g>
     </g>
     <g id="text_3">
      <!-- $\mathdefault{10^{-7}}$ -->
      <g transform="translate(295.42908 584.287562) scale(0.22 -0.22)">
       <defs>
        <path id="DejaVuSerif-37" d="M 3609 4347 
L 1784 0 
L 1319 0 
L 3059 4153 
L 903 4153 
L 903 3578 
L 538 3578 
L 538 4666 
L 3609 4666 
L 3609 4347 
z
" transform="scale(0.015625)"/>
       </defs>
       <use xlink:href="#DejaVuSerif-31" transform="translate(0 0.63125)"/>
       <use xlink:href="#DejaVuSerif-30" transform="translate(63.623047 0.63125)"/>
       <use xlink:href="#DejaVuSerif-2212" transform="translate(128.154453 36.965625) scale(0.7)"/>
       <use xlink:href="#DejaVuSerif-37" transform="translate(186.806797 36.965625) scale(0.7)"/>
      </g>
     </g>
    </g>
    <g id="xtick_4">
     <g id="line2d_7">
      <path d="M 443.553621 560.571 
L 443.553621 62.234 
" clip-path="url(#p968f8b11b1)" style="fill: none; stroke-dasharray: 4.625,2; stroke-dashoffset: 0; stroke: #343837; stroke-opacity: 0.8; stroke-width: 1.25"/>
     </g>
     <g id="line2d_8">
      <g>
       <use xlink:href="#m13e23c76d1" x="443.553621" y="560.571" style="stroke: #000000; stroke-width: 0.8"/>
      </g>
     </g>
     <g id="text_4">
      <!-- $\mathdefault{10^{-5}}$ -->
      <g transform="translate(417.813621 584.287562) scale(0.22 -0.22)">
       <defs>
        <path id="DejaVuSerif-35" d="M 3219 4666 
L 3219 4153 
L 1081 4153 
L 1081 2816 
Q 1244 2928 1461 2984 
Q 1678 3041 1947 3041 
Q 2703 3041 3140 2622 
Q 3578 2203 3578 1478 
Q 3578 738 3136 323 
Q 2694 -91 1894 -91 
Q 1572 -91 1234 -12 
Q 897 66 544 225 
L 544 1131 
L 897 1131 
Q 925 688 1179 453 
Q 1434 219 1894 219 
Q 2388 219 2653 544 
Q 2919 869 2919 1478 
Q 2919 2084 2655 2407 
Q 2391 2731 1894 2731 
Q 1613 2731 1398 2631 
Q 1184 2531 1019 2322 
L 750 2322 
L 750 4666 
L 3219 4666 
z
" transform="scale(0.015625)"/>
       </defs>
       <use xlink:href="#DejaVuSerif-31" transform="translate(0 0.63125)"/>
       <use xlink:href="#DejaVuSerif-30" transform="translate(63.623047 0.63125)"/>
       <use xlink:href="#DejaVuSerif-2212" transform="translate(128.154453 36.965625) scale(0.7)"/>
       <use xlink:href="#DejaVuSerif-35" transform="translate(186.806797 36.965625) scale(0.7)"/>
      </g>
     </g>
    </g>
    <g id="xtick_5">
     <g id="line2d_9">
      <path d="M 565.938161 560.571 
L 565.938161 62.234 
" clip-path="url(#p968f8b11b1)" style="fill: none; stroke-dasharray: 4.625,2; stroke-dashoffset: 0; stroke: #343837; stroke-opacity: 0.8; stroke-width: 1.25"/>
     </g>
     <g id="line2d_10">
      <g>
       <use xlink:href="#m13e23c76d1" x="565.938161" y="560.571" style="stroke: #000000; stroke-width: 0.8"/>
      </g>
     </g>
     <g id="text_5">
      <!-- $\mathdefault{10^{-3}}$ -->
      <g transform="translate(540.198161 584.287562) scale(0.22 -0.22)">
       <defs>
        <path id="DejaVuSerif-33" d="M 622 4469 
Q 988 4606 1323 4678 
Q 1659 4750 1953 4750 
Q 2638 4750 3022 4454 
Q 3406 4159 3406 3634 
Q 3406 3213 3140 2930 
Q 2875 2647 2388 2547 
Q 2963 2466 3280 2130 
Q 3597 1794 3597 1259 
Q 3597 606 3158 257 
Q 2719 -91 1894 -91 
Q 1528 -91 1179 -12 
Q 831 66 488 225 
L 488 1131 
L 838 1131 
Q 869 681 1141 450 
Q 1413 219 1906 219 
Q 2384 219 2661 495 
Q 2938 772 2938 1253 
Q 2938 1803 2653 2086 
Q 2369 2369 1819 2369 
L 1522 2369 
L 1522 2688 
L 1678 2688 
Q 2225 2688 2498 2914 
Q 2772 3141 2772 3597 
Q 2772 4006 2547 4223 
Q 2322 4441 1900 4441 
Q 1478 4441 1245 4241 
Q 1013 4041 972 3647 
L 622 3647 
L 622 4469 
z
" transform="scale(0.015625)"/>
       </defs>
       <use xlink:href="#DejaVuSerif-31" transform="translate(0 0.7125)"/>
       <use xlink:href="#DejaVuSerif-30" transform="translate(63.623047 0.7125)"/>
       <use xlink:href="#DejaVuSerif-2212" transform="translate(128.154453 37.046875) scale(0.7)"/>
       <use xlink:href="#DejaVuSerif-33" transform="translate(186.806797 37.046875) scale(0.7)"/>
      </g>
     </g>
    </g>
    <g id="xtick_6">
     <g id="line2d_11">
      <path d="M 688.322701 560.571 
L 688.322701 62.234 
" clip-path="url(#p968f8b11b1)" style="fill: none; stroke-dasharray: 4.625,2; stroke-dashoffset: 0; stroke: #343837; stroke-opacity: 0.8; stroke-width: 1.25"/>
     </g>
     <g id="line2d_12">
      <g>
       <use xlink:href="#m13e23c76d1" x="688.322701" y="560.571" style="stroke: #000000; stroke-width: 0.8"/>
      </g>
     </g>
     <g id="text_6">
      <!-- $\mathdefault{10^{-1}}$ -->
      <g transform="translate(662.582701 584.287562) scale(0.22 -0.22)">
       <use xlink:href="#DejaVuSerif-31" transform="translate(0 0.7125)"/>
       <use xlink:href="#DejaVuSerif-30" transform="translate(63.623047 0.7125)"/>
       <use xlink:href="#DejaVuSerif-2212" transform="translate(128.154453 37.046875) scale(0.7)"/>
       <use xlink:href="#DejaVuSerif-31" transform="translate(186.806797 37.046875) scale(0.7)"/>
      </g>
     </g>
    </g>
    <g id="xtick_7">
     <g id="line2d_13">
      <path d="M 810.707241 560.571 
L 810.707241 62.234 
" clip-path="url(#p968f8b11b1)" style="fill: none; stroke-dasharray: 4.625,2; stroke-dashoffset: 0; stroke: #343837; stroke-opacity: 0.8; stroke-width: 1.25"/>
     </g>
     <g id="line2d_14">
      <g>
       <use xlink:href="#m13e23c76d1" x="810.707241" y="560.571" style="stroke: #000000; stroke-width: 0.8"/>
      </g>
     </g>
     <g id="text_7">
      <!-- $\mathdefault{10^{1}}$ -->
      <g transform="translate(791.347241 584.287562) scale(0.22 -0.22)">
       <use xlink:href="#DejaVuSerif-31" transform="translate(0 0.7125)"/>
       <use xlink:href="#DejaVuSerif-30" transform="translate(63.623047 0.7125)"/>
       <use xlink:href="#DejaVuSerif-31" transform="translate(128.154453 37.046875) scale(0.7)"/>
      </g>
     </g>
    </g>
    <g id="text_8">
     <!-- Energy of incident neutron (MeV) -->
     <g transform="translate(237.400313 620.618812) scale(0.26 -0.26)">
      <defs>
       <path id="DejaVuSerif-45" d="M 353 0 
L 353 331 
L 947 331 
L 947 4331 
L 353 4331 
L 353 4666 
L 4109 4666 
L 4109 3628 
L 3725 3628 
L 3725 4281 
L 1581 4281 
L 1581 2719 
L 3109 2719 
L 3109 3303 
L 3494 3303 
L 3494 1753 
L 3109 1753 
L 3109 2338 
L 1581 2338 
L 1581 384 
L 3775 384 
L 3775 1038 
L 4159 1038 
L 4159 0 
L 353 0 
z
" transform="scale(0.015625)"/>
       <path id="DejaVuSerif-6e" d="M 263 0 
L 263 331 
L 781 331 
L 781 2988 
L 231 2988 
L 231 3322 
L 1356 3322 
L 1356 2731 
Q 1516 3069 1770 3241 
Q 2025 3413 2363 3413 
Q 2913 3413 3172 3097 
Q 3431 2781 3431 2113 
L 3431 331 
L 3944 331 
L 3944 0 
L 2356 0 
L 2356 331 
L 2853 331 
L 2853 1931 
Q 2853 2541 2703 2767 
Q 2553 2994 2175 2994 
Q 1775 2994 1565 2701 
Q 1356 2409 1356 1850 
L 1356 331 
L 1856 331 
L 1856 0 
L 263 0 
z
" transform="scale(0.015625)"/>
       <path id="DejaVuSerif-65" d="M 3469 1600 
L 991 1600 
L 991 1575 
Q 991 903 1244 561 
Q 1497 219 1991 219 
Q 2369 219 2611 417 
Q 2853 616 2950 1006 
L 3413 1006 
Q 3275 459 2904 184 
Q 2534 -91 1931 -91 
Q 1203 -91 761 389 
Q 319 869 319 1663 
Q 319 2450 753 2931 
Q 1188 3413 1894 3413 
Q 2647 3413 3050 2948 
Q 3453 2484 3469 1600 
z
M 2791 1931 
Q 2772 2513 2545 2808 
Q 2319 3103 1894 3103 
Q 1497 3103 1269 2806 
Q 1041 2509 991 1931 
L 2791 1931 
z
" transform="scale(0.015625)"/>
       <path id="DejaVuSerif-72" d="M 3059 3328 
L 3059 2497 
L 2728 2497 
Q 2713 2744 2591 2866 
Q 2469 2988 2234 2988 
Q 1809 2988 1582 2694 
Q 1356 2400 1356 1850 
L 1356 331 
L 2022 331 
L 2022 0 
L 263 0 
L 263 331 
L 781 331 
L 781 2994 
L 231 2994 
L 231 3322 
L 1356 3322 
L 1356 2731 
Q 1525 3078 1790 3245 
Q 2056 3413 2438 3413 
Q 2578 3413 2733 3391 
Q 2888 3369 3059 3328 
z
" transform="scale(0.015625)"/>
       <path id="DejaVuSerif-67" d="M 3359 2988 
L 3359 72 
Q 3359 -644 2965 -1033 
Q 2572 -1422 1844 -1422 
Q 1516 -1422 1216 -1362 
Q 916 -1303 641 -1184 
L 641 -488 
L 941 -488 
Q 997 -813 1206 -963 
Q 1416 -1113 1806 -1113 
Q 2313 -1113 2548 -827 
Q 2784 -541 2784 72 
L 2784 519 
Q 2616 206 2355 57 
Q 2094 -91 1709 -91 
Q 1097 -91 708 395 
Q 319 881 319 1663 
Q 319 2444 706 2928 
Q 1094 3413 1709 3413 
Q 2094 3413 2355 3264 
Q 2616 3116 2784 2803 
L 2784 3322 
L 3909 3322 
L 3909 2988 
L 3359 2988 
z
M 2784 1825 
Q 2784 2422 2554 2737 
Q 2325 3053 1888 3053 
Q 1444 3053 1217 2703 
Q 991 2353 991 1663 
Q 991 975 1217 622 
Q 1444 269 1888 269 
Q 2325 269 2554 583 
Q 2784 897 2784 1497 
L 2784 1825 
z
" transform="scale(0.015625)"/>
       <path id="DejaVuSerif-79" d="M 1381 -609 
L 1600 -56 
L 359 2988 
L -19 2988 
L -19 3322 
L 1509 3322 
L 1509 2988 
L 978 2988 
L 1913 703 
L 2847 2988 
L 2350 2988 
L 2350 3322 
L 3597 3322 
L 3597 2988 
L 3225 2988 
L 1703 -750 
Q 1547 -1138 1356 -1280 
Q 1166 -1422 819 -1422 
Q 672 -1422 517 -1397 
Q 363 -1372 206 -1325 
L 206 -691 
L 500 -691 
Q 519 -903 608 -995 
Q 697 -1088 884 -1088 
Q 1056 -1088 1161 -992 
Q 1266 -897 1381 -609 
z
" transform="scale(0.015625)"/>
       <path id="DejaVuSerif-20" transform="scale(0.015625)"/>
       <path id="DejaVuSerif-6f" d="M 1925 219 
Q 2388 219 2623 584 
Q 2859 950 2859 1663 
Q 2859 2375 2623 2739 
Q 2388 3103 1925 3103 
Q 1463 3103 1227 2739 
Q 991 2375 991 1663 
Q 991 950 1228 584 
Q 1466 219 1925 219 
z
M 1925 -91 
Q 1200 -91 759 389 
Q 319 869 319 1663 
Q 319 2456 758 2934 
Q 1197 3413 1925 3413 
Q 2653 3413 3092 2934 
Q 3531 2456 3531 1663 
Q 3531 869 3092 389 
Q 2653 -91 1925 -91 
z
" transform="scale(0.015625)"/>
       <path id="DejaVuSerif-66" d="M 2753 4078 
L 2450 4078 
Q 2447 4313 2317 4434 
Q 2188 4556 1941 4556 
Q 1619 4556 1487 4379 
Q 1356 4203 1356 3750 
L 1356 3322 
L 2284 3322 
L 2284 2988 
L 1356 2988 
L 1356 331 
L 2094 331 
L 2094 0 
L 231 0 
L 231 331 
L 781 331 
L 781 2988 
L 231 2988 
L 231 3322 
L 781 3322 
L 781 3738 
Q 781 4294 1070 4578 
Q 1359 4863 1919 4863 
Q 2128 4863 2337 4825 
Q 2547 4788 2753 4709 
L 2753 4078 
z
" transform="scale(0.015625)"/>
       <path id="DejaVuSerif-69" d="M 622 4353 
Q 622 4497 726 4603 
Q 831 4709 978 4709 
Q 1122 4709 1226 4603 
Q 1331 4497 1331 4353 
Q 1331 4206 1228 4103 
Q 1125 4000 978 4000 
Q 831 4000 726 4103 
Q 622 4206 622 4353 
z
M 1356 331 
L 1900 331 
L 1900 0 
L 231 0 
L 231 331 
L 781 331 
L 781 2988 
L 231 2988 
L 231 3322 
L 1356 3322 
L 1356 331 
z
" transform="scale(0.015625)"/>
       <path id="DejaVuSerif-63" d="M 3291 997 
Q 3169 466 2822 187 
Q 2475 -91 1925 -91 
Q 1200 -91 759 389 
Q 319 869 319 1663 
Q 319 2459 759 2936 
Q 1200 3413 1925 3413 
Q 2241 3413 2553 3339 
Q 2866 3266 3181 3116 
L 3181 2266 
L 2847 2266 
Q 2781 2703 2561 2903 
Q 2341 3103 1931 3103 
Q 1466 3103 1228 2742 
Q 991 2381 991 1663 
Q 991 944 1227 581 
Q 1463 219 1931 219 
Q 2303 219 2525 412 
Q 2747 606 2828 997 
L 3291 997 
z
" transform="scale(0.015625)"/>
       <path id="DejaVuSerif-64" d="M 3359 331 
L 3909 331 
L 3909 0 
L 2784 0 
L 2784 519 
Q 2616 206 2355 57 
Q 2094 -91 1709 -91 
Q 1097 -91 708 395 
Q 319 881 319 1663 
Q 319 2444 706 2928 
Q 1094 3413 1709 3413 
Q 2094 3413 2355 3264 
Q 2616 3116 2784 2803 
L 2784 4531 
L 2241 4531 
L 2241 4863 
L 3359 4863 
L 3359 331 
z
M 2784 1497 
L 2784 1825 
Q 2784 2422 2554 2737 
Q 2325 3053 1888 3053 
Q 1444 3053 1217 2703 
Q 991 2353 991 1663 
Q 991 975 1217 622 
Q 1444 269 1888 269 
Q 2325 269 2554 583 
Q 2784 897 2784 1497 
z
" transform="scale(0.015625)"/>
       <path id="DejaVuSerif-74" d="M 691 2988 
L 184 2988 
L 184 3322 
L 691 3322 
L 691 4353 
L 1269 4353 
L 1269 3322 
L 2350 3322 
L 2350 2988 
L 1269 2988 
L 1269 878 
Q 1269 456 1350 337 
Q 1431 219 1650 219 
Q 1875 219 1978 351 
Q 2081 484 2088 781 
L 2522 781 
Q 2497 328 2275 118 
Q 2053 -91 1600 -91 
Q 1103 -91 897 129 
Q 691 350 691 878 
L 691 2988 
z
" transform="scale(0.015625)"/>
       <path id="DejaVuSerif-75" d="M 2266 3322 
L 3341 3322 
L 3341 331 
L 3884 331 
L 3884 0 
L 2766 0 
L 2766 588 
Q 2606 256 2353 82 
Q 2100 -91 1766 -91 
Q 1213 -91 952 223 
Q 691 538 691 1209 
L 691 2988 
L 172 2988 
L 172 3322 
L 1269 3322 
L 1269 1388 
Q 1269 781 1417 556 
Q 1566 331 1947 331 
Q 2347 331 2556 625 
Q 2766 919 2766 1478 
L 2766 2988 
L 2266 2988 
L 2266 3322 
z
" transform="scale(0.015625)"/>
       <path id="DejaVuSerif-28" d="M 2041 -997 
Q 1281 -656 893 83 
Q 506 822 506 1931 
Q 506 3044 893 3783 
Q 1281 4522 2041 4863 
L 2041 4556 
Q 1559 4225 1350 3623 
Q 1141 3022 1141 1931 
Q 1141 844 1350 242 
Q 1559 -359 2041 -691 
L 2041 -997 
z
" transform="scale(0.015625)"/>
       <path id="DejaVuSerif-4d" d="M 353 0 
L 353 331 
L 947 331 
L 947 4331 
L 319 4331 
L 319 4666 
L 1678 4666 
L 3316 1344 
L 4953 4666 
L 6228 4666 
L 6228 4331 
L 5606 4331 
L 5606 331 
L 6203 331 
L 6203 0 
L 4378 0 
L 4378 331 
L 4972 331 
L 4972 3938 
L 3372 684 
L 2931 684 
L 1331 3938 
L 1331 331 
L 1925 331 
L 1925 0 
L 353 0 
z
" transform="scale(0.015625)"/>
       <path id="DejaVuSerif-56" d="M 1119 4331 
L 2497 750 
L 3872 4331 
L 3347 4331 
L 3347 4666 
L 4716 4666 
L 4716 4331 
L 4263 4331 
L 2597 0 
L 2059 0 
L 403 4331 
L -63 4331 
L -63 4666 
L 1638 4666 
L 1638 4331 
L 1119 4331 
z
" transform="scale(0.015625)"/>
       <path id="DejaVuSerif-29" d="M 453 -997 
L 453 -691 
Q 934 -359 1145 242 
Q 1356 844 1356 1931 
Q 1356 3022 1145 3623 
Q 934 4225 453 4556 
L 453 4863 
Q 1216 4522 1603 3783 
Q 1991 3044 1991 1931 
Q 1991 822 1603 83 
Q 1216 -656 453 -997 
z
" transform="scale(0.015625)"/>
      </defs>
      <use xlink:href="#DejaVuSerif-45"/>
      <use xlink:href="#DejaVuSerif-6e" transform="translate(72.998047 0)"/>
      <use xlink:href="#DejaVuSerif-65" transform="translate(137.402344 0)"/>
      <use xlink:href="#DejaVuSerif-72" transform="translate(196.582031 0)"/>
      <use xlink:href="#DejaVuSerif-67" transform="translate(244.384766 0)"/>
      <use xlink:href="#DejaVuSerif-79" transform="translate(308.398438 0)"/>
      <use xlink:href="#DejaVuSerif-20" transform="translate(364.892578 0)"/>
      <use xlink:href="#DejaVuSerif-6f" transform="translate(396.679688 0)"/>
      <use xlink:href="#DejaVuSerif-66" transform="translate(456.884766 0)"/>
      <use xlink:href="#DejaVuSerif-20" transform="translate(493.896484 0)"/>
      <use xlink:href="#DejaVuSerif-69" transform="translate(525.683594 0)"/>
      <use xlink:href="#DejaVuSerif-6e" transform="translate(557.666016 0)"/>
      <use xlink:href="#DejaVuSerif-63" transform="translate(622.070312 0)"/>
      <use xlink:href="#DejaVuSerif-69" transform="translate(678.076172 0)"/>
      <use xlink:href="#DejaVuSerif-64" transform="translate(710.058594 0)"/>
      <use xlink:href="#DejaVuSerif-65" transform="translate(774.072266 0)"/>
      <use xlink:href="#DejaVuSerif-6e" transform="translate(833.251953 0)"/>
      <use xlink:href="#DejaVuSerif-74" transform="translate(897.65625 0)"/>
      <use xlink:href="#DejaVuSerif-20" transform="translate(937.841797 0)"/>
      <use xlink:href="#DejaVuSerif-6e" transform="translate(969.628906 0)"/>
      <use xlink:href="#DejaVuSerif-65" transform="translate(1034.033203 0)"/>
      <use xlink:href="#DejaVuSerif-75" transform="translate(1093.212891 0)"/>
      <use xlink:href="#DejaVuSerif-74" transform="translate(1157.617188 0)"/>
      <use xlink:href="#DejaVuSerif-72" transform="translate(1197.802734 0)"/>
      <use xlink:href="#DejaVuSerif-6f" transform="translate(1245.605469 0)"/>
      <use xlink:href="#DejaVuSerif-6e" transform="translate(1305.810547 0)"/>
      <use xlink:href="#DejaVuSerif-20" transform="translate(1370.214844 0)"/>
      <use xlink:href="#DejaVuSerif-28" transform="translate(1402.001953 0)"/>
      <use xlink:href="#DejaVuSerif-4d" transform="translate(1441.015625 0)"/>
      <use xlink:href="#DejaVuSerif-65" transform="translate(1543.408203 0)"/>
      <use xlink:href="#DejaVuSerif-56" transform="translate(1602.587891 0)"/>
      <use xlink:href="#DejaVuSerif-29" transform="translate(1674.804688 0)"/>
     </g>
    </g>
   </g>
   <g id="matplotlib.axis_2">
    <g id="ytick_1">
     <g id="line2d_15">
      <path d="M 76.4 560.571 
L 844 560.571 
" clip-path="url(#p968f8b11b1)" style="fill: none; stroke-dasharray: 4.625,2; stroke-dashoffset: 0; stroke: #343837; stroke-opacity: 0.8; stroke-width: 1.25"/>
     </g>
     <g id="line2d_16">
      <defs>
       <path id="m9921005292" d="M 0 0 
L -3.5 0 
" style="stroke: #000000; stroke-width: 0.8"/>
      </defs>
      <g>
       <use xlink:href="#m9921005292" x="76.4" y="560.571" style="stroke: #000000; stroke-width: 0.8"/>
      </g>
     </g>
     <g id="text_9">
      <!-- 0 -->
      <g transform="translate(55.4025 568.929281) scale(0.22 -0.22)">
       <use xlink:href="#DejaVuSerif-30"/>
      </g>
     </g>
    </g>
    <g id="ytick_2">
     <g id="line2d_17">
      <path d="M 76.4 492.305658 
L 844 492.305658 
" clip-path="url(#p968f8b11b1)" style="fill: none; stroke-dasharray: 4.625,2; stroke-dashoffset: 0; stroke: #343837; stroke-opacity: 0.8; stroke-width: 1.25"/>
     </g>
     <g id="line2d_18">
      <g>
       <use xlink:href="#m9921005292" x="76.4" y="492.305658" style="stroke: #000000; stroke-width: 0.8"/>
      </g>
     </g>
     <g id="text_10">
      <!-- 1 -->
      <g transform="translate(55.4025 500.663939) scale(0.22 -0.22)">
       <use xlink:href="#DejaVuSerif-31"/>
      </g>
     </g>
    </g>
    <g id="ytick_3">
     <g id="line2d_19">
      <path d="M 76.4 424.040315 
L 844 424.040315 
" clip-path="url(#p968f8b11b1)" style="fill: none; stroke-dasharray: 4.625,2; stroke-dashoffset: 0; stroke: #343837; stroke-opacity: 0.8; stroke-width: 1.25"/>
     </g>
     <g id="line2d_20">
      <g>
       <use xlink:href="#m9921005292" x="76.4" y="424.040315" style="stroke: #000000; stroke-width: 0.8"/>
      </g>
     </g>
     <g id="text_11">
      <!-- 2 -->
      <g transform="translate(55.4025 432.398596) scale(0.22 -0.22)">
       <defs>
        <path id="DejaVuSerif-32" d="M 819 3553 
L 469 3553 
L 469 4384 
Q 803 4563 1142 4656 
Q 1481 4750 1806 4750 
Q 2534 4750 2956 4397 
Q 3378 4044 3378 3438 
Q 3378 2753 2422 1800 
Q 2347 1728 2309 1691 
L 1131 513 
L 3078 513 
L 3078 1088 
L 3444 1088 
L 3444 0 
L 434 0 
L 434 341 
L 1850 1753 
Q 2319 2222 2519 2614 
Q 2719 3006 2719 3438 
Q 2719 3909 2473 4175 
Q 2228 4441 1797 4441 
Q 1350 4441 1106 4219 
Q 863 3997 819 3553 
z
" transform="scale(0.015625)"/>
       </defs>
       <use xlink:href="#DejaVuSerif-32"/>
      </g>
     </g>
    </g>
    <g id="ytick_4">
     <g id="line2d_21">
      <path d="M 76.4 355.774973 
L 844 355.774973 
" clip-path="url(#p968f8b11b1)" style="fill: none; stroke-dasharray: 4.625,2; stroke-dashoffset: 0; stroke: #343837; stroke-opacity: 0.8; stroke-width: 1.25"/>
     </g>
     <g id="line2d_22">
      <g>
       <use xlink:href="#m9921005292" x="76.4" y="355.774973" style="stroke: #000000; stroke-width: 0.8"/>
      </g>
     </g>
     <g id="text_12">
      <!-- 3 -->
      <g transform="translate(55.4025 364.133254) scale(0.22 -0.22)">
       <use xlink:href="#DejaVuSerif-33"/>
      </g>
     </g>
    </g>
    <g id="ytick_5">
     <g id="line2d_23">
      <path d="M 76.4 287.50963 
L 844 287.50963 
" clip-path="url(#p968f8b11b1)" style="fill: none; stroke-dasharray: 4.625,2; stroke-dashoffset: 0; stroke: #343837; stroke-opacity: 0.8; stroke-width: 1.25"/>
     </g>
     <g id="line2d_24">
      <g>
       <use xlink:href="#m9921005292" x="76.4" y="287.50963" style="stroke: #000000; stroke-width: 0.8"/>
      </g>
     </g>
     <g id="text_13">
      <!-- 4 -->
      <g transform="translate(55.4025 295.867911) scale(0.22 -0.22)">
       <defs>
        <path id="DejaVuSerif-34" d="M 2234 1581 
L 2234 4063 
L 641 1581 
L 2234 1581 
z
M 3609 0 
L 1484 0 
L 1484 331 
L 2234 331 
L 2234 1247 
L 197 1247 
L 197 1588 
L 2241 4750 
L 2859 4750 
L 2859 1581 
L 3750 1581 
L 3750 1247 
L 2859 1247 
L 2859 331 
L 3609 331 
L 3609 0 
z
" transform="scale(0.015625)"/>
       </defs>
       <use xlink:href="#DejaVuSerif-34"/>
      </g>
     </g>
    </g>
    <g id="ytick_6">
     <g id="line2d_25">
      <path d="M 76.4 219.244288 
L 844 219.244288 
" clip-path="url(#p968f8b11b1)" style="fill: none; stroke-dasharray: 4.625,2; stroke-dashoffset: 0; stroke: #343837; stroke-opacity: 0.8; stroke-width: 1.25"/>
     </g>
     <g id="line2d_26">
      <g>
       <use xlink:href="#m9921005292" x="76.4" y="219.244288" style="stroke: #000000; stroke-width: 0.8"/>
      </g>
     </g>
     <g id="text_14">
      <!-- 5 -->
      <g transform="translate(55.4025 227.602569) scale(0.22 -0.22)">
       <use xlink:href="#DejaVuSerif-35"/>
      </g>
     </g>
    </g>
    <g id="ytick_7">
     <g id="line2d_27">
      <path d="M 76.4 150.978945 
L 844 150.978945 
" clip-path="url(#p968f8b11b1)" style="fill: none; stroke-dasharray: 4.625,2; stroke-dashoffset: 0; stroke: #343837; stroke-opacity: 0.8; stroke-width: 1.25"/>
     </g>
     <g id="line2d_28">
      <g>
       <use xlink:href="#m9921005292" x="76.4" y="150.978945" style="stroke: #000000; stroke-width: 0.8"/>
      </g>
     </g>
     <g id="text_15">
      <!-- 6 -->
      <g transform="translate(55.4025 159.337226) scale(0.22 -0.22)">
       <defs>
        <path id="DejaVuSerif-36" d="M 2094 219 
Q 2534 219 2771 542 
Q 3009 866 3009 1472 
Q 3009 2078 2771 2401 
Q 2534 2725 2094 2725 
Q 1647 2725 1412 2412 
Q 1178 2100 1178 1509 
Q 1178 888 1415 553 
Q 1653 219 2094 219 
z
M 1075 2569 
Q 1288 2803 1556 2918 
Q 1825 3034 2163 3034 
Q 2859 3034 3264 2615 
Q 3669 2197 3669 1472 
Q 3669 763 3233 336 
Q 2797 -91 2069 -91 
Q 1278 -91 853 498 
Q 428 1088 428 2181 
Q 428 3406 931 4078 
Q 1434 4750 2350 4750 
Q 2597 4750 2869 4703 
Q 3141 4656 3425 4563 
L 3425 3794 
L 3072 3794 
Q 3034 4109 2831 4275 
Q 2628 4441 2284 4441 
Q 1678 4441 1381 3981 
Q 1084 3522 1075 2569 
z
" transform="scale(0.015625)"/>
       </defs>
       <use xlink:href="#DejaVuSerif-36"/>
      </g>
     </g>
    </g>
    <g id="ytick_8">
     <g id="line2d_29">
      <path d="M 76.4 82.713603 
L 844 82.713603 
" clip-path="url(#p968f8b11b1)" style="fill: none; stroke-dasharray: 4.625,2; stroke-dashoffset: 0; stroke: #343837; stroke-opacity: 0.8; stroke-width: 1.25"/>
     </g>
     <g id="line2d_30">
      <g>
       <use xlink:href="#m9921005292" x="76.4" y="82.713603" style="stroke: #000000; stroke-width: 0.8"/>
      </g>
     </g>
     <g id="text_16">
      <!-- 7 -->
      <g transform="translate(55.4025 91.071884) scale(0.22 -0.22)">
       <use xlink:href="#DejaVuSerif-37"/>
      </g>
     </g>
    </g>
    <g id="text_17">
     <!-- Neutron reproduction factor $\eta$ -->
     <g transform="translate(41.9425 511.6025) rotate(-90) scale(0.26 -0.26)">
      <defs>
       <path id="DejaVuSerif-4e" d="M 313 0 
L 313 331 
L 941 331 
L 941 4331 
L 313 4331 
L 313 4666 
L 1509 4666 
L 4306 984 
L 4306 4331 
L 3681 4331 
L 3681 4666 
L 5319 4666 
L 5319 4331 
L 4691 4331 
L 4691 -91 
L 4313 -91 
L 1325 3841 
L 1325 331 
L 1953 331 
L 1953 0 
L 313 0 
z
" transform="scale(0.015625)"/>
       <path id="DejaVuSerif-70" d="M 1313 1825 
L 1313 1497 
Q 1313 897 1542 583 
Q 1772 269 2209 269 
Q 2650 269 2876 622 
Q 3103 975 3103 1663 
Q 3103 2353 2876 2703 
Q 2650 3053 2209 3053 
Q 1772 3053 1542 2737 
Q 1313 2422 1313 1825 
z
M 738 2988 
L 184 2988 
L 184 3322 
L 1313 3322 
L 1313 2803 
Q 1481 3116 1742 3264 
Q 2003 3413 2388 3413 
Q 3000 3413 3387 2928 
Q 3775 2444 3775 1663 
Q 3775 881 3387 395 
Q 3000 -91 2388 -91 
Q 2003 -91 1742 57 
Q 1481 206 1313 519 
L 1313 -997 
L 1856 -997 
L 1856 -1331 
L 184 -1331 
L 184 -997 
L 738 -997 
L 738 2988 
z
" transform="scale(0.015625)"/>
       <path id="DejaVuSerif-61" d="M 2547 1044 
L 2547 1747 
L 1806 1747 
Q 1378 1747 1168 1562 
Q 959 1378 959 997 
Q 959 650 1171 447 
Q 1384 244 1747 244 
Q 2106 244 2326 466 
Q 2547 688 2547 1044 
z
M 3122 2075 
L 3122 331 
L 3634 331 
L 3634 0 
L 2547 0 
L 2547 359 
Q 2356 128 2106 18 
Q 1856 -91 1522 -91 
Q 969 -91 644 203 
Q 319 497 319 997 
Q 319 1513 691 1797 
Q 1063 2081 1741 2081 
L 2547 2081 
L 2547 2309 
Q 2547 2688 2317 2895 
Q 2088 3103 1672 3103 
Q 1328 3103 1125 2947 
Q 922 2791 872 2484 
L 575 2484 
L 575 3156 
Q 875 3284 1158 3348 
Q 1441 3413 1709 3413 
Q 2400 3413 2761 3070 
Q 3122 2728 3122 2075 
z
" transform="scale(0.015625)"/>
       <path id="DejaVuSerif-Italic-3b7" d="M 1153 0 
L 578 0 
L 1159 2988 
L 609 2988 
L 675 3322 
L 1800 3322 
L 1684 2731 
Q 1909 3069 2198 3241 
Q 2488 3413 2825 3413 
Q 3366 3413 3572 3097 
Q 3772 2791 3641 2113 
L 2969 -1331 
L 2391 -1331 
L 3025 1931 
Q 3144 2541 3037 2767 
Q 2931 2994 2553 2994 
Q 2153 2994 1887 2701 
Q 1622 2409 1513 1850 
L 1153 0 
z
" transform="scale(0.015625)"/>
      </defs>
      <use xlink:href="#DejaVuSerif-4e" transform="translate(0 0.015625)"/>
      <use xlink:href="#DejaVuSerif-65" transform="translate(87.5 0.015625)"/>
      <use xlink:href="#DejaVuSerif-75" transform="translate(146.679688 0.015625)"/>
      <use xlink:href="#DejaVuSerif-74" transform="translate(211.083984 0.015625)"/>
      <use xlink:href="#DejaVuSerif-72" transform="translate(251.269531 0.015625)"/>
      <use xlink:href="#DejaVuSerif-6f" transform="translate(299.072266 0.015625)"/>
      <use xlink:href="#DejaVuSerif-6e" transform="translate(359.277344 0.015625)"/>
      <use xlink:href="#DejaVuSerif-20" transform="translate(423.681641 0.015625)"/>
      <use xlink:href="#DejaVuSerif-72" transform="translate(455.46875 0.015625)"/>
      <use xlink:href="#DejaVuSerif-65" transform="translate(503.271484 0.015625)"/>
      <use xlink:href="#DejaVuSerif-70" transform="translate(562.451172 0.015625)"/>
      <use xlink:href="#DejaVuSerif-72" transform="translate(626.464844 0.015625)"/>
      <use xlink:href="#DejaVuSerif-6f" transform="translate(674.267578 0.015625)"/>
      <use xlink:href="#DejaVuSerif-64" transform="translate(734.472656 0.015625)"/>
      <use xlink:href="#DejaVuSerif-75" transform="translate(798.486328 0.015625)"/>
      <use xlink:href="#DejaVuSerif-63" transform="translate(862.890625 0.015625)"/>
      <use xlink:href="#DejaVuSerif-74" transform="translate(918.896484 0.015625)"/>
      <use xlink:href="#DejaVuSerif-69" transform="translate(959.082031 0.015625)"/>
      <use xlink:href="#DejaVuSerif-6f" transform="translate(991.064453 0.015625)"/>
      <use xlink:href="#DejaVuSerif-6e" transform="translate(1051.269531 0.015625)"/>
      <use xlink:href="#DejaVuSerif-20" transform="translate(1115.673828 0.015625)"/>
      <use xlink:href="#DejaVuSerif-66" transform="translate(1147.460938 0.015625)"/>
      <use xlink:href="#DejaVuSerif-61" transform="translate(1184.472656 0.015625)"/>
      <use xlink:href="#DejaVuSerif-63" transform="translate(1244.091797 0.015625)"/>
      <use xlink:href="#DejaVuSerif-74" transform="translate(1300.097656 0.015625)"/>
      <use xlink:href="#DejaVuSerif-6f" transform="translate(1340.283203 0.015625)"/>
      <use xlink:href="#DejaVuSerif-72" transform="translate(1400.488281 0.015625)"/>
      <use xlink:href="#DejaVuSerif-20" transform="translate(1448.291016 0.015625)"/>
      <use xlink:href="#DejaVuSerif-Italic-3b7" transform="translate(1480.078125 0.015625)"/>
     </g>
    </g>
   </g>
   <g id="line2d_31">
    <path d="M 76.400027 453.973299 
L 228.057729 453.86002 
L 258.155633 453.620353 
L 276.770217 453.261105 
L 289.18503 452.83137 
L 299.958278 452.253721 
L 308.845634 451.560778 
L 316.137237 450.785488 
L 322.711132 449.873113 
L 328.574955 448.840435 
L 333.934856 447.67096 
L 338.81374 446.379399 
L 343.364311 444.94461 
L 347.63238 443.365953 
L 351.694299 441.628511 
L 355.664596 439.687537 
L 359.558541 437.536103 
L 363.490662 435.10852 
L 367.575486 432.32311 
L 372.087881 428.969997 
L 377.97461 424.293395 
L 386.648181 417.422918 
L 390.274895 414.857574 
L 393.069373 413.122697 
L 395.504997 411.842267 
L 397.86427 410.851845 
L 399.742526 410.273638 
L 401.742944 409.885706 
L 403.437956 409.769671 
L 404.835195 409.851396 
L 406.583652 410.169319 
L 408.026703 410.666329 
L 409.721714 411.542038 
L 410.851722 412.363235 
L 412.187879 413.544526 
L 413.516401 415.031864 
L 414.852559 416.894085 
L 416.112365 419.02984 
L 417.349265 421.578066 
L 418.509813 424.436879 
L 419.739078 428.050883 
L 420.975978 432.407619 
L 422.220514 437.643567 
L 423.426873 443.657182 
L 424.808842 451.699105 
L 426.740544 464.458583 
L 428.198864 473.481969 
L 428.939478 476.792934 
L 429.603739 478.292366 
L 430.397798 478.687945 
L 430.588678 479.490315 
L 430.848274 481.709961 
L 431.222398 487.209537 
L 431.894295 501.314577 
L 432.321865 507.187595 
L 432.558556 508.223846 
L 432.634908 508.133533 
L 432.757071 507.444466 
L 432.970856 504.491539 
L 433.444237 498.235238 
L 434.536069 485.151099 
L 436.063106 464.589018 
L 437.605414 449.830529 
L 439.758536 427.266563 
L 441.087059 418.808494 
L 441.506994 417.051342 
L 442.430852 412.718744 
L 442.690448 412.536491 
L 442.896598 412.028008 
L 443.224911 410.40459 
L 443.60667 408.793312 
L 443.728833 408.840598 
L 444.041876 409.036561 
L 444.240391 408.833678 
L 444.499987 408.229346 
L 445.546007 405.139559 
L 445.881956 404.137035 
L 446.782908 400.567283 
L 447.019598 399.967266 
L 447.584602 396.877716 
L 447.928186 393.098837 
L 448.416837 385.27989 
L 448.859678 377.668267 
L 449.172721 375.765549 
L 449.447588 375.202724 
L 449.669008 375.151914 
L 450.501243 375.142816 
L 455.006003 375.121508 
L 456.059659 374.805775 
L 456.975881 374.294499 
L 457.853928 373.525982 
L 458.815961 372.275238 
L 459.938333 370.190496 
L 460.930908 367.76043 
L 462.65646 363.415751 
L 462.946597 363.1975 
L 463.221463 363.338108 
L 463.442884 363.821489 
L 463.710115 365.045639 
L 464.030793 367.70005 
L 464.420188 373.039256 
L 464.954651 384.275388 
L 466.428242 417.829314 
L 466.496958 417.862075 
L 466.535134 417.807754 
L 466.619121 417.451527 
L 466.726014 415.853631 
L 466.909258 408.66164 
L 467.764399 369.721322 
L 467.970549 368.724043 
L 468.054536 368.836817 
L 468.22251 369.564922 
L 468.627175 372.618614 
L 469.390694 380.034567 
L 470.528337 391.733538 
L 470.642864 391.572883 
L 470.757392 390.886253 
L 470.933001 388.169584 
L 471.291855 378.250375 
L 471.910305 361.835746 
L 472.230983 358.426935 
L 472.467674 357.716813 
L 472.620378 357.774273 
L 472.811257 358.234794 
L 473.185381 359.865141 
L 474.544445 366.14848 
L 475.101813 367.680223 
L 475.537019 368.289958 
L 475.872967 368.412144 
L 476.743378 368.529295 
L 477.354193 368.633329 
L 477.705412 368.413822 
L 478.05663 367.921815 
L 478.476565 366.955875 
L 479.095015 364.75257 
L 480.011238 361.371752 
L 480.141036 361.362081 
L 480.156306 361.378839 
L 480.29374 361.726714 
L 480.492255 362.999158 
L 480.782392 366.7383 
L 481.996386 385.303609 
L 482.278888 386.142351 
L 482.485038 386.17248 
L 482.683553 385.897744 
L 483.095853 384.47876 
L 483.553964 381.900767 
L 484.057886 377.606738 
L 484.966474 369.683538 
L 485.103907 369.677386 
L 485.111542 369.691081 
L 485.478031 370.846023 
L 485.974318 372.363153 
L 486.333172 372.825343 
L 486.554592 372.968959 
L 487.447909 373.373651 
L 487.837304 373.345506 
L 488.196157 373.030577 
L 488.608457 372.365199 
L 489.494139 370.437096 
L 491.36476 366.554625 
L 492.349699 364.977509 
L 493.42626 363.645153 
L 494.44174 362.717626 
L 494.579173 362.770941 
L 494.731877 363.194386 
L 495.083095 364.858957 
L 495.289245 366.937854 
L 495.617558 373.382098 
L 495.808438 384.11384 
L 495.961142 397.294107 
L 496.006953 393.827673 
L 496.350536 356.863732 
L 496.403983 356.700452 
L 496.457429 356.824732 
L 496.663579 358.187673 
L 496.801012 360.35866 
L 497.068244 364.744777 
L 497.075879 364.743505 
L 497.159866 364.828549 
L 497.335475 365.741775 
L 497.679059 368.776092 
L 498.266968 377.053795 
L 498.572375 384.756222 
L 498.831972 396.235323 
L 499.068663 421.5978 
L 499.175555 463.695206 
L 499.206096 475.778768 
L 499.267177 456.483627 
L 499.542044 393.034422 
L 499.626031 390.253251 
L 499.671842 391.256996 
L 499.984885 407.402645 
L 500.840026 450.102448 
L 500.908742 450.57557 
L 500.962189 450.3224 
L 501.084352 447.776345 
L 501.343948 435.867568 
L 501.779154 405.707614 
L 502.015844 386.820273 
L 502.061655 390.779371 
L 502.183818 430.794538 
L 502.2449 467.133892 
L 502.298346 437.45469 
L 502.367063 415.103392 
L 502.420509 424.812188 
L 502.611389 495.492796 
L 502.664835 466.162657 
L 502.870985 410.46906 
L 503.184028 388.766309 
L 503.550517 377.330915 
L 504.039169 369.654164 
L 504.329306 367.461818 
L 504.504915 366.360567 
L 504.825593 364.953427 
L 504.871404 365.002632 
L 504.886674 365.04689 
L 505.146271 366.293235 
L 505.283704 369.103576 
L 505.390597 376.813817 
L 505.596747 390.65328 
L 505.642558 390.587261 
L 505.650193 390.564143 
L 505.73418 390.473043 
L 505.779991 390.550062 
L 505.932695 391.329842 
L 506.169386 392.27303 
L 506.192291 392.255746 
L 506.3679 391.914256 
L 506.413712 392.061924 
L 506.459523 393.061157 
L 506.535875 403.507485 
L 506.635132 407.458925 
L 506.673308 407.196671 
L 506.74966 404.172778 
L 507.016891 395.589457 
L 507.322299 391.496945 
L 507.398651 391.292068 
L 507.452097 391.389563 
L 507.55899 392.202283 
L 507.940749 396.921046 
L 508.047641 396.591747 
L 508.19271 393.743465 
L 508.918053 378.435771 
L 508.971499 378.220551 
L 509.00204 378.457041 
L 509.047851 380.835503 
L 509.139473 393.417789 
L 509.200555 386.725657 
L 509.360893 375.134904 
L 509.544138 374.479823 
L 509.63576 374.588108 
L 509.773194 375.270349 
L 509.941168 377.424103 
L 510.109142 382.906933 
L 510.25421 396.310518 
L 510.46036 438.302933 
L 510.551983 426.945138 
L 510.773403 372.65718 
L 510.971918 367.603765 
L 511.185703 366.573248 
L 511.376583 366.46121 
L 511.521651 366.585116 
L 511.659084 367.091015 
L 511.781247 368.662305 
L 511.88814 373.636561 
L 512.033209 380.890669 
L 512.07902 380.30871 
L 512.216453 374.574127 
L 512.277535 376.938451 
L 512.811998 413.686909 
L 512.857809 413.190695 
L 513.079229 406.583732 
L 513.399907 380.713221 
L 513.674774 368.788972 
L 513.72822 368.591272 
L 513.796937 368.64084 
L 514.064168 368.727924 
L 514.255048 368.666496 
L 514.277953 368.782213 
L 514.369576 370.222098 
L 514.919309 381.851265 
L 514.942215 381.921122 
L 514.96512 381.660402 
L 515.064378 375.978793 
L 515.194176 371.899646 
L 515.232352 372.37105 
L 515.415596 378.911738 
L 515.507218 377.228644 
L 515.514854 377.191222 
L 515.522489 377.355831 
L 515.560665 383.834181 
L 515.644652 419.782778 
L 515.721004 406.498375 
L 515.988235 374.761812 
L 516.278372 355.861667 
L 516.415805 355.646425 
L 516.446346 355.675542 
L 516.507428 355.992044 
L 516.560874 357.577046 
L 516.606685 368.188613 
L 516.690672 402.845511 
L 516.744118 390.517682 
L 516.912093 360.529491 
L 517.110607 358.751261 
L 517.133513 358.734581 
L 517.156419 358.82052 
L 517.240406 360.094356 
L 517.286217 359.166836 
L 517.446556 357.893553 
L 517.713787 357.400795 
L 517.744328 357.42707 
L 517.813045 357.467391 
L 517.843585 357.404913 
L 517.927572 356.669619 
L 518.171898 354.044032 
L 518.210074 354.142479 
L 518.324602 355.119749 
L 518.416224 357.444672 
L 518.477306 369.647949 
L 518.530752 381.194583 
L 518.584198 371.016597 
L 518.736902 355.174726 
L 518.973593 353.875466 
L 519.355352 352.848784 
L 519.492786 352.782907 
L 519.515691 352.819719 
L 519.569137 353.368064 
L 519.6913 358.443521 
L 520.065424 371.89587 
L 520.08833 371.877065 
L 520.1036 371.806083 
L 520.218128 370.195027 
L 520.851849 356.754874 
L 521.027458 355.722861 
L 521.248878 355.735794 
L 521.32523 356.079635 
L 521.393947 357.777265 
L 521.447393 366.584232 
L 521.53138 385.350045 
L 521.584827 377.493201 
L 521.752801 359.345494 
L 521.951315 357.747144 
L 522.14983 357.495053 
L 522.287264 357.66461 
L 522.432332 358.312248 
L 522.569766 360.089506 
L 522.714834 365.694677 
L 522.806456 367.79962 
L 522.852267 367.303597 
L 522.920984 361.684527 
L 523.104229 352.8739 
L 523.15004 352.541627 
L 523.264567 421.942301 
L 523.928829 540.745701 
L 523.951734 542.495579 
L 524.005181 538.077243 
L 524.234236 507.044872 
L 524.715253 400.473982 
L 524.845051 414.654277 
L 526.013234 538.89795 
L 526.181209 545.758895 
L 526.234655 544.740029 
L 526.65459 534.69511 
L 527.112701 517.936796 
L 527.6548 489.093335 
L 528.364872 438.56316 
L 528.807713 374.010622 
L 529.120755 356.260457 
L 529.204742 353.969918 
L 529.242918 355.840698 
L 529.410892 370.938612 
L 529.609407 413.217999 
L 529.73157 451.141849 
L 529.823192 444.653798 
L 530.441642 405.630523 
L 530.464548 408.030545 
L 531.709083 544.259039 
L 532.052667 553.89567 
L 532.106113 554.799238 
L 532.144289 553.637555 
L 532.327533 542.982594 
L 532.526048 516.428837 
L 532.839091 436.03881 
L 533.045241 389.130157 
L 533.091052 395.947811 
L 533.472811 473.092673 
L 533.762948 523.753863 
L 533.801124 519.48528 
L 534.129437 465.503788 
L 534.640995 380.762515 
L 534.656265 383.297591 
L 534.908226 447.795789 
L 535.244175 530.613991 
L 535.274715 528.870116 
L 535.656475 501.653995 
L 536.274925 437.807122 
L 536.878104 385.073028 
L 537.343851 405.07484 
L 538.069193 446.144773 
L 539.252647 512.262852 
L 539.733664 529.836228 
L 539.75657 529.301212 
L 540.382655 513.655672 
L 541.107998 489.408359 
L 542.321992 439.629208 
L 543.26112 404.046481 
L 543.284026 404.148869 
L 548.19345 450.076562 
L 552.354627 477.442071 
L 552.400438 477.376691 
L 552.583682 476.727267 
L 553.347201 473.850608 
L 556.477627 462.226381 
L 556.56925 462.440023 
L 557.088442 464.061929 
L 560.0738 473.038037 
L 560.844954 480.351436 
L 562.837737 497.860977 
L 563.13551 500.30282 
L 563.16605 499.777698 
L 563.7845 485.591187 
L 565.380254 444.520188 
L 565.952893 430.173963 
L 566.029245 430.409415 
L 566.487356 432.118886 
L 570.900494 448.13589 
L 576.703235 469.517461 
L 576.787223 469.346464 
L 577.069724 468.075898 
L 581.337793 450.622655 
L 584.414774 438.300514 
L 584.437679 438.313607 
L 584.582748 438.58954 
L 585.010318 439.386097 
L 590.110622 447.905178 
L 590.263326 448.111746 
L 590.293867 448.085403 
L 590.393124 447.709031 
L 593.179967 432.346167 
L 595.210927 422.115739 
L 595.959175 421.734542 
L 602.800302 418.110907 
L 602.823207 418.170504 
L 603.189696 419.901692 
L 605.915458 432.46424 
L 608.702301 446.005024 
L 608.816828 445.719917 
L 610.175892 439.841302 
L 613.573549 426.05652 
L 613.581185 426.059738 
L 613.665172 426.272421 
L 614.489772 429.165919 
L 617.643104 439.962082 
L 617.749996 439.737428 
L 618.452433 436.972808 
L 622.773949 421.353778 
L 622.842665 421.297085 
L 622.888477 421.351831 
L 623.407669 422.617029 
L 626.965666 430.763897 
L 627.11837 431.050341 
L 627.156546 431.022792 
L 628.217837 429.990162 
L 634.684839 423.819916 
L 638.128308 420.730539 
L 639.609534 420.239547 
L 645.900928 418.035829 
L 658.437903 411.166695 
L 671.570424 404.21284 
L 689.398583 391.636257 
L 693.475773 388.100038 
L 697.171203 385.490214 
L 699.393042 384.249708 
L 700.385616 383.931161 
L 701.599611 383.793021 
L 703.83672 383.827184 
L 706.394508 383.888493 
L 707.150391 383.587236 
L 708.318575 382.86648 
L 713.533407 379.368098 
L 715.404027 378.649948 
L 718.015261 377.562471 
L 720.244735 376.419242 
L 722.329141 375.828193 
L 724.131045 375.24459 
L 725.131255 374.963603 
L 727.368364 374.450593 
L 729.429864 373.743221 
L 731.323391 372.865925 
L 732.033463 372.276241 
L 733.194011 370.96773 
L 735.255511 368.370594 
L 736.24045 367.109586 
L 739.332701 363.8925 
L 742.913603 360.8829 
L 745.227065 358.869951 
L 747.807758 356.679067 
L 750.144124 354.993276 
L 753.740297 352.37869 
L 755.29024 351.061473 
L 756.702749 349.492966 
L 766.712478 337.638898 
L 769.529862 334.173001 
L 774.340029 327.979224 
L 783.891647 314.674685 
L 787.90012 308.607548 
L 790.900748 303.686191 
L 793.679956 298.703706 
L 796.420988 293.32402 
L 799.047492 287.671082 
L 801.658726 281.505239 
L 804.193607 274.916585 
L 806.675043 267.843113 
L 809.133573 260.155581 
L 811.569197 251.800035 
L 813.997186 242.666573 
L 816.41754 232.685023 
L 818.822624 221.813255 
L 821.242978 209.829552 
L 823.663332 196.710425 
L 826.083686 182.346762 
L 828.496405 166.669874 
L 830.909124 149.511279 
L 833.314207 130.784433 
L 835.719291 110.284054 
L 838.124375 87.842613 
L 839.903373 69.887213 
L 839.903373 69.887213 
" clip-path="url(#p968f8b11b1)" style="fill: none; stroke: #de0c62; stroke-width: 5; stroke-linecap: square"/>
   </g>
   <g id="patch_3">
    <path d="M 76.4 560.571 
L 76.4 62.234 
" style="fill: none; stroke: #000000; stroke-width: 0.8; stroke-linejoin: miter; stroke-linecap: square"/>
   </g>
   <g id="patch_4">
    <path d="M 844 560.571 
L 844 62.234 
" style="fill: none; stroke: #000000; stroke-width: 0.8; stroke-linejoin: miter; stroke-linecap: square"/>
   </g>
   <g id="patch_5">
    <path d="M 76.4 560.571 
L 844 560.571 
" style="fill: none; stroke: #000000; stroke-width: 0.8; stroke-linejoin: miter; stroke-linecap: square"/>
   </g>
   <g id="patch_6">
    <path d="M 76.4 62.234 
L 844 62.234 
" style="fill: none; stroke: #000000; stroke-width: 0.8; stroke-linejoin: miter; stroke-linecap: square"/>
   </g>
   <g id="text_18">
    <!-- Neutron reproduction factor -->
    <g transform="translate(242.957813 43.775575) scale(0.3 -0.3)">
     <use xlink:href="#DejaVuSerif-4e"/>
     <use xlink:href="#DejaVuSerif-65" transform="translate(87.5 0)"/>
     <use xlink:href="#DejaVuSerif-75" transform="translate(146.679688 0)"/>
     <use xlink:href="#DejaVuSerif-74" transform="translate(211.083984 0)"/>
     <use xlink:href="#DejaVuSerif-72" transform="translate(251.269531 0)"/>
     <use xlink:href="#DejaVuSerif-6f" transform="translate(299.072266 0)"/>
     <use xlink:href="#DejaVuSerif-6e" transform="translate(359.277344 0)"/>
     <use xlink:href="#DejaVuSerif-20" transform="translate(423.681641 0)"/>
     <use xlink:href="#DejaVuSerif-72" transform="translate(455.46875 0)"/>
     <use xlink:href="#DejaVuSerif-65" transform="translate(503.271484 0)"/>
     <use xlink:href="#DejaVuSerif-70" transform="translate(562.451172 0)"/>
     <use xlink:href="#DejaVuSerif-72" transform="translate(626.464844 0)"/>
     <use xlink:href="#DejaVuSerif-6f" transform="translate(674.267578 0)"/>
     <use xlink:href="#DejaVuSerif-64" transform="translate(734.472656 0)"/>
     <use xlink:href="#DejaVuSerif-75" transform="translate(798.486328 0)"/>
     <use xlink:href="#DejaVuSerif-63" transform="translate(862.890625 0)"/>
     <use xlink:href="#DejaVuSerif-74" transform="translate(918.896484 0)"/>
     <use xlink:href="#DejaVuSerif-69" transform="translate(959.082031 0)"/>
     <use xlink:href="#DejaVuSerif-6f" transform="translate(991.064453 0)"/>
     <use xlink:href="#DejaVuSerif-6e" transform="translate(1051.269531 0)"/>
     <use xlink:href="#DejaVuSerif-20" transform="translate(1115.673828 0)"/>
     <use xlink:href="#DejaVuSerif-66" transform="translate(1147.460938 0)"/>
     <use xlink:href="#DejaVuSerif-61" transform="translate(1184.472656 0)"/>
     <use xlink:href="#DejaVuSerif-63" transform="translate(1244.091797 0)"/>
     <use xlink:href="#DejaVuSerif-74" transform="translate(1300.097656 0)"/>
     <use xlink:href="#DejaVuSerif-6f" transform="translate(1340.283203 0)"/>
     <use xlink:href="#DejaVuSerif-72" transform="translate(1400.488281 0)"/>
    </g>
   </g>
   <g id="legend_1">
    <g id="patch_7">
     <path d="M 721.6 107.59025 
L 830 107.59025 
Q 834 107.59025 834 103.59025 
L 834 76.234 
Q 834 72.234 830 72.234 
L 721.6 72.234 
Q 717.6 72.234 717.6 76.234 
L 717.6 103.59025 
Q 717.6 107.59025 721.6 107.59025 
z
" style="fill: #ffffff; opacity: 0.95; stroke: #cccccc; stroke-linejoin: miter"/>
    </g>
    <g id="line2d_32">
     <path d="M 725.6 88.430875 
L 745.6 88.430875 
L 765.6 88.430875 
" style="fill: none; stroke: #de0c62; stroke-width: 5; stroke-linecap: square"/>
    </g>
    <g id="text_19">
     <!-- $\mathrm{^{232}U}$ -->
     <g transform="translate(781.6 95.430875) scale(0.2 -0.2)">
      <defs>
       <path id="DejaVuSerif-55" d="M 897 4331 
L 300 4331 
L 300 4666 
L 2125 4666 
L 2125 4331 
L 1528 4331 
L 1528 1919 
Q 1528 1025 1820 672 
Q 2113 319 2828 319 
Q 3544 319 3836 672 
Q 4128 1025 4128 1919 
L 4128 4331 
L 3531 4331 
L 3531 4666 
L 5106 4666 
L 5106 4331 
L 4513 4331 
L 4513 1856 
Q 4513 791 4103 350 
Q 3694 -91 2713 -91 
Q 1731 -91 1314 353 
Q 897 797 897 1856 
L 897 4331 
z
" transform="scale(0.015625)"/>
      </defs>
      <use xlink:href="#DejaVuSerif-32" transform="translate(0.908359 37.046875) scale(0.7)"/>
      <use xlink:href="#DejaVuSerif-33" transform="translate(45.444492 37.046875) scale(0.7)"/>
      <use xlink:href="#DejaVuSerif-32" transform="translate(89.980625 37.046875) scale(0.7)"/>
      <use xlink:href="#DejaVuSerif-55" transform="translate(137.11207 0.7125)"/>
     </g>
    </g>
   </g>
  </g>
 </g>
 <defs>
  <clipPath id="p968f8b11b1">
   <rect x="76.4" y="62.234" width="767.6" height="498.337"/>
  </clipPath>
 </defs>
</svg>
