<?xml version="1.0" encoding="utf-8" standalone="no"?>
<!DOCTYPE svg PUBLIC "-//W3C//DTD SVG 1.1//EN"
  "http://www.w3.org/Graphics/SVG/1.1/DTD/svg11.dtd">
<svg xmlns:xlink="http://www.w3.org/1999/xlink" width="864pt" height="648pt" viewBox="0 0 864 648" xmlns="http://www.w3.org/2000/svg" version="1.1">
 <metadata>
  <rdf:RDF xmlns:dc="http://purl.org/dc/elements/1.1/" xmlns:cc="http://creativecommons.org/ns#" xmlns:rdf="http://www.w3.org/1999/02/22-rdf-syntax-ns#">
   <cc:Work>
    <dc:type rdf:resource="http://purl.org/dc/dcmitype/StillImage"/>
    <dc:date>2025-10-21T14:38:25.575489</dc:date>
    <dc:format>image/svg+xml</dc:format>
    <dc:creator>
     <cc:Agent>
      <dc:title>Matplotlib v3.10.7, https://matplotlib.org/</dc:title>
     </cc:Agent>
    </dc:creator>
   </cc:Work>
  </rdf:RDF>
 </metadata>
 <defs>
  <style type="text/css">*{stroke-linejoin: round; stroke-linecap: butt}</style>
 </defs>
 <g id="figure_1">
  <g id="patch_1">
   <path d="M 0 648 
L 864 648 
L 864 0 
L 0 0 
z
" style="fill: #ffffff; stroke: #000000; stroke-width: 3; stroke-linejoin: miter"/>
  </g>
  <g id="axes_1">
   <g id="patch_2">
    <path d="M 76.4 560.571 
L 844 560.571 
L 844 62.234 
L 76.4 62.234 
L 76.4 560.571 
z
" style="fill: none"/>
   </g>
   <g id="matplotlib.axis_1">
    <g id="xtick_1">
     <g id="line2d_1">
      <path d="M 76.4 560.571 
L 76.4 62.234 
" clip-path="url(#p6376c4ef16)" style="fill: none; stroke-dasharray: 4.625,2; stroke-dashoffset: 0; stroke: #343837; stroke-opacity: 0.8; stroke-width: 1.25"/>
     </g>
     <g id="line2d_2">
      <defs>
       <path id="m43a233ba8c" d="M 0 0 
L 0 3.5 
" style="stroke: #000000; stroke-width: 0.8"/>
      </defs>
      <g>
       <use xlink:href="#m43a233ba8c" x="76.4" y="560.571" style="stroke: #000000; stroke-width: 0.8"/>
      </g>
     </g>
     <g id="text_1">
      <!-- $\mathdefault{10^{-11}}$ -->
      <g transform="translate(45.71 584.287562) scale(0.22 -0.22)">
       <defs>
        <path id="DejaVuSerif-31" d="M 909 0 
L 909 331 
L 1722 331 
L 1722 4213 
L 781 3603 
L 781 4013 
L 1919 4750 
L 2350 4750 
L 2350 331 
L 3163 331 
L 3163 0 
L 909 0 
z
" transform="scale(0.015625)"/>
        <path id="DejaVuSerif-30" d="M 2034 219 
Q 2513 219 2750 744 
Q 2988 1269 2988 2328 
Q 2988 3391 2750 3916 
Q 2513 4441 2034 4441 
Q 1556 4441 1318 3916 
Q 1081 3391 1081 2328 
Q 1081 1269 1318 744 
Q 1556 219 2034 219 
z
M 2034 -91 
Q 1275 -91 848 546 
Q 422 1184 422 2328 
Q 422 3475 848 4112 
Q 1275 4750 2034 4750 
Q 2797 4750 3222 4112 
Q 3647 3475 3647 2328 
Q 3647 1184 3222 546 
Q 2797 -91 2034 -91 
z
" transform="scale(0.015625)"/>
        <path id="DejaVuSerif-2212" d="M 678 2259 
L 4684 2259 
L 4684 1753 
L 678 1753 
L 678 2259 
z
" transform="scale(0.015625)"/>
       </defs>
       <use xlink:href="#DejaVuSerif-31" transform="translate(0 0.7125)"/>
       <use xlink:href="#DejaVuSerif-30" transform="translate(63.623047 0.7125)"/>
       <use xlink:href="#DejaVuSerif-2212" transform="translate(128.154453 37.046875) scale(0.7)"/>
       <use xlink:href="#DejaVuSerif-31" transform="translate(186.806797 37.046875) scale(0.7)"/>
       <use xlink:href="#DejaVuSerif-31" transform="translate(231.34293 37.046875) scale(0.7)"/>
      </g>
     </g>
    </g>
    <g id="xtick_2">
     <g id="line2d_3">
      <path d="M 198.78454 560.571 
L 198.78454 62.234 
" clip-path="url(#p6376c4ef16)" style="fill: none; stroke-dasharray: 4.625,2; stroke-dashoffset: 0; stroke: #343837; stroke-opacity: 0.8; stroke-width: 1.25"/>
     </g>
     <g id="line2d_4">
      <g>
       <use xlink:href="#m43a233ba8c" x="198.78454" y="560.571" style="stroke: #000000; stroke-width: 0.8"/>
      </g>
     </g>
     <g id="text_2">
      <!-- $\mathdefault{10^{-9}}$ -->
      <g transform="translate(173.04454 584.287562) scale(0.22 -0.22)">
       <defs>
        <path id="DejaVuSerif-39" d="M 2994 2091 
Q 2784 1856 2512 1740 
Q 2241 1625 1900 1625 
Q 1206 1625 804 2044 
Q 403 2463 403 3188 
Q 403 3897 839 4323 
Q 1275 4750 2003 4750 
Q 2794 4750 3217 4161 
Q 3641 3572 3641 2478 
Q 3641 1253 3137 581 
Q 2634 -91 1722 -91 
Q 1475 -91 1203 -44 
Q 931 3 647 97 
L 647 872 
L 997 872 
Q 1038 556 1241 387 
Q 1444 219 1784 219 
Q 2391 219 2687 676 
Q 2984 1134 2994 2091 
z
M 1978 4441 
Q 1534 4441 1298 4117 
Q 1063 3794 1063 3188 
Q 1063 2581 1298 2256 
Q 1534 1931 1978 1931 
Q 2422 1931 2658 2245 
Q 2894 2559 2894 3150 
Q 2894 3772 2656 4106 
Q 2419 4441 1978 4441 
z
" transform="scale(0.015625)"/>
       </defs>
       <use xlink:href="#DejaVuSerif-31" transform="translate(0 0.7125)"/>
       <use xlink:href="#DejaVuSerif-30" transform="translate(63.623047 0.7125)"/>
       <use xlink:href="#DejaVuSerif-2212" transform="translate(128.154453 37.046875) scale(0.7)"/>
       <use xlink:href="#DejaVuSerif-39" transform="translate(186.806797 37.046875) scale(0.7)"/>
      </g>
     </g>
    </g>
    <g id="xtick_3">
     <g id="line2d_5">
      <path d="M 321.16908 560.571 
L 321.16908 62.234 
" clip-path="url(#p6376c4ef16)" style="fill: none; stroke-dasharray: 4.625,2; stroke-dashoffset: 0; stroke: #343837; stroke-opacity: 0.8; stroke-width: 1.25"/>
     </g>
     <g id="line2d_6">
      <g>
       <use xlink:href="#m43a233ba8c" x="321.16908" y="560.571" style="stroke: #000000; stroke-width: 0.8"/>
      </g>
     </g>
     <g id="text_3">
      <!-- $\mathdefault{10^{-7}}$ -->
      <g transform="translate(295.42908 584.287562) scale(0.22 -0.22)">
       <defs>
        <path id="DejaVuSerif-37" d="M 3609 4347 
L 1784 0 
L 1319 0 
L 3059 4153 
L 903 4153 
L 903 3578 
L 538 3578 
L 538 4666 
L 3609 4666 
L 3609 4347 
z
" transform="scale(0.015625)"/>
       </defs>
       <use xlink:href="#DejaVuSerif-31" transform="translate(0 0.63125)"/>
       <use xlink:href="#DejaVuSerif-30" transform="translate(63.623047 0.63125)"/>
       <use xlink:href="#DejaVuSerif-2212" transform="translate(128.154453 36.965625) scale(0.7)"/>
       <use xlink:href="#DejaVuSerif-37" transform="translate(186.806797 36.965625) scale(0.7)"/>
      </g>
     </g>
    </g>
    <g id="xtick_4">
     <g id="line2d_7">
      <path d="M 443.553621 560.571 
L 443.553621 62.234 
" clip-path="url(#p6376c4ef16)" style="fill: none; stroke-dasharray: 4.625,2; stroke-dashoffset: 0; stroke: #343837; stroke-opacity: 0.8; stroke-width: 1.25"/>
     </g>
     <g id="line2d_8">
      <g>
       <use xlink:href="#m43a233ba8c" x="443.553621" y="560.571" style="stroke: #000000; stroke-width: 0.8"/>
      </g>
     </g>
     <g id="text_4">
      <!-- $\mathdefault{10^{-5}}$ -->
      <g transform="translate(417.813621 584.287562) scale(0.22 -0.22)">
       <defs>
        <path id="DejaVuSerif-35" d="M 3219 4666 
L 3219 4153 
L 1081 4153 
L 1081 2816 
Q 1244 2928 1461 2984 
Q 1678 3041 1947 3041 
Q 2703 3041 3140 2622 
Q 3578 2203 3578 1478 
Q 3578 738 3136 323 
Q 2694 -91 1894 -91 
Q 1572 -91 1234 -12 
Q 897 66 544 225 
L 544 1131 
L 897 1131 
Q 925 688 1179 453 
Q 1434 219 1894 219 
Q 2388 219 2653 544 
Q 2919 869 2919 1478 
Q 2919 2084 2655 2407 
Q 2391 2731 1894 2731 
Q 1613 2731 1398 2631 
Q 1184 2531 1019 2322 
L 750 2322 
L 750 4666 
L 3219 4666 
z
" transform="scale(0.015625)"/>
       </defs>
       <use xlink:href="#DejaVuSerif-31" transform="translate(0 0.63125)"/>
       <use xlink:href="#DejaVuSerif-30" transform="translate(63.623047 0.63125)"/>
       <use xlink:href="#DejaVuSerif-2212" transform="translate(128.154453 36.965625) scale(0.7)"/>
       <use xlink:href="#DejaVuSerif-35" transform="translate(186.806797 36.965625) scale(0.7)"/>
      </g>
     </g>
    </g>
    <g id="xtick_5">
     <g id="line2d_9">
      <path d="M 565.938161 560.571 
L 565.938161 62.234 
" clip-path="url(#p6376c4ef16)" style="fill: none; stroke-dasharray: 4.625,2; stroke-dashoffset: 0; stroke: #343837; stroke-opacity: 0.8; stroke-width: 1.25"/>
     </g>
     <g id="line2d_10">
      <g>
       <use xlink:href="#m43a233ba8c" x="565.938161" y="560.571" style="stroke: #000000; stroke-width: 0.8"/>
      </g>
     </g>
     <g id="text_5">
      <!-- $\mathdefault{10^{-3}}$ -->
      <g transform="translate(540.198161 584.287562) scale(0.22 -0.22)">
       <defs>
        <path id="DejaVuSerif-33" d="M 622 4469 
Q 988 4606 1323 4678 
Q 1659 4750 1953 4750 
Q 2638 4750 3022 4454 
Q 3406 4159 3406 3634 
Q 3406 3213 3140 2930 
Q 2875 2647 2388 2547 
Q 2963 2466 3280 2130 
Q 3597 1794 3597 1259 
Q 3597 606 3158 257 
Q 2719 -91 1894 -91 
Q 1528 -91 1179 -12 
Q 831 66 488 225 
L 488 1131 
L 838 1131 
Q 869 681 1141 450 
Q 1413 219 1906 219 
Q 2384 219 2661 495 
Q 2938 772 2938 1253 
Q 2938 1803 2653 2086 
Q 2369 2369 1819 2369 
L 1522 2369 
L 1522 2688 
L 1678 2688 
Q 2225 2688 2498 2914 
Q 2772 3141 2772 3597 
Q 2772 4006 2547 4223 
Q 2322 4441 1900 4441 
Q 1478 4441 1245 4241 
Q 1013 4041 972 3647 
L 622 3647 
L 622 4469 
z
" transform="scale(0.015625)"/>
       </defs>
       <use xlink:href="#DejaVuSerif-31" transform="translate(0 0.7125)"/>
       <use xlink:href="#DejaVuSerif-30" transform="translate(63.623047 0.7125)"/>
       <use xlink:href="#DejaVuSerif-2212" transform="translate(128.154453 37.046875) scale(0.7)"/>
       <use xlink:href="#DejaVuSerif-33" transform="translate(186.806797 37.046875) scale(0.7)"/>
      </g>
     </g>
    </g>
    <g id="xtick_6">
     <g id="line2d_11">
      <path d="M 688.322701 560.571 
L 688.322701 62.234 
" clip-path="url(#p6376c4ef16)" style="fill: none; stroke-dasharray: 4.625,2; stroke-dashoffset: 0; stroke: #343837; stroke-opacity: 0.8; stroke-width: 1.25"/>
     </g>
     <g id="line2d_12">
      <g>
       <use xlink:href="#m43a233ba8c" x="688.322701" y="560.571" style="stroke: #000000; stroke-width: 0.8"/>
      </g>
     </g>
     <g id="text_6">
      <!-- $\mathdefault{10^{-1}}$ -->
      <g transform="translate(662.582701 584.287562) scale(0.22 -0.22)">
       <use xlink:href="#DejaVuSerif-31" transform="translate(0 0.7125)"/>
       <use xlink:href="#DejaVuSerif-30" transform="translate(63.623047 0.7125)"/>
       <use xlink:href="#DejaVuSerif-2212" transform="translate(128.154453 37.046875) scale(0.7)"/>
       <use xlink:href="#DejaVuSerif-31" transform="translate(186.806797 37.046875) scale(0.7)"/>
      </g>
     </g>
    </g>
    <g id="xtick_7">
     <g id="line2d_13">
      <path d="M 810.707241 560.571 
L 810.707241 62.234 
" clip-path="url(#p6376c4ef16)" style="fill: none; stroke-dasharray: 4.625,2; stroke-dashoffset: 0; stroke: #343837; stroke-opacity: 0.8; stroke-width: 1.25"/>
     </g>
     <g id="line2d_14">
      <g>
       <use xlink:href="#m43a233ba8c" x="810.707241" y="560.571" style="stroke: #000000; stroke-width: 0.8"/>
      </g>
     </g>
     <g id="text_7">
      <!-- $\mathdefault{10^{1}}$ -->
      <g transform="translate(791.347241 584.287562) scale(0.22 -0.22)">
       <use xlink:href="#DejaVuSerif-31" transform="translate(0 0.7125)"/>
       <use xlink:href="#DejaVuSerif-30" transform="translate(63.623047 0.7125)"/>
       <use xlink:href="#DejaVuSerif-31" transform="translate(128.154453 37.046875) scale(0.7)"/>
      </g>
     </g>
    </g>
    <g id="text_8">
     <!-- Energy of incident neutron (MeV) -->
     <g transform="translate(237.400313 620.618812) scale(0.26 -0.26)">
      <defs>
       <path id="DejaVuSerif-45" d="M 353 0 
L 353 331 
L 947 331 
L 947 4331 
L 353 4331 
L 353 4666 
L 4109 4666 
L 4109 3628 
L 3725 3628 
L 3725 4281 
L 1581 4281 
L 1581 2719 
L 3109 2719 
L 3109 3303 
L 3494 3303 
L 3494 1753 
L 3109 1753 
L 3109 2338 
L 1581 2338 
L 1581 384 
L 3775 384 
L 3775 1038 
L 4159 1038 
L 4159 0 
L 353 0 
z
" transform="scale(0.015625)"/>
       <path id="DejaVuSerif-6e" d="M 263 0 
L 263 331 
L 781 331 
L 781 2988 
L 231 2988 
L 231 3322 
L 1356 3322 
L 1356 2731 
Q 1516 3069 1770 3241 
Q 2025 3413 2363 3413 
Q 2913 3413 3172 3097 
Q 3431 2781 3431 2113 
L 3431 331 
L 3944 331 
L 3944 0 
L 2356 0 
L 2356 331 
L 2853 331 
L 2853 1931 
Q 2853 2541 2703 2767 
Q 2553 2994 2175 2994 
Q 1775 2994 1565 2701 
Q 1356 2409 1356 1850 
L 1356 331 
L 1856 331 
L 1856 0 
L 263 0 
z
" transform="scale(0.015625)"/>
       <path id="DejaVuSerif-65" d="M 3469 1600 
L 991 1600 
L 991 1575 
Q 991 903 1244 561 
Q 1497 219 1991 219 
Q 2369 219 2611 417 
Q 2853 616 2950 1006 
L 3413 1006 
Q 3275 459 2904 184 
Q 2534 -91 1931 -91 
Q 1203 -91 761 389 
Q 319 869 319 1663 
Q 319 2450 753 2931 
Q 1188 3413 1894 3413 
Q 2647 3413 3050 2948 
Q 3453 2484 3469 1600 
z
M 2791 1931 
Q 2772 2513 2545 2808 
Q 2319 3103 1894 3103 
Q 1497 3103 1269 2806 
Q 1041 2509 991 1931 
L 2791 1931 
z
" transform="scale(0.015625)"/>
       <path id="DejaVuSerif-72" d="M 3059 3328 
L 3059 2497 
L 2728 2497 
Q 2713 2744 2591 2866 
Q 2469 2988 2234 2988 
Q 1809 2988 1582 2694 
Q 1356 2400 1356 1850 
L 1356 331 
L 2022 331 
L 2022 0 
L 263 0 
L 263 331 
L 781 331 
L 781 2994 
L 231 2994 
L 231 3322 
L 1356 3322 
L 1356 2731 
Q 1525 3078 1790 3245 
Q 2056 3413 2438 3413 
Q 2578 3413 2733 3391 
Q 2888 3369 3059 3328 
z
" transform="scale(0.015625)"/>
       <path id="DejaVuSerif-67" d="M 3359 2988 
L 3359 72 
Q 3359 -644 2965 -1033 
Q 2572 -1422 1844 -1422 
Q 1516 -1422 1216 -1362 
Q 916 -1303 641 -1184 
L 641 -488 
L 941 -488 
Q 997 -813 1206 -963 
Q 1416 -1113 1806 -1113 
Q 2313 -1113 2548 -827 
Q 2784 -541 2784 72 
L 2784 519 
Q 2616 206 2355 57 
Q 2094 -91 1709 -91 
Q 1097 -91 708 395 
Q 319 881 319 1663 
Q 319 2444 706 2928 
Q 1094 3413 1709 3413 
Q 2094 3413 2355 3264 
Q 2616 3116 2784 2803 
L 2784 3322 
L 3909 3322 
L 3909 2988 
L 3359 2988 
z
M 2784 1825 
Q 2784 2422 2554 2737 
Q 2325 3053 1888 3053 
Q 1444 3053 1217 2703 
Q 991 2353 991 1663 
Q 991 975 1217 622 
Q 1444 269 1888 269 
Q 2325 269 2554 583 
Q 2784 897 2784 1497 
L 2784 1825 
z
" transform="scale(0.015625)"/>
       <path id="DejaVuSerif-79" d="M 1381 -609 
L 1600 -56 
L 359 2988 
L -19 2988 
L -19 3322 
L 1509 3322 
L 1509 2988 
L 978 2988 
L 1913 703 
L 2847 2988 
L 2350 2988 
L 2350 3322 
L 3597 3322 
L 3597 2988 
L 3225 2988 
L 1703 -750 
Q 1547 -1138 1356 -1280 
Q 1166 -1422 819 -1422 
Q 672 -1422 517 -1397 
Q 363 -1372 206 -1325 
L 206 -691 
L 500 -691 
Q 519 -903 608 -995 
Q 697 -1088 884 -1088 
Q 1056 -1088 1161 -992 
Q 1266 -897 1381 -609 
z
" transform="scale(0.015625)"/>
       <path id="DejaVuSerif-20" transform="scale(0.015625)"/>
       <path id="DejaVuSerif-6f" d="M 1925 219 
Q 2388 219 2623 584 
Q 2859 950 2859 1663 
Q 2859 2375 2623 2739 
Q 2388 3103 1925 3103 
Q 1463 3103 1227 2739 
Q 991 2375 991 1663 
Q 991 950 1228 584 
Q 1466 219 1925 219 
z
M 1925 -91 
Q 1200 -91 759 389 
Q 319 869 319 1663 
Q 319 2456 758 2934 
Q 1197 3413 1925 3413 
Q 2653 3413 3092 2934 
Q 3531 2456 3531 1663 
Q 3531 869 3092 389 
Q 2653 -91 1925 -91 
z
" transform="scale(0.015625)"/>
       <path id="DejaVuSerif-66" d="M 2753 4078 
L 2450 4078 
Q 2447 4313 2317 4434 
Q 2188 4556 1941 4556 
Q 1619 4556 1487 4379 
Q 1356 4203 1356 3750 
L 1356 3322 
L 2284 3322 
L 2284 2988 
L 1356 2988 
L 1356 331 
L 2094 331 
L 2094 0 
L 231 0 
L 231 331 
L 781 331 
L 781 2988 
L 231 2988 
L 231 3322 
L 781 3322 
L 781 3738 
Q 781 4294 1070 4578 
Q 1359 4863 1919 4863 
Q 2128 4863 2337 4825 
Q 2547 4788 2753 4709 
L 2753 4078 
z
" transform="scale(0.015625)"/>
       <path id="DejaVuSerif-69" d="M 622 4353 
Q 622 4497 726 4603 
Q 831 4709 978 4709 
Q 1122 4709 1226 4603 
Q 1331 4497 1331 4353 
Q 1331 4206 1228 4103 
Q 1125 4000 978 4000 
Q 831 4000 726 4103 
Q 622 4206 622 4353 
z
M 1356 331 
L 1900 331 
L 1900 0 
L 231 0 
L 231 331 
L 781 331 
L 781 2988 
L 231 2988 
L 231 3322 
L 1356 3322 
L 1356 331 
z
" transform="scale(0.015625)"/>
       <path id="DejaVuSerif-63" d="M 3291 997 
Q 3169 466 2822 187 
Q 2475 -91 1925 -91 
Q 1200 -91 759 389 
Q 319 869 319 1663 
Q 319 2459 759 2936 
Q 1200 3413 1925 3413 
Q 2241 3413 2553 3339 
Q 2866 3266 3181 3116 
L 3181 2266 
L 2847 2266 
Q 2781 2703 2561 2903 
Q 2341 3103 1931 3103 
Q 1466 3103 1228 2742 
Q 991 2381 991 1663 
Q 991 944 1227 581 
Q 1463 219 1931 219 
Q 2303 219 2525 412 
Q 2747 606 2828 997 
L 3291 997 
z
" transform="scale(0.015625)"/>
       <path id="DejaVuSerif-64" d="M 3359 331 
L 3909 331 
L 3909 0 
L 2784 0 
L 2784 519 
Q 2616 206 2355 57 
Q 2094 -91 1709 -91 
Q 1097 -91 708 395 
Q 319 881 319 1663 
Q 319 2444 706 2928 
Q 1094 3413 1709 3413 
Q 2094 3413 2355 3264 
Q 2616 3116 2784 2803 
L 2784 4531 
L 2241 4531 
L 2241 4863 
L 3359 4863 
L 3359 331 
z
M 2784 1497 
L 2784 1825 
Q 2784 2422 2554 2737 
Q 2325 3053 1888 3053 
Q 1444 3053 1217 2703 
Q 991 2353 991 1663 
Q 991 975 1217 622 
Q 1444 269 1888 269 
Q 2325 269 2554 583 
Q 2784 897 2784 1497 
z
" transform="scale(0.015625)"/>
       <path id="DejaVuSerif-74" d="M 691 2988 
L 184 2988 
L 184 3322 
L 691 3322 
L 691 4353 
L 1269 4353 
L 1269 3322 
L 2350 3322 
L 2350 2988 
L 1269 2988 
L 1269 878 
Q 1269 456 1350 337 
Q 1431 219 1650 219 
Q 1875 219 1978 351 
Q 2081 484 2088 781 
L 2522 781 
Q 2497 328 2275 118 
Q 2053 -91 1600 -91 
Q 1103 -91 897 129 
Q 691 350 691 878 
L 691 2988 
z
" transform="scale(0.015625)"/>
       <path id="DejaVuSerif-75" d="M 2266 3322 
L 3341 3322 
L 3341 331 
L 3884 331 
L 3884 0 
L 2766 0 
L 2766 588 
Q 2606 256 2353 82 
Q 2100 -91 1766 -91 
Q 1213 -91 952 223 
Q 691 538 691 1209 
L 691 2988 
L 172 2988 
L 172 3322 
L 1269 3322 
L 1269 1388 
Q 1269 781 1417 556 
Q 1566 331 1947 331 
Q 2347 331 2556 625 
Q 2766 919 2766 1478 
L 2766 2988 
L 2266 2988 
L 2266 3322 
z
" transform="scale(0.015625)"/>
       <path id="DejaVuSerif-28" d="M 2041 -997 
Q 1281 -656 893 83 
Q 506 822 506 1931 
Q 506 3044 893 3783 
Q 1281 4522 2041 4863 
L 2041 4556 
Q 1559 4225 1350 3623 
Q 1141 3022 1141 1931 
Q 1141 844 1350 242 
Q 1559 -359 2041 -691 
L 2041 -997 
z
" transform="scale(0.015625)"/>
       <path id="DejaVuSerif-4d" d="M 353 0 
L 353 331 
L 947 331 
L 947 4331 
L 319 4331 
L 319 4666 
L 1678 4666 
L 3316 1344 
L 4953 4666 
L 6228 4666 
L 6228 4331 
L 5606 4331 
L 5606 331 
L 6203 331 
L 6203 0 
L 4378 0 
L 4378 331 
L 4972 331 
L 4972 3938 
L 3372 684 
L 2931 684 
L 1331 3938 
L 1331 331 
L 1925 331 
L 1925 0 
L 353 0 
z
" transform="scale(0.015625)"/>
       <path id="DejaVuSerif-56" d="M 1119 4331 
L 2497 750 
L 3872 4331 
L 3347 4331 
L 3347 4666 
L 4716 4666 
L 4716 4331 
L 4263 4331 
L 2597 0 
L 2059 0 
L 403 4331 
L -63 4331 
L -63 4666 
L 1638 4666 
L 1638 4331 
L 1119 4331 
z
" transform="scale(0.015625)"/>
       <path id="DejaVuSerif-29" d="M 453 -997 
L 453 -691 
Q 934 -359 1145 242 
Q 1356 844 1356 1931 
Q 1356 3022 1145 3623 
Q 934 4225 453 4556 
L 453 4863 
Q 1216 4522 1603 3783 
Q 1991 3044 1991 1931 
Q 1991 822 1603 83 
Q 1216 -656 453 -997 
z
" transform="scale(0.015625)"/>
      </defs>
      <use xlink:href="#DejaVuSerif-45"/>
      <use xlink:href="#DejaVuSerif-6e" transform="translate(72.998047 0)"/>
      <use xlink:href="#DejaVuSerif-65" transform="translate(137.402344 0)"/>
      <use xlink:href="#DejaVuSerif-72" transform="translate(196.582031 0)"/>
      <use xlink:href="#DejaVuSerif-67" transform="translate(244.384766 0)"/>
      <use xlink:href="#DejaVuSerif-79" transform="translate(308.398438 0)"/>
      <use xlink:href="#DejaVuSerif-20" transform="translate(364.892578 0)"/>
      <use xlink:href="#DejaVuSerif-6f" transform="translate(396.679688 0)"/>
      <use xlink:href="#DejaVuSerif-66" transform="translate(456.884766 0)"/>
      <use xlink:href="#DejaVuSerif-20" transform="translate(493.896484 0)"/>
      <use xlink:href="#DejaVuSerif-69" transform="translate(525.683594 0)"/>
      <use xlink:href="#DejaVuSerif-6e" transform="translate(557.666016 0)"/>
      <use xlink:href="#DejaVuSerif-63" transform="translate(622.070312 0)"/>
      <use xlink:href="#DejaVuSerif-69" transform="translate(678.076172 0)"/>
      <use xlink:href="#DejaVuSerif-64" transform="translate(710.058594 0)"/>
      <use xlink:href="#DejaVuSerif-65" transform="translate(774.072266 0)"/>
      <use xlink:href="#DejaVuSerif-6e" transform="translate(833.251953 0)"/>
      <use xlink:href="#DejaVuSerif-74" transform="translate(897.65625 0)"/>
      <use xlink:href="#DejaVuSerif-20" transform="translate(937.841797 0)"/>
      <use xlink:href="#DejaVuSerif-6e" transform="translate(969.628906 0)"/>
      <use xlink:href="#DejaVuSerif-65" transform="translate(1034.033203 0)"/>
      <use xlink:href="#DejaVuSerif-75" transform="translate(1093.212891 0)"/>
      <use xlink:href="#DejaVuSerif-74" transform="translate(1157.617188 0)"/>
      <use xlink:href="#DejaVuSerif-72" transform="translate(1197.802734 0)"/>
      <use xlink:href="#DejaVuSerif-6f" transform="translate(1245.605469 0)"/>
      <use xlink:href="#DejaVuSerif-6e" transform="translate(1305.810547 0)"/>
      <use xlink:href="#DejaVuSerif-20" transform="translate(1370.214844 0)"/>
      <use xlink:href="#DejaVuSerif-28" transform="translate(1402.001953 0)"/>
      <use xlink:href="#DejaVuSerif-4d" transform="translate(1441.015625 0)"/>
      <use xlink:href="#DejaVuSerif-65" transform="translate(1543.408203 0)"/>
      <use xlink:href="#DejaVuSerif-56" transform="translate(1602.587891 0)"/>
      <use xlink:href="#DejaVuSerif-29" transform="translate(1674.804688 0)"/>
     </g>
    </g>
   </g>
   <g id="matplotlib.axis_2">
    <g id="ytick_1">
     <g id="line2d_15">
      <path d="M 76.4 560.571 
L 844 560.571 
" clip-path="url(#p6376c4ef16)" style="fill: none; stroke-dasharray: 4.625,2; stroke-dashoffset: 0; stroke: #343837; stroke-opacity: 0.8; stroke-width: 1.25"/>
     </g>
     <g id="line2d_16">
      <defs>
       <path id="m4703d304be" d="M 0 0 
L -3.5 0 
" style="stroke: #000000; stroke-width: 0.8"/>
      </defs>
      <g>
       <use xlink:href="#m4703d304be" x="76.4" y="560.571" style="stroke: #000000; stroke-width: 0.8"/>
      </g>
     </g>
     <g id="text_9">
      <!-- 0 -->
      <g transform="translate(55.4025 568.929281) scale(0.22 -0.22)">
       <use xlink:href="#DejaVuSerif-30"/>
      </g>
     </g>
    </g>
    <g id="ytick_2">
     <g id="line2d_17">
      <path d="M 76.4 489.38 
L 844 489.38 
" clip-path="url(#p6376c4ef16)" style="fill: none; stroke-dasharray: 4.625,2; stroke-dashoffset: 0; stroke: #343837; stroke-opacity: 0.8; stroke-width: 1.25"/>
     </g>
     <g id="line2d_18">
      <g>
       <use xlink:href="#m4703d304be" x="76.4" y="489.38" style="stroke: #000000; stroke-width: 0.8"/>
      </g>
     </g>
     <g id="text_10">
      <!-- 1 -->
      <g transform="translate(55.4025 497.738281) scale(0.22 -0.22)">
       <use xlink:href="#DejaVuSerif-31"/>
      </g>
     </g>
    </g>
    <g id="ytick_3">
     <g id="line2d_19">
      <path d="M 76.4 418.189 
L 844 418.189 
" clip-path="url(#p6376c4ef16)" style="fill: none; stroke-dasharray: 4.625,2; stroke-dashoffset: 0; stroke: #343837; stroke-opacity: 0.8; stroke-width: 1.25"/>
     </g>
     <g id="line2d_20">
      <g>
       <use xlink:href="#m4703d304be" x="76.4" y="418.189" style="stroke: #000000; stroke-width: 0.8"/>
      </g>
     </g>
     <g id="text_11">
      <!-- 2 -->
      <g transform="translate(55.4025 426.547281) scale(0.22 -0.22)">
       <defs>
        <path id="DejaVuSerif-32" d="M 819 3553 
L 469 3553 
L 469 4384 
Q 803 4563 1142 4656 
Q 1481 4750 1806 4750 
Q 2534 4750 2956 4397 
Q 3378 4044 3378 3438 
Q 3378 2753 2422 1800 
Q 2347 1728 2309 1691 
L 1131 513 
L 3078 513 
L 3078 1088 
L 3444 1088 
L 3444 0 
L 434 0 
L 434 341 
L 1850 1753 
Q 2319 2222 2519 2614 
Q 2719 3006 2719 3438 
Q 2719 3909 2473 4175 
Q 2228 4441 1797 4441 
Q 1350 4441 1106 4219 
Q 863 3997 819 3553 
z
" transform="scale(0.015625)"/>
       </defs>
       <use xlink:href="#DejaVuSerif-32"/>
      </g>
     </g>
    </g>
    <g id="ytick_4">
     <g id="line2d_21">
      <path d="M 76.4 346.998 
L 844 346.998 
" clip-path="url(#p6376c4ef16)" style="fill: none; stroke-dasharray: 4.625,2; stroke-dashoffset: 0; stroke: #343837; stroke-opacity: 0.8; stroke-width: 1.25"/>
     </g>
     <g id="line2d_22">
      <g>
       <use xlink:href="#m4703d304be" x="76.4" y="346.998" style="stroke: #000000; stroke-width: 0.8"/>
      </g>
     </g>
     <g id="text_12">
      <!-- 3 -->
      <g transform="translate(55.4025 355.356281) scale(0.22 -0.22)">
       <use xlink:href="#DejaVuSerif-33"/>
      </g>
     </g>
    </g>
    <g id="ytick_5">
     <g id="line2d_23">
      <path d="M 76.4 275.807 
L 844 275.807 
" clip-path="url(#p6376c4ef16)" style="fill: none; stroke-dasharray: 4.625,2; stroke-dashoffset: 0; stroke: #343837; stroke-opacity: 0.8; stroke-width: 1.25"/>
     </g>
     <g id="line2d_24">
      <g>
       <use xlink:href="#m4703d304be" x="76.4" y="275.807" style="stroke: #000000; stroke-width: 0.8"/>
      </g>
     </g>
     <g id="text_13">
      <!-- 4 -->
      <g transform="translate(55.4025 284.165281) scale(0.22 -0.22)">
       <defs>
        <path id="DejaVuSerif-34" d="M 2234 1581 
L 2234 4063 
L 641 1581 
L 2234 1581 
z
M 3609 0 
L 1484 0 
L 1484 331 
L 2234 331 
L 2234 1247 
L 197 1247 
L 197 1588 
L 2241 4750 
L 2859 4750 
L 2859 1581 
L 3750 1581 
L 3750 1247 
L 2859 1247 
L 2859 331 
L 3609 331 
L 3609 0 
z
" transform="scale(0.015625)"/>
       </defs>
       <use xlink:href="#DejaVuSerif-34"/>
      </g>
     </g>
    </g>
    <g id="ytick_6">
     <g id="line2d_25">
      <path d="M 76.4 204.616 
L 844 204.616 
" clip-path="url(#p6376c4ef16)" style="fill: none; stroke-dasharray: 4.625,2; stroke-dashoffset: 0; stroke: #343837; stroke-opacity: 0.8; stroke-width: 1.25"/>
     </g>
     <g id="line2d_26">
      <g>
       <use xlink:href="#m4703d304be" x="76.4" y="204.616" style="stroke: #000000; stroke-width: 0.8"/>
      </g>
     </g>
     <g id="text_14">
      <!-- 5 -->
      <g transform="translate(55.4025 212.974281) scale(0.22 -0.22)">
       <use xlink:href="#DejaVuSerif-35"/>
      </g>
     </g>
    </g>
    <g id="ytick_7">
     <g id="line2d_27">
      <path d="M 76.4 133.425 
L 844 133.425 
" clip-path="url(#p6376c4ef16)" style="fill: none; stroke-dasharray: 4.625,2; stroke-dashoffset: 0; stroke: #343837; stroke-opacity: 0.8; stroke-width: 1.25"/>
     </g>
     <g id="line2d_28">
      <g>
       <use xlink:href="#m4703d304be" x="76.4" y="133.425" style="stroke: #000000; stroke-width: 0.8"/>
      </g>
     </g>
     <g id="text_15">
      <!-- 6 -->
      <g transform="translate(55.4025 141.783281) scale(0.22 -0.22)">
       <defs>
        <path id="DejaVuSerif-36" d="M 2094 219 
Q 2534 219 2771 542 
Q 3009 866 3009 1472 
Q 3009 2078 2771 2401 
Q 2534 2725 2094 2725 
Q 1647 2725 1412 2412 
Q 1178 2100 1178 1509 
Q 1178 888 1415 553 
Q 1653 219 2094 219 
z
M 1075 2569 
Q 1288 2803 1556 2918 
Q 1825 3034 2163 3034 
Q 2859 3034 3264 2615 
Q 3669 2197 3669 1472 
Q 3669 763 3233 336 
Q 2797 -91 2069 -91 
Q 1278 -91 853 498 
Q 428 1088 428 2181 
Q 428 3406 931 4078 
Q 1434 4750 2350 4750 
Q 2597 4750 2869 4703 
Q 3141 4656 3425 4563 
L 3425 3794 
L 3072 3794 
Q 3034 4109 2831 4275 
Q 2628 4441 2284 4441 
Q 1678 4441 1381 3981 
Q 1084 3522 1075 2569 
z
" transform="scale(0.015625)"/>
       </defs>
       <use xlink:href="#DejaVuSerif-36"/>
      </g>
     </g>
    </g>
    <g id="ytick_8">
     <g id="line2d_29">
      <path d="M 76.4 62.234 
L 844 62.234 
" clip-path="url(#p6376c4ef16)" style="fill: none; stroke-dasharray: 4.625,2; stroke-dashoffset: 0; stroke: #343837; stroke-opacity: 0.8; stroke-width: 1.25"/>
     </g>
     <g id="line2d_30">
      <g>
       <use xlink:href="#m4703d304be" x="76.4" y="62.234" style="stroke: #000000; stroke-width: 0.8"/>
      </g>
     </g>
     <g id="text_16">
      <!-- 7 -->
      <g transform="translate(55.4025 70.592281) scale(0.22 -0.22)">
       <use xlink:href="#DejaVuSerif-37"/>
      </g>
     </g>
    </g>
    <g id="text_17">
     <!-- Neutron reproduction factor $\eta$ -->
     <g transform="translate(41.9425 511.6025) rotate(-90) scale(0.26 -0.26)">
      <defs>
       <path id="DejaVuSerif-4e" d="M 313 0 
L 313 331 
L 941 331 
L 941 4331 
L 313 4331 
L 313 4666 
L 1509 4666 
L 4306 984 
L 4306 4331 
L 3681 4331 
L 3681 4666 
L 5319 4666 
L 5319 4331 
L 4691 4331 
L 4691 -91 
L 4313 -91 
L 1325 3841 
L 1325 331 
L 1953 331 
L 1953 0 
L 313 0 
z
" transform="scale(0.015625)"/>
       <path id="DejaVuSerif-70" d="M 1313 1825 
L 1313 1497 
Q 1313 897 1542 583 
Q 1772 269 2209 269 
Q 2650 269 2876 622 
Q 3103 975 3103 1663 
Q 3103 2353 2876 2703 
Q 2650 3053 2209 3053 
Q 1772 3053 1542 2737 
Q 1313 2422 1313 1825 
z
M 738 2988 
L 184 2988 
L 184 3322 
L 1313 3322 
L 1313 2803 
Q 1481 3116 1742 3264 
Q 2003 3413 2388 3413 
Q 3000 3413 3387 2928 
Q 3775 2444 3775 1663 
Q 3775 881 3387 395 
Q 3000 -91 2388 -91 
Q 2003 -91 1742 57 
Q 1481 206 1313 519 
L 1313 -997 
L 1856 -997 
L 1856 -1331 
L 184 -1331 
L 184 -997 
L 738 -997 
L 738 2988 
z
" transform="scale(0.015625)"/>
       <path id="DejaVuSerif-61" d="M 2547 1044 
L 2547 1747 
L 1806 1747 
Q 1378 1747 1168 1562 
Q 959 1378 959 997 
Q 959 650 1171 447 
Q 1384 244 1747 244 
Q 2106 244 2326 466 
Q 2547 688 2547 1044 
z
M 3122 2075 
L 3122 331 
L 3634 331 
L 3634 0 
L 2547 0 
L 2547 359 
Q 2356 128 2106 18 
Q 1856 -91 1522 -91 
Q 969 -91 644 203 
Q 319 497 319 997 
Q 319 1513 691 1797 
Q 1063 2081 1741 2081 
L 2547 2081 
L 2547 2309 
Q 2547 2688 2317 2895 
Q 2088 3103 1672 3103 
Q 1328 3103 1125 2947 
Q 922 2791 872 2484 
L 575 2484 
L 575 3156 
Q 875 3284 1158 3348 
Q 1441 3413 1709 3413 
Q 2400 3413 2761 3070 
Q 3122 2728 3122 2075 
z
" transform="scale(0.015625)"/>
       <path id="DejaVuSerif-Italic-3b7" d="M 1153 0 
L 578 0 
L 1159 2988 
L 609 2988 
L 675 3322 
L 1800 3322 
L 1684 2731 
Q 1909 3069 2198 3241 
Q 2488 3413 2825 3413 
Q 3366 3413 3572 3097 
Q 3772 2791 3641 2113 
L 2969 -1331 
L 2391 -1331 
L 3025 1931 
Q 3144 2541 3037 2767 
Q 2931 2994 2553 2994 
Q 2153 2994 1887 2701 
Q 1622 2409 1513 1850 
L 1153 0 
z
" transform="scale(0.015625)"/>
      </defs>
      <use xlink:href="#DejaVuSerif-4e" transform="translate(0 0.015625)"/>
      <use xlink:href="#DejaVuSerif-65" transform="translate(87.5 0.015625)"/>
      <use xlink:href="#DejaVuSerif-75" transform="translate(146.679688 0.015625)"/>
      <use xlink:href="#DejaVuSerif-74" transform="translate(211.083984 0.015625)"/>
      <use xlink:href="#DejaVuSerif-72" transform="translate(251.269531 0.015625)"/>
      <use xlink:href="#DejaVuSerif-6f" transform="translate(299.072266 0.015625)"/>
      <use xlink:href="#DejaVuSerif-6e" transform="translate(359.277344 0.015625)"/>
      <use xlink:href="#DejaVuSerif-20" transform="translate(423.681641 0.015625)"/>
      <use xlink:href="#DejaVuSerif-72" transform="translate(455.46875 0.015625)"/>
      <use xlink:href="#DejaVuSerif-65" transform="translate(503.271484 0.015625)"/>
      <use xlink:href="#DejaVuSerif-70" transform="translate(562.451172 0.015625)"/>
      <use xlink:href="#DejaVuSerif-72" transform="translate(626.464844 0.015625)"/>
      <use xlink:href="#DejaVuSerif-6f" transform="translate(674.267578 0.015625)"/>
      <use xlink:href="#DejaVuSerif-64" transform="translate(734.472656 0.015625)"/>
      <use xlink:href="#DejaVuSerif-75" transform="translate(798.486328 0.015625)"/>
      <use xlink:href="#DejaVuSerif-63" transform="translate(862.890625 0.015625)"/>
      <use xlink:href="#DejaVuSerif-74" transform="translate(918.896484 0.015625)"/>
      <use xlink:href="#DejaVuSerif-69" transform="translate(959.082031 0.015625)"/>
      <use xlink:href="#DejaVuSerif-6f" transform="translate(991.064453 0.015625)"/>
      <use xlink:href="#DejaVuSerif-6e" transform="translate(1051.269531 0.015625)"/>
      <use xlink:href="#DejaVuSerif-20" transform="translate(1115.673828 0.015625)"/>
      <use xlink:href="#DejaVuSerif-66" transform="translate(1147.460938 0.015625)"/>
      <use xlink:href="#DejaVuSerif-61" transform="translate(1184.472656 0.015625)"/>
      <use xlink:href="#DejaVuSerif-63" transform="translate(1244.091797 0.015625)"/>
      <use xlink:href="#DejaVuSerif-74" transform="translate(1300.097656 0.015625)"/>
      <use xlink:href="#DejaVuSerif-6f" transform="translate(1340.283203 0.015625)"/>
      <use xlink:href="#DejaVuSerif-72" transform="translate(1400.488281 0.015625)"/>
      <use xlink:href="#DejaVuSerif-20" transform="translate(1448.291016 0.015625)"/>
      <use xlink:href="#DejaVuSerif-Italic-3b7" transform="translate(1480.078125 0.015625)"/>
     </g>
    </g>
   </g>
   <g id="line2d_31">
    <path d="M 76.400027 414.39228 
L 167.472527 414.263131 
L 195.867785 414.009099 
L 214.467098 413.629736 
L 228.569287 413.128274 
L 240.60234 412.489469 
L 253.589792 411.568842 
L 271.242342 410.318926 
L 277.335221 410.147356 
L 282.183564 410.231811 
L 286.451633 410.530892 
L 290.383754 411.027418 
L 294.086819 411.71896 
L 297.644816 412.611084 
L 301.06538 413.697375 
L 304.424862 414.997779 
L 307.784343 416.540063 
L 311.212542 418.373842 
L 314.617835 420.458807 
L 318.076574 422.840021 
L 321.756734 425.641057 
L 326.345481 429.436352 
L 334.782362 436.456036 
L 337.424136 438.308976 
L 339.546718 439.530496 
L 341.340987 440.315232 
L 342.982552 440.790518 
L 344.463778 440.991616 
L 345.891558 440.958871 
L 347.22008 440.715524 
L 348.861645 440.134718 
L 350.358141 439.333211 
L 351.656123 438.416637 
L 353.091538 437.138448 
L 354.519318 435.584706 
L 356.168518 433.459346 
L 358.023868 430.691438 
L 360.14645 427.112376 
L 362.727143 422.307192 
L 366.50656 414.744495 
L 372.958293 401.837736 
L 376.065813 396.151297 
L 378.791575 391.615837 
L 381.334092 387.813865 
L 383.71627 384.644227 
L 386.006826 381.950219 
L 388.25157 379.639227 
L 390.526856 377.612023 
L 392.794506 375.888852 
L 395.077427 374.431606 
L 397.383253 373.220561 
L 399.765431 372.221445 
L 402.139974 371.462247 
L 404.606139 370.904845 
L 407.179197 370.556017 
L 409.584281 370.43883 
L 412.096257 370.533386 
L 414.600598 370.856094 
L 416.95987 371.387992 
L 419.326778 372.186039 
L 421.212669 373.051603 
L 422.884775 374.04306 
L 424.465258 375.224056 
L 425.98466 376.657624 
L 427.297913 378.214838 
L 428.41265 379.870053 
L 429.451035 381.774871 
L 430.451244 384.086404 
L 431.329291 386.658772 
L 432.184432 389.85353 
L 432.970856 393.675761 
L 433.688563 398.217435 
L 434.406271 404.225385 
L 435.093438 411.938545 
L 435.780604 422.338332 
L 436.42196 435.447551 
L 437.002234 446.894513 
L 437.406899 453.511868 
L 438.07116 466.694093 
L 438.422379 469.728728 
L 438.613258 470.110557 
L 438.620894 470.107224 
L 438.727786 469.918837 
L 438.903395 469.074523 
L 439.185897 466.505047 
L 439.697455 459.466846 
L 440.949625 441.944097 
L 441.613887 435.905545 
L 442.262877 431.925343 
L 444.270931 421.14716 
L 444.851206 415.484843 
L 445.561278 406.117681 
L 446.141552 399.562391 
L 446.767637 393.130129 
L 446.920341 392.751904 
L 446.950882 392.774096 
L 447.050139 393.139369 
L 447.195208 394.655109 
L 447.378452 398.948496 
L 447.592237 409.587933 
L 447.806023 432.845794 
L 448.203052 477.817006 
L 448.439743 501.570281 
L 448.691704 527.636425 
L 448.71461 527.422505 
L 448.798597 523.662704 
L 449.035288 499.679467 
L 449.623197 443.893312 
L 450.066038 421.99855 
L 450.516514 409.807639 
L 450.951719 403.395818 
L 451.341114 400.507392 
L 451.638886 399.641679 
L 451.82213 399.59976 
L 451.974834 399.825938 
L 452.234431 400.735858 
L 452.524568 402.63547 
L 452.730718 405.511032 
L 452.898692 411.828963 
L 453.158288 431.280408 
L 453.303357 463.164216 
L 453.42552 494.768904 
L 453.478966 489.448425 
L 453.761468 460.350854 
L 453.990523 441.673114 
L 454.517351 389.861647 
L 454.853299 376.672069 
L 455.135801 372.750175 
L 455.341951 372.14814 
L 455.441209 372.295 
L 455.647359 373.273524 
L 455.968037 376.148059 
L 456.426148 382.474719 
L 456.922435 392.549903 
L 457.426357 407.782145 
L 457.96082 431.180622 
L 458.77015 466.817007 
L 458.968665 474.021711 
L 459.304613 484.654864 
L 459.61002 488.410587 
L 459.777994 488.87005 
L 459.8009 488.856767 
L 459.907793 488.618194 
L 460.106307 487.462662 
L 460.465161 483.865185 
L 462.060915 466.452673 
L 462.755717 462.074906 
L 463.458154 457.520015 
L 463.900995 452.885106 
L 464.351471 445.709047 
L 465.603642 418.947801 
L 466.290808 404.770997 
L 466.328984 404.642419 
L 466.36716 404.83696 
L 466.435877 406.790366 
L 466.535134 418.108333 
L 466.97034 508.350875 
L 467.054327 494.437059 
L 467.352099 443.826904 
L 467.634601 429.839165 
L 467.901833 425.588071 
L 468.039266 425.160443 
L 468.069807 425.193927 
L 468.169064 425.595192 
L 468.352309 427.462602 
L 468.63481 432.949044 
L 468.986029 444.562758 
L 469.23799 450.455924 
L 469.405964 454.437577 
L 469.719007 472.278397 
L 469.894616 495.048077 
L 470.093131 539.033713 
L 470.184753 535.440497 
L 470.329822 521.350928 
L 470.818474 448.965328 
L 471.223139 438.370794 
L 471.757602 429.857833 
L 472.246253 425.223429 
L 472.620378 423.441654 
L 472.849433 423.137367 
L 472.971596 423.227771 
L 473.154841 423.692743 
L 473.391531 424.977939 
L 474.071063 430.429379 
L 474.162685 430.023185 
L 474.292483 427.716205 
L 474.483363 419.36404 
L 474.819311 405.761294 
L 475.323234 394.138546 
L 475.414856 393.981447 
L 475.460667 394.031318 
L 475.58283 394.478318 
L 475.811885 396.350552 
L 476.109658 400.769939 
L 476.384524 408.312533 
L 476.61358 421.036903 
L 476.812095 445.636605 
L 476.987704 499.549664 
L 477.186219 543.269039 
L 477.209125 543.349394 
L 477.2473 543.000494 
L 477.316017 539.836671 
L 477.392369 522.220696 
L 477.697776 437.124186 
L 477.949738 421.740155 
L 478.194064 417.694664 
L 478.316226 417.358104 
L 478.354402 417.40705 
L 478.476565 417.916349 
L 478.667445 419.634474 
L 478.988123 424.600117 
L 479.400423 434.655079 
L 479.827993 450.754043 
L 480.263199 476.06956 
L 480.744216 518.47313 
L 481.13361 552.154856 
L 481.171786 550.690964 
L 481.393207 527.50392 
L 481.568816 451.643378 
L 481.683344 472.929035 
L 481.866588 494.260798 
L 481.912399 493.756648 
L 482.271253 486.612706 
L 482.35524 487.366853 
L 482.500309 491.861803 
L 482.75227 508.511486 
L 483.263827 542.332732 
L 483.363085 542.626445 
L 483.40126 542.435669 
L 483.469977 540.130553 
L 483.668492 523.362109 
L 485.00465 388.122226 
L 485.317692 383.527239 
L 485.41695 383.382142 
L 485.455126 383.405318 
L 485.600194 383.457865 
L 485.630735 383.419769 
L 485.791074 382.755003 
L 485.989589 381.6665 
L 486.0354 381.882506 
L 486.111752 383.931498 
L 486.188103 393.266288 
L 486.264455 441.581233 
L 486.417159 509.096775 
L 486.440065 508.143809 
L 486.501146 494.257177 
L 486.737837 420.844584 
L 486.768378 421.288542 
L 486.867635 427.280931 
L 487.06615 456.174541 
L 487.508991 531.722996 
L 487.554802 530.419706 
L 487.87548 511.531207 
L 488.219063 468.148661 
L 488.669539 436.527833 
L 488.890959 428.810402 
L 488.913865 428.977184 
L 488.974946 432.076157 
L 489.058933 452.356868 
L 489.242178 478.743068 
L 489.280354 479.768959 
L 489.310895 477.01273 
L 489.402517 429.1198 
L 489.601032 382.797988 
L 489.852993 369.315059 
L 490.135495 364.437487 
L 490.318739 363.506198 
L 490.341645 363.531764 
L 490.410361 363.905578 
L 490.517254 366.02703 
L 490.631782 373.569969 
L 490.860837 404.375858 
L 490.944824 399.761434 
L 491.311313 365.425741 
L 491.57091 361.969734 
L 491.838141 360.88028 
L 491.967939 360.814758 
L 491.990845 360.836987 
L 492.097738 361.1061 
L 492.219901 362.088489 
L 492.326793 365.219657 
L 492.39551 375.485729 
L 492.532943 427.972543 
L 492.60166 411.227072 
L 492.784904 369.114577 
L 492.792539 369.146032 
L 492.853621 370.273466 
L 492.975784 377.304887 
L 493.105582 399.416466 
L 493.273556 464.652613 
L 493.342273 439.843369 
L 493.456801 405.063099 
L 493.494977 412.381806 
L 493.640045 454.752794 
L 493.693491 450.111151 
L 493.800384 407.643569 
L 493.991264 379.088879 
L 494.227954 371.125098 
L 494.487551 368.65653 
L 494.701336 368.204111 
L 494.815864 368.306028 
L 494.999108 368.866011 
L 495.26634 370.518445 
L 495.587018 373.977736 
L 495.953507 380.623561 
L 496.342901 392.109572 
L 496.594862 405.35739 
L 496.678849 426.83879 
L 496.869729 475.734262 
L 496.884999 473.665276 
L 497.167501 412.19451 
L 497.358381 400.319484 
L 497.877573 392.82219 
L 497.94629 392.702416 
L 497.992101 392.788332 
L 498.098994 393.542986 
L 498.274603 396.754352 
L 498.389131 402.75992 
L 498.480753 435.970206 
L 498.541835 449.128143 
L 498.587646 438.730011 
L 498.778525 406.460058 
L 499.236637 367.691659 
L 499.458057 364.6076 
L 499.480963 364.586746 
L 499.519138 364.726862 
L 499.572585 366.045792 
L 499.626031 377.623752 
L 499.717653 433.865313 
L 499.778735 403.614063 
L 499.931439 365.163148 
L 499.961979 365.104826 
L 500.023061 365.229654 
L 500.191035 366.275165 
L 500.359009 368.627847 
L 500.450631 373.697249 
L 500.504078 395.387032 
L 500.61097 476.713307 
L 500.672052 451.313773 
L 500.855296 372.103044 
L 501.02327 370.94027 
L 501.130163 370.971589 
L 501.137798 370.981458 
L 501.298137 371.379769 
L 501.473746 372.516108 
L 501.64172 375.420316 
L 501.794424 382.642653 
L 501.931857 401.852073 
L 502.046385 456.343263 
L 502.191454 521.633482 
L 502.221994 520.885941 
L 502.275441 511.906575 
L 502.649565 381.446459 
L 502.67247 381.840952 
L 502.710646 387.742615 
L 502.771728 454.281688 
L 502.84808 509.632368 
L 502.901526 483.664185 
L 503.100041 369.983782 
L 503.176393 369.236658 
L 503.222204 369.54296 
L 503.306191 372.042191 
L 503.382543 381.802116 
L 503.519976 450.896463 
L 503.596328 422.976333 
L 503.764302 368.260452 
L 504.023898 365.38706 
L 504.489645 361.218145 
L 504.741606 360.595353 
L 504.871404 360.640829 
L 505.008837 361.009728 
L 505.169176 362.232121 
L 505.30661 365.355332 
L 505.405867 374.156482 
L 505.459313 404.56654 
L 505.573841 514.544754 
L 505.627287 496.950741 
L 505.795262 379.491753 
L 505.856343 381.691577 
L 505.9556 398.005968 
L 506.031952 452.740195 
L 506.138845 534.9638 
L 506.184656 532.328586 
L 506.238102 507.410768 
L 506.322089 436.94782 
L 506.383171 458.23423 
L 506.512969 481.613198 
L 506.528239 481.533369 
L 506.574051 478.862202 
L 506.650402 448.088065 
L 506.871823 397.235355 
L 507.100878 385.025617 
L 507.146689 384.61066 
L 507.192501 385.10778 
L 507.261217 389.962985 
L 507.314664 415.455475 
L 507.429191 483.378313 
L 507.475002 473.82112 
L 507.734599 380.810166 
L 508.070547 374.406483 
L 508.314873 371.291045 
L 508.345414 371.401481 
L 508.421766 372.749265 
L 508.559199 379.674803 
L 508.673727 405.844026 
L 508.772984 395.910993 
L 508.910417 378.695194 
L 508.979134 381.068393 
L 509.101297 397.924564 
L 509.360893 465.871955 
L 509.467786 456.064394 
L 509.681571 405.380802 
L 509.712112 407.48728 
L 509.788464 446.836704 
L 509.880086 460.10302 
L 509.918262 455.421453 
L 510.208399 379.675998 
L 510.223669 379.862813 
L 510.269481 384.136349 
L 510.384008 413.84547 
L 510.44509 402.382374 
L 510.628334 369.992303 
L 510.65124 369.865582 
L 510.697051 370.219418 
L 510.773403 373.350589 
L 510.84212 386.253093 
L 510.910836 479.97992 
L 510.971918 508.316041 
L 511.025364 487.894772 
L 511.132257 377.624813 
L 511.193338 420.47857 
L 511.25442 467.109646 
L 511.307866 428.534359 
L 511.46057 362.626068 
L 511.651449 361.119978 
L 511.849964 360.865739 
L 511.979762 360.978068 
L 512.124831 361.487989 
L 512.246994 362.880741 
L 512.338616 366.746187 
L 512.399698 381.202012 
L 512.521861 531.086612 
L 512.598212 458.98468 
L 512.743281 374.100779 
L 512.781457 373.529039 
L 512.834903 374.605632 
L 512.91889 382.294378 
L 513.063959 421.926187 
L 513.170851 410.417564 
L 513.377001 379.305111 
L 513.407542 379.062068 
L 513.445718 379.565307 
L 513.491529 384.547806 
L 513.583151 441.253863 
L 513.644233 405.016585 
L 513.720585 382.426697 
L 513.781666 383.841247 
L 514.033627 396.596293 
L 514.178696 411.500135 
L 514.339035 471.177934 
L 514.423022 461.300577 
L 514.697889 428.327715 
L 514.7437 434.882329 
L 514.812416 504.365996 
L 514.881133 522.612529 
L 514.926944 515.86801 
L 514.98039 439.003647 
L 515.117824 370.314705 
L 515.133094 370.123499 
L 515.156 371.986824 
L 515.217081 412.265616 
L 515.255257 427.593008 
L 515.308703 398.301909 
L 515.339244 384.18064 
L 515.385055 417.809868 
L 515.461407 464.953479 
L 515.514854 447.680578 
L 515.705733 369.297862 
L 515.881342 367.469063 
L 515.934789 367.463903 
L 515.972965 367.525819 
L 516.217291 368.314645 
L 516.431076 368.63584 
L 516.591415 368.564716 
L 516.606685 368.62898 
L 516.644861 369.409086 
L 516.683037 376.536936 
L 516.751754 411.551982 
L 516.8052 389.797688 
L 516.927363 367.40919 
L 516.950269 367.463666 
L 517.049526 368.322095 
L 517.209865 371.849049 
L 517.393109 381.179774 
L 517.507637 396.867846 
L 517.591624 446.799909 
L 517.690882 428.252123 
L 517.843585 491.646489 
L 517.958113 531.283869 
L 518.019195 530.014408 
L 518.072641 522.998364 
L 518.301696 420.607462 
L 518.393319 435.81441 
L 518.484941 440.092548 
L 518.507846 438.229859 
L 518.836159 373.98614 
L 518.874335 379.484634 
L 518.950687 414.972261 
L 519.004134 393.31144 
L 519.126297 378.08355 
L 519.141567 380.127614 
L 519.217919 430.65449 
L 519.271365 392.043437 
L 519.332447 380.919711 
L 519.393528 381.755712 
L 519.530961 386.905535 
L 519.637854 399.903698 
L 519.714206 441.332066 
L 519.836369 471.170953 
L 519.851639 470.884167 
L 519.859274 470.783333 
L 519.86691 471.258891 
L 519.905086 508.669002 
L 519.966167 530.425947 
L 520.027249 522.706876 
L 520.118871 424.714061 
L 520.179952 494.626655 
L 520.225763 511.143648 
L 520.27921 489.759105 
L 520.477725 369.083837 
L 520.668604 365.592317 
L 520.683875 365.595369 
L 520.70678 365.689513 
L 520.775497 367.164688 
L 520.828943 375.096276 
L 520.920565 477.492332 
L 520.981647 414.922389 
L 521.111445 363.743721 
L 521.11908 363.755737 
L 521.172526 364.15692 
L 521.302325 367.133467 
L 521.439758 376.309802 
L 521.500839 398.871235 
L 521.592462 499.219758 
L 521.653543 460.058406 
L 521.72226 409.995648 
L 521.783341 417.074593 
L 521.836788 459.491051 
L 521.91314 508.180291 
L 521.966586 497.108883 
L 522.111654 396.604354 
L 522.188006 399.521473 
L 522.226182 400.270037 
L 522.271993 398.674479 
L 522.615577 375.845424 
L 522.653753 378.341281 
L 522.691929 410.389756 
L 522.760645 473.708821 
L 522.814091 444.794199 
L 522.913349 392.784325 
L 522.95916 396.975314 
L 523.104229 433.266347 
L 523.188216 420.285302 
L 523.38673 375.603096 
L 523.493623 372.713768 
L 523.531799 373.277531 
L 523.569975 380.818511 
L 523.631056 419.443871 
L 523.676868 387.865931 
L 523.737949 373.09032 
L 523.799031 375.564609 
L 523.913558 390.649327 
L 524.012816 440.18704 
L 524.127344 530.67916 
L 524.211331 525.573726 
L 524.394575 455.860251 
L 524.623631 371.710617 
L 524.761064 367.536057 
L 524.78397 367.754887 
L 524.822145 371.066222 
L 524.906133 423.662504 
L 524.959579 385.360229 
L 525.02066 369.68747 
L 525.081742 372.806984 
L 525.203905 405.319248 
L 525.303162 528.523159 
L 525.364244 491.147594 
L 525.478771 388.203987 
L 525.516947 392.021863 
L 525.578029 428.938672 
L 525.730733 503.122594 
L 525.776544 509.898798 
L 525.81472 498.715738 
L 525.959788 395.49965 
L 525.997964 401.035469 
L 526.043775 480.247147 
L 526.104857 528.861411 
L 526.158303 494.755336 
L 526.219385 393.926309 
L 526.272831 466.919104 
L 526.303372 483.377509 
L 526.356818 444.185635 
L 526.501886 364.049724 
L 526.509522 364.024931 
L 526.532427 364.25457 
L 526.570603 367.139249 
L 526.608779 400.400323 
L 526.662225 464.121683 
L 526.715672 412.901315 
L 526.799659 366.134901 
L 526.84547 367.519576 
L 526.921822 378.904546 
L 526.975268 423.238549 
L 527.06689 529.750801 
L 527.120336 512.568727 
L 527.280675 391.284395 
L 527.303581 399.99343 
L 527.395203 515.814316 
L 527.46392 461.331331 
L 527.608988 369.448191 
L 527.67007 368.013511 
L 527.723516 368.907139 
L 527.799868 376.589753 
L 527.853314 413.120381 
L 527.944937 507.255207 
L 527.990748 479.624922 
L 528.143451 381.178613 
L 528.173992 378.163929 
L 528.227438 384.184975 
L 528.357237 431.540189 
L 528.433589 407.486069 
L 528.586292 375.36092 
L 528.609198 375.127082 
L 528.655009 375.721907 
L 528.746631 381.815097 
L 528.8917 411.092274 
L 528.998592 534.415581 
L 529.074944 478.140848 
L 529.120755 434.880428 
L 529.181837 482.450874 
L 529.258189 512.98774 
L 529.304 505.298246 
L 529.494879 384.90122 
L 529.540691 402.205481 
L 529.601772 443.371132 
L 529.655218 416.522024 
L 529.678124 397.345989 
L 529.7163 461.544972 
L 529.754476 496.747457 
L 529.807922 441.403304 
L 529.945355 361.590605 
L 529.975896 361.10598 
L 530.006437 362.213214 
L 530.067518 378.578816 
L 530.113329 364.189105 
L 530.227857 359.33255 
L 530.243128 359.336632 
L 530.304209 359.554978 
L 530.357655 360.885737 
L 530.388196 372.01195 
L 530.449278 441.366176 
L 530.495089 382.592232 
L 530.571441 360.434603 
L 530.617252 363.624863 
L 530.655428 368.311081 
L 530.708874 361.409512 
L 530.73178 360.95838 
L 530.808131 361.659352 
L 530.93793 365.138935 
L 530.999011 372.467871 
L 531.128809 456.093426 
L 531.182256 415.290998 
L 531.228067 385.627218 
L 531.296783 398.366692 
L 531.411311 458.68515 
L 531.487663 430.360579 
L 531.609826 371.924678 
L 531.632732 374.469187 
L 531.724354 432.154769 
L 531.785435 391.641268 
L 531.922869 368.049949 
L 531.938139 368.148593 
L 531.98395 371.094156 
L 532.022126 388.366541 
L 532.098478 454.498911 
L 532.144289 423.44848 
L 532.220641 375.070671 
L 532.274087 380.880939 
L 532.327533 416.380338 
L 532.411521 528.592453 
L 532.464967 491.792687 
L 532.610035 369.755611 
L 532.617671 370.025754 
L 532.678752 396.005992 
L 532.716928 372.495686 
L 532.80855 361.161277 
L 532.839091 362.483922 
L 532.884902 372.483415 
L 532.938348 361.73417 
L 532.99943 359.976108 
L 533.060511 360.226024 
L 533.144498 361.920815 
L 533.197945 367.895375 
L 533.243756 433.962408 
L 533.281932 464.645877 
L 533.335378 418.614391 
L 533.419365 372.259398 
L 533.465176 373.755243 
L 533.549163 387.918903 
L 533.60261 446.62673 
L 533.656056 472.933352 
L 533.717137 454.994408 
L 533.732408 448.648436 
L 533.778219 477.691077 
L 533.816395 486.311904 
L 533.885111 480.161512 
L 533.984369 432.397975 
L 534.075991 447.468349 
L 534.175249 450.701644 
L 534.198154 449.871812 
L 534.335587 424.414377 
L 534.579913 399.150131 
L 534.595184 399.042421 
L 534.625724 399.562304 
L 534.679171 410.192387 
L 534.747887 489.132119 
L 534.824239 434.322166 
L 534.877686 399.005691 
L 534.915862 450.034596 
L 534.938767 472.429616 
L 534.992213 401.386512 
L 535.015119 393.118484 
L 535.068565 424.976961 
L 535.160188 515.153979 
L 535.205999 497.281701 
L 535.289986 412.541969 
L 535.343432 449.002281 
L 535.396878 482.598755 
L 535.45796 455.233379 
L 535.610664 378.175604 
L 535.648839 377.529791 
L 535.702286 378.594542 
L 535.793908 387.073076 
L 535.877895 421.316706 
L 535.969517 500.896742 
L 536.022964 465.821124 
L 536.053504 427.311179 
L 536.114586 473.776498 
L 536.129856 472.776623 
L 536.168032 444.309165 
L 536.313101 375.086453 
L 536.48871 367.124279 
L 536.534521 367.928829 
L 536.618508 375.455939 
L 536.71013 404.673893 
L 536.817023 524.334223 
L 536.954456 503.852872 
L 536.962091 503.960408 
L 536.992632 502.890182 
L 537.030808 488.806464 
L 537.053714 469.213075 
L 537.10716 517.900371 
L 537.152971 523.518851 
L 537.183512 513.95771 
L 537.374392 411.55273 
L 537.382027 411.726163 
L 537.427838 420.11442 
L 537.565271 485.258702 
L 537.618717 456.398015 
L 537.794327 369.726268 
L 537.847773 368.049021 
L 537.893584 369.775727 
L 537.969936 383.897008 
L 538.046288 457.4999 
L 538.092099 466.829874 
L 538.13791 456.178614 
L 538.198992 401.561303 
L 538.237168 457.522094 
L 538.275343 493.458174 
L 538.32879 437.784716 
L 538.374601 374.887625 
L 538.435682 442.43484 
L 538.458588 424.101563 
L 538.603656 359.589908 
L 538.672373 359.160948 
L 538.710549 359.497793 
L 538.748725 363.223839 
L 538.817442 449.066407 
L 538.939605 415.920987 
L 539.069403 357.395608 
L 539.237377 356.913412 
L 539.245012 356.915846 
L 539.313729 357.078276 
L 539.351905 357.690308 
L 539.382445 366.399758 
L 539.420621 398.883209 
L 539.481703 360.797148 
L 539.496973 362.137833 
L 539.527514 402.04377 
L 539.56569 470.15266 
L 539.619136 377.558709 
L 539.695488 358.316992 
L 539.741299 358.794781 
L 539.810016 362.002538 
L 539.840557 374.37019 
L 539.901638 516.160372 
L 539.955084 413.720053 
L 539.97799 375.825392 
L 540.039071 465.785547 
L 540.115423 483.20717 
L 540.084883 463.812222 
L 540.130694 472.877831 
L 540.291033 359.073446 
L 540.298668 359.083898 
L 540.336844 359.532749 
L 540.367384 364.094847 
L 540.550629 444.015575 
L 540.573535 438.807833 
L 540.649886 366.388174 
L 540.710968 408.338093 
L 540.718603 410.259292 
L 540.741509 393.418113 
L 540.779685 369.087181 
L 540.848401 388.812018 
L 540.917118 503.94886 
L 540.962929 429.475359 
L 540.978199 397.972744 
L 541.039281 480.414227 
L 541.054551 477.045257 
L 541.123268 381.708302 
L 541.207255 445.799748 
L 541.260701 459.124992 
L 541.298877 438.050906 
L 541.337053 400.108781 
L 541.398135 454.750078 
L 541.40577 455.028036 
L 541.42104 452.038568 
L 541.535568 371.83626 
L 541.665366 384.380012 
L 541.83334 442.241525 
L 541.917327 419.643557 
L 541.963138 398.231463 
L 541.978409 418.254071 
L 542.00895 480.099015 
L 542.077666 385.648093 
L 542.146383 411.047931 
L 542.184559 477.922531 
L 542.24564 381.351631 
L 542.276181 370.12388 
L 542.344898 383.206648 
L 542.428885 452.805811 
L 542.482331 409.808619 
L 542.551048 372.497646 
L 542.589224 410.83704 
L 542.64267 519.897311 
L 542.688481 407.973817 
L 542.703751 379.609533 
L 542.764833 470.535684 
L 542.780103 456.543056 
L 542.825914 371.218227 
L 542.886996 456.327045 
L 542.902266 459.68006 
L 542.932807 436.575413 
L 543.085511 361.54781 
L 543.184768 358.582646 
L 543.215309 360.105241 
L 543.268755 395.272437 
L 543.322202 359.312419 
L 543.352742 358.256137 
L 543.429094 359.401275 
L 543.520716 364.338772 
L 543.581798 361.187557 
L 543.627609 360.056463 
L 543.65815 361.84769 
L 543.696326 414.467242 
L 543.719231 440.692391 
L 543.780313 364.488507 
L 543.787948 364.023086 
L 543.841394 366.461597 
L 543.925381 381.175101 
L 543.963557 445.65453 
L 544.078085 544.163941 
L 544.093355 540.275436 
L 544.123896 462.161374 
L 544.253694 370.975894 
L 544.29187 370.617646 
L 544.352952 371.060415 
L 544.48275 374.933547 
L 544.520926 401.819911 
L 544.543831 418.46992 
L 544.604913 381.83369 
L 544.612548 381.960556 
L 544.673629 396.223536 
L 544.818698 542.077455 
L 544.87978 477.22304 
L 544.986672 381.785003 
L 545.009578 382.981539 
L 545.024848 383.375035 
L 545.055389 380.380912 
L 545.108835 378.74609 
L 545.131741 380.481121 
L 545.230998 419.628437 
L 545.276809 470.76061 
L 545.32262 396.460411 
L 545.345526 384.184475 
L 545.398972 412.068319 
L 545.421878 406.43134 
L 545.444783 396.377547 
L 545.467689 438.245733 
L 545.490594 459.004606 
L 545.536406 371.940395 
L 545.605122 362.301263 
L 545.650933 366.829633 
L 545.666204 367.994998 
L 545.712015 361.262368 
L 545.864719 358.489319 
L 545.902894 358.333729 
L 545.948706 358.602742 
L 546.002152 361.092241 
L 546.025057 373.91158 
L 546.078504 517.012828 
L 546.13195 384.345102 
L 546.261748 361.446163 
L 546.330465 359.66925 
L 546.361006 360.498762 
L 546.391546 378.362713 
L 546.422087 402.297465 
L 546.483169 362.755585 
L 546.513709 363.458722 
L 546.612967 370.765299 
L 546.643508 403.11687 
L 546.689319 513.249107 
L 546.742765 390.10044 
L 546.803846 367.066348 
L 546.864928 369.723205 
L 546.910739 371.544044 
L 546.94128 368.500934 
L 547.048172 359.746356 
L 547.093984 360.362138 
L 547.155065 365.71597 
L 547.200876 403.936875 
L 547.323039 477.777865 
L 547.345945 437.395329 
L 547.414661 376.10352 
L 547.475743 378.353857 
L 547.521554 392.928137 
L 547.666622 448.509698 
L 547.674258 449.263569 
L 547.704798 444.12271 
L 547.910948 369.538463 
L 547.97203 376.936824 
L 548.056017 436.280883 
L 548.109463 393.513104 
L 548.246897 362.851604 
L 548.277437 362.019184 
L 548.292708 363.181351 
L 548.338519 395.69286 
L 548.391965 361.104369 
L 548.453047 362.752937 
L 548.559939 398.600532 
L 548.598115 458.468534 
L 548.659197 368.908547 
L 548.697373 362.802216 
L 548.743184 371.934704 
L 548.804265 487.204289 
L 548.857712 381.100028 
L 548.865347 379.137538 
L 548.880617 394.726566 
L 548.895887 408.680309 
L 548.934063 375.741293 
L 548.979874 384.346251 
L 548.995145 376.395312 
L 549.071497 397.808804 
L 549.117308 471.122716 
L 549.178389 414.142898 
L 549.315823 365.123289 
L 549.361634 364.394719 
L 549.41508 365.45582 
L 549.476162 373.158086 
L 549.506702 427.848644 
L 549.552513 540.847469 
L 549.613595 445.565668 
L 549.667041 389.333092 
L 549.705217 446.985381 
L 549.751028 526.137363 
L 549.804475 398.203496 
L 549.911367 367.292458 
L 549.934273 367.85151 
L 549.987719 376.984729 
L 550.01826 424.680898 
L 550.064071 522.068577 
L 550.117517 409.981468 
L 550.178599 378.08198 
L 550.216775 413.754183 
L 550.247315 460.848792 
L 550.308397 368.941779 
L 550.331302 383.305045 
L 550.361843 417.473854 
L 550.407654 371.051301 
L 550.438195 376.759652 
L 550.468736 416.743966 
L 550.514547 524.595643 
L 550.567993 418.305974 
L 550.62144 375.267918 
L 550.674886 405.950713 
L 550.835225 542.72642 
L 550.873401 477.109571 
L 550.942117 393.903701 
L 550.995564 404.128843 
L 551.06428 463.345833 
L 551.117727 424.300175 
L 551.232254 389.773569 
L 551.23989 390.268483 
L 551.262795 442.830482 
L 551.308606 521.529239 
L 551.377323 476.360456 
L 551.44604 537.479047 
L 551.484216 503.502735 
L 551.621649 386.179722 
L 551.644554 387.034565 
L 551.675095 404.90404 
L 551.843069 528.433837 
L 551.865975 532.728821 
L 551.896516 519.501304 
L 552.041584 379.350766 
L 552.06449 393.080787 
L 552.110301 490.405266 
L 552.163747 372.742744 
L 552.179017 371.381365 
L 552.209558 378.439743 
L 552.27064 520.845117 
L 552.324086 389.966291 
L 552.392803 365.272512 
L 552.446249 368.570961 
L 552.499695 389.402112 
L 552.568412 542.518609 
L 552.629493 427.666198 
L 552.652399 410.350716 
L 552.690575 468.531098 
L 552.797468 530.906992 
L 552.820373 525.135179 
L 552.881455 428.549087 
L 552.934901 515.268261 
L 552.942536 517.392622 
L 552.973077 506.788415 
L 553.118145 380.695975 
L 553.171592 385.037999 
L 553.232673 417.521991 
L 553.293755 533.383173 
L 553.400647 517.570721 
L 553.560986 376.247374 
L 553.576257 386.763045 
L 553.614432 470.580361 
L 553.675514 361.138011 
L 553.812947 358.276775 
L 553.851123 358.417349 
L 553.896934 359.515864 
L 553.91984 367.85783 
L 554.080179 502.342814 
L 554.087814 499.939539 
L 554.14126 371.610852 
L 554.263423 424.517974 
L 554.309234 513.776882 
L 554.355046 416.330709 
L 554.377951 440.080582 
L 554.393221 429.017878 
L 554.439033 370.395841 
L 554.515384 402.617597 
L 554.545925 453.781592 
L 554.584101 396.587944 
L 554.637547 442.584583 
L 554.668088 410.154966 
L 554.74444 445.58101 
L 554.866603 516.55733 
L 554.920049 497.062176 
L 555.118564 404.279081 
L 555.126199 406.207471 
L 555.179646 527.419827 
L 555.225457 413.397846 
L 555.233092 401.495989 
L 555.271268 512.728484 
L 555.378161 538.359227 
L 555.332349 462.772106 
L 555.393431 535.409417 
L 555.668298 363.300879 
L 555.698838 362.707103 
L 555.721744 364.235731 
L 555.874448 490.586005 
L 555.904988 401.175236 
L 555.912624 385.663262 
L 555.950799 435.534487 
L 555.98134 432.414281 
L 556.019516 505.245175 
L 556.072962 390.109227 
L 556.118774 373.285925 
L 556.164585 407.262184 
L 556.179855 410.083785 
L 556.202761 391.747705 
L 556.240937 366.360414 
L 556.324924 371.59086 
L 556.3631 388.727378 
L 556.408911 451.593628 
L 556.462357 372.258438 
L 556.538709 361.267506 
L 556.592155 363.169502 
L 556.660872 373.460422 
L 556.691413 426.498946 
L 556.744859 512.065662 
L 556.798305 417.681187 
L 556.828846 399.475586 
L 556.897563 412.137018 
L 556.958644 502.035132 
L 557.027361 440.523489 
L 557.042631 436.683876 
L 557.065537 464.220898 
L 557.157159 540.334552 
L 557.1877 523.426055 
L 557.355674 375.761898 
L 557.386214 377.532708 
L 557.454931 392.51441 
L 557.500742 505.532357 
L 557.561824 401.510399 
L 557.6 390.108743 
L 557.63054 380.482843 
L 557.653446 416.238955 
L 557.691622 513.255378 
L 557.752703 386.848335 
L 557.813785 360.230074 
L 557.882502 363.829331 
L 557.935948 383.831922 
L 558.019935 371.396307 
L 558.050476 382.797125 
L 558.187909 509.036376 
L 558.210815 486.976656 
L 558.23372 407.602885 
L 558.325342 468.498681 
L 558.355883 397.485515 
L 558.409329 522.957522 
L 558.432235 494.791443 
L 558.523857 361.872414 
L 558.569668 368.001786 
L 558.600209 365.046531 
L 558.638385 369.051583 
L 558.714737 401.941687 
L 558.798724 531.243764 
L 558.905617 483.575689 
L 559.012509 379.157999 
L 559.073591 400.590426 
L 559.127037 519.788191 
L 559.180483 393.307499 
L 559.195754 389.206115 
L 559.218659 412.131173 
L 559.256835 471.913318 
L 559.317917 379.858921 
L 559.333187 386.463684 
L 559.417174 459.382894 
L 559.447715 413.439634 
L 559.531702 395.937938 
L 559.493526 485.790547 
L 559.539337 419.030384 
L 559.569878 504.427213 
L 559.638594 369.529436 
L 559.653865 373.10968 
L 559.684406 417.87979 
L 559.745487 358.389867 
L 559.776028 357.751123 
L 559.806568 359.081229 
L 559.829474 374.626668 
L 559.860015 430.238303 
L 559.928731 357.81853 
L 559.959272 357.349508 
L 559.997448 359.095617 
L 560.043259 400.376541 
L 560.119611 364.003006 
L 560.127246 363.984439 
L 560.134881 364.217415 
L 560.157787 373.985689 
L 560.234139 504.957251 
L 560.272315 405.562472 
L 560.318126 364.977824 
L 560.371572 422.278604 
L 560.379207 415.837373 
L 560.425019 363.490498 
L 560.493735 384.377756 
L 560.554817 516.808483 
L 560.608263 397.928349 
L 560.631169 388.471893 
L 560.646439 416.441896 
L 560.684615 508.371435 
L 560.745696 368.783759 
L 560.776237 365.573108 
L 560.799143 376.316678 
L 560.829683 426.27567 
L 560.88313 371.348837 
L 560.906035 378.174801 
L 560.951846 464.442492 
L 560.974752 483.268926 
L 561.020563 404.181712 
L 561.127456 385.873173 
L 561.135091 386.846487 
L 561.180902 509.028756 
L 561.226713 362.306554 
L 561.348876 356.876942 
L 561.356511 356.890512 
L 561.379417 357.434796 
L 561.409958 377.367621 
L 561.478674 412.741874 
L 561.509215 373.251979 
L 561.562661 413.620218 
L 561.631378 361.296139 
L 561.646648 361.602218 
L 561.768811 377.650648 
L 561.883339 431.736386 
L 561.845163 362.600241 
L 561.906245 402.908805 
L 561.974961 413.029745 
L 562.028408 359.237744 
L 562.036043 359.149102 
L 562.058948 359.875397 
L 562.081854 372.205304 
L 562.112395 438.621997 
L 562.196382 382.721018 
L 562.387261 494.562779 
L 562.410167 487.176387 
L 562.448343 450.705431 
L 562.471248 504.20623 
L 562.486519 517.700479 
L 562.53233 465.411752 
L 562.623952 380.24692 
L 562.654493 391.176472 
L 562.707939 527.645959 
L 562.761386 392.769036 
L 562.776656 390.688689 
L 562.814832 403.998392 
L 562.868278 528.241936 
L 562.898819 546.22224 
L 562.936995 483.522924 
L 562.990441 404.278077 
L 563.051523 442.564706 
L 563.158415 361.687255 
L 563.211862 386.248376 
L 563.250037 477.355976 
L 563.326389 436.152295 
L 563.433282 362.828925 
L 563.448552 366.139155 
L 563.463823 371.665757 
L 563.532539 358.585292 
L 563.540175 358.692605 
L 563.570715 361.847143 
L 563.792136 514.873349 
L 563.815041 529.690375 
L 563.837947 489.511643 
L 563.899028 366.920971 
L 563.944839 479.294217 
L 563.952475 482.70813 
L 563.967745 447.137761 
L 564.005921 366.287155 
L 564.067002 482.130039 
L 564.089908 530.263559 
L 564.143354 367.581305 
L 564.173895 362.449716 
L 564.212071 376.754023 
L 564.326599 471.837693 
L 564.349504 414.130299 
L 564.364775 373.407481 
L 564.410586 508.269432 
L 564.441126 443.491032 
L 564.479302 537.342712 
L 564.548019 450.039757 
L 564.570925 433.918422 
L 564.601465 485.514408 
L 564.632006 498.882713 
L 564.654912 461.749832 
L 564.685452 414.371803 
L 564.754169 491.702403 
L 564.761804 498.904095 
L 564.853427 482.900861 
L 564.876332 482.047795 
L 564.899238 468.62321 
L 565.044306 411.116475 
L 565.166469 366.810829 
L 565.204645 385.869566 
L 565.242821 453.140094 
L 565.326808 421.242986 
L 565.334443 427.302012 
L 565.372619 371.596398 
L 565.40316 366.014723 
L 565.464241 377.630794 
L 565.517688 484.530855 
L 565.555864 504.867673 
L 565.601675 454.373296 
L 565.647486 382.603619 
L 565.731473 414.626076 
L 565.754379 489.621264 
L 565.83073 389.988656 
L 565.853636 401.472679 
L 565.884177 429.271687 
L 565.952893 394.504628 
L 566.013975 371.991504 
L 566.067421 388.002302 
L 566.136138 505.778464 
L 566.174314 409.147587 
L 566.21249 377.407523 
L 566.24303 484.557764 
L 566.265936 506.143767 
L 566.304112 392.88704 
L 566.311747 390.756744 
L 566.327017 408.084427 
L 566.388099 520.174064 
L 566.43391 421.473843 
L 566.571343 374.693622 
L 566.578979 376.432684 
L 566.724047 490.357932 
L 566.746953 539.719108 
L 566.838575 504.930628 
L 566.892021 477.930078 
L 566.976008 408.889845 
L 567.006549 457.414159 
L 567.021819 492.549676 
L 567.098171 418.352928 
L 567.151618 365.240045 
L 567.205064 403.972086 
L 567.25851 473.876027 
L 567.296686 372.368676 
L 567.311956 373.715381 
L 567.365403 409.41541 
L 567.495201 467.558507 
L 567.525742 460.591645 
L 567.563918 436.624267 
L 567.579188 450.353573 
L 567.617364 517.394467 
L 567.663175 438.854378 
L 567.693716 466.635925 
L 567.739527 511.323791 
L 567.777703 455.565162 
L 567.815879 382.38515 
L 567.869325 517.408852 
L 567.884595 524.339471 
L 567.907501 494.074442 
L 568.006758 440.837592 
L 567.968582 533.003678 
L 568.014394 464.935101 
L 568.121286 546.872754 
L 568.08311 441.937914 
L 568.136557 542.680769 
L 568.266355 367.536595 
L 568.304531 429.544842 
L 568.403788 474.391788 
L 568.350342 383.792057 
L 568.426694 465.437 
L 568.525951 369.932108 
L 568.556492 407.221242 
L 568.648114 485.013118 
L 568.609938 372.799207 
L 568.67102 434.095201 
L 568.716831 372.028609 
L 568.800818 403.458233 
L 568.930616 522.233098 
L 568.838994 369.313033 
L 568.984062 464.470279 
L 569.014603 372.195105 
L 569.060414 468.621493 
L 569.106225 372.313244 
L 569.129131 409.369954 
L 569.205483 362.738744 
L 569.213118 362.728472 
L 569.220753 362.824253 
L 569.243659 367.683442 
L 569.281835 483.170401 
L 569.327646 362.234481 
L 569.365822 402.864038 
L 569.388727 374.126421 
L 569.426903 408.850334 
L 569.457444 394.108842 
L 569.541431 536.865501 
L 569.571972 449.799263 
L 569.587242 405.102 
L 569.671229 480.875448 
L 569.694135 477.985493 
L 569.70177 499.859283 
L 569.724675 539.625832 
L 569.770486 421.581495 
L 569.785757 431.881587 
L 569.808662 420.041746 
L 569.831568 451.94659 
L 569.900285 517.754901 
L 569.92319 463.346692 
L 570.030083 372.297185 
L 570.045353 373.088153 
L 570.068259 381.5186 
L 570.11407 482.656027 
L 570.167516 376.115773 
L 570.182786 370.083803 
L 570.243868 390.072593 
L 570.266774 433.551278 
L 570.33549 368.694776 
L 570.411842 362.387517 
L 570.381301 381.577377 
L 570.427112 368.669521 
L 570.534005 470.091559 
L 570.472924 361.862669 
L 570.617992 411.141799 
L 570.679074 432.823646 
L 570.74779 385.46832 
L 570.785966 515.42586 
L 570.847048 371.967551 
L 570.869953 360.843639 
L 570.900494 418.568939 
L 570.908129 432.13742 
L 570.976846 357.674284 
L 571.007387 357.196198 
L 571.022657 359.049041 
L 571.190631 512.84872 
L 571.083738 358.799847 
L 571.236442 441.18695 
L 571.282253 370.773586 
L 571.312794 435.796798 
L 571.343335 511.111915 
L 571.389146 382.72575 
L 571.419687 417.743363 
L 571.434957 411.525961 
L 571.518944 361.728343 
L 571.54185 379.601782 
L 571.57239 498.562432 
L 571.625837 364.20502 
L 571.648742 366.200173 
L 571.686918 399.634686 
L 571.77854 376.346651 
L 571.854892 361.375933 
L 571.816716 397.550218 
L 571.893068 366.524564 
L 571.915974 445.275258 
L 572.007596 414.011643 
L 572.038137 523.60254 
L 572.083948 533.851198 
L 572.106853 505.125554 
L 572.183205 363.366168 
L 572.229016 429.973912 
L 572.274827 506.542988 
L 572.290098 519.862924 
L 572.313003 427.026093 
L 572.328274 379.120511 
L 572.412261 463.696815 
L 572.435166 524.223299 
L 572.503883 377.923041 
L 572.526789 397.025382 
L 572.5726 468.074871 
L 572.626046 368.778472 
L 572.648952 363.855908 
L 572.679492 378.68088 
L 572.710033 518.341918 
L 572.79402 444.114266 
L 572.809291 433.557343 
L 572.855102 361.156624 
L 572.931454 393.652179 
L 572.961994 498.561513 
L 573.015441 387.77286 
L 573.045981 402.864833 
L 573.061252 368.762201 
L 573.129968 434.409621 
L 573.19105 490.841081 
L 573.229226 386.693079 
L 573.236861 380.796921 
L 573.305578 407.595728 
L 573.313213 409.284789 
L 573.336118 394.040014 
L 573.420105 365.628115 
L 573.443011 373.444677 
L 573.465917 423.904717 
L 573.565174 402.393854 
L 573.626255 421.928933 
L 573.595715 376.652094 
L 573.656796 384.879411 
L 573.679702 371.375449 
L 573.694972 425.864449 
L 573.710242 459.822988 
L 573.786594 376.068044 
L 573.79423 368.620099 
L 573.82477 402.996845 
L 573.870581 394.869749 
L 573.893487 442.187736 
L 573.939298 360.39644 
L 573.969839 376.298043 
L 574.053826 391.567944 
L 574.01565 360.757734 
L 574.092002 383.812034 
L 574.099637 381.316881 
L 574.122543 400.313103 
L 574.20653 447.47276 
L 574.175989 398.749649 
L 574.229435 400.407676 
L 574.244706 372.987147 
L 574.321057 445.402571 
L 574.382139 449.056603 
L 574.351598 437.888656 
L 574.397409 441.694495 
L 574.489031 366.929265 
L 574.534843 403.832625 
L 574.573019 439.593675 
L 574.595924 386.533674 
L 574.61883 388.939302 
L 574.657006 367.395927 
L 574.672276 387.144418 
L 574.771533 385.309168 
L 574.802074 432.960001 
L 574.809709 432.629292 
L 574.84025 379.836483 
L 574.85552 442.956928 
L 574.962413 513.557215 
L 574.916602 381.999862 
L 574.970048 509.454583 
L 575.122752 366.322427 
L 575.054035 521.272133 
L 575.130387 368.083805 
L 575.283091 528.478263 
L 575.305996 479.722661 
L 575.389983 529.096082 
L 575.428159 378.565518 
L 575.435795 375.111657 
L 575.451065 408.316719 
L 575.527417 484.586265 
L 575.557958 425.831588 
L 575.573228 416.068468 
L 575.588498 491.901876 
L 575.611404 519.260557 
L 575.657215 381.510648 
L 575.672485 374.022101 
L 575.695391 403.420506 
L 575.718296 384.740819 
L 575.748837 522.787607 
L 575.817554 362.002422 
L 575.85573 361.320504 
L 575.893906 362.344466 
L 575.924446 370.213482 
L 575.962622 490.082164 
L 576.031339 367.185752 
L 576.046609 369.684958 
L 576.084785 472.125836 
L 576.161137 394.228845 
L 576.176408 373.023454 
L 576.229854 492.661956 
L 576.237489 493.189597 
L 576.344382 367.954906 
L 576.298571 508.507568 
L 576.397828 410.919187 
L 576.405463 409.669006 
L 576.436004 487.914747 
L 576.45891 388.882972 
L 576.504721 414.593331 
L 576.519991 364.395155 
L 576.550532 436.524982 
L 576.619248 381.612329 
L 576.703235 475.215775 
L 576.66506 371.730727 
L 576.726141 382.000459 
L 576.741411 364.453556 
L 576.810128 429.747403 
L 576.87121 374.976968 
L 576.932291 481.834769 
L 576.962832 514.526382 
L 576.978102 487.08606 
L 577.023913 381.144275 
L 577.084995 491.225882 
L 577.09263 497.800472 
L 577.1079 451.626736 
L 577.153711 361.861227 
L 577.199523 496.598082 
L 577.222428 416.49365 
L 577.237699 365.326085 
L 577.275874 470.480332 
L 577.329321 389.010828 
L 577.367497 521.390062 
L 577.443849 449.254442 
L 577.497295 368.116488 
L 577.566012 388.907729 
L 577.619458 499.723637 
L 577.672904 379.66909 
L 577.688174 377.05169 
L 577.718715 388.772134 
L 577.787432 384.978014 
L 577.856149 484.918131 
L 577.863784 484.906469 
L 577.886689 462.875969 
L 577.90196 488.776449 
L 578.001217 505.543826 
L 577.970676 488.483148 
L 578.016487 503.138407 
L 578.10811 401.593741 
L 578.069934 509.098468 
L 578.12338 473.783732 
L 578.230273 522.438225 
L 578.184462 373.892399 
L 578.237908 519.273665 
L 578.31426 390.406938 
L 578.375341 450.991871 
L 578.405882 535.259417 
L 578.466963 371.342575 
L 578.482234 370.259078 
L 578.489869 373.178772 
L 578.528045 522.417359 
L 578.642573 500.598425 
L 578.650208 502.747496 
L 578.665478 476.98617 
L 578.74183 368.177309 
L 578.703654 518.514964 
L 578.795276 382.563727 
L 578.802912 374.412844 
L 578.825817 459.432864 
L 578.833452 464.241328 
L 578.856358 411.694609 
L 578.94798 359.880105 
L 578.978521 401.552493 
L 579.031967 522.34435 
L 579.070143 377.244546 
L 579.077778 377.884129 
L 579.093049 371.159651 
L 579.123589 362.230268 
L 579.207577 362.990618 
L 579.222847 368.596985 
L 579.253388 478.260671 
L 579.314469 365.647394 
L 579.32974 368.768055 
L 579.375551 508.55988 
L 579.398456 525.418079 
L 579.428997 440.329037 
L 579.528254 365.036135 
L 579.474808 512.173156 
L 579.558795 382.424045 
L 579.574065 381.730187 
L 579.581701 385.197208 
L 579.612241 513.225163 
L 579.665688 370.145729 
L 579.680958 371.075015 
L 579.696228 395.332106 
L 579.795486 498.733056 
L 579.75731 385.70174 
L 579.810756 480.598678 
L 579.848932 371.262245 
L 579.917649 494.599792 
L 579.932919 540.452263 
L 579.994001 382.230441 
L 580.001636 382.810086 
L 580.032177 401.610421 
L 580.070353 519.639301 
L 580.146704 454.708013 
L 580.207786 517.411326 
L 580.276503 395.316669 
L 580.284138 388.010997 
L 580.314679 434.764803 
L 580.337584 511.351897 
L 580.436842 493.737521 
L 580.452112 507.652021 
L 580.482653 396.846405 
L 580.490288 395.163897 
L 580.497923 406.480328 
L 580.59718 516.786032 
L 580.551369 393.773311 
L 580.620086 444.89688 
L 580.719343 391.688641 
L 580.658262 523.172645 
L 580.742249 425.368438 
L 580.826236 372.017589 
L 580.864412 501.909002 
L 580.879682 506.238186 
L 580.933129 488.27418 
L 580.986575 387.12524 
L 581.017116 525.468194 
L 581.032386 536.066349 
L 581.047656 493.364805 
L 581.093468 385.179577 
L 581.146914 531.783638 
L 581.154549 534.423962 
L 581.169819 506.497934 
L 581.207995 381.658803 
L 581.291982 383.344891 
L 581.337793 368.147168 
L 581.353064 375.113585 
L 581.383605 482.944119 
L 581.437051 368.954423 
L 581.475227 430.41752 
L 581.566849 523.889861 
L 581.536308 395.311204 
L 581.620295 506.044947 
L 581.742458 371.89239 
L 581.750094 372.166239 
L 581.772999 447.053198 
L 581.811175 474.447575 
L 581.856986 392.178364 
L 581.925703 365.808374 
L 581.940973 381.297254 
L 582.032595 506.160966 
L 581.986784 367.3191 
L 582.078407 474.586506 
L 582.177664 388.388894 
L 582.192934 470.585655 
L 582.20057 491.22323 
L 582.261651 392.744416 
L 582.284557 432.222724 
L 582.368544 359.388619 
L 582.330368 469.829431 
L 582.399084 425.497452 
L 582.559423 360.017629 
L 582.589964 366.429683 
L 582.689221 492.586248 
L 582.712127 402.801298 
L 582.735033 363.677569 
L 582.796114 497.080053 
L 582.803749 505.979367 
L 582.841925 430.827952 
L 582.857196 402.359131 
L 582.895371 459.861785 
L 582.948818 412.720124 
L 582.986994 484.596083 
L 583.063346 426.966977 
L 583.078616 392.710347 
L 583.139697 464.2081 
L 583.162603 509.136217 
L 583.208414 397.288427 
L 583.26186 505.938927 
L 583.292401 404.517654 
L 583.376388 487.034701 
L 583.391659 505.416595 
L 583.46801 465.223668 
L 583.498551 404.683635 
L 583.551997 482.484943 
L 583.567268 501.843436 
L 583.613079 375.179596 
L 583.620714 374.537569 
L 583.628349 378.810483 
L 583.750512 532.408717 
L 583.773418 423.279479 
L 583.788688 378.121721 
L 583.826864 468.968906 
L 583.86504 455.408189 
L 583.941392 427.476314 
L 583.994838 536.257494 
L 584.002473 537.047232 
L 584.017744 533.079721 
L 584.040649 539.039884 
L 584.08646 432.782919 
L 584.162812 370.19108 
L 584.193353 448.846666 
L 584.216259 385.456431 
L 584.269705 460.582863 
L 584.323151 536.543514 
L 584.376598 520.405304 
L 584.414774 426.303006 
L 584.48349 513.667043 
L 584.582748 369.904112 
L 584.636194 453.542451 
L 584.735451 516.768311 
L 584.67437 378.754898 
L 584.743087 501.439606 
L 584.765992 385.641343 
L 584.865249 418.352768 
L 584.89579 384.934787 
L 584.903425 414.642044 
L 584.926331 514.943214 
L 584.995048 372.833702 
L 585.010318 386.43836 
L 585.033224 367.148337 
L 585.048494 395.884533 
L 585.08667 534.183647 
L 585.155387 437.984154 
L 585.178292 404.251481 
L 585.216468 532.04839 
L 585.224103 535.066432 
L 585.247009 508.768202 
L 585.338631 398.775042 
L 585.361537 494.568851 
L 585.414983 399.220871 
L 585.4837 540.711384 
L 585.544781 411.911263 
L 585.605863 528.608001 
L 585.70512 461.937562 
L 585.628768 532.506022 
L 585.743296 513.614763 
L 585.796742 539.265238 
L 585.781472 507.90663 
L 585.834918 508.520977 
L 585.850189 406.96232 
L 585.92654 537.078615 
L 585.941811 493.74832 
L 586.018163 423.865996 
L 586.033433 522.362651 
L 586.041068 529.230143 
L 586.056339 476.713932 
L 586.170866 368.083739 
L 586.13269 491.025676 
L 586.178502 373.69614 
L 586.270124 445.751043 
L 586.216677 360.968283 
L 586.331205 432.807919 
L 586.33884 431.115132 
L 586.346476 442.167784 
L 586.392287 429.167382 
L 586.468639 497.344907 
L 586.483909 445.341547 
L 586.506815 521.052498 
L 586.583166 483.207652 
L 586.621342 531.488504 
L 586.682424 470.916096 
L 586.690059 479.65404 
L 586.705329 482.909739 
L 586.73587 460.048136 
L 586.842763 374.624587 
L 586.858033 392.575192 
L 586.934385 520.90817 
L 586.972561 468.097525 
L 586.980196 466.674359 
L 586.995466 478.000649 
L 587.026007 539.960625 
L 587.087089 474.098834 
L 587.102359 402.269195 
L 587.171076 530.924782 
L 587.201616 410.51974 
L 587.239792 526.52563 
L 587.35432 488.160372 
L 587.407766 360.412228 
L 587.468848 407.434861 
L 587.56047 395.835524 
L 587.591011 480.113253 
L 587.636822 513.696639 
L 587.667363 418.005021 
L 587.682633 404.188621 
L 587.713174 449.485804 
L 587.804796 502.453748 
L 587.758985 385.177803 
L 587.812431 470.233235 
L 587.919324 377.770346 
L 587.926959 410.148305 
L 588.026217 540.497285 
L 587.980405 389.790229 
L 588.049122 534.045084 
L 588.117839 381.596733 
L 588.232367 392.097106 
L 588.423246 514.3663 
L 588.293448 367.103559 
L 588.430881 493.796957 
L 588.453787 374.281969 
L 588.514868 517.613986 
L 588.545409 464.193231 
L 588.553044 459.675687 
L 588.568315 495.350076 
L 588.583585 538.699995 
L 588.637031 414.209285 
L 588.667572 470.005678 
L 588.690478 407.576068 
L 588.728654 534.532874 
L 588.743924 527.923993 
L 588.79737 377.10276 
L 588.881357 408.430195 
L 588.980615 401.589016 
L 589.018791 506.885873 
L 589.026426 510.355113 
L 589.034061 496.756556 
L 589.064602 404.501332 
L 589.110413 503.488901 
L 589.148589 459.569577 
L 589.163859 484.531345 
L 589.20967 373.775453 
L 589.224941 388.253927 
L 589.232576 388.050403 
L 589.255482 516.073183 
L 589.339469 390.428173 
L 589.370009 446.790839 
L 589.38528 517.54544 
L 589.41582 402.752194 
L 589.476902 451.367812 
L 589.515078 362.616884 
L 589.59143 386.261903 
L 589.637241 504.269502 
L 589.690687 372.569567 
L 589.705958 361.352547 
L 589.751769 433.510325 
L 589.759404 439.090816 
L 589.774674 389.039232 
L 589.782309 368.849371 
L 589.81285 477.137063 
L 589.866296 395.044101 
L 589.965554 510.665421 
L 589.980824 450.272673 
L 590.095352 382.01159 
L 590.011365 479.41225 
L 590.102987 400.915156 
L 590.118258 496.120434 
L 590.148798 381.420917 
L 590.217515 435.809823 
L 590.301502 548.217012 
L 590.347313 483.406584 
L 590.461841 361.468232 
L 590.477111 366.80976 
L 590.675626 542.147878 
L 590.507652 364.346088 
L 590.721437 508.878953 
L 590.767248 363.500458 
L 590.81306 517.935993 
L 590.835965 445.168425 
L 590.950493 501.954321 
L 590.866506 393.904664 
L 590.973398 488.514064 
L 591.01921 370.798839 
L 591.065021 531.964271 
L 591.171913 367.252821 
L 591.232995 431.616817 
L 591.309347 530.120366 
L 591.332252 408.810928 
L 591.347523 368.003442 
L 591.378063 486.631692 
L 591.44678 390.396371 
L 591.46205 364.317624 
L 591.500226 467.917628 
L 591.515497 530.486112 
L 591.553673 428.250368 
L 591.614754 502.014244 
L 591.691106 532.149982 
L 591.65293 378.089615 
L 591.714011 513.427069 
L 591.759823 368.245999 
L 591.790363 525.385768 
L 591.84381 391.044061 
L 591.897256 360.580156 
L 591.965973 504.111539 
L 591.981243 515.256434 
L 592.004149 425.211546 
L 592.057595 371.661218 
L 592.0805 465.68944 
L 592.111041 390.828084 
L 592.156852 525.953037 
L 592.187393 366.758616 
L 592.233204 440.705973 
L 592.240839 438.482608 
L 592.248475 445.824031 
L 592.27138 529.350715 
L 592.301921 372.128149 
L 592.355367 445.624086 
L 592.385908 367.995531 
L 592.439354 486.192112 
L 592.469895 378.348268 
L 592.500436 521.024585 
L 592.599693 501.051362 
L 592.691315 364.765285 
L 592.737126 380.024582 
L 592.859289 493.547899 
L 592.790573 365.462651 
L 592.87456 440.643239 
L 592.88983 366.772982 
L 592.950912 533.04344 
L 592.973817 431.144357 
L 592.989088 484.532324 
L 593.042534 386.302959 
L 593.073075 404.348188 
L 593.126521 362.872742 
L 593.172332 436.382018 
L 593.195238 384.889889 
L 593.233414 408.543061 
L 593.248684 521.273427 
L 593.279225 362.733165 
L 593.347941 468.41273 
L 593.363212 372.118518 
L 593.454834 470.036621 
L 593.523551 503.840167 
L 593.50828 459.619115 
L 593.538821 480.529623 
L 593.599902 362.410195 
L 593.645714 466.369051 
L 593.660984 480.665415 
L 593.68389 383.319045 
L 593.737336 361.620297 
L 593.706795 425.708913 
L 593.767877 404.215182 
L 593.821323 500.772985 
L 593.851864 369.019578 
L 593.882404 445.377649 
L 593.958756 376.048495 
L 593.966391 422.850235 
L 594.050378 373.279564 
L 594.088554 534.31836 
L 594.180177 360.784174 
L 594.248893 419.477384 
L 594.363421 523.379347 
L 594.371056 511.375374 
L 594.455043 384.584446 
L 594.477949 532.003372 
L 594.485584 534.300851 
L 594.493219 503.27708 
L 594.561936 361.747246 
L 594.600112 503.799116 
L 594.645923 377.386019 
L 594.668829 512.926806 
L 594.71464 423.565027 
L 594.737545 510.762621 
L 594.783356 358.654101 
L 594.829167 471.127815 
L 594.836803 469.767752 
L 594.897884 363.888474 
L 594.95133 412.680805 
L 594.981871 525.803349 
L 595.042953 390.031472 
L 595.073493 510.678921 
L 595.081129 518.206363 
L 595.119305 453.517256 
L 595.233832 363.949236 
L 595.165116 480.564953 
L 595.256738 391.924221 
L 595.272008 498.991332 
L 595.33309 382.583051 
L 595.371266 448.266283 
L 595.386536 517.271812 
L 595.424712 367.363202 
L 595.478158 436.48394 
L 595.485793 390.037401 
L 595.577416 472.946947 
L 595.585051 486.467096 
L 595.630862 376.886773 
L 595.653768 357.420141 
L 595.722484 403.003795 
L 595.829377 456.965897 
L 595.768295 360.54856 
L 595.837012 446.865222 
L 595.959175 357.807424 
L 595.913364 453.48221 
L 595.96681 358.129079 
L 595.982081 404.177924 
L 596.058432 516.086643 
L 596.020256 368.241797 
L 596.096608 444.141073 
L 596.218771 373.47871 
L 596.150055 501.721712 
L 596.226407 383.960325 
L 596.241677 453.701927 
L 596.272218 360.743485 
L 596.333299 427.638286 
L 596.409651 361.9646 
L 596.37911 479.943496 
L 596.447827 388.477127 
L 596.55472 447.255817 
L 596.493638 368.916479 
L 596.562355 412.033336 
L 596.638707 362.731397 
L 596.592895 457.83186 
L 596.653977 453.455425 
L 596.661612 502.750377 
L 596.730329 370.977044 
L 596.753234 426.871891 
L 596.768505 379.738187 
L 596.844857 458.046293 
L 596.860127 523.265605 
L 596.875397 424.914547 
L 596.959384 516.149667 
L 597.012831 365.868712 
L 597.096818 381.883698 
L 597.119723 521.754593 
L 597.18844 372.298691 
L 597.20371 401.877553 
L 597.218981 383.706021 
L 597.257157 496.571339 
L 597.287697 426.438069 
L 597.356414 501.690377 
L 597.386955 379.278108 
L 597.425131 358.799875 
L 597.455671 403.699335 
L 597.486212 379.250731 
L 597.539659 490.383163 
L 597.516753 369.299263 
L 597.60074 410.469184 
L 597.608375 399.771046 
L 597.646551 487.428876 
L 597.661822 528.235289 
L 597.692362 380.963037 
L 597.745809 453.43849 
L 597.768714 362.022137 
L 597.837431 458.733894 
L 597.852701 444.903257 
L 597.860336 446.397289 
L 597.867972 444.609413 
L 597.890877 363.610677 
L 597.944323 495.435331 
L 597.982499 423.301328 
L 598.02831 506.001379 
L 598.074122 371.278748 
L 598.081757 372.328397 
L 598.211555 540.477708 
L 598.112297 371.05435 
L 598.21919 536.753732 
L 598.303177 379.679537 
L 598.280272 541.758317 
L 598.333718 437.42059 
L 598.348988 499.103359 
L 598.379529 373.970512 
L 598.448246 460.917251 
L 598.532233 362.013374 
L 598.494057 514.426357 
L 598.555138 435.52859 
L 598.562773 466.581323 
L 598.600949 366.660031 
L 598.646761 366.800951 
L 598.662031 361.546438 
L 598.692572 366.981063 
L 598.746018 538.779527 
L 598.830005 483.333572 
L 598.906357 394.84862 
L 598.936898 489.071579 
L 599.081966 361.698789 
L 598.982709 531.193552 
L 599.127777 395.703282 
L 599.204129 379.990626 
L 599.24994 506.876537 
L 599.288116 360.507311 
L 599.318657 517.21437 
L 599.364468 421.176284 
L 599.379738 524.90148 
L 599.471361 379.561236 
L 599.494266 522.361741 
L 599.585888 459.948726 
L 599.692781 416.949974 
L 599.616429 536.014952 
L 599.700416 447.814212 
L 599.715687 519.840696 
L 599.784403 368.931949 
L 599.814944 485.571666 
L 599.83785 368.949939 
L 599.876025 498.333454 
L 599.921837 468.82714 
L 599.944742 509.995139 
L 599.952377 487.516298 
L 600.05927 365.359846 
L 600.013459 520.524233 
L 600.066905 376.647296 
L 600.189068 527.856137 
L 600.311231 360.382769 
L 600.341772 387.970527 
L 600.402853 484.291985 
L 600.372313 378.949526 
L 600.4563 464.637481 
L 600.47157 368.398292 
L 600.494476 496.023121 
L 600.563192 475.93843 
L 600.67772 364.060223 
L 600.647179 494.23648 
L 600.685355 387.008191 
L 600.784613 538.65397 
L 600.731166 361.376753 
L 600.792248 482.957092 
L 600.906776 362.3313 
L 600.914411 360.25198 
L 600.929681 365.440108 
L 601.044209 487.685191 
L 601.013668 361.91993 
L 601.051844 480.801938 
L 601.067115 368.333594 
L 601.10529 485.313765 
L 601.166372 382.81838 
L 601.227453 501.837404 
L 601.204548 360.98539 
L 601.2809 414.415584 
L 601.372522 488.73085 
L 601.395428 359.134042 
L 601.403063 358.748256 
L 601.410698 359.545995 
L 601.494685 507.529021 
L 601.517591 369.599865 
L 601.532861 361.318804 
L 601.548131 386.234717 
L 601.624483 371.484174 
L 601.662659 477.031796 
L 601.685565 381.608524 
L 601.784822 427.016486 
L 601.800092 493.140217 
L 601.868809 365.098952 
L 601.884079 384.883559 
L 601.891715 380.955026 
L 601.952796 514.1208 
L 602.013878 475.258491 
L 602.029148 451.926701 
L 602.1055 357.070026 
L 602.151311 378.243466 
L 602.250568 483.194144 
L 602.220028 374.346504 
L 602.273474 431.279505 
L 602.32692 364.429089 
L 602.365096 511.866465 
L 602.388002 468.44483 
L 602.464354 380.490565 
L 602.441448 480.435255 
L 602.5178 391.115247 
L 602.617057 458.379962 
L 602.563611 360.066329 
L 602.624693 407.111381 
L 602.70868 369.109772 
L 602.685774 455.574539 
L 602.731585 392.767778 
L 602.846113 547.307445 
L 602.762126 375.897314 
L 602.869018 502.015619 
L 602.891924 363.201604 
L 602.960641 522.781141 
L 602.983546 448.320491 
L 602.991181 475.89086 
L 603.052263 397.39443 
L 603.075168 410.309707 
L 603.166791 370.342298 
L 603.12098 540.215439 
L 603.182061 408.814465 
L 603.197331 533.944484 
L 603.296589 491.969056 
L 603.311859 415.694711 
L 603.334765 528.172941 
L 603.395846 524.179942 
L 603.403482 524.514053 
L 603.525644 375.303813 
L 603.479833 529.429763 
L 603.571456 408.557361 
L 603.670713 548.968908 
L 603.594361 375.433792 
L 603.685983 460.105042 
L 603.785241 377.380568 
L 603.716524 513.415616 
L 603.792876 407.572841 
L 603.838687 532.160961 
L 603.861593 364.125855 
L 603.915039 518.168732 
L 604.014296 382.664971 
L 603.991391 521.727969 
L 604.029567 469.539957 
L 604.037202 472.257202 
L 604.052472 438.393083 
L 604.067743 450.166902 
L 604.083013 392.732564 
L 604.098283 493.172144 
L 604.174635 435.852738 
L 604.18227 455.227662 
L 604.250987 367.151109 
L 604.258622 367.260255 
L 604.327339 470.179819 
L 604.304433 357.706988 
L 604.37315 420.802494 
L 604.388421 360.236568 
L 604.434232 509.709621 
L 604.480043 431.747606 
L 604.495313 497.605732 
L 604.56403 373.16767 
L 604.571665 384.767383 
L 604.5793 378.520368 
L 604.609841 424.323918 
L 604.625111 500.13805 
L 604.640382 415.29978 
L 604.716734 457.089589 
L 604.747274 359.468058 
L 604.793085 509.121346 
L 604.838897 374.083679 
L 604.846532 364.343472 
L 604.861802 478.654492 
L 604.869437 482.24859 
L 604.877072 435.75072 
L 604.953424 369.592249 
L 604.892343 475.973518 
L 604.961059 427.698908 
L 604.968695 493.712833 
L 604.999235 361.380179 
L 605.067952 430.259425 
L 605.113763 358.917151 
L 605.144304 434.319024 
L 605.174845 384.294101 
L 605.297008 482.91876 
L 605.335184 387.523443 
L 605.419171 404.621601 
L 605.518428 518.949598 
L 605.480252 381.548899 
L 605.526063 460.425829 
L 605.533698 375.982881 
L 605.564239 518.292558 
L 605.632956 467.578777 
L 605.678767 359.135897 
L 605.747484 372.860478 
L 605.808565 534.190375 
L 605.862011 469.435106 
L 605.877282 410.447089 
L 605.900187 507.325128 
L 605.976539 442.003171 
L 608.816828 441.459828 
L 611.298264 440.803938 
L 612.115229 439.262534 
L 613.79497 436.283532 
L 614.161459 436.231129 
L 619.857308 434.715597 
L 625.056869 431.358379 
L 627.660468 430.407589 
L 633.394493 427.764359 
L 636.173701 426.342832 
L 637.097558 423.388145 
L 639.174329 416.427334 
L 639.762238 414.741216 
L 641.251099 414.447499 
L 642.862124 413.937425 
L 644.893083 411.271112 
L 645.755859 410.275835 
L 646.488837 410.104799 
L 647.366883 409.978337 
L 648.855745 410.009228 
L 654.597405 410.444248 
L 654.79592 409.853629 
L 655.131868 408.012602 
L 656.300051 400.972284 
L 656.750527 400.466369 
L 657.147557 400.263042 
L 657.368977 400.358516 
L 657.743101 400.880256 
L 658.086685 401.191212 
L 658.384457 401.12451 
L 660.117644 400.316289 
L 661.415626 400.188017 
L 664.202469 399.963014 
L 665.05761 399.2891 
L 667.852088 396.887475 
L 669.623451 395.801309 
L 670.40224 395.547754 
L 671.280287 395.556524 
L 672.150698 395.498669 
L 672.616444 395.247716 
L 673.028744 394.704058 
L 673.776992 393.259306 
L 674.525241 391.992391 
L 674.952811 391.67441 
L 676.220252 391.078201 
L 677.838911 390.582103 
L 680.816634 389.690334 
L 686.252887 387.86036 
L 690.192643 385.792404 
L 691.040148 385.64924 
L 691.834208 385.726701 
L 693.078743 385.849657 
L 693.414691 385.688641 
L 693.788815 385.187541 
L 694.60578 383.58773 
L 695.132608 382.834281 
L 695.468556 382.703362 
L 696.270251 382.667789 
L 697.285731 382.591543 
L 697.68276 382.341457 
L 698.568442 381.412478 
L 699.041823 381.121289 
L 699.354866 381.170279 
L 699.767166 381.495916 
L 700.691024 382.280488 
L 700.942985 382.214072 
L 701.217852 381.839426 
L 701.752315 380.625589 
L 702.286778 379.631263 
L 702.538739 379.53617 
L 702.821241 379.684789 
L 703.340433 380.282142 
L 703.798544 380.667322 
L 704.04287 380.617635 
L 704.355913 380.283847 
L 705.478285 378.883251 
L 705.768422 378.993329 
L 706.195993 379.439464 
L 707.387082 381.122166 
L 707.684854 381.716059 
L 707.799382 381.739515 
L 707.814652 381.706687 
L 707.921545 381.045025 
L 708.471278 377.154665 
L 708.578171 376.978058 
L 708.998106 374.949723 
L 709.792166 374.272464 
L 710.792375 373.7292 
L 722.497115 368.449747 
L 723.947801 367.947646 
L 727.788299 366.142834 
L 731.201228 364.541151 
L 731.812042 364.185767 
L 734.316384 362.945331 
L 735.102808 362.534865 
L 736.568763 361.720324 
L 740.393992 359.498026 
L 747.319106 355.082327 
L 751.167239 352.588277 
L 753.05313 351.447341 
L 754.458005 350.522182 
L 755.442944 350.011483 
L 757.305929 348.848126 
L 758.000731 348.337116 
L 762.413869 344.876054 
L 765.055643 342.378015 
L 767.941743 339.376402 
L 772.194542 334.738703 
L 776.065582 330.274503 
L 779.226549 326.278133 
L 785.25071 317.858155 
L 788.686544 312.292888 
L 790.877843 308.30368 
L 792.809545 304.309646 
L 794.634354 300.005266 
L 798.734449 289.402088 
L 803.613333 276.220247 
L 805.117465 271.53742 
L 806.797206 265.369637 
L 814.905774 233.531369 
L 816.722948 225.286438 
L 818.998233 213.766857 
L 822.960895 194.074084 
L 825.992064 179.068048 
L 828.763636 164.091978 
L 835.139017 128.305468 
L 837.605182 112.701012 
L 839.903373 96.861753 
L 839.903373 96.861753 
" clip-path="url(#p6376c4ef16)" style="fill: none; stroke: #ab1239; stroke-width: 5; stroke-linecap: square"/>
   </g>
   <g id="patch_3">
    <path d="M 76.4 560.571 
L 76.4 62.234 
" style="fill: none; stroke: #000000; stroke-width: 0.8; stroke-linejoin: miter; stroke-linecap: square"/>
   </g>
   <g id="patch_4">
    <path d="M 844 560.571 
L 844 62.234 
" style="fill: none; stroke: #000000; stroke-width: 0.8; stroke-linejoin: miter; stroke-linecap: square"/>
   </g>
   <g id="patch_5">
    <path d="M 76.4 560.571 
L 844 560.571 
" style="fill: none; stroke: #000000; stroke-width: 0.8; stroke-linejoin: miter; stroke-linecap: square"/>
   </g>
   <g id="patch_6">
    <path d="M 76.4 62.234 
L 844 62.234 
" style="fill: none; stroke: #000000; stroke-width: 0.8; stroke-linejoin: miter; stroke-linecap: square"/>
   </g>
   <g id="text_18">
    <!-- Neutron reproduction factor -->
    <g transform="translate(242.957813 43.775575) scale(0.3 -0.3)">
     <use xlink:href="#DejaVuSerif-4e"/>
     <use xlink:href="#DejaVuSerif-65" transform="translate(87.5 0)"/>
     <use xlink:href="#DejaVuSerif-75" transform="translate(146.679688 0)"/>
     <use xlink:href="#DejaVuSerif-74" transform="translate(211.083984 0)"/>
     <use xlink:href="#DejaVuSerif-72" transform="translate(251.269531 0)"/>
     <use xlink:href="#DejaVuSerif-6f" transform="translate(299.072266 0)"/>
     <use xlink:href="#DejaVuSerif-6e" transform="translate(359.277344 0)"/>
     <use xlink:href="#DejaVuSerif-20" transform="translate(423.681641 0)"/>
     <use xlink:href="#DejaVuSerif-72" transform="translate(455.46875 0)"/>
     <use xlink:href="#DejaVuSerif-65" transform="translate(503.271484 0)"/>
     <use xlink:href="#DejaVuSerif-70" transform="translate(562.451172 0)"/>
     <use xlink:href="#DejaVuSerif-72" transform="translate(626.464844 0)"/>
     <use xlink:href="#DejaVuSerif-6f" transform="translate(674.267578 0)"/>
     <use xlink:href="#DejaVuSerif-64" transform="translate(734.472656 0)"/>
     <use xlink:href="#DejaVuSerif-75" transform="translate(798.486328 0)"/>
     <use xlink:href="#DejaVuSerif-63" transform="translate(862.890625 0)"/>
     <use xlink:href="#DejaVuSerif-74" transform="translate(918.896484 0)"/>
     <use xlink:href="#DejaVuSerif-69" transform="translate(959.082031 0)"/>
     <use xlink:href="#DejaVuSerif-6f" transform="translate(991.064453 0)"/>
     <use xlink:href="#DejaVuSerif-6e" transform="translate(1051.269531 0)"/>
     <use xlink:href="#DejaVuSerif-20" transform="translate(1115.673828 0)"/>
     <use xlink:href="#DejaVuSerif-66" transform="translate(1147.460938 0)"/>
     <use xlink:href="#DejaVuSerif-61" transform="translate(1184.472656 0)"/>
     <use xlink:href="#DejaVuSerif-63" transform="translate(1244.091797 0)"/>
     <use xlink:href="#DejaVuSerif-74" transform="translate(1300.097656 0)"/>
     <use xlink:href="#DejaVuSerif-6f" transform="translate(1340.283203 0)"/>
     <use xlink:href="#DejaVuSerif-72" transform="translate(1400.488281 0)"/>
    </g>
   </g>
   <g id="legend_1">
    <g id="patch_7">
     <path d="M 712.2 107.59025 
L 830 107.59025 
Q 834 107.59025 834 103.59025 
L 834 76.234 
Q 834 72.234 830 72.234 
L 712.2 72.234 
Q 708.2 72.234 708.2 76.234 
L 708.2 103.59025 
Q 708.2 107.59025 712.2 107.59025 
z
" style="fill: #ffffff; opacity: 0.95; stroke: #cccccc; stroke-linejoin: miter"/>
    </g>
    <g id="line2d_32">
     <path d="M 716.2 88.430875 
L 736.2 88.430875 
L 756.2 88.430875 
" style="fill: none; stroke: #ab1239; stroke-width: 5; stroke-linecap: square"/>
    </g>
    <g id="text_19">
     <!-- $\mathrm{^{239}Pu}$ -->
     <g transform="translate(772.2 95.430875) scale(0.2 -0.2)">
      <defs>
       <path id="DejaVuSerif-50" d="M 1581 2375 
L 2406 2375 
Q 2872 2375 3115 2626 
Q 3359 2878 3359 3353 
Q 3359 3831 3115 4081 
Q 2872 4331 2406 4331 
L 1581 4331 
L 1581 2375 
z
M 353 0 
L 353 331 
L 947 331 
L 947 4331 
L 353 4331 
L 353 4666 
L 2559 4666 
Q 3259 4666 3668 4311 
Q 4078 3956 4078 3353 
Q 4078 2753 3668 2397 
Q 3259 2041 2559 2041 
L 1581 2041 
L 1581 331 
L 2303 331 
L 2303 0 
L 353 0 
z
" transform="scale(0.015625)"/>
      </defs>
      <use xlink:href="#DejaVuSerif-32" transform="translate(0.908359 37.046875) scale(0.7)"/>
      <use xlink:href="#DejaVuSerif-33" transform="translate(45.444492 37.046875) scale(0.7)"/>
      <use xlink:href="#DejaVuSerif-39" transform="translate(89.980625 37.046875) scale(0.7)"/>
      <use xlink:href="#DejaVuSerif-50" transform="translate(137.11207 0.7125)"/>
      <use xlink:href="#DejaVuSerif-75" transform="translate(204.397227 0.7125)"/>
     </g>
    </g>
   </g>
  </g>
 </g>
 <defs>
  <clipPath id="p6376c4ef16">
   <rect x="76.4" y="62.234" width="767.6" height="498.337"/>
  </clipPath>
 </defs>
</svg>
