<?xml version="1.0" encoding="utf-8" standalone="no"?>
<!DOCTYPE svg PUBLIC "-//W3C//DTD SVG 1.1//EN"
  "http://www.w3.org/Graphics/SVG/1.1/DTD/svg11.dtd">
<svg xmlns:xlink="http://www.w3.org/1999/xlink" width="864pt" height="648pt" viewBox="0 0 864 648" xmlns="http://www.w3.org/2000/svg" version="1.1">
 <metadata>
  <rdf:RDF xmlns:dc="http://purl.org/dc/elements/1.1/" xmlns:cc="http://creativecommons.org/ns#" xmlns:rdf="http://www.w3.org/1999/02/22-rdf-syntax-ns#">
   <cc:Work>
    <dc:type rdf:resource="http://purl.org/dc/dcmitype/StillImage"/>
    <dc:date>2025-10-21T14:37:55.889786</dc:date>
    <dc:format>image/svg+xml</dc:format>
    <dc:creator>
     <cc:Agent>
      <dc:title>Matplotlib v3.10.7, https://matplotlib.org/</dc:title>
     </cc:Agent>
    </dc:creator>
   </cc:Work>
  </rdf:RDF>
 </metadata>
 <defs>
  <style type="text/css">*{stroke-linejoin: round; stroke-linecap: butt}</style>
 </defs>
 <g id="figure_1">
  <g id="patch_1">
   <path d="M 0 648 
L 864 648 
L 864 0 
L 0 0 
z
" style="fill: #ffffff; stroke: #000000; stroke-width: 3; stroke-linejoin: miter"/>
  </g>
  <g id="axes_1">
   <g id="patch_2">
    <path d="M 76.4 560.571 
L 844 560.571 
L 844 62.234 
L 76.4 62.234 
L 76.4 560.571 
z
" style="fill: none"/>
   </g>
   <g id="matplotlib.axis_1">
    <g id="xtick_1">
     <g id="line2d_1">
      <path d="M 76.4 560.571 
L 76.4 62.234 
" clip-path="url(#p764b00f88e)" style="fill: none; stroke-dasharray: 4.625,2; stroke-dashoffset: 0; stroke: #343837; stroke-opacity: 0.8; stroke-width: 1.25"/>
     </g>
     <g id="line2d_2">
      <defs>
       <path id="m7958e959da" d="M 0 0 
L 0 3.5 
" style="stroke: #000000; stroke-width: 0.8"/>
      </defs>
      <g>
       <use xlink:href="#m7958e959da" x="76.4" y="560.571" style="stroke: #000000; stroke-width: 0.8"/>
      </g>
     </g>
     <g id="text_1">
      <!-- $\mathdefault{10^{-11}}$ -->
      <g transform="translate(45.71 584.287562) scale(0.22 -0.22)">
       <defs>
        <path id="DejaVuSerif-31" d="M 909 0 
L 909 331 
L 1722 331 
L 1722 4213 
L 781 3603 
L 781 4013 
L 1919 4750 
L 2350 4750 
L 2350 331 
L 3163 331 
L 3163 0 
L 909 0 
z
" transform="scale(0.015625)"/>
        <path id="DejaVuSerif-30" d="M 2034 219 
Q 2513 219 2750 744 
Q 2988 1269 2988 2328 
Q 2988 3391 2750 3916 
Q 2513 4441 2034 4441 
Q 1556 4441 1318 3916 
Q 1081 3391 1081 2328 
Q 1081 1269 1318 744 
Q 1556 219 2034 219 
z
M 2034 -91 
Q 1275 -91 848 546 
Q 422 1184 422 2328 
Q 422 3475 848 4112 
Q 1275 4750 2034 4750 
Q 2797 4750 3222 4112 
Q 3647 3475 3647 2328 
Q 3647 1184 3222 546 
Q 2797 -91 2034 -91 
z
" transform="scale(0.015625)"/>
        <path id="DejaVuSerif-2212" d="M 678 2259 
L 4684 2259 
L 4684 1753 
L 678 1753 
L 678 2259 
z
" transform="scale(0.015625)"/>
       </defs>
       <use xlink:href="#DejaVuSerif-31" transform="translate(0 0.7125)"/>
       <use xlink:href="#DejaVuSerif-30" transform="translate(63.623047 0.7125)"/>
       <use xlink:href="#DejaVuSerif-2212" transform="translate(128.154453 37.046875) scale(0.7)"/>
       <use xlink:href="#DejaVuSerif-31" transform="translate(186.806797 37.046875) scale(0.7)"/>
       <use xlink:href="#DejaVuSerif-31" transform="translate(231.34293 37.046875) scale(0.7)"/>
      </g>
     </g>
    </g>
    <g id="xtick_2">
     <g id="line2d_3">
      <path d="M 198.78454 560.571 
L 198.78454 62.234 
" clip-path="url(#p764b00f88e)" style="fill: none; stroke-dasharray: 4.625,2; stroke-dashoffset: 0; stroke: #343837; stroke-opacity: 0.8; stroke-width: 1.25"/>
     </g>
     <g id="line2d_4">
      <g>
       <use xlink:href="#m7958e959da" x="198.78454" y="560.571" style="stroke: #000000; stroke-width: 0.8"/>
      </g>
     </g>
     <g id="text_2">
      <!-- $\mathdefault{10^{-9}}$ -->
      <g transform="translate(173.04454 584.287562) scale(0.22 -0.22)">
       <defs>
        <path id="DejaVuSerif-39" d="M 2994 2091 
Q 2784 1856 2512 1740 
Q 2241 1625 1900 1625 
Q 1206 1625 804 2044 
Q 403 2463 403 3188 
Q 403 3897 839 4323 
Q 1275 4750 2003 4750 
Q 2794 4750 3217 4161 
Q 3641 3572 3641 2478 
Q 3641 1253 3137 581 
Q 2634 -91 1722 -91 
Q 1475 -91 1203 -44 
Q 931 3 647 97 
L 647 872 
L 997 872 
Q 1038 556 1241 387 
Q 1444 219 1784 219 
Q 2391 219 2687 676 
Q 2984 1134 2994 2091 
z
M 1978 4441 
Q 1534 4441 1298 4117 
Q 1063 3794 1063 3188 
Q 1063 2581 1298 2256 
Q 1534 1931 1978 1931 
Q 2422 1931 2658 2245 
Q 2894 2559 2894 3150 
Q 2894 3772 2656 4106 
Q 2419 4441 1978 4441 
z
" transform="scale(0.015625)"/>
       </defs>
       <use xlink:href="#DejaVuSerif-31" transform="translate(0 0.7125)"/>
       <use xlink:href="#DejaVuSerif-30" transform="translate(63.623047 0.7125)"/>
       <use xlink:href="#DejaVuSerif-2212" transform="translate(128.154453 37.046875) scale(0.7)"/>
       <use xlink:href="#DejaVuSerif-39" transform="translate(186.806797 37.046875) scale(0.7)"/>
      </g>
     </g>
    </g>
    <g id="xtick_3">
     <g id="line2d_5">
      <path d="M 321.16908 560.571 
L 321.16908 62.234 
" clip-path="url(#p764b00f88e)" style="fill: none; stroke-dasharray: 4.625,2; stroke-dashoffset: 0; stroke: #343837; stroke-opacity: 0.8; stroke-width: 1.25"/>
     </g>
     <g id="line2d_6">
      <g>
       <use xlink:href="#m7958e959da" x="321.16908" y="560.571" style="stroke: #000000; stroke-width: 0.8"/>
      </g>
     </g>
     <g id="text_3">
      <!-- $\mathdefault{10^{-7}}$ -->
      <g transform="translate(295.42908 584.287562) scale(0.22 -0.22)">
       <defs>
        <path id="DejaVuSerif-37" d="M 3609 4347 
L 1784 0 
L 1319 0 
L 3059 4153 
L 903 4153 
L 903 3578 
L 538 3578 
L 538 4666 
L 3609 4666 
L 3609 4347 
z
" transform="scale(0.015625)"/>
       </defs>
       <use xlink:href="#DejaVuSerif-31" transform="translate(0 0.63125)"/>
       <use xlink:href="#DejaVuSerif-30" transform="translate(63.623047 0.63125)"/>
       <use xlink:href="#DejaVuSerif-2212" transform="translate(128.154453 36.965625) scale(0.7)"/>
       <use xlink:href="#DejaVuSerif-37" transform="translate(186.806797 36.965625) scale(0.7)"/>
      </g>
     </g>
    </g>
    <g id="xtick_4">
     <g id="line2d_7">
      <path d="M 443.553621 560.571 
L 443.553621 62.234 
" clip-path="url(#p764b00f88e)" style="fill: none; stroke-dasharray: 4.625,2; stroke-dashoffset: 0; stroke: #343837; stroke-opacity: 0.8; stroke-width: 1.25"/>
     </g>
     <g id="line2d_8">
      <g>
       <use xlink:href="#m7958e959da" x="443.553621" y="560.571" style="stroke: #000000; stroke-width: 0.8"/>
      </g>
     </g>
     <g id="text_4">
      <!-- $\mathdefault{10^{-5}}$ -->
      <g transform="translate(417.813621 584.287562) scale(0.22 -0.22)">
       <defs>
        <path id="DejaVuSerif-35" d="M 3219 4666 
L 3219 4153 
L 1081 4153 
L 1081 2816 
Q 1244 2928 1461 2984 
Q 1678 3041 1947 3041 
Q 2703 3041 3140 2622 
Q 3578 2203 3578 1478 
Q 3578 738 3136 323 
Q 2694 -91 1894 -91 
Q 1572 -91 1234 -12 
Q 897 66 544 225 
L 544 1131 
L 897 1131 
Q 925 688 1179 453 
Q 1434 219 1894 219 
Q 2388 219 2653 544 
Q 2919 869 2919 1478 
Q 2919 2084 2655 2407 
Q 2391 2731 1894 2731 
Q 1613 2731 1398 2631 
Q 1184 2531 1019 2322 
L 750 2322 
L 750 4666 
L 3219 4666 
z
" transform="scale(0.015625)"/>
       </defs>
       <use xlink:href="#DejaVuSerif-31" transform="translate(0 0.63125)"/>
       <use xlink:href="#DejaVuSerif-30" transform="translate(63.623047 0.63125)"/>
       <use xlink:href="#DejaVuSerif-2212" transform="translate(128.154453 36.965625) scale(0.7)"/>
       <use xlink:href="#DejaVuSerif-35" transform="translate(186.806797 36.965625) scale(0.7)"/>
      </g>
     </g>
    </g>
    <g id="xtick_5">
     <g id="line2d_9">
      <path d="M 565.938161 560.571 
L 565.938161 62.234 
" clip-path="url(#p764b00f88e)" style="fill: none; stroke-dasharray: 4.625,2; stroke-dashoffset: 0; stroke: #343837; stroke-opacity: 0.8; stroke-width: 1.25"/>
     </g>
     <g id="line2d_10">
      <g>
       <use xlink:href="#m7958e959da" x="565.938161" y="560.571" style="stroke: #000000; stroke-width: 0.8"/>
      </g>
     </g>
     <g id="text_5">
      <!-- $\mathdefault{10^{-3}}$ -->
      <g transform="translate(540.198161 584.287562) scale(0.22 -0.22)">
       <defs>
        <path id="DejaVuSerif-33" d="M 622 4469 
Q 988 4606 1323 4678 
Q 1659 4750 1953 4750 
Q 2638 4750 3022 4454 
Q 3406 4159 3406 3634 
Q 3406 3213 3140 2930 
Q 2875 2647 2388 2547 
Q 2963 2466 3280 2130 
Q 3597 1794 3597 1259 
Q 3597 606 3158 257 
Q 2719 -91 1894 -91 
Q 1528 -91 1179 -12 
Q 831 66 488 225 
L 488 1131 
L 838 1131 
Q 869 681 1141 450 
Q 1413 219 1906 219 
Q 2384 219 2661 495 
Q 2938 772 2938 1253 
Q 2938 1803 2653 2086 
Q 2369 2369 1819 2369 
L 1522 2369 
L 1522 2688 
L 1678 2688 
Q 2225 2688 2498 2914 
Q 2772 3141 2772 3597 
Q 2772 4006 2547 4223 
Q 2322 4441 1900 4441 
Q 1478 4441 1245 4241 
Q 1013 4041 972 3647 
L 622 3647 
L 622 4469 
z
" transform="scale(0.015625)"/>
       </defs>
       <use xlink:href="#DejaVuSerif-31" transform="translate(0 0.7125)"/>
       <use xlink:href="#DejaVuSerif-30" transform="translate(63.623047 0.7125)"/>
       <use xlink:href="#DejaVuSerif-2212" transform="translate(128.154453 37.046875) scale(0.7)"/>
       <use xlink:href="#DejaVuSerif-33" transform="translate(186.806797 37.046875) scale(0.7)"/>
      </g>
     </g>
    </g>
    <g id="xtick_6">
     <g id="line2d_11">
      <path d="M 688.322701 560.571 
L 688.322701 62.234 
" clip-path="url(#p764b00f88e)" style="fill: none; stroke-dasharray: 4.625,2; stroke-dashoffset: 0; stroke: #343837; stroke-opacity: 0.8; stroke-width: 1.25"/>
     </g>
     <g id="line2d_12">
      <g>
       <use xlink:href="#m7958e959da" x="688.322701" y="560.571" style="stroke: #000000; stroke-width: 0.8"/>
      </g>
     </g>
     <g id="text_6">
      <!-- $\mathdefault{10^{-1}}$ -->
      <g transform="translate(662.582701 584.287562) scale(0.22 -0.22)">
       <use xlink:href="#DejaVuSerif-31" transform="translate(0 0.7125)"/>
       <use xlink:href="#DejaVuSerif-30" transform="translate(63.623047 0.7125)"/>
       <use xlink:href="#DejaVuSerif-2212" transform="translate(128.154453 37.046875) scale(0.7)"/>
       <use xlink:href="#DejaVuSerif-31" transform="translate(186.806797 37.046875) scale(0.7)"/>
      </g>
     </g>
    </g>
    <g id="xtick_7">
     <g id="line2d_13">
      <path d="M 810.707241 560.571 
L 810.707241 62.234 
" clip-path="url(#p764b00f88e)" style="fill: none; stroke-dasharray: 4.625,2; stroke-dashoffset: 0; stroke: #343837; stroke-opacity: 0.8; stroke-width: 1.25"/>
     </g>
     <g id="line2d_14">
      <g>
       <use xlink:href="#m7958e959da" x="810.707241" y="560.571" style="stroke: #000000; stroke-width: 0.8"/>
      </g>
     </g>
     <g id="text_7">
      <!-- $\mathdefault{10^{1}}$ -->
      <g transform="translate(791.347241 584.287562) scale(0.22 -0.22)">
       <use xlink:href="#DejaVuSerif-31" transform="translate(0 0.7125)"/>
       <use xlink:href="#DejaVuSerif-30" transform="translate(63.623047 0.7125)"/>
       <use xlink:href="#DejaVuSerif-31" transform="translate(128.154453 37.046875) scale(0.7)"/>
      </g>
     </g>
    </g>
    <g id="text_8">
     <!-- Energy of incident neutron (MeV) -->
     <g transform="translate(237.400313 620.618812) scale(0.26 -0.26)">
      <defs>
       <path id="DejaVuSerif-45" d="M 353 0 
L 353 331 
L 947 331 
L 947 4331 
L 353 4331 
L 353 4666 
L 4109 4666 
L 4109 3628 
L 3725 3628 
L 3725 4281 
L 1581 4281 
L 1581 2719 
L 3109 2719 
L 3109 3303 
L 3494 3303 
L 3494 1753 
L 3109 1753 
L 3109 2338 
L 1581 2338 
L 1581 384 
L 3775 384 
L 3775 1038 
L 4159 1038 
L 4159 0 
L 353 0 
z
" transform="scale(0.015625)"/>
       <path id="DejaVuSerif-6e" d="M 263 0 
L 263 331 
L 781 331 
L 781 2988 
L 231 2988 
L 231 3322 
L 1356 3322 
L 1356 2731 
Q 1516 3069 1770 3241 
Q 2025 3413 2363 3413 
Q 2913 3413 3172 3097 
Q 3431 2781 3431 2113 
L 3431 331 
L 3944 331 
L 3944 0 
L 2356 0 
L 2356 331 
L 2853 331 
L 2853 1931 
Q 2853 2541 2703 2767 
Q 2553 2994 2175 2994 
Q 1775 2994 1565 2701 
Q 1356 2409 1356 1850 
L 1356 331 
L 1856 331 
L 1856 0 
L 263 0 
z
" transform="scale(0.015625)"/>
       <path id="DejaVuSerif-65" d="M 3469 1600 
L 991 1600 
L 991 1575 
Q 991 903 1244 561 
Q 1497 219 1991 219 
Q 2369 219 2611 417 
Q 2853 616 2950 1006 
L 3413 1006 
Q 3275 459 2904 184 
Q 2534 -91 1931 -91 
Q 1203 -91 761 389 
Q 319 869 319 1663 
Q 319 2450 753 2931 
Q 1188 3413 1894 3413 
Q 2647 3413 3050 2948 
Q 3453 2484 3469 1600 
z
M 2791 1931 
Q 2772 2513 2545 2808 
Q 2319 3103 1894 3103 
Q 1497 3103 1269 2806 
Q 1041 2509 991 1931 
L 2791 1931 
z
" transform="scale(0.015625)"/>
       <path id="DejaVuSerif-72" d="M 3059 3328 
L 3059 2497 
L 2728 2497 
Q 2713 2744 2591 2866 
Q 2469 2988 2234 2988 
Q 1809 2988 1582 2694 
Q 1356 2400 1356 1850 
L 1356 331 
L 2022 331 
L 2022 0 
L 263 0 
L 263 331 
L 781 331 
L 781 2994 
L 231 2994 
L 231 3322 
L 1356 3322 
L 1356 2731 
Q 1525 3078 1790 3245 
Q 2056 3413 2438 3413 
Q 2578 3413 2733 3391 
Q 2888 3369 3059 3328 
z
" transform="scale(0.015625)"/>
       <path id="DejaVuSerif-67" d="M 3359 2988 
L 3359 72 
Q 3359 -644 2965 -1033 
Q 2572 -1422 1844 -1422 
Q 1516 -1422 1216 -1362 
Q 916 -1303 641 -1184 
L 641 -488 
L 941 -488 
Q 997 -813 1206 -963 
Q 1416 -1113 1806 -1113 
Q 2313 -1113 2548 -827 
Q 2784 -541 2784 72 
L 2784 519 
Q 2616 206 2355 57 
Q 2094 -91 1709 -91 
Q 1097 -91 708 395 
Q 319 881 319 1663 
Q 319 2444 706 2928 
Q 1094 3413 1709 3413 
Q 2094 3413 2355 3264 
Q 2616 3116 2784 2803 
L 2784 3322 
L 3909 3322 
L 3909 2988 
L 3359 2988 
z
M 2784 1825 
Q 2784 2422 2554 2737 
Q 2325 3053 1888 3053 
Q 1444 3053 1217 2703 
Q 991 2353 991 1663 
Q 991 975 1217 622 
Q 1444 269 1888 269 
Q 2325 269 2554 583 
Q 2784 897 2784 1497 
L 2784 1825 
z
" transform="scale(0.015625)"/>
       <path id="DejaVuSerif-79" d="M 1381 -609 
L 1600 -56 
L 359 2988 
L -19 2988 
L -19 3322 
L 1509 3322 
L 1509 2988 
L 978 2988 
L 1913 703 
L 2847 2988 
L 2350 2988 
L 2350 3322 
L 3597 3322 
L 3597 2988 
L 3225 2988 
L 1703 -750 
Q 1547 -1138 1356 -1280 
Q 1166 -1422 819 -1422 
Q 672 -1422 517 -1397 
Q 363 -1372 206 -1325 
L 206 -691 
L 500 -691 
Q 519 -903 608 -995 
Q 697 -1088 884 -1088 
Q 1056 -1088 1161 -992 
Q 1266 -897 1381 -609 
z
" transform="scale(0.015625)"/>
       <path id="DejaVuSerif-20" transform="scale(0.015625)"/>
       <path id="DejaVuSerif-6f" d="M 1925 219 
Q 2388 219 2623 584 
Q 2859 950 2859 1663 
Q 2859 2375 2623 2739 
Q 2388 3103 1925 3103 
Q 1463 3103 1227 2739 
Q 991 2375 991 1663 
Q 991 950 1228 584 
Q 1466 219 1925 219 
z
M 1925 -91 
Q 1200 -91 759 389 
Q 319 869 319 1663 
Q 319 2456 758 2934 
Q 1197 3413 1925 3413 
Q 2653 3413 3092 2934 
Q 3531 2456 3531 1663 
Q 3531 869 3092 389 
Q 2653 -91 1925 -91 
z
" transform="scale(0.015625)"/>
       <path id="DejaVuSerif-66" d="M 2753 4078 
L 2450 4078 
Q 2447 4313 2317 4434 
Q 2188 4556 1941 4556 
Q 1619 4556 1487 4379 
Q 1356 4203 1356 3750 
L 1356 3322 
L 2284 3322 
L 2284 2988 
L 1356 2988 
L 1356 331 
L 2094 331 
L 2094 0 
L 231 0 
L 231 331 
L 781 331 
L 781 2988 
L 231 2988 
L 231 3322 
L 781 3322 
L 781 3738 
Q 781 4294 1070 4578 
Q 1359 4863 1919 4863 
Q 2128 4863 2337 4825 
Q 2547 4788 2753 4709 
L 2753 4078 
z
" transform="scale(0.015625)"/>
       <path id="DejaVuSerif-69" d="M 622 4353 
Q 622 4497 726 4603 
Q 831 4709 978 4709 
Q 1122 4709 1226 4603 
Q 1331 4497 1331 4353 
Q 1331 4206 1228 4103 
Q 1125 4000 978 4000 
Q 831 4000 726 4103 
Q 622 4206 622 4353 
z
M 1356 331 
L 1900 331 
L 1900 0 
L 231 0 
L 231 331 
L 781 331 
L 781 2988 
L 231 2988 
L 231 3322 
L 1356 3322 
L 1356 331 
z
" transform="scale(0.015625)"/>
       <path id="DejaVuSerif-63" d="M 3291 997 
Q 3169 466 2822 187 
Q 2475 -91 1925 -91 
Q 1200 -91 759 389 
Q 319 869 319 1663 
Q 319 2459 759 2936 
Q 1200 3413 1925 3413 
Q 2241 3413 2553 3339 
Q 2866 3266 3181 3116 
L 3181 2266 
L 2847 2266 
Q 2781 2703 2561 2903 
Q 2341 3103 1931 3103 
Q 1466 3103 1228 2742 
Q 991 2381 991 1663 
Q 991 944 1227 581 
Q 1463 219 1931 219 
Q 2303 219 2525 412 
Q 2747 606 2828 997 
L 3291 997 
z
" transform="scale(0.015625)"/>
       <path id="DejaVuSerif-64" d="M 3359 331 
L 3909 331 
L 3909 0 
L 2784 0 
L 2784 519 
Q 2616 206 2355 57 
Q 2094 -91 1709 -91 
Q 1097 -91 708 395 
Q 319 881 319 1663 
Q 319 2444 706 2928 
Q 1094 3413 1709 3413 
Q 2094 3413 2355 3264 
Q 2616 3116 2784 2803 
L 2784 4531 
L 2241 4531 
L 2241 4863 
L 3359 4863 
L 3359 331 
z
M 2784 1497 
L 2784 1825 
Q 2784 2422 2554 2737 
Q 2325 3053 1888 3053 
Q 1444 3053 1217 2703 
Q 991 2353 991 1663 
Q 991 975 1217 622 
Q 1444 269 1888 269 
Q 2325 269 2554 583 
Q 2784 897 2784 1497 
z
" transform="scale(0.015625)"/>
       <path id="DejaVuSerif-74" d="M 691 2988 
L 184 2988 
L 184 3322 
L 691 3322 
L 691 4353 
L 1269 4353 
L 1269 3322 
L 2350 3322 
L 2350 2988 
L 1269 2988 
L 1269 878 
Q 1269 456 1350 337 
Q 1431 219 1650 219 
Q 1875 219 1978 351 
Q 2081 484 2088 781 
L 2522 781 
Q 2497 328 2275 118 
Q 2053 -91 1600 -91 
Q 1103 -91 897 129 
Q 691 350 691 878 
L 691 2988 
z
" transform="scale(0.015625)"/>
       <path id="DejaVuSerif-75" d="M 2266 3322 
L 3341 3322 
L 3341 331 
L 3884 331 
L 3884 0 
L 2766 0 
L 2766 588 
Q 2606 256 2353 82 
Q 2100 -91 1766 -91 
Q 1213 -91 952 223 
Q 691 538 691 1209 
L 691 2988 
L 172 2988 
L 172 3322 
L 1269 3322 
L 1269 1388 
Q 1269 781 1417 556 
Q 1566 331 1947 331 
Q 2347 331 2556 625 
Q 2766 919 2766 1478 
L 2766 2988 
L 2266 2988 
L 2266 3322 
z
" transform="scale(0.015625)"/>
       <path id="DejaVuSerif-28" d="M 2041 -997 
Q 1281 -656 893 83 
Q 506 822 506 1931 
Q 506 3044 893 3783 
Q 1281 4522 2041 4863 
L 2041 4556 
Q 1559 4225 1350 3623 
Q 1141 3022 1141 1931 
Q 1141 844 1350 242 
Q 1559 -359 2041 -691 
L 2041 -997 
z
" transform="scale(0.015625)"/>
       <path id="DejaVuSerif-4d" d="M 353 0 
L 353 331 
L 947 331 
L 947 4331 
L 319 4331 
L 319 4666 
L 1678 4666 
L 3316 1344 
L 4953 4666 
L 6228 4666 
L 6228 4331 
L 5606 4331 
L 5606 331 
L 6203 331 
L 6203 0 
L 4378 0 
L 4378 331 
L 4972 331 
L 4972 3938 
L 3372 684 
L 2931 684 
L 1331 3938 
L 1331 331 
L 1925 331 
L 1925 0 
L 353 0 
z
" transform="scale(0.015625)"/>
       <path id="DejaVuSerif-56" d="M 1119 4331 
L 2497 750 
L 3872 4331 
L 3347 4331 
L 3347 4666 
L 4716 4666 
L 4716 4331 
L 4263 4331 
L 2597 0 
L 2059 0 
L 403 4331 
L -63 4331 
L -63 4666 
L 1638 4666 
L 1638 4331 
L 1119 4331 
z
" transform="scale(0.015625)"/>
       <path id="DejaVuSerif-29" d="M 453 -997 
L 453 -691 
Q 934 -359 1145 242 
Q 1356 844 1356 1931 
Q 1356 3022 1145 3623 
Q 934 4225 453 4556 
L 453 4863 
Q 1216 4522 1603 3783 
Q 1991 3044 1991 1931 
Q 1991 822 1603 83 
Q 1216 -656 453 -997 
z
" transform="scale(0.015625)"/>
      </defs>
      <use xlink:href="#DejaVuSerif-45"/>
      <use xlink:href="#DejaVuSerif-6e" transform="translate(72.998047 0)"/>
      <use xlink:href="#DejaVuSerif-65" transform="translate(137.402344 0)"/>
      <use xlink:href="#DejaVuSerif-72" transform="translate(196.582031 0)"/>
      <use xlink:href="#DejaVuSerif-67" transform="translate(244.384766 0)"/>
      <use xlink:href="#DejaVuSerif-79" transform="translate(308.398438 0)"/>
      <use xlink:href="#DejaVuSerif-20" transform="translate(364.892578 0)"/>
      <use xlink:href="#DejaVuSerif-6f" transform="translate(396.679688 0)"/>
      <use xlink:href="#DejaVuSerif-66" transform="translate(456.884766 0)"/>
      <use xlink:href="#DejaVuSerif-20" transform="translate(493.896484 0)"/>
      <use xlink:href="#DejaVuSerif-69" transform="translate(525.683594 0)"/>
      <use xlink:href="#DejaVuSerif-6e" transform="translate(557.666016 0)"/>
      <use xlink:href="#DejaVuSerif-63" transform="translate(622.070312 0)"/>
      <use xlink:href="#DejaVuSerif-69" transform="translate(678.076172 0)"/>
      <use xlink:href="#DejaVuSerif-64" transform="translate(710.058594 0)"/>
      <use xlink:href="#DejaVuSerif-65" transform="translate(774.072266 0)"/>
      <use xlink:href="#DejaVuSerif-6e" transform="translate(833.251953 0)"/>
      <use xlink:href="#DejaVuSerif-74" transform="translate(897.65625 0)"/>
      <use xlink:href="#DejaVuSerif-20" transform="translate(937.841797 0)"/>
      <use xlink:href="#DejaVuSerif-6e" transform="translate(969.628906 0)"/>
      <use xlink:href="#DejaVuSerif-65" transform="translate(1034.033203 0)"/>
      <use xlink:href="#DejaVuSerif-75" transform="translate(1093.212891 0)"/>
      <use xlink:href="#DejaVuSerif-74" transform="translate(1157.617188 0)"/>
      <use xlink:href="#DejaVuSerif-72" transform="translate(1197.802734 0)"/>
      <use xlink:href="#DejaVuSerif-6f" transform="translate(1245.605469 0)"/>
      <use xlink:href="#DejaVuSerif-6e" transform="translate(1305.810547 0)"/>
      <use xlink:href="#DejaVuSerif-20" transform="translate(1370.214844 0)"/>
      <use xlink:href="#DejaVuSerif-28" transform="translate(1402.001953 0)"/>
      <use xlink:href="#DejaVuSerif-4d" transform="translate(1441.015625 0)"/>
      <use xlink:href="#DejaVuSerif-65" transform="translate(1543.408203 0)"/>
      <use xlink:href="#DejaVuSerif-56" transform="translate(1602.587891 0)"/>
      <use xlink:href="#DejaVuSerif-29" transform="translate(1674.804688 0)"/>
     </g>
    </g>
   </g>
   <g id="matplotlib.axis_2">
    <g id="ytick_1">
     <g id="line2d_15">
      <path d="M 76.4 560.571 
L 844 560.571 
" clip-path="url(#p764b00f88e)" style="fill: none; stroke-dasharray: 4.625,2; stroke-dashoffset: 0; stroke: #343837; stroke-opacity: 0.8; stroke-width: 1.25"/>
     </g>
     <g id="line2d_16">
      <defs>
       <path id="m297d141cdb" d="M 0 0 
L -3.5 0 
" style="stroke: #000000; stroke-width: 0.8"/>
      </defs>
      <g>
       <use xlink:href="#m297d141cdb" x="76.4" y="560.571" style="stroke: #000000; stroke-width: 0.8"/>
      </g>
     </g>
     <g id="text_9">
      <!-- 0 -->
      <g transform="translate(55.4025 568.929281) scale(0.22 -0.22)">
       <use xlink:href="#DejaVuSerif-30"/>
      </g>
     </g>
    </g>
    <g id="ytick_2">
     <g id="line2d_17">
      <path d="M 76.4 489.38 
L 844 489.38 
" clip-path="url(#p764b00f88e)" style="fill: none; stroke-dasharray: 4.625,2; stroke-dashoffset: 0; stroke: #343837; stroke-opacity: 0.8; stroke-width: 1.25"/>
     </g>
     <g id="line2d_18">
      <g>
       <use xlink:href="#m297d141cdb" x="76.4" y="489.38" style="stroke: #000000; stroke-width: 0.8"/>
      </g>
     </g>
     <g id="text_10">
      <!-- 1 -->
      <g transform="translate(55.4025 497.738281) scale(0.22 -0.22)">
       <use xlink:href="#DejaVuSerif-31"/>
      </g>
     </g>
    </g>
    <g id="ytick_3">
     <g id="line2d_19">
      <path d="M 76.4 418.189 
L 844 418.189 
" clip-path="url(#p764b00f88e)" style="fill: none; stroke-dasharray: 4.625,2; stroke-dashoffset: 0; stroke: #343837; stroke-opacity: 0.8; stroke-width: 1.25"/>
     </g>
     <g id="line2d_20">
      <g>
       <use xlink:href="#m297d141cdb" x="76.4" y="418.189" style="stroke: #000000; stroke-width: 0.8"/>
      </g>
     </g>
     <g id="text_11">
      <!-- 2 -->
      <g transform="translate(55.4025 426.547281) scale(0.22 -0.22)">
       <defs>
        <path id="DejaVuSerif-32" d="M 819 3553 
L 469 3553 
L 469 4384 
Q 803 4563 1142 4656 
Q 1481 4750 1806 4750 
Q 2534 4750 2956 4397 
Q 3378 4044 3378 3438 
Q 3378 2753 2422 1800 
Q 2347 1728 2309 1691 
L 1131 513 
L 3078 513 
L 3078 1088 
L 3444 1088 
L 3444 0 
L 434 0 
L 434 341 
L 1850 1753 
Q 2319 2222 2519 2614 
Q 2719 3006 2719 3438 
Q 2719 3909 2473 4175 
Q 2228 4441 1797 4441 
Q 1350 4441 1106 4219 
Q 863 3997 819 3553 
z
" transform="scale(0.015625)"/>
       </defs>
       <use xlink:href="#DejaVuSerif-32"/>
      </g>
     </g>
    </g>
    <g id="ytick_4">
     <g id="line2d_21">
      <path d="M 76.4 346.998 
L 844 346.998 
" clip-path="url(#p764b00f88e)" style="fill: none; stroke-dasharray: 4.625,2; stroke-dashoffset: 0; stroke: #343837; stroke-opacity: 0.8; stroke-width: 1.25"/>
     </g>
     <g id="line2d_22">
      <g>
       <use xlink:href="#m297d141cdb" x="76.4" y="346.998" style="stroke: #000000; stroke-width: 0.8"/>
      </g>
     </g>
     <g id="text_12">
      <!-- 3 -->
      <g transform="translate(55.4025 355.356281) scale(0.22 -0.22)">
       <use xlink:href="#DejaVuSerif-33"/>
      </g>
     </g>
    </g>
    <g id="ytick_5">
     <g id="line2d_23">
      <path d="M 76.4 275.807 
L 844 275.807 
" clip-path="url(#p764b00f88e)" style="fill: none; stroke-dasharray: 4.625,2; stroke-dashoffset: 0; stroke: #343837; stroke-opacity: 0.8; stroke-width: 1.25"/>
     </g>
     <g id="line2d_24">
      <g>
       <use xlink:href="#m297d141cdb" x="76.4" y="275.807" style="stroke: #000000; stroke-width: 0.8"/>
      </g>
     </g>
     <g id="text_13">
      <!-- 4 -->
      <g transform="translate(55.4025 284.165281) scale(0.22 -0.22)">
       <defs>
        <path id="DejaVuSerif-34" d="M 2234 1581 
L 2234 4063 
L 641 1581 
L 2234 1581 
z
M 3609 0 
L 1484 0 
L 1484 331 
L 2234 331 
L 2234 1247 
L 197 1247 
L 197 1588 
L 2241 4750 
L 2859 4750 
L 2859 1581 
L 3750 1581 
L 3750 1247 
L 2859 1247 
L 2859 331 
L 3609 331 
L 3609 0 
z
" transform="scale(0.015625)"/>
       </defs>
       <use xlink:href="#DejaVuSerif-34"/>
      </g>
     </g>
    </g>
    <g id="ytick_6">
     <g id="line2d_25">
      <path d="M 76.4 204.616 
L 844 204.616 
" clip-path="url(#p764b00f88e)" style="fill: none; stroke-dasharray: 4.625,2; stroke-dashoffset: 0; stroke: #343837; stroke-opacity: 0.8; stroke-width: 1.25"/>
     </g>
     <g id="line2d_26">
      <g>
       <use xlink:href="#m297d141cdb" x="76.4" y="204.616" style="stroke: #000000; stroke-width: 0.8"/>
      </g>
     </g>
     <g id="text_14">
      <!-- 5 -->
      <g transform="translate(55.4025 212.974281) scale(0.22 -0.22)">
       <use xlink:href="#DejaVuSerif-35"/>
      </g>
     </g>
    </g>
    <g id="ytick_7">
     <g id="line2d_27">
      <path d="M 76.4 133.425 
L 844 133.425 
" clip-path="url(#p764b00f88e)" style="fill: none; stroke-dasharray: 4.625,2; stroke-dashoffset: 0; stroke: #343837; stroke-opacity: 0.8; stroke-width: 1.25"/>
     </g>
     <g id="line2d_28">
      <g>
       <use xlink:href="#m297d141cdb" x="76.4" y="133.425" style="stroke: #000000; stroke-width: 0.8"/>
      </g>
     </g>
     <g id="text_15">
      <!-- 6 -->
      <g transform="translate(55.4025 141.783281) scale(0.22 -0.22)">
       <defs>
        <path id="DejaVuSerif-36" d="M 2094 219 
Q 2534 219 2771 542 
Q 3009 866 3009 1472 
Q 3009 2078 2771 2401 
Q 2534 2725 2094 2725 
Q 1647 2725 1412 2412 
Q 1178 2100 1178 1509 
Q 1178 888 1415 553 
Q 1653 219 2094 219 
z
M 1075 2569 
Q 1288 2803 1556 2918 
Q 1825 3034 2163 3034 
Q 2859 3034 3264 2615 
Q 3669 2197 3669 1472 
Q 3669 763 3233 336 
Q 2797 -91 2069 -91 
Q 1278 -91 853 498 
Q 428 1088 428 2181 
Q 428 3406 931 4078 
Q 1434 4750 2350 4750 
Q 2597 4750 2869 4703 
Q 3141 4656 3425 4563 
L 3425 3794 
L 3072 3794 
Q 3034 4109 2831 4275 
Q 2628 4441 2284 4441 
Q 1678 4441 1381 3981 
Q 1084 3522 1075 2569 
z
" transform="scale(0.015625)"/>
       </defs>
       <use xlink:href="#DejaVuSerif-36"/>
      </g>
     </g>
    </g>
    <g id="ytick_8">
     <g id="line2d_29">
      <path d="M 76.4 62.234 
L 844 62.234 
" clip-path="url(#p764b00f88e)" style="fill: none; stroke-dasharray: 4.625,2; stroke-dashoffset: 0; stroke: #343837; stroke-opacity: 0.8; stroke-width: 1.25"/>
     </g>
     <g id="line2d_30">
      <g>
       <use xlink:href="#m297d141cdb" x="76.4" y="62.234" style="stroke: #000000; stroke-width: 0.8"/>
      </g>
     </g>
     <g id="text_16">
      <!-- 7 -->
      <g transform="translate(55.4025 70.592281) scale(0.22 -0.22)">
       <use xlink:href="#DejaVuSerif-37"/>
      </g>
     </g>
    </g>
    <g id="text_17">
     <!-- Neutron reproduction factor $\eta$ -->
     <g transform="translate(41.9425 511.6025) rotate(-90) scale(0.26 -0.26)">
      <defs>
       <path id="DejaVuSerif-4e" d="M 313 0 
L 313 331 
L 941 331 
L 941 4331 
L 313 4331 
L 313 4666 
L 1509 4666 
L 4306 984 
L 4306 4331 
L 3681 4331 
L 3681 4666 
L 5319 4666 
L 5319 4331 
L 4691 4331 
L 4691 -91 
L 4313 -91 
L 1325 3841 
L 1325 331 
L 1953 331 
L 1953 0 
L 313 0 
z
" transform="scale(0.015625)"/>
       <path id="DejaVuSerif-70" d="M 1313 1825 
L 1313 1497 
Q 1313 897 1542 583 
Q 1772 269 2209 269 
Q 2650 269 2876 622 
Q 3103 975 3103 1663 
Q 3103 2353 2876 2703 
Q 2650 3053 2209 3053 
Q 1772 3053 1542 2737 
Q 1313 2422 1313 1825 
z
M 738 2988 
L 184 2988 
L 184 3322 
L 1313 3322 
L 1313 2803 
Q 1481 3116 1742 3264 
Q 2003 3413 2388 3413 
Q 3000 3413 3387 2928 
Q 3775 2444 3775 1663 
Q 3775 881 3387 395 
Q 3000 -91 2388 -91 
Q 2003 -91 1742 57 
Q 1481 206 1313 519 
L 1313 -997 
L 1856 -997 
L 1856 -1331 
L 184 -1331 
L 184 -997 
L 738 -997 
L 738 2988 
z
" transform="scale(0.015625)"/>
       <path id="DejaVuSerif-61" d="M 2547 1044 
L 2547 1747 
L 1806 1747 
Q 1378 1747 1168 1562 
Q 959 1378 959 997 
Q 959 650 1171 447 
Q 1384 244 1747 244 
Q 2106 244 2326 466 
Q 2547 688 2547 1044 
z
M 3122 2075 
L 3122 331 
L 3634 331 
L 3634 0 
L 2547 0 
L 2547 359 
Q 2356 128 2106 18 
Q 1856 -91 1522 -91 
Q 969 -91 644 203 
Q 319 497 319 997 
Q 319 1513 691 1797 
Q 1063 2081 1741 2081 
L 2547 2081 
L 2547 2309 
Q 2547 2688 2317 2895 
Q 2088 3103 1672 3103 
Q 1328 3103 1125 2947 
Q 922 2791 872 2484 
L 575 2484 
L 575 3156 
Q 875 3284 1158 3348 
Q 1441 3413 1709 3413 
Q 2400 3413 2761 3070 
Q 3122 2728 3122 2075 
z
" transform="scale(0.015625)"/>
       <path id="DejaVuSerif-Italic-3b7" d="M 1153 0 
L 578 0 
L 1159 2988 
L 609 2988 
L 675 3322 
L 1800 3322 
L 1684 2731 
Q 1909 3069 2198 3241 
Q 2488 3413 2825 3413 
Q 3366 3413 3572 3097 
Q 3772 2791 3641 2113 
L 2969 -1331 
L 2391 -1331 
L 3025 1931 
Q 3144 2541 3037 2767 
Q 2931 2994 2553 2994 
Q 2153 2994 1887 2701 
Q 1622 2409 1513 1850 
L 1153 0 
z
" transform="scale(0.015625)"/>
      </defs>
      <use xlink:href="#DejaVuSerif-4e" transform="translate(0 0.015625)"/>
      <use xlink:href="#DejaVuSerif-65" transform="translate(87.5 0.015625)"/>
      <use xlink:href="#DejaVuSerif-75" transform="translate(146.679688 0.015625)"/>
      <use xlink:href="#DejaVuSerif-74" transform="translate(211.083984 0.015625)"/>
      <use xlink:href="#DejaVuSerif-72" transform="translate(251.269531 0.015625)"/>
      <use xlink:href="#DejaVuSerif-6f" transform="translate(299.072266 0.015625)"/>
      <use xlink:href="#DejaVuSerif-6e" transform="translate(359.277344 0.015625)"/>
      <use xlink:href="#DejaVuSerif-20" transform="translate(423.681641 0.015625)"/>
      <use xlink:href="#DejaVuSerif-72" transform="translate(455.46875 0.015625)"/>
      <use xlink:href="#DejaVuSerif-65" transform="translate(503.271484 0.015625)"/>
      <use xlink:href="#DejaVuSerif-70" transform="translate(562.451172 0.015625)"/>
      <use xlink:href="#DejaVuSerif-72" transform="translate(626.464844 0.015625)"/>
      <use xlink:href="#DejaVuSerif-6f" transform="translate(674.267578 0.015625)"/>
      <use xlink:href="#DejaVuSerif-64" transform="translate(734.472656 0.015625)"/>
      <use xlink:href="#DejaVuSerif-75" transform="translate(798.486328 0.015625)"/>
      <use xlink:href="#DejaVuSerif-63" transform="translate(862.890625 0.015625)"/>
      <use xlink:href="#DejaVuSerif-74" transform="translate(918.896484 0.015625)"/>
      <use xlink:href="#DejaVuSerif-69" transform="translate(959.082031 0.015625)"/>
      <use xlink:href="#DejaVuSerif-6f" transform="translate(991.064453 0.015625)"/>
      <use xlink:href="#DejaVuSerif-6e" transform="translate(1051.269531 0.015625)"/>
      <use xlink:href="#DejaVuSerif-20" transform="translate(1115.673828 0.015625)"/>
      <use xlink:href="#DejaVuSerif-66" transform="translate(1147.460938 0.015625)"/>
      <use xlink:href="#DejaVuSerif-61" transform="translate(1184.472656 0.015625)"/>
      <use xlink:href="#DejaVuSerif-63" transform="translate(1244.091797 0.015625)"/>
      <use xlink:href="#DejaVuSerif-74" transform="translate(1300.097656 0.015625)"/>
      <use xlink:href="#DejaVuSerif-6f" transform="translate(1340.283203 0.015625)"/>
      <use xlink:href="#DejaVuSerif-72" transform="translate(1400.488281 0.015625)"/>
      <use xlink:href="#DejaVuSerif-20" transform="translate(1448.291016 0.015625)"/>
      <use xlink:href="#DejaVuSerif-Italic-3b7" transform="translate(1480.078125 0.015625)"/>
     </g>
    </g>
   </g>
   <g id="line2d_31">
    <path d="M 76.400027 396.41596 
L 260.499635 396.529284 
L 278.472864 396.499888 
L 283.328842 396.502525 
L 294.590742 396.905958 
L 301.615113 396.860736 
L 305.066217 397.18737 
L 318.107115 398.896427 
L 321.199366 399.595112 
L 323.833505 400.415543 
L 326.31494 401.416314 
L 329.178135 402.830145 
L 331.713017 404.01357 
L 333.003363 404.366139 
L 334.079925 404.426495 
L 335.072499 404.258192 
L 336.126154 403.8465 
L 337.523394 403.035228 
L 340.340777 401.352327 
L 341.585313 400.918686 
L 343.814787 400.222242 
L 344.837902 399.567346 
L 347.372784 397.858507 
L 348.693671 397.32277 
L 350.327601 396.913623 
L 352.473088 396.617412 
L 355.351553 396.455039 
L 358.886644 396.483049 
L 362.4141 396.726782 
L 365.620879 397.168968 
L 370.194355 398.078616 
L 373.004104 398.50186 
L 377.951704 398.940836 
L 381.097401 399.379684 
L 383.777351 399.975307 
L 386.098448 400.713713 
L 387.625485 401.405586 
L 388.366098 402.045556 
L 389.282321 403.154036 
L 390.618478 405.162546 
L 393.061738 408.840531 
L 394.176475 410.485237 
L 396.383044 414.084664 
L 396.718992 414.154595 
L 397.001494 414.045959 
L 397.421429 413.64592 
L 398.055149 412.729944 
L 399.131711 411.075836 
L 399.750161 410.475408 
L 400.177731 410.341493 
L 400.536585 410.466943 
L 400.872533 410.830798 
L 401.246657 411.594285 
L 401.636052 412.918396 
L 402.071257 415.260253 
L 402.491193 418.722783 
L 402.949304 424.417474 
L 403.445591 433.55542 
L 404.919182 463.216767 
L 405.278036 466.71457 
L 405.438375 467.1212 
L 405.46128 467.107901 
L 405.560537 466.834607 
L 405.743782 465.467099 
L 406.056825 461.07604 
L 406.87379 445.224897 
L 407.721295 431.133922 
L 408.454273 422.396379 
L 409.217792 415.868384 
L 409.996581 411.023129 
L 410.798275 407.357788 
L 411.607605 404.638363 
L 412.401664 402.741207 
L 413.065926 401.698887 
L 413.585118 401.263678 
L 413.966877 401.205991 
L 414.29519 401.386877 
L 414.608233 401.834076 
L 414.936546 402.725986 
L 415.264859 404.328961 
L 415.585537 407.0942 
L 415.921485 412.148739 
L 416.692639 424.748695 
L 416.73845 424.793097 
L 416.791896 424.710111 
L 416.92933 423.86875 
L 417.196561 420.202224 
L 417.860822 410.809117 
L 418.303663 407.797251 
L 418.891573 405.368413 
L 420.204825 401.128507 
L 421.197399 398.47418 
L 421.945647 397.000686 
L 422.67099 396.025685 
L 423.312345 395.50442 
L 423.892619 395.289926 
L 424.472894 395.303981 
L 425.030262 395.562747 
L 425.54182 396.04525 
L 426.122094 396.931368 
L 426.664192 398.189796 
L 427.20629 399.991249 
L 427.870551 403.025933 
L 428.511907 405.683148 
L 428.740963 405.91605 
L 428.878396 405.77906 
L 429.076911 405.248168 
L 429.550292 403.133793 
L 430.054215 401.266379 
L 430.374893 400.806415 
L 430.588678 400.822005 
L 430.863544 401.157295 
L 431.207128 402.0064 
L 431.649969 403.719791 
L 432.12335 406.498296 
L 432.512745 410.213511 
L 432.863963 415.910174 
L 433.528224 427.086115 
L 433.818362 428.619174 
L 433.902349 428.656181 
L 433.940524 428.614991 
L 434.100863 428.111994 
L 434.528434 425.819685 
L 435.177425 422.826635 
L 435.704252 420.885962 
L 436.032565 417.840415 
L 436.864801 409.244197 
L 437.498521 405.5964 
L 438.162782 402.984653 
L 438.697245 401.729896 
L 438.995018 401.497737 
L 439.170627 401.62495 
L 439.346236 402.099018 
L 439.544751 403.371516 
L 439.827253 406.943812 
L 440.155566 410.111379 
L 440.453338 411.651209 
L 440.659488 414.793401 
L 441.064153 421.511829 
L 441.094694 421.442044 
L 441.186316 420.481001 
L 441.400101 415.369109 
L 441.888753 404.363988 
L 442.155985 402.486724 
L 442.323959 402.273547 
L 442.339229 402.281432 
L 442.484298 402.484156 
L 442.713353 403.253398 
L 443.171465 405.687513 
L 444.133498 410.811975 
L 444.423635 411.343455 
L 444.729043 411.626946 
L 444.81303 411.456327 
L 445.156613 410.064777 
L 445.568913 407.019248 
L 446.569122 399.226481 
L 446.68365 399.113095 
L 446.721826 399.136763 
L 446.828719 399.379804 
L 446.996693 400.253258 
L 447.584602 404.062491 
L 447.653319 403.961797 
L 447.790752 403.311357 
L 448.409202 400.06837 
L 448.577176 400.044491 
L 448.798597 400.382093 
L 449.195626 401.514537 
L 449.783536 403.922552 
L 450.524149 407.884956 
L 451.112058 411.443676 
L 451.127329 411.440586 
L 451.211316 411.320548 
L 451.371655 410.992819 
L 451.425101 411.051072 
L 451.570169 411.657693 
L 451.684697 412.054079 
L 451.730508 411.959718 
L 451.845036 410.955327 
L 452.371864 405.510247 
L 452.471121 405.38747 
L 452.516932 405.427242 
L 452.654366 405.837581 
L 452.898692 407.420553 
L 453.23464 411.247073 
L 453.601129 418.34895 
L 453.998159 431.034516 
L 454.425729 443.342098 
L 454.433364 443.347645 
L 454.45627 443.276095 
L 454.532622 442.147708 
L 454.715866 435.012489 
L 455.013638 426.120358 
L 455.021273 426.139132 
L 455.067085 426.660543 
L 455.181612 429.003067 
L 455.235059 427.996828 
L 455.364857 417.595987 
L 455.609183 404.383579 
L 455.861144 401.436714 
L 456.082564 400.7938 
L 456.250538 400.794892 
L 456.418513 401.049156 
L 456.571216 401.798711 
L 456.731555 404.181933 
L 457.204937 412.431672 
L 457.235477 412.445831 
L 457.281289 412.351154 
L 457.433992 411.406236 
L 457.747035 409.890971 
L 457.846292 409.860328 
L 457.876833 409.894498 
L 458.014266 410.290186 
L 458.266228 411.863961 
L 458.762515 414.69763 
L 458.907583 414.661078 
L 459.258802 414.289719 
L 459.3886 413.138546 
L 459.770359 407.045454 
L 459.861982 407.710655 
L 460.00705 411.829263 
L 460.167389 416.318677 
L 460.2132 415.851588 
L 460.900367 404.218263 
L 461.572263 399.166338 
L 461.915847 397.884447 
L 462.060915 397.804716 
L 462.083821 397.824987 
L 462.213619 398.134614 
L 462.404499 399.339518 
L 462.89315 403.338265 
L 462.946597 403.23685 
L 463.08403 402.213306 
L 463.473425 399.325522 
L 463.519236 399.319179 
L 463.557412 399.380315 
L 463.679575 399.94233 
L 463.870454 402.091715 
L 464.107145 407.729238 
L 464.404917 414.41478 
L 464.427823 414.388129 
L 464.51181 413.271485 
L 464.985191 404.677528 
L 465.229517 401.972496 
L 465.534925 399.407457 
L 465.603642 399.34946 
L 465.649453 399.415627 
L 465.794521 400.059219 
L 466.115199 401.602446 
L 466.153375 401.551434 
L 466.313714 400.823062 
L 466.619121 399.621763 
L 466.748919 399.690367 
L 467.107773 400.10797 
L 467.138314 400.085053 
L 467.550614 399.623562 
L 467.741494 399.378206 
L 467.77967 399.429502 
L 467.863657 399.836411 
L 467.993455 401.856749 
L 468.20724 405.738314 
L 468.253051 405.516218 
L 468.344673 403.396039 
L 468.756973 392.250522 
L 468.970759 391.496977 
L 469.04711 391.592043 
L 469.161638 392.25228 
L 469.299072 394.651854 
L 469.459411 402.601246 
L 469.627385 409.228129 
L 469.665561 408.776694 
L 469.780088 403.472977 
L 470.04732 393.545664 
L 470.26874 392.094594 
L 470.406174 392.015097 
L 470.421444 392.027768 
L 470.597053 392.359863 
L 470.833744 393.329864 
L 470.978813 395.085098 
L 471.116246 400.693806 
L 471.383477 412.757982 
L 471.414018 412.026551 
L 471.69652 395.481015 
L 471.780507 395.817564 
L 472.246253 399.796907 
L 472.368416 404.641349 
L 472.536391 412.159427 
L 472.582202 411.078994 
L 472.93342 397.818173 
L 472.948691 397.828781 
L 473.009772 398.13862 
L 473.116665 400.080101 
L 473.544235 409.859783 
L 473.605317 410.44383 
L 473.651128 409.959466 
L 473.773291 403.946766 
L 474.017617 396.237767 
L 474.101604 395.808227 
L 474.147415 395.951702 
L 474.254307 397.462477 
L 474.445187 404.548262 
L 474.666608 410.103104 
L 474.681878 410.043851 
L 474.750595 408.536808 
L 475.216341 395.175015 
L 475.643911 391.142576 
L 475.926413 390.277105 
L 476.193645 389.811971 
L 476.231821 389.850994 
L 476.323443 390.236843 
L 476.460876 392.04176 
L 476.644121 394.640813 
L 476.689932 394.377815 
L 477.254936 388.921507 
L 477.369463 389.056165 
L 477.522167 389.680859 
L 477.674871 391.406689 
L 477.797034 395.736273 
L 477.957373 413.842668 
L 478.05663 418.249402 
L 478.102441 417.244228 
L 478.209334 407.31062 
L 478.400214 398.227042 
L 478.415484 398.220959 
L 478.446025 398.340087 
L 478.697986 400.314514 
L 478.797243 400.055624 
L 478.988123 399.246275 
L 479.033934 399.335531 
L 479.148462 400.246371 
L 479.446234 403.757164 
L 479.514951 403.326297 
L 479.67529 399.921673 
L 480.026508 393.731314 
L 480.156306 393.276434 
L 480.194482 393.303769 
L 480.51516 393.774923 
L 480.667864 394.819056 
L 480.858743 397.823991 
L 480.965636 403.697831 
L 481.179421 421.354526 
L 481.232868 420.063254 
L 481.668073 401.683316 
L 481.698614 401.64215 
L 481.73679 401.799714 
L 481.820777 403.334075 
L 481.950575 410.693718 
L 482.187266 421.40583 
L 482.210171 421.289415 
L 482.263618 419.999459 
L 482.485038 409.33764 
L 482.584296 410.610509 
L 482.645377 411.085792 
L 482.691188 410.769468 
L 482.78281 407.771207 
L 483.118759 395.590108 
L 483.17984 395.341263 
L 483.233286 395.539588 
L 483.355449 397.48102 
L 483.607411 402.594534 
L 483.668492 402.45397 
L 483.691398 402.433373 
L 483.721938 402.53973 
L 483.790655 403.711258 
L 483.889912 409.952282 
L 484.012075 435.800646 
L 484.088427 448.845721 
L 484.149509 444.820045 
L 484.683972 399.642443 
L 484.691607 399.645694 
L 484.745053 399.891434 
L 484.882487 401.898192 
L 485.058096 407.551988 
L 485.264246 424.851702 
L 485.500937 437.151829 
L 485.546748 437.333974 
L 485.600194 437.094725 
L 485.714722 435.260735 
L 485.798709 429.365581 
L 486.06594 409.015128 
L 486.226279 404.168035 
L 486.554592 395.167599 
L 486.608039 394.980109 
L 486.661485 395.181128 
L 486.768378 396.847305 
L 486.87527 398.404583 
L 486.928716 398.119937 
L 487.020339 397.528462 
L 487.06615 397.752188 
L 487.195948 400.109233 
L 487.447909 403.568833 
L 487.531896 405.258726 
L 487.676965 415.545726 
L 487.722776 417.001843 
L 487.783857 415.81334 
L 487.990007 405.655011 
L 488.0969 401.528575 
L 488.142711 402.228938 
L 488.295415 408.998266 
L 488.379402 406.264459 
L 488.562646 400.198409 
L 488.600822 400.802643 
L 488.692445 407.867607 
L 488.791702 413.096436 
L 488.837513 412.138322 
L 488.967311 401.249327 
L 489.150556 395.50643 
L 489.219272 395.282316 
L 489.272719 395.390375 
L 489.364341 396.309974 
L 489.478869 400.37384 
L 489.570491 403.023158 
L 489.623937 402.111327 
L 490.005697 393.829297 
L 490.211847 393.240405 
L 490.219482 393.242533 
L 490.288198 393.420292 
L 490.387456 394.60191 
L 490.532524 399.987331 
L 490.669958 407.010018 
L 490.723404 404.185601 
L 490.906648 396.880707 
L 491.227326 394.987648 
L 491.479287 394.502649 
L 491.563275 394.625708 
L 491.654897 395.306616 
L 491.822871 399.096558 
L 492.090102 407.61158 
L 492.196995 428.064199 
L 492.303888 443.806216 
L 492.349699 442.663144 
L 492.433686 434.400591 
L 492.716188 401.04799 
L 492.761999 400.765858 
L 492.80781 401.146233 
L 492.914702 404.890653 
L 493.097947 419.709249 
L 493.197204 415.347974 
L 493.273556 411.234106 
L 493.327003 413.515695 
L 493.380449 415.583726 
L 493.433895 413.578214 
L 493.670586 398.970719 
L 493.708762 399.010989 
L 493.746938 398.955512 
L 493.754573 398.919519 
L 493.83856 397.68162 
L 494.182143 392.005063 
L 494.227954 391.935754 
L 494.273766 392.043609 
L 494.357753 393.036468 
L 494.45701 397.845225 
L 494.556267 402.36294 
L 494.602079 401.118942 
L 494.770053 393.78698 
L 494.831134 394.593413 
L 494.991473 398.689449 
L 495.052555 397.858056 
L 495.228164 395.648326 
L 495.258705 395.691033 
L 495.350327 396.425371 
L 495.625194 399.793637 
L 495.69391 399.337098 
L 495.877155 397.3789 
L 495.945871 397.679086 
L 495.991682 397.827847 
L 496.037494 397.576056 
L 496.129116 396.733447 
L 496.182562 397.09449 
L 496.28182 400.354518 
L 496.403983 413.172568 
L 496.571957 440.489741 
L 496.633038 436.12325 
L 496.938446 398.612527 
L 496.946081 398.634665 
L 496.991892 399.417043 
L 497.068244 405.687358 
L 497.152231 412.351765 
L 497.205677 410.407575 
L 497.243853 409.427661 
L 497.31257 410.494196 
L 497.366016 410.95713 
L 497.419462 410.432979 
L 497.53399 404.91041 
L 497.808857 395.609557 
L 497.953925 394.357217 
L 497.992101 394.429839 
L 498.083723 395.325551 
L 498.213522 396.666307 
L 498.259333 396.419494 
L 498.389131 393.90318 
L 498.526564 392.112084 
L 498.56474 392.254927 
L 498.648727 393.78914 
L 498.870148 400.480581 
L 498.938864 399.423369 
L 499.190825 394.299356 
L 499.206096 394.312041 
L 499.274813 394.745926 
L 499.412246 397.675497 
L 499.496233 398.995926 
L 499.557314 398.661506 
L 499.572585 398.628546 
L 499.59549 398.808509 
L 499.648937 402.109604 
L 499.717653 431.058668 
L 499.832181 465.61638 
L 499.870357 460.923606 
L 500.137589 408.06203 
L 500.297927 402.558959 
L 500.442996 398.482437 
L 500.481172 398.686469 
L 501.038541 404.967036 
L 501.21415 424.348314 
L 501.275231 415.692742 
L 501.336313 408.915481 
L 501.389759 413.036095 
L 501.4203 415.12408 
L 501.473746 411.049725 
L 501.527192 408.1169 
L 501.595909 409.763884 
L 501.679896 411.288402 
L 501.725707 410.787643 
L 501.886046 404.165325 
L 501.924222 402.929362 
L 501.977668 405.148838 
L 502.084561 426.295448 
L 502.153278 431.469242 
L 502.206724 429.514661 
L 502.305981 413.215781 
L 502.489226 398.964766 
L 502.603754 397.519341 
L 502.649565 397.728593 
L 502.741187 399.91269 
L 502.985513 411.617987 
L 503.122946 455.576801 
L 503.184028 445.017383 
L 503.298556 411.729677 
L 503.352002 416.66354 
L 503.435989 433.558976 
L 503.504706 427.255217 
L 503.741396 394.529101 
L 503.825383 395.465619 
L 504.054439 401.091398 
L 504.123156 420.361902 
L 504.237684 456.463663 
L 504.283495 449.101085 
L 504.48201 413.253522 
L 504.642348 398.890609 
L 504.672889 398.964546 
L 504.756876 399.561702 
L 504.810323 399.227952 
L 505.008837 396.590896 
L 505.085189 396.9914 
L 505.222623 399.483184 
L 505.489854 409.828437 
L 505.772356 418.545022 
L 505.825802 417.321308 
L 505.909789 414.598986 
L 505.94033 416.34648 
L 506.039587 446.082537 
L 506.100669 425.13062 
L 506.169386 405.515313 
L 506.222832 414.136322 
L 506.306819 431.889146 
L 506.3679 424.731742 
L 506.497699 398.373083 
L 506.551145 403.869068 
L 506.642767 422.72466 
L 506.688578 414.241441 
L 506.757295 401.845516 
L 506.833647 402.793665 
L 506.925269 396.786348 
L 507.001621 394.854192 
L 507.055067 395.717961 
L 507.406286 406.137674 
L 507.444462 404.70207 
L 507.627706 400.562299 
L 508.162169 391.894202 
L 508.200345 391.865392 
L 508.238521 391.943861 
L 508.307238 392.714348 
L 508.429401 398.527147 
L 508.650821 416.756231 
L 508.711903 425.867988 
L 508.757714 419.243158 
L 508.933323 399.489104 
L 509.024945 398.425453 
L 509.070756 399.16128 
L 509.284542 410.047217 
L 509.353258 405.662741 
L 509.383799 404.462818 
L 509.421975 408.087467 
L 509.513597 435.389417 
L 509.589949 427.094287 
L 509.811369 389.922053 
L 509.834275 390.011459 
L 509.887721 391.708017 
L 509.986979 405.812162 
L 510.139682 445.716029 
L 510.177858 428.127552 
L 510.231305 405.190461 
L 510.307657 408.76159 
L 510.384008 398.491794 
L 510.437455 403.913482 
L 510.559618 429.995891 
L 510.620699 422.801086 
L 510.84212 392.930762 
L 510.849755 392.920639 
L 510.865025 393.037299 
L 510.918471 395.623507 
L 511.06354 410.623797 
L 511.124621 405.307518 
L 511.132257 405.045748 
L 511.162797 407.632628 
L 511.216244 415.214726 
L 511.26969 409.193535 
L 511.46057 394.22811 
L 511.598003 393.329822 
L 511.689625 392.87664 
L 511.720166 392.772384 
L 511.758342 393.077873 
L 511.811788 396.848641 
L 511.895775 403.867779 
L 511.956857 401.506364 
L 512.048479 394.674488 
L 512.10956 396.564077 
L 512.262264 408.425757 
L 512.346251 404.295662 
L 512.399698 405.532394 
L 512.437873 404.459796 
L 512.590577 392.378695 
L 512.674564 394.707406 
L 512.850174 406.748162 
L 512.949431 405.255226 
L 513.193757 399.399605 
L 513.224298 399.969537 
L 513.346461 405.35266 
L 513.407542 403.176418 
L 513.621327 393.586616 
L 513.667138 394.082509 
L 513.758761 396.419409 
L 513.812207 395.219163 
L 513.888559 393.730958 
L 513.942005 394.596165 
L 514.041263 398.381534 
L 514.12525 397.322364 
L 514.15579 398.020417 
L 514.201601 407.876303 
L 514.300859 454.443805 
L 514.36194 444.589228 
L 514.545185 396.990845 
L 514.56809 397.342649 
L 514.629172 403.612669 
L 514.751335 452.908836 
L 514.850592 432.365031 
L 515.026202 396.567315 
L 515.033837 396.570083 
L 515.064378 400.211421 
L 515.133094 422.038718 
L 515.186541 404.810624 
L 515.346879 393.165909 
L 515.354515 393.223162 
L 515.461407 395.426142 
L 515.522489 394.380223 
L 515.682828 389.853439 
L 515.728639 390.304423 
L 515.942424 396.618223 
L 516.056952 433.674212 
L 516.118033 414.770389 
L 516.156209 402.55662 
L 516.217291 418.490617 
L 516.247831 422.418889 
L 516.293643 411.303063 
L 516.431076 402.709982 
L 516.461617 402.477466 
L 516.492157 403.043124 
L 516.652496 412.112536 
L 516.698307 407.075713 
L 516.728848 405.183221 
L 516.782294 409.330693 
L 516.873917 423.454245 
L 516.912093 414.247513 
L 517.064796 400.79015 
L 517.431285 396.115266 
L 517.477096 396.943882 
L 517.660341 408.046931 
L 517.706152 403.759075 
L 517.889396 395.088107 
L 517.904667 395.032132 
L 517.927572 395.388236 
L 517.981019 400.438457 
L 518.187169 431.322721 
L 518.210074 426.439202 
L 518.316967 396.78706 
L 518.370413 401.344579 
L 518.584198 443.841011 
L 518.691091 437.715463 
L 518.721632 434.42879 
L 518.950687 402.989547 
L 519.004134 397.958207 
L 519.05758 402.029473 
L 519.088121 403.488351 
L 519.141567 400.467809 
L 519.309541 395.435227 
L 519.370623 395.58541 
L 519.446974 394.616728 
L 519.477515 394.286516 
L 519.523326 395.113866 
L 519.538597 395.348145 
L 519.576773 394.145857 
L 519.622584 393.233074 
L 519.683665 393.92543 
L 519.729476 396.431689 
L 519.782923 426.349907 
L 519.821099 443.145212 
L 519.874545 421.517381 
L 520.027249 390.508567 
L 520.080695 390.032225 
L 520.134141 390.526562 
L 520.218128 394.576724 
L 520.302115 405.827668 
L 520.370832 400.65034 
L 520.492995 396.194994 
L 520.523536 397.201653 
L 520.569347 412.010104 
L 520.630428 441.291582 
L 520.69151 424.774455 
L 520.737321 407.84572 
L 520.798402 424.328717 
L 520.844213 430.303 
L 520.89766 421.107373 
L 520.974012 396.052796 
L 521.057999 397.919216 
L 521.11908 409.239158 
L 521.172526 398.548675 
L 521.241243 393.506091 
L 521.302325 394.047146 
L 521.317595 394.111173 
L 521.348136 393.756753 
L 521.477934 391.390418 
L 521.53138 391.824632 
L 521.699354 394.905876 
L 521.752801 409.467448 
L 521.806247 395.093482 
L 521.867328 388.982967 
L 521.92841 391.164588 
L 522.042938 408.853937 
L 522.096384 400.057952 
L 522.203277 387.999242 
L 522.241453 388.735067 
L 522.294899 390.526665 
L 522.34071 388.697897 
L 522.378886 387.954466 
L 522.432332 389.308488 
L 522.493414 390.954016 
L 522.56213 390.110641 
L 522.600306 390.744194 
L 522.821727 401.028274 
L 522.936254 424.003032 
L 522.997336 412.512623 
L 523.050782 412.599775 
L 523.119499 410.425515 
L 523.142404 411.053928 
L 523.256932 418.239889 
L 523.302743 415.136936 
L 523.485988 402.088933 
L 523.600516 398.858488 
L 523.638692 400.598055 
L 523.722679 424.586276 
L 523.791395 438.752151 
L 523.837206 426.989316 
L 523.883018 408.356299 
L 523.959369 419.319288 
L 523.982275 424.021242 
L 524.028086 408.138602 
L 524.249506 390.503097 
L 524.280047 390.620996 
L 524.341129 391.860394 
L 524.547279 406.845627 
L 524.585455 412.291449 
L 524.638901 404.352487 
L 524.684712 399.693158 
L 524.761064 400.541716 
L 524.860321 396.066218 
L 524.99012 393.242756 
L 525.02066 393.545858 
L 525.097012 395.724322 
L 525.142823 394.296063 
L 525.22681 391.933719 
L 525.272621 392.844354 
L 525.326068 400.959026 
L 525.41769 433.176022 
L 525.463501 415.322004 
L 525.486407 409.737585 
L 525.578029 412.885732 
L 525.616205 403.346521 
L 525.692557 411.576414 
L 525.746003 403.546388 
L 525.822355 396.322538 
L 525.875801 397.50412 
L 526.066681 409.142654 
L 526.158303 423.812281 
L 526.204114 418.000755 
L 526.295736 399.983203 
L 526.356818 400.952403 
L 526.387359 400.214912 
L 526.517157 394.75773 
L 526.585873 395.528609 
L 526.601144 395.65072 
L 526.63932 395.150155 
L 526.769118 392.317628 
L 526.807294 393.120812 
L 527.059255 414.858203 
L 527.105066 406.037381 
L 527.135607 400.599793 
L 527.189053 410.074272 
L 527.326487 418.273681 
L 527.364662 423.245795 
L 527.402838 415.619261 
L 527.532637 401.463178 
L 527.540272 401.655161 
L 527.578448 423.984707 
L 527.624259 445.491778 
L 527.67007 413.087459 
L 527.715881 398.410382 
L 527.792233 398.507996 
L 527.830409 397.595061 
L 527.86095 399.638314 
L 527.937301 424.367523 
L 528.059464 418.499146 
L 528.090005 415.499813 
L 528.280885 389.897764 
L 528.319061 391.293284 
L 528.540481 407.664811 
L 528.555751 406.801809 
L 528.731361 394.024326 
L 528.738996 394.073637 
L 528.769537 395.90284 
L 528.822983 410.666617 
L 528.8917 398.965099 
L 528.92224 397.832686 
L 528.960416 400.831888 
L 529.120755 421.206952 
L 529.151296 415.639661 
L 529.235283 401.35818 
L 529.288729 404.15542 
L 529.311635 404.499054 
L 529.349811 403.102627 
L 529.449068 393.239296 
L 529.517785 396.584431 
L 529.594137 410.306007 
L 529.632313 398.927084 
L 529.701029 391.999492 
L 529.762111 393.489062 
L 529.800287 394.027502 
L 529.853733 393.177213 
L 529.884274 392.749664 
L 529.914815 393.788184 
L 530.090424 404.732053 
L 530.136235 401.437818 
L 530.235492 396.493748 
L 530.273668 398.085218 
L 530.365291 417.002055 
L 530.464548 409.177479 
L 530.663063 395.342027 
L 530.73178 392.691215 
L 530.785226 394.781821 
L 530.846307 398.78417 
L 530.892118 394.714722 
L 530.899754 394.406003 
L 530.922659 396.486159 
L 530.976106 409.748969 
L 531.037187 400.696013 
L 531.060093 397.902159 
L 531.098268 407.444393 
L 531.128809 412.517476 
L 531.17462 401.105136 
L 531.220431 394.788437 
L 531.281513 400.786524 
L 531.357865 417.900992 
L 531.411311 408.233621 
L 531.441852 405.649966 
L 531.525839 406.470935 
L 531.541109 406.460005 
L 531.55638 406.578872 
L 531.594556 409.526451 
L 531.648002 417.709607 
L 531.678543 409.044276 
L 531.724354 393.515798 
L 531.7778 408.04582 
L 531.861787 433.275209 
L 531.907598 422.483706 
L 532.075572 401.760888 
L 532.098478 401.371841 
L 532.121383 402.363567 
L 532.17483 411.554802 
L 532.289358 410.448896 
L 532.304628 411.552829 
L 532.342804 406.347849 
L 532.358074 405.158452 
L 532.388615 412.928426 
L 532.449696 434.035496 
L 532.487872 407.685451 
L 532.518413 400.294206 
L 532.6024 405.454287 
L 532.686387 396.36433 
L 532.762739 398.806361 
L 532.839091 399.205462 
L 532.877267 398.982771 
L 532.945984 398.416515 
L 532.99943 398.702804 
L 533.075782 399.816004 
L 533.106322 399.037108 
L 533.228485 393.647998 
L 533.304837 394.116425 
L 533.365919 394.967497 
L 533.480447 401.665973 
L 533.541528 418.055354 
L 533.579704 403.980273 
L 533.640785 392.543525 
L 533.701867 394.991158 
L 533.80876 414.457434 
L 533.82403 418.345684 
L 533.869841 400.543369 
L 533.938558 403.131034 
L 533.992004 395.160772 
L 534.007274 394.913324 
L 534.04545 396.757409 
L 534.137073 413.459498 
L 534.213424 404.018237 
L 534.23633 403.682435 
L 534.557008 388.897318 
L 534.572278 389.030132 
L 534.625724 390.676925 
L 534.6639 389.031927 
L 534.717347 388.013593 
L 534.786063 388.478248 
L 534.847145 390.738913 
L 534.915862 418.402341 
L 534.999849 397.589809 
L 535.038025 393.965484 
L 535.091471 400.628741 
L 535.099106 400.983731 
L 535.129647 398.164965 
L 535.152552 397.077464 
L 535.183093 401.129822 
L 535.351067 435.585209 
L 535.274715 397.498294 
L 535.373973 430.795635 
L 535.427419 403.70156 
L 535.511406 414.204897 
L 535.534312 412.402839 
L 535.587758 416.682315 
L 535.610664 414.878915 
L 535.648839 407.351056 
L 535.687015 417.447106 
L 535.709921 424.390253 
L 535.786273 414.167478 
L 535.877895 398.855755 
L 535.931341 410.627742 
L 535.938977 411.941116 
L 535.977152 401.13719 
L 536.09168 394.567985 
L 536.114586 395.193007 
L 536.175667 405.475595 
L 536.259654 399.352986 
L 536.28256 395.967487 
L 536.351277 400.512629 
L 536.358912 400.498153 
L 536.366547 400.403958 
L 536.381817 401.307637 
L 536.442899 415.10116 
L 536.496345 402.644845 
L 536.656684 395.224727 
L 536.67959 396.352505 
L 536.794117 408.241528 
L 536.832293 403.117085 
L 536.977362 397.568467 
L 537.015538 399.203723 
L 537.053714 400.800171 
L 537.09189 398.124896 
L 537.145336 394.158504 
L 537.191147 399.323661 
L 537.244593 433.317609 
L 537.305675 402.911293 
L 537.343851 394.070257 
L 537.420203 400.160157 
L 537.550001 398.055841 
L 537.488919 400.959141 
L 537.557636 398.633431 
L 537.618717 426.788613 
L 537.695069 404.244237 
L 537.794327 391.757228 
L 537.847773 398.614983 
L 537.863043 399.282285 
L 537.901219 394.774066 
L 537.908855 394.139134 
L 537.93176 399.076347 
L 537.962301 409.697873 
L 538.015747 394.725263 
L 538.031018 395.487992 
L 538.046288 396.50915 
L 538.099734 392.419678 
L 538.107369 392.267829 
L 538.130275 393.059456 
L 538.32879 419.832646 
L 538.359331 410.755141 
L 538.428047 416.904956 
L 538.496764 395.399263 
L 538.512034 394.347163 
L 538.580751 397.186888 
L 538.672373 404.506798 
L 538.763995 422.158456 
L 538.794536 412.159203 
L 538.924334 394.770146 
L 538.931969 394.821775 
L 538.970145 396.82697 
L 539.084673 406.309595 
L 539.107579 402.006536 
L 539.145755 394.210242 
L 539.199201 406.163732 
L 539.222107 411.86416 
L 539.267918 397.790499 
L 539.306094 405.065039 
L 539.321364 406.371249 
L 539.37481 399.728622 
L 539.474068 389.45073 
L 539.542784 391.965945 
L 539.603866 403.987179 
L 539.649677 420.965205 
L 539.733664 415.27725 
L 539.77184 402.748909 
L 539.848192 411.043001 
L 539.863462 410.556067 
L 539.909273 401.747559 
L 539.939814 411.889154 
L 539.970355 421.618171 
L 540.023801 399.561907 
L 540.130694 392.802827 
L 540.153599 393.370481 
L 540.260492 402.571779 
L 540.306303 398.38828 
L 540.359749 396.48452 
L 540.397925 398.346157 
L 540.443736 403.926544 
L 540.497183 397.499251 
L 540.520088 395.257957 
L 540.565899 401.361179 
L 540.626981 410.806176 
L 540.657522 401.436308 
L 540.688062 395.338028 
L 540.733873 406.606201 
L 540.772049 399.420448 
L 540.779685 399.067989 
L 540.794955 402.730979 
L 540.833131 410.850439 
L 540.894212 402.98117 
L 540.932388 395.400173 
L 541.001105 402.017429 
L 541.031646 413.404215 
L 541.085092 393.599449 
L 541.092727 393.642914 
L 541.146173 400.56053 
L 541.191985 393.149899 
L 541.21489 390.754603 
L 541.245431 397.503362 
L 541.291242 420.238652 
L 541.352324 399.940911 
L 541.459216 390.042882 
L 541.505027 394.488875 
L 541.550838 405.246488 
L 541.604285 392.203303 
L 541.62719 391.37469 
L 541.673001 393.653227 
L 541.825705 412.773287 
L 541.840975 408.310812 
L 541.978409 392.614376 
L 542.016585 394.944902 
L 542.062396 402.042071 
L 542.161653 400.867847 
L 542.207464 399.159722 
L 542.276181 400.60259 
L 542.283816 400.667088 
L 542.291451 400.416072 
L 542.467061 389.902569 
L 542.497601 390.408119 
L 542.604494 396.226498 
L 542.65794 414.787576 
L 542.719022 397.682584 
L 542.749563 399.278595 
L 542.772468 397.235556 
L 542.810644 392.449074 
L 542.856455 399.567747 
L 542.879361 402.703644 
L 542.932807 393.869677 
L 542.940442 394.2234 
L 543.093146 417.739658 
L 543.123687 404.375762 
L 543.161863 395.561716 
L 543.222944 408.057445 
L 543.253485 423.282997 
L 543.299296 404.149675 
L 543.329837 405.314752 
L 543.520716 392.679371 
L 543.574163 396.353083 
L 543.642879 393.2591 
L 543.772678 389.763622 
L 543.795583 390.174415 
L 543.833759 396.885596 
L 543.894841 414.79387 
L 543.955922 402.095846 
L 544.024639 393.974716 
L 544.078085 405.052287 
L 544.093355 406.41249 
L 544.123896 397.666419 
L 544.162072 394.221382 
L 544.215518 397.986867 
L 544.2766 426.419134 
L 544.330046 400.236721 
L 544.337681 398.877865 
L 544.398763 406.039244 
L 544.459844 402.102183 
L 544.536196 410.180499 
L 544.589642 398.667005 
L 544.681265 405.771076 
L 544.727076 412.4293 
L 544.765252 403.365595 
L 544.772887 401.845447 
L 544.788157 408.862235 
L 544.833968 478.94669 
L 544.887415 395.419765 
L 544.956131 395.614159 
L 545.009578 391.140994 
L 545.047754 395.801583 
L 545.070659 399.63335 
L 545.147011 393.636068 
L 545.177552 395.547519 
L 545.223363 423.365686 
L 545.253904 435.671362 
L 545.299715 398.226183 
L 545.345526 392.719067 
L 545.406607 396.231889 
L 545.460054 399.002728 
L 545.52877 397.545333 
L 545.544041 397.64834 
L 545.574581 396.861126 
L 545.589852 396.64732 
L 545.628028 397.052741 
L 545.658569 396.990937 
L 545.689109 404.691363 
L 545.73492 427.629272 
L 545.780731 400.654564 
L 545.796002 402.410846 
L 545.811272 404.489665 
L 545.857083 395.202565 
L 545.887624 392.599018 
L 545.948706 397.763207 
L 546.009787 406.112099 
L 546.055598 397.891251 
L 546.078504 396.911171 
L 546.13195 400.11806 
L 546.284654 409.390368 
L 546.307559 403.437496 
L 546.3381 397.65446 
L 546.399182 409.855149 
L 546.406817 410.219505 
L 546.429722 407.325139 
L 546.54425 391.69158 
L 546.567156 397.824061 
L 546.605332 434.291361 
L 546.658778 396.882854 
L 546.674048 397.839112 
L 546.803846 407.507465 
L 546.826752 400.986626 
L 546.910739 403.705371 
L 546.95655 391.520717 
L 546.987091 389.54262 
L 547.055808 392.452248 
L 547.193241 404.247309 
L 547.231417 433.963724 
L 547.300134 400.549657 
L 547.307769 399.648385 
L 547.345945 405.790302 
L 547.376485 410.069306 
L 547.407026 396.574492 
L 547.445202 392.686578 
L 547.529189 393.083016 
L 547.536824 393.047749 
L 547.544459 393.178913 
L 547.575 399.01446 
L 547.666622 431.777854 
L 547.704798 408.90892 
L 547.842232 395.067975 
L 547.75061 413.148564 
L 547.865137 396.639327 
L 547.994935 400.683094 
L 548.002571 400.505981 
L 548.033111 396.877054 
L 548.071287 404.259699 
L 548.109463 411.181582 
L 548.16291 400.250008 
L 548.201086 393.86796 
L 548.262167 403.334215 
L 548.292708 408.205112 
L 548.323248 399.368117 
L 548.376695 392.581495 
L 548.430141 399.483653 
L 548.475952 409.714603 
L 548.521763 396.97904 
L 548.537034 394.981348 
L 548.598115 401.237877 
L 548.651561 424.896351 
L 548.720278 410.005289 
L 548.872982 394.410946 
L 548.941699 399.671072 
L 548.98751 394.623779 
L 549.010415 397.257759 
L 549.102037 407.33922 
L 549.155484 405.227421 
L 549.186025 399.77211 
L 549.254741 391.110345 
L 549.300552 396.75152 
L 549.308187 396.990534 
L 549.323458 395.400415 
L 549.361634 391.210427 
L 549.422715 395.670363 
L 549.460891 398.358148 
L 549.544878 397.51453 
L 549.567784 397.309833 
L 549.583054 397.824402 
L 549.651771 413.565687 
L 549.712852 401.761073 
L 549.82738 394.20137 
L 549.850286 395.777955 
L 549.888462 405.709767 
L 549.980084 400.628083 
L 550.041165 402.340785 
L 550.071706 399.362511 
L 550.148058 397.664638 
L 550.109882 400.199003 
L 550.163328 399.900008 
L 550.216775 445.050693 
L 550.262586 394.5117 
L 550.270221 394.056578 
L 550.285491 398.857684 
L 550.308397 407.665691 
L 550.354208 393.015211 
L 550.384749 394.672346 
L 550.407654 395.647079 
L 550.506912 395.433881 
L 550.575628 402.194114 
L 550.598534 408.173823 
L 550.644345 398.451188 
L 550.682521 400.953879 
L 550.720697 394.98636 
L 550.758873 402.571316 
L 550.781778 411.914923 
L 550.82759 399.264693 
L 550.865765 401.9869 
L 550.957388 431.841275 
L 550.987928 406.902715 
L 551.026104 393.978761 
L 551.087186 415.619077 
L 551.110091 433.868021 
L 551.178808 403.809426 
L 551.186443 404.740832 
L 551.224619 415.199185 
L 551.278066 402.547006 
L 551.369688 390.933429 
L 551.407864 392.130903 
L 551.47658 405.28702 
L 551.522391 394.156312 
L 551.552932 390.396881 
L 551.583473 399.093894 
L 551.614014 422.321267 
L 551.675095 393.739062 
L 551.690366 396.043416 
L 551.850704 463.346052 
L 551.789623 394.746001 
L 551.881245 424.680656 
L 551.957597 405.947681 
L 551.995773 417.400178 
L 552.033949 420.153495 
L 552.06449 413.225021 
L 552.194288 390.37325 
L 552.217193 390.732733 
L 552.27064 394.401139 
L 552.324086 462.854185 
L 552.400438 406.060764 
L 552.453884 388.559826 
L 552.514966 400.469437 
L 552.576047 404.240041 
L 552.598953 397.751514 
L 552.621858 391.789701 
L 552.675305 408.317491 
L 552.68294 409.337401 
L 552.713481 401.544095 
L 552.835644 393.154352 
L 552.843279 393.744043 
L 552.919631 401.988884 
L 552.965442 395.640385 
L 552.973077 394.949556 
L 552.988347 401.2938 
L 553.018888 432.06171 
L 553.064699 395.665571 
L 553.11051 415.400719 
L 553.141051 394.509649 
L 553.232673 405.515518 
L 553.263214 423.208601 
L 553.309025 395.43911 
L 553.331931 400.04451 
L 553.476999 410.91161 
L 553.49227 408.911788 
L 553.591527 388.088523 
L 553.629703 393.001808 
L 553.759501 434.885559 
L 553.774771 423.131416 
L 553.828218 391.329497 
L 553.896934 398.833317 
L 553.90457 398.205701 
L 553.942746 401.55485 
L 553.988557 400.21485 
L 554.042003 422.067981 
L 554.080179 399.708365 
L 554.202342 393.119151 
L 554.209977 393.179269 
L 554.225247 393.687863 
L 554.263423 391.257477 
L 554.293964 389.187577 
L 554.339775 393.292731 
L 554.362681 391.90634 
L 554.370316 391.778543 
L 554.416127 392.847622 
L 554.500114 400.687596 
L 554.530655 394.694333 
L 554.591736 389.756872 
L 554.645183 392.290448 
L 554.706264 418.893313 
L 554.721534 424.643925 
L 554.790251 408.619245 
L 554.820792 398.577869 
L 554.897144 407.873706 
L 554.942955 405.045296 
L 554.958225 413.86039 
L 554.981131 432.516478 
L 555.049847 395.318975 
L 555.057483 394.884449 
L 555.080388 399.32049 
L 555.126199 403.819808 
L 555.164375 394.546263 
L 555.210186 391.059424 
L 555.248362 396.933415 
L 555.278903 414.543812 
L 555.355255 396.554746 
L 555.446877 389.681399 
L 555.477418 393.016016 
L 555.530864 410.047377 
L 555.576675 391.243282 
L 555.591946 388.848654 
L 555.630122 393.868059 
L 555.668298 392.01221 
L 555.698838 411.889992 
L 555.767555 391.916373 
L 555.813366 411.066843 
L 555.828636 409.13815 
L 555.851542 418.83739 
L 555.859177 421.175147 
L 555.920259 407.281555 
L 555.950799 400.619325 
L 556.011881 408.421505 
L 556.065327 414.628917 
L 556.095868 397.941249 
L 556.126409 390.908394 
L 556.210396 393.159834 
L 556.256207 397.564315 
L 556.332559 394.335965 
L 556.408911 416.783354 
L 556.439451 406.415828 
L 556.538709 389.928219 
L 556.561614 395.391887 
L 556.592155 410.904146 
L 556.668507 393.557328 
L 556.752494 388.682413 
L 556.79067 390.321842 
L 556.951009 413.159479 
L 556.973914 400.321179 
L 557.088442 393.976916 
L 557.027361 426.332782 
L 557.096077 394.22683 
L 557.141889 411.549276 
L 557.164794 430.163765 
L 557.225876 394.688802 
L 557.241146 391.249751 
L 557.279322 397.031263 
L 557.325133 394.702359 
L 557.386214 419.866449 
L 557.454931 404.52895 
L 557.508377 397.063248 
L 557.531283 409.280189 
L 557.546553 422.041401 
L 557.6 397.972435 
L 557.638176 406.075504 
L 557.645811 405.984249 
L 557.653446 406.571186 
L 557.691622 443.613001 
L 557.752703 404.292381 
L 557.798515 396.723339 
L 557.844326 410.11082 
L 557.851961 411.466861 
L 557.882502 402.366726 
L 557.913042 403.195661 
L 557.958853 394.080946 
L 557.997029 405.234209 
L 558.035205 395.503459 
L 558.073381 405.053468 
L 558.149733 396.244667 
L 558.165003 394.114184 
L 558.21845 404.504368 
L 558.325342 393.406106 
L 558.340613 399.344154 
L 558.363518 409.419476 
L 558.401694 391.03382 
L 558.462776 407.121426 
L 558.577304 394.17594 
L 558.539128 408.201366 
L 558.600209 401.27959 
L 558.661291 425.118963 
L 558.714737 404.35108 
L 558.783454 392.423892 
L 558.829265 399.810006 
L 558.890346 432.498692 
L 558.928522 395.409884 
L 558.943792 392.537256 
L 558.981968 413.809507 
L 558.997239 408.20123 
L 559.081226 397.843312 
L 559.04305 414.479802 
L 559.104131 409.667697 
L 559.149942 421.226457 
L 559.195754 405.466934 
L 559.211024 402.588381 
L 559.23393 418.764151 
L 559.2492 430.354734 
L 559.310281 390.629682 
L 559.317917 390.290465 
L 559.340822 393.340932 
L 559.371363 419.1277 
L 559.47062 410.182385 
L 559.539337 396.813377 
L 559.508796 416.521905 
L 559.562243 409.527162 
L 559.577513 417.700626 
L 559.615689 398.307744 
L 559.6615 407.098659 
L 559.776028 387.550586 
L 559.806568 389.213677 
L 559.875285 419.511323 
L 559.966907 405.893065 
L 559.982178 401.029581 
L 560.005083 439.667482 
L 560.020354 460.543666 
L 560.066165 396.517893 
L 560.096706 407.267467 
L 560.165422 396.553671 
L 560.203598 407.709061 
L 560.226504 401.58146 
L 560.27995 389.079703 
L 560.310491 400.780944 
L 560.425019 413.02696 
L 560.371572 388.736409 
L 560.432654 411.160462 
L 560.554817 389.859047 
L 560.577722 393.794338 
L 560.699885 412.926675 
L 560.638804 387.125285 
L 560.715156 409.462524 
L 560.745696 392.332533 
L 560.837319 396.992932 
L 560.852589 402.825841 
L 560.890765 393.557897 
L 560.928941 394.693228 
L 561.005293 411.741971 
L 561.051104 384.92092 
L 561.081645 411.599818 
L 561.10455 427.530368 
L 561.165632 388.172887 
L 561.196172 382.941128 
L 561.257254 395.834648 
L 561.287795 403.640052 
L 561.3107 393.360681 
L 561.364146 396.514791 
L 561.455769 387.635177 
L 561.409958 401.240719 
L 561.486309 394.226357 
L 561.493945 395.162468 
L 561.539756 387.420764 
L 561.555026 386.080032 
L 561.577932 397.21982 
L 561.654284 387.216143 
L 561.700095 406.476352 
L 561.806987 388.031132 
L 561.837528 397.964301 
L 561.898609 412.343027 
L 561.921515 396.596631 
L 561.952056 402.630568 
L 561.974961 403.172594 
L 561.982597 402.955345 
L 562.013137 393.098905 
L 562.089489 402.981349 
L 562.158206 409.102944 
L 562.204017 407.00767 
L 562.242193 395.425966 
L 562.318545 403.494797 
L 562.34145 400.163721 
L 562.448343 386.887321 
L 562.379626 400.729636 
L 562.486519 391.067423 
L 562.53233 429.678185 
L 562.608682 396.861144 
L 562.677398 398.937509 
L 562.715574 429.489716 
L 562.791926 404.337706 
L 562.906454 387.591702 
L 562.94463 393.886364 
L 562.967536 395.364256 
L 563.074428 433.120518 
L 563.089699 413.446887 
L 563.112604 388.10337 
L 563.204226 395.554587 
L 563.265308 429.575334 
L 563.303484 392.688972 
L 563.311119 391.466718 
L 563.35693 401.040455 
L 563.3722 408.396581 
L 563.410376 393.288413 
L 563.471458 405.999868 
L 563.501999 398.637155 
L 563.524904 411.934913 
L 563.616526 420.702294 
L 563.570715 401.80037 
L 563.639432 415.103508 
L 563.677608 400.248106 
L 563.723419 427.620322 
L 563.75396 405.17837 
L 563.7845 417.975764 
L 563.830312 389.166009 
L 563.929569 406.320478 
L 563.96011 438.579437 
L 564.021191 395.846351 
L 564.028826 396.272099 
L 564.089908 411.729931 
L 564.143354 398.564121 
L 564.158625 394.521111 
L 564.196801 414.40298 
L 564.227341 422.897034 
L 564.288423 407.112105 
L 564.318964 402.135634 
L 564.334234 408.05692 
L 564.410586 423.870549 
L 564.380045 404.268063 
L 564.441126 413.468474 
L 564.548019 390.753449 
L 564.563289 393.882768 
L 564.616736 417.44462 
L 564.662547 387.612229 
L 564.685452 386.966814 
L 564.708358 390.73394 
L 564.731264 412.278408 
L 564.815251 391.344638 
L 564.845791 394.411563 
L 564.983225 423.08824 
L 564.998495 418.855045 
L 565.036671 399.444223 
L 565.113023 409.476932 
L 565.143564 430.539204 
L 565.174104 403.82957 
L 565.227551 411.948917 
L 565.250456 416.887058 
L 565.265727 408.153338 
L 565.280997 397.376012 
L 565.326808 417.197683 
L 565.380254 402.440574 
L 565.487147 466.411528 
L 565.433701 397.047045 
L 565.510053 433.521932 
L 565.616945 408.12745 
L 565.563499 436.698636 
L 565.632216 409.596315 
L 565.662756 392.927648 
L 565.708567 417.392873 
L 565.723838 437.302149 
L 565.762014 403.411528 
L 565.807825 404.13567 
L 565.907082 390.949972 
L 565.861271 410.528131 
L 565.937623 394.334525 
L 565.983434 406.744173 
L 566.044516 394.64386 
L 566.075056 392.106392 
L 566.097962 388.739834 
L 566.120867 398.533546 
L 566.143773 410.596072 
L 566.22776 397.468888 
L 566.288842 407.423579 
L 566.304112 399.629597 
L 566.327017 389.187115 
L 566.372829 413.906775 
L 566.411005 402.672693 
L 566.494992 437.307321 
L 566.517897 403.992343 
L 566.540803 388.415947 
L 566.594249 409.918596 
L 566.62479 401.581955 
L 566.731682 393.207738 
L 566.65533 408.283146 
L 566.746953 396.567302 
L 566.754588 397.156953 
L 566.800399 393.790291 
L 566.823305 389.090006 
L 566.853845 406.110245 
L 566.876751 425.842766 
L 566.960738 404.258515 
L 566.983643 401.848819 
L 566.991279 399.873126 
L 567.03709 413.382975 
L 567.121077 437.188091 
L 567.082901 409.577385 
L 567.143982 414.605718 
L 567.151618 414.730553 
L 567.159253 414.399593 
L 567.273781 389.716431 
L 567.296686 394.844852 
L 567.403579 413.869353 
L 567.342497 391.581634 
L 567.426484 402.555718 
L 567.46466 388.151395 
L 567.525742 409.975476 
L 567.533377 411.547915 
L 567.556282 394.174369 
L 567.571553 389.840949 
L 567.640269 403.959944 
L 567.678445 409.536778 
L 567.724257 400.280799 
L 567.747162 395.607223 
L 567.785338 411.638084 
L 567.792973 415.16574 
L 567.854055 398.930197 
L 567.869325 401.049184 
L 567.930407 401.881204 
L 567.953312 399.113716 
L 567.960947 398.498709 
L 567.976218 402.005827 
L 568.098381 427.788014 
L 568.05257 386.767569 
L 568.106016 425.669806 
L 568.228179 398.157086 
L 568.281625 385.161281 
L 568.350342 394.339187 
L 568.472505 408.297016 
L 568.426694 393.864383 
L 568.487775 398.950682 
L 568.541221 394.185763 
L 568.587033 402.204274 
L 568.609938 422.376456 
L 568.625209 443.286535 
L 568.70156 395.442145 
L 568.831359 413.596308 
L 568.846629 406.212813 
L 568.976427 387.000056 
L 568.984062 387.565112 
L 569.159672 412.774584 
L 569.167307 408.824953 
L 569.205483 387.493694 
L 569.28947 392.608048 
L 569.373457 389.470334 
L 569.342916 394.584541 
L 569.388727 392.841966 
L 569.487985 420.551862 
L 569.503255 403.256432 
L 569.617783 384.458644 
L 569.633053 384.649156 
L 569.655959 391.259721 
L 569.686499 415.474858 
L 569.755216 389.851242 
L 569.762851 390.764518 
L 569.770486 391.451126 
L 569.801027 386.557144 
L 569.854473 389.162873 
L 569.869744 389.746469 
L 569.946096 414.324512 
L 569.991907 392.925161 
L 569.999542 392.131227 
L 570.022448 400.300046 
L 570.052988 416.202036 
L 570.098799 392.601128 
L 570.121705 398.707199 
L 570.175151 387.677222 
L 570.205692 396.537462 
L 570.274409 392.395098 
L 570.350761 430.097273 
L 570.373666 416.831369 
L 570.52637 389.768879 
L 570.54164 389.041506 
L 570.572181 393.747821 
L 570.663803 416.739087 
L 570.701979 407.843961 
L 570.755425 388.450527 
L 570.831777 397.552684 
L 570.93867 414.531567 
L 570.869953 391.983849 
L 570.95394 407.072938 
L 570.976846 394.396663 
L 571.015022 430.205516 
L 571.068468 401.215357 
L 571.099009 392.561274 
L 571.121914 409.086971 
L 571.137185 421.161836 
L 571.213537 393.752721 
L 571.36624 412.342189 
L 571.381511 401.407855 
L 571.419687 385.89753 
L 571.480768 409.21213 
L 571.488403 409.499081 
L 571.549485 388.252798 
L 571.587661 403.931622 
L 571.602931 418.192924 
L 571.641107 388.537774 
L 571.694553 404.172642 
L 571.770905 408.450232 
L 571.748 394.354878 
L 571.786176 402.870911 
L 571.908339 390.063671 
L 571.915974 389.979745 
L 571.923609 390.850261 
L 571.992326 424.184076 
L 571.999961 436.545247 
L 572.045772 390.090506 
L 572.083948 401.354897 
L 572.091583 400.068188 
L 572.1603 404.666042 
L 572.167935 407.534554 
L 572.251922 400.493481 
L 572.313003 390.750449 
L 572.36645 399.560382 
L 572.38172 416.510657 
L 572.465707 386.400874 
L 572.480978 388.0669 
L 572.526789 403.315451 
L 572.60314 393.717427 
L 572.633681 414.182839 
L 572.725303 400.354541 
L 572.77875 389.772562 
L 572.801655 404.036874 
L 572.870372 431.650601 
L 572.839831 399.516498 
L 572.900913 402.080341 
L 573.023076 393.227323 
L 573.030711 394.650024 
L 573.061252 407.52747 
L 573.152874 400.758344 
L 573.175779 404.495338 
L 573.213955 394.744539 
L 573.236861 386.580628 
L 573.290307 400.087635 
L 573.328483 390.02905 
L 573.359024 400.214614 
L 573.404835 389.485436 
L 573.473552 394.916388 
L 573.504092 385.149373 
L 573.549904 396.830743 
L 573.58808 388.306035 
L 573.733148 438.922383 
L 573.748418 458.340851 
L 573.786594 385.431167 
L 573.82477 393.11087 
L 573.901122 413.518409 
L 573.924028 397.366209 
L 574.046191 385.567873 
L 574.061461 387.207497 
L 574.175989 406.478633 
L 574.191259 396.938582 
L 574.259976 384.89528 
L 574.290517 399.126816 
L 574.313422 419.556482 
L 574.343963 394.076517 
L 574.405044 408.39496 
L 574.466126 419.54061 
L 574.44322 407.396174 
L 574.519572 418.738499 
L 574.573019 397.5967 
L 574.603559 421.180804 
L 574.672276 404.866021 
L 574.756263 440.758985 
L 574.718087 403.22661 
L 574.779169 408.785169 
L 574.786804 408.732142 
L 574.794439 411.736763 
L 574.82498 393.252559 
L 574.863156 398.021792 
L 574.870791 397.442657 
L 574.939507 400.449582 
L 574.962413 400.159796 
L 574.977683 404.265284 
L 575.000589 411.659026 
L 575.054035 399.410027 
L 575.076941 400.185358 
L 575.115117 413.451532 
L 575.130387 427.451526 
L 575.214374 406.320596 
L 575.298361 386.148118 
L 575.351808 397.610252 
L 575.389983 406.370429 
L 575.420524 390.568667 
L 575.428159 389.924625 
L 575.44343 397.389863 
L 575.4587 410.673833 
L 575.535052 387.651566 
L 575.542687 388.608535 
L 575.611404 385.19779 
L 575.672485 397.339395 
L 575.680121 397.305524 
L 575.802284 390.102578 
L 575.825189 392.957188 
L 575.871 404.297849 
L 575.893906 431.021451 
L 575.939717 397.561523 
L 575.985528 412.578896 
L 576.000798 422.332061 
L 576.031339 395.97035 
L 576.100056 415.623456 
L 576.145867 421.365182 
L 576.229854 390.903518 
L 576.344382 408.112631 
L 576.390193 399.124182 
L 576.420734 394.674077 
L 576.481815 403.454438 
L 576.504721 410.262522 
L 576.542897 399.306457 
L 576.558167 401.699278 
L 576.573437 396.504782 
L 576.611613 412.916727 
L 576.626884 429.047606 
L 576.687965 390.628013 
L 576.710871 397.022722 
L 576.771952 421.741442 
L 576.840669 406.99141 
L 576.90175 393.7364 
L 576.947561 403.434283 
L 577.016278 424.485406 
L 577.039184 398.493127 
L 577.069724 422.945282 
L 577.161347 386.903297 
L 577.214793 401.287832 
L 577.222428 401.288058 
L 577.245334 409.608092 
L 577.29878 392.347198 
L 577.321686 388.353801 
L 577.359861 397.051867 
L 577.382767 395.791863 
L 577.482024 408.439486 
L 577.436213 391.710525 
L 577.497295 402.739882 
L 577.581282 393.421007 
L 577.543106 406.023708 
L 577.588917 398.456502 
L 577.688174 442.527673 
L 577.703445 410.298227 
L 577.817973 387.546666 
L 577.825608 388.066479 
L 577.863784 414.570734 
L 577.978312 403.7965 
L 578.054663 385.207859 
L 578.008852 409.54839 
L 578.092839 397.586963 
L 578.192097 413.636766 
L 578.215002 400.561127 
L 578.291354 406.21413 
L 578.3448 390.468394 
L 578.497504 448.791987 
L 578.512775 431.833728 
L 578.53568 389.960829 
L 578.627302 404.912426 
L 578.703654 416.933875 
L 578.718925 404.162692 
L 578.818182 385.048773 
L 578.757101 405.202542 
L 578.841088 386.219077 
L 578.879264 404.185071 
L 578.986156 393.585558 
L 579.001427 393.137316 
L 579.077778 407.68986 
L 579.047238 391.232159 
L 579.108319 394.910237 
L 579.115954 392.886327 
L 579.15413 410.280578 
L 579.238117 449.047062 
L 579.215212 405.566644 
L 579.253388 410.897831 
L 579.32974 428.121745 
L 579.367915 394.566205 
L 579.55116 432.034805 
L 579.574065 410.258339 
L 579.589336 402.13665 
L 579.635147 418.64271 
L 579.673323 415.607286 
L 579.688593 419.917607 
L 579.734404 402.199555 
L 579.749675 405.571004 
L 579.795486 402.688969 
L 579.826027 406.152463 
L 579.864203 421.445293 
L 579.917649 406.942844 
L 579.932919 390.897559 
L 580.032177 396.674427 
L 580.100893 426.755655 
L 580.16961 411.946548 
L 580.192516 392.593335 
L 580.245962 414.648806 
L 580.291773 393.391448 
L 580.337584 392.196666 
L 580.37576 407.566344 
L 580.39103 425.433006 
L 580.475017 402.074303 
L 580.551369 392.604322 
L 580.574275 402.384806 
L 580.620086 428.478273 
L 580.59718 398.631126 
L 580.635356 404.845929 
L 580.673532 409.707172 
L 580.757519 388.057908 
L 580.765155 388.145344 
L 580.879682 419.222132 
L 580.902588 397.754727 
L 580.910223 394.634746 
L 580.948399 418.651949 
L 580.99421 403.497242 
L 581.00948 409.420722 
L 581.040021 386.242094 
L 581.101103 401.887914 
L 581.18509 431.02694 
L 581.139279 399.95571 
L 581.20036 403.340393 
L 581.223266 389.422673 
L 581.253806 415.008396 
L 581.291982 411.57242 
L 581.314888 441.435821 
L 581.345429 395.499398 
L 581.39124 405.118064 
L 581.467592 396.586226 
L 581.437051 429.226246 
L 581.490497 409.171135 
L 581.543944 423.45913 
L 581.566849 398.421532 
L 581.650836 389.847489 
L 581.605025 403.181625 
L 581.673742 392.915079 
L 581.772999 441.701301 
L 581.788269 410.799726 
L 581.80354 388.470957 
L 581.887527 415.569075 
L 581.895162 414.255163 
L 582.00969 396.765635 
L 581.933338 415.498271 
L 582.017325 397.999583 
L 582.040231 411.090255 
L 582.101312 388.994837 
L 582.116582 392.568631 
L 582.223475 401.860475 
L 582.23111 400.345456 
L 582.269286 387.462107 
L 582.353273 388.146999 
L 582.521247 410.650735 
L 582.536518 405.014261 
L 582.574694 423.673351 
L 582.666316 433.143002 
L 582.64341 402.694677 
L 582.673951 433.008268 
L 582.727397 391.263915 
L 582.788479 410.505397 
L 582.872466 391.903057 
L 582.826655 419.88453 
L 582.887736 410.015091 
L 582.964088 426.674971 
L 582.986994 404.066981 
L 583.02517 394.67664 
L 583.078616 416.521423 
L 583.109157 410.556285 
L 583.139697 419.884234 
L 583.154968 443.800271 
L 583.216049 397.547231 
L 583.24659 418.864885 
L 583.26186 424.446754 
L 583.284766 403.655624 
L 583.399294 391.341089 
L 583.368753 413.709101 
L 583.406929 392.743626 
L 583.445105 412.623991 
L 583.45274 419.675763 
L 583.475646 391.958057 
L 583.551997 416.652872 
L 583.613079 402.987753 
L 583.681796 403.289964 
L 583.735242 398.230446 
L 583.758147 412.044358 
L 583.773418 416.173382 
L 583.842135 401.140297 
L 583.84977 402.844588 
L 583.903216 413.477797 
L 583.872675 401.401657 
L 583.918486 401.563172 
L 583.926122 398.608791 
L 583.956662 421.027909 
L 583.979568 417.494283 
L 583.987203 420.165675 
L 584.033014 401.288063 
L 584.040649 398.984442 
L 584.07119 420.320213 
L 584.078825 418.724236 
L 584.101731 446.038687 
L 584.124636 401.159317 
L 584.155177 408.630062 
L 584.170448 407.642954 
L 584.178083 408.223468 
L 584.193353 415.237969 
L 584.223894 394.869506 
L 584.284975 409.572557 
L 584.307881 394.560509 
L 584.361327 425.696296 
L 584.391868 402.50791 
L 584.422409 420.712796 
L 584.48349 401.306986 
L 584.506396 407.460281 
L 584.567477 397.893841 
L 584.536936 411.703369 
L 584.575112 402.216437 
L 584.613288 389.301328 
L 584.697275 420.547934 
L 584.796533 443.622467 
L 584.735451 409.018526 
L 584.804168 422.434234 
L 584.819438 394.283022 
L 584.918696 409.049908 
L 584.933966 410.708418 
L 584.941601 413.552756 
L 585.002683 399.853596 
L 585.017953 401.277147 
L 585.025588 401.991461 
L 585.048494 396.319344 
L 585.063764 393.548429 
L 585.094305 411.561053 
L 585.132481 401.704009 
L 585.140116 405.433155 
L 585.170657 396.627332 
L 585.239374 401.84488 
L 585.330996 394.544847 
L 585.30809 408.051779 
L 585.361537 398.388139 
L 585.437888 409.457372 
L 585.414983 395.978692 
L 585.468429 401.986153 
L 585.4837 397.082062 
L 585.51424 420.910999 
L 585.544781 417.788445 
L 585.590592 426.445121 
L 585.628768 406.015261 
L 585.72039 395.112813 
L 585.697485 421.938134 
L 585.743296 402.487986 
L 585.842553 448.189193 
L 585.804377 401.940689 
L 585.865459 419.302009 
L 585.934176 393.033922 
L 585.972351 412.611385 
L 585.987622 435.597111 
L 586.018163 406.850845 
L 586.086879 420.314141 
L 586.155596 401.677862 
L 586.109785 431.894612 
L 586.209042 414.630692 
L 586.32357 440.867032 
L 586.293029 393.919984 
L 586.331205 435.49393 
L 586.422827 391.488941 
L 586.453368 399.772826 
L 586.483909 413.993129 
L 586.583166 408.970766 
L 586.644248 391.496163 
L 586.667153 404.242734 
L 586.682424 428.268533 
L 586.766411 392.462948 
L 586.774046 392.277555 
L 586.781681 393.649927 
L 586.903844 409.470008 
L 586.919115 404.115877 
L 587.003102 395.993158 
L 586.972561 429.155816 
L 587.018372 403.63008 
L 587.117629 431.976856 
L 587.094724 402.71774 
L 587.1329 412.652353 
L 587.232157 424.888219 
L 587.255063 392.860008 
L 587.377226 423.551398 
L 587.331415 389.474955 
L 587.415402 404.020089 
L 587.445942 400.120071 
L 587.476483 413.419329 
L 587.56047 419.012014 
L 587.507024 399.173635 
L 587.568105 413.641553 
L 587.629187 437.690858 
L 587.682633 395.996077 
L 587.781891 436.321637 
L 587.804796 421.414182 
L 587.858242 401.526547 
L 587.835337 429.053616 
L 587.926959 414.598197 
L 587.980405 434.140289 
L 588.010946 401.334958 
L 588.033852 419.321216 
L 588.094933 405.744784 
L 588.110204 440.775101 
L 588.117839 442.485875 
L 588.125474 428.77798 
L 588.156015 392.848596 
L 588.232367 424.513028 
L 588.240002 433.323476 
L 588.301083 395.948105 
L 588.339259 424.453284 
L 588.423246 397.447217 
L 588.3698 424.693553 
L 588.461422 407.49654 
L 588.530139 391.658879 
L 588.637031 397.945153 
L 588.667572 440.517056 
L 588.743924 400.440568 
L 588.805006 422.061765 
L 588.835546 398.628443 
L 588.873722 407.911649 
L 588.98825 393.4248 
L 588.957709 425.933617 
L 588.995885 395.408743 
L 589.049332 408.50743 
L 589.110413 402.316159 
L 589.118048 401.77171 
L 589.125683 405.450741 
L 589.17913 396.785844 
L 589.240211 423.857586 
L 589.270752 461.426254 
L 589.370009 403.14714 
L 589.38528 401.528775 
L 589.40055 410.793028 
L 589.408185 416.985144 
L 589.461632 398.264319 
L 589.499807 402.229224 
L 589.599065 422.51209 
L 589.522713 398.707895 
L 589.644876 411.324419 
L 589.744133 391.958963 
L 589.751769 396.341986 
L 589.774674 420.95479 
L 589.858661 403.888487 
L 589.873932 395.293867 
L 589.919743 414.972219 
L 589.965554 404.765476 
L 590.049541 396.60805 
L 589.988459 409.705376 
L 590.072446 401.463837 
L 590.156433 420.761752 
L 590.110622 392.95378 
L 590.186974 407.531664 
L 590.217515 392.153658 
L 590.278596 410.483877 
L 590.301502 404.1769 
L 591.820904 404.133025 
L 597.348779 404.103626 
L 600.570827 404.042452 
L 602.525435 403.612375 
L 603.456928 403.389364 
L 605.022141 403.143019 
L 605.976539 403.158497 
L 607.289791 403.077317 
L 607.84716 403.063813 
L 611.878538 402.939839 
L 612.519894 402.480132 
L 613.581185 401.382464 
L 614.986059 399.963787 
L 615.512887 399.694956 
L 616.551272 399.797346 
L 617.230804 400.081814 
L 619.361021 401.020601 
L 619.857308 400.935822 
L 620.468123 400.565452 
L 621.445426 399.660546 
L 621.964619 398.862317 
L 622.552528 398.09327 
L 622.865571 397.977816 
L 623.132803 398.141416 
L 623.42294 398.622474 
L 623.903956 399.807511 
L 625.522616 404.203443 
L 625.797483 404.323792 
L 626.079984 404.16963 
L 626.576272 403.580324 
L 627.110735 403.063606 
L 627.721549 402.909459 
L 631.531507 402.110113 
L 634.71538 401.708374 
L 636.326404 401.549607 
L 640.693731 401.186216 
L 644.572405 400.864758 
L 646.946948 400.759554 
L 652.383201 400.606958 
L 658.819663 400.321471 
L 662.606715 399.988004 
L 664.630039 399.613403 
L 667.332895 398.823151 
L 668.126955 398.987058 
L 669.35622 399.506369 
L 672.417929 400.785224 
L 672.891311 400.698295 
L 673.433409 400.35519 
L 674.135846 399.621616 
L 676.456943 396.972668 
L 676.907419 396.873283 
L 677.296813 397.019479 
L 677.846547 397.498436 
L 679.022365 398.568432 
L 680.702106 399.432953 
L 685.008351 401.484044 
L 685.764235 402.155742 
L 687.02404 403.7417 
L 687.413435 403.59925 
L 687.879181 403.169204 
L 688.512902 402.247293 
L 690.543861 399.043602 
L 690.940891 398.888861 
L 691.658598 398.916449 
L 692.521374 399.186294 
L 694.880647 400.058494 
L 695.453286 399.947468 
L 695.941938 399.606572 
L 696.590929 398.854101 
L 698.980742 395.783703 
L 699.354866 395.738163 
L 699.72899 395.935204 
L 700.217642 396.476058 
L 701.126229 397.900468 
L 701.866842 398.872892 
L 702.271507 399.086544 
L 702.58455 399.014415 
L 703.035026 398.648031 
L 704.149763 397.660578 
L 705.669165 397.007416 
L 707.028228 396.342537 
L 708.196412 395.652028 
L 708.54763 395.762717 
L 709.021012 396.18097 
L 710.19683 397.309858 
L 710.517508 397.291719 
L 710.838186 397.012902 
L 711.655151 396.226138 
L 712.197249 396.229073 
L 712.800429 396.18645 
L 713.05239 395.851029 
L 713.457055 394.870244 
L 714.541251 392.084663 
L 714.777942 391.994709 
L 714.953551 392.207056 
L 715.2895 393.058209 
L 715.808692 394.232339 
L 716.480589 395.119847 
L 716.74782 395.13267 
L 717.847287 394.769504 
L 722.535291 393.480462 
L 726.665927 392.833475 
L 730.575142 392.443391 
L 731.812042 392.199816 
L 739.103645 389.866265 
L 744.814765 387.617278 
L 747.884109 386.033914 
L 750.365545 384.52494 
L 754.236584 381.918971 
L 760.146218 378.106324 
L 761.825959 376.710104 
L 765.414497 373.63259 
L 767.964649 371.423126 
L 769.636755 369.612462 
L 771.996027 366.726568 
L 780.547436 355.395767 
L 783.952729 350.20609 
L 789.396617 341.418889 
L 792.168189 336.478649 
L 793.565428 333.516061 
L 796.268284 327.072796 
L 797.696064 324.051098 
L 802.452785 314.658781 
L 804.812057 309.225152 
L 807.140789 303.287485 
L 809.492427 296.671288 
L 811.920416 289.163619 
L 814.447662 280.609279 
L 816.875652 271.591314 
L 819.318911 261.642907 
L 821.754536 250.777737 
L 824.235971 238.662168 
L 826.694501 225.553211 
L 829.099585 211.51295 
L 831.558115 195.805035 
L 833.970833 178.856318 
L 836.383552 160.305299 
L 838.788636 140.062947 
L 839.903373 130.042304 
L 839.903373 130.042304 
" clip-path="url(#p764b00f88e)" style="fill: none; stroke: #0652ff; stroke-width: 5; stroke-linecap: square"/>
   </g>
   <g id="patch_3">
    <path d="M 76.4 560.571 
L 76.4 62.234 
" style="fill: none; stroke: #000000; stroke-width: 0.8; stroke-linejoin: miter; stroke-linecap: square"/>
   </g>
   <g id="patch_4">
    <path d="M 844 560.571 
L 844 62.234 
" style="fill: none; stroke: #000000; stroke-width: 0.8; stroke-linejoin: miter; stroke-linecap: square"/>
   </g>
   <g id="patch_5">
    <path d="M 76.4 560.571 
L 844 560.571 
" style="fill: none; stroke: #000000; stroke-width: 0.8; stroke-linejoin: miter; stroke-linecap: square"/>
   </g>
   <g id="patch_6">
    <path d="M 76.4 62.234 
L 844 62.234 
" style="fill: none; stroke: #000000; stroke-width: 0.8; stroke-linejoin: miter; stroke-linecap: square"/>
   </g>
   <g id="text_18">
    <!-- Neutron reproduction factor -->
    <g transform="translate(242.957813 43.775575) scale(0.3 -0.3)">
     <use xlink:href="#DejaVuSerif-4e"/>
     <use xlink:href="#DejaVuSerif-65" transform="translate(87.5 0)"/>
     <use xlink:href="#DejaVuSerif-75" transform="translate(146.679688 0)"/>
     <use xlink:href="#DejaVuSerif-74" transform="translate(211.083984 0)"/>
     <use xlink:href="#DejaVuSerif-72" transform="translate(251.269531 0)"/>
     <use xlink:href="#DejaVuSerif-6f" transform="translate(299.072266 0)"/>
     <use xlink:href="#DejaVuSerif-6e" transform="translate(359.277344 0)"/>
     <use xlink:href="#DejaVuSerif-20" transform="translate(423.681641 0)"/>
     <use xlink:href="#DejaVuSerif-72" transform="translate(455.46875 0)"/>
     <use xlink:href="#DejaVuSerif-65" transform="translate(503.271484 0)"/>
     <use xlink:href="#DejaVuSerif-70" transform="translate(562.451172 0)"/>
     <use xlink:href="#DejaVuSerif-72" transform="translate(626.464844 0)"/>
     <use xlink:href="#DejaVuSerif-6f" transform="translate(674.267578 0)"/>
     <use xlink:href="#DejaVuSerif-64" transform="translate(734.472656 0)"/>
     <use xlink:href="#DejaVuSerif-75" transform="translate(798.486328 0)"/>
     <use xlink:href="#DejaVuSerif-63" transform="translate(862.890625 0)"/>
     <use xlink:href="#DejaVuSerif-74" transform="translate(918.896484 0)"/>
     <use xlink:href="#DejaVuSerif-69" transform="translate(959.082031 0)"/>
     <use xlink:href="#DejaVuSerif-6f" transform="translate(991.064453 0)"/>
     <use xlink:href="#DejaVuSerif-6e" transform="translate(1051.269531 0)"/>
     <use xlink:href="#DejaVuSerif-20" transform="translate(1115.673828 0)"/>
     <use xlink:href="#DejaVuSerif-66" transform="translate(1147.460938 0)"/>
     <use xlink:href="#DejaVuSerif-61" transform="translate(1184.472656 0)"/>
     <use xlink:href="#DejaVuSerif-63" transform="translate(1244.091797 0)"/>
     <use xlink:href="#DejaVuSerif-74" transform="translate(1300.097656 0)"/>
     <use xlink:href="#DejaVuSerif-6f" transform="translate(1340.283203 0)"/>
     <use xlink:href="#DejaVuSerif-72" transform="translate(1400.488281 0)"/>
    </g>
   </g>
   <g id="legend_1">
    <g id="patch_7">
     <path d="M 721.6 107.59025 
L 830 107.59025 
Q 834 107.59025 834 103.59025 
L 834 76.234 
Q 834 72.234 830 72.234 
L 721.6 72.234 
Q 717.6 72.234 717.6 76.234 
L 717.6 103.59025 
Q 717.6 107.59025 721.6 107.59025 
z
" style="fill: #ffffff; opacity: 0.95; stroke: #cccccc; stroke-linejoin: miter"/>
    </g>
    <g id="line2d_32">
     <path d="M 725.6 88.430875 
L 745.6 88.430875 
L 765.6 88.430875 
" style="fill: none; stroke: #0652ff; stroke-width: 5; stroke-linecap: square"/>
    </g>
    <g id="text_19">
     <!-- $\mathrm{^{233}U}$ -->
     <g transform="translate(781.6 95.430875) scale(0.2 -0.2)">
      <defs>
       <path id="DejaVuSerif-55" d="M 897 4331 
L 300 4331 
L 300 4666 
L 2125 4666 
L 2125 4331 
L 1528 4331 
L 1528 1919 
Q 1528 1025 1820 672 
Q 2113 319 2828 319 
Q 3544 319 3836 672 
Q 4128 1025 4128 1919 
L 4128 4331 
L 3531 4331 
L 3531 4666 
L 5106 4666 
L 5106 4331 
L 4513 4331 
L 4513 1856 
Q 4513 791 4103 350 
Q 3694 -91 2713 -91 
Q 1731 -91 1314 353 
Q 897 797 897 1856 
L 897 4331 
z
" transform="scale(0.015625)"/>
      </defs>
      <use xlink:href="#DejaVuSerif-32" transform="translate(0.908359 37.046875) scale(0.7)"/>
      <use xlink:href="#DejaVuSerif-33" transform="translate(45.444492 37.046875) scale(0.7)"/>
      <use xlink:href="#DejaVuSerif-33" transform="translate(89.980625 37.046875) scale(0.7)"/>
      <use xlink:href="#DejaVuSerif-55" transform="translate(137.11207 0.7125)"/>
     </g>
    </g>
   </g>
  </g>
 </g>
 <defs>
  <clipPath id="p764b00f88e">
   <rect x="76.4" y="62.234" width="767.6" height="498.337"/>
  </clipPath>
 </defs>
</svg>
