<?xml version="1.0" encoding="utf-8" standalone="no"?>
<!DOCTYPE svg PUBLIC "-//W3C//DTD SVG 1.1//EN"
  "http://www.w3.org/Graphics/SVG/1.1/DTD/svg11.dtd">
<svg xmlns:xlink="http://www.w3.org/1999/xlink" width="864pt" height="648pt" viewBox="0 0 864 648" xmlns="http://www.w3.org/2000/svg" version="1.1">
 <metadata>
  <rdf:RDF xmlns:dc="http://purl.org/dc/elements/1.1/" xmlns:cc="http://creativecommons.org/ns#" xmlns:rdf="http://www.w3.org/1999/02/22-rdf-syntax-ns#">
   <cc:Work>
    <dc:type rdf:resource="http://purl.org/dc/dcmitype/StillImage"/>
    <dc:date>2025-10-21T14:37:34.912306</dc:date>
    <dc:format>image/svg+xml</dc:format>
    <dc:creator>
     <cc:Agent>
      <dc:title>Matplotlib v3.10.7, https://matplotlib.org/</dc:title>
     </cc:Agent>
    </dc:creator>
   </cc:Work>
  </rdf:RDF>
 </metadata>
 <defs>
  <style type="text/css">*{stroke-linejoin: round; stroke-linecap: butt}</style>
 </defs>
 <g id="figure_1">
  <g id="patch_1">
   <path d="M 0 648 
L 864 648 
L 864 0 
L 0 0 
z
" style="fill: #ffffff; stroke: #000000; stroke-width: 3; stroke-linejoin: miter"/>
  </g>
  <g id="axes_1">
   <g id="patch_2">
    <path d="M 75.7475 561.795 
L 834.424802 561.795 
L 834.424802 62.234 
L 75.7475 62.234 
L 75.7475 561.795 
z
" style="fill: none"/>
   </g>
   <g id="matplotlib.axis_1">
    <g id="xtick_1">
     <g id="line2d_1">
      <path d="M 78.251385 561.795 
L 78.251385 62.234 
" clip-path="url(#pf475b4909e)" style="fill: none; stroke-dasharray: 4.625,2; stroke-dashoffset: 0; stroke: #343837; stroke-opacity: 0.8; stroke-width: 1.25"/>
     </g>
     <g id="line2d_2">
      <defs>
       <path id="mfc8e70f9c4" d="M 0 0 
L 0 3.5 
" style="stroke: #000000; stroke-width: 0.8"/>
      </defs>
      <g>
       <use xlink:href="#mfc8e70f9c4" x="78.251385" y="561.795" style="stroke: #000000; stroke-width: 0.8"/>
      </g>
     </g>
     <g id="text_1">
      <!-- 0 -->
      <g transform="translate(71.252635 585.511562) scale(0.22 -0.22)">
       <defs>
        <path id="DejaVuSerif-30" d="M 2034 219 
Q 2513 219 2750 744 
Q 2988 1269 2988 2328 
Q 2988 3391 2750 3916 
Q 2513 4441 2034 4441 
Q 1556 4441 1318 3916 
Q 1081 3391 1081 2328 
Q 1081 1269 1318 744 
Q 1556 219 2034 219 
z
M 2034 -91 
Q 1275 -91 848 546 
Q 422 1184 422 2328 
Q 422 3475 848 4112 
Q 1275 4750 2034 4750 
Q 2797 4750 3222 4112 
Q 3647 3475 3647 2328 
Q 3647 1184 3222 546 
Q 2797 -91 2034 -91 
z
" transform="scale(0.015625)"/>
       </defs>
       <use xlink:href="#DejaVuSerif-30"/>
      </g>
     </g>
    </g>
    <g id="xtick_2">
     <g id="line2d_3">
      <path d="M 203.44566 561.795 
L 203.44566 62.234 
" clip-path="url(#pf475b4909e)" style="fill: none; stroke-dasharray: 4.625,2; stroke-dashoffset: 0; stroke: #343837; stroke-opacity: 0.8; stroke-width: 1.25"/>
     </g>
     <g id="line2d_4">
      <g>
       <use xlink:href="#mfc8e70f9c4" x="203.44566" y="561.795" style="stroke: #000000; stroke-width: 0.8"/>
      </g>
     </g>
     <g id="text_2">
      <!-- 5 -->
      <g transform="translate(196.44691 585.511562) scale(0.22 -0.22)">
       <defs>
        <path id="DejaVuSerif-35" d="M 3219 4666 
L 3219 4153 
L 1081 4153 
L 1081 2816 
Q 1244 2928 1461 2984 
Q 1678 3041 1947 3041 
Q 2703 3041 3140 2622 
Q 3578 2203 3578 1478 
Q 3578 738 3136 323 
Q 2694 -91 1894 -91 
Q 1572 -91 1234 -12 
Q 897 66 544 225 
L 544 1131 
L 897 1131 
Q 925 688 1179 453 
Q 1434 219 1894 219 
Q 2388 219 2653 544 
Q 2919 869 2919 1478 
Q 2919 2084 2655 2407 
Q 2391 2731 1894 2731 
Q 1613 2731 1398 2631 
Q 1184 2531 1019 2322 
L 750 2322 
L 750 4666 
L 3219 4666 
z
" transform="scale(0.015625)"/>
       </defs>
       <use xlink:href="#DejaVuSerif-35"/>
      </g>
     </g>
    </g>
    <g id="xtick_3">
     <g id="line2d_5">
      <path d="M 328.639934 561.795 
L 328.639934 62.234 
" clip-path="url(#pf475b4909e)" style="fill: none; stroke-dasharray: 4.625,2; stroke-dashoffset: 0; stroke: #343837; stroke-opacity: 0.8; stroke-width: 1.25"/>
     </g>
     <g id="line2d_6">
      <g>
       <use xlink:href="#mfc8e70f9c4" x="328.639934" y="561.795" style="stroke: #000000; stroke-width: 0.8"/>
      </g>
     </g>
     <g id="text_3">
      <!-- 10 -->
      <g transform="translate(314.642434 585.511562) scale(0.22 -0.22)">
       <defs>
        <path id="DejaVuSerif-31" d="M 909 0 
L 909 331 
L 1722 331 
L 1722 4213 
L 781 3603 
L 781 4013 
L 1919 4750 
L 2350 4750 
L 2350 331 
L 3163 331 
L 3163 0 
L 909 0 
z
" transform="scale(0.015625)"/>
       </defs>
       <use xlink:href="#DejaVuSerif-31"/>
       <use xlink:href="#DejaVuSerif-30" transform="translate(63.623047 0)"/>
      </g>
     </g>
    </g>
    <g id="xtick_4">
     <g id="line2d_7">
      <path d="M 453.834208 561.795 
L 453.834208 62.234 
" clip-path="url(#pf475b4909e)" style="fill: none; stroke-dasharray: 4.625,2; stroke-dashoffset: 0; stroke: #343837; stroke-opacity: 0.8; stroke-width: 1.25"/>
     </g>
     <g id="line2d_8">
      <g>
       <use xlink:href="#mfc8e70f9c4" x="453.834208" y="561.795" style="stroke: #000000; stroke-width: 0.8"/>
      </g>
     </g>
     <g id="text_4">
      <!-- 15 -->
      <g transform="translate(439.836708 585.511562) scale(0.22 -0.22)">
       <use xlink:href="#DejaVuSerif-31"/>
       <use xlink:href="#DejaVuSerif-35" transform="translate(63.623047 0)"/>
      </g>
     </g>
    </g>
    <g id="xtick_5">
     <g id="line2d_9">
      <path d="M 579.028483 561.795 
L 579.028483 62.234 
" clip-path="url(#pf475b4909e)" style="fill: none; stroke-dasharray: 4.625,2; stroke-dashoffset: 0; stroke: #343837; stroke-opacity: 0.8; stroke-width: 1.25"/>
     </g>
     <g id="line2d_10">
      <g>
       <use xlink:href="#mfc8e70f9c4" x="579.028483" y="561.795" style="stroke: #000000; stroke-width: 0.8"/>
      </g>
     </g>
     <g id="text_5">
      <!-- 20 -->
      <g transform="translate(565.030983 585.511562) scale(0.22 -0.22)">
       <defs>
        <path id="DejaVuSerif-32" d="M 819 3553 
L 469 3553 
L 469 4384 
Q 803 4563 1142 4656 
Q 1481 4750 1806 4750 
Q 2534 4750 2956 4397 
Q 3378 4044 3378 3438 
Q 3378 2753 2422 1800 
Q 2347 1728 2309 1691 
L 1131 513 
L 3078 513 
L 3078 1088 
L 3444 1088 
L 3444 0 
L 434 0 
L 434 341 
L 1850 1753 
Q 2319 2222 2519 2614 
Q 2719 3006 2719 3438 
Q 2719 3909 2473 4175 
Q 2228 4441 1797 4441 
Q 1350 4441 1106 4219 
Q 863 3997 819 3553 
z
" transform="scale(0.015625)"/>
       </defs>
       <use xlink:href="#DejaVuSerif-32"/>
       <use xlink:href="#DejaVuSerif-30" transform="translate(63.623047 0)"/>
      </g>
     </g>
    </g>
    <g id="xtick_6">
     <g id="line2d_11">
      <path d="M 704.222757 561.795 
L 704.222757 62.234 
" clip-path="url(#pf475b4909e)" style="fill: none; stroke-dasharray: 4.625,2; stroke-dashoffset: 0; stroke: #343837; stroke-opacity: 0.8; stroke-width: 1.25"/>
     </g>
     <g id="line2d_12">
      <g>
       <use xlink:href="#mfc8e70f9c4" x="704.222757" y="561.795" style="stroke: #000000; stroke-width: 0.8"/>
      </g>
     </g>
     <g id="text_6">
      <!-- 25 -->
      <g transform="translate(690.225257 585.511562) scale(0.22 -0.22)">
       <use xlink:href="#DejaVuSerif-32"/>
       <use xlink:href="#DejaVuSerif-35" transform="translate(63.623047 0)"/>
      </g>
     </g>
    </g>
    <g id="xtick_7">
     <g id="line2d_13">
      <path d="M 829.417031 561.795 
L 829.417031 62.234 
" clip-path="url(#pf475b4909e)" style="fill: none; stroke-dasharray: 4.625,2; stroke-dashoffset: 0; stroke: #343837; stroke-opacity: 0.8; stroke-width: 1.25"/>
     </g>
     <g id="line2d_14">
      <g>
       <use xlink:href="#mfc8e70f9c4" x="829.417031" y="561.795" style="stroke: #000000; stroke-width: 0.8"/>
      </g>
     </g>
     <g id="text_7">
      <!-- 30 -->
      <g transform="translate(815.419531 585.511562) scale(0.22 -0.22)">
       <defs>
        <path id="DejaVuSerif-33" d="M 622 4469 
Q 988 4606 1323 4678 
Q 1659 4750 1953 4750 
Q 2638 4750 3022 4454 
Q 3406 4159 3406 3634 
Q 3406 3213 3140 2930 
Q 2875 2647 2388 2547 
Q 2963 2466 3280 2130 
Q 3597 1794 3597 1259 
Q 3597 606 3158 257 
Q 2719 -91 1894 -91 
Q 1528 -91 1179 -12 
Q 831 66 488 225 
L 488 1131 
L 838 1131 
Q 869 681 1141 450 
Q 1413 219 1906 219 
Q 2384 219 2661 495 
Q 2938 772 2938 1253 
Q 2938 1803 2653 2086 
Q 2369 2369 1819 2369 
L 1522 2369 
L 1522 2688 
L 1678 2688 
Q 2225 2688 2498 2914 
Q 2772 3141 2772 3597 
Q 2772 4006 2547 4223 
Q 2322 4441 1900 4441 
Q 1478 4441 1245 4241 
Q 1013 4041 972 3647 
L 622 3647 
L 622 4469 
z
" transform="scale(0.015625)"/>
       </defs>
       <use xlink:href="#DejaVuSerif-33"/>
       <use xlink:href="#DejaVuSerif-30" transform="translate(63.623047 0)"/>
      </g>
     </g>
    </g>
    <g id="text_8">
     <!-- Energy of incident neutron (MeV) -->
     <g transform="translate(232.286463 621.842813) scale(0.26 -0.26)">
      <defs>
       <path id="DejaVuSerif-45" d="M 353 0 
L 353 331 
L 947 331 
L 947 4331 
L 353 4331 
L 353 4666 
L 4109 4666 
L 4109 3628 
L 3725 3628 
L 3725 4281 
L 1581 4281 
L 1581 2719 
L 3109 2719 
L 3109 3303 
L 3494 3303 
L 3494 1753 
L 3109 1753 
L 3109 2338 
L 1581 2338 
L 1581 384 
L 3775 384 
L 3775 1038 
L 4159 1038 
L 4159 0 
L 353 0 
z
" transform="scale(0.015625)"/>
       <path id="DejaVuSerif-6e" d="M 263 0 
L 263 331 
L 781 331 
L 781 2988 
L 231 2988 
L 231 3322 
L 1356 3322 
L 1356 2731 
Q 1516 3069 1770 3241 
Q 2025 3413 2363 3413 
Q 2913 3413 3172 3097 
Q 3431 2781 3431 2113 
L 3431 331 
L 3944 331 
L 3944 0 
L 2356 0 
L 2356 331 
L 2853 331 
L 2853 1931 
Q 2853 2541 2703 2767 
Q 2553 2994 2175 2994 
Q 1775 2994 1565 2701 
Q 1356 2409 1356 1850 
L 1356 331 
L 1856 331 
L 1856 0 
L 263 0 
z
" transform="scale(0.015625)"/>
       <path id="DejaVuSerif-65" d="M 3469 1600 
L 991 1600 
L 991 1575 
Q 991 903 1244 561 
Q 1497 219 1991 219 
Q 2369 219 2611 417 
Q 2853 616 2950 1006 
L 3413 1006 
Q 3275 459 2904 184 
Q 2534 -91 1931 -91 
Q 1203 -91 761 389 
Q 319 869 319 1663 
Q 319 2450 753 2931 
Q 1188 3413 1894 3413 
Q 2647 3413 3050 2948 
Q 3453 2484 3469 1600 
z
M 2791 1931 
Q 2772 2513 2545 2808 
Q 2319 3103 1894 3103 
Q 1497 3103 1269 2806 
Q 1041 2509 991 1931 
L 2791 1931 
z
" transform="scale(0.015625)"/>
       <path id="DejaVuSerif-72" d="M 3059 3328 
L 3059 2497 
L 2728 2497 
Q 2713 2744 2591 2866 
Q 2469 2988 2234 2988 
Q 1809 2988 1582 2694 
Q 1356 2400 1356 1850 
L 1356 331 
L 2022 331 
L 2022 0 
L 263 0 
L 263 331 
L 781 331 
L 781 2994 
L 231 2994 
L 231 3322 
L 1356 3322 
L 1356 2731 
Q 1525 3078 1790 3245 
Q 2056 3413 2438 3413 
Q 2578 3413 2733 3391 
Q 2888 3369 3059 3328 
z
" transform="scale(0.015625)"/>
       <path id="DejaVuSerif-67" d="M 3359 2988 
L 3359 72 
Q 3359 -644 2965 -1033 
Q 2572 -1422 1844 -1422 
Q 1516 -1422 1216 -1362 
Q 916 -1303 641 -1184 
L 641 -488 
L 941 -488 
Q 997 -813 1206 -963 
Q 1416 -1113 1806 -1113 
Q 2313 -1113 2548 -827 
Q 2784 -541 2784 72 
L 2784 519 
Q 2616 206 2355 57 
Q 2094 -91 1709 -91 
Q 1097 -91 708 395 
Q 319 881 319 1663 
Q 319 2444 706 2928 
Q 1094 3413 1709 3413 
Q 2094 3413 2355 3264 
Q 2616 3116 2784 2803 
L 2784 3322 
L 3909 3322 
L 3909 2988 
L 3359 2988 
z
M 2784 1825 
Q 2784 2422 2554 2737 
Q 2325 3053 1888 3053 
Q 1444 3053 1217 2703 
Q 991 2353 991 1663 
Q 991 975 1217 622 
Q 1444 269 1888 269 
Q 2325 269 2554 583 
Q 2784 897 2784 1497 
L 2784 1825 
z
" transform="scale(0.015625)"/>
       <path id="DejaVuSerif-79" d="M 1381 -609 
L 1600 -56 
L 359 2988 
L -19 2988 
L -19 3322 
L 1509 3322 
L 1509 2988 
L 978 2988 
L 1913 703 
L 2847 2988 
L 2350 2988 
L 2350 3322 
L 3597 3322 
L 3597 2988 
L 3225 2988 
L 1703 -750 
Q 1547 -1138 1356 -1280 
Q 1166 -1422 819 -1422 
Q 672 -1422 517 -1397 
Q 363 -1372 206 -1325 
L 206 -691 
L 500 -691 
Q 519 -903 608 -995 
Q 697 -1088 884 -1088 
Q 1056 -1088 1161 -992 
Q 1266 -897 1381 -609 
z
" transform="scale(0.015625)"/>
       <path id="DejaVuSerif-20" transform="scale(0.015625)"/>
       <path id="DejaVuSerif-6f" d="M 1925 219 
Q 2388 219 2623 584 
Q 2859 950 2859 1663 
Q 2859 2375 2623 2739 
Q 2388 3103 1925 3103 
Q 1463 3103 1227 2739 
Q 991 2375 991 1663 
Q 991 950 1228 584 
Q 1466 219 1925 219 
z
M 1925 -91 
Q 1200 -91 759 389 
Q 319 869 319 1663 
Q 319 2456 758 2934 
Q 1197 3413 1925 3413 
Q 2653 3413 3092 2934 
Q 3531 2456 3531 1663 
Q 3531 869 3092 389 
Q 2653 -91 1925 -91 
z
" transform="scale(0.015625)"/>
       <path id="DejaVuSerif-66" d="M 2753 4078 
L 2450 4078 
Q 2447 4313 2317 4434 
Q 2188 4556 1941 4556 
Q 1619 4556 1487 4379 
Q 1356 4203 1356 3750 
L 1356 3322 
L 2284 3322 
L 2284 2988 
L 1356 2988 
L 1356 331 
L 2094 331 
L 2094 0 
L 231 0 
L 231 331 
L 781 331 
L 781 2988 
L 231 2988 
L 231 3322 
L 781 3322 
L 781 3738 
Q 781 4294 1070 4578 
Q 1359 4863 1919 4863 
Q 2128 4863 2337 4825 
Q 2547 4788 2753 4709 
L 2753 4078 
z
" transform="scale(0.015625)"/>
       <path id="DejaVuSerif-69" d="M 622 4353 
Q 622 4497 726 4603 
Q 831 4709 978 4709 
Q 1122 4709 1226 4603 
Q 1331 4497 1331 4353 
Q 1331 4206 1228 4103 
Q 1125 4000 978 4000 
Q 831 4000 726 4103 
Q 622 4206 622 4353 
z
M 1356 331 
L 1900 331 
L 1900 0 
L 231 0 
L 231 331 
L 781 331 
L 781 2988 
L 231 2988 
L 231 3322 
L 1356 3322 
L 1356 331 
z
" transform="scale(0.015625)"/>
       <path id="DejaVuSerif-63" d="M 3291 997 
Q 3169 466 2822 187 
Q 2475 -91 1925 -91 
Q 1200 -91 759 389 
Q 319 869 319 1663 
Q 319 2459 759 2936 
Q 1200 3413 1925 3413 
Q 2241 3413 2553 3339 
Q 2866 3266 3181 3116 
L 3181 2266 
L 2847 2266 
Q 2781 2703 2561 2903 
Q 2341 3103 1931 3103 
Q 1466 3103 1228 2742 
Q 991 2381 991 1663 
Q 991 944 1227 581 
Q 1463 219 1931 219 
Q 2303 219 2525 412 
Q 2747 606 2828 997 
L 3291 997 
z
" transform="scale(0.015625)"/>
       <path id="DejaVuSerif-64" d="M 3359 331 
L 3909 331 
L 3909 0 
L 2784 0 
L 2784 519 
Q 2616 206 2355 57 
Q 2094 -91 1709 -91 
Q 1097 -91 708 395 
Q 319 881 319 1663 
Q 319 2444 706 2928 
Q 1094 3413 1709 3413 
Q 2094 3413 2355 3264 
Q 2616 3116 2784 2803 
L 2784 4531 
L 2241 4531 
L 2241 4863 
L 3359 4863 
L 3359 331 
z
M 2784 1497 
L 2784 1825 
Q 2784 2422 2554 2737 
Q 2325 3053 1888 3053 
Q 1444 3053 1217 2703 
Q 991 2353 991 1663 
Q 991 975 1217 622 
Q 1444 269 1888 269 
Q 2325 269 2554 583 
Q 2784 897 2784 1497 
z
" transform="scale(0.015625)"/>
       <path id="DejaVuSerif-74" d="M 691 2988 
L 184 2988 
L 184 3322 
L 691 3322 
L 691 4353 
L 1269 4353 
L 1269 3322 
L 2350 3322 
L 2350 2988 
L 1269 2988 
L 1269 878 
Q 1269 456 1350 337 
Q 1431 219 1650 219 
Q 1875 219 1978 351 
Q 2081 484 2088 781 
L 2522 781 
Q 2497 328 2275 118 
Q 2053 -91 1600 -91 
Q 1103 -91 897 129 
Q 691 350 691 878 
L 691 2988 
z
" transform="scale(0.015625)"/>
       <path id="DejaVuSerif-75" d="M 2266 3322 
L 3341 3322 
L 3341 331 
L 3884 331 
L 3884 0 
L 2766 0 
L 2766 588 
Q 2606 256 2353 82 
Q 2100 -91 1766 -91 
Q 1213 -91 952 223 
Q 691 538 691 1209 
L 691 2988 
L 172 2988 
L 172 3322 
L 1269 3322 
L 1269 1388 
Q 1269 781 1417 556 
Q 1566 331 1947 331 
Q 2347 331 2556 625 
Q 2766 919 2766 1478 
L 2766 2988 
L 2266 2988 
L 2266 3322 
z
" transform="scale(0.015625)"/>
       <path id="DejaVuSerif-28" d="M 2041 -997 
Q 1281 -656 893 83 
Q 506 822 506 1931 
Q 506 3044 893 3783 
Q 1281 4522 2041 4863 
L 2041 4556 
Q 1559 4225 1350 3623 
Q 1141 3022 1141 1931 
Q 1141 844 1350 242 
Q 1559 -359 2041 -691 
L 2041 -997 
z
" transform="scale(0.015625)"/>
       <path id="DejaVuSerif-4d" d="M 353 0 
L 353 331 
L 947 331 
L 947 4331 
L 319 4331 
L 319 4666 
L 1678 4666 
L 3316 1344 
L 4953 4666 
L 6228 4666 
L 6228 4331 
L 5606 4331 
L 5606 331 
L 6203 331 
L 6203 0 
L 4378 0 
L 4378 331 
L 4972 331 
L 4972 3938 
L 3372 684 
L 2931 684 
L 1331 3938 
L 1331 331 
L 1925 331 
L 1925 0 
L 353 0 
z
" transform="scale(0.015625)"/>
       <path id="DejaVuSerif-56" d="M 1119 4331 
L 2497 750 
L 3872 4331 
L 3347 4331 
L 3347 4666 
L 4716 4666 
L 4716 4331 
L 4263 4331 
L 2597 0 
L 2059 0 
L 403 4331 
L -63 4331 
L -63 4666 
L 1638 4666 
L 1638 4331 
L 1119 4331 
z
" transform="scale(0.015625)"/>
       <path id="DejaVuSerif-29" d="M 453 -997 
L 453 -691 
Q 934 -359 1145 242 
Q 1356 844 1356 1931 
Q 1356 3022 1145 3623 
Q 934 4225 453 4556 
L 453 4863 
Q 1216 4522 1603 3783 
Q 1991 3044 1991 1931 
Q 1991 822 1603 83 
Q 1216 -656 453 -997 
z
" transform="scale(0.015625)"/>
      </defs>
      <use xlink:href="#DejaVuSerif-45"/>
      <use xlink:href="#DejaVuSerif-6e" transform="translate(72.998047 0)"/>
      <use xlink:href="#DejaVuSerif-65" transform="translate(137.402344 0)"/>
      <use xlink:href="#DejaVuSerif-72" transform="translate(196.582031 0)"/>
      <use xlink:href="#DejaVuSerif-67" transform="translate(244.384766 0)"/>
      <use xlink:href="#DejaVuSerif-79" transform="translate(308.398438 0)"/>
      <use xlink:href="#DejaVuSerif-20" transform="translate(364.892578 0)"/>
      <use xlink:href="#DejaVuSerif-6f" transform="translate(396.679688 0)"/>
      <use xlink:href="#DejaVuSerif-66" transform="translate(456.884766 0)"/>
      <use xlink:href="#DejaVuSerif-20" transform="translate(493.896484 0)"/>
      <use xlink:href="#DejaVuSerif-69" transform="translate(525.683594 0)"/>
      <use xlink:href="#DejaVuSerif-6e" transform="translate(557.666016 0)"/>
      <use xlink:href="#DejaVuSerif-63" transform="translate(622.070312 0)"/>
      <use xlink:href="#DejaVuSerif-69" transform="translate(678.076172 0)"/>
      <use xlink:href="#DejaVuSerif-64" transform="translate(710.058594 0)"/>
      <use xlink:href="#DejaVuSerif-65" transform="translate(774.072266 0)"/>
      <use xlink:href="#DejaVuSerif-6e" transform="translate(833.251953 0)"/>
      <use xlink:href="#DejaVuSerif-74" transform="translate(897.65625 0)"/>
      <use xlink:href="#DejaVuSerif-20" transform="translate(937.841797 0)"/>
      <use xlink:href="#DejaVuSerif-6e" transform="translate(969.628906 0)"/>
      <use xlink:href="#DejaVuSerif-65" transform="translate(1034.033203 0)"/>
      <use xlink:href="#DejaVuSerif-75" transform="translate(1093.212891 0)"/>
      <use xlink:href="#DejaVuSerif-74" transform="translate(1157.617188 0)"/>
      <use xlink:href="#DejaVuSerif-72" transform="translate(1197.802734 0)"/>
      <use xlink:href="#DejaVuSerif-6f" transform="translate(1245.605469 0)"/>
      <use xlink:href="#DejaVuSerif-6e" transform="translate(1305.810547 0)"/>
      <use xlink:href="#DejaVuSerif-20" transform="translate(1370.214844 0)"/>
      <use xlink:href="#DejaVuSerif-28" transform="translate(1402.001953 0)"/>
      <use xlink:href="#DejaVuSerif-4d" transform="translate(1441.015625 0)"/>
      <use xlink:href="#DejaVuSerif-65" transform="translate(1543.408203 0)"/>
      <use xlink:href="#DejaVuSerif-56" transform="translate(1602.587891 0)"/>
      <use xlink:href="#DejaVuSerif-29" transform="translate(1674.804688 0)"/>
     </g>
    </g>
   </g>
   <g id="matplotlib.axis_2">
    <g id="ytick_1">
     <g id="line2d_15">
      <path d="M 75.7475 561.795 
L 834.424802 561.795 
" clip-path="url(#pf475b4909e)" style="fill: none; stroke-dasharray: 4.625,2; stroke-dashoffset: 0; stroke: #343837; stroke-opacity: 0.8; stroke-width: 1.25"/>
     </g>
     <g id="line2d_16">
      <defs>
       <path id="m749aa72996" d="M 0 0 
L -3.5 0 
" style="stroke: #000000; stroke-width: 0.8"/>
      </defs>
      <g>
       <use xlink:href="#m749aa72996" x="75.7475" y="561.795" style="stroke: #000000; stroke-width: 0.8"/>
      </g>
     </g>
     <g id="text_9">
      <!-- 2 -->
      <g transform="translate(54.75 570.153281) scale(0.22 -0.22)">
       <use xlink:href="#DejaVuSerif-32"/>
      </g>
     </g>
    </g>
    <g id="ytick_2">
     <g id="line2d_17">
      <path d="M 75.7475 461.8828 
L 834.424802 461.8828 
" clip-path="url(#pf475b4909e)" style="fill: none; stroke-dasharray: 4.625,2; stroke-dashoffset: 0; stroke: #343837; stroke-opacity: 0.8; stroke-width: 1.25"/>
     </g>
     <g id="line2d_18">
      <g>
       <use xlink:href="#m749aa72996" x="75.7475" y="461.8828" style="stroke: #000000; stroke-width: 0.8"/>
      </g>
     </g>
     <g id="text_10">
      <!-- 3 -->
      <g transform="translate(54.75 470.241081) scale(0.22 -0.22)">
       <use xlink:href="#DejaVuSerif-33"/>
      </g>
     </g>
    </g>
    <g id="ytick_3">
     <g id="line2d_19">
      <path d="M 75.7475 361.9706 
L 834.424802 361.9706 
" clip-path="url(#pf475b4909e)" style="fill: none; stroke-dasharray: 4.625,2; stroke-dashoffset: 0; stroke: #343837; stroke-opacity: 0.8; stroke-width: 1.25"/>
     </g>
     <g id="line2d_20">
      <g>
       <use xlink:href="#m749aa72996" x="75.7475" y="361.9706" style="stroke: #000000; stroke-width: 0.8"/>
      </g>
     </g>
     <g id="text_11">
      <!-- 4 -->
      <g transform="translate(54.75 370.328881) scale(0.22 -0.22)">
       <defs>
        <path id="DejaVuSerif-34" d="M 2234 1581 
L 2234 4063 
L 641 1581 
L 2234 1581 
z
M 3609 0 
L 1484 0 
L 1484 331 
L 2234 331 
L 2234 1247 
L 197 1247 
L 197 1588 
L 2241 4750 
L 2859 4750 
L 2859 1581 
L 3750 1581 
L 3750 1247 
L 2859 1247 
L 2859 331 
L 3609 331 
L 3609 0 
z
" transform="scale(0.015625)"/>
       </defs>
       <use xlink:href="#DejaVuSerif-34"/>
      </g>
     </g>
    </g>
    <g id="ytick_4">
     <g id="line2d_21">
      <path d="M 75.7475 262.0584 
L 834.424802 262.0584 
" clip-path="url(#pf475b4909e)" style="fill: none; stroke-dasharray: 4.625,2; stroke-dashoffset: 0; stroke: #343837; stroke-opacity: 0.8; stroke-width: 1.25"/>
     </g>
     <g id="line2d_22">
      <g>
       <use xlink:href="#m749aa72996" x="75.7475" y="262.0584" style="stroke: #000000; stroke-width: 0.8"/>
      </g>
     </g>
     <g id="text_12">
      <!-- 5 -->
      <g transform="translate(54.75 270.416681) scale(0.22 -0.22)">
       <use xlink:href="#DejaVuSerif-35"/>
      </g>
     </g>
    </g>
    <g id="ytick_5">
     <g id="line2d_23">
      <path d="M 75.7475 162.1462 
L 834.424802 162.1462 
" clip-path="url(#pf475b4909e)" style="fill: none; stroke-dasharray: 4.625,2; stroke-dashoffset: 0; stroke: #343837; stroke-opacity: 0.8; stroke-width: 1.25"/>
     </g>
     <g id="line2d_24">
      <g>
       <use xlink:href="#m749aa72996" x="75.7475" y="162.1462" style="stroke: #000000; stroke-width: 0.8"/>
      </g>
     </g>
     <g id="text_13">
      <!-- 6 -->
      <g transform="translate(54.75 170.504481) scale(0.22 -0.22)">
       <defs>
        <path id="DejaVuSerif-36" d="M 2094 219 
Q 2534 219 2771 542 
Q 3009 866 3009 1472 
Q 3009 2078 2771 2401 
Q 2534 2725 2094 2725 
Q 1647 2725 1412 2412 
Q 1178 2100 1178 1509 
Q 1178 888 1415 553 
Q 1653 219 2094 219 
z
M 1075 2569 
Q 1288 2803 1556 2918 
Q 1825 3034 2163 3034 
Q 2859 3034 3264 2615 
Q 3669 2197 3669 1472 
Q 3669 763 3233 336 
Q 2797 -91 2069 -91 
Q 1278 -91 853 498 
Q 428 1088 428 2181 
Q 428 3406 931 4078 
Q 1434 4750 2350 4750 
Q 2597 4750 2869 4703 
Q 3141 4656 3425 4563 
L 3425 3794 
L 3072 3794 
Q 3034 4109 2831 4275 
Q 2628 4441 2284 4441 
Q 1678 4441 1381 3981 
Q 1084 3522 1075 2569 
z
" transform="scale(0.015625)"/>
       </defs>
       <use xlink:href="#DejaVuSerif-36"/>
      </g>
     </g>
    </g>
    <g id="ytick_6">
     <g id="line2d_25">
      <path d="M 75.7475 62.234 
L 834.424802 62.234 
" clip-path="url(#pf475b4909e)" style="fill: none; stroke-dasharray: 4.625,2; stroke-dashoffset: 0; stroke: #343837; stroke-opacity: 0.8; stroke-width: 1.25"/>
     </g>
     <g id="line2d_26">
      <g>
       <use xlink:href="#m749aa72996" x="75.7475" y="62.234" style="stroke: #000000; stroke-width: 0.8"/>
      </g>
     </g>
     <g id="text_14">
      <!-- 7 -->
      <g transform="translate(54.75 70.592281) scale(0.22 -0.22)">
       <defs>
        <path id="DejaVuSerif-37" d="M 3609 4347 
L 1784 0 
L 1319 0 
L 3059 4153 
L 903 4153 
L 903 3578 
L 538 3578 
L 538 4666 
L 3609 4666 
L 3609 4347 
z
" transform="scale(0.015625)"/>
       </defs>
       <use xlink:href="#DejaVuSerif-37"/>
      </g>
     </g>
    </g>
    <g id="text_15">
     <!-- Yield of fission neutrons,  $\overline{\nu}(E)$ -->
     <g transform="translate(41.342813 511.4345) rotate(-90) scale(0.26 -0.26)">
      <defs>
       <path id="DejaVuSerif-59" d="M 1209 0 
L 1209 331 
L 1806 331 
L 1806 2009 
L 366 4331 
L -72 4331 
L -72 4666 
L 1663 4666 
L 1663 4331 
L 1119 4331 
L 2284 2444 
L 3450 4331 
L 2925 4331 
L 2925 4666 
L 4281 4666 
L 4281 4331 
L 3841 4331 
L 2438 2069 
L 2438 331 
L 3034 331 
L 3034 0 
L 1209 0 
z
" transform="scale(0.015625)"/>
       <path id="DejaVuSerif-6c" d="M 1313 331 
L 1856 331 
L 1856 0 
L 184 0 
L 184 331 
L 738 331 
L 738 4531 
L 184 4531 
L 184 4863 
L 1313 4863 
L 1313 331 
z
" transform="scale(0.015625)"/>
       <path id="DejaVuSerif-73" d="M 359 184 
L 359 959 
L 691 959 
Q 703 588 923 403 
Q 1144 219 1575 219 
Q 1963 219 2166 364 
Q 2369 509 2369 788 
Q 2369 1006 2220 1140 
Q 2072 1275 1594 1428 
L 1178 1569 
Q 750 1706 558 1912 
Q 366 2119 366 2438 
Q 366 2894 700 3153 
Q 1034 3413 1625 3413 
Q 1888 3413 2178 3344 
Q 2469 3275 2778 3144 
L 2778 2419 
L 2447 2419 
Q 2434 2741 2221 2922 
Q 2009 3103 1644 3103 
Q 1281 3103 1095 2975 
Q 909 2847 909 2591 
Q 909 2381 1050 2254 
Q 1191 2128 1613 1997 
L 2069 1856 
Q 2541 1709 2748 1489 
Q 2956 1269 2956 922 
Q 2956 450 2595 179 
Q 2234 -91 1600 -91 
Q 1278 -91 972 -22 
Q 666 47 359 184 
z
" transform="scale(0.015625)"/>
       <path id="DejaVuSerif-2c" d="M 231 -622 
Q 525 -406 662 -114 
Q 800 178 800 594 
L 800 709 
L 1416 709 
Q 1391 175 1164 -208 
Q 938 -591 481 -872 
L 231 -622 
z
" transform="scale(0.015625)"/>
       <path id="DejaVuSerif-Italic-3bd" d="M 1103 363 
Q 1516 513 1997 875 
Q 2291 1094 2691 1638 
Q 2950 1975 3034 2288 
Q 3116 2575 3025 2794 
Q 2906 3097 2691 3138 
L 2725 3322 
L 3075 3322 
Q 3400 3169 3584 2828 
Q 3728 2566 3666 2247 
Q 3622 2016 3494 1825 
Q 3400 1688 3116 1366 
Q 2738 950 2297 663 
Q 1494 138 1034 0 
L 456 0 
L 1041 2988 
L 491 2988 
L 553 3322 
L 1678 3322 
L 1103 363 
z
" transform="scale(0.015625)"/>
       <path id="DejaVuSerif-Italic-45" d="M -97 0 
L -34 331 
L 559 331 
L 1338 4331 
L 744 4331 
L 809 4666 
L 4566 4666 
L 4366 3628 
L 3981 3628 
L 4106 4281 
L 1963 4281 
L 1659 2719 
L 3188 2719 
L 3300 3303 
L 3684 3303 
L 3384 1753 
L 3000 1753 
L 3113 2338 
L 1584 2338 
L 1206 384 
L 3400 384 
L 3525 1038 
L 3909 1038 
L 3709 0 
L -97 0 
z
" transform="scale(0.015625)"/>
      </defs>
      <use xlink:href="#DejaVuSerif-59" transform="translate(0 0.34375)"/>
      <use xlink:href="#DejaVuSerif-69" transform="translate(66.015625 0.34375)"/>
      <use xlink:href="#DejaVuSerif-65" transform="translate(97.998047 0.34375)"/>
      <use xlink:href="#DejaVuSerif-6c" transform="translate(157.177734 0.34375)"/>
      <use xlink:href="#DejaVuSerif-64" transform="translate(189.160156 0.34375)"/>
      <use xlink:href="#DejaVuSerif-20" transform="translate(253.173828 0.34375)"/>
      <use xlink:href="#DejaVuSerif-6f" transform="translate(284.960938 0.34375)"/>
      <use xlink:href="#DejaVuSerif-66" transform="translate(345.166016 0.34375)"/>
      <use xlink:href="#DejaVuSerif-20" transform="translate(382.177734 0.34375)"/>
      <use xlink:href="#DejaVuSerif-66" transform="translate(413.964844 0.34375)"/>
      <use xlink:href="#DejaVuSerif-69" transform="translate(450.976562 0.34375)"/>
      <use xlink:href="#DejaVuSerif-73" transform="translate(482.958984 0.34375)"/>
      <use xlink:href="#DejaVuSerif-73" transform="translate(534.277344 0.34375)"/>
      <use xlink:href="#DejaVuSerif-69" transform="translate(585.595703 0.34375)"/>
      <use xlink:href="#DejaVuSerif-6f" transform="translate(617.578125 0.34375)"/>
      <use xlink:href="#DejaVuSerif-6e" transform="translate(677.783203 0.34375)"/>
      <use xlink:href="#DejaVuSerif-20" transform="translate(742.1875 0.34375)"/>
      <use xlink:href="#DejaVuSerif-6e" transform="translate(773.974609 0.34375)"/>
      <use xlink:href="#DejaVuSerif-65" transform="translate(838.378906 0.34375)"/>
      <use xlink:href="#DejaVuSerif-75" transform="translate(897.558594 0.34375)"/>
      <use xlink:href="#DejaVuSerif-74" transform="translate(961.962891 0.34375)"/>
      <use xlink:href="#DejaVuSerif-72" transform="translate(1002.148438 0.34375)"/>
      <use xlink:href="#DejaVuSerif-6f" transform="translate(1049.951172 0.34375)"/>
      <use xlink:href="#DejaVuSerif-6e" transform="translate(1110.15625 0.34375)"/>
      <use xlink:href="#DejaVuSerif-73" transform="translate(1174.560547 0.34375)"/>
      <use xlink:href="#DejaVuSerif-2c" transform="translate(1225.878906 0.34375)"/>
      <use xlink:href="#DejaVuSerif-20" transform="translate(1257.666016 0.34375)"/>
      <use xlink:href="#DejaVuSerif-20" transform="translate(1289.453125 0.34375)"/>
      <use xlink:href="#DejaVuSerif-Italic-3bd" transform="translate(1321.240234 0.84375)"/>
      <use xlink:href="#DejaVuSerif-28" transform="translate(1382.03125 0.34375)"/>
      <use xlink:href="#DejaVuSerif-Italic-45" transform="translate(1421.044922 0.34375)"/>
      <use xlink:href="#DejaVuSerif-29" transform="translate(1494.042969 0.34375)"/>
      <path d="M 1321.240234 64.5 
L 1321.240234 70.75 
L 1382.03125 70.75 
L 1382.03125 64.5 
L 1321.240234 64.5 
z
"/>
     </g>
    </g>
   </g>
   <g id="line2d_27">
    <path d="M 78.251385 483.546662 
L 78.251386 483.546662 
L 78.251411 483.546662 
L 78.251636 483.546563 
L 78.252387 483.546163 
L 78.253389 483.545563 
L 78.253889 483.545264 
L 78.256393 483.543965 
L 78.261401 483.541267 
L 78.263905 483.539868 
L 78.271417 483.535872 
L 78.276424 483.533074 
L 78.301463 483.519586 
L 78.326502 483.505998 
L 78.351541 483.49251 
L 78.37658 483.478922 
L 78.401619 483.465334 
L 78.426657 483.451846 
L 78.451696 483.438258 
L 78.476735 483.42467 
L 78.501774 483.411181 
L 78.626968 483.343341 
L 78.752163 483.275601 
L 79.002551 483.14002 
L 79.25294 483.004339 
L 79.503328 482.868758 
L 79.753717 482.732977 
L 80.004105 482.597297 
L 80.254494 482.461516 
L 80.504882 482.325735 
L 80.755271 482.189855 
L 82.007214 481.510152 
L 83.259156 480.82955 
L 84.511099 480.148149 
L 85.763042 479.465849 
L 87.014985 478.782649 
L 88.266927 478.09855 
L 90.770813 476.727655 
L 93.274698 475.353462 
L 95.778584 473.975673 
L 98.282469 472.594487 
L 100.786355 471.209804 
L 103.29024 469.821723 
L 108.298011 467.035172 
L 113.305782 464.234633 
L 118.313553 461.420406 
L 123.321324 458.592591 
L 128.329095 455.751088 
L 133.336866 452.896097 
L 138.344637 450.027218 
L 143.352408 447.144851 
L 148.360179 444.249096 
L 153.36795 441.339853 
L 159.627664 437.684565 
L 165.887377 434.008095 
L 172.147091 430.310845 
L 178.406805 426.592812 
L 184.666519 422.878076 
L 190.926232 419.142659 
L 197.185946 415.386659 
L 203.44566 411.60768 
L 209.705373 407.746773 
L 215.965087 403.885866 
L 222.224801 399.926246 
L 228.484515 395.878603 
L 241.003942 387.981243 
L 253.523369 380.270818 
L 266.042797 372.772907 
L 278.562224 365.329748 
L 291.081652 357.875599 
L 303.601079 350.422948 
L 316.120507 342.921939 
L 328.639934 335.391857 
L 341.159361 327.788838 
L 353.678789 320.138661 
L 366.198216 312.409653 
L 372.45793 308.511778 
L 378.717644 304.587926 
L 384.977357 300.614218 
L 391.237071 296.631518 
L 397.496785 292.580678 
L 403.756499 288.521445 
L 410.016212 284.452321 
L 416.275926 280.347828 
L 422.53564 276.246732 
L 428.795353 272.161222 
L 435.055067 268.108583 
L 441.314781 264.069133 
L 453.834208 256.147594 
L 466.353636 248.374425 
L 478.873063 240.729943 
L 491.392491 233.160994 
L 503.911918 225.682666 
L 516.431345 218.300553 
L 528.950773 211.022249 
L 541.4702 203.880825 
L 553.989628 196.923139 
L 566.509055 190.167476 
L 579.028483 183.688769 
L 591.54791 177.446155 
L 604.067337 171.463113 
L 616.586765 165.653318 
L 629.106192 159.997988 
L 641.62562 154.423087 
L 654.145047 148.879858 
L 666.664474 143.330235 
L 679.183902 137.757033 
L 691.703329 132.13847 
L 704.222757 126.464256 
L 716.742184 120.741385 
L 729.261612 115.004127 
L 741.781039 109.191235 
L 754.300466 103.375646 
L 766.819894 97.564253 
L 779.339321 91.745666 
L 791.858749 85.916389 
L 804.378176 80.140165 
L 816.897604 74.34206 
L 829.417031 68.6065 
" clip-path="url(#pf475b4909e)" style="fill: none; stroke: #01a049; stroke-width: 5; stroke-linecap: square"/>
   </g>
   <g id="line2d_28">
    <path d="M 78.251385 467.77762 
L 78.251386 467.77762 
L 90.770813 460.911154 
L 103.29024 454.604196 
L 128.329095 441.990281 
L 140.848523 435.825698 
L 153.36795 428.22238 
L 178.406805 412.7231 
L 203.44566 397.22422 
L 228.484515 381.85043 
L 253.523369 366.575753 
L 278.562224 351.155804 
L 303.601079 335.697788 
L 328.639934 320.221388 
L 378.717644 289.257398 
L 428.795353 258.343864 
L 478.873063 227.399957 
L 528.950773 196.427774 
L 579.028483 165.440405 
" clip-path="url(#pf475b4909e)" style="fill: none; stroke: #610023; stroke-opacity: 0.9; stroke-width: 5; stroke-linecap: square"/>
   </g>
   <g id="patch_3">
    <path d="M 75.7475 561.795 
L 75.7475 62.234 
" style="fill: none; stroke: #000000; stroke-width: 0.8; stroke-linejoin: miter; stroke-linecap: square"/>
   </g>
   <g id="patch_4">
    <path d="M 834.424802 561.795 
L 834.424802 62.234 
" style="fill: none; stroke: #000000; stroke-width: 0.8; stroke-linejoin: miter; stroke-linecap: square"/>
   </g>
   <g id="patch_5">
    <path d="M 75.7475 561.795 
L 834.424802 561.795 
" style="fill: none; stroke: #000000; stroke-width: 0.8; stroke-linejoin: miter; stroke-linecap: square"/>
   </g>
   <g id="patch_6">
    <path d="M 75.7475 62.234 
L 834.424802 62.234 
" style="fill: none; stroke: #000000; stroke-width: 0.8; stroke-linejoin: miter; stroke-linecap: square"/>
   </g>
   <g id="text_16">
    <!-- Yield of fission neutrons -->
    <g transform="translate(271.467401 43.744975) scale(0.3 -0.3)">
     <use xlink:href="#DejaVuSerif-59"/>
     <use xlink:href="#DejaVuSerif-69" transform="translate(64.265625 0)"/>
     <use xlink:href="#DejaVuSerif-65" transform="translate(96.248047 0)"/>
     <use xlink:href="#DejaVuSerif-6c" transform="translate(155.427734 0)"/>
     <use xlink:href="#DejaVuSerif-64" transform="translate(187.410156 0)"/>
     <use xlink:href="#DejaVuSerif-20" transform="translate(251.423828 0)"/>
     <use xlink:href="#DejaVuSerif-6f" transform="translate(283.210938 0)"/>
     <use xlink:href="#DejaVuSerif-66" transform="translate(343.416016 0)"/>
     <use xlink:href="#DejaVuSerif-20" transform="translate(380.427734 0)"/>
     <use xlink:href="#DejaVuSerif-66" transform="translate(412.214844 0)"/>
     <use xlink:href="#DejaVuSerif-69" transform="translate(449.226562 0)"/>
     <use xlink:href="#DejaVuSerif-73" transform="translate(481.208984 0)"/>
     <use xlink:href="#DejaVuSerif-73" transform="translate(532.527344 0)"/>
     <use xlink:href="#DejaVuSerif-69" transform="translate(583.845703 0)"/>
     <use xlink:href="#DejaVuSerif-6f" transform="translate(615.828125 0)"/>
     <use xlink:href="#DejaVuSerif-6e" transform="translate(676.033203 0)"/>
     <use xlink:href="#DejaVuSerif-20" transform="translate(740.4375 0)"/>
     <use xlink:href="#DejaVuSerif-6e" transform="translate(772.224609 0)"/>
     <use xlink:href="#DejaVuSerif-65" transform="translate(836.628906 0)"/>
     <use xlink:href="#DejaVuSerif-75" transform="translate(895.808594 0)"/>
     <use xlink:href="#DejaVuSerif-74" transform="translate(960.212891 0)"/>
     <use xlink:href="#DejaVuSerif-72" transform="translate(1000.398438 0)"/>
     <use xlink:href="#DejaVuSerif-6f" transform="translate(1048.201172 0)"/>
     <use xlink:href="#DejaVuSerif-6e" transform="translate(1108.40625 0)"/>
     <use xlink:href="#DejaVuSerif-73" transform="translate(1172.810547 0)"/>
    </g>
   </g>
   <g id="legend_1">
    <g id="patch_7">
     <path d="M 89.7475 136.9465 
L 207.5475 136.9465 
Q 211.5475 136.9465 211.5475 132.9465 
L 211.5475 76.234 
Q 211.5475 72.234 207.5475 72.234 
L 89.7475 72.234 
Q 85.7475 72.234 85.7475 76.234 
L 85.7475 132.9465 
Q 85.7475 136.9465 89.7475 136.9465 
z
" style="fill: #ffffff; opacity: 0.95; stroke: #cccccc; stroke-linejoin: miter"/>
    </g>
    <g id="line2d_29">
     <path d="M 93.7475 88.430875 
L 113.7475 88.430875 
L 133.7475 88.430875 
" style="fill: none; stroke: #01a049; stroke-width: 5; stroke-linecap: square"/>
    </g>
    <g id="text_17">
     <!-- $\mathrm{^{240}Pu}$ -->
     <g transform="translate(149.7475 95.430875) scale(0.2 -0.2)">
      <defs>
       <path id="DejaVuSerif-50" d="M 1581 2375 
L 2406 2375 
Q 2872 2375 3115 2626 
Q 3359 2878 3359 3353 
Q 3359 3831 3115 4081 
Q 2872 4331 2406 4331 
L 1581 4331 
L 1581 2375 
z
M 353 0 
L 353 331 
L 947 331 
L 947 4331 
L 353 4331 
L 353 4666 
L 2559 4666 
Q 3259 4666 3668 4311 
Q 4078 3956 4078 3353 
Q 4078 2753 3668 2397 
Q 3259 2041 2559 2041 
L 1581 2041 
L 1581 331 
L 2303 331 
L 2303 0 
L 353 0 
z
" transform="scale(0.015625)"/>
      </defs>
      <use xlink:href="#DejaVuSerif-32" transform="translate(0.908359 37.046875) scale(0.7)"/>
      <use xlink:href="#DejaVuSerif-34" transform="translate(45.444492 37.046875) scale(0.7)"/>
      <use xlink:href="#DejaVuSerif-30" transform="translate(89.980625 37.046875) scale(0.7)"/>
      <use xlink:href="#DejaVuSerif-50" transform="translate(137.11207 0.7125)"/>
      <use xlink:href="#DejaVuSerif-75" transform="translate(204.397227 0.7125)"/>
     </g>
    </g>
    <g id="line2d_30">
     <path d="M 93.7475 117.787125 
L 113.7475 117.787125 
L 133.7475 117.787125 
" style="fill: none; stroke: #610023; stroke-opacity: 0.9; stroke-width: 5; stroke-linecap: square"/>
    </g>
    <g id="text_18">
     <!-- $\mathrm{^{241}Pu}$ -->
     <g transform="translate(149.7475 124.787125) scale(0.2 -0.2)">
      <use xlink:href="#DejaVuSerif-32" transform="translate(0.908359 37.046875) scale(0.7)"/>
      <use xlink:href="#DejaVuSerif-34" transform="translate(45.444492 37.046875) scale(0.7)"/>
      <use xlink:href="#DejaVuSerif-31" transform="translate(89.980625 37.046875) scale(0.7)"/>
      <use xlink:href="#DejaVuSerif-50" transform="translate(137.11207 0.7125)"/>
      <use xlink:href="#DejaVuSerif-75" transform="translate(204.397227 0.7125)"/>
     </g>
    </g>
   </g>
  </g>
 </g>
 <defs>
  <clipPath id="pf475b4909e">
   <rect x="75.7475" y="62.234" width="758.677302" height="499.561"/>
  </clipPath>
 </defs>
</svg>
