<?xml version="1.0" encoding="utf-8" standalone="no"?>
<!DOCTYPE svg PUBLIC "-//W3C//DTD SVG 1.1//EN"
  "http://www.w3.org/Graphics/SVG/1.1/DTD/svg11.dtd">
<svg xmlns:xlink="http://www.w3.org/1999/xlink" width="864pt" height="648pt" viewBox="0 0 864 648" xmlns="http://www.w3.org/2000/svg" version="1.1">
 <metadata>
  <rdf:RDF xmlns:dc="http://purl.org/dc/elements/1.1/" xmlns:cc="http://creativecommons.org/ns#" xmlns:rdf="http://www.w3.org/1999/02/22-rdf-syntax-ns#">
   <cc:Work>
    <dc:type rdf:resource="http://purl.org/dc/dcmitype/StillImage"/>
    <dc:date>2025-10-21T14:54:11.054559</dc:date>
    <dc:format>image/svg+xml</dc:format>
    <dc:creator>
     <cc:Agent>
      <dc:title>Matplotlib v3.10.7, https://matplotlib.org/</dc:title>
     </cc:Agent>
    </dc:creator>
   </cc:Work>
  </rdf:RDF>
 </metadata>
 <defs>
  <style type="text/css">*{stroke-linejoin: round; stroke-linecap: butt}</style>
 </defs>
 <g id="figure_1">
  <g id="patch_1">
   <path d="M 0 648 
L 864 648 
L 864 0 
L 0 0 
z
" style="fill: #ffffff; stroke: #000000; stroke-width: 3; stroke-linejoin: miter"/>
  </g>
  <g id="axes_1">
   <g id="patch_2">
    <path d="M 73.4975 566.88 
L 844 566.88 
L 844 57.914 
L 73.4975 57.914 
L 73.4975 566.88 
z
" style="fill: none"/>
   </g>
   <g id="matplotlib.axis_1">
    <g id="xtick_1">
     <g id="line2d_1">
      <path d="M 195.77947 566.88 
L 195.77947 57.914 
" clip-path="url(#p626a4ee8e1)" style="fill: none; stroke-dasharray: 3.7,1.6; stroke-dashoffset: 0; stroke: #343837; stroke-opacity: 0.8"/>
     </g>
     <g id="line2d_2">
      <defs>
       <path id="m5d304e586a" d="M 0 0 
L 0 3.5 
" style="stroke: #000000; stroke-width: 0.8"/>
      </defs>
      <g>
       <use xlink:href="#m5d304e586a" x="195.77947" y="566.88" style="stroke: #000000; stroke-width: 0.8"/>
      </g>
     </g>
     <g id="text_1">
      <!-- $\mathdefault{10^{-9}}$ -->
      <g transform="translate(175.42947 588.338125) scale(0.22 -0.22)">
       <defs>
        <path id="Aptos-31" d="M 1681 0 
L 1681 3425 
Q 1597 3309 1442 3201 
Q 1288 3094 1075 3009 
Q 863 2925 600 2888 
L 600 3381 
Q 859 3425 1082 3540 
Q 1306 3656 1476 3806 
Q 1647 3956 1744 4094 
L 2228 4094 
L 2228 0 
L 1681 0 
z
" transform="scale(0.015625)"/>
        <path id="Aptos-30" d="M 1709 -56 
Q 1316 -56 1045 105 
Q 775 266 611 552 
Q 447 838 373 1216 
Q 300 1594 300 2031 
Q 300 2475 373 2856 
Q 447 3238 611 3525 
Q 775 3813 1045 3973 
Q 1316 4134 1709 4134 
Q 2103 4134 2373 3975 
Q 2644 3816 2806 3527 
Q 2969 3238 3042 2858 
Q 3116 2478 3116 2038 
Q 3116 1597 3042 1217 
Q 2969 838 2806 552 
Q 2644 266 2373 105 
Q 2103 -56 1709 -56 
z
M 1709 400 
Q 1969 400 2134 540 
Q 2300 681 2392 917 
Q 2484 1153 2520 1445 
Q 2556 1738 2556 2038 
Q 2556 2341 2520 2633 
Q 2484 2925 2392 3161 
Q 2300 3397 2134 3537 
Q 1969 3678 1709 3678 
Q 1450 3678 1283 3537 
Q 1116 3397 1022 3161 
Q 928 2925 892 2633 
Q 856 2341 856 2038 
Q 856 1738 892 1445 
Q 928 1153 1022 917 
Q 1116 681 1283 540 
Q 1450 400 1709 400 
z
" transform="scale(0.015625)"/>
        <path id="Aptos-2212" d="M 353 1866 
L 353 2319 
L 3059 2319 
L 3059 1866 
L 353 1866 
z
" transform="scale(0.015625)"/>
        <path id="Aptos-39" d="M 1594 -56 
Q 1244 -56 970 64 
Q 697 184 523 415 
Q 350 647 303 978 
L 831 978 
Q 881 713 1075 552 
Q 1269 391 1594 391 
Q 2066 391 2337 778 
Q 2609 1166 2609 2019 
L 2609 2197 
Q 2609 2753 2481 3079 
Q 2353 3406 2142 3547 
Q 1931 3688 1681 3688 
Q 1250 3688 1042 3433 
Q 834 3178 834 2800 
Q 834 2422 1034 2203 
Q 1234 1984 1594 1984 
Q 1878 1984 2087 2071 
Q 2297 2159 2453 2300 
Q 2609 2441 2725 2594 
L 2778 2209 
Q 2653 2038 2476 1884 
Q 2300 1731 2064 1634 
Q 1828 1538 1528 1538 
Q 1166 1538 886 1683 
Q 606 1828 448 2108 
Q 291 2388 291 2784 
Q 291 3175 458 3479 
Q 625 3784 936 3959 
Q 1247 4134 1675 4134 
Q 2100 4134 2433 3926 
Q 2766 3719 2958 3262 
Q 3150 2806 3150 2066 
Q 3150 1338 2956 869 
Q 2763 400 2413 172 
Q 2063 -56 1594 -56 
z
" transform="scale(0.015625)"/>
       </defs>
       <use xlink:href="#Aptos-31" transform="translate(0 0.490625)"/>
       <use xlink:href="#Aptos-30" transform="translate(53.417969 0.490625)"/>
       <use xlink:href="#Aptos-2212" transform="translate(107.668281 33.784375) scale(0.7)"/>
       <use xlink:href="#Aptos-39" transform="translate(145.060859 33.784375) scale(0.7)"/>
      </g>
     </g>
    </g>
    <g id="xtick_2">
     <g id="line2d_3">
      <path d="M 318.061466 566.88 
L 318.061466 57.914 
" clip-path="url(#p626a4ee8e1)" style="fill: none; stroke-dasharray: 3.7,1.6; stroke-dashoffset: 0; stroke: #343837; stroke-opacity: 0.8"/>
     </g>
     <g id="line2d_4">
      <g>
       <use xlink:href="#m5d304e586a" x="318.061466" y="566.88" style="stroke: #000000; stroke-width: 0.8"/>
      </g>
     </g>
     <g id="text_2">
      <!-- $\mathdefault{10^{-7}}$ -->
      <g transform="translate(297.711466 588.338125) scale(0.22 -0.22)">
       <defs>
        <path id="Aptos-37" d="M 806 0 
L 2584 3600 
L 297 3600 
L 297 4078 
L 3116 4078 
L 3116 3622 
L 1375 0 
L 806 0 
z
" transform="scale(0.015625)"/>
       </defs>
       <use xlink:href="#Aptos-31" transform="translate(0 0.103125)"/>
       <use xlink:href="#Aptos-30" transform="translate(53.417969 0.103125)"/>
       <use xlink:href="#Aptos-2212" transform="translate(107.668281 33.396875) scale(0.7)"/>
       <use xlink:href="#Aptos-37" transform="translate(145.060859 33.396875) scale(0.7)"/>
      </g>
     </g>
    </g>
    <g id="xtick_3">
     <g id="line2d_5">
      <path d="M 440.343462 566.88 
L 440.343462 57.914 
" clip-path="url(#p626a4ee8e1)" style="fill: none; stroke-dasharray: 3.7,1.6; stroke-dashoffset: 0; stroke: #343837; stroke-opacity: 0.8"/>
     </g>
     <g id="line2d_6">
      <g>
       <use xlink:href="#m5d304e586a" x="440.343462" y="566.88" style="stroke: #000000; stroke-width: 0.8"/>
      </g>
     </g>
     <g id="text_3">
      <!-- $\mathdefault{10^{-5}}$ -->
      <g transform="translate(419.993462 588.338125) scale(0.22 -0.22)">
       <defs>
        <path id="Aptos-35" d="M 1709 -56 
Q 1313 -56 992 83 
Q 672 222 484 483 
Q 297 744 297 1113 
L 831 1113 
Q 831 778 1076 584 
Q 1322 391 1709 391 
Q 2119 391 2347 625 
Q 2575 859 2575 1319 
Q 2575 1772 2345 1989 
Q 2116 2206 1725 2206 
Q 1434 2206 1245 2123 
Q 1056 2041 931 1894 
L 459 1894 
L 638 4078 
L 2838 4078 
L 2838 3613 
L 1056 3613 
L 947 2322 
Q 1063 2453 1267 2550 
Q 1472 2647 1797 2647 
Q 2159 2647 2459 2506 
Q 2759 2366 2939 2072 
Q 3119 1778 3119 1319 
Q 3119 872 2937 565 
Q 2756 259 2439 101 
Q 2122 -56 1709 -56 
z
" transform="scale(0.015625)"/>
       </defs>
       <use xlink:href="#Aptos-31" transform="translate(0 0.103125)"/>
       <use xlink:href="#Aptos-30" transform="translate(53.417969 0.103125)"/>
       <use xlink:href="#Aptos-2212" transform="translate(107.668281 33.396875) scale(0.7)"/>
       <use xlink:href="#Aptos-35" transform="translate(145.060859 33.396875) scale(0.7)"/>
      </g>
     </g>
    </g>
    <g id="xtick_4">
     <g id="line2d_7">
      <path d="M 562.625459 566.88 
L 562.625459 57.914 
" clip-path="url(#p626a4ee8e1)" style="fill: none; stroke-dasharray: 3.7,1.6; stroke-dashoffset: 0; stroke: #343837; stroke-opacity: 0.8"/>
     </g>
     <g id="line2d_8">
      <g>
       <use xlink:href="#m5d304e586a" x="562.625459" y="566.88" style="stroke: #000000; stroke-width: 0.8"/>
      </g>
     </g>
     <g id="text_4">
      <!-- $\mathdefault{10^{-3}}$ -->
      <g transform="translate(542.275459 588.338125) scale(0.22 -0.22)">
       <defs>
        <path id="Aptos-33" d="M 1738 -56 
Q 1088 -56 697 275 
Q 306 606 306 1225 
L 828 1225 
Q 828 844 1067 617 
Q 1306 391 1731 391 
Q 2125 391 2351 581 
Q 2578 772 2578 1172 
Q 2578 1556 2328 1737 
Q 2078 1919 1644 1919 
L 1403 1919 
L 1403 2363 
L 1656 2363 
Q 2047 2363 2253 2556 
Q 2459 2750 2459 3072 
Q 2459 3378 2256 3529 
Q 2053 3681 1722 3681 
Q 1347 3681 1140 3481 
Q 934 3281 934 2956 
L 413 2956 
Q 413 3319 578 3583 
Q 744 3847 1036 3990 
Q 1328 4134 1716 4134 
Q 2066 4134 2353 4017 
Q 2641 3900 2811 3670 
Q 2981 3441 2981 3097 
Q 2981 2731 2778 2495 
Q 2575 2259 2244 2166 
Q 2622 2097 2870 1840 
Q 3119 1584 3119 1150 
Q 3119 763 2945 494 
Q 2772 225 2461 84 
Q 2150 -56 1738 -56 
z
" transform="scale(0.015625)"/>
       </defs>
       <use xlink:href="#Aptos-31" transform="translate(0 0.490625)"/>
       <use xlink:href="#Aptos-30" transform="translate(53.417969 0.490625)"/>
       <use xlink:href="#Aptos-2212" transform="translate(107.668281 33.784375) scale(0.7)"/>
       <use xlink:href="#Aptos-33" transform="translate(145.060859 33.784375) scale(0.7)"/>
      </g>
     </g>
    </g>
    <g id="xtick_5">
     <g id="line2d_9">
      <path d="M 684.907455 566.88 
L 684.907455 57.914 
" clip-path="url(#p626a4ee8e1)" style="fill: none; stroke-dasharray: 3.7,1.6; stroke-dashoffset: 0; stroke: #343837; stroke-opacity: 0.8"/>
     </g>
     <g id="line2d_10">
      <g>
       <use xlink:href="#m5d304e586a" x="684.907455" y="566.88" style="stroke: #000000; stroke-width: 0.8"/>
      </g>
     </g>
     <g id="text_5">
      <!-- $\mathdefault{10^{-1}}$ -->
      <g transform="translate(664.557455 588.338125) scale(0.22 -0.22)">
       <use xlink:href="#Aptos-31" transform="translate(0 0.928125)"/>
       <use xlink:href="#Aptos-30" transform="translate(53.417969 0.928125)"/>
       <use xlink:href="#Aptos-2212" transform="translate(107.668281 34.221875) scale(0.7)"/>
       <use xlink:href="#Aptos-31" transform="translate(145.060859 34.221875) scale(0.7)"/>
      </g>
     </g>
    </g>
    <g id="xtick_6">
     <g id="line2d_11">
      <path d="M 807.189451 566.88 
L 807.189451 57.914 
" clip-path="url(#p626a4ee8e1)" style="fill: none; stroke-dasharray: 3.7,1.6; stroke-dashoffset: 0; stroke: #343837; stroke-opacity: 0.8"/>
     </g>
     <g id="line2d_12">
      <g>
       <use xlink:href="#m5d304e586a" x="807.189451" y="566.88" style="stroke: #000000; stroke-width: 0.8"/>
      </g>
     </g>
     <g id="text_6">
      <!-- $\mathdefault{10^{1}}$ -->
      <g transform="translate(790.909451 588.338125) scale(0.22 -0.22)">
       <use xlink:href="#Aptos-31" transform="translate(0 0.928125)"/>
       <use xlink:href="#Aptos-30" transform="translate(53.417969 0.928125)"/>
       <use xlink:href="#Aptos-31" transform="translate(107.668281 34.221875) scale(0.7)"/>
      </g>
     </g>
    </g>
    <g id="text_7">
     <!-- Energy of incident neutron (MeV) -->
     <g transform="translate(277.110312 621.373125) scale(0.26 -0.26)">
      <defs>
       <path id="Aptos-45" d="M 550 0 
L 550 4206 
L 3234 4206 
L 3234 3738 
L 1113 3738 
L 1113 2397 
L 3066 2397 
L 3066 1934 
L 1113 1934 
L 1113 469 
L 3234 469 
L 3234 0 
L 550 0 
z
" transform="scale(0.015625)"/>
       <path id="Aptos-6e" d="M 503 0 
L 503 3044 
L 1003 3044 
L 1022 2575 
Q 1163 2759 1425 2923 
Q 1688 3088 2097 3088 
Q 2597 3088 2825 2792 
Q 3053 2497 3053 1963 
L 3053 0 
L 2531 0 
L 2531 1888 
Q 2531 2109 2484 2281 
Q 2438 2453 2317 2551 
Q 2197 2650 1969 2650 
Q 1628 2650 1397 2495 
Q 1166 2341 1025 2156 
L 1025 0 
L 503 0 
z
" transform="scale(0.015625)"/>
       <path id="Aptos-65" d="M 1769 -56 
Q 1272 -56 955 151 
Q 638 359 484 717 
Q 331 1075 331 1522 
Q 331 1988 479 2342 
Q 628 2697 933 2897 
Q 1238 3097 1706 3097 
Q 2328 3097 2681 2722 
Q 3034 2347 3034 1644 
Q 3034 1597 3031 1533 
Q 3028 1469 3022 1441 
L 853 1441 
Q 856 1144 948 895 
Q 1041 647 1241 497 
Q 1441 347 1769 347 
Q 2119 347 2316 511 
Q 2513 675 2522 984 
L 3038 984 
Q 3028 663 2872 430 
Q 2716 197 2434 70 
Q 2153 -56 1769 -56 
z
M 856 1822 
L 2519 1822 
Q 2509 2247 2296 2472 
Q 2084 2697 1706 2697 
Q 1325 2697 1108 2473 
Q 891 2250 856 1822 
z
" transform="scale(0.015625)"/>
       <path id="Aptos-72" d="M 503 0 
L 503 3044 
L 994 3044 
L 1013 2525 
Q 1141 2763 1369 2922 
Q 1597 3081 1963 3081 
L 2025 3081 
L 2025 2603 
L 1953 2603 
Q 1725 2603 1553 2543 
Q 1381 2484 1253 2379 
Q 1125 2275 1025 2138 
L 1025 0 
L 503 0 
z
" transform="scale(0.015625)"/>
       <path id="Aptos-67" d="M 1563 -1178 
Q 1069 -1178 773 -1065 
Q 478 -953 347 -765 
Q 216 -578 216 -359 
Q 216 -94 442 112 
Q 669 319 1141 403 
L 1241 575 
L 1625 575 
Q 2375 575 2697 376 
Q 3019 178 3019 -238 
Q 3019 -650 2651 -914 
Q 2284 -1178 1563 -1178 
z
M 1550 -800 
Q 2081 -800 2298 -650 
Q 2516 -500 2516 -278 
Q 2516 -147 2442 -51 
Q 2369 44 2170 97 
Q 1972 150 1606 150 
L 1144 150 
Q 931 97 815 -31 
Q 700 -159 700 -328 
Q 700 -516 897 -658 
Q 1094 -800 1550 -800 
z
M 1134 178 
Q 838 209 667 301 
Q 497 394 425 508 
Q 353 622 353 728 
Q 353 881 476 1017 
Q 600 1153 881 1241 
L 1141 1078 
Q 975 1031 878 957 
Q 781 884 781 794 
Q 781 731 839 682 
Q 897 634 1036 604 
Q 1175 575 1422 575 
L 1134 178 
z
M 1525 984 
Q 1150 984 889 1129 
Q 628 1275 493 1511 
Q 359 1747 359 2022 
Q 359 2313 495 2550 
Q 631 2788 895 2928 
Q 1159 3069 1541 3069 
Q 1931 3069 2190 2928 
Q 2450 2788 2578 2550 
Q 2706 2313 2706 2022 
Q 2706 1741 2576 1505 
Q 2447 1269 2184 1126 
Q 1922 984 1525 984 
z
M 1522 1341 
Q 1822 1341 2017 1512 
Q 2213 1684 2213 2022 
Q 2213 2375 2028 2545 
Q 1844 2716 1541 2716 
Q 1244 2716 1048 2541 
Q 853 2366 853 2025 
Q 853 1681 1054 1511 
Q 1256 1341 1522 1341 
z
M 2319 2734 
L 2106 2931 
Q 2241 3225 2458 3331 
Q 2675 3438 3019 3447 
L 3019 3006 
Q 2800 3006 2617 2961 
Q 2434 2916 2319 2734 
z
" transform="scale(0.015625)"/>
       <path id="Aptos-79" d="M 328 -1119 
L 328 -688 
L 584 -688 
Q 763 -688 886 -592 
Q 1009 -497 1097 -275 
L 1216 0 
L 0 3044 
L 553 3044 
L 1494 553 
L 2363 3044 
L 2894 3044 
L 1750 0 
L 1606 -369 
Q 1500 -641 1379 -806 
Q 1259 -972 1084 -1045 
Q 909 -1119 638 -1119 
L 328 -1119 
z
" transform="scale(0.015625)"/>
       <path id="Aptos-20" transform="scale(0.015625)"/>
       <path id="Aptos-6f" d="M 1750 -50 
Q 1303 -50 984 139 
Q 666 328 498 679 
Q 331 1031 331 1516 
Q 331 2013 498 2367 
Q 666 2722 984 2912 
Q 1303 3103 1750 3103 
Q 2206 3103 2529 2912 
Q 2853 2722 3026 2367 
Q 3200 2013 3200 1516 
Q 3200 1031 3026 679 
Q 2853 328 2529 139 
Q 2206 -50 1750 -50 
z
M 1750 366 
Q 2088 366 2288 514 
Q 2488 663 2575 923 
Q 2663 1184 2663 1516 
Q 2663 1853 2575 2118 
Q 2488 2384 2288 2536 
Q 2088 2688 1750 2688 
Q 1422 2688 1230 2536 
Q 1038 2384 953 2118 
Q 869 1853 869 1516 
Q 869 1184 953 923 
Q 1038 663 1230 514 
Q 1422 366 1750 366 
z
" transform="scale(0.015625)"/>
       <path id="Aptos-66" d="M 609 0 
L 609 2622 
L 100 2622 
L 100 3044 
L 609 3044 
L 609 3219 
Q 609 3450 648 3634 
Q 688 3819 786 3945 
Q 884 4072 1061 4139 
Q 1238 4206 1519 4206 
L 1834 4206 
L 1834 3797 
L 1553 3797 
Q 1275 3797 1201 3647 
Q 1128 3497 1128 3213 
L 1128 3044 
L 1838 3044 
L 1838 2622 
L 1128 2622 
L 1128 0 
L 609 0 
z
" transform="scale(0.015625)"/>
       <path id="Aptos-69" d="M 503 0 
L 503 3044 
L 1025 3044 
L 1025 0 
L 503 0 
z
M 763 3616 
Q 616 3616 527 3702 
Q 438 3788 438 3919 
Q 438 4050 527 4136 
Q 616 4222 763 4222 
Q 909 4222 1000 4136 
Q 1091 4050 1091 3919 
Q 1091 3788 1000 3702 
Q 909 3616 763 3616 
z
" transform="scale(0.015625)"/>
       <path id="Aptos-63" d="M 1741 -53 
Q 1328 -53 1009 120 
Q 691 294 511 642 
Q 331 991 331 1516 
Q 331 2041 507 2392 
Q 684 2744 1001 2920 
Q 1319 3097 1741 3097 
Q 2094 3097 2376 2981 
Q 2659 2866 2828 2633 
Q 2997 2400 3006 2044 
L 2491 2044 
Q 2472 2338 2278 2506 
Q 2084 2675 1750 2675 
Q 1306 2675 1087 2370 
Q 869 2066 869 1516 
Q 869 1150 966 895 
Q 1063 641 1259 505 
Q 1456 369 1750 369 
Q 2084 369 2293 542 
Q 2503 716 2513 1050 
L 3028 1050 
Q 3019 681 2848 436 
Q 2678 191 2389 69 
Q 2100 -53 1741 -53 
z
" transform="scale(0.015625)"/>
       <path id="Aptos-64" d="M 1544 -56 
Q 1172 -56 900 122 
Q 628 300 479 654 
Q 331 1009 331 1531 
Q 331 2050 489 2397 
Q 647 2744 934 2920 
Q 1222 3097 1613 3097 
Q 1938 3097 2178 2955 
Q 2419 2813 2566 2569 
L 2566 4206 
L 3088 4206 
L 3088 0 
L 2594 0 
L 2566 444 
Q 2403 222 2147 83 
Q 1891 -56 1544 -56 
z
M 1650 372 
Q 1984 372 2206 530 
Q 2428 688 2566 909 
L 2566 2081 
Q 2438 2338 2230 2505 
Q 2022 2672 1706 2672 
Q 1291 2672 1080 2375 
Q 869 2078 869 1531 
Q 869 966 1067 669 
Q 1266 372 1650 372 
z
" transform="scale(0.015625)"/>
       <path id="Aptos-74" d="M 1519 0 
Q 1150 0 953 117 
Q 756 234 682 454 
Q 609 675 609 984 
L 609 2622 
L 100 2622 
L 100 3044 
L 609 3044 
L 609 3741 
L 1128 3741 
L 1128 3044 
L 1878 3044 
L 1878 2622 
L 1128 2622 
L 1128 1009 
Q 1128 725 1201 573 
Q 1275 422 1553 422 
L 1884 422 
L 1884 0 
L 1519 0 
z
" transform="scale(0.015625)"/>
       <path id="Aptos-75" d="M 1469 -47 
Q 941 -47 706 247 
Q 472 541 472 1056 
L 472 3044 
L 997 3044 
L 997 1128 
Q 997 922 1044 759 
Q 1091 597 1222 506 
Q 1353 416 1600 416 
Q 1944 416 2175 558 
Q 2406 700 2547 888 
L 2547 3044 
L 3072 3044 
L 3072 0 
L 2569 0 
L 2553 469 
Q 2406 288 2139 120 
Q 1872 -47 1469 -47 
z
" transform="scale(0.015625)"/>
       <path id="Aptos-28" d="M 1216 -1116 
Q 963 -678 783 -267 
Q 603 144 508 581 
Q 413 1019 413 1528 
Q 413 2028 506 2486 
Q 600 2944 779 3378 
Q 959 3813 1216 4231 
L 1644 4231 
Q 1275 3600 1097 2886 
Q 919 2172 919 1428 
Q 919 766 1120 103 
Q 1322 -559 1644 -1116 
L 1216 -1116 
z
" transform="scale(0.015625)"/>
       <path id="Aptos-4d" d="M 550 0 
L 550 4206 
L 1166 4206 
L 2663 1728 
L 2434 1728 
L 3903 4206 
L 4503 4206 
L 4503 0 
L 3950 0 
L 3950 3738 
L 4144 3738 
L 2716 1322 
L 2347 1322 
L 897 3738 
L 1091 3738 
L 1091 0 
L 550 0 
z
" transform="scale(0.015625)"/>
       <path id="Aptos-56" d="M 1538 0 
L 25 4206 
L 622 4206 
L 1872 594 
L 3128 4206 
L 3722 4206 
L 2194 0 
L 1538 0 
z
" transform="scale(0.015625)"/>
       <path id="Aptos-29" d="M 231 -1116 
Q 603 -481 781 233 
Q 959 947 959 1694 
Q 959 2356 756 3015 
Q 553 3675 231 4231 
L 656 4231 
Q 913 3800 1094 3389 
Q 1275 2978 1370 2540 
Q 1466 2103 1466 1594 
Q 1466 1094 1370 634 
Q 1275 175 1095 -259 
Q 916 -694 656 -1116 
L 231 -1116 
z
" transform="scale(0.015625)"/>
      </defs>
      <use xlink:href="#Aptos-45"/>
      <use xlink:href="#Aptos-6e" transform="translate(55.615234 0)"/>
      <use xlink:href="#Aptos-65" transform="translate(110.742188 0)"/>
      <use xlink:href="#Aptos-72" transform="translate(163.427734 0)"/>
      <use xlink:href="#Aptos-67" transform="translate(196.875 0)"/>
      <use xlink:href="#Aptos-79" transform="translate(245.3125 0)"/>
      <use xlink:href="#Aptos-20" transform="translate(290.527344 0)"/>
      <use xlink:href="#Aptos-6f" transform="translate(310.839844 0)"/>
      <use xlink:href="#Aptos-66" transform="translate(366.015625 0)"/>
      <use xlink:href="#Aptos-20" transform="translate(396.142578 0)"/>
      <use xlink:href="#Aptos-69" transform="translate(416.455078 0)"/>
      <use xlink:href="#Aptos-6e" transform="translate(440.332031 0)"/>
      <use xlink:href="#Aptos-63" transform="translate(495.458984 0)"/>
      <use xlink:href="#Aptos-69" transform="translate(547.949219 0)"/>
      <use xlink:href="#Aptos-64" transform="translate(571.826172 0)"/>
      <use xlink:href="#Aptos-65" transform="translate(627.880859 0)"/>
      <use xlink:href="#Aptos-6e" transform="translate(680.566406 0)"/>
      <use xlink:href="#Aptos-74" transform="translate(735.693359 0)"/>
      <use xlink:href="#Aptos-20" transform="translate(768.017578 0)"/>
      <use xlink:href="#Aptos-6e" transform="translate(788.330078 0)"/>
      <use xlink:href="#Aptos-65" transform="translate(843.457031 0)"/>
      <use xlink:href="#Aptos-75" transform="translate(896.142578 0)"/>
      <use xlink:href="#Aptos-74" transform="translate(952.001953 0)"/>
      <use xlink:href="#Aptos-72" transform="translate(984.326172 0)"/>
      <use xlink:href="#Aptos-6f" transform="translate(1017.773438 0)"/>
      <use xlink:href="#Aptos-6e" transform="translate(1072.949219 0)"/>
      <use xlink:href="#Aptos-20" transform="translate(1128.076172 0)"/>
      <use xlink:href="#Aptos-28" transform="translate(1148.388672 0)"/>
      <use xlink:href="#Aptos-4d" transform="translate(1177.685547 0)"/>
      <use xlink:href="#Aptos-65" transform="translate(1256.689453 0)"/>
      <use xlink:href="#Aptos-56" transform="translate(1309.375 0)"/>
      <use xlink:href="#Aptos-29" transform="translate(1367.919922 0)"/>
     </g>
    </g>
   </g>
   <g id="matplotlib.axis_2">
    <g id="ytick_1">
     <g id="line2d_13">
      <path d="M 73.4975 566.88 
L 844 566.88 
" clip-path="url(#p626a4ee8e1)" style="fill: none; stroke-dasharray: 3.7,1.6; stroke-dashoffset: 0; stroke: #343837; stroke-opacity: 0.8"/>
     </g>
     <g id="line2d_14">
      <defs>
       <path id="m0da5a818f7" d="M 0 0 
L -3.5 0 
" style="stroke: #000000; stroke-width: 0.8"/>
      </defs>
      <g>
       <use xlink:href="#m0da5a818f7" x="73.4975" y="566.88" style="stroke: #000000; stroke-width: 0.8"/>
      </g>
     </g>
     <g id="text_8">
      <!-- 2 -->
      <g transform="translate(54.744688 574.109063) scale(0.22 -0.22)">
       <defs>
        <path id="Aptos-32" d="M 291 0 
L 291 413 
L 1738 1734 
Q 2113 2075 2281 2353 
Q 2450 2631 2450 2938 
Q 2450 3256 2279 3461 
Q 2109 3666 1722 3666 
Q 1284 3666 1095 3439 
Q 906 3213 906 2869 
L 384 2869 
Q 384 3250 532 3534 
Q 681 3819 979 3975 
Q 1278 4131 1722 4131 
Q 2128 4131 2412 3986 
Q 2697 3841 2845 3578 
Q 2994 3316 2994 2959 
Q 2994 2641 2870 2378 
Q 2747 2116 2537 1884 
Q 2328 1653 2075 1425 
L 1003 463 
L 3113 463 
L 3113 0 
L 291 0 
z
" transform="scale(0.015625)"/>
       </defs>
       <use xlink:href="#Aptos-32"/>
      </g>
     </g>
    </g>
    <g id="ytick_2">
     <g id="line2d_15">
      <path d="M 73.4975 465.0868 
L 844 465.0868 
" clip-path="url(#p626a4ee8e1)" style="fill: none; stroke-dasharray: 3.7,1.6; stroke-dashoffset: 0; stroke: #343837; stroke-opacity: 0.8"/>
     </g>
     <g id="line2d_16">
      <g>
       <use xlink:href="#m0da5a818f7" x="73.4975" y="465.0868" style="stroke: #000000; stroke-width: 0.8"/>
      </g>
     </g>
     <g id="text_9">
      <!-- 3 -->
      <g transform="translate(54.744688 472.315862) scale(0.22 -0.22)">
       <use xlink:href="#Aptos-33"/>
      </g>
     </g>
    </g>
    <g id="ytick_3">
     <g id="line2d_17">
      <path d="M 73.4975 363.2936 
L 844 363.2936 
" clip-path="url(#p626a4ee8e1)" style="fill: none; stroke-dasharray: 3.7,1.6; stroke-dashoffset: 0; stroke: #343837; stroke-opacity: 0.8"/>
     </g>
     <g id="line2d_18">
      <g>
       <use xlink:href="#m0da5a818f7" x="73.4975" y="363.2936" style="stroke: #000000; stroke-width: 0.8"/>
      </g>
     </g>
     <g id="text_10">
      <!-- 4 -->
      <g transform="translate(54.744688 370.522662) scale(0.22 -0.22)">
       <defs>
        <path id="Aptos-34" d="M 2144 0 
L 2144 825 
L 175 825 
L 175 1297 
L 2134 4103 
L 2666 4103 
L 2666 1284 
L 3225 1284 
L 3225 825 
L 2666 825 
L 2666 0 
L 2144 0 
z
M 684 1284 
L 2150 1284 
L 2150 3391 
L 684 1284 
z
" transform="scale(0.015625)"/>
       </defs>
       <use xlink:href="#Aptos-34"/>
      </g>
     </g>
    </g>
    <g id="ytick_4">
     <g id="line2d_19">
      <path d="M 73.4975 261.5004 
L 844 261.5004 
" clip-path="url(#p626a4ee8e1)" style="fill: none; stroke-dasharray: 3.7,1.6; stroke-dashoffset: 0; stroke: #343837; stroke-opacity: 0.8"/>
     </g>
     <g id="line2d_20">
      <g>
       <use xlink:href="#m0da5a818f7" x="73.4975" y="261.5004" style="stroke: #000000; stroke-width: 0.8"/>
      </g>
     </g>
     <g id="text_11">
      <!-- 5 -->
      <g transform="translate(54.744688 268.729462) scale(0.22 -0.22)">
       <use xlink:href="#Aptos-35"/>
      </g>
     </g>
    </g>
    <g id="ytick_5">
     <g id="line2d_21">
      <path d="M 73.4975 159.7072 
L 844 159.7072 
" clip-path="url(#p626a4ee8e1)" style="fill: none; stroke-dasharray: 3.7,1.6; stroke-dashoffset: 0; stroke: #343837; stroke-opacity: 0.8"/>
     </g>
     <g id="line2d_22">
      <g>
       <use xlink:href="#m0da5a818f7" x="73.4975" y="159.7072" style="stroke: #000000; stroke-width: 0.8"/>
      </g>
     </g>
     <g id="text_12">
      <!-- 6 -->
      <g transform="translate(54.744688 166.936262) scale(0.22 -0.22)">
       <defs>
        <path id="Aptos-36" d="M 1806 -56 
Q 1372 -56 1031 151 
Q 691 359 495 815 
Q 300 1272 300 2013 
Q 300 2738 487 3206 
Q 675 3675 1015 3903 
Q 1356 4131 1806 4131 
Q 2303 4131 2645 3875 
Q 2988 3619 3081 3097 
L 2556 3097 
Q 2491 3388 2300 3534 
Q 2109 3681 1806 3681 
Q 1356 3681 1095 3279 
Q 834 2878 834 2013 
L 834 1850 
Q 834 1313 970 992 
Q 1106 672 1328 531 
Q 1550 391 1809 391 
Q 2219 391 2416 644 
Q 2613 897 2613 1272 
Q 2613 1650 2419 1869 
Q 2225 2088 1875 2088 
Q 1469 2088 1162 1897 
Q 856 1706 700 1456 
L 641 1856 
Q 775 2047 967 2201 
Q 1159 2356 1404 2447 
Q 1650 2538 1947 2538 
Q 2294 2538 2566 2395 
Q 2838 2253 2997 1975 
Q 3156 1697 3156 1291 
Q 3156 897 2998 592 
Q 2841 288 2539 116 
Q 2238 -56 1806 -56 
z
" transform="scale(0.015625)"/>
       </defs>
       <use xlink:href="#Aptos-36"/>
      </g>
     </g>
    </g>
    <g id="ytick_6">
     <g id="line2d_23">
      <path d="M 73.4975 57.914 
L 844 57.914 
" clip-path="url(#p626a4ee8e1)" style="fill: none; stroke-dasharray: 3.7,1.6; stroke-dashoffset: 0; stroke: #343837; stroke-opacity: 0.8"/>
     </g>
     <g id="line2d_24">
      <g>
       <use xlink:href="#m0da5a818f7" x="73.4975" y="57.914" style="stroke: #000000; stroke-width: 0.8"/>
      </g>
     </g>
     <g id="text_13">
      <!-- 7 -->
      <g transform="translate(54.744688 65.143063) scale(0.22 -0.22)">
       <use xlink:href="#Aptos-37"/>
      </g>
     </g>
    </g>
    <g id="text_14">
     <!-- Yield of fission neutrons,  $\overline{\nu}(E)$ -->
     <g transform="translate(42.19875 483.217) rotate(-90) scale(0.26 -0.26)">
      <defs>
       <path id="Aptos-59" d="M 1441 0 
L 1441 1675 
L 0 4206 
L 619 4206 
L 1728 2175 
L 2831 4206 
L 3453 4206 
L 2009 1675 
L 2009 0 
L 1441 0 
z
" transform="scale(0.015625)"/>
       <path id="Aptos-6c" d="M 1378 0 
Q 1006 0 809 117 
Q 613 234 541 454 
Q 469 675 469 984 
L 469 4206 
L 988 4206 
L 988 1009 
Q 988 725 1061 575 
Q 1134 425 1413 425 
L 1553 425 
L 1553 0 
L 1378 0 
z
" transform="scale(0.015625)"/>
       <path id="Aptos-73" d="M 1581 -56 
Q 1325 -56 1095 0 
Q 866 56 691 178 
Q 516 300 417 498 
Q 319 697 319 978 
L 822 978 
Q 822 622 1042 476 
Q 1263 331 1594 331 
Q 1891 331 2083 445 
Q 2275 559 2275 822 
Q 2275 1047 2101 1156 
Q 1928 1266 1491 1369 
Q 1134 1453 890 1564 
Q 647 1675 525 1845 
Q 403 2016 403 2275 
Q 403 2478 489 2633 
Q 575 2788 729 2891 
Q 884 2994 1093 3045 
Q 1303 3097 1547 3097 
Q 1788 3097 1998 3040 
Q 2209 2984 2370 2865 
Q 2531 2747 2625 2559 
Q 2719 2372 2719 2109 
L 2213 2109 
Q 2213 2434 2019 2568 
Q 1825 2703 1547 2703 
Q 1266 2703 1091 2603 
Q 916 2503 916 2291 
Q 916 2169 994 2084 
Q 1072 2000 1256 1933 
Q 1441 1866 1753 1791 
Q 2094 1709 2325 1596 
Q 2556 1484 2673 1307 
Q 2791 1131 2791 856 
Q 2791 619 2698 445 
Q 2606 272 2442 161 
Q 2278 50 2058 -3 
Q 1838 -56 1581 -56 
z
" transform="scale(0.015625)"/>
       <path id="Aptos-2c" d="M 531 -869 
L 400 -575 
Q 581 -494 718 -347 
Q 856 -200 884 0 
L 919 -31 
Q 744 -31 628 83 
Q 513 197 513 363 
Q 513 534 628 645 
Q 744 756 919 756 
Q 1091 756 1203 634 
Q 1316 513 1316 259 
Q 1316 -38 1211 -255 
Q 1106 -472 929 -622 
Q 753 -772 531 -869 
z
" transform="scale(0.015625)"/>
       <path id="DejaVuSerif-Italic-3bd" d="M 1103 363 
Q 1516 513 1997 875 
Q 2291 1094 2691 1638 
Q 2950 1975 3034 2288 
Q 3116 2575 3025 2794 
Q 2906 3097 2691 3138 
L 2725 3322 
L 3075 3322 
Q 3400 3169 3584 2828 
Q 3728 2566 3666 2247 
Q 3622 2016 3494 1825 
Q 3400 1688 3116 1366 
Q 2738 950 2297 663 
Q 1494 138 1034 0 
L 456 0 
L 1041 2988 
L 491 2988 
L 553 3322 
L 1678 3322 
L 1103 363 
z
" transform="scale(0.015625)"/>
       <path id="DejaVuSerif-28" d="M 2041 -997 
Q 1281 -656 893 83 
Q 506 822 506 1931 
Q 506 3044 893 3783 
Q 1281 4522 2041 4863 
L 2041 4556 
Q 1559 4225 1350 3623 
Q 1141 3022 1141 1931 
Q 1141 844 1350 242 
Q 1559 -359 2041 -691 
L 2041 -997 
z
" transform="scale(0.015625)"/>
       <path id="DejaVuSerif-Italic-45" d="M -97 0 
L -34 331 
L 559 331 
L 1338 4331 
L 744 4331 
L 809 4666 
L 4566 4666 
L 4366 3628 
L 3981 3628 
L 4106 4281 
L 1963 4281 
L 1659 2719 
L 3188 2719 
L 3300 3303 
L 3684 3303 
L 3384 1753 
L 3000 1753 
L 3113 2338 
L 1584 2338 
L 1206 384 
L 3400 384 
L 3525 1038 
L 3909 1038 
L 3709 0 
L -97 0 
z
" transform="scale(0.015625)"/>
       <path id="DejaVuSerif-29" d="M 453 -997 
L 453 -691 
Q 934 -359 1145 242 
Q 1356 844 1356 1931 
Q 1356 3022 1145 3623 
Q 934 4225 453 4556 
L 453 4863 
Q 1216 4522 1603 3783 
Q 1991 3044 1991 1931 
Q 1991 822 1603 83 
Q 1216 -656 453 -997 
z
" transform="scale(0.015625)"/>
      </defs>
      <use xlink:href="#Aptos-59" transform="translate(0 0.34375)"/>
      <use xlink:href="#Aptos-69" transform="translate(53.955078 0.34375)"/>
      <use xlink:href="#Aptos-65" transform="translate(77.832031 0.34375)"/>
      <use xlink:href="#Aptos-6c" transform="translate(130.517578 0.34375)"/>
      <use xlink:href="#Aptos-64" transform="translate(156.542969 0.34375)"/>
      <use xlink:href="#Aptos-20" transform="translate(212.597656 0.34375)"/>
      <use xlink:href="#Aptos-6f" transform="translate(232.910156 0.34375)"/>
      <use xlink:href="#Aptos-66" transform="translate(288.085938 0.34375)"/>
      <use xlink:href="#Aptos-20" transform="translate(318.212891 0.34375)"/>
      <use xlink:href="#Aptos-66" transform="translate(338.525391 0.34375)"/>
      <use xlink:href="#Aptos-69" transform="translate(368.652344 0.34375)"/>
      <use xlink:href="#Aptos-73" transform="translate(392.529297 0.34375)"/>
      <use xlink:href="#Aptos-73" transform="translate(441.113281 0.34375)"/>
      <use xlink:href="#Aptos-69" transform="translate(489.697266 0.34375)"/>
      <use xlink:href="#Aptos-6f" transform="translate(513.574219 0.34375)"/>
      <use xlink:href="#Aptos-6e" transform="translate(568.75 0.34375)"/>
      <use xlink:href="#Aptos-20" transform="translate(623.876953 0.34375)"/>
      <use xlink:href="#Aptos-6e" transform="translate(644.189453 0.34375)"/>
      <use xlink:href="#Aptos-65" transform="translate(699.316406 0.34375)"/>
      <use xlink:href="#Aptos-75" transform="translate(752.001953 0.34375)"/>
      <use xlink:href="#Aptos-74" transform="translate(807.861328 0.34375)"/>
      <use xlink:href="#Aptos-72" transform="translate(840.185547 0.34375)"/>
      <use xlink:href="#Aptos-6f" transform="translate(873.632812 0.34375)"/>
      <use xlink:href="#Aptos-6e" transform="translate(928.808594 0.34375)"/>
      <use xlink:href="#Aptos-73" transform="translate(983.935547 0.34375)"/>
      <use xlink:href="#Aptos-2c" transform="translate(1032.519531 0.34375)"/>
      <use xlink:href="#Aptos-20" transform="translate(1061.083984 0.34375)"/>
      <use xlink:href="#Aptos-20" transform="translate(1081.396484 0.34375)"/>
      <use xlink:href="#DejaVuSerif-Italic-3bd" transform="translate(1101.708984 0.84375)"/>
      <use xlink:href="#DejaVuSerif-28" transform="translate(1162.5 0.34375)"/>
      <use xlink:href="#DejaVuSerif-Italic-45" transform="translate(1201.513672 0.34375)"/>
      <use xlink:href="#DejaVuSerif-29" transform="translate(1274.511719 0.34375)"/>
      <path d="M 1101.708984 64.5 
L 1101.708984 70.75 
L 1162.5 70.75 
L 1162.5 64.5 
L 1101.708984 64.5 
z
"/>
     </g>
    </g>
   </g>
   <g id="line2d_25">
    <path d="M 73.497473 516.317282 
L 256.920468 516.317282 
L 269.400567 516.286744 
L 279.036869 515.94879 
L 281.567659 516.051601 
L 288.622928 516.389555 
L 297.442143 515.816459 
L 307.820894 516.604339 
L 319.102901 516.614518 
L 331.197233 516.317282 
L 360.79719 516.33764 
L 384.043685 517.639575 
L 389.068665 522.423856 
L 392.978099 517.527603 
L 401.318865 520.245481 
L 413.65426 519.044322 
L 420.909495 520.245481 
L 426.557205 519.543108 
L 430.180873 518.433562 
L 433.056286 517.222223 
L 436.797777 517.629396 
L 438.416478 517.12043 
L 441.384898 516.916844 
L 441.512251 517.629396 
L 444.054589 517.12043 
L 447.105028 517.629396 
L 448.895809 517.527603 
L 544.220184 517.44515 
L 546.750974 517.404433 
L 549.061405 517.689454 
L 551.186794 517.59784 
L 553.154598 518.636131 
L 554.98658 521.119885 
L 558.310061 512.324952 
L 559.8278 514.808706 
L 561.263458 515.94879 
L 562.625459 515.572155 
L 573.391854 514.685537 
L 581.030733 517.259887 
L 586.955908 519.621489 
L 595.890322 520.251589 
L 602.563524 517.826875 
L 607.891972 518.456975 
L 612.327793 513.16271 
L 616.127578 515.614909 
L 617.841282 513.964841 
L 619.451059 510.889668 
L 622.404456 521.169764 
L 623.766457 519.265213 
L 634.532852 516.754992 
L 660.577006 514.2804 
L 663.704522 512.83799 
L 666.50218 514.384229 
L 669.032971 515.936575 
L 673.468791 509.401452 
L 675.436594 511.82413 
L 682.109796 516.649128 
L 683.545454 519.539036 
L 687.438245 512.128492 
L 691.874065 515.406233 
L 695.67385 510.224959 
L 698.997332 516.850678 
L 700.515071 515.32378 
L 703.312729 514.316027 
L 704.608264 513.613654 
L 707.023856 517.429881 
L 708.15395 516.289798 
L 709.237904 516.666432 
L 711.281466 510.365433 
L 712.247143 513.612636 
L 713.17893 515.423537 
L 714.079125 515.08762 
L 727.643179 513.425337 
L 746.048453 509.009548 
L 748.579243 507.543726 
L 756.814848 503.329487 
L 760.13833 500.354072 
L 764.453727 496.43707 
L 770.378902 487.794827 
L 771.420338 486.197692 
L 782.859002 463.779775 
L 785.986518 456.625749 
L 788.784177 449.51244 
L 793.625397 433.725333 
L 796.555491 425.844503 
L 801.264276 411.042754 
L 809.882683 375.17592 
L 816.123865 340.909275 
L 816.312857 339.740689 
L 817.778233 330.389966 
L 817.955847 329.22138 
L 819.669551 317.532467 
L 825.594726 271.053692 
L 836.361121 154.842503 
" clip-path="url(#p626a4ee8e1)" style="fill: none; stroke: #0652ff; stroke-opacity: 0.9; stroke-width: 5; stroke-linecap: square"/>
   </g>
   <g id="line2d_26">
    <path d="M 73.497473 522.371941 
L 294.411283 522.45816 
L 330.731734 522.522188 
L 336.624264 522.333667 
L 341.443698 521.94044 
L 345.52132 521.564925 
L 349.054494 521.530519 
L 353.604877 521.850455 
L 360.875142 522.359421 
L 379.780301 523.41583 
L 383.191517 523.816183 
L 384.090112 523.70757 
L 388.558366 522.569929 
L 390.710739 522.415203 
L 394.84988 522.365223 
L 396.004267 522.469154 
L 396.562479 522.696763 
L 396.837246 522.844771 
L 398.171282 525.209732 
L 398.431261 524.838899 
L 399.192513 523.256524 
L 399.44149 522.809041 
L 400.415884 522.333463 
L 401.812977 522.059029 
L 403.780295 521.668856 
L 404.61007 521.336297 
L 405.611856 520.673623 
L 405.807561 520.755262 
L 406.765961 522.058927 
L 407.139469 522.040604 
L 407.871986 521.711609 
L 409.44959 520.828655 
L 409.787422 520.936046 
L 410.121009 521.308813 
L 411.416544 523.404022 
L 412.347949 523.981292 
L 413.831415 524.771512 
L 414.11813 524.76571 
L 414.402489 524.510107 
L 415.778311 522.507224 
L 416.440381 522.147182 
L 417.213545 521.994187 
L 418.210407 522.028593 
L 418.934386 522.227497 
L 419.406495 522.534403 
L 419.755292 522.977 
L 420.098998 523.849775 
L 420.326253 525.007673 
L 420.551019 527.312576 
L 420.995474 532.678299 
L 421.105298 532.970649 
L 421.21467 532.910693 
L 421.323593 532.433283 
L 421.540646 529.690567 
L 421.862137 524.973979 
L 422.180308 523.384376 
L 422.494712 522.880296 
L 422.804922 522.757737 
L 423.314524 522.870626 
L 424.207961 523.133253 
L 424.787151 523.044184 
L 425.447205 522.679153 
L 426.362813 521.880178 
L 427.334719 520.981955 
L 427.507943 521.049342 
L 427.679618 521.392996 
L 427.850189 522.294069 
L 428.522554 527.962424 
L 428.687812 528.102797 
L 428.852457 527.895037 
L 429.817871 524.930106 
L 430.132161 524.802356 
L 430.442388 525.014696 
L 430.825523 525.319974 
L 431.575598 525.40884 
L 431.796696 525.249228 
L 432.088539 524.633583 
L 432.944949 522.465693 
L 433.08492 522.662866 
L 433.29385 523.759077 
L 433.638226 525.96005 
L 433.7065 525.965139 
L 433.910614 525.441617 
L 434.446817 524.016614 
L 434.907314 523.44647 
L 435.360281 523.198604 
L 435.805336 523.165317 
L 436.181007 523.340096 
L 436.856281 523.859649 
L 437.037641 523.61392 
L 437.750358 522.091297 
L 437.925734 522.318602 
L 438.444444 523.659829 
L 438.615309 523.39425 
L 439.56258 521.375895 
L 439.726421 521.326118 
L 439.943225 521.595157 
L 440.370002 522.614514 
L 440.793683 524.060894 
L 440.949864 523.91136 
L 441.463929 523.12348 
L 441.918229 522.7783 
L 442.414055 522.179857 
L 442.658539 522.323895 
L 443.569926 523.255913 
L 443.804041 523.795621 
L 443.989859 524.778638 
L 444.174385 527.690636 
L 444.448792 531.462583 
L 444.539634 531.747095 
L 444.584939 531.644284 
L 444.675318 530.380725 
L 444.989242 523.701971 
L 445.211223 522.960917 
L 445.521096 522.687093 
L 445.781999 522.685566 
L 446.338645 523.099152 
L 446.925341 523.974573 
L 447.172868 523.944443 
L 447.418108 523.543886 
L 447.620759 523.40443 
L 447.863916 523.322792 
L 448.023467 522.926205 
L 448.768511 519.954353 
L 449.152401 519.666991 
L 449.568367 519.649584 
L 449.868701 519.850829 
L 450.016682 520.296378 
L 450.383065 522.792347 
L 450.455739 522.538475 
L 450.816154 520.625882 
L 450.958962 520.855121 
L 451.207041 521.84903 
L 451.905048 524.954537 
L 452.042133 524.948225 
L 452.144484 524.454834 
L 452.381779 523.116253 
L 452.482832 523.404328 
L 453.04831 526.139409 
L 453.212361 526.170762 
L 453.310307 525.821611 
L 453.635819 524.369836 
L 454.019335 524.097336 
L 454.491069 523.929275 
L 455.200016 523.967346 
L 455.381495 523.451662 
L 455.651408 521.785002 
L 455.918604 520.567046 
L 456.095253 520.477468 
L 456.241568 520.635451 
L 456.474009 521.371416 
L 457.104334 523.380203 
L 457.663399 524.676641 
L 458.103688 524.50858 
L 458.374365 523.982513 
L 458.72217 523.021585 
L 459.790172 525.226732 
L 460.295963 525.507986 
L 460.914946 523.576969 
L 461.387932 521.271048 
L 461.61296 521.20081 
L 461.994006 522.513739 
L 462.689763 523.704516 
L 463.411229 519.99395 
L 463.535689 520.301162 
L 463.700366 522.249586 
L 463.810317 521.90807 
L 464.137465 519.737839 
L 464.460632 519.604082 
L 464.885492 519.946616 
L 465.686736 520.85166 
L 466.32115 522.034904 
L 466.618946 520.263906 
L 466.717473 520.215758 
L 466.884136 520.44693 
L 466.929054 520.39074 
L 467.069177 520.228991 
L 467.107969 520.387788 
L 467.492804 524.05499 
L 467.588148 523.961238 
L 468.059798 520.7234 
L 468.523216 523.079404 
L 469.068849 525.158428 
L 469.515132 522.237167 
L 470.556567 528.037751 
L 471.447824 523.924186 
L 472.365844 525.769289 
L 472.838614 523.734138 
L 473.149181 524.620146 
L 473.379746 521.543345 
L 473.608326 522.346798 
L 473.875543 520.893191 
L 474.503462 520.944088 
L 475.083883 520.844025 
L 475.79201 522.789395 
L 476.276697 522.617263 
L 477.087545 520.620793 
L 477.549351 523.509684 
L 477.987185 522.892206 
L 478.195446 521.105125 
L 478.32153 524.609356 
L 478.353909 524.599787 
L 478.57569 523.201861 
L 479.180357 523.345288 
L 479.381333 523.196059 
L 479.56383 522.874901 
L 479.624384 523.235758 
L 479.684801 523.180281 
L 479.862834 522.154307 
L 479.897579 522.365426 
L 480.001543 523.075943 
L 480.049801 522.995323 
L 480.340469 520.166795 
L 480.39928 520.275205 
L 480.516513 520.833642 
L 480.691397 522.946971 
L 481.071564 521.672113 
L 482.327821 521.271048 
L 482.704815 524.987518 
L 482.97276 521.44888 
L 483.036667 522.170492 
L 483.093521 522.581941 
L 483.150783 522.27707 
L 483.395928 520.929939 
L 483.705305 521.73268 
L 484.02701 521.166608 
L 484.248483 519.628513 
L 484.412122 519.750766 
L 484.526022 520.302587 
L 484.661959 520.838121 
L 484.87574 520.608476 
L 485.149288 523.503271 
L 485.754418 524.81681 
L 486.097907 522.959593 
L 486.175528 522.953282 
L 486.330094 524.341232 
L 486.744093 521.566044 
L 487.314777 524.015291 
L 487.42908 523.557832 
L 487.603424 520.390333 
L 487.708911 520.359693 
L 488.00877 519.771227 
L 488.259441 523.741162 
L 488.359312 522.56036 
L 488.705287 522.543768 
L 488.919255 522.416221 
L 489.291279 519.963921 
L 489.425849 520.196722 
L 489.775214 528.482587 
L 489.811918 527.59607 
L 489.866674 523.34539 
L 490.085392 520.369364 
L 490.103334 520.434206 
L 490.229804 521.780726 
L 490.295445 522.888847 
L 490.399246 522.672944 
L 490.890102 523.338977 
L 491.126483 520.172801 
L 493.309135 523.253572 
L 493.417295 523.619824 
L 493.844519 520.803003 
L 493.892627 520.915484 
L 494.162323 520.197028 
L 494.748785 524.059571 
L 494.955015 520.454361 
L 495.017758 521.066647 
L 495.124927 521.775433 
L 495.196693 521.55332 
L 495.251483 521.606456 
L 495.325923 522.26119 
L 495.426187 523.785238 
L 495.456858 523.779538 
L 495.559286 520.744777 
L 495.845504 523.262734 
L 496.085109 520.37425 
L 496.273177 521.255168 
L 496.414645 526.961389 
L 496.46666 525.498214 
L 496.600721 522.956336 
L 496.628154 523.169593 
L 496.67593 523.625219 
L 496.823191 520.63311 
L 497.028428 521.790397 
L 497.199348 520.366819 
L 497.226481 520.594937 
L 497.47963 523.189646 
L 497.510488 523.183437 
L 497.602847 522.696458 
L 497.969104 519.639303 
L 498.568525 522.183624 
L 498.686802 524.36434 
L 498.775168 528.95562 
L 498.809841 528.684443 
L 499.038505 519.737635 
L 499.108871 519.849913 
L 499.153262 520.242835 
L 499.380437 524.412386 
L 499.443023 524.860887 
L 499.500314 524.493006 
L 499.614519 520.322335 
L 499.693602 521.658982 
L 499.827057 530.552755 
L 499.869704 530.074124 
L 500.025854 521.71904 
L 500.122459 522.229838 
L 500.257676 522.291626 
L 500.428151 522.412048 
L 500.510914 522.597006 
L 500.806472 519.962598 
L 501.827428 522.791431 
L 502.036303 521.374266 
L 502.266763 524.399356 
L 502.307983 524.420326 
L 502.372261 524.991895 
L 502.423571 524.77477 
L 502.825476 520.138497 
L 502.845665 520.141958 
L 502.956429 520.912125 
L 503.056725 522.923355 
L 503.081739 522.817185 
L 503.236307 521.110825 
L 503.404805 525.865178 
L 503.503425 525.305723 
L 503.845736 522.683937 
L 503.942734 526.398371 
L 504.070713 520.71373 
L 504.23162 522.394234 
L 504.398697 525.178482 
L 504.517397 525.29931 
L 505.005573 521.366632 
L 505.167865 524.195566 
L 505.218667 524.018548 
L 505.287786 521.650838 
L 505.377372 522.162756 
L 505.448367 522.109926 
L 505.698763 523.513043 
L 505.856886 523.273727 
L 505.944576 523.687618 
L 506.038689 524.682036 
L 506.259215 522.72496 
L 506.458116 521.976882 
L 506.506511 522.368989 
L 506.742813 524.135407 
L 506.829801 524.170525 
L 506.938138 532.157729 
L 507.132036 520.030901 
L 507.217761 520.30503 
L 507.536786 525.153135 
L 507.747359 520.428607 
L 507.768325 520.600943 
L 508.060122 524.029542 
L 508.122234 523.974573 
L 508.775885 519.893277 
L 509.076831 521.833353 
L 509.196261 525.091347 
L 509.22405 524.889185 
L 509.295377 521.221474 
L 509.394124 522.387719 
L 509.472859 521.845365 
L 509.649163 522.823292 
L 509.707671 525.326794 
L 509.834 522.726283 
L 509.97902 525.479586 
L 510.094469 523.037771 
L 510.152006 523.650464 
L 510.171157 523.991675 
L 510.238078 523.503373 
L 510.382813 520.217692 
L 510.475713 521.166099 
L 510.589027 520.928921 
L 510.70186 521.404193 
L 510.888855 523.463572 
L 511.056032 520.527041 
L 511.11522 521.163961 
L 511.166901 521.134848 
L 511.328677 520.370891 
L 511.359816 520.273271 
L 511.46031 520.675863 
L 511.538614 522.076639 
L 511.565875 521.419564 
L 511.656543 520.64166 
L 511.69634 520.759741 
L 511.867506 522.823496 
L 511.915953 521.808719 
L 512.073242 520.136461 
L 512.089276 520.175549 
L 512.128429 520.614991 
L 512.339219 524.575764 
L 512.443111 524.329017 
L 512.689762 522.234113 
L 512.863313 524.731304 
L 513.365382 524.31212 
L 513.411174 524.760315 
L 513.458578 524.701479 
L 513.512651 522.397695 
L 513.607014 522.915008 
L 513.731197 522.391282 
L 514.047409 525.468694 
L 514.146489 524.426739 
L 514.315717 520.025404 
L 514.392581 520.177687 
L 514.457822 521.654197 
L 514.57161 523.88072 
L 514.604032 523.723042 
L 514.765548 520.183591 
L 514.797734 521.289981 
L 514.861988 524.467354 
L 514.894058 523.819644 
L 514.974061 519.698037 
L 515.245866 523.622267 
L 515.334277 523.06668 
L 515.480455 519.931144 
L 515.54308 520.13982 
L 515.638301 523.50378 
L 515.699001 521.946751 
L 515.761113 520.426571 
L 515.827723 521.138106 
L 515.884905 521.445012 
L 515.931178 521.252012 
L 516.143003 521.88934 
L 516.268074 520.001992 
L 516.425859 523.797555 
L 516.4712 523.735054 
L 516.645793 522.237371 
L 516.66379 521.993576 
L 516.735652 522.312087 
L 516.780468 522.568199 
L 517.007858 527.38261 
L 517.018215 527.141156 
L 517.07732 524.480384 
L 517.121563 524.581566 
L 517.34168 520.208938 
L 517.588958 524.269163 
L 517.632358 526.172899 
L 517.690114 531.420746 
L 517.733348 527.188286 
L 517.776512 524.175615 
L 517.934184 525.014493 
L 518.190189 522.375402 
L 518.218482 522.48992 
L 518.349651 524.745046 
L 518.377775 523.924796 
L 518.499768 521.280107 
L 518.619811 523.606184 
L 518.736541 523.153611 
L 518.874839 521.16844 
L 519.190218 523.753886 
L 519.265083 523.559054 
L 519.38037 521.694406 
L 519.447952 522.055161 
L 519.481679 522.730355 
L 519.569169 522.505697 
L 519.609452 521.650533 
L 519.676455 520.056553 
L 519.729936 520.226853 
L 519.903008 524.302449 
L 520.008956 522.64434 
L 520.184165 525.019379 
L 520.279842 521.588643 
L 520.320369 522.450729 
L 520.351701 523.233417 
L 520.402538 522.406653 
L 520.457177 520.867336 
L 520.795505 523.996052 
L 520.837815 523.960729 
L 520.904348 522.943001 
L 520.977088 521.393098 
L 520.991103 521.631396 
L 521.101685 534.369899 
L 521.253462 520.000058 
L 521.467004 520.465558 
L 521.541964 522.442179 
L 521.578118 521.612564 
L 521.75197 520.249553 
L 521.824896 520.405806 
L 521.874224 520.945818 
L 522.051049 523.375317 
L 522.062062 523.403208 
L 522.07307 523.379999 
L 522.328637 520.94531 
L 522.346798 520.987961 
L 522.421732 522.729948 
L 522.460325 522.112979 
L 522.591363 520.725436 
L 522.666807 519.954862 
L 522.826565 524.248906 
L 522.870509 524.078504 
L 522.91438 523.118798 
L 522.951081 523.691181 
L 523.031409 525.543207 
L 523.080902 524.393961 
L 523.112671 523.997375 
L 523.133829 525.058875 
L 523.174921 526.996305 
L 523.428283 520.402141 
L 523.736743 523.230974 
L 523.756262 523.019855 
L 523.831905 520.698257 
L 523.873075 522.261088 
L 523.924447 523.912683 
L 523.976858 522.958372 
L 524.049607 519.858158 
L 524.105171 520.618553 
L 524.188863 520.392267 
L 524.24639 522.232688 
L 524.361072 523.395675 
L 524.492011 522.795503 
L 524.684446 519.893888 
L 524.711033 519.944377 
L 524.779592 521.010966 
L 524.876598 523.287673 
L 525.044417 520.381172 
L 525.204662 523.736784 
L 525.295799 523.64232 
L 525.387702 521.216894 
L 525.520132 522.516997 
L 525.641216 520.890952 
L 525.664726 521.832132 
L 525.714882 523.578496 
L 525.772391 521.848215 
L 525.947345 523.350581 
L 525.971641 523.327881 
L 526.138997 521.564212 
L 526.202924 519.689385 
L 526.278181 520.078439 
L 526.486116 524.067205 
L 526.503716 524.022111 
L 526.58535 520.735819 
L 526.693464 523.979968 
L 526.733508 523.532384 
L 526.761196 523.401172 
L 526.817508 523.576562 
L 526.836934 523.59234 
L 526.912456 523.195754 
L 526.981666 521.160602 
L 527.068939 521.183811 
L 527.124603 522.907577 
L 527.20032 522.678848 
L 527.219468 522.789293 
L 527.237595 522.437394 
L 527.269791 521.561362 
L 527.291902 522.990131 
L 527.312992 524.611901 
L 527.347101 523.694744 
L 527.52795 519.663937 
L 527.633292 523.329815 
L 527.692736 523.243087 
L 527.85257 520.032733 
L 527.862405 520.091163 
L 527.945855 523.511821 
L 528.020247 521.013613 
L 528.052485 521.33304 
L 528.092482 523.978543 
L 528.141179 521.95296 
L 528.199497 519.679104 
L 528.246059 520.15743 
L 528.4863 524.023638 
L 528.514139 523.999615 
L 528.541949 523.984244 
L 528.632847 524.938962 
L 528.791886 519.658135 
L 528.80992 519.742725 
L 529.063938 523.850182 
L 529.102442 523.382137 
L 529.290402 519.860296 
L 529.345323 519.657015 
L 529.371347 519.809806 
L 529.647671 523.794501 
L 529.670645 523.765185 
L 529.948434 519.793723 
L 529.967516 519.85714 
L 530.009268 520.900521 
L 530.075391 524.476414 
L 530.109747 524.022823 
L 530.213448 519.895414 
L 530.264697 521.16956 
L 530.374953 523.626542 
L 530.418749 524.167777 
L 530.488316 521.616941 
L 530.561255 522.724044 
L 530.65613 523.56964 
L 530.690627 523.212855 
L 530.748022 520.957525 
L 530.800892 523.601908 
L 530.836081 523.449117 
L 530.905441 521.357368 
L 530.992106 521.989606 
L 531.095036 523.409723 
L 531.128968 522.127943 
L 531.283287 523.180688 
L 531.378206 522.120003 
L 531.46592 526.32905 
L 531.477078 524.690078 
L 531.610615 520.564807 
L 531.62598 520.41568 
L 531.650716 520.871713 
L 531.791018 525.227749 
L 531.825766 524.596937 
L 531.860469 524.176735 
L 531.94745 524.258373 
L 532.038348 522.994305 
L 532.083681 523.586131 
L 532.121399 521.687178 
L 532.214209 522.415611 
L 532.388083 520.263804 
L 532.459301 522.356978 
L 532.564122 522.0574 
L 532.627474 520.17901 
L 532.648832 520.703551 
L 532.717716 523.779945 
L 532.772531 522.406856 
L 532.802754 521.674658 
L 532.837835 523.71042 
L 532.957413 525.877088 
L 533.387323 521.016259 
L 533.435195 525.557559 
L 533.513202 523.768035 
L 533.533064 523.800303 
L 533.555293 523.71948 
L 533.621077 521.905423 
L 533.690646 519.540258 
L 533.744279 520.249553 
L 533.848083 523.372161 
L 533.88808 522.360846 
L 533.9507 519.979292 
L 534.007712 520.472277 
L 534.154753 523.889678 
L 534.246918 521.679035 
L 534.286319 522.94463 
L 534.300984 522.941678 
L 534.359559 520.238559 
L 534.417237 522.065544 
L 534.493948 523.602621 
L 534.73035 522.542139 
L 534.781168 520.188986 
L 534.832646 522.460298 
L 534.879494 522.188001 
L 534.992496 523.16491 
L 535.039814 523.264159 
L 535.059318 523.079099 
L 535.145411 519.724707 
L 535.176785 521.066138 
L 535.199172 523.104852 
L 535.243145 521.002924 
L 535.275147 521.685041 
L 535.339778 521.345255 
L 535.484071 523.926527 
L 535.631254 523.41237 
L 535.795865 521.390146 
L 535.86579 520.623134 
L 536.234926 525.566924 
L 536.270771 524.290845 
L 536.330882 520.00871 
L 536.36517 521.881807 
L 536.438597 524.959015 
L 536.479855 521.314106 
L 536.561471 523.28696 
L 536.590509 523.580634 
L 536.673903 523.396999 
L 536.736629 521.184829 
L 536.783752 520.043422 
L 536.811143 520.84881 
L 536.914135 523.501846 
L 537.051534 525.07964 
L 537.063357 524.365357 
L 537.090462 522.743079 
L 537.169533 523.920216 
L 537.192378 523.898636 
L 537.19653 523.863212 
L 537.293904 520.703754 
L 537.362061 522.134458 
L 537.418382 524.273133 
L 537.475268 523.228327 
L 537.510162 520.809517 
L 537.545693 524.213482 
L 537.573674 526.96424 
L 537.624102 523.002754 
L 537.657441 524.527718 
L 537.685984 524.17307 
L 537.887628 520.076301 
L 538.074367 523.816896 
L 538.157907 521.713237 
L 538.24318 522.441161 
L 538.432068 523.361066 
L 538.534893 519.808076 
L 538.602566 520.697545 
L 538.732827 522.088345 
L 538.771976 522.024826 
L 538.825388 522.250197 
L 538.897518 520.035177 
L 538.933185 522.376217 
L 538.940961 522.706027 
L 538.983686 521.560344 
L 539.019238 521.022367 
L 539.050872 521.199487 
L 539.201421 523.677643 
L 539.270618 524.579225 
L 539.32176 523.789513 
L 539.33453 523.721007 
L 539.393829 523.935383 
L 539.404655 523.933653 
L 539.417385 523.93976 
L 539.489196 524.563243 
L 539.501886 524.393452 
L 539.527881 523.17397 
L 539.612031 524.128281 
L 539.741845 521.424857 
L 539.787067 520.214943 
L 539.832213 521.050665 
L 539.899788 523.072686 
L 539.916031 522.204491 
L 539.97467 519.820393 
L 540.021987 522.378151 
L 540.123804 524.086953 
L 540.341644 520.566435 
L 540.349018 521.073773 
L 540.461219 524.010201 
L 540.480179 523.301415 
L 540.613128 521.044456 
L 540.712102 523.55376 
L 540.752677 522.552726 
L 540.767802 522.240832 
L 540.806481 523.586843 
L 540.837866 524.062014 
L 540.914363 523.831147 
L 540.943218 523.867589 
L 540.972642 523.819339 
L 541.005031 523.671433 
L 541.098974 521.480436 
L 541.138963 521.948074 
L 541.192585 524.704736 
L 541.272223 520.494467 
L 541.365818 524.650989 
L 541.410131 524.042673 
L 541.461442 522.438412 
L 541.525588 523.69566 
L 541.533815 523.714899 
L 541.55907 523.496654 
L 541.581955 523.062201 
L 541.604234 523.447386 
L 541.64347 524.45575 
L 541.704844 524.152915 
L 541.781215 522.591102 
L 541.821354 523.207867 
L 541.845756 523.87278 
L 541.889856 522.848028 
L 541.930409 520.943783 
L 541.973213 523.619722 
L 541.999208 524.100593 
L 542.029216 522.70114 
L 542.059765 520.801374 
L 542.110987 523.840512 
L 542.132252 523.478433 
L 542.213135 520.050547 
L 542.265776 522.4888 
L 542.301194 523.563532 
L 542.335993 521.857784 
L 542.370748 520.620182 
L 542.423647 522.843651 
L 542.475306 522.807413 
L 542.529129 520.633212 
L 542.716374 524.044709 
L 542.739407 522.528601 
L 542.765224 521.313801 
L 542.830777 524.016309 
L 542.841407 523.983226 
L 542.885002 523.086428 
L 542.908447 523.188119 
L 543.03147 524.080235 
L 543.103017 523.830231 
L 543.147844 521.924357 
L 543.197563 519.839326 
L 543.264261 523.649751 
L 543.34287 522.869608 
L 543.374688 521.652162 
L 543.417964 523.661966 
L 543.475374 522.511805 
L 543.51685 523.891612 
L 543.58656 520.349718 
L 543.773541 520.137988 
L 543.901231 524.708502 
L 543.940438 523.419495 
L 543.994589 520.264924 
L 544.022425 523.190868 
L 544.04649 524.876258 
L 544.102559 522.395048 
L 544.173941 521.239797 
L 544.254681 523.542767 
L 544.316662 522.634568 
L 544.335704 522.814538 
L 544.339934 522.781964 
L 544.393804 521.838647 
L 544.55214 523.855272 
L 544.621802 522.679764 
L 544.688152 523.637536 
L 544.710058 523.655452 
L 544.75798 522.113895 
L 544.783988 523.253267 
L 544.825029 523.950754 
L 544.862896 523.868301 
L 544.977724 521.241731 
L 545.020013 522.379372 
L 545.058118 523.174784 
L 545.090002 522.194617 
L 545.150579 520.711796 
L 545.169033 521.022876 
L 545.251916 524.320161 
L 545.29173 522.494297 
L 545.305498 522.252029 
L 545.343196 523.023011 
L 545.37474 524.258169 
L 545.418432 523.266703 
L 545.443295 522.063508 
L 545.488393 524.731915 
L 545.499023 524.899161 
L 545.521282 523.961137 
L 545.625246 520.873545 
L 545.648909 521.051989 
L 545.703706 523.913803 
L 545.783938 522.470375 
L 545.798454 521.792331 
L 545.836958 523.716019 
L 545.856939 524.276797 
L 545.890372 523.893037 
L 545.97054 523.833692 
L 546.222409 522.827669 
L 546.241117 523.169695 
L 546.265226 523.43792 
L 546.293724 522.892104 
L 546.318762 521.912854 
L 546.381988 522.515673 
L 546.406454 523.22334 
L 546.445064 521.585487 
L 546.51822 520.480929 
L 546.696363 524.683156 
L 546.758698 520.185627 
L 546.81607 523.667361 
L 546.99319 520.618044 
L 547.009451 521.088634 
L 547.040032 522.76924 
L 547.100613 519.888391 
L 547.124902 519.542294 
L 547.186239 520.363663 
L 547.219938 523.683139 
L 547.275851 520.328036 
L 547.302344 520.395423 
L 547.469213 524.036158 
L 547.491289 523.922659 
L 547.525541 522.709996 
L 547.596719 523.71551 
L 547.627566 523.988824 
L 547.711513 523.616974 
L 547.788231 524.244122 
L 547.897578 519.947431 
L 547.940083 522.580821 
L 548.005556 524.27354 
L 548.068111 523.92724 
L 548.087859 523.763352 
L 548.136477 520.979614 
L 548.216548 522.205509 
L 548.232533 522.189528 
L 548.265387 524.015698 
L 548.359161 523.835829 
L 548.45487 521.49713 
L 548.542564 522.986467 
L 548.560158 523.212855 
L 548.590808 521.447455 
L 548.638514 523.453596 
L 548.693316 523.235962 
L 548.745318 520.697138 
L 548.777991 520.009525 
L 548.805709 522.214874 
L 548.837416 523.516097 
L 548.895817 521.913872 
L 548.933642 523.460009 
L 548.993607 525.338093 
L 549.063175 523.784933 
L 549.086176 523.766508 
L 549.199564 520.817355 
L 549.233442 522.816167 
L 549.271229 523.667463 
L 549.318168 521.745506 
L 549.369399 519.948245 
L 549.431008 520.209955 
L 549.53685 523.957167 
L 549.588963 521.87855 
L 549.627114 519.984992 
L 549.677753 523.4879 
L 549.688561 523.757041 
L 549.710163 522.203982 
L 549.731317 520.373741 
L 549.774434 522.581228 
L 549.924369 521.029085 
L 549.940643 521.506495 
L 549.994107 523.09223 
L 550.038507 521.10655 
L 550.044052 521.046492 
L 550.044904 521.057689 
L 550.157252 524.228344 
L 550.185265 522.263023 
L 550.233158 521.098203 
L 550.258976 523.139157 
L 550.284769 524.035242 
L 550.358204 523.267721 
L 550.377163 523.240543 
L 550.493568 521.876107 
L 550.599861 526.00606 
L 550.61197 522.675183 
L 550.728184 519.996088 
L 550.736496 520.062864 
L 550.813666 524.837169 
L 550.87119 521.641779 
L 550.898047 520.114168 
L 550.933952 522.729337 
L 550.978044 527.85717 
L 551.048358 524.009387 
L 551.080369 523.902911 
L 551.135681 520.174531 
L 551.186794 521.791211 
L 551.393511 523.422345 
L 551.615117 522.8862 
L 551.836085 524.19068 
L 552.057601 522.634466 
L 552.278853 522.238083 
L 552.50022 522.472615 
L 552.7213 523.882858 
L 552.942465 522.913583 
L 553.384988 523.738719 
L 554.049001 520.428404 
L 554.270337 520.347376 
L 554.491646 520.404686 
L 554.712915 524.070463 
L 554.934129 523.738515 
L 555.155275 520.161705 
L 555.376687 523.992998 
L 555.597998 520.080678 
L 556.040267 524.240966 
L 556.261876 523.898636 
L 556.482988 520.4963 
L 556.704266 521.517794 
L 556.92569 521.783271 
L 557.146915 521.584876 
L 557.368254 520.364885 
L 557.589368 523.513654 
L 557.810563 523.15809 
L 558.031831 524.122682 
L 558.253145 522.648921 
L 558.474493 522.127434 
L 558.695859 524.556016 
L 558.916921 521.819713 
L 559.138277 523.223747 
L 559.359606 523.804782 
L 559.580888 522.400749 
L 559.802119 524.734358 
L 560.244642 519.583622 
L 560.465904 521.308508 
L 560.687337 521.691352 
L 560.908639 523.031867 
L 561.351078 522.789192 
L 561.572465 528.103611 
L 561.793665 526.537115 
L 562.014939 520.327018 
L 562.236271 524.094588 
L 562.457377 524.518047 
L 562.678512 520.835373 
L 562.900186 521.994187 
L 563.120024 524.744639 
L 563.784082 519.963311 
L 564.227738 524.434882 
L 564.449296 521.208343 
L 564.671479 521.15592 
L 565.334281 525.292083 
L 565.776567 521.16386 
L 565.997317 521.977594 
L 566.218566 520.041895 
L 566.440286 523.462859 
L 566.882774 520.290168 
L 567.103526 522.28389 
L 567.324683 520.740196 
L 567.546219 522.604946 
L 567.768111 523.429369 
L 567.990333 523.376029 
L 568.21071 521.710693 
L 568.431408 524.082372 
L 568.652403 521.825617 
L 568.873672 523.309864 
L 569.095193 523.967448 
L 569.316946 522.672537 
L 569.538909 522.962647 
L 569.759032 520.755262 
L 569.981371 523.923371 
L 570.201864 522.439532 
L 570.422521 522.734529 
L 570.645286 522.230856 
L 570.866197 522.006198 
L 571.087216 523.672655 
L 571.308326 522.869608 
L 571.529509 522.629376 
L 571.750747 521.877633 
L 571.972025 521.721584 
L 572.193326 521.841599 
L 572.414635 521.043235 
L 572.635936 521.763421 
L 572.857214 524.365866 
L 573.078454 523.664511 
L 573.299643 521.614905 
L 573.520766 521.661323 
L 573.74181 521.022774 
L 573.964494 522.323386 
L 574.185327 522.673758 
L 574.628316 521.022367 
L 574.848746 523.646189 
L 575.070684 522.255184 
L 575.290783 522.73799 
L 575.512341 522.546211 
L 575.733687 523.194227 
L 575.95481 521.768104 
L 576.177295 523.906474 
L 576.397932 522.870015 
L 576.619885 522.734936 
L 576.839999 522.905745 
L 577.061386 522.491345 
L 577.282472 523.821985 
L 577.504765 523.617788 
L 577.725213 520.425859 
L 577.946828 523.421022 
L 578.168087 522.72384 
L 578.388985 524.042368 
L 578.610968 523.613004 
L 578.832554 523.526887 
L 579.053736 520.736837 
L 579.27451 523.82962 
L 579.717601 523.832775 
L 579.938479 523.338569 
L 580.158908 520.693779 
L 580.602446 523.347934 
L 580.822806 523.136408 
L 581.266011 522.367666 
L 581.48748 523.040824 
L 581.708411 521.740722 
L 581.930087 521.218828 
L 582.1512 525.683274 
L 582.371749 523.584298 
L 582.592985 523.476906 
L 582.814876 523.137223 
L 583.036159 520.849624 
L 583.256834 521.906034 
L 583.478112 521.79345 
L 583.699962 523.306403 
L 583.921166 520.497521 
L 584.170048 523.54409 
L 634.532852 523.413286 
L 660.577006 523.156767 
L 678.98228 522.744504 
L 684.907455 522.536846 
L 695.67385 522.018719 
L 703.312729 521.498556 
L 714.079125 520.426673 
L 721.718004 519.365988 
L 727.643179 518.297159 
L 732.484399 517.219169 
L 736.577593 516.132018 
L 740.123278 515.036723 
L 743.250794 513.932267 
L 746.048453 512.818649 
L 750.889673 510.503872 
L 754.982867 508.215561 
L 758.528553 505.891622 
L 761.656069 503.532056 
L 764.453727 500.433471 
L 766.984518 497.173645 
L 771.420338 492.095386 
L 773.388141 489.274595 
L 775.220123 486.187003 
L 777.345513 482.962704 
L 779.313316 479.619815 
L 782.859002 472.569211 
L 784.468779 469.870062 
L 785.986518 466.001921 
L 787.422176 461.884386 
L 788.784177 459.002111 
L 791.314967 450.625549 
L 793.625397 442.113093 
L 795.750787 432.72267 
L 799.550572 414.861221 
L 801.264276 408.047795 
L 802.874054 400.993831 
L 804.391793 393.589089 
L 805.82745 387.36362 
L 808.484986 371.82387 
L 809.720241 365.924649 
L 810.900578 358.719115 
L 815.645416 323.145751 
L 816.593846 314.001464 
L 817.055652 310.438804 
L 819.669551 285.95418 
L 828.125516 215.867526 
L 832.045724 185.442557 
L 834.050691 166.873441 
L 835.460926 152.793406 
L 835.914838 148.197443 
L 836.361121 138.697084 
L 836.361121 138.697084 
" clip-path="url(#p626a4ee8e1)" style="fill: none; stroke: #510ac9; stroke-width: 5; stroke-linecap: square"/>
   </g>
   <g id="line2d_27">
    <path d="M 73.497473 478.091187 
L 294.411283 478.190842 
L 312.491051 478.660618 
L 323.147175 479.178236 
L 341.443698 480.200953 
L 347.346188 480.204922 
L 352.17301 479.98566 
L 358.666135 479.437809 
L 372.664189 478.163663 
L 381.295153 477.643093 
L 391.390538 477.289972 
L 403.140223 477.117433 
L 415.644027 477.168126 
L 422.907525 477.388203 
L 427.421256 477.762496 
L 429.817871 478.206824 
L 431.203209 478.674665 
L 432.233086 479.231881 
L 433.08492 479.919189 
L 433.910614 480.600389 
L 434.972731 481.05174 
L 435.360281 480.753791 
L 436.056477 479.797037 
L 436.795652 478.942381 
L 437.396391 478.592518 
L 438.041817 478.487162 
L 438.897476 478.613182 
L 440.475897 479.155638 
L 441.463929 479.365027 
L 442.266277 479.289089 
L 444.036111 478.958058 
L 444.311943 479.173147 
L 444.494252 479.560673 
L 444.720392 480.785551 
L 445.255397 484.89138 
L 445.475173 488.355097 
L 445.608349 486.378375 
L 445.954521 481.142132 
L 446.253763 479.49919 
L 446.591675 478.728921 
L 447.008107 478.318898 
L 447.499354 478.132209 
L 448.142504 478.130173 
L 448.768511 478.343328 
L 449.342284 478.783889 
L 449.682558 479.29825 
L 449.979764 480.054472 
L 450.090364 481.118516 
L 450.200505 483.155195 
L 450.27368 482.675138 
L 450.492001 481.273242 
L 450.780332 480.073304 
L 451.207041 477.839859 
L 451.557468 477.059309 
L 451.905048 476.790677 
L 452.314197 476.771438 
L 452.850102 476.988156 
L 453.474372 477.489792 
L 454.082719 478.281845 
L 454.646469 479.401367 
L 455.948128 482.276516 
L 456.21237 482.415056 
L 456.445065 482.293414 
L 456.791756 481.844404 
L 457.828849 480.418892 
L 458.347421 480.098549 
L 458.72217 480.02597 
L 460.914946 480.524044 
L 461.994006 479.862694 
L 462.689763 479.259671 
L 463.411229 480.227928 
L 463.535689 481.239447 
L 463.700366 484.201731 
L 464.137465 479.647401 
L 464.460632 479.305885 
L 464.885492 479.375715 
L 466.32115 481.152923 
L 466.520051 481.713803 
L 466.618946 482.454858 
L 466.717473 484.885374 
L 466.850887 493.906287 
L 466.929054 492.95106 
L 467.107969 487.241072 
L 467.301084 480.856195 
L 467.588148 479.536243 
L 468.059798 478.702353 
L 468.523216 478.259145 
L 469.515132 477.853194 
L 470.556567 477.87508 
L 471.447824 477.17118 
L 472.365844 476.965354 
L 473.149181 477.310331 
L 473.379746 477.672613 
L 473.608326 478.871228 
L 473.684084 480.059765 
L 473.824421 490.173734 
L 473.973751 496.791005 
L 474.059666 495.235096 
L 474.356352 478.961315 
L 474.576712 477.954784 
L 474.867709 477.645332 
L 475.369404 477.636171 
L 475.79201 477.819806 
L 476.276697 478.251002 
L 477.087545 480.547355 
L 477.549351 486.663905 
L 477.874364 504.996758 
L 478.32153 480.740762 
L 478.353909 480.817819 
L 478.57569 483.116615 
L 479.180357 482.02529 
L 479.381333 483.132902 
L 479.684801 488.047274 
L 480.049801 496.333444 
L 480.103913 496.421088 
L 480.16325 496.132199 
L 480.691397 481.400687 
L 481.071564 478.335083 
L 482.327821 476.768486 
L 482.704815 476.768486 
L 482.919387 476.940924 
L 483.009525 478.310653 
L 483.168255 485.034501 
L 483.191005 484.890463 
L 483.395928 478.011279 
L 483.605009 477.873349 
L 483.705305 478.226368 
L 484.02701 482.758201 
L 484.248483 490.494179 
L 484.312438 490.338843 
L 484.661959 484.835393 
L 484.87574 481.855296 
L 485.149288 480.403216 
L 485.658211 479.408594 
L 485.754418 479.73535 
L 485.94913 482.048601 
L 486.040966 481.981417 
L 486.230295 477.130666 
L 486.330094 476.799838 
L 486.744093 476.492423 
L 487.14399 476.525913 
L 487.314777 476.782635 
L 487.603424 478.981368 
L 487.708911 478.491336 
L 488.00877 476.706596 
L 488.359312 476.477255 
L 488.919255 476.433586 
L 489.18178 477.314301 
L 489.291279 478.881 
L 489.425849 476.841573 
L 489.775214 476.780599 
L 489.866674 477.198664 
L 490.085392 478.52788 
L 490.103334 478.165598 
L 490.175793 477.442153 
L 490.229804 477.647165 
L 490.399246 480.577384 
L 490.890102 476.915577 
L 491.126483 476.832412 
L 493.309135 478.624278 
L 493.596588 481.685403 
L 493.632302 481.125337 
L 493.700026 479.15289 
L 493.844519 478.940855 
L 493.892627 478.639445 
L 494.162323 477.918036 
L 494.748785 477.468518 
L 495.056686 477.56288 
L 495.124927 477.729312 
L 495.251483 479.461425 
L 495.325923 478.640565 
L 495.456858 477.470554 
L 495.845504 476.597982 
L 496.311922 476.496494 
L 496.344166 476.556349 
L 496.46666 478.133125 
L 496.504803 477.593418 
L 496.628154 476.487333 
L 497.028428 476.510745 
L 497.199348 476.658855 
L 497.25826 477.477679 
L 497.363903 481.017741 
L 497.384672 480.572294 
L 497.510488 476.690309 
L 497.602847 476.57569 
L 497.969104 476.552277 
L 498.568525 476.847579 
L 498.740739 477.952544 
L 498.809841 481.042172 
L 498.937869 487.845825 
L 499.016368 485.521378 
L 499.210311 477.29608 
L 499.380437 476.880051 
L 499.414332 476.889213 
L 499.471683 477.300152 
L 499.590861 484.430765 
L 499.642994 480.94669 
L 499.756591 476.654783 
L 499.869704 476.584749 
L 500.091696 476.785689 
L 500.122459 476.963216 
L 500.257676 480.159421 
L 500.317397 479.221906 
L 500.428151 476.624347 
L 500.510914 476.522859 
L 500.806472 476.467076 
L 502.036303 476.491405 
L 502.166021 476.784671 
L 502.217731 478.45978 
L 502.307983 485.768023 
L 502.356848 483.686046 
L 502.525896 476.758307 
L 502.627828 476.848597 
L 502.724302 477.412735 
L 502.779995 479.976702 
L 502.873399 491.997258 
L 502.931296 490.307999 
L 503.056725 479.0229 
L 503.081739 479.275551 
L 503.236307 482.463612 
L 503.328123 481.742203 
L 503.503425 477.844949 
L 503.626186 477.287835 
L 503.942734 477.058596 
L 504.015251 477.335576 
L 504.147686 482.2018 
L 504.398697 476.797802 
L 504.517397 476.73184 
L 505.005573 476.674022 
L 505.098433 476.778563 
L 505.287786 477.688696 
L 505.377372 477.43401 
L 505.448367 477.088015 
L 505.698763 476.908451 
L 505.856886 477.693786 
L 506.101246 481.43886 
L 506.174785 481.165952 
L 506.414044 478.118874 
L 506.458116 478.371525 
L 506.587703 480.985269 
L 506.655539 480.299285 
L 506.829801 476.908451 
L 506.938138 476.825286 
L 507.132036 478.996637 
L 507.217761 477.377209 
L 507.49447 476.626383 
L 507.579034 476.906416 
L 507.623323 478.741951 
L 507.703277 484.879266 
L 507.747359 483.159572 
L 507.872907 476.897254 
L 507.914624 477.584155 
L 507.981236 480.323715 
L 508.039385 478.287342 
L 508.169756 476.457915 
L 508.775885 476.420353 
L 509.1167 476.630454 
L 509.166453 478.159592 
L 509.255775 489.814201 
L 509.295377 485.471906 
L 509.394124 476.846561 
L 509.472859 476.674022 
L 509.649163 476.779581 
L 509.779655 477.433094 
L 509.834 477.406627 
L 510.129006 476.814089 
L 510.213241 476.896236 
L 510.238078 477.080991 
L 510.314353 479.181392 
L 510.475713 477.45844 
L 510.70186 478.166717 
L 510.888855 479.063617 
L 511.056032 481.675223 
L 511.11522 481.440794 
L 511.27731 479.561691 
L 511.46031 478.043853 
L 511.514965 480.029533 
L 511.611248 487.987929 
L 511.656543 486.291545 
L 511.840553 476.581695 
L 511.867506 476.578642 
L 511.948201 477.944401 
L 511.978622 478.557298 
L 512.019725 477.924144 
L 512.073242 476.885141 
L 512.1053 477.523384 
L 512.194148 481.049195 
L 512.240232 480.068112 
L 512.339219 476.864884 
L 512.443111 476.636562 
L 512.863313 476.526931 
L 513.394223 476.584749 
L 513.478868 477.616729 
L 513.529526 477.074883 
L 513.607014 476.513799 
L 513.914726 476.569582 
L 514.19589 476.896236 
L 514.245199 477.228082 
L 514.315717 479.238091 
L 514.376246 478.241739 
L 514.408906 477.970867 
L 514.457822 478.428428 
L 514.57161 481.853871 
L 514.697831 490.744387 
L 514.781646 489.4225 
L 514.974061 479.104233 
L 515.147638 480.157385 
L 515.217386 479.98281 
L 515.433388 476.836382 
L 515.558713 476.646639 
L 515.574338 476.67107 
L 515.621155 477.259536 
L 515.661663 478.256906 
L 515.730075 477.361024 
L 515.857102 476.701506 
L 515.869462 476.744055 
L 515.931178 478.001201 
L 516.143003 476.802892 
L 516.222385 476.910487 
L 516.268074 477.014011 
L 516.425859 478.782566 
L 516.53756 481.654967 
L 516.55563 481.615369 
L 516.60075 480.912283 
L 516.615773 481.666164 
L 516.690761 490.340675 
L 516.750599 488.09644 
L 516.840104 477.911013 
L 516.884744 479.703896 
L 516.947114 485.449512 
L 517.007858 481.913725 
L 517.121563 476.703542 
L 517.34168 476.492423 
L 517.516468 476.536092 
L 517.559986 476.750163 
L 517.648253 481.207484 
L 517.690114 479.076748 
L 517.776512 476.47522 
L 517.934184 476.460969 
L 518.190189 476.720745 
L 518.218482 476.989581 
L 518.311636 483.729716 
L 518.377775 479.832665 
L 518.443749 477.426986 
L 518.499768 477.560844 
L 518.55567 479.097107 
L 518.642085 485.210094 
L 518.694911 483.000367 
L 518.764259 477.432992 
L 518.874839 477.143797 
L 519.353288 476.635544 
L 519.3939 476.915577 
L 519.481679 481.360682 
L 519.528825 479.729141 
L 519.622866 477.020017 
L 519.676455 477.274703 
L 519.829923 479.974666 
L 519.903008 479.358817 
L 520.088141 476.805946 
L 520.254973 476.592893 
L 520.279842 476.645621 
L 520.351701 477.85411 
L 520.402538 476.87089 
L 520.457177 476.573654 
L 520.690079 477.286919 
L 520.76983 480.469788 
L 520.857024 490.529298 
L 520.936276 488.722265 
L 521.101685 479.938123 
L 521.253462 476.781617 
L 521.518249 476.521841 
L 521.541964 476.584749 
L 521.625419 478.62723 
L 521.677601 477.204771 
L 521.75197 476.577624 
L 521.776713 476.580677 
L 521.917311 477.158048 
L 522.01921 489.56043 
L 522.07307 484.998059 
L 522.14634 477.171282 
L 522.224273 476.975431 
L 522.246151 477.046483 
L 522.300766 478.165598 
L 522.4796 485.386604 
L 522.50969 485.351078 
L 522.666807 477.075901 
L 522.747998 478.334065 
L 522.826565 489.568574 
L 522.882373 481.568646 
L 522.939247 477.043429 
L 522.980642 479.115328 
L 523.031409 482.028242 
L 523.080902 478.825116 
L 523.174921 476.546169 
L 523.289642 476.574672 
L 523.31066 476.778563 
L 523.38409 480.426221 
L 523.428283 478.328976 
L 523.5095 476.513697 
L 523.584694 476.558385 
L 523.685005 477.39655 
L 523.787233 490.146861 
L 523.847923 483.274191 
L 523.976858 477.343719 
L 524.010984 477.03325 
L 524.034846 477.55382 
L 524.122157 486.362597 
L 524.17192 481.955257 
L 524.24639 476.952121 
L 524.361072 476.695398 
L 524.492011 476.813071 
L 524.561137 477.456404 
L 524.655614 484.990933 
L 524.711033 480.961042 
L 524.779592 477.042411 
L 524.822627 477.263608 
L 524.876598 476.940924 
L 524.922771 477.044447 
L 524.998454 478.430463 
L 525.081567 479.907788 
L 525.387702 476.818161 
L 525.520132 477.749569 
L 525.641216 480.022407 
L 525.714882 491.88162 
L 525.772391 486.235864 
L 525.842511 478.515664 
L 525.896568 481.182137 
L 525.971641 486.10791 
L 526.022275 484.535409 
L 526.138997 477.135756 
L 526.213389 476.844525 
L 526.229079 476.879033 
L 526.318857 480.030551 
L 526.382352 478.110833 
L 526.402099 477.610621 
L 526.415601 478.031638 
L 526.467469 482.799428 
L 526.522338 478.931693 
L 526.657475 476.449771 
L 526.733508 476.528966 
L 526.780663 476.934816 
L 526.836934 476.471148 
L 526.981666 476.400096 
L 527.097291 476.528966 
L 527.161984 478.731771 
L 527.20032 477.314301 
L 527.291902 476.413329 
L 527.312992 476.426461 
L 527.347101 476.53711 
L 527.407188 476.473184 
L 527.52795 476.432568 
L 527.692736 476.545152 
L 527.745133 477.347791 
L 527.85257 480.598659 
L 527.889923 478.813918 
L 527.945855 477.009939 
L 527.964472 477.046483 
L 528.052485 478.281235 
L 528.141179 480.990359 
L 528.182015 480.438436 
L 528.320583 476.744055 
L 528.355354 476.924637 
L 528.436309 479.600271 
L 528.4863 478.087522 
L 528.632847 476.629436 
L 528.706295 476.750163 
L 528.749125 477.810441 
L 528.80992 480.547966 
L 528.856372 478.859624 
L 528.962245 476.755253 
L 529.044195 477.804435 
L 529.127768 489.59392 
L 529.172732 484.141774 
L 529.306238 476.601036 
L 529.322065 476.576606 
L 529.345323 476.629436 
L 529.398274 477.144917 
L 529.441856 476.552277 
L 529.528807 476.438676 
L 529.550962 476.463004 
L 529.599821 476.711583 
L 529.647671 476.467076 
L 529.738533 476.410276 
L 529.807161 476.418317 
L 529.909317 476.5422 
L 529.948434 477.871313 
L 530.009268 480.73669 
L 530.051859 478.04996 
L 530.109747 476.729906 
L 530.213448 476.79882 
L 530.287144 477.481751 
L 530.374953 481.782717 
L 530.418749 480.877674 
L 530.459798 479.627653 
L 530.488316 481.329127 
L 530.561255 482.791284 
L 530.602971 482.207907 
L 530.690627 479.518124 
L 530.748022 479.900561 
L 530.836081 480.690985 
L 530.905441 480.624107 
L 531.128968 478.340071 
L 531.283287 478.225452 
L 531.378206 479.141693 
L 531.46592 483.044953 
L 531.515667 481.277517 
L 531.598658 477.719133 
L 531.62598 478.953986 
L 531.650716 480.497273 
L 531.716282 477.461494 
L 531.729036 477.436046 
L 531.742634 477.515241 
L 531.801193 480.595707 
L 531.866389 486.469174 
L 531.916237 483.677089 
L 531.987046 477.615711 
L 532.050109 478.769333 
L 532.121399 482.422996 
L 532.170771 480.221311 
L 532.266741 477.101248 
L 532.388083 476.936852 
L 532.459301 477.016047 
L 532.564122 477.642075 
L 532.627474 481.430716 
L 532.677555 484.18127 
L 532.717716 482.604595 
L 532.761087 478.072253 
L 532.819892 481.541264 
L 532.837835 481.63868 
L 532.858209 481.157707 
L 532.957413 476.925655 
L 533.180482 476.53202 
L 533.387323 476.956192 
L 533.451133 478.369591 
L 533.533064 488.444471 
L 533.579882 483.394002 
L 533.604448 480.829118 
L 533.66932 484.727085 
L 533.690646 484.711918 
L 533.744279 482.53558 
L 533.768694 480.857519 
L 533.804881 485.166425 
L 533.848083 488.249639 
L 533.904532 484.170175 
L 534.092613 477.980945 
L 534.182668 479.813426 
L 534.253875 482.733466 
L 534.308698 481.909551 
L 534.417237 476.841472 
L 534.493948 476.5422 
L 534.658128 476.782635 
L 534.73035 478.376615 
L 534.803134 481.454027 
L 534.850035 480.431311 
L 534.914199 477.405609 
L 534.945094 479.250306 
L 534.992496 483.146441 
L 535.039814 478.920496 
L 535.087797 476.841472 
L 535.145411 478.958058 
L 535.150643 478.965183 
L 535.275147 476.521841 
L 535.444191 476.513697 
L 535.527575 479.585104 
L 535.576891 476.942959 
L 535.582773 476.896236 
L 535.598209 477.360006 
L 535.625382 478.718538 
L 535.669388 476.678093 
L 535.795865 476.385845 
L 536.07591 476.409258 
L 536.123499 477.241213 
L 536.189693 476.438676 
L 536.202624 476.439694 
L 536.234926 477.194592 
L 536.270771 480.426221 
L 536.330882 476.725834 
L 536.438597 476.40315 
L 536.540914 476.535074 
L 536.569265 478.138215 
L 536.61315 485.910024 
L 536.673903 477.121505 
L 536.691537 476.895218 
L 536.721137 478.362466 
L 536.825179 481.3617 
L 536.844116 480.002049 
L 536.977692 476.457915 
L 537.072395 476.517769 
L 537.256654 480.062921 
L 537.293904 478.905227 
L 537.362061 476.524895 
L 537.418382 477.554737 
L 537.432786 477.600442 
L 537.489641 476.615185 
L 537.545693 476.868854 
L 537.587313 481.140504 
L 537.624102 484.328361 
L 537.657441 480.664722 
L 537.685984 477.156013 
L 537.746367 481.814171 
L 537.758563 481.758389 
L 537.836347 477.340665 
L 537.887628 478.328976 
L 537.952934 480.979162 
L 537.995935 480.122877 
L 538.041548 477.336594 
L 538.074367 478.530832 
L 538.119846 480.586545 
L 538.157907 478.889042 
L 538.205241 477.23419 
L 538.24318 477.282847 
L 538.432068 478.941771 
L 538.503297 478.531849 
L 538.524365 478.681078 
L 538.573678 479.835719 
L 538.602566 479.725069 
L 538.666794 478.667845 
L 538.692312 479.483616 
L 538.716497 481.821297 
L 538.771976 478.458864 
L 538.843601 477.171282 
L 538.897518 481.439776 
L 538.940961 477.869278 
L 538.983686 476.984593 
L 539.050872 477.394514 
L 539.128827 480.653525 
L 539.175104 479.245216 
L 539.270618 476.673004 
L 539.300676 478.081415 
L 539.345379 486.678156 
L 539.404655 476.858675 
L 539.408475 476.780599 
L 539.433925 477.703965 
L 539.468245 480.536768 
L 539.527881 476.631472 
L 539.544352 476.683183 
L 539.612031 480.490147 
L 539.674496 477.286919 
L 539.707877 477.189503 
L 539.854757 476.496494 
L 539.916031 476.510644 
L 539.97467 477.29608 
L 540.021987 476.50362 
L 540.037533 476.485297 
L 540.05307 476.49853 
L 540.123804 476.689291 
L 540.219676 477.82571 
L 540.271489 477.288954 
L 540.349018 476.606024 
L 540.386471 476.920565 
L 540.422646 478.567375 
L 540.480179 476.560421 
L 540.499125 476.543116 
L 540.613128 476.844525 
L 540.662964 478.080397 
L 540.781709 497.199603 
L 540.816142 486.168884 
L 540.943218 476.556349 
L 541.072081 476.554313 
L 541.192585 476.661908 
L 541.272223 477.944401 
L 541.365818 477.152959 
L 541.487943 487.16605 
L 541.525588 495.900925 
L 541.581955 481.793914 
L 541.64347 477.326516 
L 541.704844 477.517277 
L 541.781215 476.658855 
L 541.821354 476.734894 
L 541.973213 481.356611 
L 542.007867 479.204601 
L 542.042477 476.857758 
L 542.110987 479.040205 
L 542.150056 478.022578 
L 542.170143 478.858606 
L 542.191361 479.922955 
L 542.230884 476.995688 
L 542.283491 476.523877 
L 542.335993 476.664962 
L 542.370748 476.919649 
L 542.423647 476.426461 
L 542.529129 476.388899 
L 542.716374 476.463004 
L 542.74839 478.525844 
L 542.780927 485.6362 
L 542.841407 476.671986 
L 543.03147 476.402132 
L 543.066991 476.423407 
L 543.12295 477.504044 
L 543.181 476.457915 
L 543.264261 476.494459 
L 543.334636 476.746091 
L 543.366463 480.960839 
L 543.394417 485.436279 
L 543.45953 476.587803 
L 543.51685 476.492423 
L 543.58656 476.535074 
L 543.773541 476.406204 
L 543.877571 476.872926 
L 544.022425 481.107014 
L 544.038471 479.956445 
L 544.102559 476.785689 
L 544.173941 476.855621 
L 544.227618 477.621716 
L 544.278537 480.317608 
L 544.339934 478.28836 
L 544.393804 480.410952 
L 544.586732 476.866818 
L 544.60087 476.814089 
L 544.642718 476.990599 
L 544.75798 479.559757 
L 544.783988 479.049366 
L 544.944155 476.509626 
L 544.986497 476.464022 
L 544.994751 476.477154 
L 545.041132 477.192556 
L 545.090002 476.448753 
L 545.169033 476.693362 
L 545.22943 476.568564 
L 545.273872 478.615116 
L 545.305498 480.31659 
L 545.343196 477.343719 
L 545.418432 476.47919 
L 545.456984 477.016963 
L 545.510155 482.135838 
L 545.5612 476.872926 
L 545.567763 476.846561 
L 545.584416 477.205688 
L 545.597024 477.459356 
L 545.636325 476.755253 
L 545.684615 476.915577 
L 545.703706 476.739984 
L 545.770917 477.203652 
L 545.823963 481.683265 
L 545.877403 478.559334 
L 545.97054 476.800856 
L 546.179034 476.946013 
L 546.214528 479.905752 
L 546.258336 494.57914 
L 546.318762 479.842844 
L 546.371706 478.659702 
L 546.406454 480.088369 
L 546.452389 488.674727 
L 546.503605 477.169246 
L 546.600887 476.502602 
L 546.696363 476.795766 
L 546.728274 479.869209 
L 546.767384 487.490771 
L 546.827626 477.005868 
L 546.88437 476.673004 
L 546.913656 477.251393 
L 546.945307 479.375003 
L 547.009451 476.528966 
L 547.029046 476.730822 
L 547.056741 477.660296 
L 547.110617 476.573552 
L 547.124902 476.606024 
L 547.174838 478.499377 
L 547.219938 488.244549 
L 547.275851 477.280811 
L 547.325977 476.826203 
L 547.441004 481.27141 
L 547.539136 495.34717 
L 547.488472 478.700317 
L 547.565836 483.69022 
L 547.627566 477.10532 
L 547.711513 477.478697 
L 547.788231 480.878692 
L 547.916529 476.848597 
L 547.940083 476.883105 
L 547.960849 478.392902 
L 548.005556 487.57699 
L 548.080512 481.360682 
L 548.146556 492.897211 
L 548.183633 483.266149 
L 548.265387 476.959145 
L 548.338705 476.875979 
L 548.359161 476.956091 
L 548.512311 481.450973 
L 548.560158 491.053838 
L 548.616922 479.618594 
L 548.745318 476.737948 
L 548.756512 476.824269 
L 548.805709 482.239361 
L 548.858384 476.688273 
L 548.869084 476.619257 
L 548.906057 476.718709 
L 548.940756 479.541434 
L 548.972746 486.698412 
L 549.03218 476.696416 
L 549.086176 476.496494 
L 549.199564 476.982455 
L 549.233442 483.529896 
L 549.271229 496.039974 
L 549.327808 477.949491 
L 549.352333 477.430956 
L 549.382956 478.931693 
L 549.501181 490.299958 
L 549.517717 488.675745 
L 549.579417 478.088438 
L 549.627114 485.007118 
L 549.640974 486.607104 
L 549.688561 481.072506 
L 549.774434 477.089033 
L 549.849722 476.963216 
L 549.940643 478.260978 
L 549.994107 491.239407 
L 550.097733 486.426523 
L 550.233158 477.4675 
L 550.258976 476.880051 
L 550.295332 479.198493 
L 550.310536 480.384587 
L 550.358204 476.536092 
L 550.493568 476.39806 
L 550.61197 476.509626 
L 550.645345 479.586122 
L 550.773034 483.782546 
L 550.71197 476.664962 
L 550.78382 483.566439 
L 550.843064 476.600018 
L 550.942611 477.289972 
L 550.978044 481.27141 
L 551.005616 485.580316 
L 551.057801 477.821638 
L 551.072164 478.601883 
L 551.080369 478.675989 
L 551.08898 478.287342 
L 551.135681 476.576606 
L 551.186794 476.662926 
L 551.393511 477.653171 
L 551.615117 483.865711 
L 551.836085 478.509557 
L 552.057601 490.472497 
L 552.278853 476.885141 
L 552.50022 476.680129 
L 552.7213 484.522176 
L 552.942465 476.491405 
L 553.163701 476.658855 
L 553.384988 478.415194 
L 553.606311 479.102095 
L 553.827654 488.542905 
L 554.049001 476.667914 
L 554.270337 477.523282 
L 554.491646 476.429514 
L 554.712915 476.613149 
L 554.934129 477.746515 
L 555.155275 476.97136 
L 555.376687 476.737948 
L 555.819196 487.08085 
L 556.040267 478.42741 
L 556.261876 483.89004 
L 556.482988 476.391953 
L 556.704266 476.66486 
L 556.92569 483.970151 
L 557.146915 476.540062 
L 557.368254 484.584066 
L 557.589368 476.93278 
L 557.810563 477.551683 
L 558.031831 476.367624 
L 558.253145 478.774321 
L 558.695859 476.637478 
L 558.916921 479.044276 
L 559.138277 479.914812 
L 559.359606 478.666827 
L 559.580888 498.55274 
L 559.802119 476.739984 
L 560.02357 477.526336 
L 560.244642 476.414246 
L 560.465904 480.0731 
L 560.687337 477.43401 
L 560.908639 477.440117 
L 561.572465 481.301846 
L 561.793665 477.112343 
L 562.014939 478.503449 
L 562.236271 484.811268 
L 562.457377 482.655288 
L 562.678512 476.654783 
L 562.900186 476.729804 
L 563.120024 479.268527 
L 563.343227 479.695651 
L 563.564569 482.575177 
L 564.006836 476.835364 
L 564.671479 486.912484 
L 565.112762 480.985269 
L 565.334281 481.686319 
L 565.997317 476.674022 
L 566.218566 490.716903 
L 566.440286 479.452162 
L 566.662452 476.739984 
L 567.103526 476.485297 
L 567.324683 479.348638 
L 567.546219 476.432568 
L 567.768111 476.39806 
L 567.990333 477.411717 
L 568.21071 476.460969 
L 568.431408 477.111325 
L 568.652403 480.853345 
L 568.873672 476.556349 
L 569.095193 480.312518 
L 569.316946 476.483261 
L 569.538909 476.453843 
L 569.759032 477.004748 
L 569.981371 479.19035 
L 570.201864 478.685048 
L 570.422521 477.128528 
L 570.645286 477.326414 
L 570.866197 477.875385 
L 571.087216 479.174165 
L 571.529509 477.306158 
L 571.750747 480.085214 
L 571.972025 488.540768 
L 572.193326 482.282929 
L 572.414635 482.078935 
L 572.635936 482.263588 
L 572.857214 476.595845 
L 573.078454 477.607465 
L 573.299643 478.055966 
L 573.520766 480.340918 
L 573.74181 478.071235 
L 573.964494 480.336846 
L 574.185327 476.683081 
L 574.406041 478.947878 
L 574.628316 483.301573 
L 574.848746 476.991617 
L 575.070684 490.2229 
L 575.290783 480.811712 
L 575.512341 480.405862 
L 575.733687 477.959568 
L 575.95481 478.408069 
L 576.177295 477.82459 
L 576.397932 481.472248 
L 576.619885 492.371653 
L 576.839999 478.878862 
L 577.282472 485.510282 
L 577.504765 476.86071 
L 577.725213 479.900561 
L 577.946828 478.703269 
L 578.168087 481.054183 
L 578.610968 476.717589 
L 578.832554 479.188314 
L 579.053736 476.661807 
L 579.27451 477.417723 
L 579.496276 482.93522 
L 579.717601 480.012126 
L 579.938479 484.569815 
L 580.158908 479.31922 
L 580.381603 482.12973 
L 580.602446 481.299708 
L 580.822806 476.616101 
L 581.045333 488.708116 
L 581.266011 477.761682 
L 581.48748 478.43138 
L 581.708411 476.570498 
L 581.930087 480.999418 
L 582.1512 494.9118 
L 582.371749 479.093951 
L 582.592985 493.041147 
L 582.814876 480.54084 
L 583.036159 481.986609 
L 583.256834 482.370166 
L 583.478112 477.615609 
L 583.699962 492.18588 
L 584.142903 478.3644 
L 584.363975 479.199409 
L 584.585545 476.723697 
L 585.027782 481.148545 
L 585.249567 492.895074 
L 585.470638 477.078853 
L 585.692112 485.28705 
L 585.912858 480.08216 
L 586.133976 481.416363 
L 586.35544 476.973294 
L 586.577227 479.271479 
L 586.798246 479.935069 
L 587.019559 479.581948 
L 587.240094 481.216543 
L 587.461939 478.011279 
L 587.682979 476.628317 
L 587.904244 478.227386 
L 588.125713 476.67901 
L 588.346359 488.182557 
L 588.568185 476.454759 
L 589.010285 481.864864 
L 589.231531 482.176351 
L 589.452882 478.005171 
L 589.67432 479.518022 
L 589.895829 478.217207 
L 590.117391 480.228233 
L 590.559681 479.315046 
L 590.781313 477.795172 
L 591.002023 478.801703 
L 591.223626 476.581594 
L 591.444292 476.493339 
L 591.665808 487.060491 
L 591.887256 476.761157 
L 592.108622 480.65037 
L 592.329893 476.425341 
L 592.551055 476.428395 
L 592.993853 480.041544 
L 593.214612 480.285034 
L 593.436046 476.688171 
L 593.6573 478.082229 
L 593.878362 476.974312 
L 594.100034 476.656717 
L 594.321481 488.916079 
L 594.542692 476.821011 
L 594.763658 477.317253 
L 594.985156 478.185753 
L 595.206379 476.883919 
L 595.42809 484.740115 
L 595.64873 484.694512 
L 595.870589 478.674767 
L 596.091363 478.567273 
L 596.312557 483.878741 
L 596.534145 482.682569 
L 596.976947 476.840352 
L 597.198137 479.955224 
L 597.418933 478.517497 
L 597.640748 479.983726 
L 597.861431 476.426359 
L 598.304297 480.194743 
L 598.525739 476.525709 
L 598.746712 476.396941 
L 598.967888 479.199409 
L 599.189247 479.247048 
L 599.41077 477.034064 
L 599.631778 478.151346 
L 599.853575 490.71049 
L 600.516988 476.482651 
L 600.738496 477.093206 
L 600.959425 476.373426 
L 601.181018 479.109424 
L 601.402009 476.389408 
L 601.623622 482.041781 
L 602.066186 476.892775 
L 602.50859 481.724491 
L 602.563524 479.907585 
L 605.361182 480.557636 
L 623.766457 480.512745 
L 671.343401 479.917357 
L 678.98228 479.681196 
L 695.67385 478.72546 
L 709.237904 473.295302 
L 718.172318 471.972906 
L 721.718004 471.307688 
L 727.643179 469.970023 
L 732.484399 468.622689 
L 736.577593 467.266091 
L 740.123278 465.897583 
L 743.250794 464.502812 
L 746.048453 463.079743 
L 750.889673 460.14759 
L 754.982867 457.101632 
L 758.528553 453.964162 
L 761.656069 450.872092 
L 764.453727 447.847918 
L 766.984518 444.891945 
L 771.420338 439.17697 
L 775.220123 433.571116 
L 777.345513 430.090807 
L 779.313316 426.628616 
L 781.145298 423.158079 
L 784.468779 416.115211 
L 785.986518 412.544408 
L 787.422176 408.864889 
L 788.784177 404.999699 
L 790.079712 400.948737 
L 792.495303 392.438113 
L 797.718591 372.84964 
L 799.550572 365.760762 
L 801.264276 358.423712 
L 802.874054 350.177343 
L 812.030672 298.380585 
L 813.640449 287.592949 
L 824.922457 205.889452 
L 831.519901 153.014704 
L 834.050691 130.142892 
L 836.361121 107.367681 
L 836.361121 107.367681 
" clip-path="url(#p626a4ee8e1)" style="fill: none; stroke: #ab1239; stroke-opacity: 0.8; stroke-width: 5; stroke-linecap: square"/>
   </g>
   <g id="patch_3">
    <path d="M 73.4975 566.88 
L 73.4975 57.914 
" style="fill: none; stroke: #000000; stroke-width: 0.8; stroke-linejoin: miter; stroke-linecap: square"/>
   </g>
   <g id="patch_4">
    <path d="M 844 566.88 
L 844 57.914 
" style="fill: none; stroke: #000000; stroke-width: 0.8; stroke-linejoin: miter; stroke-linecap: square"/>
   </g>
   <g id="patch_5">
    <path d="M 73.4975 566.88 
L 844 566.88 
" style="fill: none; stroke: #000000; stroke-width: 0.8; stroke-linejoin: miter; stroke-linecap: square"/>
   </g>
   <g id="patch_6">
    <path d="M 73.4975 57.914 
L 844 57.914 
" style="fill: none; stroke: #000000; stroke-width: 0.8; stroke-linejoin: miter; stroke-linecap: square"/>
   </g>
   <g id="text_15">
    <!-- Yield of fission neutrons -->
    <g transform="translate(303.87375 39.18985) scale(0.3 -0.3)">
     <use xlink:href="#Aptos-59"/>
     <use xlink:href="#Aptos-69" transform="translate(53.955078 0)"/>
     <use xlink:href="#Aptos-65" transform="translate(77.832031 0)"/>
     <use xlink:href="#Aptos-6c" transform="translate(130.517578 0)"/>
     <use xlink:href="#Aptos-64" transform="translate(156.542969 0)"/>
     <use xlink:href="#Aptos-20" transform="translate(212.597656 0)"/>
     <use xlink:href="#Aptos-6f" transform="translate(232.910156 0)"/>
     <use xlink:href="#Aptos-66" transform="translate(288.085938 0)"/>
     <use xlink:href="#Aptos-20" transform="translate(318.212891 0)"/>
     <use xlink:href="#Aptos-66" transform="translate(338.525391 0)"/>
     <use xlink:href="#Aptos-69" transform="translate(368.652344 0)"/>
     <use xlink:href="#Aptos-73" transform="translate(392.529297 0)"/>
     <use xlink:href="#Aptos-73" transform="translate(441.113281 0)"/>
     <use xlink:href="#Aptos-69" transform="translate(489.697266 0)"/>
     <use xlink:href="#Aptos-6f" transform="translate(513.574219 0)"/>
     <use xlink:href="#Aptos-6e" transform="translate(568.75 0)"/>
     <use xlink:href="#Aptos-20" transform="translate(623.876953 0)"/>
     <use xlink:href="#Aptos-6e" transform="translate(644.189453 0)"/>
     <use xlink:href="#Aptos-65" transform="translate(699.316406 0)"/>
     <use xlink:href="#Aptos-75" transform="translate(752.001953 0)"/>
     <use xlink:href="#Aptos-74" transform="translate(807.861328 0)"/>
     <use xlink:href="#Aptos-72" transform="translate(840.185547 0)"/>
     <use xlink:href="#Aptos-6f" transform="translate(873.632812 0)"/>
     <use xlink:href="#Aptos-6e" transform="translate(928.808594 0)"/>
     <use xlink:href="#Aptos-73" transform="translate(983.935547 0)"/>
    </g>
   </g>
   <g id="legend_1">
    <g id="patch_7">
     <path d="M 87.4975 158.514 
L 205.2975 158.514 
Q 209.2975 158.514 209.2975 154.514 
L 209.2975 71.914 
Q 209.2975 67.914 205.2975 67.914 
L 87.4975 67.914 
Q 83.4975 67.914 83.4975 71.914 
L 83.4975 154.514 
Q 83.4975 158.514 87.4975 158.514 
z
" style="fill: #ffffff; opacity: 0.95; stroke: #cccccc; stroke-linejoin: miter"/>
    </g>
    <g id="line2d_28">
     <path d="M 91.4975 83.617125 
L 111.4975 83.617125 
L 131.4975 83.617125 
" style="fill: none; stroke: #0652ff; stroke-opacity: 0.9; stroke-width: 5; stroke-linecap: square"/>
    </g>
    <g id="text_16">
     <!-- $\mathrm{^{233}U}$ -->
     <g transform="translate(147.4975 90.617125) scale(0.2 -0.2)">
      <defs>
       <path id="DejaVuSerif-32" d="M 819 3553 
L 469 3553 
L 469 4384 
Q 803 4563 1142 4656 
Q 1481 4750 1806 4750 
Q 2534 4750 2956 4397 
Q 3378 4044 3378 3438 
Q 3378 2753 2422 1800 
Q 2347 1728 2309 1691 
L 1131 513 
L 3078 513 
L 3078 1088 
L 3444 1088 
L 3444 0 
L 434 0 
L 434 341 
L 1850 1753 
Q 2319 2222 2519 2614 
Q 2719 3006 2719 3438 
Q 2719 3909 2473 4175 
Q 2228 4441 1797 4441 
Q 1350 4441 1106 4219 
Q 863 3997 819 3553 
z
" transform="scale(0.015625)"/>
       <path id="DejaVuSerif-33" d="M 622 4469 
Q 988 4606 1323 4678 
Q 1659 4750 1953 4750 
Q 2638 4750 3022 4454 
Q 3406 4159 3406 3634 
Q 3406 3213 3140 2930 
Q 2875 2647 2388 2547 
Q 2963 2466 3280 2130 
Q 3597 1794 3597 1259 
Q 3597 606 3158 257 
Q 2719 -91 1894 -91 
Q 1528 -91 1179 -12 
Q 831 66 488 225 
L 488 1131 
L 838 1131 
Q 869 681 1141 450 
Q 1413 219 1906 219 
Q 2384 219 2661 495 
Q 2938 772 2938 1253 
Q 2938 1803 2653 2086 
Q 2369 2369 1819 2369 
L 1522 2369 
L 1522 2688 
L 1678 2688 
Q 2225 2688 2498 2914 
Q 2772 3141 2772 3597 
Q 2772 4006 2547 4223 
Q 2322 4441 1900 4441 
Q 1478 4441 1245 4241 
Q 1013 4041 972 3647 
L 622 3647 
L 622 4469 
z
" transform="scale(0.015625)"/>
       <path id="DejaVuSerif-55" d="M 897 4331 
L 300 4331 
L 300 4666 
L 2125 4666 
L 2125 4331 
L 1528 4331 
L 1528 1919 
Q 1528 1025 1820 672 
Q 2113 319 2828 319 
Q 3544 319 3836 672 
Q 4128 1025 4128 1919 
L 4128 4331 
L 3531 4331 
L 3531 4666 
L 5106 4666 
L 5106 4331 
L 4513 4331 
L 4513 1856 
Q 4513 791 4103 350 
Q 3694 -91 2713 -91 
Q 1731 -91 1314 353 
Q 897 797 897 1856 
L 897 4331 
z
" transform="scale(0.015625)"/>
      </defs>
      <use xlink:href="#DejaVuSerif-32" transform="translate(0.908359 37.046875) scale(0.7)"/>
      <use xlink:href="#DejaVuSerif-33" transform="translate(45.444492 37.046875) scale(0.7)"/>
      <use xlink:href="#DejaVuSerif-33" transform="translate(89.980625 37.046875) scale(0.7)"/>
      <use xlink:href="#DejaVuSerif-55" transform="translate(137.11207 0.7125)"/>
     </g>
    </g>
    <g id="line2d_29">
     <path d="M 91.4975 111.817125 
L 111.4975 111.817125 
L 131.4975 111.817125 
" style="fill: none; stroke: #510ac9; stroke-width: 5; stroke-linecap: square"/>
    </g>
    <g id="text_17">
     <!-- $\mathrm{^{235}U}$ -->
     <g transform="translate(147.4975 118.817125) scale(0.2 -0.2)">
      <defs>
       <path id="DejaVuSerif-35" d="M 3219 4666 
L 3219 4153 
L 1081 4153 
L 1081 2816 
Q 1244 2928 1461 2984 
Q 1678 3041 1947 3041 
Q 2703 3041 3140 2622 
Q 3578 2203 3578 1478 
Q 3578 738 3136 323 
Q 2694 -91 1894 -91 
Q 1572 -91 1234 -12 
Q 897 66 544 225 
L 544 1131 
L 897 1131 
Q 925 688 1179 453 
Q 1434 219 1894 219 
Q 2388 219 2653 544 
Q 2919 869 2919 1478 
Q 2919 2084 2655 2407 
Q 2391 2731 1894 2731 
Q 1613 2731 1398 2631 
Q 1184 2531 1019 2322 
L 750 2322 
L 750 4666 
L 3219 4666 
z
" transform="scale(0.015625)"/>
      </defs>
      <use xlink:href="#DejaVuSerif-32" transform="translate(0.908359 37.046875) scale(0.7)"/>
      <use xlink:href="#DejaVuSerif-33" transform="translate(45.444492 37.046875) scale(0.7)"/>
      <use xlink:href="#DejaVuSerif-35" transform="translate(89.980625 37.046875) scale(0.7)"/>
      <use xlink:href="#DejaVuSerif-55" transform="translate(137.11207 0.7125)"/>
     </g>
    </g>
    <g id="line2d_30">
     <path d="M 91.4975 140.017125 
L 111.4975 140.017125 
L 131.4975 140.017125 
" style="fill: none; stroke: #ab1239; stroke-opacity: 0.8; stroke-width: 5; stroke-linecap: square"/>
    </g>
    <g id="text_18">
     <!-- $\mathrm{^{239}Pu}$ -->
     <g transform="translate(147.4975 147.017125) scale(0.2 -0.2)">
      <defs>
       <path id="DejaVuSerif-39" d="M 2994 2091 
Q 2784 1856 2512 1740 
Q 2241 1625 1900 1625 
Q 1206 1625 804 2044 
Q 403 2463 403 3188 
Q 403 3897 839 4323 
Q 1275 4750 2003 4750 
Q 2794 4750 3217 4161 
Q 3641 3572 3641 2478 
Q 3641 1253 3137 581 
Q 2634 -91 1722 -91 
Q 1475 -91 1203 -44 
Q 931 3 647 97 
L 647 872 
L 997 872 
Q 1038 556 1241 387 
Q 1444 219 1784 219 
Q 2391 219 2687 676 
Q 2984 1134 2994 2091 
z
M 1978 4441 
Q 1534 4441 1298 4117 
Q 1063 3794 1063 3188 
Q 1063 2581 1298 2256 
Q 1534 1931 1978 1931 
Q 2422 1931 2658 2245 
Q 2894 2559 2894 3150 
Q 2894 3772 2656 4106 
Q 2419 4441 1978 4441 
z
" transform="scale(0.015625)"/>
       <path id="DejaVuSerif-50" d="M 1581 2375 
L 2406 2375 
Q 2872 2375 3115 2626 
Q 3359 2878 3359 3353 
Q 3359 3831 3115 4081 
Q 2872 4331 2406 4331 
L 1581 4331 
L 1581 2375 
z
M 353 0 
L 353 331 
L 947 331 
L 947 4331 
L 353 4331 
L 353 4666 
L 2559 4666 
Q 3259 4666 3668 4311 
Q 4078 3956 4078 3353 
Q 4078 2753 3668 2397 
Q 3259 2041 2559 2041 
L 1581 2041 
L 1581 331 
L 2303 331 
L 2303 0 
L 353 0 
z
" transform="scale(0.015625)"/>
       <path id="DejaVuSerif-75" d="M 2266 3322 
L 3341 3322 
L 3341 331 
L 3884 331 
L 3884 0 
L 2766 0 
L 2766 588 
Q 2606 256 2353 82 
Q 2100 -91 1766 -91 
Q 1213 -91 952 223 
Q 691 538 691 1209 
L 691 2988 
L 172 2988 
L 172 3322 
L 1269 3322 
L 1269 1388 
Q 1269 781 1417 556 
Q 1566 331 1947 331 
Q 2347 331 2556 625 
Q 2766 919 2766 1478 
L 2766 2988 
L 2266 2988 
L 2266 3322 
z
" transform="scale(0.015625)"/>
      </defs>
      <use xlink:href="#DejaVuSerif-32" transform="translate(0.908359 37.046875) scale(0.7)"/>
      <use xlink:href="#DejaVuSerif-33" transform="translate(45.444492 37.046875) scale(0.7)"/>
      <use xlink:href="#DejaVuSerif-39" transform="translate(89.980625 37.046875) scale(0.7)"/>
      <use xlink:href="#DejaVuSerif-50" transform="translate(137.11207 0.7125)"/>
      <use xlink:href="#DejaVuSerif-75" transform="translate(204.397227 0.7125)"/>
     </g>
    </g>
   </g>
  </g>
 </g>
 <defs>
  <clipPath id="p626a4ee8e1">
   <rect x="73.4975" y="57.914" width="770.5025" height="508.966"/>
  </clipPath>
 </defs>
</svg>
