<?xml version="1.0" encoding="utf-8" standalone="no"?>
<!DOCTYPE svg PUBLIC "-//W3C//DTD SVG 1.1//EN"
  "http://www.w3.org/Graphics/SVG/1.1/DTD/svg11.dtd">
<svg xmlns:xlink="http://www.w3.org/1999/xlink" width="864pt" height="648pt" viewBox="0 0 864 648" xmlns="http://www.w3.org/2000/svg" version="1.1">
 <metadata>
  <rdf:RDF xmlns:dc="http://purl.org/dc/elements/1.1/" xmlns:cc="http://creativecommons.org/ns#" xmlns:rdf="http://www.w3.org/1999/02/22-rdf-syntax-ns#">
   <cc:Work>
    <dc:type rdf:resource="http://purl.org/dc/dcmitype/StillImage"/>
    <dc:date>2025-10-21T14:37:09.788910</dc:date>
    <dc:format>image/svg+xml</dc:format>
    <dc:creator>
     <cc:Agent>
      <dc:title>Matplotlib v3.10.7, https://matplotlib.org/</dc:title>
     </cc:Agent>
    </dc:creator>
   </cc:Work>
  </rdf:RDF>
 </metadata>
 <defs>
  <style type="text/css">*{stroke-linejoin: round; stroke-linecap: butt}</style>
 </defs>
 <g id="figure_1">
  <g id="patch_1">
   <path d="M 0 648 
L 864 648 
L 864 0 
L 0 0 
z
" style="fill: #ffffff; stroke: #000000; stroke-width: 3; stroke-linejoin: miter"/>
  </g>
  <g id="axes_1">
   <g id="patch_2">
    <path d="M 75.7475 560.571 
L 844 560.571 
L 844 62.234 
L 75.7475 62.234 
L 75.7475 560.571 
z
" style="fill: none"/>
   </g>
   <g id="matplotlib.axis_1">
    <g id="xtick_1">
     <g id="line2d_1">
      <path d="M 197.672385 560.571 
L 197.672385 62.234 
" clip-path="url(#pfae9f42b03)" style="fill: none; stroke-dasharray: 4.625,2; stroke-dashoffset: 0; stroke: #343837; stroke-opacity: 0.8; stroke-width: 1.25"/>
     </g>
     <g id="line2d_2">
      <defs>
       <path id="m8a86492dd8" d="M 0 0 
L 0 3.5 
" style="stroke: #000000; stroke-width: 0.8"/>
      </defs>
      <g>
       <use xlink:href="#m8a86492dd8" x="197.672385" y="560.571" style="stroke: #000000; stroke-width: 0.8"/>
      </g>
     </g>
     <g id="text_1">
      <!-- $\mathdefault{10^{-9}}$ -->
      <g transform="translate(171.932385 584.287562) scale(0.22 -0.22)">
       <defs>
        <path id="DejaVuSerif-31" d="M 909 0 
L 909 331 
L 1722 331 
L 1722 4213 
L 781 3603 
L 781 4013 
L 1919 4750 
L 2350 4750 
L 2350 331 
L 3163 331 
L 3163 0 
L 909 0 
z
" transform="scale(0.015625)"/>
        <path id="DejaVuSerif-30" d="M 2034 219 
Q 2513 219 2750 744 
Q 2988 1269 2988 2328 
Q 2988 3391 2750 3916 
Q 2513 4441 2034 4441 
Q 1556 4441 1318 3916 
Q 1081 3391 1081 2328 
Q 1081 1269 1318 744 
Q 1556 219 2034 219 
z
M 2034 -91 
Q 1275 -91 848 546 
Q 422 1184 422 2328 
Q 422 3475 848 4112 
Q 1275 4750 2034 4750 
Q 2797 4750 3222 4112 
Q 3647 3475 3647 2328 
Q 3647 1184 3222 546 
Q 2797 -91 2034 -91 
z
" transform="scale(0.015625)"/>
        <path id="DejaVuSerif-2212" d="M 678 2259 
L 4684 2259 
L 4684 1753 
L 678 1753 
L 678 2259 
z
" transform="scale(0.015625)"/>
        <path id="DejaVuSerif-39" d="M 2994 2091 
Q 2784 1856 2512 1740 
Q 2241 1625 1900 1625 
Q 1206 1625 804 2044 
Q 403 2463 403 3188 
Q 403 3897 839 4323 
Q 1275 4750 2003 4750 
Q 2794 4750 3217 4161 
Q 3641 3572 3641 2478 
Q 3641 1253 3137 581 
Q 2634 -91 1722 -91 
Q 1475 -91 1203 -44 
Q 931 3 647 97 
L 647 872 
L 997 872 
Q 1038 556 1241 387 
Q 1444 219 1784 219 
Q 2391 219 2687 676 
Q 2984 1134 2994 2091 
z
M 1978 4441 
Q 1534 4441 1298 4117 
Q 1063 3794 1063 3188 
Q 1063 2581 1298 2256 
Q 1534 1931 1978 1931 
Q 2422 1931 2658 2245 
Q 2894 2559 2894 3150 
Q 2894 3772 2656 4106 
Q 2419 4441 1978 4441 
z
" transform="scale(0.015625)"/>
       </defs>
       <use xlink:href="#DejaVuSerif-31" transform="translate(0 0.7125)"/>
       <use xlink:href="#DejaVuSerif-30" transform="translate(63.623047 0.7125)"/>
       <use xlink:href="#DejaVuSerif-2212" transform="translate(128.154453 37.046875) scale(0.7)"/>
       <use xlink:href="#DejaVuSerif-39" transform="translate(186.806797 37.046875) scale(0.7)"/>
      </g>
     </g>
    </g>
    <g id="xtick_2">
     <g id="line2d_3">
      <path d="M 319.597297 560.571 
L 319.597297 62.234 
" clip-path="url(#pfae9f42b03)" style="fill: none; stroke-dasharray: 4.625,2; stroke-dashoffset: 0; stroke: #343837; stroke-opacity: 0.8; stroke-width: 1.25"/>
     </g>
     <g id="line2d_4">
      <g>
       <use xlink:href="#m8a86492dd8" x="319.597297" y="560.571" style="stroke: #000000; stroke-width: 0.8"/>
      </g>
     </g>
     <g id="text_2">
      <!-- $\mathdefault{10^{-7}}$ -->
      <g transform="translate(293.857297 584.287562) scale(0.22 -0.22)">
       <defs>
        <path id="DejaVuSerif-37" d="M 3609 4347 
L 1784 0 
L 1319 0 
L 3059 4153 
L 903 4153 
L 903 3578 
L 538 3578 
L 538 4666 
L 3609 4666 
L 3609 4347 
z
" transform="scale(0.015625)"/>
       </defs>
       <use xlink:href="#DejaVuSerif-31" transform="translate(0 0.63125)"/>
       <use xlink:href="#DejaVuSerif-30" transform="translate(63.623047 0.63125)"/>
       <use xlink:href="#DejaVuSerif-2212" transform="translate(128.154453 36.965625) scale(0.7)"/>
       <use xlink:href="#DejaVuSerif-37" transform="translate(186.806797 36.965625) scale(0.7)"/>
      </g>
     </g>
    </g>
    <g id="xtick_3">
     <g id="line2d_5">
      <path d="M 441.522209 560.571 
L 441.522209 62.234 
" clip-path="url(#pfae9f42b03)" style="fill: none; stroke-dasharray: 4.625,2; stroke-dashoffset: 0; stroke: #343837; stroke-opacity: 0.8; stroke-width: 1.25"/>
     </g>
     <g id="line2d_6">
      <g>
       <use xlink:href="#m8a86492dd8" x="441.522209" y="560.571" style="stroke: #000000; stroke-width: 0.8"/>
      </g>
     </g>
     <g id="text_3">
      <!-- $\mathdefault{10^{-5}}$ -->
      <g transform="translate(415.782209 584.287562) scale(0.22 -0.22)">
       <defs>
        <path id="DejaVuSerif-35" d="M 3219 4666 
L 3219 4153 
L 1081 4153 
L 1081 2816 
Q 1244 2928 1461 2984 
Q 1678 3041 1947 3041 
Q 2703 3041 3140 2622 
Q 3578 2203 3578 1478 
Q 3578 738 3136 323 
Q 2694 -91 1894 -91 
Q 1572 -91 1234 -12 
Q 897 66 544 225 
L 544 1131 
L 897 1131 
Q 925 688 1179 453 
Q 1434 219 1894 219 
Q 2388 219 2653 544 
Q 2919 869 2919 1478 
Q 2919 2084 2655 2407 
Q 2391 2731 1894 2731 
Q 1613 2731 1398 2631 
Q 1184 2531 1019 2322 
L 750 2322 
L 750 4666 
L 3219 4666 
z
" transform="scale(0.015625)"/>
       </defs>
       <use xlink:href="#DejaVuSerif-31" transform="translate(0 0.63125)"/>
       <use xlink:href="#DejaVuSerif-30" transform="translate(63.623047 0.63125)"/>
       <use xlink:href="#DejaVuSerif-2212" transform="translate(128.154453 36.965625) scale(0.7)"/>
       <use xlink:href="#DejaVuSerif-35" transform="translate(186.806797 36.965625) scale(0.7)"/>
      </g>
     </g>
    </g>
    <g id="xtick_4">
     <g id="line2d_7">
      <path d="M 563.447121 560.571 
L 563.447121 62.234 
" clip-path="url(#pfae9f42b03)" style="fill: none; stroke-dasharray: 4.625,2; stroke-dashoffset: 0; stroke: #343837; stroke-opacity: 0.8; stroke-width: 1.25"/>
     </g>
     <g id="line2d_8">
      <g>
       <use xlink:href="#m8a86492dd8" x="563.447121" y="560.571" style="stroke: #000000; stroke-width: 0.8"/>
      </g>
     </g>
     <g id="text_4">
      <!-- $\mathdefault{10^{-3}}$ -->
      <g transform="translate(537.707121 584.287562) scale(0.22 -0.22)">
       <defs>
        <path id="DejaVuSerif-33" d="M 622 4469 
Q 988 4606 1323 4678 
Q 1659 4750 1953 4750 
Q 2638 4750 3022 4454 
Q 3406 4159 3406 3634 
Q 3406 3213 3140 2930 
Q 2875 2647 2388 2547 
Q 2963 2466 3280 2130 
Q 3597 1794 3597 1259 
Q 3597 606 3158 257 
Q 2719 -91 1894 -91 
Q 1528 -91 1179 -12 
Q 831 66 488 225 
L 488 1131 
L 838 1131 
Q 869 681 1141 450 
Q 1413 219 1906 219 
Q 2384 219 2661 495 
Q 2938 772 2938 1253 
Q 2938 1803 2653 2086 
Q 2369 2369 1819 2369 
L 1522 2369 
L 1522 2688 
L 1678 2688 
Q 2225 2688 2498 2914 
Q 2772 3141 2772 3597 
Q 2772 4006 2547 4223 
Q 2322 4441 1900 4441 
Q 1478 4441 1245 4241 
Q 1013 4041 972 3647 
L 622 3647 
L 622 4469 
z
" transform="scale(0.015625)"/>
       </defs>
       <use xlink:href="#DejaVuSerif-31" transform="translate(0 0.7125)"/>
       <use xlink:href="#DejaVuSerif-30" transform="translate(63.623047 0.7125)"/>
       <use xlink:href="#DejaVuSerif-2212" transform="translate(128.154453 37.046875) scale(0.7)"/>
       <use xlink:href="#DejaVuSerif-33" transform="translate(186.806797 37.046875) scale(0.7)"/>
      </g>
     </g>
    </g>
    <g id="xtick_5">
     <g id="line2d_9">
      <path d="M 685.372033 560.571 
L 685.372033 62.234 
" clip-path="url(#pfae9f42b03)" style="fill: none; stroke-dasharray: 4.625,2; stroke-dashoffset: 0; stroke: #343837; stroke-opacity: 0.8; stroke-width: 1.25"/>
     </g>
     <g id="line2d_10">
      <g>
       <use xlink:href="#m8a86492dd8" x="685.372033" y="560.571" style="stroke: #000000; stroke-width: 0.8"/>
      </g>
     </g>
     <g id="text_5">
      <!-- $\mathdefault{10^{-1}}$ -->
      <g transform="translate(659.632033 584.287562) scale(0.22 -0.22)">
       <use xlink:href="#DejaVuSerif-31" transform="translate(0 0.7125)"/>
       <use xlink:href="#DejaVuSerif-30" transform="translate(63.623047 0.7125)"/>
       <use xlink:href="#DejaVuSerif-2212" transform="translate(128.154453 37.046875) scale(0.7)"/>
       <use xlink:href="#DejaVuSerif-31" transform="translate(186.806797 37.046875) scale(0.7)"/>
      </g>
     </g>
    </g>
    <g id="xtick_6">
     <g id="line2d_11">
      <path d="M 807.296944 560.571 
L 807.296944 62.234 
" clip-path="url(#pfae9f42b03)" style="fill: none; stroke-dasharray: 4.625,2; stroke-dashoffset: 0; stroke: #343837; stroke-opacity: 0.8; stroke-width: 1.25"/>
     </g>
     <g id="line2d_12">
      <g>
       <use xlink:href="#m8a86492dd8" x="807.296944" y="560.571" style="stroke: #000000; stroke-width: 0.8"/>
      </g>
     </g>
     <g id="text_6">
      <!-- $\mathdefault{10^{1}}$ -->
      <g transform="translate(787.936944 584.287562) scale(0.22 -0.22)">
       <use xlink:href="#DejaVuSerif-31" transform="translate(0 0.7125)"/>
       <use xlink:href="#DejaVuSerif-30" transform="translate(63.623047 0.7125)"/>
       <use xlink:href="#DejaVuSerif-31" transform="translate(128.154453 37.046875) scale(0.7)"/>
      </g>
     </g>
    </g>
    <g id="text_7">
     <!-- Energy of incident neutron (MeV) -->
     <g transform="translate(237.074062 620.618812) scale(0.26 -0.26)">
      <defs>
       <path id="DejaVuSerif-45" d="M 353 0 
L 353 331 
L 947 331 
L 947 4331 
L 353 4331 
L 353 4666 
L 4109 4666 
L 4109 3628 
L 3725 3628 
L 3725 4281 
L 1581 4281 
L 1581 2719 
L 3109 2719 
L 3109 3303 
L 3494 3303 
L 3494 1753 
L 3109 1753 
L 3109 2338 
L 1581 2338 
L 1581 384 
L 3775 384 
L 3775 1038 
L 4159 1038 
L 4159 0 
L 353 0 
z
" transform="scale(0.015625)"/>
       <path id="DejaVuSerif-6e" d="M 263 0 
L 263 331 
L 781 331 
L 781 2988 
L 231 2988 
L 231 3322 
L 1356 3322 
L 1356 2731 
Q 1516 3069 1770 3241 
Q 2025 3413 2363 3413 
Q 2913 3413 3172 3097 
Q 3431 2781 3431 2113 
L 3431 331 
L 3944 331 
L 3944 0 
L 2356 0 
L 2356 331 
L 2853 331 
L 2853 1931 
Q 2853 2541 2703 2767 
Q 2553 2994 2175 2994 
Q 1775 2994 1565 2701 
Q 1356 2409 1356 1850 
L 1356 331 
L 1856 331 
L 1856 0 
L 263 0 
z
" transform="scale(0.015625)"/>
       <path id="DejaVuSerif-65" d="M 3469 1600 
L 991 1600 
L 991 1575 
Q 991 903 1244 561 
Q 1497 219 1991 219 
Q 2369 219 2611 417 
Q 2853 616 2950 1006 
L 3413 1006 
Q 3275 459 2904 184 
Q 2534 -91 1931 -91 
Q 1203 -91 761 389 
Q 319 869 319 1663 
Q 319 2450 753 2931 
Q 1188 3413 1894 3413 
Q 2647 3413 3050 2948 
Q 3453 2484 3469 1600 
z
M 2791 1931 
Q 2772 2513 2545 2808 
Q 2319 3103 1894 3103 
Q 1497 3103 1269 2806 
Q 1041 2509 991 1931 
L 2791 1931 
z
" transform="scale(0.015625)"/>
       <path id="DejaVuSerif-72" d="M 3059 3328 
L 3059 2497 
L 2728 2497 
Q 2713 2744 2591 2866 
Q 2469 2988 2234 2988 
Q 1809 2988 1582 2694 
Q 1356 2400 1356 1850 
L 1356 331 
L 2022 331 
L 2022 0 
L 263 0 
L 263 331 
L 781 331 
L 781 2994 
L 231 2994 
L 231 3322 
L 1356 3322 
L 1356 2731 
Q 1525 3078 1790 3245 
Q 2056 3413 2438 3413 
Q 2578 3413 2733 3391 
Q 2888 3369 3059 3328 
z
" transform="scale(0.015625)"/>
       <path id="DejaVuSerif-67" d="M 3359 2988 
L 3359 72 
Q 3359 -644 2965 -1033 
Q 2572 -1422 1844 -1422 
Q 1516 -1422 1216 -1362 
Q 916 -1303 641 -1184 
L 641 -488 
L 941 -488 
Q 997 -813 1206 -963 
Q 1416 -1113 1806 -1113 
Q 2313 -1113 2548 -827 
Q 2784 -541 2784 72 
L 2784 519 
Q 2616 206 2355 57 
Q 2094 -91 1709 -91 
Q 1097 -91 708 395 
Q 319 881 319 1663 
Q 319 2444 706 2928 
Q 1094 3413 1709 3413 
Q 2094 3413 2355 3264 
Q 2616 3116 2784 2803 
L 2784 3322 
L 3909 3322 
L 3909 2988 
L 3359 2988 
z
M 2784 1825 
Q 2784 2422 2554 2737 
Q 2325 3053 1888 3053 
Q 1444 3053 1217 2703 
Q 991 2353 991 1663 
Q 991 975 1217 622 
Q 1444 269 1888 269 
Q 2325 269 2554 583 
Q 2784 897 2784 1497 
L 2784 1825 
z
" transform="scale(0.015625)"/>
       <path id="DejaVuSerif-79" d="M 1381 -609 
L 1600 -56 
L 359 2988 
L -19 2988 
L -19 3322 
L 1509 3322 
L 1509 2988 
L 978 2988 
L 1913 703 
L 2847 2988 
L 2350 2988 
L 2350 3322 
L 3597 3322 
L 3597 2988 
L 3225 2988 
L 1703 -750 
Q 1547 -1138 1356 -1280 
Q 1166 -1422 819 -1422 
Q 672 -1422 517 -1397 
Q 363 -1372 206 -1325 
L 206 -691 
L 500 -691 
Q 519 -903 608 -995 
Q 697 -1088 884 -1088 
Q 1056 -1088 1161 -992 
Q 1266 -897 1381 -609 
z
" transform="scale(0.015625)"/>
       <path id="DejaVuSerif-20" transform="scale(0.015625)"/>
       <path id="DejaVuSerif-6f" d="M 1925 219 
Q 2388 219 2623 584 
Q 2859 950 2859 1663 
Q 2859 2375 2623 2739 
Q 2388 3103 1925 3103 
Q 1463 3103 1227 2739 
Q 991 2375 991 1663 
Q 991 950 1228 584 
Q 1466 219 1925 219 
z
M 1925 -91 
Q 1200 -91 759 389 
Q 319 869 319 1663 
Q 319 2456 758 2934 
Q 1197 3413 1925 3413 
Q 2653 3413 3092 2934 
Q 3531 2456 3531 1663 
Q 3531 869 3092 389 
Q 2653 -91 1925 -91 
z
" transform="scale(0.015625)"/>
       <path id="DejaVuSerif-66" d="M 2753 4078 
L 2450 4078 
Q 2447 4313 2317 4434 
Q 2188 4556 1941 4556 
Q 1619 4556 1487 4379 
Q 1356 4203 1356 3750 
L 1356 3322 
L 2284 3322 
L 2284 2988 
L 1356 2988 
L 1356 331 
L 2094 331 
L 2094 0 
L 231 0 
L 231 331 
L 781 331 
L 781 2988 
L 231 2988 
L 231 3322 
L 781 3322 
L 781 3738 
Q 781 4294 1070 4578 
Q 1359 4863 1919 4863 
Q 2128 4863 2337 4825 
Q 2547 4788 2753 4709 
L 2753 4078 
z
" transform="scale(0.015625)"/>
       <path id="DejaVuSerif-69" d="M 622 4353 
Q 622 4497 726 4603 
Q 831 4709 978 4709 
Q 1122 4709 1226 4603 
Q 1331 4497 1331 4353 
Q 1331 4206 1228 4103 
Q 1125 4000 978 4000 
Q 831 4000 726 4103 
Q 622 4206 622 4353 
z
M 1356 331 
L 1900 331 
L 1900 0 
L 231 0 
L 231 331 
L 781 331 
L 781 2988 
L 231 2988 
L 231 3322 
L 1356 3322 
L 1356 331 
z
" transform="scale(0.015625)"/>
       <path id="DejaVuSerif-63" d="M 3291 997 
Q 3169 466 2822 187 
Q 2475 -91 1925 -91 
Q 1200 -91 759 389 
Q 319 869 319 1663 
Q 319 2459 759 2936 
Q 1200 3413 1925 3413 
Q 2241 3413 2553 3339 
Q 2866 3266 3181 3116 
L 3181 2266 
L 2847 2266 
Q 2781 2703 2561 2903 
Q 2341 3103 1931 3103 
Q 1466 3103 1228 2742 
Q 991 2381 991 1663 
Q 991 944 1227 581 
Q 1463 219 1931 219 
Q 2303 219 2525 412 
Q 2747 606 2828 997 
L 3291 997 
z
" transform="scale(0.015625)"/>
       <path id="DejaVuSerif-64" d="M 3359 331 
L 3909 331 
L 3909 0 
L 2784 0 
L 2784 519 
Q 2616 206 2355 57 
Q 2094 -91 1709 -91 
Q 1097 -91 708 395 
Q 319 881 319 1663 
Q 319 2444 706 2928 
Q 1094 3413 1709 3413 
Q 2094 3413 2355 3264 
Q 2616 3116 2784 2803 
L 2784 4531 
L 2241 4531 
L 2241 4863 
L 3359 4863 
L 3359 331 
z
M 2784 1497 
L 2784 1825 
Q 2784 2422 2554 2737 
Q 2325 3053 1888 3053 
Q 1444 3053 1217 2703 
Q 991 2353 991 1663 
Q 991 975 1217 622 
Q 1444 269 1888 269 
Q 2325 269 2554 583 
Q 2784 897 2784 1497 
z
" transform="scale(0.015625)"/>
       <path id="DejaVuSerif-74" d="M 691 2988 
L 184 2988 
L 184 3322 
L 691 3322 
L 691 4353 
L 1269 4353 
L 1269 3322 
L 2350 3322 
L 2350 2988 
L 1269 2988 
L 1269 878 
Q 1269 456 1350 337 
Q 1431 219 1650 219 
Q 1875 219 1978 351 
Q 2081 484 2088 781 
L 2522 781 
Q 2497 328 2275 118 
Q 2053 -91 1600 -91 
Q 1103 -91 897 129 
Q 691 350 691 878 
L 691 2988 
z
" transform="scale(0.015625)"/>
       <path id="DejaVuSerif-75" d="M 2266 3322 
L 3341 3322 
L 3341 331 
L 3884 331 
L 3884 0 
L 2766 0 
L 2766 588 
Q 2606 256 2353 82 
Q 2100 -91 1766 -91 
Q 1213 -91 952 223 
Q 691 538 691 1209 
L 691 2988 
L 172 2988 
L 172 3322 
L 1269 3322 
L 1269 1388 
Q 1269 781 1417 556 
Q 1566 331 1947 331 
Q 2347 331 2556 625 
Q 2766 919 2766 1478 
L 2766 2988 
L 2266 2988 
L 2266 3322 
z
" transform="scale(0.015625)"/>
       <path id="DejaVuSerif-28" d="M 2041 -997 
Q 1281 -656 893 83 
Q 506 822 506 1931 
Q 506 3044 893 3783 
Q 1281 4522 2041 4863 
L 2041 4556 
Q 1559 4225 1350 3623 
Q 1141 3022 1141 1931 
Q 1141 844 1350 242 
Q 1559 -359 2041 -691 
L 2041 -997 
z
" transform="scale(0.015625)"/>
       <path id="DejaVuSerif-4d" d="M 353 0 
L 353 331 
L 947 331 
L 947 4331 
L 319 4331 
L 319 4666 
L 1678 4666 
L 3316 1344 
L 4953 4666 
L 6228 4666 
L 6228 4331 
L 5606 4331 
L 5606 331 
L 6203 331 
L 6203 0 
L 4378 0 
L 4378 331 
L 4972 331 
L 4972 3938 
L 3372 684 
L 2931 684 
L 1331 3938 
L 1331 331 
L 1925 331 
L 1925 0 
L 353 0 
z
" transform="scale(0.015625)"/>
       <path id="DejaVuSerif-56" d="M 1119 4331 
L 2497 750 
L 3872 4331 
L 3347 4331 
L 3347 4666 
L 4716 4666 
L 4716 4331 
L 4263 4331 
L 2597 0 
L 2059 0 
L 403 4331 
L -63 4331 
L -63 4666 
L 1638 4666 
L 1638 4331 
L 1119 4331 
z
" transform="scale(0.015625)"/>
       <path id="DejaVuSerif-29" d="M 453 -997 
L 453 -691 
Q 934 -359 1145 242 
Q 1356 844 1356 1931 
Q 1356 3022 1145 3623 
Q 934 4225 453 4556 
L 453 4863 
Q 1216 4522 1603 3783 
Q 1991 3044 1991 1931 
Q 1991 822 1603 83 
Q 1216 -656 453 -997 
z
" transform="scale(0.015625)"/>
      </defs>
      <use xlink:href="#DejaVuSerif-45"/>
      <use xlink:href="#DejaVuSerif-6e" transform="translate(72.998047 0)"/>
      <use xlink:href="#DejaVuSerif-65" transform="translate(137.402344 0)"/>
      <use xlink:href="#DejaVuSerif-72" transform="translate(196.582031 0)"/>
      <use xlink:href="#DejaVuSerif-67" transform="translate(244.384766 0)"/>
      <use xlink:href="#DejaVuSerif-79" transform="translate(308.398438 0)"/>
      <use xlink:href="#DejaVuSerif-20" transform="translate(364.892578 0)"/>
      <use xlink:href="#DejaVuSerif-6f" transform="translate(396.679688 0)"/>
      <use xlink:href="#DejaVuSerif-66" transform="translate(456.884766 0)"/>
      <use xlink:href="#DejaVuSerif-20" transform="translate(493.896484 0)"/>
      <use xlink:href="#DejaVuSerif-69" transform="translate(525.683594 0)"/>
      <use xlink:href="#DejaVuSerif-6e" transform="translate(557.666016 0)"/>
      <use xlink:href="#DejaVuSerif-63" transform="translate(622.070312 0)"/>
      <use xlink:href="#DejaVuSerif-69" transform="translate(678.076172 0)"/>
      <use xlink:href="#DejaVuSerif-64" transform="translate(710.058594 0)"/>
      <use xlink:href="#DejaVuSerif-65" transform="translate(774.072266 0)"/>
      <use xlink:href="#DejaVuSerif-6e" transform="translate(833.251953 0)"/>
      <use xlink:href="#DejaVuSerif-74" transform="translate(897.65625 0)"/>
      <use xlink:href="#DejaVuSerif-20" transform="translate(937.841797 0)"/>
      <use xlink:href="#DejaVuSerif-6e" transform="translate(969.628906 0)"/>
      <use xlink:href="#DejaVuSerif-65" transform="translate(1034.033203 0)"/>
      <use xlink:href="#DejaVuSerif-75" transform="translate(1093.212891 0)"/>
      <use xlink:href="#DejaVuSerif-74" transform="translate(1157.617188 0)"/>
      <use xlink:href="#DejaVuSerif-72" transform="translate(1197.802734 0)"/>
      <use xlink:href="#DejaVuSerif-6f" transform="translate(1245.605469 0)"/>
      <use xlink:href="#DejaVuSerif-6e" transform="translate(1305.810547 0)"/>
      <use xlink:href="#DejaVuSerif-20" transform="translate(1370.214844 0)"/>
      <use xlink:href="#DejaVuSerif-28" transform="translate(1402.001953 0)"/>
      <use xlink:href="#DejaVuSerif-4d" transform="translate(1441.015625 0)"/>
      <use xlink:href="#DejaVuSerif-65" transform="translate(1543.408203 0)"/>
      <use xlink:href="#DejaVuSerif-56" transform="translate(1602.587891 0)"/>
      <use xlink:href="#DejaVuSerif-29" transform="translate(1674.804688 0)"/>
     </g>
    </g>
   </g>
   <g id="matplotlib.axis_2">
    <g id="ytick_1">
     <g id="line2d_13">
      <path d="M 75.7475 560.571 
L 844 560.571 
" clip-path="url(#pfae9f42b03)" style="fill: none; stroke-dasharray: 4.625,2; stroke-dashoffset: 0; stroke: #343837; stroke-opacity: 0.8; stroke-width: 1.25"/>
     </g>
     <g id="line2d_14">
      <defs>
       <path id="m57891b58dd" d="M 0 0 
L -3.5 0 
" style="stroke: #000000; stroke-width: 0.8"/>
      </defs>
      <g>
       <use xlink:href="#m57891b58dd" x="75.7475" y="560.571" style="stroke: #000000; stroke-width: 0.8"/>
      </g>
     </g>
     <g id="text_8">
      <!-- 2 -->
      <g transform="translate(54.75 568.929281) scale(0.22 -0.22)">
       <defs>
        <path id="DejaVuSerif-32" d="M 819 3553 
L 469 3553 
L 469 4384 
Q 803 4563 1142 4656 
Q 1481 4750 1806 4750 
Q 2534 4750 2956 4397 
Q 3378 4044 3378 3438 
Q 3378 2753 2422 1800 
Q 2347 1728 2309 1691 
L 1131 513 
L 3078 513 
L 3078 1088 
L 3444 1088 
L 3444 0 
L 434 0 
L 434 341 
L 1850 1753 
Q 2319 2222 2519 2614 
Q 2719 3006 2719 3438 
Q 2719 3909 2473 4175 
Q 2228 4441 1797 4441 
Q 1350 4441 1106 4219 
Q 863 3997 819 3553 
z
" transform="scale(0.015625)"/>
       </defs>
       <use xlink:href="#DejaVuSerif-32"/>
      </g>
     </g>
    </g>
    <g id="ytick_2">
     <g id="line2d_15">
      <path d="M 75.7475 460.9036 
L 844 460.9036 
" clip-path="url(#pfae9f42b03)" style="fill: none; stroke-dasharray: 4.625,2; stroke-dashoffset: 0; stroke: #343837; stroke-opacity: 0.8; stroke-width: 1.25"/>
     </g>
     <g id="line2d_16">
      <g>
       <use xlink:href="#m57891b58dd" x="75.7475" y="460.9036" style="stroke: #000000; stroke-width: 0.8"/>
      </g>
     </g>
     <g id="text_9">
      <!-- 3 -->
      <g transform="translate(54.75 469.261881) scale(0.22 -0.22)">
       <use xlink:href="#DejaVuSerif-33"/>
      </g>
     </g>
    </g>
    <g id="ytick_3">
     <g id="line2d_17">
      <path d="M 75.7475 361.2362 
L 844 361.2362 
" clip-path="url(#pfae9f42b03)" style="fill: none; stroke-dasharray: 4.625,2; stroke-dashoffset: 0; stroke: #343837; stroke-opacity: 0.8; stroke-width: 1.25"/>
     </g>
     <g id="line2d_18">
      <g>
       <use xlink:href="#m57891b58dd" x="75.7475" y="361.2362" style="stroke: #000000; stroke-width: 0.8"/>
      </g>
     </g>
     <g id="text_10">
      <!-- 4 -->
      <g transform="translate(54.75 369.594481) scale(0.22 -0.22)">
       <defs>
        <path id="DejaVuSerif-34" d="M 2234 1581 
L 2234 4063 
L 641 1581 
L 2234 1581 
z
M 3609 0 
L 1484 0 
L 1484 331 
L 2234 331 
L 2234 1247 
L 197 1247 
L 197 1588 
L 2241 4750 
L 2859 4750 
L 2859 1581 
L 3750 1581 
L 3750 1247 
L 2859 1247 
L 2859 331 
L 3609 331 
L 3609 0 
z
" transform="scale(0.015625)"/>
       </defs>
       <use xlink:href="#DejaVuSerif-34"/>
      </g>
     </g>
    </g>
    <g id="ytick_4">
     <g id="line2d_19">
      <path d="M 75.7475 261.5688 
L 844 261.5688 
" clip-path="url(#pfae9f42b03)" style="fill: none; stroke-dasharray: 4.625,2; stroke-dashoffset: 0; stroke: #343837; stroke-opacity: 0.8; stroke-width: 1.25"/>
     </g>
     <g id="line2d_20">
      <g>
       <use xlink:href="#m57891b58dd" x="75.7475" y="261.5688" style="stroke: #000000; stroke-width: 0.8"/>
      </g>
     </g>
     <g id="text_11">
      <!-- 5 -->
      <g transform="translate(54.75 269.927081) scale(0.22 -0.22)">
       <use xlink:href="#DejaVuSerif-35"/>
      </g>
     </g>
    </g>
    <g id="ytick_5">
     <g id="line2d_21">
      <path d="M 75.7475 161.9014 
L 844 161.9014 
" clip-path="url(#pfae9f42b03)" style="fill: none; stroke-dasharray: 4.625,2; stroke-dashoffset: 0; stroke: #343837; stroke-opacity: 0.8; stroke-width: 1.25"/>
     </g>
     <g id="line2d_22">
      <g>
       <use xlink:href="#m57891b58dd" x="75.7475" y="161.9014" style="stroke: #000000; stroke-width: 0.8"/>
      </g>
     </g>
     <g id="text_12">
      <!-- 6 -->
      <g transform="translate(54.75 170.259681) scale(0.22 -0.22)">
       <defs>
        <path id="DejaVuSerif-36" d="M 2094 219 
Q 2534 219 2771 542 
Q 3009 866 3009 1472 
Q 3009 2078 2771 2401 
Q 2534 2725 2094 2725 
Q 1647 2725 1412 2412 
Q 1178 2100 1178 1509 
Q 1178 888 1415 553 
Q 1653 219 2094 219 
z
M 1075 2569 
Q 1288 2803 1556 2918 
Q 1825 3034 2163 3034 
Q 2859 3034 3264 2615 
Q 3669 2197 3669 1472 
Q 3669 763 3233 336 
Q 2797 -91 2069 -91 
Q 1278 -91 853 498 
Q 428 1088 428 2181 
Q 428 3406 931 4078 
Q 1434 4750 2350 4750 
Q 2597 4750 2869 4703 
Q 3141 4656 3425 4563 
L 3425 3794 
L 3072 3794 
Q 3034 4109 2831 4275 
Q 2628 4441 2284 4441 
Q 1678 4441 1381 3981 
Q 1084 3522 1075 2569 
z
" transform="scale(0.015625)"/>
       </defs>
       <use xlink:href="#DejaVuSerif-36"/>
      </g>
     </g>
    </g>
    <g id="ytick_6">
     <g id="line2d_23">
      <path d="M 75.7475 62.234 
L 844 62.234 
" clip-path="url(#pfae9f42b03)" style="fill: none; stroke-dasharray: 4.625,2; stroke-dashoffset: 0; stroke: #343837; stroke-opacity: 0.8; stroke-width: 1.25"/>
     </g>
     <g id="line2d_24">
      <g>
       <use xlink:href="#m57891b58dd" x="75.7475" y="62.234" style="stroke: #000000; stroke-width: 0.8"/>
      </g>
     </g>
     <g id="text_13">
      <!-- 7 -->
      <g transform="translate(54.75 70.592281) scale(0.22 -0.22)">
       <use xlink:href="#DejaVuSerif-37"/>
      </g>
     </g>
    </g>
    <g id="text_14">
     <!-- Yield of fission neutrons,  $\overline{\nu}(E)$ -->
     <g transform="translate(41.342813 510.8225) rotate(-90) scale(0.26 -0.26)">
      <defs>
       <path id="DejaVuSerif-59" d="M 1209 0 
L 1209 331 
L 1806 331 
L 1806 2009 
L 366 4331 
L -72 4331 
L -72 4666 
L 1663 4666 
L 1663 4331 
L 1119 4331 
L 2284 2444 
L 3450 4331 
L 2925 4331 
L 2925 4666 
L 4281 4666 
L 4281 4331 
L 3841 4331 
L 2438 2069 
L 2438 331 
L 3034 331 
L 3034 0 
L 1209 0 
z
" transform="scale(0.015625)"/>
       <path id="DejaVuSerif-6c" d="M 1313 331 
L 1856 331 
L 1856 0 
L 184 0 
L 184 331 
L 738 331 
L 738 4531 
L 184 4531 
L 184 4863 
L 1313 4863 
L 1313 331 
z
" transform="scale(0.015625)"/>
       <path id="DejaVuSerif-73" d="M 359 184 
L 359 959 
L 691 959 
Q 703 588 923 403 
Q 1144 219 1575 219 
Q 1963 219 2166 364 
Q 2369 509 2369 788 
Q 2369 1006 2220 1140 
Q 2072 1275 1594 1428 
L 1178 1569 
Q 750 1706 558 1912 
Q 366 2119 366 2438 
Q 366 2894 700 3153 
Q 1034 3413 1625 3413 
Q 1888 3413 2178 3344 
Q 2469 3275 2778 3144 
L 2778 2419 
L 2447 2419 
Q 2434 2741 2221 2922 
Q 2009 3103 1644 3103 
Q 1281 3103 1095 2975 
Q 909 2847 909 2591 
Q 909 2381 1050 2254 
Q 1191 2128 1613 1997 
L 2069 1856 
Q 2541 1709 2748 1489 
Q 2956 1269 2956 922 
Q 2956 450 2595 179 
Q 2234 -91 1600 -91 
Q 1278 -91 972 -22 
Q 666 47 359 184 
z
" transform="scale(0.015625)"/>
       <path id="DejaVuSerif-2c" d="M 231 -622 
Q 525 -406 662 -114 
Q 800 178 800 594 
L 800 709 
L 1416 709 
Q 1391 175 1164 -208 
Q 938 -591 481 -872 
L 231 -622 
z
" transform="scale(0.015625)"/>
       <path id="DejaVuSerif-Italic-3bd" d="M 1103 363 
Q 1516 513 1997 875 
Q 2291 1094 2691 1638 
Q 2950 1975 3034 2288 
Q 3116 2575 3025 2794 
Q 2906 3097 2691 3138 
L 2725 3322 
L 3075 3322 
Q 3400 3169 3584 2828 
Q 3728 2566 3666 2247 
Q 3622 2016 3494 1825 
Q 3400 1688 3116 1366 
Q 2738 950 2297 663 
Q 1494 138 1034 0 
L 456 0 
L 1041 2988 
L 491 2988 
L 553 3322 
L 1678 3322 
L 1103 363 
z
" transform="scale(0.015625)"/>
       <path id="DejaVuSerif-Italic-45" d="M -97 0 
L -34 331 
L 559 331 
L 1338 4331 
L 744 4331 
L 809 4666 
L 4566 4666 
L 4366 3628 
L 3981 3628 
L 4106 4281 
L 1963 4281 
L 1659 2719 
L 3188 2719 
L 3300 3303 
L 3684 3303 
L 3384 1753 
L 3000 1753 
L 3113 2338 
L 1584 2338 
L 1206 384 
L 3400 384 
L 3525 1038 
L 3909 1038 
L 3709 0 
L -97 0 
z
" transform="scale(0.015625)"/>
      </defs>
      <use xlink:href="#DejaVuSerif-59" transform="translate(0 0.34375)"/>
      <use xlink:href="#DejaVuSerif-69" transform="translate(66.015625 0.34375)"/>
      <use xlink:href="#DejaVuSerif-65" transform="translate(97.998047 0.34375)"/>
      <use xlink:href="#DejaVuSerif-6c" transform="translate(157.177734 0.34375)"/>
      <use xlink:href="#DejaVuSerif-64" transform="translate(189.160156 0.34375)"/>
      <use xlink:href="#DejaVuSerif-20" transform="translate(253.173828 0.34375)"/>
      <use xlink:href="#DejaVuSerif-6f" transform="translate(284.960938 0.34375)"/>
      <use xlink:href="#DejaVuSerif-66" transform="translate(345.166016 0.34375)"/>
      <use xlink:href="#DejaVuSerif-20" transform="translate(382.177734 0.34375)"/>
      <use xlink:href="#DejaVuSerif-66" transform="translate(413.964844 0.34375)"/>
      <use xlink:href="#DejaVuSerif-69" transform="translate(450.976562 0.34375)"/>
      <use xlink:href="#DejaVuSerif-73" transform="translate(482.958984 0.34375)"/>
      <use xlink:href="#DejaVuSerif-73" transform="translate(534.277344 0.34375)"/>
      <use xlink:href="#DejaVuSerif-69" transform="translate(585.595703 0.34375)"/>
      <use xlink:href="#DejaVuSerif-6f" transform="translate(617.578125 0.34375)"/>
      <use xlink:href="#DejaVuSerif-6e" transform="translate(677.783203 0.34375)"/>
      <use xlink:href="#DejaVuSerif-20" transform="translate(742.1875 0.34375)"/>
      <use xlink:href="#DejaVuSerif-6e" transform="translate(773.974609 0.34375)"/>
      <use xlink:href="#DejaVuSerif-65" transform="translate(838.378906 0.34375)"/>
      <use xlink:href="#DejaVuSerif-75" transform="translate(897.558594 0.34375)"/>
      <use xlink:href="#DejaVuSerif-74" transform="translate(961.962891 0.34375)"/>
      <use xlink:href="#DejaVuSerif-72" transform="translate(1002.148438 0.34375)"/>
      <use xlink:href="#DejaVuSerif-6f" transform="translate(1049.951172 0.34375)"/>
      <use xlink:href="#DejaVuSerif-6e" transform="translate(1110.15625 0.34375)"/>
      <use xlink:href="#DejaVuSerif-73" transform="translate(1174.560547 0.34375)"/>
      <use xlink:href="#DejaVuSerif-2c" transform="translate(1225.878906 0.34375)"/>
      <use xlink:href="#DejaVuSerif-20" transform="translate(1257.666016 0.34375)"/>
      <use xlink:href="#DejaVuSerif-20" transform="translate(1289.453125 0.34375)"/>
      <use xlink:href="#DejaVuSerif-Italic-3bd" transform="translate(1321.240234 0.84375)"/>
      <use xlink:href="#DejaVuSerif-28" transform="translate(1382.03125 0.34375)"/>
      <use xlink:href="#DejaVuSerif-Italic-45" transform="translate(1421.044922 0.34375)"/>
      <use xlink:href="#DejaVuSerif-29" transform="translate(1494.042969 0.34375)"/>
      <path d="M 1321.240234 64.5 
L 1321.240234 70.75 
L 1382.03125 70.75 
L 1382.03125 64.5 
L 1321.240234 64.5 
z
"/>
     </g>
    </g>
   </g>
   <g id="line2d_25">
    <path d="M 75.747474 511.064209 
L 258.634841 511.064209 
L 271.078497 511.034309 
L 280.686658 510.703413 
L 283.210058 510.804077 
L 290.244724 511.134973 
L 299.038186 510.573845 
L 309.386629 511.345271 
L 320.635691 511.355238 
L 332.694706 511.064209 
L 362.208225 511.084143 
L 385.386836 512.358889 
L 390.397143 517.043256 
L 394.29516 512.249254 
L 402.61157 514.910374 
L 414.910944 513.734299 
L 422.144992 514.910374 
L 427.776209 514.222669 
L 431.389296 513.136294 
L 434.256313 511.950252 
L 437.986877 512.348922 
L 439.600852 511.850585 
L 442.560603 511.65125 
L 442.687585 512.348922 
L 445.222498 511.850585 
L 448.264029 512.348922 
L 450.049582 512.249254 
L 545.095593 512.168524 
L 547.618993 512.128657 
L 549.922676 512.407726 
L 552.041859 512.318025 
L 554.003917 513.334632 
L 555.830549 515.766517 
L 559.144325 507.155254 
L 560.657632 509.587138 
L 562.089097 510.703413 
L 563.447121 510.334644 
L 574.182076 509.466541 
L 581.798649 511.987129 
L 587.706521 514.299413 
L 596.614845 514.916354 
L 603.26856 512.542277 
L 608.581449 513.159218 
L 613.004315 507.975516 
L 616.793004 510.376504 
L 618.501704 508.760895 
L 620.106781 505.749943 
L 623.051553 515.815354 
L 624.409577 513.950577 
L 635.144532 511.492779 
L 661.112632 509.069864 
L 664.231016 507.657577 
L 667.020505 509.171525 
L 669.543904 510.691453 
L 673.966771 504.292806 
L 675.928829 506.66489 
L 682.582544 511.389125 
L 684.014009 514.218682 
L 687.895432 506.962896 
L 692.318299 510.172186 
L 696.106988 505.099115 
L 699.420765 511.586466 
L 700.934071 510.091455 
L 703.72356 509.104748 
L 705.015312 508.417043 
L 707.42385 512.153574 
L 708.550644 511.037299 
L 709.631433 511.406068 
L 711.669027 505.236656 
L 712.631884 508.416046 
L 713.56095 510.189129 
L 714.458516 509.860227 
L 727.982961 508.232658 
L 746.334488 503.909086 
L 748.857888 502.473876 
L 757.069444 498.347646 
L 760.383221 495.434367 
L 764.686016 491.599166 
L 770.593889 483.137404 
L 771.632283 481.573622 
L 783.037544 459.623871 
L 786.155927 452.619246 
L 788.945416 445.654488 
L 793.7725 430.197071 
L 796.694037 422.480821 
L 801.389072 407.988184 
L 809.982312 372.870376 
L 816.205268 339.319339 
L 816.393708 338.175157 
L 817.854805 329.01971 
L 818.0319 327.875528 
L 819.7406 316.43072 
L 825.648472 270.922585 
L 836.383428 157.138295 
" clip-path="url(#pfae9f42b03)" style="fill: none; stroke: #0652ff; stroke-opacity: 0.9; stroke-width: 5; stroke-linecap: square"/>
   </g>
   <g id="line2d_26">
    <path d="M 75.747474 516.992426 
L 296.016177 517.076844 
L 332.230566 517.139535 
L 338.105888 516.954951 
L 342.911249 516.569936 
L 346.976963 516.202263 
L 350.49982 516.168575 
L 356.391537 516.591065 
L 363.322374 517.03309 
L 381.135903 518.014515 
L 384.537157 518.406507 
L 385.433128 518.300162 
L 389.888334 517.186279 
L 392.375498 517.022725 
L 396.453592 516.998107 
L 397.312491 517.087608 
L 397.869074 517.310465 
L 398.143038 517.455381 
L 399.473179 519.770954 
L 399.732398 519.407865 
L 400.491428 517.858536 
L 400.739678 517.420398 
L 401.711226 516.954752 
L 403.10424 516.686048 
L 405.274827 516.239937 
L 406.095772 515.858012 
L 406.892025 515.329575 
L 407.087159 515.409508 
L 408.042759 516.685949 
L 408.415177 516.668009 
L 409.145555 516.345884 
L 410.718552 515.481369 
L 411.055397 515.586518 
L 411.38801 515.9515 
L 412.679762 518.002954 
L 413.608448 518.568168 
L 415.087581 519.341886 
L 415.373459 519.336205 
L 415.656987 519.08594 
L 417.028792 517.124884 
L 417.688929 516.77236 
L 418.459835 516.62256 
L 419.453786 516.656248 
L 420.175651 516.850998 
L 420.646381 517.151495 
L 420.99416 517.584849 
L 421.336862 518.439397 
L 421.563453 519.573114 
L 421.787563 521.829883 
L 422.23072 527.083551 
L 422.340223 527.369796 
L 422.449276 527.311092 
L 422.557881 526.843652 
L 422.7743 524.158213 
L 423.094852 519.540124 
L 423.412094 517.983718 
L 423.72558 517.490165 
L 424.034884 517.370165 
L 424.542998 517.480697 
L 425.433826 517.737839 
L 426.011325 517.65063 
L 426.669451 517.293222 
L 427.582385 516.510933 
L 428.551453 515.631468 
L 428.724172 515.697447 
L 428.895345 516.033925 
L 429.065418 516.91618 
L 429.735819 522.46616 
L 429.900595 522.603601 
L 430.06476 522.40018 
L 431.027355 519.497167 
L 431.340726 519.372085 
L 431.650047 519.579991 
L 432.032064 519.878894 
L 432.779948 519.965903 
L 433.000401 519.809625 
L 433.291391 519.206836 
L 434.145301 517.08422 
L 434.284863 517.277275 
L 434.493183 518.350594 
L 434.836553 520.505602 
L 434.904628 520.510586 
L 435.108145 519.997996 
L 435.642783 518.602752 
L 436.101935 518.044515 
L 436.617385 517.784483 
L 437.060081 517.781891 
L 437.433775 517.99518 
L 437.984759 518.47149 
L 438.166002 518.322188 
L 438.405348 517.669566 
L 438.760946 516.782925 
L 438.936677 516.717643 
L 439.11154 516.9402 
L 439.628736 518.253418 
L 439.799102 517.993386 
L 440.743607 516.017181 
L 440.90697 515.968443 
L 441.123141 516.231864 
L 441.548671 517.229933 
L 441.971115 518.646108 
L 442.12684 518.499696 
L 442.639404 517.72827 
L 443.142232 517.31774 
L 443.537731 516.806546 
L 443.78195 516.904121 
L 444.739251 517.857938 
L 444.972682 518.386374 
L 445.157957 519.348862 
L 445.341945 522.200048 
L 445.61555 525.893223 
L 445.706127 526.171794 
L 445.7513 526.071129 
L 445.841414 524.833958 
L 446.154422 518.29468 
L 446.375755 517.569102 
L 446.684723 517.300996 
L 446.944864 517.299501 
L 447.499885 517.70445 
L 448.084868 518.56159 
L 448.331671 518.532088 
L 448.576195 518.139897 
L 448.778254 518.003352 
L 449.020702 517.923419 
L 449.179787 517.535115 
L 449.922655 514.625325 
L 450.305424 514.343964 
L 450.720175 514.326921 
L 451.019632 514.523964 
L 451.167181 514.960208 
L 451.532494 517.404052 
L 451.604956 517.155482 
L 451.964319 515.282831 
L 452.106709 515.507282 
L 452.354064 516.480435 
L 453.050033 519.521088 
L 453.186717 519.514908 
L 453.288769 519.03182 
L 453.525372 517.721194 
L 453.626129 518.003253 
L 454.189956 520.681216 
L 454.353528 520.711914 
L 454.451189 520.370055 
L 454.77575 518.948598 
L 455.158146 518.681788 
L 455.628502 518.517238 
L 456.335379 518.554513 
L 456.516328 518.049598 
L 456.785452 516.417744 
L 457.051869 515.225223 
L 457.228002 515.137516 
L 457.37389 515.2922 
L 457.605651 516.012795 
L 458.234136 517.979632 
L 458.791569 519.248996 
L 459.230572 519.084445 
L 459.500458 518.569364 
L 459.847248 517.628503 
L 460.912131 519.787598 
L 461.416444 520.062979 
L 462.033621 518.172289 
L 462.505225 515.914523 
L 462.729596 515.845753 
L 463.109529 517.131263 
L 463.803254 518.297172 
L 464.522614 514.664096 
L 464.64671 514.964892 
L 464.810906 516.872626 
L 464.920536 516.538242 
L 465.246729 514.413333 
L 465.568952 514.28237 
L 465.992572 514.617751 
L 466.791476 515.503893 
L 467.424037 516.662427 
L 467.720963 514.928414 
L 467.819203 514.881271 
L 467.985379 515.107616 
L 468.030166 515.052599 
L 468.169879 514.894228 
L 468.208558 515.049709 
L 468.59227 518.640327 
L 468.687336 518.548533 
L 469.157608 515.378312 
L 469.619673 517.685114 
L 470.163713 519.720721 
L 470.608692 516.860466 
L 471.647087 522.539914 
L 472.535741 518.512254 
L 473.45108 520.318825 
L 473.922469 518.326175 
L 474.232129 519.19368 
L 474.462021 516.181133 
L 474.689933 516.967808 
L 474.95637 515.544558 
L 475.582456 515.594391 
L 476.161181 515.496418 
L 476.867241 517.401162 
L 477.350513 517.232624 
L 478.158993 515.277848 
L 478.61945 518.106409 
L 479.056006 517.501826 
L 479.263659 515.752065 
L 479.389374 519.183115 
L 479.421658 519.173747 
L 479.642792 517.805014 
L 480.245693 517.945446 
L 480.446082 517.799333 
L 480.628046 517.484883 
L 480.688424 517.838204 
L 480.748664 517.783885 
L 480.926177 516.779337 
L 480.960821 516.986047 
L 481.064481 517.681726 
L 481.112599 517.602789 
L 481.402418 514.833331 
L 481.461057 514.939477 
L 481.577947 515.486252 
L 481.752321 517.555447 
L 482.131377 516.307213 
L 483.383966 515.914523 
L 483.759859 519.55338 
L 484.027022 516.088642 
L 484.090742 516.795184 
L 484.14743 517.19804 
L 484.204525 516.899536 
L 484.448954 515.580538 
L 484.757428 516.366515 
L 485.078193 515.812264 
L 485.29902 514.30629 
L 485.46218 514.42599 
L 485.575748 514.966287 
L 485.711288 515.490638 
L 485.924444 515.265788 
L 486.197194 518.10013 
L 486.800557 519.386238 
L 487.143042 517.567806 
L 487.220437 517.561627 
L 487.374552 518.920592 
L 487.787342 516.203359 
L 488.35636 518.601457 
L 488.470329 518.153551 
L 488.644163 515.052201 
L 488.749342 515.022201 
L 489.048326 514.446024 
L 489.298265 518.333052 
L 489.397844 517.17691 
L 489.742809 517.160665 
L 489.956151 517.035781 
L 490.32709 514.634694 
L 490.461267 514.862633 
L 490.809611 522.97546 
L 490.846208 522.107457 
L 490.900805 517.945545 
L 491.118884 515.031669 
L 491.136773 515.095157 
L 491.262874 516.413558 
L 491.328323 517.498537 
L 491.431821 517.287143 
L 491.921244 517.939266 
L 492.156934 514.839212 
L 494.333213 517.855645 
L 494.441057 518.214249 
L 494.867034 515.456252 
L 494.915001 515.566385 
L 495.183909 514.862932 
L 495.768659 518.644812 
L 495.974286 515.114892 
L 496.036846 515.714391 
L 496.143702 516.408375 
L 496.215259 516.190901 
L 496.269889 516.242927 
L 496.344111 516.883988 
L 496.444082 518.376208 
L 496.474664 518.370627 
L 496.576792 515.399243 
L 496.862175 517.864615 
L 497.10108 515.036453 
L 497.288599 515.898975 
L 497.429654 521.48603 
L 497.481517 520.053411 
L 497.615187 517.564617 
L 497.642539 517.77342 
L 497.690176 518.219531 
L 497.837007 515.289907 
L 498.041645 516.423026 
L 498.212065 515.029178 
L 498.239119 515.252532 
L 498.49153 517.793054 
L 498.522297 517.786975 
L 498.614387 517.310166 
L 498.979574 514.316855 
L 499.577244 516.808041 
L 499.695176 518.943216 
L 499.783284 523.438614 
L 499.817856 523.173101 
L 500.045852 514.413133 
L 500.116012 514.523067 
L 500.160274 514.907783 
L 500.386786 518.990259 
L 500.449189 519.429394 
L 500.506313 519.069196 
L 500.620184 514.985623 
L 500.699036 516.294356 
L 500.832102 525.002396 
L 500.874623 524.53376 
L 501.030318 516.353159 
L 501.126641 516.85329 
L 501.261462 516.913788 
L 501.43144 517.031695 
L 501.513962 517.212791 
L 501.808656 514.633398 
L 502.82663 517.403155 
L 503.034896 516.015586 
L 503.264683 518.977502 
L 503.305782 518.998033 
L 503.369873 519.557666 
L 503.421033 519.345075 
L 503.821765 514.805624 
L 503.841894 514.809012 
L 503.952335 515.563096 
L 504.052338 517.532324 
L 504.07728 517.428371 
L 504.231396 515.757647 
L 504.399402 520.412712 
L 504.497733 519.86494 
L 504.839045 517.297907 
L 504.93576 520.93477 
L 505.063365 515.368844 
L 505.223802 517.014253 
L 505.390391 519.740356 
L 505.508745 519.858661 
L 505.995495 516.008111 
L 506.157313 518.777967 
L 506.207967 518.604646 
L 506.276884 516.286382 
L 506.366209 516.78761 
L 506.436996 516.735882 
L 506.686661 518.109698 
L 506.844322 517.87538 
L 506.931756 518.280627 
L 507.025594 519.254278 
L 507.245476 517.338073 
L 507.443796 516.605617 
L 507.49205 516.989536 
L 507.727662 518.719064 
L 507.814396 518.753449 
L 507.922416 526.573852 
L 508.115749 514.700275 
L 508.201223 514.968679 
L 508.519316 519.715539 
L 508.729275 515.089676 
L 508.75018 515.258413 
L 509.041124 518.61541 
L 509.103055 518.56159 
L 509.754797 514.565525 
L 510.054864 516.465086 
L 510.173945 519.655041 
L 510.201654 519.457101 
L 510.272772 515.865985 
L 510.371231 517.007874 
L 510.449736 516.476847 
L 510.625525 517.434351 
L 510.683863 519.885571 
L 510.809822 517.339368 
L 510.954419 520.035172 
L 511.069531 517.64435 
L 511.1269 518.244249 
L 511.145995 518.578334 
L 511.21272 518.100229 
L 511.357033 514.883165 
L 511.449662 515.811766 
L 511.562645 515.579541 
L 511.675148 516.044888 
L 511.861597 518.061259 
L 512.028286 515.186054 
L 512.087301 515.809673 
L 512.138831 515.781168 
L 512.300135 515.033164 
L 512.331183 514.937583 
L 512.431383 515.331768 
L 512.509458 516.703291 
L 512.53664 516.059938 
L 512.627044 515.29828 
L 512.666724 515.413894 
L 512.83739 517.434551 
L 512.885695 516.440966 
L 513.042525 514.80363 
L 513.058512 514.841903 
L 513.097551 515.272167 
L 513.307726 519.150225 
L 513.411315 518.908631 
L 513.657245 516.857476 
L 513.830289 519.302517 
L 514.330892 518.892087 
L 514.37655 519.330922 
L 514.423816 519.273314 
L 514.477731 517.017642 
L 514.571819 517.524152 
L 514.695639 517.011363 
L 515.010928 520.024508 
L 515.109718 519.004312 
L 515.278452 514.694893 
L 515.355092 514.843996 
L 515.420142 516.289671 
L 515.533598 518.469696 
L 515.565925 518.315311 
L 515.726969 514.849776 
L 515.759061 515.933061 
L 515.823128 519.044079 
L 515.855104 518.409896 
L 515.934874 514.374363 
L 516.205885 518.216641 
L 516.294037 517.672656 
L 516.439788 514.602601 
L 516.502231 514.806919 
L 516.597173 518.100628 
L 516.657696 516.576115 
L 516.719628 515.087682 
L 516.786043 515.784357 
L 516.843057 516.084855 
L 516.889196 515.895885 
L 517.100402 516.519903 
L 517.225108 514.67197 
L 517.382432 518.388268 
L 517.42764 518.327072 
L 517.601724 516.860666 
L 517.619668 516.621962 
L 517.69132 516.933822 
L 517.736005 517.184585 
L 517.962731 521.898454 
L 517.973058 521.662043 
L 518.031991 519.056837 
L 518.076105 519.155906 
L 518.295578 514.874593 
L 518.542135 518.850027 
L 518.585408 520.714007 
L 518.642995 525.85226 
L 518.686103 521.708189 
L 518.729141 518.758433 
L 518.886352 519.579792 
L 519.141609 516.995815 
L 519.16982 517.107941 
L 519.300606 519.315972 
L 519.328648 518.512852 
L 519.450285 515.923393 
L 519.569978 518.200893 
L 519.686367 517.757772 
L 519.824261 515.814058 
L 520.138719 518.345511 
L 520.213365 518.154747 
L 520.328315 516.32904 
L 520.3957 516.682261 
L 520.429329 517.343355 
L 520.516563 517.123389 
L 520.556728 516.286083 
L 520.623536 514.725391 
L 520.67686 514.892135 
L 520.849427 518.882618 
L 520.955066 517.259136 
L 521.129763 519.584576 
L 521.225161 516.225485 
L 521.265569 517.069569 
L 521.29681 517.835911 
L 521.347499 517.026413 
L 521.401978 515.519242 
L 521.739318 518.582619 
L 521.781504 518.548035 
L 521.847843 517.55156 
L 521.920371 516.034024 
L 521.934344 516.267346 
L 522.044604 528.739824 
L 522.195937 514.670076 
L 522.408856 515.125855 
L 522.483597 517.061197 
L 522.519646 516.248907 
L 522.692989 514.914361 
L 522.765703 515.06735 
L 522.814887 515.596086 
L 522.991196 517.974848 
L 523.002176 518.002156 
L 523.013152 517.979432 
L 523.267973 515.595587 
L 523.286081 515.637348 
L 523.360796 517.342956 
L 523.399276 516.738872 
L 523.529932 515.380306 
L 523.605155 514.625824 
L 523.764447 518.830193 
L 523.808262 518.66335 
L 523.852005 517.723686 
L 523.888599 518.284116 
L 523.968693 520.097464 
L 524.018042 518.972219 
L 524.049717 518.583915 
L 524.070813 519.623247 
L 524.111786 521.520216 
L 524.364408 515.063762 
L 524.671966 517.833519 
L 524.691428 517.626809 
L 524.766851 515.353695 
L 524.8079 516.883888 
L 524.859123 518.500992 
L 524.911381 517.56661 
L 524.983917 514.53114 
L 525.039319 515.275655 
L 525.122767 515.054094 
L 525.180126 516.856081 
L 525.294472 517.994781 
L 525.425029 517.407142 
L 525.616903 514.566123 
L 525.643412 514.615558 
L 525.71177 515.659873 
L 525.808493 517.889034 
L 525.975822 515.043231 
L 526.135599 518.328767 
L 526.22647 518.236275 
L 526.318105 515.8615 
L 526.450148 517.134452 
L 526.570879 515.542365 
L 526.59432 516.46389 
L 526.644329 518.173784 
L 526.70167 516.479637 
L 526.876114 517.950628 
L 526.900339 517.928403 
L 527.067206 516.201565 
L 527.130946 514.365891 
L 527.205984 514.74682 
L 527.413312 518.652287 
L 527.43086 518.608134 
L 527.512255 515.390472 
L 527.620053 518.566872 
L 527.659981 518.128634 
L 527.687588 518.000163 
L 527.743736 518.17189 
L 527.763105 518.187338 
L 527.838406 517.799034 
L 527.907414 515.806384 
L 527.994432 515.829108 
L 528.049933 517.516876 
L 528.12543 517.292923 
L 528.144522 517.401062 
L 528.162596 517.056512 
L 528.194697 516.198775 
L 528.216745 517.597706 
L 528.237772 519.185607 
L 528.271782 518.287604 
L 528.452103 514.340974 
L 528.557138 517.930296 
L 528.616407 517.84538 
L 528.775775 514.702069 
L 528.785581 514.759278 
L 528.868787 518.108502 
L 528.942963 515.662464 
L 528.975106 515.975221 
L 529.014987 518.565477 
L 529.063541 516.582195 
L 529.121689 514.355825 
L 529.168115 514.824162 
L 529.407655 518.609629 
L 529.435412 518.586108 
L 529.463141 518.571058 
L 529.553774 519.505839 
L 529.712348 514.335293 
L 529.730329 514.418117 
L 529.983606 518.439796 
L 530.021997 517.981525 
L 530.209408 514.533233 
L 530.264169 514.334197 
L 530.290117 514.483798 
L 530.565634 518.385278 
L 530.588541 518.356574 
L 530.865518 514.46805 
L 530.884545 514.530143 
L 530.926175 515.551734 
L 530.992105 519.05295 
L 531.026361 518.608832 
L 531.129758 514.567618 
L 531.180859 515.815155 
L 531.290792 518.220827 
L 531.33446 518.750758 
L 531.403824 516.253193 
L 531.47655 517.337176 
L 531.571148 518.165113 
L 531.605544 517.815778 
L 531.662772 515.607548 
L 531.715488 518.196707 
L 531.750573 518.047106 
L 531.819731 515.999041 
L 531.906143 516.618075 
L 532.008772 518.008535 
L 532.042605 516.753523 
L 532.196473 517.784284 
L 532.291115 516.745749 
L 532.378573 520.866897 
L 532.389699 519.262152 
L 532.522846 515.223031 
L 532.538166 515.077018 
L 532.562829 515.523528 
L 532.702722 519.788595 
L 532.737369 519.170956 
L 532.77197 518.759529 
L 532.858697 518.839462 
L 532.94933 517.601793 
L 532.99453 518.181259 
L 533.032138 516.321963 
L 533.124677 517.035183 
L 533.298044 514.928314 
L 533.369053 516.977775 
L 533.473568 516.684454 
L 533.536735 514.845291 
L 533.558031 515.358877 
L 533.626714 518.371026 
L 533.681369 517.026612 
L 533.711504 516.309704 
L 533.746482 518.302953 
L 533.865711 520.424373 
L 534.294365 515.665056 
L 534.342098 520.111517 
L 534.419876 518.359364 
L 534.439681 518.390959 
L 534.461845 518.311823 
L 534.527437 516.53565 
L 534.596803 514.219878 
L 534.650279 514.914361 
L 534.75378 517.971758 
L 534.79366 516.981562 
L 534.856097 514.649744 
L 534.912943 515.132433 
L 535.059554 518.478467 
L 535.15145 516.31399 
L 535.190737 517.553155 
L 535.205358 517.550264 
L 535.263762 514.903597 
L 535.321272 516.692427 
L 535.397759 518.197405 
L 535.633471 517.15907 
L 535.684141 514.855059 
L 535.735468 517.078937 
L 535.782179 516.812327 
L 535.894851 517.768835 
L 535.942031 517.866011 
L 535.961478 517.684815 
L 536.04732 514.400476 
L 536.078602 515.713893 
L 536.100924 517.710031 
L 536.144768 515.651999 
L 536.176677 516.31987 
L 536.241119 515.987181 
L 536.38499 518.514547 
L 536.531743 518.011127 
L 536.695874 516.031134 
L 536.765595 515.28014 
L 537.133653 520.120687 
L 537.169394 518.871256 
L 537.229329 514.678548 
L 537.263517 516.512527 
L 537.336729 519.525473 
L 537.377867 515.956682 
L 537.459245 517.888336 
L 537.488197 518.175877 
L 537.571348 517.996077 
L 537.633891 515.830105 
L 537.680876 514.712534 
L 537.708188 515.501103 
L 537.810878 518.098734 
L 537.947876 519.643579 
L 537.959665 518.944213 
L 537.986691 517.355813 
L 538.065531 518.508367 
L 538.088309 518.487238 
L 538.092448 518.452553 
L 538.189539 515.359077 
L 538.257496 516.759902 
L 538.313653 518.853914 
L 538.370373 517.830928 
L 538.405165 515.462631 
L 538.440592 518.795509 
L 538.468492 521.488821 
L 538.518773 517.610065 
L 538.552014 519.103182 
L 538.580474 518.755941 
L 538.781529 514.744727 
L 538.967723 518.407205 
L 539.051019 516.347478 
L 539.136043 517.0602 
L 539.324379 517.960894 
L 539.426903 514.482103 
L 539.494379 515.352997 
L 539.62426 516.714753 
L 539.663295 516.65256 
L 539.71655 516.873224 
L 539.788469 514.704461 
L 539.824033 516.996612 
L 539.831786 517.319534 
L 539.874386 516.197778 
L 539.909835 515.671036 
L 539.941376 515.844457 
L 540.091485 518.27086 
L 540.160481 519.153614 
L 540.211473 518.380394 
L 540.224205 518.313318 
L 540.283332 518.523218 
L 540.297934 518.519032 
L 540.32331 518.643317 
L 540.37842 519.137966 
L 540.403719 518.408301 
L 540.416992 517.777705 
L 540.471276 518.871456 
L 540.500896 518.712087 
L 540.630331 516.065121 
L 540.675422 514.880474 
L 540.720435 515.698743 
L 540.787813 517.678536 
L 540.804008 516.828473 
L 540.862477 514.494163 
L 540.909655 516.998506 
L 541.011175 518.671622 
L 541.228379 515.224625 
L 541.235731 515.721368 
L 541.347604 518.596473 
L 541.366509 517.902489 
L 541.49907 515.692663 
L 541.597755 518.149565 
L 541.638212 517.169435 
L 541.653292 516.864054 
L 541.691858 518.181956 
L 541.723152 518.647204 
L 541.799426 518.421158 
L 541.828196 518.456839 
L 541.857534 518.409597 
L 541.889828 518.26478 
L 541.983497 516.119539 
L 542.023369 516.577411 
L 542.076835 519.276504 
L 542.15624 515.15416 
L 542.249562 519.223879 
L 542.293746 518.628267 
L 542.344906 517.057509 
L 542.408865 518.288501 
L 542.417069 518.307338 
L 542.44225 518.093651 
L 542.465068 517.668271 
L 542.487282 518.045412 
L 542.526404 519.032717 
L 542.587597 518.736207 
L 542.663746 517.20701 
L 542.703767 517.810895 
L 542.728098 518.461922 
L 542.772069 517.45857 
L 542.812504 515.594092 
L 542.855183 518.214149 
L 542.881102 518.684978 
L 542.911022 517.31475 
L 542.941483 515.454658 
L 542.992555 518.430328 
L 543.013758 518.075811 
L 543.094404 514.719511 
L 543.146892 517.106844 
L 543.182206 518.159133 
L 543.216904 516.489006 
L 543.251557 515.27725 
L 543.304302 517.454285 
L 543.35581 517.418803 
L 543.409476 515.290007 
L 543.596175 518.63026 
L 543.61914 517.145814 
L 543.644882 515.956383 
L 543.710243 518.602453 
L 543.720842 518.570061 
L 543.76431 517.691992 
L 543.787686 517.791559 
L 543.91035 518.665044 
L 543.981688 518.420261 
L 544.026384 516.554188 
L 544.075958 514.512701 
L 544.142461 518.243551 
L 544.220841 517.4797 
L 544.252565 516.287678 
L 544.295715 518.255511 
L 544.352958 517.129369 
L 544.394313 518.480361 
L 544.463819 515.012433 
L 544.650254 514.805125 
L 544.777571 519.280192 
L 544.816664 518.018103 
L 544.870656 514.929411 
L 544.898411 517.79425 
L 544.922406 519.444443 
L 544.978311 517.015051 
L 545.049485 515.883925 
L 545.129989 518.1388 
L 545.191789 517.249568 
L 545.210776 517.42578 
L 545.214993 517.393886 
L 545.268706 516.470269 
L 545.426579 518.444779 
L 545.496038 517.29382 
L 545.562194 518.231591 
L 545.584036 518.249132 
L 545.631818 516.739769 
L 545.65775 517.855346 
L 545.698671 518.538267 
L 545.736428 518.457537 
L 545.850921 515.885819 
L 545.893086 516.999702 
L 545.93108 517.778503 
L 545.962871 516.818805 
L 546.023271 515.36695 
L 546.041671 515.671534 
L 546.124312 518.89996 
L 546.16401 517.112226 
L 546.177738 516.875018 
L 546.215326 517.629899 
L 546.246777 518.839263 
L 546.290342 517.868502 
L 546.315132 516.690434 
L 546.360098 519.303115 
L 546.370698 519.466869 
L 546.392891 518.548433 
L 546.496552 515.525322 
L 546.520146 515.700039 
L 546.574783 518.502088 
L 546.65478 517.088804 
L 546.669254 516.42492 
L 546.707646 518.308434 
L 546.727568 518.857502 
L 546.760903 518.481756 
L 546.840837 518.42365 
L 547.091971 517.438637 
L 547.110624 517.773519 
L 547.134663 518.036143 
L 547.163078 517.501726 
L 547.188043 516.542926 
L 547.251084 517.133156 
L 547.275478 517.826044 
L 547.313976 516.222396 
L 547.386918 515.140905 
L 547.564541 519.255374 
L 547.626694 514.85177 
L 547.683899 518.260793 
L 547.860501 515.275157 
L 547.876714 515.735919 
L 547.907206 517.381428 
L 547.96761 514.560741 
L 547.991828 514.221872 
L 548.052986 515.026088 
L 548.086587 518.276242 
L 548.142336 514.991204 
L 548.168753 515.057184 
L 548.335134 518.621888 
L 548.357145 518.510759 
L 548.391298 517.323421 
L 548.462268 518.307936 
L 548.493025 518.575543 
L 548.576726 518.211458 
L 548.653221 518.825509 
L 548.762248 514.618548 
L 548.804629 517.196944 
L 548.869911 518.854313 
L 548.932283 518.515244 
L 548.951973 518.35478 
L 549.000449 515.629175 
L 549.080286 516.82947 
L 549.096225 516.813822 
L 549.128983 518.601855 
L 549.222484 518.425743 
L 549.317913 516.135884 
L 549.405351 517.594118 
L 549.422894 517.815778 
L 549.453454 516.087247 
L 549.501021 518.051492 
L 549.555662 517.838403 
L 549.607512 515.352598 
L 549.64009 514.679345 
L 549.667727 516.838639 
L 549.699341 518.112688 
L 549.757572 516.543923 
L 549.795287 518.057771 
L 549.855077 519.896634 
L 549.924441 518.375909 
L 549.947375 518.357869 
L 550.060432 515.470305 
L 550.094211 517.427375 
L 550.131888 518.260893 
L 550.178689 516.379073 
L 550.229771 514.619345 
L 550.2912 514.87559 
L 550.396733 518.544546 
L 550.448694 516.509338 
L 550.486734 514.655325 
L 550.537225 518.08508 
L 550.548001 518.3486 
L 550.56954 516.827975 
L 550.590632 515.035955 
L 550.633624 517.197342 
L 550.783121 515.677614 
L 550.799347 516.145054 
L 550.852655 517.697673 
L 550.896925 515.753461 
L 550.902454 515.694657 
L 550.903304 515.70562 
L 551.015324 518.81006 
L 551.043255 516.885782 
L 551.091008 515.745288 
L 551.11675 517.743619 
L 551.142468 518.620991 
L 551.215689 517.869499 
L 551.234592 517.842888 
L 551.350658 516.506946 
L 551.45664 520.550652 
L 551.468714 517.289335 
L 551.584589 514.666189 
L 551.592876 514.731571 
L 551.66982 519.406171 
L 551.727177 516.277512 
L 551.753955 514.781803 
L 551.789755 517.342358 
L 551.833719 522.363104 
L 551.903827 518.595676 
L 551.935744 518.491424 
L 551.990896 514.840906 
L 552.041859 516.423824 
L 552.247973 518.020894 
L 552.468931 517.495946 
L 552.689254 518.773183 
L 552.910123 517.249468 
L 553.130729 516.861363 
L 553.35145 517.090997 
L 553.571883 518.471789 
L 553.792404 517.522756 
L 554.233634 518.33066 
L 554.895708 515.089476 
L 555.116397 515.010141 
L 555.337061 515.066254 
L 555.557683 518.655476 
L 555.778252 518.330461 
L 555.998751 514.828348 
L 556.219517 518.579629 
L 556.440182 514.749013 
L 556.881159 518.822419 
L 557.102121 518.487238 
L 557.322588 515.155955 
L 557.543219 516.156117 
L 557.763997 516.416049 
L 557.984575 516.221798 
L 558.205268 515.027284 
L 558.425736 518.110296 
L 558.646285 517.762157 
L 558.866907 518.706606 
L 559.087575 517.263621 
L 559.308277 516.753025 
L 559.528996 519.13089 
L 559.749413 516.45173 
L 559.970123 517.826443 
L 560.190805 518.395344 
L 560.411441 517.020632 
L 560.632026 519.305507 
L 561.073256 514.262337 
L 561.293872 515.951201 
L 561.514659 516.32605 
L 561.735314 517.63857 
L 562.176462 517.400963 
L 562.397202 522.604398 
L 562.617756 521.070617 
L 562.838384 514.990208 
L 563.05907 518.679097 
L 563.27953 519.093714 
L 563.500019 515.487947 
L 563.721046 516.62256 
L 563.940242 519.315573 
L 564.602361 514.634096 
L 565.044721 519.012286 
L 565.265632 515.853128 
L 565.487166 515.801799 
L 566.148033 519.851585 
L 566.589028 515.809573 
L 566.809132 516.606315 
L 567.029735 514.711039 
L 567.250808 518.060562 
L 567.692004 514.954128 
L 567.912111 516.906214 
L 568.132623 515.394758 
L 568.353512 517.220565 
L 568.574755 518.027771 
L 568.796328 517.975545 
L 569.016063 516.344987 
L 569.236116 518.667137 
L 569.456465 516.457511 
L 569.677088 517.910761 
L 569.897963 518.554613 
L 570.119068 517.286744 
L 570.340383 517.570796 
L 570.559863 515.409508 
L 570.781553 518.511457 
L 571.001402 517.058605 
L 571.221414 517.347441 
L 571.663795 516.634321 
L 571.884169 518.265976 
L 572.104633 517.4797 
L 572.325169 517.244485 
L 572.545762 516.508441 
L 572.766394 516.355651 
L 572.987049 516.473159 
L 573.207711 515.691467 
L 573.428366 516.396614 
L 573.648997 518.944711 
L 573.869592 518.258003 
L 574.090135 516.2512 
L 574.310612 516.296648 
L 574.531011 515.671434 
L 574.753045 516.944885 
L 574.973232 517.28794 
L 575.414928 515.671036 
L 575.634714 518.240063 
L 575.856004 516.878108 
L 576.07546 517.35083 
L 576.296371 517.163057 
L 576.517071 517.797539 
L 576.737548 516.401199 
L 576.959384 518.494912 
L 577.179376 517.480099 
L 577.400681 517.34784 
L 577.620152 517.515082 
L 577.840893 517.109336 
L 578.061334 518.412188 
L 578.282977 518.212255 
L 578.502781 515.086985 
L 578.723749 518.019598 
L 578.944362 517.336976 
L 579.164614 518.627968 
L 579.38595 518.207571 
L 579.606889 518.123252 
L 579.827425 515.391469 
L 580.047554 518.419663 
L 580.489351 518.422753 
L 580.709584 517.938868 
L 580.929369 515.349309 
L 581.371613 517.948037 
L 581.591329 517.740928 
L 582.03324 516.98824 
L 582.254062 517.647341 
L 582.474348 516.374388 
L 582.695376 515.863394 
L 582.915843 520.234607 
L 583.135748 518.179465 
L 583.356338 518.074316 
L 583.577581 517.741726 
L 583.798218 515.5019 
L 584.018249 516.536248 
L 584.238881 516.426016 
L 584.460083 517.907373 
L 584.680641 515.157151 
L 584.928796 518.140096 
L 635.144532 518.012024 
L 661.112632 517.760862 
L 679.46416 517.357209 
L 685.372033 517.153887 
L 696.106988 516.64658 
L 703.72356 516.13728 
L 714.458516 515.087782 
L 722.075088 514.049248 
L 727.982961 513.00274 
L 732.810044 511.947262 
L 736.891285 510.882814 
L 740.426616 509.810393 
L 743.544999 508.729002 
L 746.334488 507.638641 
L 751.161572 505.372204 
L 755.242812 503.131681 
L 758.778144 500.856274 
L 761.896527 498.545984 
L 764.686016 495.512108 
L 767.209416 492.320359 
L 771.632283 487.348152 
L 773.59434 484.586269 
L 775.420972 481.563157 
L 777.540155 478.406192 
L 779.502213 475.133115 
L 783.037544 468.229752 
L 784.642621 465.586971 
L 786.155927 461.79961 
L 787.587393 457.768064 
L 788.945416 454.945981 
L 791.468816 446.744351 
L 793.7725 438.409664 
L 795.891683 429.215347 
L 799.680372 411.726908 
L 801.389072 405.05577 
L 802.994149 398.149118 
L 804.507455 390.899012 
L 805.938921 384.803553 
L 808.588696 369.588328 
L 809.820344 363.812303 
L 810.997234 356.757247 
L 815.728216 321.926779 
L 816.673876 312.973458 
L 817.134334 309.485198 
L 819.7406 285.5119 
L 828.171872 216.888901 
L 832.080632 187.099312 
L 834.079744 168.917985 
L 835.485862 155.13199 
L 835.938448 150.632007 
L 836.383428 141.330049 
L 836.383428 141.330049 
" clip-path="url(#pfae9f42b03)" style="fill: none; stroke: #510ac9; stroke-width: 5; stroke-linecap: square"/>
   </g>
   <g id="line2d_27">
    <path d="M 75.747474 473.636409 
L 296.016177 473.733984 
L 314.043149 474.193949 
L 324.668154 474.700758 
L 342.911249 475.702116 
L 348.796503 475.706003 
L 353.609229 475.491319 
L 360.083393 474.954909 
L 374.04057 473.707373 
L 382.646331 473.197673 
L 392.712236 472.851927 
L 404.42761 472.682991 
L 417.028792 472.734619 
L 424.137188 472.948106 
L 428.724172 473.326543 
L 430.869069 473.709964 
L 432.408647 474.207703 
L 433.435516 474.753282 
L 434.284863 475.426237 
L 435.108145 476.093211 
L 436.167161 476.535136 
L 436.55358 476.24341 
L 437.247743 475.306636 
L 437.984759 474.469828 
L 438.583744 474.127271 
L 439.227285 474.024116 
L 440.080446 474.147504 
L 441.654257 474.678631 
L 442.639404 474.883647 
L 443.439409 474.809295 
L 445.204074 474.485177 
L 445.479101 474.695774 
L 445.660877 475.075208 
L 445.886357 476.274506 
L 446.4198 480.29459 
L 446.638934 483.685973 
L 446.771721 481.750532 
L 447.116882 476.623641 
L 447.415251 475.015009 
L 447.752176 474.260826 
L 448.167391 473.859365 
L 448.657204 473.676575 
L 449.298476 473.674582 
L 449.961182 473.904216 
L 450.532457 474.35541 
L 450.908429 474.962185 
L 451.130371 475.558694 
L 451.240648 476.600518 
L 451.350468 478.594663 
L 451.423428 478.124632 
L 451.641112 476.752012 
L 451.928601 475.577133 
L 452.354064 473.390331 
L 452.703468 472.626081 
L 453.050033 472.363059 
L 453.457987 472.344222 
L 453.992327 472.556413 
L 454.614774 473.047574 
L 455.252888 473.873717 
L 455.845174 475.067434 
L 456.992896 477.608155 
L 457.257244 477.86131 
L 457.490024 477.817855 
L 457.808222 477.478687 
L 459.065944 475.826102 
L 459.607648 475.562283 
L 459.847248 475.530788 
L 462.033621 476.01846 
L 463.109529 475.370921 
L 463.803254 474.780491 
L 464.522614 475.728528 
L 464.64671 476.718923 
L 464.810906 479.619344 
L 465.246729 475.160125 
L 465.568952 474.82574 
L 465.992572 474.894112 
L 467.424037 476.634205 
L 467.622357 477.183373 
L 467.720963 477.908951 
L 467.819203 480.28871 
L 467.952228 489.121235 
L 468.030166 488.185956 
L 468.208558 482.595213 
L 468.401109 476.343675 
L 468.687336 475.051288 
L 469.157608 474.234812 
L 469.619673 473.800861 
L 470.608692 473.403387 
L 471.647087 473.424815 
L 472.535741 472.735615 
L 473.45108 472.534088 
L 474.232129 472.871861 
L 474.462021 473.226577 
L 474.689933 474.400161 
L 474.76547 475.563877 
L 474.905398 485.466631 
L 475.054291 491.945709 
L 475.139955 490.422293 
L 475.435776 474.488366 
L 475.655492 473.502855 
L 475.945639 473.199866 
L 476.445869 473.190896 
L 476.867241 473.370696 
L 477.350513 473.792887 
L 478.158993 476.041284 
L 478.61945 482.030099 
L 478.943514 499.980098 
L 479.389374 476.230652 
L 479.421658 476.3061 
L 479.642792 478.556889 
L 480.245693 477.488355 
L 480.446082 478.572836 
L 480.748664 483.384579 
L 481.112599 491.497704 
L 481.166553 491.583518 
L 481.225716 491.300662 
L 481.752321 476.876796 
L 482.131377 473.875212 
L 483.383966 472.341331 
L 483.759859 472.341331 
L 483.973805 472.510168 
L 484.06368 473.851292 
L 484.221946 480.434723 
L 484.244629 480.293693 
L 484.448954 473.55817 
L 484.657425 473.423121 
L 484.757428 473.768768 
L 485.078193 478.20596 
L 485.29902 485.780384 
L 485.362787 485.628291 
L 485.711288 480.239773 
L 485.924444 477.32191 
L 486.197194 475.900155 
L 486.704631 474.926305 
L 486.800557 475.246237 
L 486.9947 477.511179 
L 487.086268 477.445398 
L 487.275044 472.695948 
L 487.374552 472.372029 
L 487.787342 472.071033 
L 488.186071 472.103824 
L 488.35636 472.355185 
L 488.644163 474.508001 
L 488.749342 474.028202 
L 489.048326 472.280733 
L 489.397844 472.056183 
L 489.956151 472.013425 
L 490.21791 472.875748 
L 490.32709 474.409729 
L 490.461267 472.412892 
L 490.809611 472.353192 
L 490.900805 472.762526 
L 491.118884 474.063982 
L 491.136773 473.709266 
L 491.20902 473.00093 
L 491.262874 473.20166 
L 491.431821 476.070686 
L 491.921244 472.485351 
L 492.156934 472.403922 
L 494.333213 474.158368 
L 494.619826 477.155566 
L 494.655436 476.607196 
L 494.722962 474.67594 
L 494.867034 474.468333 
L 494.915001 474.173218 
L 495.183909 473.466875 
L 495.768659 473.026744 
L 496.075661 473.119136 
L 496.143702 473.282092 
L 496.269889 474.978032 
L 496.344111 474.174314 
L 496.474664 473.028737 
L 496.862175 472.174388 
L 497.327231 472.07502 
L 497.359381 472.133624 
L 497.481517 473.677472 
L 497.519549 473.149036 
L 497.642539 472.06605 
L 498.041645 472.088973 
L 498.212065 472.233989 
L 498.270806 473.035714 
L 498.37614 476.501847 
L 498.396849 476.065703 
L 498.522297 472.264787 
L 498.614387 472.152561 
L 498.979574 472.129638 
L 499.577244 472.418773 
L 499.748955 473.500662 
L 499.817856 476.525767 
L 499.94551 483.187337 
L 500.02378 480.911432 
L 500.217156 472.857907 
L 500.386786 472.450567 
L 500.420582 472.459537 
L 500.477765 472.861894 
L 500.596595 479.843595 
L 500.648576 476.432279 
L 500.761841 472.230003 
L 500.874623 472.161431 
L 501.095967 472.358175 
L 501.126641 472.531995 
L 501.261462 475.661452 
L 501.32101 474.743515 
L 501.43144 472.200202 
L 501.513962 472.100834 
L 501.808656 472.046216 
L 503.034896 472.070036 
L 503.164235 472.357178 
L 503.215795 473.997305 
L 503.305782 481.152926 
L 503.354505 479.114429 
L 503.523059 472.331364 
L 503.624693 472.419769 
L 503.720886 472.972126 
L 503.776417 475.482549 
L 503.869548 487.252073 
L 503.927275 485.598092 
L 504.052338 474.548665 
L 504.07728 474.79604 
L 504.231396 477.917523 
L 504.322943 477.21118 
L 504.497733 473.395314 
L 504.620136 472.849834 
L 504.93576 472.625383 
L 505.008065 472.896578 
L 505.140113 477.661178 
L 505.390391 472.370035 
L 505.508745 472.305451 
L 505.995495 472.24884 
L 506.088084 472.351198 
L 506.276884 473.242324 
L 506.366209 472.992957 
L 506.436996 472.654187 
L 506.686661 472.478374 
L 506.844322 473.247308 
L 507.087968 476.914171 
L 507.161293 476.646963 
L 507.399853 473.663519 
L 507.443796 473.910893 
L 507.573005 476.470053 
L 507.640642 475.798395 
L 507.814396 472.478374 
L 507.922416 472.396946 
L 508.115749 474.522951 
L 508.201223 472.937342 
L 508.477124 472.202195 
L 508.561442 472.47638 
L 508.605601 474.273583 
L 508.685322 480.28273 
L 508.729275 478.598949 
L 508.854456 472.46741 
L 508.896051 473.139966 
L 508.962469 475.822315 
L 509.020448 473.828468 
L 509.150438 472.037246 
L 509.754797 472.000469 
L 510.094617 472.206182 
L 510.144225 473.703386 
L 510.233285 485.114605 
L 510.272772 480.862994 
L 510.371231 472.417776 
L 510.449736 472.24884 
L 510.625525 472.352195 
L 510.755636 472.99206 
L 510.809822 472.966146 
L 511.103967 472.385982 
L 511.187956 472.466414 
L 511.21272 472.64731 
L 511.288772 474.703847 
L 511.449662 473.016877 
L 511.675148 473.710363 
L 511.861597 474.588532 
L 512.028286 477.145599 
L 512.087301 476.916065 
L 512.248917 475.076205 
L 512.431383 473.590064 
L 512.485878 475.534276 
L 512.58188 483.326473 
L 512.627044 481.665515 
L 512.810516 472.158441 
L 512.83739 472.155451 
L 512.91785 473.492689 
L 512.948182 474.092786 
L 512.989165 473.472855 
L 513.042525 472.45555 
L 513.07449 473.080465 
L 513.163079 476.532644 
L 513.209028 475.57205 
L 513.307726 472.435716 
L 513.411315 472.212162 
L 513.830289 472.10482 
L 514.359649 472.161431 
L 514.444047 473.17186 
L 514.494557 472.64133 
L 514.571819 472.091963 
L 514.878632 472.146581 
L 515.158975 472.466414 
L 515.20814 472.791329 
L 515.278452 474.759362 
L 515.338804 473.783817 
L 515.371369 473.518602 
L 515.420142 473.966607 
L 515.533598 477.320515 
L 515.65945 486.025366 
L 515.74302 484.731085 
L 515.934874 474.628299 
L 516.107944 475.659458 
L 516.177488 475.488529 
L 516.392859 472.407809 
L 516.517819 472.222029 
L 516.533397 472.245949 
L 516.580078 472.822127 
L 516.620468 473.798668 
L 516.68868 472.921495 
L 516.815336 472.27575 
L 516.82766 472.317411 
L 516.889196 473.548303 
L 517.100402 472.375019 
L 517.179552 472.480367 
L 517.225108 472.581729 
L 517.382432 474.31335 
L 517.493807 477.125765 
L 517.511824 477.086994 
L 517.556812 476.398592 
L 517.571791 477.136728 
L 517.64656 485.630085 
L 517.706224 483.432718 
L 517.795468 473.459998 
L 517.839977 475.21544 
L 517.902165 480.841067 
L 517.962731 477.37912 
L 518.076105 472.277743 
L 518.295578 472.071033 
L 518.469856 472.11379 
L 518.513247 472.323391 
L 518.601257 476.687627 
L 518.642995 474.601389 
L 518.729141 472.054189 
L 518.886352 472.040236 
L 519.141609 472.294587 
L 519.16982 472.557809 
L 519.262702 479.157186 
L 519.328648 475.341519 
L 519.394429 472.98608 
L 519.450285 473.117142 
L 519.506023 474.621323 
L 519.592186 480.606649 
L 519.644858 478.443069 
L 519.714003 472.99196 
L 519.824261 472.708805 
L 520.301313 472.211166 
L 520.341806 472.485351 
L 520.429329 476.837627 
L 520.476337 475.240157 
L 520.570103 472.587609 
L 520.623536 472.836977 
L 520.776555 475.480555 
L 520.849427 474.877567 
L 521.034019 472.378009 
L 521.200364 472.169405 
L 521.225161 472.221033 
L 521.29681 473.404284 
L 521.347499 472.441597 
L 521.401978 472.150568 
L 521.6342 472.848937 
L 521.713718 475.965337 
L 521.800657 485.814769 
L 521.879678 484.045473 
L 522.044604 475.444775 
L 522.195937 472.354188 
L 522.459952 472.099837 
L 522.483597 472.161431 
L 522.566809 474.161258 
L 522.618838 472.768506 
L 522.692989 472.154455 
L 522.71766 472.157445 
L 522.857848 472.722758 
L 522.959449 484.866135 
L 523.013152 480.399042 
L 523.086209 472.735715 
L 523.163914 472.543955 
L 523.185728 472.613523 
L 523.240183 473.709266 
L 523.418495 480.779472 
L 523.448497 480.744688 
L 523.605155 472.642327 
L 523.68611 473.874216 
L 523.764447 484.874108 
L 523.820092 477.041247 
L 523.8768 472.610533 
L 523.918073 474.639163 
L 523.968693 477.491245 
L 524.018042 474.355011 
L 524.111786 472.123658 
L 524.226172 472.151564 
L 524.247128 472.351198 
L 524.320344 475.92268 
L 524.364408 473.869232 
L 524.445387 472.091864 
L 524.520362 472.135618 
L 524.62038 472.956279 
L 524.722309 485.440319 
L 524.782822 478.711174 
L 524.911381 472.904552 
L 524.945407 472.600566 
L 524.969199 473.110265 
L 525.056255 481.735083 
L 525.105873 477.419784 
L 525.180126 472.521131 
L 525.294472 472.26977 
L 525.425029 472.384985 
L 525.493953 473.014883 
L 525.588155 480.392065 
L 525.643412 476.446332 
L 525.71177 472.609536 
L 525.75468 472.826113 
L 525.808493 472.510168 
L 525.854532 472.611529 
L 525.929994 473.968601 
L 526.012863 475.415074 
L 526.318105 472.389969 
L 526.450148 473.301926 
L 526.570879 475.527299 
L 526.644329 487.13885 
L 526.70167 481.610997 
L 526.771585 474.052022 
L 526.825485 476.66281 
L 526.900339 481.485715 
L 526.950825 479.946053 
L 527.067206 472.700931 
L 527.141381 472.415783 
L 527.157025 472.44957 
L 527.24654 475.535273 
L 527.309851 473.655645 
L 527.329539 473.16588 
L 527.343002 473.578104 
L 527.394718 478.246326 
L 527.449428 474.459363 
L 527.584169 472.029273 
L 527.659981 472.106814 
L 527.706998 472.504188 
L 527.763105 472.050203 
L 527.907414 471.980635 
L 528.022702 472.106814 
L 528.087205 474.263616 
L 528.12543 472.875748 
L 528.216745 471.993592 
L 528.237772 472.006449 
L 528.271782 472.114787 
L 528.331693 472.052196 
L 528.452103 472.012429 
L 528.616407 472.122661 
L 528.668652 472.908538 
L 528.775775 476.091516 
L 528.813019 474.344048 
L 528.868787 472.577742 
L 528.887351 472.613523 
L 528.975106 473.822488 
L 529.063541 476.475037 
L 529.104258 475.93464 
L 529.242421 472.317411 
L 529.277091 472.494221 
L 529.357809 475.113979 
L 529.407655 473.632821 
L 529.553774 472.205185 
L 529.627007 472.323391 
L 529.669712 473.361527 
L 529.730329 476.041882 
L 529.776646 474.388799 
L 529.88221 472.328374 
L 529.96392 473.355646 
L 530.047249 484.898925 
L 530.092082 479.56064 
L 530.225198 472.177378 
L 530.240979 472.153458 
L 530.264169 472.205185 
L 530.316965 472.709901 
L 530.36042 472.129638 
L 530.447117 472.018409 
L 530.469207 472.042229 
L 530.517924 472.285617 
L 530.565634 472.046216 
L 530.656231 471.990602 
L 530.826516 472.119771 
L 530.865518 473.421128 
L 530.926175 476.226665 
L 530.968642 473.596044 
L 531.026361 472.303557 
L 531.129758 472.371032 
L 531.20324 473.039701 
L 531.290792 477.250848 
L 531.33446 476.364705 
L 531.375389 475.140789 
L 531.403824 476.80673 
L 531.47655 478.238352 
L 531.518144 477.667158 
L 531.605544 475.033547 
L 531.662772 475.407997 
L 531.750573 476.181915 
L 531.819731 476.116433 
L 532.042605 473.880096 
L 532.196473 473.767871 
L 532.291115 474.664977 
L 532.378573 478.486723 
L 532.428175 476.756198 
L 532.510924 473.272125 
L 532.538166 474.48119 
L 532.562829 475.992248 
L 532.628205 473.019867 
L 532.640921 472.99495 
L 532.654479 473.072491 
L 532.712867 476.088626 
L 532.777873 481.839435 
L 532.827576 479.105658 
L 532.898177 473.170863 
L 532.961056 474.300394 
L 533.032138 477.877756 
L 533.081366 475.722049 
L 533.177056 472.667144 
L 533.298044 472.506181 
L 533.369053 472.583722 
L 533.473568 473.196677 
L 533.58667 479.599311 
L 533.626714 478.055562 
L 533.669958 473.617871 
L 533.728592 477.014437 
L 533.746482 477.109818 
L 533.766797 476.63889 
L 533.865711 472.495218 
L 534.088129 472.109804 
L 534.294365 472.525118 
L 534.35799 473.909 
L 534.439681 483.773481 
L 534.486362 478.828483 
L 534.510857 476.317163 
L 534.575539 480.133727 
L 534.596803 480.118877 
L 534.650279 477.987988 
L 534.674623 476.344971 
L 534.710704 480.563892 
L 534.75378 483.582718 
L 534.810064 479.588447 
L 534.997596 473.52847 
L 535.087388 475.322682 
L 535.158387 478.181741 
L 535.21305 477.375033 
L 535.321272 472.412793 
L 535.397759 472.119771 
L 535.561459 472.355185 
L 535.633471 473.915877 
L 535.706042 476.929022 
L 535.752806 475.927663 
L 535.816783 472.965149 
L 535.847588 474.771322 
L 535.894851 478.586092 
L 535.942031 474.4484 
L 535.989874 472.412793 
L 536.052536 474.492154 
L 536.176677 472.099837 
L 536.345227 472.091864 
L 536.428367 475.099128 
L 536.47754 472.512161 
L 536.483405 472.466414 
L 536.498795 472.920498 
L 536.525889 474.25066 
L 536.569766 472.252827 
L 536.695874 471.966681 
L 536.975101 471.989605 
L 537.022551 472.804187 
L 537.088552 472.018409 
L 537.101446 472.019405 
L 537.133653 472.758539 
L 537.169394 475.92268 
L 537.23788 472.121664 
L 537.336729 471.983625 
L 537.438747 472.112794 
L 537.467016 473.682456 
L 537.510772 481.291962 
L 537.571348 472.686978 
L 537.588931 472.465417 
L 537.618444 473.902023 
L 537.722183 476.838623 
L 537.741064 475.507366 
L 537.87425 472.037246 
L 537.968677 472.09585 
L 538.152397 475.566967 
L 538.189539 474.43345 
L 538.257496 472.102827 
L 538.313653 473.111162 
L 538.328015 473.155913 
L 538.384705 472.191232 
L 538.440592 472.439603 
L 538.48209 476.622046 
L 538.518773 479.74333 
L 538.552014 476.156201 
L 538.580474 472.720765 
L 538.640681 477.281645 
L 538.652841 477.227027 
L 538.730398 472.901562 
L 538.781529 473.869232 
L 538.846644 476.464073 
L 538.88952 475.625671 
L 538.934999 472.897575 
L 538.967723 474.066873 
L 539.013068 476.079656 
L 539.051019 474.417602 
L 539.098214 472.79731 
L 539.136043 472.844951 
L 539.324379 474.46923 
L 539.3954 474.06787 
L 539.416406 474.213982 
L 539.465576 475.344509 
L 539.494379 475.236171 
L 539.55842 474.201025 
L 539.583863 474.99976 
L 539.607978 477.288622 
L 539.663295 473.996408 
L 539.73471 472.735715 
L 539.788469 476.915068 
L 539.831786 473.419134 
L 539.874386 472.552925 
L 539.941376 472.954286 
L 540.019103 476.145237 
L 540.065246 474.766339 
L 540.160481 472.247843 
L 540.19045 473.626841 
L 540.235023 482.044052 
L 540.294126 472.429636 
L 540.297934 472.353192 
L 540.32331 473.257275 
L 540.35753 476.030919 
L 540.416992 472.207179 
L 540.433415 472.25781 
L 540.500896 475.985271 
L 540.563179 472.848937 
L 540.596463 472.753556 
L 540.742914 472.07502 
L 540.804008 472.088874 
L 540.862477 472.857907 
L 540.909655 472.081997 
L 540.940647 472.077013 
L 541.011175 472.26379 
L 541.106767 473.376477 
L 541.158428 472.850931 
L 541.235731 472.182262 
L 541.273075 472.490234 
L 541.309144 474.102653 
L 541.366509 472.137611 
L 541.3854 472.120668 
L 541.49907 472.415783 
L 541.548761 473.625845 
L 541.667158 492.345774 
L 541.701491 481.545416 
L 541.828196 472.133624 
L 541.956683 472.131631 
L 542.076835 472.236979 
L 542.15624 473.492689 
L 542.249562 472.717775 
L 542.37133 482.521758 
L 542.408865 491.074218 
L 542.465068 477.261811 
L 542.526404 472.887708 
L 542.587597 473.074485 
L 542.663746 472.233989 
L 542.703767 472.308441 
L 542.855183 476.83364 
L 542.889737 474.726571 
L 542.924245 472.428739 
L 542.992555 474.565609 
L 543.03151 473.569234 
L 543.051538 474.387802 
L 543.072694 475.429924 
L 543.112102 472.563789 
L 543.164555 472.10183 
L 543.216904 472.239969 
L 543.251557 472.489337 
L 543.304302 472.006449 
L 543.409476 471.969671 
L 543.596175 472.042229 
L 543.628096 474.061989 
L 543.660538 481.023857 
L 543.720842 472.246846 
L 543.91035 471.982628 
L 543.945767 472.003459 
L 544.001563 473.061528 
L 544.059444 472.037246 
L 544.142461 472.073027 
L 544.21263 472.319404 
L 544.244364 476.446133 
L 544.272237 480.82811 
L 544.33716 472.164422 
L 544.394313 472.071033 
L 544.463819 472.112794 
L 544.650254 471.986615 
L 544.753981 472.44359 
L 544.898411 476.589255 
L 544.91441 475.462715 
L 544.978311 472.358175 
L 545.049485 472.426646 
L 545.103005 473.176743 
L 545.153775 475.816335 
L 545.214993 473.829465 
L 545.268706 475.90773 
L 545.46107 472.43761 
L 545.475167 472.385982 
L 545.516893 472.558805 
L 545.631818 475.074311 
L 545.65775 474.574579 
L 545.817449 472.087877 
L 545.859668 472.043226 
L 545.867898 472.056083 
L 545.914144 472.756546 
L 545.962871 472.028276 
L 546.041671 472.267777 
L 546.101891 472.145584 
L 546.146204 474.149397 
L 546.177738 475.815338 
L 546.215326 472.904552 
L 546.290342 472.058076 
L 546.328781 472.584619 
L 546.381797 477.596594 
L 546.432693 472.44359 
L 546.439236 472.417776 
L 546.45584 472.769403 
L 546.468412 473.017774 
L 546.507598 472.328374 
L 546.555748 472.485351 
L 546.574783 472.313424 
L 546.641797 472.767409 
L 546.694689 477.153473 
L 546.747972 474.09478 
L 546.840837 472.373025 
L 547.048723 472.515151 
L 547.084113 475.41308 
L 547.127793 489.780036 
L 547.188043 475.351486 
L 547.240832 474.193052 
L 547.275478 475.591884 
L 547.321279 483.998929 
L 547.372346 472.733722 
L 547.469344 472.081 
L 547.564541 472.368042 
L 547.596358 475.3773 
L 547.635354 482.839697 
L 547.695421 472.573756 
L 547.751999 472.247843 
L 547.7812 472.814153 
L 547.812758 474.893415 
L 547.876714 472.106814 
L 547.896252 472.304454 
L 547.923867 473.214517 
L 547.977585 472.150468 
L 547.991828 472.182262 
L 548.041619 474.036076 
L 548.086587 483.577734 
L 548.142336 472.842957 
L 548.192316 472.397843 
L 548.307007 476.750218 
L 548.404853 490.532027 
L 548.354336 474.232819 
L 548.431475 479.118515 
L 548.493025 472.671131 
L 548.576726 473.036711 
L 548.653221 476.365701 
L 548.781144 472.419769 
L 548.804629 472.453557 
L 548.825334 473.931824 
L 548.869911 482.924115 
L 548.944648 476.837627 
L 549.010499 488.133232 
L 549.047468 478.703301 
L 549.128983 472.528008 
L 549.202087 472.44658 
L 549.222484 472.525018 
L 549.375186 476.926032 
L 549.422894 486.328355 
L 549.479491 475.131919 
L 549.607512 472.311431 
L 549.618674 472.395949 
L 549.667727 477.697956 
L 549.720248 472.262793 
L 549.730917 472.195219 
L 549.767783 472.292594 
L 549.80238 475.056371 
L 549.834277 482.063886 
L 549.893537 472.270767 
L 549.947375 472.07502 
L 550.060432 472.550832 
L 550.094211 478.961539 
L 550.131888 491.210363 
L 550.188302 473.497672 
L 550.212755 472.989967 
L 550.243289 474.459363 
L 550.361168 485.590218 
L 550.377656 483.999925 
L 550.439176 473.633718 
L 550.486734 480.407912 
L 550.500553 481.974484 
L 550.548001 476.555468 
L 550.633624 472.655184 
L 550.708692 472.531995 
L 550.799347 473.802655 
L 550.852655 486.510049 
L 550.955978 481.797674 
L 551.091008 473.025747 
L 551.11675 472.450567 
L 551.153 474.720591 
L 551.16816 475.881916 
L 551.215689 472.11379 
L 551.350658 471.978641 
L 551.468714 472.087877 
L 551.501991 475.100125 
L 551.629307 479.208913 
L 551.568421 472.239969 
L 551.640062 478.997319 
L 551.699133 472.176382 
L 551.798389 472.851927 
L 551.833719 476.750218 
L 551.86121 480.969139 
L 551.913242 473.37249 
L 551.927564 474.136441 
L 551.935744 474.208999 
L 551.944331 473.828468 
L 551.990896 472.153458 
L 552.041859 472.237976 
L 552.247973 473.207541 
L 552.468931 479.290342 
L 552.689254 474.046042 
L 552.910123 485.759155 
L 553.130729 472.45555 
L 553.35145 472.25482 
L 553.571883 479.933097 
L 553.792404 472.070036 
L 554.012993 472.233989 
L 554.233634 473.953651 
L 554.454311 474.626206 
L 554.675007 483.869859 
L 554.895708 472.24286 
L 555.116397 473.080365 
L 555.337061 472.009439 
L 555.557683 472.189239 
L 555.778252 473.298936 
L 555.998751 472.539968 
L 556.219517 472.311431 
L 556.660733 482.438336 
L 556.881159 473.965611 
L 557.102121 479.314162 
L 557.322588 471.972661 
L 557.543219 472.23987 
L 557.763997 479.3926 
L 557.984575 472.117678 
L 558.205268 479.993694 
L 558.425736 472.502194 
L 558.646285 473.108172 
L 558.866907 471.948841 
L 559.087575 474.305277 
L 559.528996 472.213059 
L 559.749413 474.569595 
L 559.970123 475.421951 
L 560.190805 474.200028 
L 560.411441 493.670653 
L 560.632026 472.313424 
L 560.85283 473.083355 
L 561.073256 471.994489 
L 561.293872 475.576934 
L 561.514659 472.992957 
L 561.735314 472.998937 
L 562.397202 476.780019 
L 562.617756 472.678008 
L 562.838384 474.040062 
L 563.05907 480.216152 
L 563.27953 478.105197 
L 563.500019 472.230003 
L 563.721046 472.303458 
L 563.940242 474.789163 
L 564.162793 475.207367 
L 564.383489 478.026758 
L 564.824465 472.406813 
L 565.487166 482.273487 
L 565.927161 476.470053 
L 566.148033 477.156463 
L 566.809132 472.24884 
L 567.029735 485.998456 
L 567.250808 474.968962 
L 567.472325 472.313424 
L 567.912111 472.064056 
L 568.132623 474.867601 
L 568.353512 472.012429 
L 568.574755 471.978641 
L 568.796328 472.971129 
L 569.016063 472.040236 
L 569.236116 472.677011 
L 569.456465 476.340884 
L 569.677088 472.133624 
L 569.897963 475.811351 
L 570.119068 472.062063 
L 570.340383 472.033259 
L 570.559863 472.572659 
L 570.781553 474.712618 
L 571.001402 474.217869 
L 571.221414 472.693855 
L 571.443528 472.887608 
L 571.663795 473.425114 
L 571.884169 474.696771 
L 572.325169 472.867774 
L 572.545762 475.588794 
L 572.766394 483.867766 
L 572.987049 477.740613 
L 573.207711 477.54088 
L 573.428366 477.721676 
L 573.648997 472.172295 
L 573.869592 473.16279 
L 574.090135 473.601924 
L 574.310612 475.839159 
L 574.531011 473.616875 
L 574.753045 475.835172 
L 574.973232 472.25771 
L 575.193302 474.47521 
L 575.414928 478.737985 
L 575.634714 472.559802 
L 575.856004 485.51477 
L 576.07546 476.30012 
L 576.296371 475.902746 
L 576.517071 473.507539 
L 576.737548 473.946674 
L 576.959384 473.37538 
L 577.179376 476.946862 
L 577.400681 487.618649 
L 577.620152 474.407636 
L 578.061334 480.900568 
L 578.282977 472.43163 
L 578.502781 475.407997 
L 578.723749 474.235709 
L 578.944362 476.537528 
L 579.38595 472.291497 
L 579.606889 474.710625 
L 579.827425 472.23688 
L 580.047554 472.97701 
L 580.268673 478.379282 
L 580.489351 475.517233 
L 580.709584 479.979741 
L 580.929369 474.838797 
L 581.151414 477.590614 
L 581.371613 476.777926 
L 581.591329 472.192129 
L 581.813206 484.03162 
L 582.03324 473.313786 
L 582.254062 473.969498 
L 582.474348 472.147478 
L 582.695376 476.483907 
L 582.915843 490.10575 
L 583.135748 474.618233 
L 583.356338 488.274162 
L 583.577581 476.034905 
L 583.798218 477.450481 
L 584.018249 477.826028 
L 584.238881 473.170763 
L 584.460083 487.436756 
L 584.90173 473.903917 
L 585.122157 474.721488 
L 585.34308 472.297478 
L 585.784025 476.62992 
L 586.005163 488.131139 
L 586.225588 472.645217 
L 586.446415 480.681998 
L 586.666517 475.585804 
L 586.886989 476.892145 
L 587.107806 472.541862 
L 587.328946 474.792053 
L 587.549319 475.441785 
L 587.769986 475.096038 
L 587.989877 476.696498 
L 588.211074 473.55817 
L 588.431469 472.204089 
L 588.652088 473.769764 
L 588.87291 472.253724 
L 589.092911 483.517037 
L 589.314089 472.034156 
L 589.754899 477.331279 
L 589.975499 477.636261 
L 590.196203 473.55219 
L 590.416995 475.033447 
L 590.637857 473.759798 
L 590.858772 475.728827 
L 591.299771 474.834711 
L 591.520755 473.346577 
L 591.74082 474.332088 
L 591.961777 472.158342 
L 592.181798 472.07193 
L 592.402668 482.418403 
L 592.623469 472.334155 
L 592.844188 476.142147 
L 593.064813 472.005352 
L 593.28533 472.008342 
L 593.726835 475.546037 
L 593.946948 475.784441 
L 594.167736 472.262694 
L 594.388344 473.627639 
L 594.608761 472.542859 
L 594.829785 472.231896 
L 595.050585 484.23524 
L 595.27115 472.39276 
L 595.491471 472.878638 
L 595.712322 473.729 
L 595.932899 472.454354 
L 596.153962 480.146485 
L 596.373959 480.101834 
L 596.59517 474.207803 
L 596.815299 474.102554 
L 597.035847 479.303099 
L 597.256787 478.131907 
L 597.698297 472.411696 
L 597.918841 475.461519 
L 598.138992 474.053816 
L 598.36016 475.489426 
L 598.580198 472.006349 
L 599.021771 475.696036 
L 599.242566 472.103624 
L 599.462894 471.977545 
L 599.683424 474.721488 
L 599.904137 474.768133 
L 600.125013 472.601363 
L 600.345375 473.695313 
L 600.566525 485.992177 
L 601.228 472.061465 
L 601.448861 472.65927 
L 601.669145 471.954522 
L 601.890091 474.633382 
L 602.110437 471.97017 
L 602.331403 477.504501 
L 602.772674 472.463025 
L 603.213787 477.193838 
L 603.26856 475.414874 
L 606.058049 476.05135 
L 624.409577 476.007397 
L 671.847588 475.424443 
L 679.46416 475.193214 
L 696.106988 474.257437 
L 709.631433 468.940679 
L 718.539757 467.6459 
L 722.075088 466.994574 
L 727.982961 465.684845 
L 732.810044 464.365647 
L 736.891285 463.037379 
L 740.426616 461.697451 
L 743.544999 460.331808 
L 746.334488 458.938458 
L 751.161572 456.067538 
L 755.242812 453.085191 
L 758.778144 450.013242 
L 761.896527 446.985745 
L 764.686016 444.024726 
L 767.209416 441.130485 
L 771.632283 435.534858 
L 775.420972 430.046075 
L 777.540155 426.638446 
L 779.502213 423.248559 
L 781.328844 419.850498 
L 784.642621 412.95471 
L 786.155927 409.458477 
L 787.587393 405.8558 
L 788.945416 402.071329 
L 790.237168 398.104965 
L 792.645706 389.772073 
L 797.85374 370.592677 
L 799.680372 363.651839 
L 801.389072 356.468012 
L 802.994149 348.393856 
L 812.124028 297.678797 
L 813.729104 287.116445 
L 824.978167 207.119204 
L 831.556345 155.348667 
L 834.079744 132.954499 
L 836.383428 110.654915 
L 836.383428 110.654915 
" clip-path="url(#pfae9f42b03)" style="fill: none; stroke: #ab1239; stroke-opacity: 0.8; stroke-width: 5; stroke-linecap: square"/>
   </g>
   <g id="patch_3">
    <path d="M 75.7475 560.571 
L 75.7475 62.234 
" style="fill: none; stroke: #000000; stroke-width: 0.8; stroke-linejoin: miter; stroke-linecap: square"/>
   </g>
   <g id="patch_4">
    <path d="M 844 560.571 
L 844 62.234 
" style="fill: none; stroke: #000000; stroke-width: 0.8; stroke-linejoin: miter; stroke-linecap: square"/>
   </g>
   <g id="patch_5">
    <path d="M 75.7475 560.571 
L 844 560.571 
" style="fill: none; stroke: #000000; stroke-width: 0.8; stroke-linejoin: miter; stroke-linecap: square"/>
   </g>
   <g id="patch_6">
    <path d="M 75.7475 62.234 
L 844 62.234 
" style="fill: none; stroke: #000000; stroke-width: 0.8; stroke-linejoin: miter; stroke-linecap: square"/>
   </g>
   <g id="text_15">
    <!-- Yield of fission neutrons -->
    <g transform="translate(276.255 43.775575) scale(0.3 -0.3)">
     <use xlink:href="#DejaVuSerif-59"/>
     <use xlink:href="#DejaVuSerif-69" transform="translate(64.265625 0)"/>
     <use xlink:href="#DejaVuSerif-65" transform="translate(96.248047 0)"/>
     <use xlink:href="#DejaVuSerif-6c" transform="translate(155.427734 0)"/>
     <use xlink:href="#DejaVuSerif-64" transform="translate(187.410156 0)"/>
     <use xlink:href="#DejaVuSerif-20" transform="translate(251.423828 0)"/>
     <use xlink:href="#DejaVuSerif-6f" transform="translate(283.210938 0)"/>
     <use xlink:href="#DejaVuSerif-66" transform="translate(343.416016 0)"/>
     <use xlink:href="#DejaVuSerif-20" transform="translate(380.427734 0)"/>
     <use xlink:href="#DejaVuSerif-66" transform="translate(412.214844 0)"/>
     <use xlink:href="#DejaVuSerif-69" transform="translate(449.226562 0)"/>
     <use xlink:href="#DejaVuSerif-73" transform="translate(481.208984 0)"/>
     <use xlink:href="#DejaVuSerif-73" transform="translate(532.527344 0)"/>
     <use xlink:href="#DejaVuSerif-69" transform="translate(583.845703 0)"/>
     <use xlink:href="#DejaVuSerif-6f" transform="translate(615.828125 0)"/>
     <use xlink:href="#DejaVuSerif-6e" transform="translate(676.033203 0)"/>
     <use xlink:href="#DejaVuSerif-20" transform="translate(740.4375 0)"/>
     <use xlink:href="#DejaVuSerif-6e" transform="translate(772.224609 0)"/>
     <use xlink:href="#DejaVuSerif-65" transform="translate(836.628906 0)"/>
     <use xlink:href="#DejaVuSerif-75" transform="translate(895.808594 0)"/>
     <use xlink:href="#DejaVuSerif-74" transform="translate(960.212891 0)"/>
     <use xlink:href="#DejaVuSerif-72" transform="translate(1000.398438 0)"/>
     <use xlink:href="#DejaVuSerif-6f" transform="translate(1048.201172 0)"/>
     <use xlink:href="#DejaVuSerif-6e" transform="translate(1108.40625 0)"/>
     <use xlink:href="#DejaVuSerif-73" transform="translate(1172.810547 0)"/>
    </g>
   </g>
   <g id="legend_1">
    <g id="patch_7">
     <path d="M 89.7475 166.30275 
L 207.5475 166.30275 
Q 211.5475 166.30275 211.5475 162.30275 
L 211.5475 76.234 
Q 211.5475 72.234 207.5475 72.234 
L 89.7475 72.234 
Q 85.7475 72.234 85.7475 76.234 
L 85.7475 162.30275 
Q 85.7475 166.30275 89.7475 166.30275 
z
" style="fill: #ffffff; opacity: 0.95; stroke: #cccccc; stroke-linejoin: miter"/>
    </g>
    <g id="line2d_28">
     <path d="M 93.7475 88.430875 
L 113.7475 88.430875 
L 133.7475 88.430875 
" style="fill: none; stroke: #0652ff; stroke-opacity: 0.9; stroke-width: 5; stroke-linecap: square"/>
    </g>
    <g id="text_16">
     <!-- $\mathrm{^{233}U}$ -->
     <g transform="translate(149.7475 95.430875) scale(0.2 -0.2)">
      <defs>
       <path id="DejaVuSerif-55" d="M 897 4331 
L 300 4331 
L 300 4666 
L 2125 4666 
L 2125 4331 
L 1528 4331 
L 1528 1919 
Q 1528 1025 1820 672 
Q 2113 319 2828 319 
Q 3544 319 3836 672 
Q 4128 1025 4128 1919 
L 4128 4331 
L 3531 4331 
L 3531 4666 
L 5106 4666 
L 5106 4331 
L 4513 4331 
L 4513 1856 
Q 4513 791 4103 350 
Q 3694 -91 2713 -91 
Q 1731 -91 1314 353 
Q 897 797 897 1856 
L 897 4331 
z
" transform="scale(0.015625)"/>
      </defs>
      <use xlink:href="#DejaVuSerif-32" transform="translate(0.908359 37.046875) scale(0.7)"/>
      <use xlink:href="#DejaVuSerif-33" transform="translate(45.444492 37.046875) scale(0.7)"/>
      <use xlink:href="#DejaVuSerif-33" transform="translate(89.980625 37.046875) scale(0.7)"/>
      <use xlink:href="#DejaVuSerif-55" transform="translate(137.11207 0.7125)"/>
     </g>
    </g>
    <g id="line2d_29">
     <path d="M 93.7475 117.787125 
L 113.7475 117.787125 
L 133.7475 117.787125 
" style="fill: none; stroke: #510ac9; stroke-width: 5; stroke-linecap: square"/>
    </g>
    <g id="text_17">
     <!-- $\mathrm{^{235}U}$ -->
     <g transform="translate(149.7475 124.787125) scale(0.2 -0.2)">
      <use xlink:href="#DejaVuSerif-32" transform="translate(0.908359 37.046875) scale(0.7)"/>
      <use xlink:href="#DejaVuSerif-33" transform="translate(45.444492 37.046875) scale(0.7)"/>
      <use xlink:href="#DejaVuSerif-35" transform="translate(89.980625 37.046875) scale(0.7)"/>
      <use xlink:href="#DejaVuSerif-55" transform="translate(137.11207 0.7125)"/>
     </g>
    </g>
    <g id="line2d_30">
     <path d="M 93.7475 147.143375 
L 113.7475 147.143375 
L 133.7475 147.143375 
" style="fill: none; stroke: #ab1239; stroke-opacity: 0.8; stroke-width: 5; stroke-linecap: square"/>
    </g>
    <g id="text_18">
     <!-- $\mathrm{^{239}Pu}$ -->
     <g transform="translate(149.7475 154.143375) scale(0.2 -0.2)">
      <defs>
       <path id="DejaVuSerif-50" d="M 1581 2375 
L 2406 2375 
Q 2872 2375 3115 2626 
Q 3359 2878 3359 3353 
Q 3359 3831 3115 4081 
Q 2872 4331 2406 4331 
L 1581 4331 
L 1581 2375 
z
M 353 0 
L 353 331 
L 947 331 
L 947 4331 
L 353 4331 
L 353 4666 
L 2559 4666 
Q 3259 4666 3668 4311 
Q 4078 3956 4078 3353 
Q 4078 2753 3668 2397 
Q 3259 2041 2559 2041 
L 1581 2041 
L 1581 331 
L 2303 331 
L 2303 0 
L 353 0 
z
" transform="scale(0.015625)"/>
      </defs>
      <use xlink:href="#DejaVuSerif-32" transform="translate(0.908359 37.046875) scale(0.7)"/>
      <use xlink:href="#DejaVuSerif-33" transform="translate(45.444492 37.046875) scale(0.7)"/>
      <use xlink:href="#DejaVuSerif-39" transform="translate(89.980625 37.046875) scale(0.7)"/>
      <use xlink:href="#DejaVuSerif-50" transform="translate(137.11207 0.7125)"/>
      <use xlink:href="#DejaVuSerif-75" transform="translate(204.397227 0.7125)"/>
     </g>
    </g>
   </g>
  </g>
 </g>
 <defs>
  <clipPath id="pfae9f42b03">
   <rect x="75.7475" y="62.234" width="768.2525" height="498.337"/>
  </clipPath>
 </defs>
</svg>
